<svg width="185" height="703" viewBox="0 0 185 703" fill="none" xmlns="http://www.w3.org/2000/svg">
<path d="M92.5 280V40" stroke="#FF7373" stroke-opacity="0.3" stroke-width="6" stroke-dasharray="4 4"/>
<path d="M79.501 355.191L88.7804 364.473L85.0713 368.185L88.7856 371.899L85.0739 375.611L78.577 369.114L71.1509 376.54L67.4391 372.828L74.8653 365.399L68.3684 358.905L72.0801 355.193L75.7919 358.903L79.501 355.191ZM68.875 327.875L78.1832 327.883L109.203 358.905L112.917 355.193L116.632 358.905L110.135 365.402L117.558 372.828L113.847 376.54L106.42 369.114L99.9261 375.611L96.2117 371.899L99.9235 368.185L68.8803 337.144L68.875 327.875ZM106.825 327.875L116.125 327.883L116.13 337.131L105.491 347.767L96.2091 338.488L106.825 327.875Z" fill="#FF7373"/>
<path d="M92.5 663V423" stroke="#FF7373" stroke-opacity="0.3" stroke-width="6" stroke-dasharray="4 4"/>
</svg>
