<svg width="33" height="31" viewBox="0 0 33 31" fill="none" xmlns="http://www.w3.org/2000/svg">
<path d="M8.24668 17.3433L14.1383 23.2367L11.7833 25.5933L14.1417 27.9517L11.785 30.3083L7.66002 26.1833L2.94501 30.8983L0.588348 28.5417L5.30335 23.825L1.17835 19.7017L3.53502 17.345L5.89168 19.7L8.24668 17.3433ZM1.50001 0L7.41001 0.00500003L27.105 19.7017L29.4633 17.345L31.8217 19.7017L27.6967 23.8267L32.41 28.5417L30.0533 30.8983L25.3383 26.1833L21.215 30.3083L18.8567 27.9517L21.2133 25.5933L1.50335 5.885L1.50001 0ZM25.595 0L31.5 0.00500003L31.5033 5.87667L24.7483 12.63L18.855 6.73833L25.595 0Z" fill="#FCF1E8"/>
</svg>
