<svg xmlns="http://www.w3.org/2000/svg" xmlns:xlink="http://www.w3.org/1999/xlink" width="33" height="33" viewBox="0 0 33 33" fill="none"><g opacity="1"  transform="translate(0 0)"><mask id="bg-mask-0" fill="white"><use transform="translate(0 0)" xlink:href="#path_0"></use></mask><g mask="url(#bg-mask-0)" ><path id="Vector" fill-rule="evenodd" style="fill:#FCF1E8" opacity="1" d="M18.0469 13.4062L18.0469 8.25C18.0469 7.83974 18.2099 7.44629 18.4999 7.15619C18.79 6.8661 19.1835 6.70312 19.5938 6.70312C20.004 6.70312 20.3975 6.8661 20.6876 7.15619C20.9776 7.44629 21.1406 7.83974 21.1406 8.25L21.1406 9.66797L25.7181 5.08922C26.0087 4.79862 26.4028 4.63536 26.8138 4.63536C27.2248 4.63536 27.6189 4.79862 27.9095 5.08922C28.2001 5.37982 28.3633 5.77395 28.3633 6.18492C28.3633 6.59589 28.2001 6.99003 27.9095 7.28063L23.332 11.8594L24.75 11.8594C25.1603 11.8594 25.5537 12.0223 25.8438 12.3124C26.1339 12.6025 26.2969 12.996 26.2969 13.4062C26.2969 13.8165 26.1339 14.21 25.8438 14.5001C25.5537 14.7902 25.1603 14.9531 24.75 14.9531L19.5938 14.9531C19.1835 14.9531 18.79 14.7902 18.4999 14.5001C18.2099 14.21 18.0469 13.8165 18.0469 13.4062ZM13.4062 18.0469L8.25 18.0469C7.83974 18.0469 7.44629 18.2099 7.15619 18.4999C6.8661 18.79 6.70312 19.1835 6.70312 19.5938C6.70312 20.004 6.8661 20.3975 7.15619 20.6876C7.44629 20.9777 7.83974 21.1406 8.25 21.1406L9.66797 21.1406L5.09309 25.7181C4.80249 26.0087 4.63923 26.4028 4.63923 26.8138C4.63923 27.2248 4.80249 27.6189 5.09309 27.9095C5.38368 28.2001 5.77782 28.3633 6.18879 28.3633C6.59976 28.3633 6.99389 28.2001 7.28449 27.9095L11.8594 23.332L11.8594 24.75C11.8594 25.1603 12.0223 25.5537 12.3124 25.8438C12.6025 26.1339 12.996 26.2969 13.4062 26.2969C13.8165 26.2969 14.21 26.1339 14.5001 25.8438C14.7902 25.5537 14.9531 25.1603 14.9531 24.75L14.9531 19.5938C14.9531 19.1835 14.7902 18.79 14.5001 18.4999C14.21 18.2099 13.8165 18.0469 13.4062 18.0469ZM23.332 21.1406L24.75 21.1406C25.1603 21.1406 25.5537 20.9777 25.8438 20.6876C26.1339 20.3975 26.2969 20.004 26.2969 19.5938C26.2969 19.1835 26.1339 18.79 25.8438 18.4999C25.5537 18.2099 25.1603 18.0469 24.75 18.0469L19.5938 18.0469C19.1835 18.0469 18.79 18.2099 18.4999 18.4999C18.2099 18.79 18.0469 19.1835 18.0469 19.5938L18.0469 24.75C18.0469 25.1603 18.2099 25.5537 18.4999 25.8438C18.79 26.1339 19.1835 26.2969 19.5938 26.2969C20.004 26.2969 20.3975 26.1339 20.6876 25.8438C20.9776 25.5537 21.1406 25.1603 21.1406 24.75L21.1406 23.332L25.7181 27.9108C26.0087 28.2014 26.4028 28.3646 26.8138 28.3646C27.2248 28.3646 27.6189 28.2014 27.9095 27.9108C28.2001 27.6202 28.3633 27.226 28.3633 26.8151C28.3633 26.4041 28.2001 26.01 27.9095 25.7194L23.332 21.1406ZM13.4062 6.70312C12.996 6.70312 12.6025 6.8661 12.3124 7.15619C12.0223 7.44629 11.8594 7.83974 11.8594 8.25L11.8594 9.66797L7.28191 5.09309C6.99132 4.80249 6.59718 4.63923 6.18621 4.63923C5.77524 4.63923 5.38111 4.80249 5.09051 5.09309C4.79991 5.38368 4.63665 5.77782 4.63665 6.18879C4.63665 6.59976 4.79991 6.99389 5.09051 7.28449L9.66797 11.8594L8.25 11.8594C7.83974 11.8594 7.44629 12.0223 7.15619 12.3124C6.8661 12.6025 6.70312 12.996 6.70312 13.4062C6.70312 13.8165 6.8661 14.21 7.15619 14.5001C7.44629 14.7902 7.83974 14.9531 8.25 14.9531L13.4062 14.9531C13.8165 14.9531 14.21 14.7902 14.5001 14.5001C14.7902 14.21 14.9531 13.8165 14.9531 13.4062L14.9531 8.25C14.9531 7.83974 14.7902 7.44629 14.5001 7.15619C14.21 6.8661 13.8165 6.70312 13.4062 6.70312Z"></path></g></g><defs><rect id="path_0" x="0" y="0" width="33" height="33" rx="0" ry="0"/></defs></svg>