<svg xmlns="http://www.w3.org/2000/svg" xmlns:xlink="http://www.w3.org/1999/xlink" width="27" height="27" viewBox="0 0 27 27" fill="none"><g opacity="1"  transform="translate(0 0)"><mask id="bg-mask-0" fill="white"><use transform="translate(0 0)" xlink:href="#path_0"></use></mask><g mask="url(#bg-mask-0)" ><path id="Vector" fill-rule="evenodd" style="fill:#FBEFE5" opacity="1" d="M12.375 22.6125L21.6 13.3875C22.1625 12.825 22.8375 12.4875 23.625 12.4875C24.4125 12.4875 25.0875 12.825 25.65 13.3875L25.875 13.6125L25.875 4.5C25.875 3.2625 24.8625 2.25 23.625 2.25L3.375 2.25C2.1375 2.25 1.125 3.2625 1.125 4.5L1.125 22.5C1.125 23.7375 2.1375 24.75 3.375 24.75L12.375 24.75L12.375 22.6125ZM3.375 4.5L23.625 4.5L23.625 7.875L3.375 7.875L3.375 4.5ZM23.625 14.7375C23.5125 14.7375 23.2875 14.85 23.175 14.9625L22.05 16.0875L24.4125 18.45L25.5375 17.325C25.7625 17.1 25.7625 16.65 25.5375 16.425L24.075 14.9625C23.9625 14.85 23.85 14.7375 23.625 14.7375ZM21.4875 16.7625L14.625 23.5125L14.625 25.875L16.9875 25.875L23.85 19.0125L21.4875 16.7625Z"></path></g></g><defs><rect id="path_0" x="0" y="0" width="27" height="27" rx="0" ry="0"/></defs></svg>