<svg xmlns="http://www.w3.org/2000/svg" xmlns:xlink="http://www.w3.org/1999/xlink" width="60" height="60" viewBox="0 0 60 60" fill="none"><g opacity="1"  transform="translate(0 0)"><mask id="bg-mask-0" fill="white"><use transform="translate(0 0)" xlink:href="#path_0"></use></mask><g mask="url(#bg-mask-0)" ><path id="Vector" fill-rule="evenodd" style="fill:#FCF1E8" opacity="1" d="M55 20.405L55 20.5875C55 22.7375 55 23.815 54.4825 24.695C53.965 25.575 53.0225 26.0975 51.1425 27.145L49.16 28.245C50.525 23.625 50.9825 18.66 51.15 14.415L51.175 13.8625L51.18 13.7325C52.8075 14.2975 53.7225 14.72 54.2925 15.51C55 16.4925 55 17.7975 55 20.405ZM5 20.405L5 20.5875C5 22.7375 5 23.815 5.5175 24.695C6.035 25.575 6.9775 26.0975 8.8575 27.145L10.8425 28.245C9.475 23.625 9.0175 18.66 8.85 14.415L8.825 13.8625L8.8225 13.7325C7.1925 14.2975 6.2775 14.72 5.7075 15.51C5 16.4925 5 17.8 5 20.405Z"></path><path id="Vector" fill-rule="evenodd" style="fill:#FCF1E8" opacity="1" d="M40.9425 5.8675C37.3255 5.27468 33.6653 4.98451 30 5C25.5425 5 21.8675 5.3925 19.0575 5.8675C16.21 6.3475 14.7875 6.5875 13.5975 8.0525C12.41 9.5175 12.4725 11.1 12.5975 14.265C13.03 25.135 15.375 38.715 28.125 39.915L28.125 48.75L24.55 48.75C23.9723 48.7504 23.4125 48.9508 22.9658 49.3172C22.5192 49.6837 22.2132 50.1935 22.1 50.76L21.625 53.125L15 53.125C14.5027 53.125 14.0258 53.3225 13.6742 53.6742C13.3225 54.0258 13.125 54.5027 13.125 55C13.125 55.4973 13.3225 55.9742 13.6742 56.3258C14.0258 56.6775 14.5027 56.875 15 56.875L45 56.875C45.4973 56.875 45.9742 56.6775 46.3258 56.3258C46.6775 55.9742 46.875 55.4973 46.875 55C46.875 54.5027 46.6775 54.0258 46.3258 53.6742C45.9742 53.3225 45.4973 53.125 45 53.125L38.375 53.125L37.9 50.76C37.7868 50.1935 37.4808 49.6837 37.0342 49.3172C36.5875 48.9508 36.0277 48.7504 35.45 48.75L31.875 48.75L31.875 39.915C44.625 38.715 46.9725 25.1375 47.4025 14.265C47.5275 11.1 47.5925 9.515 46.4025 8.0525C45.2125 6.5875 43.79 6.3475 40.9425 5.8675Z"></path></g></g><defs><rect id="path_0" x="0" y="0" width="60" height="60" rx="0" ry="0"/></defs></svg>