<svg xmlns="http://www.w3.org/2000/svg" xmlns:xlink="http://www.w3.org/1999/xlink" width="33" height="33" viewBox="0 0 33 33" fill="none"><g opacity="1"  transform="translate(0 0)"><mask id="bg-mask-0" fill="white"><use transform="translate(0 0)" xlink:href="#path_0"></use></mask><g mask="url(#bg-mask-0)" ><path id="Vector" fill-rule="evenodd" style="fill:#FBEFE5" opacity="1" d="M24.75 17.875L23.815 17.875L21.065 20.625L23.6912 20.625L26.125 23.375L6.875 23.375L9.3225 20.625L12.1412 20.625L9.39125 17.875L8.25 17.875L4.125 22L4.125 27.5C4.125 28.2293 4.41473 28.9288 4.93046 29.4445C5.44618 29.9603 6.14565 30.25 6.875 30.25L26.125 30.25C26.8543 30.25 27.5538 29.9603 28.0695 29.4445C28.5853 28.9288 28.875 28.2293 28.875 27.5L28.875 22L24.75 17.875ZM23.375 10.9312L16.5688 17.7375L11.6875 12.87L18.5075 6.06375L23.375 10.9312ZM17.545 3.14875L8.78625 11.9075C8.65878 12.0347 8.55765 12.1858 8.48866 12.3521C8.41965 12.5185 8.38414 12.6968 8.38414 12.8769C8.38414 13.057 8.41965 13.2353 8.48866 13.4016C8.55765 13.5679 8.65878 13.719 8.78625 13.8462L15.5925 20.625C16.1287 21.1887 16.995 21.1887 17.5312 20.625L26.2763 11.9075C26.4037 11.7803 26.5048 11.6292 26.5738 11.4629C26.6428 11.2965 26.6784 11.1182 26.6784 10.9381C26.6784 10.758 26.6428 10.5797 26.5738 10.4134C26.5048 10.2471 26.4037 10.096 26.2763 9.96875L19.47 3.1625C19.3459 3.0327 19.1971 2.92915 19.0322 2.85798C18.8674 2.7868 18.69 2.74947 18.5104 2.74819C18.3309 2.74691 18.1529 2.7817 17.9871 2.85051C17.8212 2.91932 17.6709 3.02074 17.545 3.14875Z"></path></g></g><defs><rect id="path_0" x="0" y="0" width="33" height="33" rx="0" ry="0"/></defs></svg>