<svg width="72" height="30" viewBox="0 0 72 30" fill="none" xmlns="http://www.w3.org/2000/svg">
<rect width="72" height="30" rx="10" fill="url(#paint0_linear_40_753)"/>
<path d="M20.6933 23.1675C23.2983 22.6458 26.6667 20.7716 26.6667 15.9258C26.6667 11.5166 23.4392 8.57998 21.1183 7.23082C20.6025 6.93082 20 7.32498 20 7.92082V9.44415C20 10.6458 19.495 12.8391 18.0917 13.7516C17.375 14.2175 16.6 13.52 16.5133 12.67L16.4417 11.9716C16.3583 11.16 15.5317 10.6675 14.8833 11.1625C13.7175 12.05 12.5 13.6083 12.5 15.925C12.5 21.8508 16.9075 23.3333 19.1108 23.3333C19.2392 23.3333 19.3742 23.3283 19.5142 23.3208C18.4258 23.2283 16.6667 22.5533 16.6667 20.37C16.6667 18.6616 17.9125 17.5075 18.8592 16.945C19.1142 16.795 19.4117 16.9908 19.4117 17.2866V17.7783C19.4117 18.1533 19.5575 18.7408 19.9033 19.1425C20.295 19.5975 20.8692 19.1208 20.915 18.5225C20.93 18.3341 21.12 18.2141 21.2833 18.3091C21.8175 18.6216 22.5 19.2883 22.5 20.37C22.5 22.0766 21.5592 22.8617 20.6933 23.1675Z" fill="#FF7373"/>
<path d="M34.4102 11.7646H35.8867V9.3584H37.6504V11.7646H38.9629V13.542H37.6504V15.5996L38.8809 15.333C38.8353 16.1169 38.8171 16.7139 38.8262 17.124L37.6504 17.4043V20.9795C37.6504 21.458 37.5296 21.875 37.2881 22.2305C37.0511 22.5859 36.224 22.7705 34.8066 22.7842C34.7155 22.3285 34.5605 21.7087 34.3418 20.9248C34.638 20.9476 34.9001 20.959 35.1279 20.959C35.4469 20.959 35.652 20.9157 35.7432 20.8291C35.8389 20.738 35.8867 20.5602 35.8867 20.2959V17.8418L34.4102 18.2178L34.2188 16.2627L35.8867 15.9551V13.542H34.4102V11.7646ZM47.7402 12.5576C47.5671 13.2959 47.4531 13.8564 47.3984 14.2393L45.6826 14.2529C45.195 14.2529 44.8304 14.1299 44.5889 13.8838C44.3473 13.6377 44.2266 13.2686 44.2266 12.7764V11.4775H42.0254C42.0527 12.9359 41.4603 14.0661 40.248 14.8682C39.8105 14.4945 39.3275 14.1025 38.7988 13.6924C39.3685 13.3187 39.765 12.8994 39.9883 12.4346C40.2116 11.9652 40.3027 11.0902 40.2617 9.80957H46.0176V11.9424C46.0176 12.2796 46.1338 12.4733 46.3662 12.5234C46.6032 12.569 47.0612 12.5804 47.7402 12.5576ZM46.9746 14.9639V16.6182C46.4004 17.8076 45.6393 18.8558 44.6914 19.7627C45.612 20.264 46.6465 20.6742 47.7949 20.9932C47.2116 21.7223 46.7604 22.3239 46.4414 22.7979C45.2292 22.3376 44.1195 21.7497 43.1123 21.0342C42.0003 21.7861 40.7129 22.4059 39.25 22.8936C38.9948 22.4834 38.5938 21.9046 38.0469 21.1572C39.4049 20.7926 40.5807 20.3369 41.5742 19.79C40.877 19.1338 40.2389 18.4001 39.6602 17.5889L41.1367 16.6865C41.6882 17.4567 42.349 18.1403 43.1191 18.7373C43.8483 18.1266 44.4225 17.4339 44.8418 16.6592H39.332V14.9639H46.9746ZM49.0664 12.1201H52.4434V11.2725H48.5879V9.85059H61.4531V11.2725H57.625V12.1201H61.0156V15.6885H49.0664V12.1201ZM54.2207 12.1201H55.8477V11.2725H54.2207V12.1201ZM59.252 14.376V13.4326H57.625V14.376H59.252ZM54.2207 14.376H55.8477V13.4326H54.2207V14.376ZM50.8301 14.376H52.4434V13.4326H50.8301V14.376ZM49.2031 16.3447H60.8516V17.6982H49.2031V16.3447ZM48.2324 18.3818H61.8223V19.8447H56.1621V21.3076C56.1621 21.7633 56.0482 22.112 55.8203 22.3535C55.597 22.5951 55.2484 22.7295 54.7744 22.7568C54.3005 22.7842 53.6465 22.7979 52.8125 22.7979C52.694 22.1963 52.5755 21.6859 52.457 21.2666C52.9674 21.2939 53.4277 21.3076 53.8379 21.3076C54.1569 21.3076 54.3164 21.1117 54.3164 20.7197V19.8447H52.0332L52.9082 21.0205L49.1484 22.7432C48.8203 22.1781 48.4967 21.6768 48.1777 21.2393C48.9753 21.0068 50.1533 20.542 51.7119 19.8447H48.2324V18.3818ZM57.8164 19.8857C58.9648 20.2777 60.2546 20.7334 61.6855 21.2529L60.8789 22.6885C59.7852 22.2236 58.5091 21.7178 57.0508 21.1709L57.8164 19.8857Z" fill="#FF7373"/>
<defs>
<linearGradient id="paint0_linear_40_753" x1="-8.26937e-07" y1="3.52941" x2="68.2019" y2="37.6025" gradientUnits="userSpaceOnUse">
<stop stop-color="#F6B39B"/>
<stop offset="1" stop-color="white"/>
</linearGradient>
</defs>
</svg>
