<?xml version="1.0" encoding="utf-8"?>
<!-- Generator: Adobe Illustrator 27.0.1, SVG Export Plug-In . SVG Version: 6.00 Build 0)  -->
<svg version="1.1" id="图层_1" xmlns:xodm="http://www.corel.com/coreldraw/odm/2003"
	 xmlns="http://www.w3.org/2000/svg" xmlns:xlink="http://www.w3.org/1999/xlink" x="0px" y="0px" viewBox="0 0 1080 1080"
	 style="enable-background:new 0 0 1080 1080;" xml:space="preserve">
<style type="text/css">
	.st0{fill-rule:evenodd;clip-rule:evenodd;}
</style>
<g id="图层_x0020_1">
	<g id="_2425739286480">
		<path class="st0" d="M540,78.5l380.7,219.8l-109.5,63.2c0.1-3.1-0.3-6.3-1.1-9.4c-1.5-5.9-4.7-11.7-9.3-16.9l-16.5-19l-19-16.5
			c-5.2-4.5-11-7.7-16.9-9.2c-5.6-1.4-11.3-1.5-16.9,0.1c-6.2,1.7-11.7,5.1-16.2,10.3c-1.3,1.5-2.5,3.1-3.5,4.8l-27.4-15.8
			L540,206.4l-144.5,83.4l-48,27.7L314.2,289l6.7,43.9l-50.9,29.4l-110.7-63.9L540,78.5L540,78.5z M939.7,331.2v439.6L559,990.5
			V862.7l125.5-72.4l144.5-83.4V540V395.1L939.7,331.2L939.7,331.2z M521,990.5L140.3,770.8V331.2l110.8,63.9v144.4l-53.3,19.3
			l53.3,27.2v120.9l46.2,26.6c-1.4,11.9-2.1,25.4-2.9,41.7l-1.6,32.7l32.7-1.6c35.2-1.8,57.2-2.9,78.4-11.3L521,862.7V990.5
			L521,990.5z"/>
		<path class="st0" d="M577.4,352.8c9.8-7.3,28-9.7,42.6-13c-47.9-17.5-77.6-12.2-82-11.4c-0.5,3.4-1.9,15.4-7.3,24.4
			C550.5,349.2,562,349.4,577.4,352.8L577.4,352.8z M353.6,359.8c4.7,30.3-7.7,79.2-10,85.4c-2.4,6.2-6.6,11.8-15.7,38.9
			c-9.1,27.2-9.4,74.8-2.5,90.3c-16.7-11.7-37.2-18.4-56.8-11.3c33,16.8,57.1,61.4,71.9,80.6c14.8,19.2,8.1,10.5,12.5,15.6
			c29.9,31.8,50.6,50.3,91.9,62.9c26.4,8,53.8,10.8,89.1-1.9c38.1-13.6,93.8-85.5,62.9-116.4c-8.6,4.8-18,8.5-27.6,10.7
			c-4.5,1.1-9.8,1.3-14.5,1.3c-43.7-0.3-80-44.7-81.6-85.6c-1.6-40.9,31-72.4,61.4-88.3c2.8-4.1,6.6-7.7,11.3-10.4
			c4.3-2.5,9.5-4.2,15.2-4.8c-13-3.8-21.5-5.1-42.3-1.8c21-15.4,37.4-27.9,69.5-33.1c1.2-5.2,3.7-9.8,9.3-15.2
			c-49.1-9.4-116.6-6.6-174.9,70.5c20.5-39.3,26-52.1,70.4-90.8c8.2-7.1,22.9-26.4,18.6-50.8c-13.2,21.8-37.5,33.6-70.5,48.2
			c-25,11.1-47.7,29.4-64.5,52.5c-2.2-9.4-6.4-31.6-21-44.9L353.6,359.8L353.6,359.8z M322.4,778.2c2.2-44.4,3.1-65.3,21.1-91.9
			c24.4,25.9,50.6,47.3,87.3,58C395,774.8,375.5,775.5,322.4,778.2L322.4,778.2z M498.8,529.2l33.2-32.1
			c7.7-7.4,18.8-25.9,22.9-39.6c0.9-2.9,4.6-5.5,9.8-5.6l24.9-0.5l1.4-4.3c0.8-2.4,1.8-2.7,3.9-2.7l16-0.1c0.8,0,1.5-0.7,1.5-1.5
			l0.1-35.3c0-6.9-0.1-10.5,5.3-15l11.3-9.3l28.5,29.2l72.8-71.5l4.5-17.8c1.8-7,6.7-6.7,12.1-2l17.4,15.2l15.2,17.4
			c4.7,5.4,4.9,10.3-2,12.1l-17.8,4.5L688.2,443l29.2,28.5l-9.3,11.3c-4.5,5.5-8,5.3-15,5.4l-35.3,0.1c-0.8,0-1.5,0.7-1.5,1.5
			l-0.1,16c0,2.1-0.4,3.1-2.7,3.9l-4.3,1.4l-0.5,24.9c-0.1,5.2-2.7,8.9-5.6,9.8c-13.7,4.1-32.2,15.3-39.6,22.9l-5.4,5.6l-13.3,7.5
			c-3.8,2.2-7.5,3.9-11.1,5.3c-3.1,1.2-6.6,2.2-10.2,2.9l0,0c-2.3,0.4-4.3,0.6-5.9,0.7c-13.6,0.5-26.4-5-36.6-14.2
			c-10.7-9.7-18.4-23.3-21.1-38.2c-0.6-3.2-0.9-6.2-1-8.8C498.8,529.4,498.8,529.3,498.8,529.2L498.8,529.2z M476.8,757
			c77.2,28.7,152.7,10.8,199.3-35.2c-3.5,6.5-7.7,13.6-12,19.9c57.6-33.3,128-127.6,78.8-225.2c9.1,7.4,16.7,16.3,23.1,28.5
			c0.4-41.6-11.3-79.7-33.7-110.7l-8.2,8.4l27.7,27.1L727.6,499c-11.9,14.4-19.5,14.4-34,14.5l-12.9,0c-1,4.4-3.5,8.9-6.5,12.3
			l-0.2,10.7c-0.2,6.9-2.1,13.2-5,18.4c-4.3,7.5-11,12.8-18.7,15.1v0c-7.9,2.4-23,10.4-28.7,16.3l-3,3.1c5.7,6.4,9.6,13.7,11.8,21.8
			c4.4,15.9,1.4,33.4-5.3,50.8C600.8,724.6,545.1,758.8,476.8,757L476.8,757z"/>
	</g>
</g>
</svg>
