<?xml version="1.0" encoding="utf-8"?>
<!-- Generator: Adobe Illustrator 27.0.1, SVG Export Plug-In . SVG Version: 6.00 Build 0)  -->
<svg version="1.1" id="图层_1" xmlns="http://www.w3.org/2000/svg" xmlns:xlink="http://www.w3.org/1999/xlink" x="0px" y="0px"
	 viewBox="0 0 720 720" style="enable-background:new 0 0 720 720;" xml:space="preserve">
<g>
	<g>
		<path d="M361.3,711c-6.5-10.7-12.6-20.6-18.7-30.5c-10.2-16.7-20.6-33.2-30.4-50.1c-2.7-4.7-4-10.5-5.1-15.9
			c-3.9-19.2-7.4-38.5-11.3-57.7c-0.3-1.6-2.3-3.6-3.9-4c-40.6-10.7-74.4-32-101.4-64.1c-0.2-0.2-0.2-0.6-0.5-1.4
			c14.1-4.1,22.9-12.9,22.1-28.4c-0.6-11-6.9-18.6-17.1-22.7c-10.4-4.2-19.5-1.3-31.1,9.8c-0.9-2.1-1.9-3.9-2.6-5.8
			c-20.4-51.4-20.3-102.6,2.1-153.2c17.2-38.7,43.5-68.9,84.6-83.7c2-0.7,4-1.4,6.8-2.4c-24.8,24.1-37.5,53.2-42.4,85.9
			c-5,32.9,0.9,64.2,15.1,94.3c-10.2-7.4-18.8-16.5-24.4-27.6c-5.6-10.9-9.7-22.5-13.8-32.3c-2.9,20.8,4.7,64.7,28.3,98.4
			c24,34.3,56.2,55.8,97,65.4c1.6-5.5-1.6-9.4-4.3-12.5c-5.7-6.6-6-14-5.7-22c1-24.4,1.8-48.7,2.6-73.1c0.1-4.7,1.7-8.1,5.5-11.1
			c3.3-2.7,6.8-5,7.8-10.3c1.5-8.1-1.2-13-7.5-17.2c-1.5-1-2.8-3.8-2.7-5.7c0-9.2,0.4-18.4,1-27.5c0.2-3.2-0.6-5.2-3.1-7.2
			c-7.9-6.5-15.6-13.2-23.3-19.8c-5.9-5-5.9-5.1-1.8-12.9c-15,12.8-26.3,27-35.1,43.3c-0.4-0.1-0.8-0.3-1.2-0.5
			c0.4-2.7,0.6-5.4,1.1-8c5.7-31.4,18.2-59.7,39.1-84.1c1-1.2,1.9-4,1.2-4.9c-10.3-13.4-12.7-29.9-18.2-45.2
			c-2.3-6.4-4.2-13-6.3-19.5c-1.7-5.1-0.8-6.6,4.6-7.4c4.5-0.7,8.9-1.6,13.4-1.7c2.3,0,5.2,1.1,6.7,2.8c4.2,4.7,7.9,10,11.8,14.9
			c4.8,6,16.9,5.3,20.9-1c1.2-1.8,2.5-3.6,3.4-5.6c3.4-7.3,9.2-11.7,16.7-14.1c3.8-1.2,5.4-3.5,5.4-7.8c-0.3-30.4-0.1-60.8-0.5-91.3
			c-0.1-8.7-1.7-17.5-2.7-26.7c12.4,0,24.3,0,36.4,0c-1,15.3-2.5,30.5-2.9,45.8c-0.5,23.4-0.3,46.8-0.2,70.2c0,3.9,0.5,7.7,5.3,9
			c10.5,2.8,15.7,11.1,20.7,19.8c4,7,15.9,7.6,21,1.1c3.9-4.8,7.6-9.7,11.3-14.7c2-2.7,4.2-3.8,7.7-3c3.9,0.9,7.9,1.4,11.9,1.6
			c4.7,0.3,6.2,2.6,5,6.9c-2.1,7.5-4.3,15.1-6.9,22.4c-1.4,3.9-0.9,5.6,3.3,7.4c29.6,12.2,54.5,30.8,75.3,56.1
			c-14.8,4.1-23.3,12.9-22.5,28.4c0.6,10.8,6.5,18.6,16.6,22.5c12.4,4.8,22.5,0.2,31.5-9.6c1,2.1,1.8,3.8,2.5,5.6
			c24.2,62,19.5,121.3-15.3,178.3c-17.2,28.1-41,47.7-71.8,59.1c-1.8,0.7-3.6,1.2-5.2,1.7c23.5-23.8,36.7-52.6,41.5-85.2
			c4.8-32.8-0.6-64.2-15.1-94.2c10.5,7.3,18.8,16.6,24.5,27.7c5.5,10.9,9.6,22.5,13.7,32.2c5.3-66-40.8-137.8-106.8-157.9
			c1.2,3,1.8,5.6,3.1,7.6c4.5,6.9,9.1,13.6,13.9,20.3c2.5,3.5,2.1,5.7-1.2,8.4c-8.3,6.7-16.3,13.8-24.6,20.6
			c-3.1,2.6-4.3,5.4-3.9,9.5c0.7,8.5,1.1,17,0.7,25.5c-0.1,2.8-2.4,6.2-4.7,8.1c-7.1,6-8.4,16.9-1,22.4c7.4,5.5,9.1,12.3,9.3,20.7
			c0.5,23.9,1.6,47.8,2,71.7c0.1,4.8-1.4,9.5-2.2,14.6c24-14.2,43.1-34.1,57-59.2c0.4,0.2,0.8,0.3,1.2,0.5c-0.4,3-0.7,6.1-1.3,9.1
			c-6.2,32.6-19.5,61.7-42,86.4c-1.7,1.9-2.9,4.5-3.8,6.9c-0.4,1,0.3,3.4,1,3.7c7.7,2.9,4.9,9.2,4,14c-3.6,19.9-7.8,39.8-11.7,59.6
			c-2.1,10.6-3.9,21.2-6.1,31.8c-0.5,2.4-1.7,4.7-3,6.8c-15.7,26-31.4,52-47.1,78.1C363.6,708.2,362.7,709.1,361.3,711z"/>
		<path d="M278.4,653.7c-34.3-19.8-68.3-39.4-102.3-59c-24.3-14-48.6-28.1-72.9-42.1C77.6,538,65,516,65,486.7
			c0.1-84.3,0.1-168.6,0-252.9c0-29.1,12.4-51,37.7-65.6c66-38.1,132-76.2,198-114.3c1.4-0.8,2.9-1.6,4.9-2.6c0.3,2.6,0.8,4.8,0.9,7
			c0.3,12.9,0.4,25.8,0.7,38.6c0.1,4.2-1.8,5.6-5.6,4.2c-18-6.7-35.7-2.5-52.9,2.7c-10.4,3.2-17.9,11.4-21.7,21.5
			c-2.5,6.7-2.5,14.3-4.1,21.4c-0.3,1.6-2.1,3.2-3.6,4.1c-24.3,14.1-48.5,28.2-72.9,42.1c-25.4,14.5-37.8,36.4-37.9,65.5
			c0,67.9,0,135.8,0,203.7c0,29.1,12.5,51,37.8,65.5c37.5,21.5,74.9,43.3,112.5,64.8c3.2,1.8,4.7,3.9,5.4,7.7
			c2.3,12.6,4.8,25.2,7.8,37.7C273.2,643.2,276,648.1,278.4,653.7z"/>
		<path d="M416.8,101.6c0-16.3,0-32.3,0-49c2.2,1.2,3.8,1.9,5.3,2.8c64.7,37.3,129.3,74.8,194.1,111.9
			c26.4,15.1,39.3,37.4,39.2,67.8c-0.2,84-0.1,167.9-0.1,251.9c0,28.9-12.4,50.7-37.5,65.2c-56.1,32.4-112.3,64.8-168.5,97.2
			c-1.2,0.7-2.6,1.3-4.7,2.5c10.1-17,10.3-35.8,14.4-53.5c0.8-3.6,2.5-5.4,5.4-7.1c36.5-21,72.9-42.2,109.5-63
			c26.3-15,39.1-37.2,39-67.4c-0.1-67.2-0.1-134.5,0-201.7c0-29.7-12.5-51.9-38.5-66.7c-24-13.6-47.8-27.6-71.7-41.3
			c-2.6-1.5-3.8-2.6-3.4-6.1c1.7-15.3-8.4-34.7-22.4-40.7c-7.5-3.2-16.2-3.7-24.2-5.8c-11.9-3.2-23.1-0.5-34.2,3.2
			C418.2,102,417.7,101.7,416.8,101.6z"/>
	</g>
</g>
</svg>
