<svg xmlns="http://www.w3.org/2000/svg" xmlns:xlink="http://www.w3.org/1999/xlink" width="515.375" height="161" viewBox="0 0 515.375 161" fill="none">
<g filter="url(#filter_0)">
<path     fill="url(#linear_0)" opacity="1" d="M40.5 0.5L494.875 0.5L494.875 100.5C494.875 111.546 485.921 120.5 474.875 120.5L20.5 120.5L20.5 20.5C20.5 9.4543 29.4543 0.5 40.5 0.5Z">
</path>
<path   fill="rgba(255, 255, 255, 1)"  d="M40.5 0L495.375 0L495.375 100.5C495.375 111.822 486.197 121 474.875 121L20 121L20 20.5C20 9.17816 29.1782 0 40.5 0ZM40.5 1C29.7304 1 21 9.73045 21 20.5L21 120.5L20.5 120.5L20.5 120L474.875 120C485.645 120 494.375 111.27 494.375 100.5L494.375 0.5L494.875 0.5L494.875 1L40.5 1Z">
</path>
</g>
<g opacity="0.6">
<path   fill="rgba(255, 255, 255, 1)"  d="M42.418 7L488.457 7L488.457 98.5C488.457 107.06 481.517 114 472.957 114L26.918 114L26.918 22.5C26.918 13.9396 33.8576 7 42.418 7ZM42.418 8C34.4098 8 27.918 14.4919 27.918 22.5L27.918 113.5L27.418 113.5L27.418 113L472.957 113C480.965 113 487.457 106.508 487.457 98.5L487.457 7.5L487.957 7.5L487.957 8L42.418 8Z">
</path>
</g>
<g >
<path     fill="url(#linear_1)"  d="M145.954 76.556L151.81 76.556L158.098 58.316L167.218 58.316L160.93 76.556L167.41 76.556L166.786 81.116L128.482 81.116L129.106 76.556L136.834 76.556L134.386 58.268L143.506 58.268L145.954 76.556ZM147.298 51.02L147.538 49.196L145.954 47.372L156.898 47.372L156.37 51.02L170.098 51.02L169.426 55.58L132.946 55.58L133.618 51.02L147.298 51.02ZM190.978 69.74L191.17 81.116L184.354 81.116L184.306 78.86L171.106 81.116L175.714 48.284L195.778 48.284L193.09 67.436L179.842 67.436L178.882 74.444L184.162 73.58L184.114 69.74L190.978 69.74ZM208.402 52.844L204.274 52.844L200.194 81.932L193.378 81.932L198.082 48.284L215.842 48.284L212.194 74.204Q212.002 75.596 210.946 76.532Q209.89 77.468 208.498 77.468L202.162 77.468L205.426 74.06L208.402 52.844ZM186.946 62.876L187.33 60.14L180.898 60.14L180.514 62.876L186.946 62.876ZM181.906 52.844L181.522 55.58L187.954 55.58L188.338 52.844L181.906 52.844ZM245.506 56.492L242.002 58.316L258.466 58.316L257.89 62.396L253.09 62.396L257.506 65.18L247.042 65.18L242.626 62.396L234.13 62.396L228.802 65.18L218.29 65.18L223.618 62.396L219.586 62.396L220.162 58.316L231.49 58.316L234.994 56.492L245.506 56.492ZM248.674 56.492L248.242 55.1L221.362 56.012L222.034 51.452L226.882 48.14L226.258 47.372L237.202 47.372L231.634 51.164L246.898 50.636L246.178 48.284L255.298 48.284L257.794 56.492L248.674 56.492ZM256.786 70.172L218.338 71.084L218.914 66.956L257.362 66.044L256.786 70.172ZM256.018 75.644L217.57 76.556L218.146 72.428L256.594 71.516L256.018 75.644ZM255.25 81.116L216.802 81.932L217.378 77.948L255.826 76.988L255.25 81.116ZM266.338 65.612L271.186 48.956L269.794 47.372L280.738 47.372L279.394 51.932L302.914 51.932L302.29 56.492L278.05 56.492L276.754 61.052L299.794 61.052L297.442 77.852Q297.25 79.244 296.194 80.18Q295.138 81.116 293.746 81.116L276.13 81.116L280.306 76.7L280.306 76.556L288.514 76.556L290.05 65.612L266.338 65.612ZM285.97 68.78L285.298 73.34L260.674 73.34L261.346 68.78L285.97 68.78ZM320.386 81.932L325.138 48.284L347.938 48.284L346.978 55.052Q346.786 56.444 345.73 57.38Q344.674 58.316 343.282 58.316L337.426 58.316L339.49 56.54L340.018 52.844L331.81 52.844L330.754 60.14L346.258 60.14L345.25 67.436L339.826 73.916L344.098 81.932L336.802 81.932L335.362 79.244L333.154 81.932L320.386 81.932ZM309.922 65.564L311.074 57.404L307.426 57.404L308.098 52.844L311.746 52.844L312.322 48.764L311.122 47.372L320.722 47.372L319.954 52.844L323.602 52.844L322.93 57.404L319.33 57.404L318.418 63.692L322.162 62.876L321.49 67.916L317.698 68.732L316.306 78.764Q316.066 80.156 315.01 81.044Q313.954 81.932 312.562 81.932L303.97 81.932L308.29 77.468L309.25 70.556L305.458 71.372L306.178 66.38L309.922 65.564ZM328.018 79.34L332.578 73.964L329.602 68.348L328.018 79.34ZM330.082 64.7L329.986 65.612L335.458 65.612L337.042 68.636L339.586 65.612L339.73 64.7L330.082 64.7ZM388.93 67.436L387.01 81.116L348.706 81.116L350.626 67.436L388.93 67.436ZM371.314 56.492L372.994 60.62L376.546 60.62L381.634 54.476L381.73 53.756L362.626 53.756L360.322 56.492L351.202 56.492L357.97 48.476L357.01 47.372L368.002 47.372L366.466 49.196L391.474 49.196L390.514 56.06L382.834 65.18L350.914 65.18L351.586 60.62L363.874 60.62L362.194 56.492L371.314 56.492ZM378.514 76.556L379.138 71.996L359.074 71.996L358.45 76.556L378.514 76.556Z">
</path>
</g>
<path d="M97.5862 62L86.7143 52.1L75.8424 62L86.7143 71.9L97.5862 62Z" fill-rule="evenodd"  fill="url(#linear_2)" >
</path>
<path d="M87.7038 62L72.8784 48.5L58.0531 62L72.8784 75.5L87.7038 62Z" fill-rule="evenodd"  fill="url(#linear_3)" >
</path>
<path d="M417.789 62.0005L428.661 71.9005L439.533 62.0005L428.661 52.1005L417.789 62.0005Z" fill-rule="evenodd"  fill="url(#linear_4)" >
</path>
<path d="M427.671 62.0005L442.497 75.5005L457.322 62.0005L442.497 48.5005L427.671 62.0005Z" fill-rule="evenodd"  fill="url(#linear_5)" >
</path>
<defs>
<linearGradient id="linear_0" x1="50.0000514657444%" y1="100%" x2="51.0000514657444%" y2="4.6370749999999974e-14%" gradientUnits="objectBoundingBox">
<stop offset="0" stop-color="#FFEDC6"  />
<stop offset="1" stop-color="#E1BC87"  />
</linearGradient>
<filter id="filter_0" x="0" y="0" width="515.375" height="161" filterUnits="userSpaceOnUse" color-interpolation-filters="sRGB">
<feFlood flood-opacity="0" result="feFloodId_0"/>
<feColorMatrix in="SourceAlpha" type="matrix" values="0 0 0 0 0 0 0 0 0 0 0 0 0 0 0 0 0 0 127 0" result="hardAlpha_0"/>
<feOffset dx="0" dy="20"/>
<feGaussianBlur stdDeviation="10"/>
<feComposite in2="hardAlpha_0" operator="out"/>
<feColorMatrix type="matrix" values="0 0 0 0 0 0 0 0 0 0 0 0 0 0 0 0 0 0 0.25 0"/>
<feBlend mode="" in2="feFloodId_0" result="dropShadow_1_0"/>
<feBlend mode="normal" in="SourceGraphic" in2="dropShadow_1_0" result="shape_0"/>
</filter>
<linearGradient id="linear_1" x1="56.48707945488837%" y1="126.55954861111111%" x2="57.48707945488837%" y2="-21.495920138888884%" gradientUnits="objectBoundingBox">
<stop offset="0" stop-color="#703100"  />
<stop offset="1" stop-color="#A88752"  />
</linearGradient>
<linearGradient id="linear_2" x1="99.99511289412597%" y1="50.00012330334596%" x2="-0.004973689412040912%" y2="50.00012330334596%" gradientUnits="objectBoundingBox">
<stop offset="0" stop-color="#FFFFFF"  />
<stop offset="1" stop-color="#FFFFFF" stop-opacity="0" />
</linearGradient>
<linearGradient id="linear_3" x1="100.00236274448682%" y1="50%" x2="22.53023665954836%" y2="50%" gradientUnits="objectBoundingBox">
<stop offset="0" stop-color="#FFFFFF" stop-opacity="0.44" />
<stop offset="1" stop-color="#FFFFFF" stop-opacity="0" />
</linearGradient>
<linearGradient id="linear_4" x1="99.99925200152697%" y1="50.00012330334596%" x2="-0.000833331079742687%" y2="50.00012330334596%" gradientUnits="objectBoundingBox">
<stop offset="0" stop-color="#FFFFFF"  />
<stop offset="1" stop-color="#FFFFFF" stop-opacity="0" />
</linearGradient>
<linearGradient id="linear_5" x1="100.00067644093915%" y1="50%" x2="22.52855107452905%" y2="50%" gradientUnits="objectBoundingBox">
<stop offset="0" stop-color="#FFFFFF" stop-opacity="0.44" />
<stop offset="1" stop-color="#FFFFFF" stop-opacity="0" />
</linearGradient>
</defs>
</svg>
