<?xml version="1.0" encoding="utf-8"?>
<!-- Generator: Adobe Illustrator 22.1.0, SVG Export Plug-In . SVG Version: 6.00 Build 0)  -->
<svg version="1.1" id="图层_1" xmlns="http://www.w3.org/2000/svg" xmlns:xlink="http://www.w3.org/1999/xlink" x="0px" y="0px"
	 viewBox="0 0 425.2 425.2" style="enable-background:new 0 0 425.2 425.2;" xml:space="preserve">
<style type="text/css">
	.st0{fill:#2B778F;}
	.st1{fill:none;}
	.st2{fill:#231815;}
	.st3{fill:#4C4241;}
	.st4{fill:#EFB8B0;}
	.st5{fill:#FCE1C0;}
	.st6{fill:#054D5E;}
	.st7{fill:#E9C7A2;}
	.st8{fill:#B12832;}
	.st9{fill:#CC3D2D;}
	.st10{fill:#8A6326;}
	.st11{fill:#E99830;}
	.st12{fill:#D58981;}
	.st13{fill:#0B5E71;}
	.st14{fill:#C2E5F1;}
</style>
<title>用户组_彩</title>
<g id="图层_1_1_">
	<path class="st0" d="M255.8,199c40,24.6,67.7,76.3,67.7,121.4c0,61.9-52.1,88-116.5,88s-116.5-26.1-116.5-88
		c0-42.3,24.4-90.4,60.4-116.5c0,0,18.5,17.3,52.5,16.4C240.5,219.3,255.8,199,255.8,199z"/>
	<path class="st0" d="M255.8,199c40,24.6,67.7,76.3,67.7,121.4c0,61.9-52.1,88-116.5,88s-116.5-26.1-116.5-88
		c0-42.3,24.4-90.4,60.4-116.5c0,0,18.5,17.3,52.5,16.4C240.5,219.3,255.8,199,255.8,199z"/>
	<path class="st1" d="M242.4,78.7c15.2-8.3,20.9-30.6,11.4-45.1c-8.6-13.2-27.6-19.3-42.5-12.6c-15.8,7.1-20.7,29-12.4,44.2
		c4,6.6,10.4,11.4,17.9,13.2C229.7,81.6,242.4,78.6,242.4,78.7"/>
	<path class="st2" d="M247.3,75c11.1-10,14.4-28.7,6.1-41.4c-8.6-13.2-27.6-19.3-42.5-12.5c-13.4,6-18.9,22.6-15.3,36.8
		c-41,2.3-72.4,37.3-70.1,78.3c2.3,41,37.3,72.4,78.3,70.1c41-2.3,72.4-37.3,70.1-78.3C272.8,107.4,263.1,88.2,247.3,75z"/>
	<path class="st3" d="M199.7,206.4c41,0,74.3-33.3,74.3-74.3c0-22.1-9.8-43-26.7-57.1c11.1-10,14.4-28.7,6.1-41.4
		c-8.6-13.2-27.6-19.3-42.5-12.5c0,0,35.8-8.1,39.4,24.3c3.2,28.4-34.5,32.7-34.5,32.7s38.7,19.2,38,63.3
		c-0.4,21.7-10.7,40.3-23,50.7C217,203.7,199.7,206.4,199.7,206.4z"/>
	<path class="st4" d="M126.8,117.7c6.2,3.7,13.7,4.8,20.7,2.8c-2.3,8.6-2.2,17.6,0.3,26.2c0.6-6.4,8.4-10.8,14.5-8.8s9.9,9,9.2,15.4
		s-5.4,12-11.1,15.1c-1.4,0.7-2.9,1.4-3.8,2.8s-0.7,3.2-0.5,4.8c0.4,3.9,0.9,8,2.5,11.6l6.4,10.1c0,0-23.4-9.3-33.2-32.3
		C119.4,136.6,126.8,117.7,126.8,117.7z"/>
	<path class="st5" d="M112.2,247.6c20.5,21,51.3,26.9,80.6,28c18.9,0.7,38-0.4,55.9-6.5s34.3-17.7,43.5-34.1l0.7-1.2
		c-9.9-13.8-23.2-26.5-37.1-34.8c0,0-15.3,20.3-52.3,21.3c-34,0.9-52.5-16.4-52.5-16.4c-15.4,11.2-28.7,26.4-38.9,43.5L112.2,247.6z
		"/>
	<path class="st6" d="M108.1,254.8c21.5,22,53.6,28.1,84.2,29.3c19.7,0.7,39.8-0.4,58.4-6.8s35.9-18.5,45.5-35.7l1-1.7
		c-9.6-15-24.5-27.2-39-35.9c0,0-16,21.2-54.6,22.3c-35.5,1-54.9-17.1-54.9-17.1c-16.1,11.7-31.5,27.7-40.6,45.4L108.1,254.8z"/>
	<path class="st5" d="M112.2,247.6c20.5,21,51.3,26.9,80.6,28c18.9,0.7,38-0.4,55.9-6.5s34.3-17.7,43.5-34.1l0.7-1.2
		c-9.9-13.8-23.2-26.5-37.1-34.8c0,0-15.3,20.3-52.3,21.3c-34,0.9-52.5-16.4-52.5-16.4c-5.5,4-10.7,8.5-15.5,13.3
		c-9,9.1-16.9,19.2-23.4,30.2L112.2,247.6z"/>
	<path class="st7" d="M210,240.2c-44.3,1.2-76.4-21.1-76.4-21.1c5.4-5.9,17.4-15.2,17.4-15.2s18.5,17.3,52.5,16.4
		c37-1,52.3-21.3,52.3-21.3c13.9,8.3,27.2,21,37.1,34.8l-0.7,1.2c-5.7,10.7-14.3,19.5-24.9,25.4c-4-3.8-4.9-5.7-15.1-11.5
		C243.6,244,230.2,239.7,210,240.2z"/>
	<path class="st8" d="M250.1,79.9c-1.1-4.8-4.5-3.6-5.6-2.6c-5.1,4.5-14.3,7-25.8,3.4c-11.8-3.6-20.5-10.9-21.8-17.6
		c-0.2-1-1.1-1.6-2.1-1.4c-0.5,0.1-0.9,0.3-1.1,0.7c-1.1,1.5-1.9,3.3-2.3,5.1c-1.5,8.6,8.1,19,23.7,23.8s29,0.8,33.2-6.7
		C248.9,83.8,250.5,81.7,250.1,79.9z"/>
	<path class="st9" d="M247.6,78.3c0-0.9-0.7-1.7-1.6-1.7c-0.4,0-0.8,0.1-1.1,0.4c-4.9,4.3-15.7,5.3-26.9,1.8
		c-11.5-3.6-20-10.6-21.4-17.1c-0.2-1-1.1-1.6-2.1-1.4c-0.4,0.1-0.8,0.3-1.1,0.7c-1.1,1.5-1.9,3.2-2.2,5
		c-1.4,8.3,7.9,18.4,23.3,23.1s28.3,0.9,32.4-6.4C247.5,81.3,247.7,79.8,247.6,78.3z"/>
	<path class="st10" d="M184.7,330.8c2.1-0.3,4.3-0.2,6.4,0.4c2,0.5,3.9,1.5,5.5,2.7c1.6,1.2,3,2.8,4.1,4.5c2.3,3.7,2.9,8.2,1.8,12.4
		c-0.5,2-1.4,3.9-2.7,5.6c-1.2,1.7-2.8,3.1-4.5,4.1c-3.7,2.2-8.2,2.8-12.4,1.8c-4.1-1-7.6-3.7-9.7-7.3c-2.2-3.7-2.8-8.2-1.8-12.4
		c0.5-2,1.4-3.9,2.7-5.5c1.3-1.6,2.8-3,4.6-4.1C180.5,331.8,182.6,331.1,184.7,330.8z M186,296c2-0.3,4.1-0.2,6.1,0.3
		c1.9,0.5,3.7,1.3,5.2,2.5c1.5,1.2,2.8,2.7,3.9,4.3c1,1.8,1.7,3.7,2,5.7c0.3,2,0.2,4-0.3,6c-0.5,1.9-1.3,3.6-2.5,5.2
		c-1.1,1.6-2.6,2.9-4.3,3.9c-1.8,1-3.7,1.7-5.7,2c-2,0.3-4,0.2-6-0.3c-3.8-1-7-3.5-9.1-6.8c-1.1-1.7-1.7-3.7-2-5.7
		c-0.9-6,1.9-12,7.1-15.2C182,297,184,296.3,186,296z M199.2,366.2c2.5-0.4,5,0.2,7,1.7c4.1,3.1,5,8.9,1.9,13.1c0,0,0,0-0.1,0.1
		c-1.5,2-3.7,3.3-6.2,3.6c-5.1,0.9-9.9-2.5-10.8-7.6c-0.9-5.1,2.5-9.9,7.6-10.8C198.9,366.3,199,366.3,199.2,366.2L199.2,366.2z
		 M210.4,311.3c-0.8-0.6-1.2-1.6-1-2.6c0.2-1.1,0.7-2.2,1.5-3.1c0.8-0.9,1.8-1.6,2.9-2c1.1-0.4,2.4-0.2,3.4,0.5
		c1.6,1.2,3.2,2.4,4.7,3.6c1.6,1.2,3.1,2.5,4.6,3.9c0.5,0.5,0.9,1.1,1,1.8c1.1,0,2.3,0,3.3,0s2.2,0,3.3,0s2,0.7,2.6,2
		c0.7,1.4,1.1,2.9,1.3,4.4c0.2,1.5,0,3-0.4,4.5c-0.4,1.4-1,2.1-1.9,2.3c-4.3,0.5-8.5,1.1-12.5,1.8c0.1,0.6,0.1,1.4,0.2,2.2
		s0,1.7,0,2.6c5.4-1.4,9.8-1.6,13.3-0.5c3.2,1,6,3.2,7.5,6.2c1.6,3,2.3,6.9,2.2,11.6c-0.3,5.3-1.3,10.5-3,15.5
		c-0.5,1.1-1.5,1.8-2.6,2c-1.4,0.4-2.8,0.6-4.3,0.5c-1.3,0-2.6-0.4-3.8-1.1c-0.9-0.4-1.3-1.5-0.9-2.3c0-0.1,0.1-0.1,0.1-0.2
		c0.9-1.9,1.7-4,2.6-6.1c0.8-1.9,1.5-4,2-6c0.4-1.7,0.7-3.5,0.7-5.3c0-1.4-0.5-2.8-1.4-3.9c-1.2-1.1-2.8-1.7-4.4-1.7
		c-2.7-0.1-5.5,0.3-8.1,1.1c-0.2,4-0.4,7.9-0.7,11.8s-0.7,6.9-1.1,9.1c-0.1,1.1-1,2.1-2.1,2.4c-1.2,0.4-2.6,0.5-3.9,0.4
		c-1.3-0.1-2.5-0.5-3.6-1.1c-1.1-0.6-1.6-1.3-1.4-2.1c0.2-2,0.4-4.5,0.7-7.4s0.5-5.9,0.7-8.9s0.4-6,0.6-9s0.3-5.5,0.4-7.6l-3.4,0.9
		c-0.9,0.2-1.7-0.4-2.5-1.7c-0.9-1.4-1.4-3-1.7-4.7c-0.3-1.7-0.4-3.4-0.1-5.1c0.1-1.4,1-2.5,2.3-2.9c2.5-0.8,5.1-1.4,7.7-1.9
		c-0.8-0.5-1.5-1.1-2.2-1.7S211.4,312.1,210.4,311.3L210.4,311.3z M272.1,296.6c1.1,0.2,2,1,2.4,2c0.6,1.3,1,2.7,1.1,4.1
		c0.1,1.4,0,2.7-0.3,4.1c-0.3,1.2-0.9,1.9-1.7,2c-1.7,0.2-3.7,0.4-6,0.7s-4.6,0.6-7,1.1l-6.6,1.3c-2.1,0.4-3.7,0.7-4.9,1.1
		c-0.3,0.9-0.4,1.8-0.5,2.8c-0.1,0.9-0.8,1.4-1.9,1.8c-1.2,0.3-2.4,0.4-3.7,0.3c-1.2-0.1-2.4-0.4-3.4-1c-0.9-0.5-1.4-1.6-1.1-2.6
		c0.7-3.7,1.4-7,2.3-9.7c0.8-2.8,1.8-5.8,3-9c0.4-0.9,1.2-1.5,2.1-1.7c1-0.3,2.1-0.3,3.1-0.1c1,0.2,2,0.6,2.8,1.2
		c0.7,0.4,1.1,1.3,0.9,2l-0.5,1.9c1.5-0.2,3.2-0.5,5-0.8s3.6-0.6,5.4-0.8s3.6-0.4,5.3-0.5C269.2,296.6,270.7,296.5,272.1,296.6z
		 M250.9,328.9c-0.9,0.4-1.9,0.1-2.6-0.6c-0.8-0.9-1.4-1.9-1.8-3c-0.4-1.2-0.5-2.4-0.3-3.6c0.1-1.1,0.9-2.1,1.9-2.6
		c2.4-1.1,5-2,7.6-2.5c2.8-0.6,5.7-0.8,8.6-0.8c2.7,0,5.3,0.5,7.8,1.4c2.2,0.7,4,2.1,5.3,4c1.4,2.4,1.2,5.2-0.7,8.5
		c-2.4,3.9-5.3,7.5-8.7,10.5c-0.7,0.5-1,1.4-0.8,2.2c1.4-0.5,2.8-1,4.1-1.5s2.5-1,3.6-1.5c0.8-0.3,1.8-0.2,2.4,0.4
		c0.8,0.6,1.5,1.4,1.9,2.3c0.4,0.9,0.6,2,0.5,3c-0.1,1-0.6,1.9-1.5,2.4c-2.2,1.2-4.5,2.2-6.9,3.1c1.4,3.4,2.2,6.9,2.5,10.5
		c0.3,2.6,0.1,5.3-0.5,7.9c-0.4,1.6-1.7,2.9-3.3,3.4c-1.8,0.6-3.6,0.9-5.5,0.9c-1.7,0-3.4-0.4-5-1c-1.4-0.6-2-1.3-1.7-2
		c0.8-2.5,1.4-5.1,1.8-7.8c0.4-2.6,0.5-5.2,0.4-7.8c-1.3,0.5-2.5,1-3.6,1.3s-1.9,0.6-2.6,0.7c-1.1,0.5-2.4,0.3-3.3-0.5
		c-0.9-0.8-1.5-1.8-1.8-2.9c-0.3-1.1-0.3-2.3-0.1-3.4c0.2-1,0.9-1.8,1.9-2.1c0.8-0.2,1.8-0.5,2.9-0.8s2.3-0.7,3.7-1.1l-0.6-0.6
		c-0.9-0.8-1.6-1.8-1.9-3c-0.2-1,0.2-2,1.1-2.6c1.9-1.3,4-2.9,6.3-4.7c2.1-1.5,4-3.3,5.6-5.3c1.3-1.7,1.6-2.8,0.8-3.4
		c-1.2-0.7-2.7-0.9-4.1-0.8c-2.3,0.1-4.5,0.5-6.7,1.1C255.4,327.2,253.1,328,250.9,328.9L250.9,328.9z"/>
	<path class="st11" d="M185.5,328.4c2.1-0.3,4.3-0.2,6.4,0.4c4,1.1,7.5,3.7,9.7,7.3c2.3,3.7,2.9,8.2,1.8,12.4
		c-0.5,2-1.4,3.9-2.7,5.6c-1.2,1.7-2.8,3.1-4.6,4.1c-3.7,2.2-8.2,2.8-12.4,1.8c-4.1-1-7.6-3.7-9.7-7.3c-2.2-3.7-2.8-8.2-1.8-12.4
		c0.5-2,1.4-3.9,2.7-5.5c1.3-1.6,2.8-3,4.6-4.1C181.3,329.4,183.3,328.7,185.5,328.4z M186.8,293.6c2-0.3,4.1-0.2,6.1,0.3
		c1.9,0.5,3.7,1.4,5.2,2.5c1.5,1.2,2.8,2.7,3.9,4.3c1,1.8,1.7,3.7,2,5.7c0.3,2,0.2,4-0.3,6c-0.5,1.9-1.3,3.6-2.5,5.2
		c-1.1,1.6-2.6,2.9-4.3,3.9c-1.8,1-3.7,1.7-5.7,2c-2,0.3-4,0.2-6-0.3c-3.8-1-7-3.5-9.1-6.8c-1-1.7-1.7-3.7-2-5.7
		c-0.3-2-0.2-4.1,0.3-6.1c0.5-1.9,1.4-3.7,2.5-5.3c1.2-1.6,2.6-2.9,4.3-3.9C182.8,294.5,184.8,293.9,186.8,293.6z M200,363.8
		c2.5-0.4,5,0.2,7,1.7c4.1,3.1,5,8.9,1.9,13c0,0,0,0-0.1,0.1c-1.5,2-3.7,3.3-6.2,3.6c-5.1,0.7-9.8-2.8-10.6-7.9
		S194.9,364.6,200,363.8L200,363.8z M211.2,308.9c-0.8-0.6-1.2-1.6-1-2.6c0.2-1.1,0.7-2.2,1.5-3.1c0.8-0.9,1.8-1.6,2.9-2
		c1.1-0.4,2.4-0.2,3.4,0.5c1.6,1.2,3.2,2.4,4.7,3.6c1.6,1.2,3.1,2.5,4.6,3.9c0.5,0.5,0.9,1.1,1,1.8c1.2,0,2.3,0,3.3,0s2.2,0,3.3,0
		c1.2,0.1,2.2,0.9,2.6,2c0.7,1.4,1.1,2.9,1.3,4.4c0.1,1.5,0,3-0.4,4.5c-0.4,1.4-1,2.1-1.9,2.3c-4.3,0.5-8.5,1.1-12.5,1.8
		c0.1,0.7,0.2,1.5,0.2,2.2c0,0.8,0,1.7,0,2.6c5.4-1.4,9.8-1.6,13.3-0.5c3.3,1,6,3.2,7.5,6.2c1.6,3,2.3,6.9,2.2,11.6
		c-0.3,5.3-1.3,10.5-3,15.5c-0.5,1.1-1.5,1.8-2.6,2c-1.4,0.4-2.8,0.6-4.3,0.5c-1.3,0-2.6-0.4-3.8-1.1c-0.9-0.4-1.3-1.5-0.9-2.3
		c0-0.1,0.1-0.1,0.1-0.2c0.9-1.9,1.7-4,2.6-6.1c0.8-2,1.5-4,2-6c0.4-1.7,0.7-3.5,0.7-5.3c0-1.4-0.5-2.8-1.4-3.9
		c-1.2-1.1-2.8-1.7-4.4-1.7c-2.8-0.1-5.5,0.4-8.1,1.2c-0.2,4-0.4,7.9-0.7,11.8c-0.2,3-0.6,6.1-1.1,9.1c-0.1,1.1-1,2.1-2.1,2.3
		c-2.5,0.7-5.2,0.5-7.5-0.7c-1.1-0.6-1.6-1.3-1.4-2.1c0.2-2,0.4-4.5,0.7-7.4s0.5-5.9,0.7-8.9s0.4-6,0.6-8.9s0.3-5.5,0.4-7.6
		l-3.3,0.9c-0.9,0.2-1.7-0.4-2.5-1.7c-0.9-1.4-1.4-3-1.7-4.7c-0.3-1.7-0.4-3.4-0.1-5.1c0.1-1.4,1-2.5,2.3-2.9
		c2.5-0.8,5.1-1.4,7.7-1.9c-0.7-0.5-1.5-1.1-2.2-1.7S212.2,309.7,211.2,308.9z M272.9,294.2c1.1,0.2,2,0.9,2.4,2
		c0.6,1.3,1,2.7,1.1,4.1c0.1,1.4,0,2.7-0.3,4.1c-0.3,1.3-0.9,1.9-1.7,2c-1.7,0.2-3.7,0.4-6,0.7s-4.6,0.6-7,1.1l-6.6,1.2
		c-2.1,0.4-3.7,0.7-4.9,1.1c-0.3,0.9-0.4,1.9-0.5,2.8c-0.1,0.8-0.8,1.4-1.9,1.8c-1.2,0.3-2.4,0.5-3.7,0.3c-1.2-0.1-2.4-0.4-3.4-1
		c-0.9-0.5-1.4-1.6-1.1-2.6c0.7-3.7,1.4-7,2.3-9.7c0.8-2.8,1.8-5.8,3-9c0.4-0.9,1.2-1.5,2.1-1.7c1-0.3,2.1-0.3,3.1-0.1
		c1,0.2,2,0.6,2.8,1.2c0.7,0.4,1,1.2,0.9,2l-0.5,1.9c1.5-0.2,3.2-0.5,5-0.8s3.6-0.6,5.4-0.8s3.6-0.4,5.3-0.5
		C270,294.1,271.4,294.1,272.9,294.2z M251.6,326.5c-0.9,0.4-2,0.1-2.6-0.6c-0.8-0.9-1.4-1.9-1.8-3c-0.4-1.2-0.5-2.4-0.3-3.6
		c0.1-1.1,0.9-2.1,1.9-2.6c2.4-1.1,5-2,7.6-2.5c2.8-0.6,5.7-0.8,8.6-0.8c2.7,0.1,5.3,0.5,7.8,1.4c2.2,0.7,4,2.1,5.3,4
		c1.4,2.4,1.2,5.2-0.7,8.5c-2.4,3.9-5.3,7.5-8.7,10.5c-0.7,0.5-1.1,1.4-0.8,2.2c1.4-0.5,2.8-1,4.1-1.5s2.5-1,3.6-1.5
		c0.8-0.4,1.8-0.2,2.4,0.4c0.8,0.6,1.5,1.4,1.9,2.3c0.4,0.9,0.6,2,0.5,3c-0.1,1-0.6,1.9-1.5,2.4c-2.2,1.2-4.5,2.2-6.9,3.1
		c1.4,3.4,2.2,6.9,2.5,10.5c0.3,2.6,0.1,5.3-0.5,7.9c-0.4,1.6-1.7,2.9-3.3,3.4c-1.8,0.6-3.6,0.9-5.5,0.9c-1.7,0-3.4-0.3-5-1
		c-1.4-0.6-2-1.3-1.7-2.1c0.8-2.5,1.4-5.1,1.8-7.8c0.4-2.6,0.5-5.2,0.4-7.8c-1.3,0.5-2.5,0.9-3.6,1.3c-1.1,0.3-1.9,0.6-2.6,0.7
		c-1.1,0.5-2.4,0.3-3.3-0.5c-1.7-1.6-2.4-4-1.8-6.3c0.2-1,0.9-1.8,1.9-2.1c0.8-0.2,1.8-0.5,2.9-0.8s2.3-0.7,3.7-1.1l-0.6-0.7
		c-0.9-0.8-1.6-1.8-1.9-3c-0.2-1,0.2-2.1,1.1-2.6c1.9-1.3,4-2.9,6.3-4.7c2.1-1.5,4-3.3,5.6-5.3c1.3-1.7,1.6-2.8,0.8-3.4
		c-1.2-0.7-2.7-0.9-4.1-0.8c-2.3,0.1-4.5,0.5-6.7,1.1C256.2,324.8,253.9,325.6,251.6,326.5z"/>
	
		<ellipse transform="matrix(0.2424 -0.9702 0.9702 0.2424 -29.8401 271.1681)" class="st12" cx="158.7" cy="154.7" rx="11.3" ry="8.2"/>
	<ellipse transform="matrix(0.6209 -0.7839 0.7839 0.6209 -67.1562 180.5149)" class="st4" cx="153" cy="159.7" rx="6.8" ry="6.1"/>
	<path class="st13" d="M294.7,372c4.2-18.2,5.8-37.3,2.1-55.7c-3.1-15.2-7.9-31.4-18.1-42.8c-2.1-2.4-3-3.6-6.1-7.2
		c4.5-3.3,8.9-6.8,13-10.5c6.8-6.2,11.6-15.9,11.6-15.9c16.4,24.4,26.3,53.7,26.3,80.6c0,31.7-13.7,54.1-35.8,68.3
		C287.7,388.7,293.4,377.5,294.7,372z"/>
	<path class="st14" d="M107.8,334.9c2.9,16,8.7,28.3,12.8,27.5s-2.2-11.9-5.1-27.9s-1.3-30.7-5.5-29.9S104.9,319,107.8,334.9z"/>
	<circle class="st14" cx="112.1" cy="293.4" r="3.7"/>
	<circle class="st14" cx="132.2" cy="371" r="3.7"/>
</g>
</svg>
