<?xml version="1.0" encoding="utf-8"?>
<!-- Generator: Adobe Illustrator 22.1.0, SVG Export Plug-In . SVG Version: 6.00 Build 0)  -->
<svg version="1.1" id="图层_1" xmlns="http://www.w3.org/2000/svg" xmlns:xlink="http://www.w3.org/1999/xlink" x="0px" y="0px"
	 viewBox="0 0 425.2 425.2" style="enable-background:new 0 0 425.2 425.2;" xml:space="preserve">
<style type="text/css">
	.st0{fill:#231815;}
	.st1{fill:#2B778F;}
	.st2{fill:#0B5E71;}
	.st3{fill:#4C4241;}
	.st4{fill:#B12832;}
	.st5{fill:#CD3D2B;}
	.st6{fill:#FCE1C0;}
	.st7{fill:#E9C7A2;}
	.st8{fill:#EFB8B0;}
</style>
<title>用户组_彩</title>
<g id="图层_1_1_">
	<circle class="st0" cx="208.9" cy="146.7" r="74.3"/>
	<path class="st1" d="M264.5,213.6c40,24.6,67.7,76.3,67.7,121.4c0,61.9-52.1,88-116.5,88S99.3,396.9,99.3,335
		c0-42.3,24.4-90.4,60.4-116.5c0,0,18.5,17.3,52.5,16.4C249.3,233.9,264.5,213.6,264.5,213.6z"/>
	<path class="st2" d="M201,234.6c-26.8-2.5-41.3-16-41.3-16c-13.8,10.3-25.7,22.9-35.1,37.4c10.5,65.5,44.5,124.9,95.7,167.1
		c48.2-1,88.8-17,104.7-52.1C267.3,348.7,221.5,298.3,201,234.6z"/>
	<path class="st0" d="M189.6,69.2c11.2-3.7,23.1-4.1,34.6-1.4c1.9-1.4,3.7-3,5.3-4.8c11.4-13,11-33.9-2.9-44.2
		c-12.6-9.4-32.5-8.5-44.2,2.9c-12.4,12.1-10.1,32.8,2.9,44.2C186.6,67.2,188.1,68.3,189.6,69.2z"/>
	<path class="st3" d="M224.2,67.9c1.9-1.4,3.7-3,5.3-4.8c11.4-13,11-33.9-2.9-44.2c-12.6-9.4-32.5-8.5-44.2,2.9
		c0,0,22.2-13.2,37.5,1.9c24.9,24.6-5.7,42.5-5.7,42.5L224.2,67.9z"/>
	<path class="st4" d="M231.9,62.1c-16.1-7.1-35.1-5.6-51,0.9l-2.1,15.7c0,0,13.4-5.1,27.4-5.7c9.4-0.3,18.7,1,27.7,3.7L231.9,62.1z"
		/>
	<path class="st5" d="M228.6,60.8c-14.8-6.1-32-4.7-46.6,1c-0.6,0.3-1.1,0.9-1.2,1.5l-1.3,10.1c-0.1,1.1,0.7,2,1.7,2.1
		c0.3,0,0.6,0,0.9-0.1c4.6-1.7,14.3-7,23.8-7.5c10-0.5,18.5,3.8,22.9,5c1,0.3,2.1-0.4,2.3-1.4c0.1-0.3,0.1-0.5,0-0.8l-1.4-8.6
		C229.6,61.6,229.2,61.1,228.6,60.8z"/>
	<path class="st2" d="M235,238.1c-2,16.7-8.6,32.8-19.2,45.2l29.5,44.8c4.9-6,12.1-19.3,12.1-19.3s6-10.8,8.5-16.2
		c9.5-20.8,18.1-40.2,19.1-63.1c0,0-4.5-4.1-6-5.4c-1.8-1.6-7.5-6-7.5-6s-8.1,9.6-17.2,13.4C248,234.1,241.6,236.3,235,238.1z"/>
	<path class="st2" d="M203.4,274.4l29.4,44.8c4.9-6,12.1-19.3,12.1-19.3s6-10.8,8.5-16.2c9.5-20.8,18.1-41.3,19.2-64.1
		c0,0-2.1-1.7-4.4-3.6c-1.2-0.8-2.5-1.6-3.7-2.4c-1.9-1.2-12.6,16.8-42.7,20.6C219.2,249.1,213,263.2,203.4,274.4z"/>
	<path class="st6" d="M228.3,233.1c-2,16.7-8.6,32.8-19.2,45.2l29.4,44.8c4.9-6,12.1-19.3,12.1-19.3s6-10.8,8.5-16.2
		c9.5-20.8,18.1-41.3,19.2-64.1c0,0-3.4-2.8-6.3-5.1c-2.2-1.7-7.4-4.8-7.4-4.8s-7.5,7.8-16.5,12.3
		C241.7,228.9,235.1,231.3,228.3,233.1z"/>
	<path class="st7" d="M244.9,313.6c-11.5-13.5-21.4-28.2-29.5-44c-1.9,3.1-4.1,6-6.4,8.8l10.8,21.4l18.6,23.3
		C240.8,320.1,243,316.9,244.9,313.6z"/>
	<path class="st8" d="M269.7,189.4c-13.9,19.8-36.6,31.6-60.8,31.6c-21.8,0.2-42.6-9.5-56.6-26.2l-3.3-4.3c-14-45,4.3-72.8,4.3-72.8
		s15.5,8.9,52.6,8.9s58.7-8.9,58.7-8.9s17.8,23.6,5.4,71.3L269.7,189.4z"/>
	<path class="st3" d="M209.9,79.1c40.5,0,72.3,29,73.2,69.2c0-0.6,0-1.1,0-1.7c0-41-33.3-74.3-74.3-74.3c-41,0-74.3,33.3-74.3,74.3
		c0,0.6,0,1.2,0,1.7C135.6,108.2,169.5,79.1,209.9,79.1z"/>
	<path class="st6" d="M310.7,391.3c-56.2-38.9-98.9-94.3-122.2-158.5c0,0-11.3-3.6-15.9-6s-12.9-8.2-12.9-8.2s-5.7,4.1-9.3,7.3
		c-3,2.7-8.8,8.7-8.8,8.7c11,72.8,53.4,136.3,108.4,185.3c0,0,14.2,0.4,34.9-10S310.7,391.3,310.7,391.3z"/>
	<path class="st7" d="M250,419.8c-55-48.9-97.4-112.4-108.4-185.2c-2.4,2.5-4.7,5.1-6.9,7.8c10.8,70.1,50.7,131.6,103,179.7
		c5.8-0.6,11.4-1.4,16.8-2.5C253,419.7,251.5,419.7,250,419.8z"/>
	<path class="st7" d="M303.6,398.2L303.6,398.2c-5.8,4.4-12,8.2-18.5,11.4C291.7,406.6,297.9,402.7,303.6,398.2z"/>
	<path class="st7" d="M273.8,219.9l-1.8-1.5c-2.2-1.7-7.4-4.8-7.4-4.8s-7.5,7.8-16.5,12.3c-6.4,3-13,5.4-19.8,7.2
		c-0.6,4.9-1.6,9.7-3,14.5C244.2,244.4,261.4,234.6,273.8,219.9z"/>
	<path class="st7" d="M188.5,232.8c0,0-11.3-3.6-15.9-6s-12.9-8.2-12.9-8.2s-3.5,2.5-6.7,5.1c11.1,11.6,25.3,19.7,40.9,23.2
		C192,242.2,190.2,237.5,188.5,232.8z"/>
</g>
</svg>
