<?xml version="1.0" encoding="utf-8"?>
<!-- Generator: Adobe Illustrator 22.1.0, SVG Export Plug-In . SVG Version: 6.00 Build 0)  -->
<svg version="1.1" id="图层_1" xmlns="http://www.w3.org/2000/svg" xmlns:xlink="http://www.w3.org/1999/xlink" x="0px" y="0px"
	 viewBox="0 0 425.2 425.2" style="enable-background:new 0 0 425.2 425.2;" xml:space="preserve">
<style type="text/css">
	.st0{fill:#2B778F;}
	.st1{fill:#0B5E71;}
	.st2{fill:#231815;}
	.st3{fill:#4C4241;}
	.st4{fill:#EFB8B0;}
	.st5{fill:#CD3D2B;}
	.st6{fill:#B12832;}
	.st7{fill:#E9C7A2;}
	.st8{fill:#FCE1C0;}
	.st9{fill:#F5BC1A;}
	.st10{fill:#F39800;}
	.st11{fill:#D58981;}
	.st12{fill:#F2D384;}
</style>
<title>用户组_彩</title>
<g id="图层_1_1_">
	<path class="st0" d="M290.9,193.1c0,0-15.3,20.3-52.3,21.3c-34,0.9-52.5-16.4-52.5-16.4c-36,26.1-60.4,74.2-60.4,116.5
		c0,3.5,0.2,6.8,0.5,10c-13.9,0-25.1,9.8-25.1,21.7v0.1l0,0c-23.9-7-41.7-18.1-38.4,8c4.4,35.1,28.2,53.6,63.1,53.6
		c20.4,0,37.3-6,48.5-18.3c19.1,8.7,42.6,12.8,67.9,12.8c64.3,0,116.5-26.1,116.5-88C358.6,269.5,330.9,217.8,290.9,193.1z"/>
	<path class="st1" d="M273.5,386.7c-64.3,0-116.5-26.1-116.5-88c0-32.4,14.3-68.2,37.2-94.9c-2.9-1.6-5.6-3.5-8.2-5.7
		c-36,26.1-60.4,74.2-60.4,116.5c0,3.5,0.2,6.8,0.5,10c-13.9,0-25.1,9.8-25.1,21.7v0.1c-23.9-7-41.7-18.1-38.4,8
		c4.4,35.1,28.2,53.6,63.1,53.6c20.4,0,37.3-6,48.5-18.3c19.1,8.7,42.6,12.8,67.9,12.8c34.2,0,65-7.4,86.3-23.6
		C312.1,384.2,293.4,386.7,273.5,386.7z"/>
	<path class="st1" d="M293.6,194.9c-0.9-0.6-1.8-1.2-2.7-1.7c-0.9,1.2-1.9,2.2-3,3.3C289.8,195.9,291.8,195.4,293.6,194.9z"/>
	<circle class="st2" cx="235.2" cy="126.2" r="74.3"/>
	<path class="st3" d="M168.9,131.2c0-41.1,33.3-74.3,74.4-74.3c12.3,0,24.4,3.1,35.3,8.9c-33.3-23.9-79.8-16.3-103.7,17
		s-16.3,79.8,17,103.7c2.6,1.9,5.3,3.5,8.1,5.1C180.4,177.6,168.9,155.2,168.9,131.2z"/>
	<path class="st4" d="M226.8,188.8c-8-4.6-13.5-11.4-14.7-21c-4.1,5.3-10.1,6.7-16,5s-10.4-6.8-12.2-12.7s-1-12.3,1.2-18
		c0.9-2.2,2.1-4.6,4.3-5.6c2-0.9,4.4-0.6,6.5,0c4.8,1.4,9.3,3.9,13.1,7.2c-1.2-12.9-2.9-27-12.1-36.1c22.6,3,44.8-7.1,64.4-18.8
		c8.3-4.9,17.1-11.1,19.4-20.4h1.3c17.5,14.1,27.6,35.4,27.6,57.8c0,29.8-19.6,61-47,67C252.8,195.3,234.8,193.4,226.8,188.8z"/>
	<path class="st3" d="M160.9,76.4c-7.7-0.7-15.4,4.9-18.6,11.9c-10.4,23.1-4.2,50,2.1,74.5c4.4,16.9,10.5,35.6,14.9,52.6
		c0,2.1-8.7,9.4-15.7,20.3c-11.7,18.1-13.9,24.5-21.6,44.7c-2.6,0.7-6.4,1.9-10.1,1.7c-1.4-4.8-3.4-12.3-5.3-18.8
		c-2.8,6.1-5,12.3-7.8,18.4c-7.6,0-15.1-0.4-22.6-1.1c-2.9-0.3-6.2-0.9-7.6-3.4c-0.7-1.6-1-3.4-0.7-5.1l1-20.3
		c-5.9,6.5-10.4,14.2-13.2,22.5c-13.7-5-26-13.4-35.8-24.3l-2.3-10.7c15.6-2,28.7-13.7,36-27.6s9.8-29.8,11.3-45.5
		c2.6-26.9,2.7-54.4,10-80.4S98.7,34.2,123.8,24s59.1,2.8,67.4,28.6c0,0-9.2,2.9-15.8,9.1S160.9,76.4,160.9,76.4z"/>
	<path class="st2" d="M122.1,280.3C127.4,266.3,129.8,260.1,122.1,280.3z"/>
	<path class="st2" d="M122.1,280.3L122.1,280.3C122,280.4,122,280.4,122.1,280.3z"/>
	<path class="st2" d="M123.8,24C98.7,34.2,82.5,59.5,75.2,85.6s-7.5,53.5-10,80.4c-1.5,15.7-4,31.6-11.3,45.5s-20.5,25.6-36,27.6
		l2.2,10.7c0,0,37.1,8.4,53.8-22.1s24.8-125.8,24.8-125.8s9.3,91.9,9.3,115c0,19.8,0,42.6-9,64.7h0.1c2.8-6.1,5-12.3,7.8-18.4
		c1.9,6.5,3.9,14,5.3,18.8c3.7,0.2,7.5-1,10.1-1.7c6.2-30.1,8.4-60.9,6.6-91.6c-2.3-37.4-9.1-90.8,4.7-113.4
		c11.9-19.5,36.1-20,42.9-14.3c4.4-3.7,9.5-6.5,14.9-8.4C182.9,26.8,148.9,13.9,123.8,24z"/>
	<path class="st5" d="M193.2,47.9c-15.3,5.4-27.5,18.3-34.7,33c-0.3,0.6-0.2,1.2,0.1,1.7l6.7,10.3c0.5,0.8,1.6,1,2.4,0.5
		c0.2-0.2,0.5-0.4,0.6-0.7c2.3-4.4,7.3-13.2,14.3-20.2c5.9-5.7,12.7-10.6,20-14.3c0.9-0.4,1.2-1.5,0.8-2.3c-0.1-0.2-0.2-0.4-0.4-0.5
		l-8-7.2C194.5,47.8,193.8,47.7,193.2,47.9z"/>
	<path class="st6" d="M195.2,48.3H195l6.2,5.7c1.1,1,1.1,2.6,0.2,3.7c-0.2,0.2-0.4,0.4-0.7,0.6c-6.9,3.7-13.3,8.3-18.9,13.8
		c-5,5.2-9.3,11.1-12.8,17.4c-1,1.7-3.1,2.2-4.7,1.3c-0.5-0.3-1-0.7-1.3-1.3l-4.6-7.4c0,0-0.1,0.1-0.1,0.1l7.9,12.7
		c0.3,0.5,0.9,0.6,1.4,0.4c0.2-0.1,0.3-0.3,0.4-0.5c1.9-3.8,7.4-13.7,15.2-21.3c6.3-6,13.6-11,21.4-14.7c0.5-0.2,0.7-0.8,0.5-1.3
		c-0.1-0.2-0.2-0.3-0.3-0.4L195.2,48.3z"/>
	<path class="st7" d="M358.6,313.7c-28.4-41.4-65.9-75.6-109.7-100.1c-3.4,0.5-6.8,0.7-10.3,0.8c-34,0.9-52.5-16.4-52.5-16.4
		c-5.9,4.3-11.4,9.1-16.5,14.3c-1.1,1.5-1.7,2.4-1.7,2.4c63.7,41.2,123.1,94.4,169,154.8c0,0,2.9-1.7,7.5-7
		c9-12.7,14.1-28.5,14.1-47.9C358.6,314.3,358.6,314,358.6,313.7z"/>
	<path class="st1" d="M345.9,358c3.8-6.4,6.7-20,7.6-24.3c0.2-0.9,0-1.7-0.5-2.5c-31-47.6-74-86.3-124.6-112
		c-8.7-0.6-17.3-2.3-25.6-5.1c-10.7-3.8-20.7-11.6-20.7-11.6s-7.7,6.1-13.6,11.4c-3.9,3.6-7.3,7.7-10.2,12.2
		c63.4,41,122.6,94,168.4,154c3.5-2.5,6.8-5.3,9.8-8.4C340,367.4,343.1,362.9,345.9,358z"/>
	<path class="st8" d="M232.4,214.8c50.7,25.7,93.6,64.3,124.6,112c0.5,0.7,0.7,1.6,0.5,2.5c-0.9,4.3-3.8,17.9-7.6,24.3
		c-10.7,18.3-18.6,23-18.6,23c-45.9-60.4-105.3-113.7-169-154.8c2.9-4.5,6.3-8.6,10.2-12.2c5.9-5.3,13.6-11.4,13.6-11.4
		s10,7.9,20.7,11.6C215,212.6,223.6,214.3,232.4,214.8z"/>
	<path class="st8" d="M325.4,285c2.3-22,0.8-44.3-4.7-65.7c-3.4-4.3-7.2-8.2-11.2-11.9c-5.3-4.6-18.7-14.2-18.7-14.2l-8.1,8.2
		c5,14.8,5.7,32.9,4.1,48.4c0,0,12.9,10.3,21.3,18.5s17.7,18.3,17.7,18.3"/>
	<ellipse class="st9" cx="126.3" cy="346.4" rx="25.3" ry="21.8"/>
	<path class="st10" d="M151.5,346.1c0,0.1,0,0.2,0,0.2c0,12-11.3,21.8-25.3,21.8s-25.2-9.7-25.3-21.6c-23.9-7-41.7-18.1-38.4,8
		c4.4,35.1,28.3,53.6,63.1,53.6s59.3-17.5,63.1-53.6C191.5,328.8,174.6,339.1,151.5,346.1z"/>
	
		<ellipse transform="matrix(0.9702 -0.2424 0.2424 0.9702 -31.8575 52.7397)" class="st11" cx="198.4" cy="155.8" rx="8.2" ry="11.3"/>
	<ellipse class="st4" cx="208.9" cy="155.8" rx="9.5" ry="6.2"/>
	<path class="st2" d="M92.9,279.3l-21.3-1.6c0,0,14.6-38.6,16.9-52.6c3.2-19.2,9.8-73.8,9.8-73.8L92.9,279.3z"/>
	<path class="st9" d="M151.5,346.1c0,0.1,0,0.2,0,0.2c0,12-11.3,21.8-25.3,21.8s-25.2-9.7-25.3-21.6c-23.9-7-41.7-18.1-38.4,8
		c0.4,2.8,0.9,5.6,1.5,8.3c13.5,31.9,44.6,36.8,69.3,34c26.9-3.1,44.5-20.4,54.7-37.1c0.3-1.7,0.5-3.4,0.7-5.2
		C191.5,328.8,174.6,339.1,151.5,346.1z"/>
	<path class="st10" d="M151.4,344.3c0.1,0.7,0.1,1.4,0.1,2.1c0,12-11.3,21.8-25.3,21.8s-25.3-9.7-25.3-21.7c0-1.3,0.1-2.5,0.4-3.7
		c-1.5,2.7-2.2,5.6-2.2,8.7c0,12,12,21.8,26.8,21.8s26.8-9.7,26.8-21.8C152.8,348.9,152.4,346.5,151.4,344.3z"/>
	<path class="st12" d="M72.8,350.6c0,5.5,6.6,9.9,2.8,9.9s-6.9-4.5-6.9-9.9s3.1-9.9,6.9-9.9S72.8,345.1,72.8,350.6z"/>
	<path class="st12" d="M110.9,344.3c0,5.5,6.6,9.9,2.8,9.9s-6.9-4.4-6.9-9.9s3.1-9.9,6.9-9.9S110.9,338.8,110.9,344.3z"/>
	<path class="st7" d="M194.4,203.6c-2.9-1.7-5.6-3.6-8.3-5.6c0,0-7.7,6.1-13.6,11.4c-3.9,3.6-7.3,7.7-10.2,12.2
		c4.5,2.9,9,5.9,13.4,8.9C181,221,187.2,212,194.4,203.6z"/>
	<path class="st7" d="M287.6,239c-0.1,3.7-0.3,7.3-0.7,10.8c0,0,12.9,10.3,21.3,18.5s17.7,18.3,17.7,18.3l-0.5-1.6
		c0.4-3.7,0.7-7.5,0.9-11.3C314.3,261.1,301.4,249.5,287.6,239z"/>
</g>
</svg>
