<?xml version="1.0" encoding="utf-8"?>
<!-- Generator: Adobe Illustrator 22.1.0, SVG Export Plug-In . SVG Version: 6.00 Build 0)  -->
<svg version="1.1" id="图层_1" xmlns="http://www.w3.org/2000/svg" xmlns:xlink="http://www.w3.org/1999/xlink" x="0px" y="0px"
	 viewBox="0 0 425.2 425.2" style="enable-background:new 0 0 425.2 425.2;" xml:space="preserve">
<style type="text/css">
	.st0{fill:#61A0C4;}
	.st1{fill:#2B778F;}
	.st2{fill:#0B5E71;}
	.st3{fill:#FCE1C0;}
	.st4{fill:#4C4241;}
	.st5{fill:#231815;}
	.st6{fill:#B12832;}
	.st7{fill:#E9C7A2;}
	.st8{fill:#CD3D2B;}
	.st9{fill:#EFB8B0;}
	.st10{fill:#B4672C;}
	.st11{fill:#DB8638;}
	.st12{fill:#F0F0F0;}
	.st13{fill:#D58981;}
	.st14{fill:#F5BC1A;}
	.st15{fill:#C0BCBC;}
</style>
<title>用户组_彩</title>
<g id="图层_1_1_">
	<ellipse class="st0" cx="327.4" cy="389.7" rx="49.1" ry="18.4"/>
	<path class="st1" d="M289.9,329.1c2.9-6.9,5.7-14.3,8.6-22.2c14.7-39.7-22.5-86.6-59.8-110.9c0,0-17.6,18.3-51.6,19.1
		c-37,0.9-53.3-18.6-53.3-18.6C95.2,223.1,45.6,244.7,80.2,324c29.2,67,48.9,82.4,113.1,79.1c47-2.4,69.1-19.3,86.7-52.6l15,14.1
		c0.9-3.8,2.8-7.3,5.5-10.2c2.8-2.7,6.1-4.8,9.8-6.1L289.9,329.1z"/>
	<path class="st2" d="M238.7,196c0,0-17.6,18.3-51.6,19.1c-3.7,0.1-7.4,0-11.1-0.4c-42.1,26.3-72.9,59.4-98.4,103.2
		c0.8,2,1.6,4,2.5,6.1c7.9,18.2,15.2,32.6,22.8,43.9c5.2,6.1,11.2,11.6,17.7,16.4c14-44.2,40.1-83.4,72.7-117.5l15.9-15.8
		c15.5-14.4,31.8-27.9,48.9-40.3C252,205.4,245.6,200.4,238.7,196z"/>
	<path class="st2" d="M289.9,329.1c2.9-6.9,5.7-14.3,8.6-22.2c14.7-39.7-22.5-86.6-59.8-110.9c0,0-8.4,8.7-24.7,14.4l1.9,0.9
		c22.2,11.3,36.6,20.6,46.8,43.3c3,6.7,5.8,13.6,6.7,20.9c1.5,11-0.7,34.7-4.2,45.2c-9.6,28.6-25.7,54.5-47,75.8l-4.1,4.4
		c33.1-6,51-22.4,65.8-50.3l8.6,8.1l14.4-17.2L289.9,329.1z"/>
	<path class="st3" d="M214.9,258.4c15.8-14.8,32.6-28.5,50.2-41.2c0,0-6.1-5.9-12.3-10.9S238.7,196,238.7,196s-9.6,8.4-20,12.7
		c-8.1,3.3-16.6,5.4-25.3,6.4c-48.7,27.7-83.1,63.3-111.1,111.9c-0.4,0.8,8.7,22.3,17.5,36.3c7,11,16,20.7,26.6,28.4
		c14-44.2,40.1-83.4,72.7-117.5l96,90.4c0.9-3.8,2.8-7.3,5.5-10.2c2.8-2.7,6.1-4.8,9.8-6.1L214.9,258.4z"/>
	<path class="st4" d="M294.1,52c-3.3-13-20.1-22.8-31.3-31.4c-12.9-9.9-27.9,11.7-29.9,28.6l-12.1,9c8.4,3.8,16.1,9,22.9,15.4
		c6.4,6.4,11.6,13.9,15.6,22l9.6-12.9l0,0C284,79.9,297.8,66.8,294.1,52z"/>
	<path class="st5" d="M285.3,53.9c-7.1-8-14.9,1-27.6-28.8c-1.9-4.5-5.8-5.2-10.3-3.6C240,27.1,234,39,232.8,49.2l-12.1,9
		c8.4,3.8,16.1,9,22.9,15.4c4.7,4.7,8.8,9.9,12.2,15.6l1.6-2.1l0,0c4-0.9,7.9-2.3,11.5-4.3l0,0l0,0h0.2
		C281.5,75.7,293.1,62.6,285.3,53.9z"/>
	<path class="st6" d="M268.4,85.2c0,0,0-0.1,0-0.1l-5.5,6.4c-0.9,1.1-2.6,1.2-3.7,0.3c-0.2-0.2-0.4-0.4-0.6-0.7
		c-3.9-6.8-8.7-13-14.4-18.5c-5.4-4.9-11.3-9-17.8-12.3c-1.7-0.9-2.3-3-1.4-4.7c0.3-0.5,0.7-1,1.3-1.3l7.3-4.8l-0.1-0.1l-12.5,8.2
		c-0.5,0.3-0.6,0.9-0.3,1.4c0.1,0.2,0.3,0.3,0.5,0.4c3.9,1.8,13.9,6.9,21.7,14.6c6.2,6.2,11.4,13.2,15.4,21c0.2,0.5,0.8,0.7,1.3,0.5
		c0.2-0.1,0.3-0.2,0.4-0.3L268.4,85.2z"/>
	<path class="st3" d="M269.5,82.6c5,22.9,19.6,42.4,35.6,59.5s33.9,32.4,48,51.2c25,33.7,35.9,75.8,30.4,117.5
		c-14.2-8.4-31.6-9.7-46.9-3.5c0,0,22.3-29,21.3-47.3c-1.5-26.9-16.7-50.9-32.4-72.8c-11.5-16-23.5-31.5-36.1-46.6
		c-12.1-14.5-20.9-31.4-25.9-49.6L269.5,82.6z"/>
	<path class="st7" d="M296.7,146.6c-8-8.3-15.2-17.4-21.6-27c4.1,7.4,8.8,14.4,14.2,20.9c12.6,15.1,24.6,30.6,36.1,46.6
		c15.7,21.9,30.9,45.9,32.4,72.8c1,18.3-21.3,47.3-21.3,47.3c12.6-5,26.7-5.1,39.3-0.1c3.1-39-8-77.8-31.3-109.3
		C330.6,179,312.7,163.6,296.7,146.6z"/>
	<path class="st8" d="M234.7,49c14.7,5.5,26.5,17.6,33.8,31.3c0.7,1.2,0.6,2.8-0.2,3.9l-4.4,6.6c-1.2,1.7-3.5,2.2-5.3,1.1
		c-0.5-0.3-0.9-0.8-1.2-1.3c-3.6-6.3-8-12.2-13.1-17.3c-5.4-5.1-11.4-9.5-17.9-13c-1.8-1-2.5-3.3-1.5-5.1c0.2-0.4,0.5-0.7,0.8-1
		l5-4.5C231.9,48.8,233.4,48.5,234.7,49z"/>
	<path class="st3" d="M305.8,284.3c4-22-1.3-74.2-9-95.8c-7.3-20.6-22-39-29-59.6l-6.7-28.9c4.2,14.7,20.8,42.1,28,52.2
		c21.6,30,46.1,60.6,46.8,95.4c0,0-6.8-2.4-15.1,7.6S305.8,284.3,305.8,284.3z"/>
	<path class="st7" d="M289.2,152.2c-7.2-10-23.8-37.5-28-52.2l4.1,17.6c5,8.7,10.1,16.6,13.3,21c21.6,30,46.1,60.6,46.8,95.4
		c0,0-6.8-2.4-15.1,7.6c-1.3,1.6-2.5,3.2-3.6,4.9c1,14.9,0.9,28.8-0.7,37.8c0,0,6.7-19.2,15-29.2s15.1-7.5,15.1-7.5
		C335.2,212.8,310.8,182.1,289.2,152.2z"/>
	<path class="st3" d="M104.3,294c0,0,9.6-12.8,17.6-21.5s18.8-19.7,18.8-19.7c-2.4-15.4-2.6-33.5,1.6-48.5l-8.5-7.8
		c0,0-7.5,5.5-14.3,9.8c-6,3.8-16.4,12.7-16.4,12.7c-4.3,21-3.4,50.6,0.1,71.7L104.3,294z"/>
	<path class="st9" d="M142.4,105.5c10.5,5.3,22.8,6.2,34.5,5.7c15-0.7,29.8-3.5,43.9-8.4c-0.9,13.8-1.9,27.5-2.8,41.3
		c2.8-10.5,18.7-13.2,26.6-5.5s7.4,21,1.4,30.1s-16.3,14.5-26.7,17.8l-2,10.1l-0.4,0.1c-8.1,2.9-16.6,4.4-25.1,4.3
		c-41,0-72.3-15.9-72.3-56.9c0-12.6,5.6-35.3,9.1-47.7C132.9,100,137.6,103.1,142.4,105.5z"/>
	<path class="st4" d="M200.3,200.7l-1.3,0.1L200.3,200.7z"/>
	<path class="st4" d="M196.5,201c-0.4,0-0.8,0.1-1.2,0.1C195.8,201.1,196.1,201,196.5,201z"/>
	<path class="st4" d="M203.8,200.2l-1.4,0.2L203.8,200.2z"/>
	<path class="st4" d="M210.6,198.8l-1.1,0.3L210.6,198.8z"/>
	<path class="st4" d="M191.8,52.5c-28.3,0-63.6,13-65.5,39.1c1.1,8.3,8.3,9.9,16.1,13.9c10.5,5.3,22.8,6.2,34.5,5.7
		c15-0.7,29.8-3.5,43.9-8.4c-0.9,13.8-1.9,27.5-2.8,41.3c2.8-10.5,18.7-13.2,26.6-5.5s7.4,21,1.4,30.1s-16.3,14.5-26.7,17.8l-2,10.1
		c38.6-14.1,58.4-56.8,44.3-95.3C250.9,72,223,52.5,191.8,52.5z"/>
	<path class="st4" d="M213.9,197.8h-0.2H213.9z"/>
	<path class="st4" d="M207.3,199.6l-1.3,0.3L207.3,199.6z"/>
	<path class="st5" d="M180.6,60.8c-14.9,0-31.7,3.6-44.6,10.8c-5.6,5.5-9.2,12.2-9.7,20.1c1.1,8.3,8.3,9.9,16.1,13.9
		c10.5,5.3,22.8,6.2,34.5,5.7c15-0.7,29.8-3.5,43.9-8.4l-2.7,40l0.4-0.1c3.8-9.4,18.6-11.5,26.1-4.2c7.8,7.6,7.4,21,1.4,30.1
		c-3.8,5.5-8.9,9.9-14.9,12.9c-3.7,3.7-7.9,6.8-12.6,9l-1.2,6c4.5-1.6,8.7-3.7,12.8-6.1c30.6-27.4,33.2-74.4,5.8-104.9
		C221.9,69.8,201.7,60.8,180.6,60.8z"/>
	<path class="st5" d="M310.3,348.3c-3.7,1.3-7,3.4-9.8,6.1c-2.7,2.8-4.6,6.4-5.5,10.2L196.8,272c-2.4-4.5-1.6-9.9,1.9-13.6
		c6.5-6.9,13.4-2.7,13.4-2.7L310.3,348.3z"/>
	<path class="st10" d="M209.8,257.3c-1.4-0.9-3.1-1.5-4.8-1.8c-2.2,0.7-4.1,1.9-5.6,3.6c-0.3,0.3-0.6,0.6-0.8,1c0,2.5,0.7,4.9,2.1,7
		l96.9,91.3c0.8-1.4,1.8-2.7,2.9-3.9c2-2.1,4.4-3.8,7.1-5L209.8,257.3z"/>
	<path class="st11" d="M230.1,272.8c-3.7,1.3-7,3.4-9.8,6.1c-2.7,2.8-4.6,6.3-5.5,10.1l-5.4-5c0,0-1.1-4.4,4.9-10.8
		c6.5-6.9,10.5-5.5,10.5-5.5L230.1,272.8z"/>
	<path class="st6" d="M308.8,346.9c-3.7,1.3-7,3.4-9.8,6.1c-2.7,2.8-4.6,6.3-5.5,10.2l-5.4-5.1c0,0-1.1-4.4,4.9-10.8
		c6.5-6.9,10.5-5.5,10.5-5.5L308.8,346.9z"/>
	<path class="st12" d="M358.8,392c-6.9,2.1-14.5-2-18.7-7.9s-5.8-13.2-7.2-20.3c-0.7-3.5-1.5-7.2-3.5-10.2c-3.2-4.5-8.6-7-14.1-6.7
		c-5.5,0.4-10.6,2.9-14.4,6.9c-10.1,10.5-9.9,27.1,0.6,37.3c1,1,2.1,1.9,3.2,2.7c9.5,6.7,18.8,9.3,30.2,7
		C341.1,399.5,358.8,392,358.8,392z"/>
	
		<ellipse transform="matrix(0.2424 -0.9702 0.9702 0.2424 22.222 343.8398)" class="st13" cx="231.3" cy="157.7" rx="11.3" ry="8.2"/>
	<ellipse class="st9" cx="220.8" cy="157.7" rx="9.5" ry="6.2"/>
	<path class="st14" d="M221.3,268.1c-2.7,1.2-5.1,2.9-6.9,5.1c-1.1,1.2-2.1,2.4-3,3.8l6.1,5.7c0.8-1.4,1.8-2.7,2.9-3.9
		c2-2.1,4.4-3.8,7.1-5L221.3,268.1z"/>
	<path class="st8" d="M296,356.8c0.9-1.4,1.9-2.7,3-3.8c2-2.1,4.4-3.8,7.1-5l-6.1-5.8c-2.7,1.2-5.1,2.9-7,5.1
		c-1.1,1.2-2.1,2.4-3,3.8L296,356.8z"/>
	<path class="st15" d="M300.3,368.4c1.2-14.1,8.5-17.5,18.9-21.2c-1.3-0.2-2.6-0.3-3.9-0.3c-5.5,0.4-10.6,2.9-14.4,6.9
		c-10.1,10.5-9.9,27.1,0.6,37.3c1,1,2.1,1.9,3.2,2.7c1.1,0.7,2.1,1.4,3.2,2.1C303.9,391.7,298.8,387.1,300.3,368.4z"/>
	<path class="st15" d="M296.7,365.7c1.3,16.4,13.1,30,29.2,33.6c1.6,0.4,2.2-2,0.7-2.4c-15-3.3-26.1-15.9-27.3-31.2
		C299,364.1,296.5,364.1,296.7,365.7L296.7,365.7z"/>
	<path class="st15" d="M299.9,355.9c-3.6,9.2,2.5,20,9,26.4c7.1,7.2,17,10.6,26.5,13.6c1.5,0.5,2.2-1.9,0.7-2.4
		c-8.1-2.6-16.5-5.4-23.1-10.9c-6.9-5.8-14.1-16.9-10.6-26.1C302.9,355,300.5,354.4,299.9,355.9L299.9,355.9z"/>
	<path class="st5" d="M334.9,400.9c6.2-1.3,23.9-8.8,23.9-8.8c-6.9,2.1-14.5-2-18.7-7.9c-0.4-0.5-0.7-1.1-1.1-1.6
		c-0.8,0.3-1.8-0.3-2.4,0.3c-1.5,1.8-7.5-4.9-9.7-3.8c-1.6,0.7-0.1,6,0.8,7.5c0.8,1.6,1.8,3.2,2.9,4.7c1.1,1.3,3.9,2.7,2.9,4.1
		c-0.4,0.6-7.8-0.5-8.2,0.1c-0.4,1-0.4,2-0.1,3c0.3,1,0.5,2.1,0.8,3.1C326.7,401.5,334.3,401,334.9,400.9z"/>
	<path class="st7" d="M140.7,252.8c-0.6-3.6-1-7.3-1.3-11c-13.8,12-26.3,25.3-37.4,39.8c0.4,3.2,0.8,6.3,1.3,9.2l1.1,3.3
		c0,0,9.6-12.8,17.6-21.5S140.7,252.8,140.7,252.8z"/>
	<path class="st7" d="M215.9,211.2c12.5,6.3,22.5,12.1,30.7,19.9c6.1-4.9,12.3-9.6,18.5-13.9l-0.2-0.2c-1.1-1-6.4-6.1-11.8-10.5
		l-0.4-0.3l-0.2-0.1l-1.3-1c-5.8-4.6-12.4-8.9-12.5-9l0,0c0,0-4.8,4.9-14.1,9.8c-1.9,1.1-3.9,2.1-6,2.9c-1.5,0.6-3.1,1.2-4.6,1.7
		L215.9,211.2z"/>
	<circle class="st0" cx="366.5" cy="363.2" r="7.7"/>
	<circle class="st0" cx="349.6" cy="349.5" r="4.3"/>
</g>
</svg>
