<?xml version="1.0" encoding="utf-8"?>
<!-- Generator: Adobe Illustrator 22.1.0, SVG Export Plug-In . SVG Version: 6.00 Build 0)  -->
<svg version="1.1" id="图层_1" xmlns="http://www.w3.org/2000/svg" xmlns:xlink="http://www.w3.org/1999/xlink" x="0px" y="0px"
	 viewBox="0 0 425.2 425.2" style="enable-background:new 0 0 425.2 425.2;" xml:space="preserve">
<style type="text/css">
	.st0{fill:#61A0C4;}
	.st1{fill:#377E9D;}
	.st2{fill:#9FB977;}
	.st3{fill:#E2E0A3;}
	.st4{fill:#231815;}
	.st5{fill:#4C4241;}
	.st6{fill:#E99830;}
	.st7{fill:#EF7E24;}
	.st8{fill:none;stroke:#FFFFFF;stroke-width:3;stroke-miterlimit:10;}
	.st9{fill:#CD3D2B;}
	.st10{fill:#D58981;}
	.st11{fill:#EFB8B0;}
	.st12{fill:#FCE1C0;}
	.st13{fill:#E9C7A2;}
	.st14{fill:#E39F3D;}
	.st15{fill:#F5BC1A;}
	.st16{opacity:0.64;}
	.st17{fill:#EA5246;}
</style>
<title>用户组_彩</title>
<g id="图层_1_1_">
	<path class="st0" d="M288.3,210.8c0,0-15.3,20.3-52.3,21.3c-34,0.9-52.5-16.4-52.5-16.4c-18.9,13.8-34.7,33.6-45.3,55.4h4.5
		l27.9,48.3l-24.2,71.2c21.3,20.4,55.1,29.5,93.2,29.5c64.3,0,116.5-26.1,116.5-88C356.1,287.1,328.3,235.4,288.3,210.8z"/>
	<path class="st1" d="M323,242.3c-5.9,6.9-23.7,21.4-71.5,24.3c-57.7,3.6-88.2-13.5-98.1-20.5c-3.9,5.3-7.4,10.8-10.6,16.5
		c33.6,30.4,79.1,44.7,124.4,40.2c26.3-2.6,56.4-15.4,71-37.4C333.7,257.3,328.7,249.6,323,242.3z"/>
	<path class="st2" d="M316.5,234.6c5.1,5.6,9.7,11.7,13.9,18v1.4c-11.7,22.6-40.9,35.5-66.2,38.1c-42.3,4.2-84.9-9.9-115.2-39.6
		l0.9-1.3c2.8-4.1,5.7-8,8.8-11.7l0.5-0.6c0,0,26.4,24.9,91.1,20.9C307,256.2,316.5,234.6,316.5,234.6"/>
	<path class="st3" d="M159.1,238.8c7.2-8.7,15.4-16.4,24.4-23.1c0,0,18.5,17.3,52.5,16.4c37-1,52.3-21.3,52.3-21.3
		c2.7,1.7,5.4,3.5,8,5.4l-0.5,1.1c-14,21.1-39.4,37.4-64.4,41.3c-25.4,3.8-51.2-3.1-71.4-19L159.1,238.8z"/>
	<path class="st4" d="M193.1,55.1c0,0,9.9,2.8,24.8,0.9c15.8-2,22-7.8,22-7.8l1.2-1.4c6.4-13.3,2.5-26.5-10.4-33.8
		s-31.3-4.1-40.8,8.2c-8.8,11.4-7.1,23.7,2.9,33.7L193.1,55.1z"/>
	<path class="st5" d="M233.3,10.6c-13.7-7.7-33.3-4.3-43.5,8.6c-5.7,7.3-7.3,14.9-5.3,22.1c-1.5-6.6,0-13.5,5.1-20.2
		c9.5-12.2,27.9-15.5,40.8-8.2s16.9,20.5,10.4,33.8l-1.2,1.4c0,0-6.2,5.8-22,7.8c-3.2,0.4-6.4,0.6-9.7,0.7c3.9,0,7.8-0.2,11.6-0.7
		c16.8-2.1,23.4-8.3,23.4-8.3l1.3-1.5C251.3,32.2,247.1,18.3,233.3,10.6z"/>
	<path class="st5" d="M211.3,8.6c-3,3.2-5.8,6.6-7.4,10.4c-0.8,1.9-1.5,4-1.8,6c-0.4,2.1-0.7,4.2-0.9,6.3c-0.3,4.2,0,8.4,0.9,12.6
		c1,4.2,2.5,8.3,4.5,12.1c-3.1-3.3-5.4-7.2-6.7-11.5c-1.4-4.3-2-8.9-1.7-13.4c0.2-2.3,0.6-4.5,1.1-6.7c0.5-2.2,1.4-4.4,2.5-6.4
		C204.1,14,207.3,10.8,211.3,8.6z"/>
	<path class="st5" d="M207.3,9.9c-3.5,2.7-6.7,5.6-9,9.1c-1.1,1.8-2,3.6-2.8,5.6c-0.8,2-1.4,4-1.9,6c-1,4.1-1.3,8.3-1.1,12.5
		c0.3,4.3,1.1,8.6,2.5,12.7c-2.5-3.7-4.2-8-4.8-12.4c-0.7-4.5-0.6-9.1,0.5-13.5c0.6-2.2,1.3-4.3,2.1-6.4c0.9-2.1,2.1-4.1,3.5-5.9
		C199.3,14.1,203,11.5,207.3,9.9z"/>
	<path class="st6" d="M250.8,61.7c41.3,11.7,110,34.1,111.3,48c1.9,20.2-58.6,38.5-133.1,45.4s-134.9-0.2-136.8-20.4
		c-1.3-13.8,62.5-45.9,101-65c0,0,12.3,5.8,32,1.8S250.8,61.7,250.8,61.7z"/>
	<path class="st7" d="M247,64.2c-3.7,2-10.5,4.9-21.8,7.3c-7.1,1.5-14.4,1.8-21.6,0.9c-3.8-0.2-7.6-1-11.3-2.2
		c-26.7,13.3-65.2,32.6-85.8,47.7c-2.6,2.6-4,5-3.8,6.9c1.6,16.9,54.6,22.7,120.1,16.6s118.8-21.7,117.2-38.6
		C339,91.7,283.5,74.2,247,64.2z"/>
	<line class="st8" x1="215.6" y1="70.8" x2="210.7" y2="142.3"/>
	<line class="st8" x1="233.4" y1="67.9" x2="261.8" y2="136.4"/>
	<line class="st8" x1="248.8" y1="62" x2="328.8" y2="116.9"/>
	<line class="st8" x1="199.2" y1="69.3" x2="143.6" y2="142.3"/>
	<path class="st9" d="M251.5,62.6c-17,11.4-39.2,13.4-58.8,9.1V54.3c0,0,10.8,3,27,0.9c17.2-2.2,24-8.5,24-8.5L251.5,62.6z"/>
	<path class="st10" d="M233.3,154.5c-23,2.5-46.2,3.5-69.3,2.9c7.9,40.3,46.9,66.6,87.2,58.7c35.2-6.9,60.4-37.8,60.1-73.6
		c0-0.5,0-1-0.1-1.5C289.2,146.8,262.3,151.5,233.3,154.5z"/>
	<path class="st11" d="M224.7,155.1c-23,2.3-46.2,3-69.4,2.2c7.4,40.4,46.2,67.1,86.5,59.6c35.3-6.5,60.9-37.3,60.8-73.1
		c0-0.5,0-1,0-1.5C280.8,148,253.8,152.4,224.7,155.1z"/>
	<path class="st12" d="M296.4,216.2l-0.5,1.1c-14,21.1-39.4,37.4-64.4,41.3c-6.2,1-12.6,1.3-18.9,0.9l1,0.1
		c22.9,3.1,46,0.1,68.7-4.5c13.4-2.7,26.3-8.6,34-19.8c-2.6-3.6-5.6-7-8.9-10C302.7,221.2,296.4,216.2,296.4,216.2z"/>
	<path class="st13" d="M272.9,353.9c-13.8-18.9-27.2-38.9-34.3-61.1c10.4,0.9,20.8,0.5,31.1-1.4c17.4-3.1,26.9-6.5,26.9-6.5
		c-3.8,23.8-11.6,46.7-22.9,68L272.9,353.9z"/>
	<path class="st12" d="M267.1,302.8c-8.1,0.8-16.3,1-24.5,0.6c7.5,18,18.7,34.6,30.3,50.4l0.7-1c9.4-17.7,16.3-36.5,20.6-56
		C285.5,299.9,276.3,301.9,267.1,302.8z"/>
	<path class="st13" d="M248.7,293.3c-3.4,0-6.8-0.1-10.1-0.5c7.1,22.2,20.5,42.2,34.3,61.1l0.7-1c1.4-2.7,2.8-5.4,4.1-8.2
		C266.2,328.6,255.4,311.6,248.7,293.3z"/>
	<path class="st12" d="M239.2,293.7c7.4,23.1,21.4,43.6,35.8,63.1c11.6,15.6,25.4,32.7,37.9,47.7c-6.2,3.1-12.6,5.8-19.1,8.2
		c-6.8,2.6-13.8,4.2-21,5c-39.3-36.9-68.5-84.6-81.7-136.9c7.2,3.1,14.7,5.7,22.4,7.6c18.2,4.4,25.3,4.4,25.3,4.4L239.2,293.7z"/>
	<polygon class="st14" points="137,275.4 81.2,275.4 53.3,323.7 81.2,405.9 137,405.9 164.9,323.7 	"/>
	<polygon class="st15" points="142.7,271.1 86.9,271.1 59,319.5 86.9,401.6 142.7,401.6 170.6,319.5 	"/>
	<g class="st16">
		<path class="st4" d="M154.5,331c0.8,0.8,1.1,1.9,0.8,3c-0.3,1.2-0.9,2.2-1.7,3.1c-0.8,0.9-1.7,1.6-2.8,2.1c-0.9,0.5-2,0.4-2.8-0.2
			c-1.1-0.8-2.8-2-5.2-3.6s-4.9-3.3-7.7-5.2l-8.5-5.7c-2.8-1.9-5.4-3.6-7.6-4.9c-2.4,1.8-4.8,3.6-7.2,5.4s-4.8,3.7-7.2,5.6
			s-5,3.9-7.6,6l-8.2,6.7c-1.1,0.9-2.5,1.2-3.9,1c-1.6-0.3-3.1-0.9-4.4-1.8c-1.5-1.1-2.9-2.3-4.1-3.7c-1.2-1.4-2.3-2.9-3.1-4.6
			c-0.7-1.4-1.1-2.9-1.1-4.5c0-1.4,0.6-2.7,1.7-3.5c4-3.3,7.7-6.4,11.2-9.1s6.8-5.3,10.2-7.8c3.3-2.4,6.7-4.8,10.1-7.1
			c3.4-2.3,7.1-4.7,11.1-7.2c1.4-0.9,3-1.3,4.7-1.2c1.7,0.2,3.3,0.8,4.7,1.7c1.5,0.9,2.8,2.1,4,3.5c1.1,1.3,2,2.7,2.7,4.3
			c0.6,1.4,0.8,2.9,0.7,4.3c-0.1,1.3-0.9,2.5-2,3.3l-3.2,2.2c2.3,1.4,4.8,3,7.6,4.7c2.7,1.7,5.4,3.5,7.9,5.1
			c2.6,1.7,4.8,3.2,6.8,4.7C151.7,328.7,153.2,329.8,154.5,331z M98,351.2c-0.9,0.2-1.7-0.2-2.3-1.2c-0.6-1.1-1.1-2.3-1.3-3.6
			c-0.2-1.3-0.2-2.6,0.1-3.8c0.2-1.1,0.9-1.9,2-2.2c3.6-0.7,6.9-1.3,10-1.8c3.1-0.4,6-0.8,8.7-1.1l-3.8-4.5
			c-0.9-0.9-1.3-2.2-0.9-3.5c0.7-2.7,3-4.6,5.7-4.8c1.5-0.1,2.9,0.5,3.9,1.6c1.5,1.6,3,3.3,4.4,5.1s2.9,3.5,4.2,5.4
			c4.5,0.2,7.9,1,10.1,2.3c2,1,3.3,3,3.4,5.3c0.1,2.2-0.8,4.8-2.7,7.8c-2.4,3.6-5.1,7-8.2,10c1,0.4,1.9,0.7,2.7,1l2.1,0.8
			c1.1,0.5,1.8,1.6,1.8,2.9c0,1.4-0.3,2.9-0.9,4.2c-0.6,1.3-1.5,2.5-2.6,3.5c-0.7,0.9-1.9,1.2-3,0.8c-2.1-0.9-4.1-1.7-6.3-2.3
			l-8.6-2.8c-3-1-5.9-1.9-8.8-2.7s-5.2-1.6-7.1-2.2c-1.1-0.4-1.9-1.4-2-2.6c-0.2-1.4-0.1-2.8,0.4-4.2c0.4-1.4,1.2-2.6,2.2-3.6
			c0.8-1,2.2-1.4,3.4-1.1l13.8,4.1c3-3,4.9-5.4,5.7-7c0.7-1.6,0.3-2.7-1.3-3.2s-4.5-0.4-8.6,0.2S104.8,349.8,98,351.2z"/>
	</g>
	<path class="st4" d="M153.5,329.3c0.8,0.7,1.1,1.9,0.8,2.9c-0.3,1.2-0.9,2.2-1.7,3.1c-0.8,0.9-1.7,1.6-2.8,2.1
		c-0.9,0.5-1.9,0.4-2.7-0.2c-1.1-0.8-2.8-2-5.2-3.6s-4.9-3.3-7.7-5.2l-8.5-5.7c-2.9-1.9-5.4-3.6-7.6-4.9c-2.4,1.8-4.8,3.6-7.2,5.4
		c-2.4,1.8-4.8,3.7-7.2,5.6s-5,4-7.6,6.1l-8.2,6.7c-1.1,0.9-2.5,1.3-3.9,1c-1.6-0.3-3.1-0.9-4.4-1.8c-1.5-1.1-2.9-2.3-4.1-3.7
		c-1.2-1.4-2.3-2.9-3.1-4.6c-0.7-1.4-1.1-2.9-1.1-4.5c0-1.4,0.6-2.7,1.7-3.5c4-3.3,7.7-6.4,11.2-9.1c3.4-2.7,6.8-5.3,10.2-7.8
		c3.3-2.4,6.7-4.8,10.1-7.1s7.1-4.7,11.1-7.2c1.4-0.9,3-1.3,4.7-1.2c1.7,0.2,3.3,0.8,4.7,1.7c1.5,0.9,2.8,2.1,4,3.4
		c1.1,1.3,2,2.8,2.7,4.3c0.6,1.4,0.8,2.9,0.7,4.3c-0.1,1.3-0.9,2.5-2,3.3l-3.2,2.2c2.3,1.4,4.8,3,7.6,4.7c2.7,1.7,5.4,3.4,7.9,5.1
		c2.6,1.7,4.8,3.2,6.8,4.7C150.8,327,152.2,328.1,153.5,329.3z M97,349.6c-0.9,0.2-1.6-0.2-2.3-1.2c-0.6-1.1-1.1-2.3-1.3-3.5
		c-0.2-1.3-0.2-2.6,0.1-3.8c0.2-1.1,0.9-1.9,2-2.2c3.6-0.7,6.9-1.3,10-1.8s6-0.8,8.7-1.1l-3.8-4.4c-0.9-0.9-1.3-2.2-0.9-3.5
		c0.7-2.7,3-4.6,5.7-4.8c1.5-0.1,2.9,0.5,3.9,1.6c1.5,1.6,3,3.3,4.4,5.1c1.5,1.7,2.9,3.5,4.2,5.4c4.5,0.2,7.9,1,10.1,2.3
		c2,1,3.3,3,3.4,5.3c0.1,2.2-0.8,4.8-2.7,7.8c-2.4,3.6-5.1,7-8.2,10c1,0.4,1.9,0.7,2.7,1l2.1,0.8c1.1,0.5,1.8,1.7,1.7,2.9
		c0,1.4-0.3,2.9-0.9,4.2c-0.6,1.3-1.5,2.5-2.6,3.5c-1,1-2,1.2-3,0.8c-2.1-0.9-4.1-1.7-6.3-2.3c-2.7-0.9-5.6-1.8-8.6-2.8
		s-5.9-1.9-8.8-2.7s-5.2-1.6-7.1-2.2c-1.1-0.4-1.9-1.4-2-2.6c-0.2-1.4-0.1-2.8,0.4-4.2c0.5-1.4,1.2-2.6,2.2-3.6c0.8-1,2.2-1.4,3.4-1
		l13.8,4.1c3-3,4.9-5.4,5.7-7c0.7-1.6,0.3-2.7-1.3-3.2c-1.6-0.5-4.5-0.4-8.6,0.2C109.2,347.1,103.7,348.1,97,349.6z"/>
	<path class="st17" d="M192.7,60.3v5.4c7,1.6,17.2,2.6,31.1,0.1s17.1-4.6,24.8-9.1l-2.2-4.5l0,0c0,0-8.7,7-25.9,9.3
		C211.3,62.9,201.9,62.4,192.7,60.3z"/>
	<path class="st13" d="M239.2,293.7l-0.4-0.9c0,0-7.1,0-25.3-4.4c-7.6-1.9-15.1-4.5-22.4-7.6c1.1,4.4,2.4,8.8,3.7,13.2
		c15.4,5.6,31.6,8.8,48,9.6C241.5,300.3,240.3,297,239.2,293.7z"/>
	<path class="st13" d="M277.8,344.6c0,0,22.5,31.9,53.2,47.8c-7.2,8-17.8,12.3-17.8,12.3l-27.8-34.4l-12.5-16.5L277.8,344.6z"/>
	<path class="st1" d="M157.5,399.6l22.6-80.3l-26.7-55.7h-11.3c-1.4,2.5-2.7,4.9-3.9,7.5h4.5l27.9,48.3l-24.2,71.2
		C149.9,394,153.6,397,157.5,399.6z"/>
</g>
</svg>
