<?xml version="1.0" encoding="utf-8"?>
<!-- Generator: Adobe Illustrator 22.1.0, SVG Export Plug-In . SVG Version: 6.00 Build 0)  -->
<svg version="1.1" id="图层_1" xmlns="http://www.w3.org/2000/svg" xmlns:xlink="http://www.w3.org/1999/xlink" x="0px" y="0px"
	 viewBox="0 0 425.2 425.2" style="enable-background:new 0 0 425.2 425.2;" xml:space="preserve">
<style type="text/css">
	.st0{fill:#9FA0A0;}
	.st1{fill:#231815;}
	.st2{fill:#E99830;}
	.st3{fill:#EF7D22;}
	.st4{fill:#F5BC1A;}
	.st5{fill:#B12832;}
	.st6{fill:#CD3D2B;}
	.st7{fill:#2B778F;}
	.st8{fill:#0B5E71;}
	.st9{fill:#4C4241;}
	.st10{fill:#FCE1C0;}
	.st11{fill:#E9C7A2;}
	.st12{fill:#EFB8B0;}
</style>
<title>用户组_彩</title>
<g id="图层_1_1_">
	<path class="st0" d="M125.8,255.6l-25.4-27l24.6-23.1l22,23.4c-4.7,4.3-8.8,9.1-12.5,14.3C128,252.2,125.8,255.6,125.8,255.6z"/>
	<path class="st1" d="M129.8,251.9l-25.4-27l17.3-16.3l22,23.4c-3.3,3-6.2,6.6-8.4,10.5C131.1,249.2,129.8,251.9,129.8,251.9z"/>
	<polygon class="st2" points="134.4,196.5 90.6,237.8 67.4,224.5 122.8,172.3 	"/>
	<polygon class="st3" points="124.2,175.2 122.8,172.3 67.4,224.5 70.2,226.1 	"/>
	<path class="st4" d="M102.8,191.6l-13.8,13l-29.4-31.2c0,0-1.8-6.2,3-10.7c4.7-4.4,10.9-2.3,10.9-2.3L102.8,191.6z"/>
	<path class="st5" d="M306.5,211.4c-0.3-8.6,4.2-12.8,11.5-17.4s14.2-1.8,21.9,2.2c0,0,12.6,11.1,32.3,1.7c0,0-9.2,1.9-13.3-0.9
		c-18.3-13-33.3-30.1-43.6-50.1c-6.3-12.1-10.8-25.2-18.3-36.6c-13.8-20.9-35.8-35.5-60.3-44.3l-0.4,7.3
		c29.9,10.4,49.9,38.6,49.9,70.2c0,1.2,0,2.4-0.1,3.6l-0.1,2.5c-2.2,27.9,0.3,47,19,62.2L306.5,211.4z"/>
	<path class="st6" d="M309.4,185.4c7.3-4.6,22.9,6.7,30.6,10.7c0,0,10,8.8,26.2,4.1c-3,0.3-7.4,0.3-9.9-1.4
		c-18.3-13-33.3-30.1-43.6-50.1c-6.3-12.1-10.8-25.2-18.3-36.6c-13.3-20.2-34.3-34.4-57.7-43.3l-0.3,4.4
		c29.9,10.4,49.9,38.6,49.9,70.2c0,1.2,0,2.4-0.1,3.6l-0.1,2.5c-2.2,27.3,0.2,46.3,17.9,61.3C301.2,189.7,308,186.2,309.4,185.4z"/>
	<circle class="st1" cx="213.7" cy="140.6" r="74.3"/>
	<path class="st7" d="M269.3,207.6c40,24.7,67.7,76.3,67.7,121.4c0,61.9-52.1,88-116.5,88s-116.5-26.1-116.5-88
		c0-42.3,24.4-90.4,60.4-116.5c0,0,18.5,17.3,52.5,16.4C254,227.9,269.3,207.6,269.3,207.6z"/>
	<path class="st8" d="M205.8,228.5c-26.8-2.5-41.3-16-41.3-16c-13.8,10.3-25.7,22.9-35.1,37.4c10.5,65.5,44.5,124.9,95.7,167.1
		c48.2-1,88.8-17,104.7-52.1C272.1,342.6,226.3,292.2,205.8,228.5z"/>
	<path class="st1" d="M194.4,63.2c11.2-3.7,23.1-4.1,34.6-1.4c1.9-1.4,3.7-3,5.3-4.8c11.4-13,11-33.9-2.9-44.2
		c-12.6-9.4-32.5-8.5-44.3,2.9c-12.3,12.1-10,32.8,3,44.2C191.4,61.1,192.8,62.2,194.4,63.2z"/>
	<path class="st9" d="M228.9,61.8c1.9-1.4,3.7-3,5.3-4.8c11.4-13,11-33.9-2.9-44.2c-12.6-9.4-32.5-8.5-44.3,2.9
		c0,0,22.2-13.2,37.5,1.9c24.9,24.6-5.8,42.5-5.8,42.5L228.9,61.8z"/>
	<path class="st5" d="M236.6,56c-16.1-7.1-35.1-5.6-51,0.9l-2.1,15.7c0,0,13.4-5.1,27.4-5.7c9.4-0.3,18.7,1,27.7,3.7L236.6,56z"/>
	<path class="st6" d="M233.3,54.8c-14.8-6.1-32-4.7-46.6,1c-0.6,0.3-1.1,0.8-1.2,1.5l-1.3,10.1c-0.1,1.1,0.7,2,1.7,2.1
		c0.3,0,0.6,0,0.8-0.1c4.6-1.7,14.4-7,23.8-7.5c10-0.5,18.5,3.8,22.9,5c1,0.3,2.1-0.4,2.3-1.4c0.1-0.3,0.1-0.5,0-0.8l-1.4-8.6
		C234.3,55.5,233.9,55,233.3,54.8z"/>
	<path class="st8" d="M239.8,232c-2,16.7-8.6,32.8-19.2,45.2l29.4,44.7c5-6,12.1-19.3,12.1-19.3s6-10.8,8.5-16.2
		c9.5-20.8,18.1-40.2,19.1-63.1c0,0-4.5-4.1-6-5.4c-1.8-1.6-7.5-6-7.5-6s-8.1,9.6-17.2,13.4C252.8,228,246.3,230.2,239.8,232z"/>
	<path class="st8" d="M208.2,268.3l29.4,44.8c4.9-6,12.1-19.3,12.1-19.3s6-10.8,8.5-16.2c9.5-20.8,18.1-41.3,19.2-64.1
		c0,0-2.1-1.7-4.4-3.6c-1.2-0.8-2.5-1.6-3.7-2.4c-1.9-1.2-12.6,16.8-42.7,20.6C224,243,217.7,257.2,208.2,268.3z"/>
	<path class="st10" d="M233,227.1c-2,16.7-8.6,32.8-19.2,45.2l29.5,44.8c5-6,12.1-19.3,12.1-19.3s6-10.8,8.5-16.2
		c9.6-20.8,18.2-41.3,19.2-64.1c0,0-3.4-2.8-6.3-5.1c-2.2-1.7-7.4-4.8-7.4-4.8s-7.5,7.8-16.5,12.3
		C246.4,222.9,239.8,225.3,233,227.1z"/>
	<path class="st11" d="M249.7,307.5c-11.5-13.5-21.4-28.2-29.5-44c-1.9,3.1-4.1,6-6.4,8.8l10.8,21.4l18.6,23.3
		C245.6,314,247.7,310.8,249.7,307.5z"/>
	<path class="st12" d="M274.5,183.3c-13.9,19.8-36.6,31.6-60.8,31.6c-21.8,0.2-42.6-9.4-56.7-26.2l-3.3-4.3
		c-14-45,4.3-72.8,4.3-72.8s15.5,8.9,52.6,8.9s58.7-8.9,58.7-8.9s17.8,23.6,5.4,71.3L274.5,183.3z"/>
	<path class="st9" d="M214.7,73.1c40.5,0,72.3,29,73.2,69.2c0-0.6,0-1.1,0-1.7c0.5-41-32.4-74.7-73.5-75.2
		c-41-0.5-74.7,32.4-75.2,73.5c0,0.6,0,1.1,0,1.7c0,0.6,0,1.1,0,1.7C140.3,102.2,174.2,73.1,214.7,73.1z"/>
	<path class="st10" d="M315.5,385.2c-56.2-38.9-98.9-94.3-122.2-158.5c0,0-11.3-3.6-15.9-6s-12.9-8.2-12.9-8.2s-5.7,4.1-9.3,7.3
		c-3.1,2.7-8.8,8.7-8.8,8.7c11,72.8,53.4,136.3,108.4,185.2c0,0,14.2,0.4,34.8-10S315.5,385.2,315.5,385.2z"/>
	<path class="st11" d="M254.8,413.7c-55-48.9-97.4-112.4-108.4-185.2c-2.4,2.5-4.7,5.1-6.9,7.8c10.8,70.1,50.7,131.6,103,179.7
		c5.8-0.6,11.3-1.4,16.8-2.5C257.8,413.6,256.3,413.7,254.8,413.7z"/>
	<path class="st11" d="M308.4,392.2L308.4,392.2c-5.8,4.4-12,8.2-18.5,11.4C296.5,400.5,302.7,396.7,308.4,392.2z"/>
	<path class="st11" d="M278.6,213.8c-0.6-0.5-1.2-1-1.9-1.5c-2.2-1.7-7.4-4.8-7.4-4.8s-7.5,7.8-16.5,12.3c-6.4,3-13,5.4-19.8,7.2
		c-0.6,4.9-1.6,9.7-3,14.5C249,238.4,266.2,228.5,278.6,213.8z"/>
	<path class="st11" d="M193.2,226.7c0,0-11.3-3.6-15.9-6s-12.9-8.2-12.9-8.2s-3.5,2.5-6.7,5.1c11.1,11.6,25.3,19.7,40.9,23.1
		C196.8,236.1,195,231.4,193.2,226.7z"/>
	<path class="st10" d="M100.8,189.6l-2.3-2.4L88,187l0.2-10.9l-2.2-2.4l-11.3-0.2l0.2-11.6l-1.4-1.5h-1.1l-0.2,13.1l-12.7-0.2v0.1
		l2.4,2.5l10.2,0.1L72,186.7l2.5,2.7l11,0.2l-0.2,11.3l1.6,1.8h0.8l0.2-13.1l12.9,0.2L100.8,189.6z M85.5,187l-11-0.2l0.2-10.6
		l11,0.2L85.5,187z"/>
</g>
</svg>
