<?xml version="1.0" encoding="iso-8859-1"?>
<!-- Generator: Adobe Illustrator 19.0.0, SVG Export Plug-In . SVG Version: 6.00 Build 0)  -->
<svg version="1.1" id="Capa_1" xmlns="http://www.w3.org/2000/svg" xmlns:xlink="http://www.w3.org/1999/xlink" x="0px" y="0px"
	 viewBox="0 0 511.936 511.936" style="enable-background:new 0 0 511.936 511.936;" xml:space="preserve">
<path style="fill:#FEE218;" d="M491.808,80v70.656c0,156.64-92.48,298.4-235.84,361.28c-143.36-62.88-235.84-204.64-235.84-361.28
	V80c44.16,0,80-35.84,80-80h311.68C411.808,44.16,447.648,80,491.808,80z"/>
<path style="opacity:0.3;fill:#FFFFFF;enable-background:new    ;" d="M268.832,36.464c0.848,15.504,14.656,27.056,30.16,27.056
	h124.704c14.096,0,24.24,11.84,24.24,25.648c0,0,0,0,0,0.288s0,0.288,0,0.288c0,14.096-10.144,25.648-24.24,25.648H250.928
	c-16.624,0-29.584,13.808-29.024,30.432c1.12,15.776,14.928,27.328,30.72,27.328h165.728c14.096,0,25.648,11.552,25.36,25.648v0.288
	l0.288,1.696c0,13.248-10.992,24.224-24.24,24.224H201.328c-16.624,0-29.584,13.808-29.024,30.432
	c1.136,15.504,14.944,27.056,30.72,27.056h179.728c13.248,0,23.664,11.264,22.832,24.224v2.256
	c0.288,13.248-10.704,24.24-24.24,24.24H258.256c-15.776,0-28.736,12.96-28.736,28.736s12.4,28.464,27.904,28.752h57.536
	c15.504,0,29.584,11.84,30.432,27.328c0.848,16.624-12.4,30.432-29.024,30.432h-63.184c-16.336,0-29.584,13.808-28.736,30.432
	c0.848,15.504,14.656,27.056,30.432,27.056h13.552c136.144-65.536,223.376-203.296,223.376-355.296V80
	c-42.096,0-76.256-32.672-79.392-73.984H297.584C281.232,6.016,268,19.552,268.832,36.464z"/>
<path style="fill:#FDBC4B;" d="M255.968,458.816c-114.784-59.024-187.84-177.744-187.84-308.16v-32
	C100.16,105.648,125.792,80.032,138.8,48h234.352c13.008,32.032,38.624,57.664,70.672,70.656v32
	C443.808,281.072,370.752,399.792,255.968,458.816z"/>
<path style="fill:#F7B343;" d="M68.128,118.656v32c0,115.536,57.392,221.776,150.272,285.584h44.432
	c12.256,0,22.976-8.976,23.632-21.008c0.656-12.912-9.632-23.632-22.32-23.632h-83.808c-12.912,0-23.2-10.72-22.544-23.632
	c0.656-12.032,11.6-21.232,23.632-21.232h111.424c12.032-0.224,21.664-10.08,21.664-22.32c0-12.24-10.064-22.32-22.32-22.32H159.328
	c-10.512,0-19.04-8.544-18.816-18.816c0-14.08,8.144-20.576,17.728-20.576h176.864c12.256,0,22.976-8.976,23.856-21.008
	c0.432-12.912-9.632-23.632-22.544-23.632H166.768c-9.696,0-18.608-6.816-18.608-20.352c-0.224-10.944,8.752-19.92,19.696-19.92
	h128.72c12.256,0,22.976-8.976,23.856-21.232c0.432-12.912-9.632-23.632-22.544-23.632H163.696c-10.944,0-18.816-8.976-18.816-19.92
	c0.016,0-0.016-0.432,0-0.432c0-10.72,7.872-19.92,18.816-19.92h96.848c12.032,0,22.768-8.976,23.424-21.008
	c0.656-13.136-9.632-23.632-22.32-23.632H138.8C125.792,80.032,100.16,105.648,68.128,118.656z"/>
<polygon style="fill:#F3F3F3;" points="255.968,77.152 290.576,183.648 402.56,183.648 311.968,249.488 346.576,355.984 
	255.968,290.16 165.36,355.984 199.968,249.488 109.376,183.648 221.36,183.648 "/>
<g>
	<polygon style="fill:#FFFFFF;" points="255.968,77.152 255.968,229.168 290.576,183.648 	"/>
	<polygon style="fill:#FFFFFF;" points="255.968,229.168 402.56,183.648 311.968,249.488 	"/>
	<polygon style="fill:#FFFFFF;" points="255.968,229.168 346.576,355.984 255.968,290.16 	"/>
	<polygon style="fill:#FFFFFF;" points="255.968,229.168 199.968,249.488 165.36,355.984 	"/>
	<polygon style="fill:#FFFFFF;" points="109.376,183.648 221.36,183.648 255.968,229.168 	"/>
</g>
<g>
</g>
<g>
</g>
<g>
</g>
<g>
</g>
<g>
</g>
<g>
</g>
<g>
</g>
<g>
</g>
<g>
</g>
<g>
</g>
<g>
</g>
<g>
</g>
<g>
</g>
<g>
</g>
<g>
</g>
</svg>
