<?xml version="1.0" encoding="iso-8859-1"?>
<!-- Generator: Adobe Illustrator 19.0.0, SVG Export Plug-In . SVG Version: 6.00 Build 0)  -->
<svg version="1.1" id="Capa_1" xmlns="http://www.w3.org/2000/svg" xmlns:xlink="http://www.w3.org/1999/xlink" x="0px" y="0px"
	 viewBox="0 0 424.229 424.229" style="enable-background:new 0 0 424.229 424.229;" xml:space="preserve">
<g>
	<path style="fill:#00ACEA;" d="M128.993,53.29l236.669,236.669c-13.52,34.002-35.669,63.893-64.261,86.727L37.042,112.327H36.52
		c0-15.673,0.522-31.347,0.522-45.976c31.051,0.448,61.957-4.32,91.429-14.106L128.993,53.29z"/>
	<g>
		<path style="fill:#00EFD1;" d="M37.042,112.327l264.359,264.359c-26.664,21.113-56.933,37.22-89.339,47.543
			C37.042,363.624,34.43,225.176,36.52,112.327H37.042z"/>
		<path style="fill:#00EFD1;" d="M128.471,52.245C159.814,41.14,188.346,23.308,212.063,0c47.02,45.453,102.4,66.351,175.02,66.351
			c0,67.396,7.837,150.988-21.42,223.608L128.993,53.29L128.471,52.245z"/>
	</g>
</g>
<g>
</g>
<g>
</g>
<g>
</g>
<g>
</g>
<g>
</g>
<g>
</g>
<g>
</g>
<g>
</g>
<g>
</g>
<g>
</g>
<g>
</g>
<g>
</g>
<g>
</g>
<g>
</g>
<g>
</g>
</svg>
