<svg id="图层_1" data-name="图层 1" xmlns="http://www.w3.org/2000/svg" xmlns:xlink="http://www.w3.org/1999/xlink" viewBox="0 0 40 40"><defs><linearGradient id="未命名的渐变_2" x1="18.29954" y1="16.39742" x2="30.52896" y2="16.39742" gradientUnits="userSpaceOnUse"><stop offset="0.00479" stop-color="#024ea4"/><stop offset="1" stop-color="#2682ea"/></linearGradient><linearGradient id="未命名的渐变_2-2" x1="11.01235" y1="27.95546" x2="15.8243" y2="27.95546" xlink:href="#未命名的渐变_2"/><linearGradient id="未命名的渐变_2-3" x1="18.41443" y1="11.98506" x2="23.80581" y2="11.98506" xlink:href="#未命名的渐变_2"/><linearGradient id="未命名的渐变_2-4" x1="21.4175" y1="14.58244" x2="22.52986" y2="14.58244" xlink:href="#未命名的渐变_2"/><linearGradient id="未命名的渐变_2-5" x1="8.78387" y1="18.92521" x2="23.2436" y2="18.92521" xlink:href="#未命名的渐变_2"/><linearGradient id="未命名的渐变_2-6" x1="24.47971" y1="12.89559" x2="25.56963" y2="12.89559" xlink:href="#未命名的渐变_2"/><linearGradient id="未命名的渐变_2-7" x1="18.30155" y1="17.62193" x2="20" y2="17.62193" xlink:href="#未命名的渐变_2"/><linearGradient id="未命名的渐变_2-8" x1="17.73463" y1="22.43012" x2="29.99676" y2="22.43012" xlink:href="#未命名的渐变_2"/></defs><title>全部</title><path d="M20,4.41265l13.49933,7.79352V27.79385L20,35.58734,6.50066,27.79385V12.20617L20,4.41265m0-2.54031L4.30064,10.936V29.06405L20,38.12765l15.69935-9.0636V10.936L20,1.87234Z" fill="#404448"/><path d="M23.30262,14.30184l-.00591,1.49531a.06363.06363,0,0,1-.06172.06342l-.67993.00327c-.08975.0005-.13262.01514-.16455.11546l-.0582.18271-1.05566.02256a.42012.42012,0,0,0-.41369.23815,4.76587,4.76587,0,0,1-.97107,1.67978l-1.59235,1.54063q.012.11539.03413.24059a3.10814,3.10814,0,0,0,.9676,1.75489,2.33213,2.33213,0,0,0,2.78315.359l.83719-.86534a4.76526,4.76526,0,0,1,1.67978-.971.4203.4203,0,0,0,.23821-.41376l.02257-1.05566.18264-.05814c.10032-.03193.115-.07479.11546-.16461l.00327-.67987a.0638.0638,0,0,1,.06342-.06178l1.49525-.00591c.29245-.00113.44254.00415.63367-.227l.39622-.47912-1.23642-1.20669,3.02978-3.08434.75447-.19289c.29459-.0753.2846-.28353.08586-.51212l-.64229-.73876-.7387-.64229c-.22865-.19874-.43682-.20873-.51218.08592l-.19289.75441L25.2154,14.5085,24.0087,13.272l-.47912.39628C23.29847,13.85936,23.30381,14.00951,23.30262,14.30184Z" fill="url(#未命名的渐变_2)"/><path d="M12.06412,25.8991c-.91751,1.23642-.95139,2.1122-1.05177,4.11272,2.35482-.11816,3.15109-.14393,4.81195-1.62762a7.26531,7.26531,0,0,1-.75611-.27988A9.0366,9.0366,0,0,1,12.06412,25.8991Z" fill="url(#未命名的渐变_2-2)"/><path d="M19.12629,12.23294c-.25813.23274-.4986.43864-.71186.63732a7.50241,7.50241,0,0,1,5.13268-.302l.24821-.20528a11.53229,11.53229,0,0,0-1.91693-.30326,5.89278,5.89278,0,0,1,1.92742-.63022,6.9828,6.9828,0,0,0-4.24225-.0027A2.11922,2.11922,0,0,1,19.12629,12.23294Z" fill="url(#未命名的渐变_2-3)"/><path d="M22.52986,14.2652a5.0226,5.0226,0,0,0-1.11236.303c.3438.10125.6524.19452,1.1099.33148Q22.52854,14.58253,22.52986,14.2652Z" fill="url(#未命名的渐变_2-4)"/><path d="M22.68824,22.62043a3.49408,3.49408,0,0,1-5.23475-3.11181c-.07618-1.98141,2.08147-3.99286,4.17582-4.25024a3.82025,3.82025,0,0,0-2.24482-.21376,5.97067,5.97067,0,0,1,3.42166-1.46482,1.62731,1.62731,0,0,1,.43745-.46448c-2.114-.5475-5.20326-.476-7.88428,3.07466a12.23239,12.23239,0,0,1,3.36962-4.41624,2.00348,2.00348,0,0,0,.3555-1.78543,6.09943,6.09943,0,0,1-2.98736,2.04193,6.79762,6.79762,0,0,0-2.73174,2.22528,3.33179,3.33179,0,0,0-.97558-1.97406,10.32909,10.32909,0,0,1-.42507,3.61914c-.09975.26354-.23123.56643-.66485,1.65044a6.93132,6.93132,0,0,0-.10735,3.8258,2.64416,2.64416,0,0,0-2.40862-.47875c1.39714.71306,2.18933,2.2946,3.117,3.50859,2.131,2.78868,4.75683,4.09179,8.128,3.15353C21.69449,27.09662,24.11586,23.86445,22.68824,22.62043Z" fill="url(#未命名的渐变_2-5)"/><path d="M25.32268,13.23235l.247-.24255a9.25544,9.25544,0,0,0-1.08992-.431l.52695.54Z" fill="url(#未命名的渐变_2-6)"/><path d="M19.391,17.57152A3.71035,3.71035,0,0,0,20,16.61831a4.97267,4.97267,0,0,0-.8133.66768,3.88756,3.88756,0,0,0-.88515,1.33956Z" fill="url(#未命名的渐变_2-7)"/><path d="M29.99636,20.12778A7.72761,7.72761,0,0,0,28.34128,15.142l-.64267.65417,1.18822,1.15968-.88646,1.07194a1.27985,1.27985,0,0,1-1.25679.52783l-.75152.003a.95653.95653,0,0,1-.30647.65554l-.01175.54971A1.2458,1.2458,0,0,1,24.84,20.96176l.00025.001A3.69917,3.69917,0,0,0,23.247,21.997a2.03874,2.03874,0,0,1,.62531,1.00236,3.09717,3.09717,0,0,1-.21514,1.99926,6.56272,6.56272,0,0,1-1.16169,1.80429c.25266-.104.50206-.215.75032-.333-.70821,1.15025-2.41936,2.43269-5.51117,2.8384,3.30544.87018,6.46288.3761,8.45158-1.68645-.15927.27994-.3252.5773-.50753.84222,2.43935-1.40946,5.61457-5.55316,3.3397-9.54615A3.76739,3.76739,0,0,1,29.99636,20.12778Z" fill="url(#未命名的渐变_2-8)"/></svg>