<svg id="图层_1" data-name="图层 1" xmlns="http://www.w3.org/2000/svg" xmlns:xlink="http://www.w3.org/1999/xlink" viewBox="0 0 40 40"><defs><linearGradient id="未命名的渐变_2" x1="13.52956" y1="26.55951" x2="28.84359" y2="11.24548" gradientUnits="userSpaceOnUse"><stop offset="0.00479" stop-color="#024ea4"/><stop offset="1" stop-color="#2682ea"/></linearGradient><linearGradient id="未命名的渐变_2-2" x1="-912.37847" y1="1166.72929" x2="-906.16461" y2="1160.51543" gradientTransform="translate(-1149.48165 -895.04178) rotate(-90)" xlink:href="#未命名的渐变_2"/><linearGradient id="未命名的渐变_7" x1="11.84517" y1="11.93422" x2="27.17225" y2="27.2613" gradientUnits="userSpaceOnUse"><stop offset="0" stop-color="#024ea4"/><stop offset="1" stop-color="#2682ea"/></linearGradient></defs><title>事件_1</title><path d="M26.34735,11.55415,12.67093,25.23056a.71638.71638,0,0,0,0,1.01306l1.17452,1.17451a.71635.71635,0,0,0,1.013,0L28.53492,13.74172l.515-2.70262Z" fill="url(#未命名的渐变_2)"/><polygon points="23.825 21.381 25.116 20.089 26.289 18.916 31.646 13.56 32.85 7.239 26.529 8.444 21.173 13.8 20 14.973 18.708 16.264 16.175 18.797 14.884 20.089 13.711 21.262 8.291 26.682 13.407 31.798 18.827 26.378 20 25.205 21.292 23.914 23.825 21.381" fill="none"/><polygon points="15.003 17.624 15.175 17.452 11.465 13.742 10.95 11.039 13.653 11.554 17.363 15.264 17.535 15.092 18.827 13.8 13.472 8.444 7.15 7.239 8.355 13.56 13.711 18.916 15.003 17.624" fill="none"/><polygon points="24.998 22.554 22.465 25.087 21.173 26.378 26.593 31.798 31.709 26.682 26.29 21.262 24.998 22.554" fill="none"/><polygon points="10.95 11.039 11.465 13.742 15.175 17.452 17.363 15.264 13.653 11.554 10.95 11.039" fill="url(#未命名的渐变_2-2)"/><polygon points="15.003 17.624 15.175 17.452 17.363 15.264 17.535 15.092 18.827 13.8 13.472 8.444 7.15 7.239 8.355 13.56 13.711 18.916 15.003 17.624" fill="none"/><polygon points="23.825 21.381 25.116 20.089 26.289 18.916 31.646 13.56 32.85 7.239 26.529 8.444 21.173 13.8 20 14.973 18.708 16.264 16.175 18.797 14.884 20.089 13.711 21.262 8.291 26.682 13.407 31.798 18.827 26.378 20 25.205 21.292 23.914 23.825 21.381" fill="none"/><path d="M24.99768,22.55381l-.19055.19049,2.87439,2.87445a.70459.70459,0,0,1,0,.99652l-1.15527,1.15534a.70479.70479,0,0,1-.99658,0l-2.87439-2.87439-.19055.19049L21.173,26.37845l5.4198,5.42005,5.11657-5.11658L26.28955,21.262Z" fill="none"/><path d="M26.52625,27.77061l1.15527-1.15534a.70459.70459,0,0,0,0-.99652L24.80713,22.7443l-2.15185,2.15192,2.87439,2.87439A.70479.70479,0,0,0,26.52625,27.77061Z" fill="url(#未命名的渐变_7)"/><path d="M31.91523,28.82218l2.14013-2.14-.00012-.00013.96088-.96087-1.173-1.173-.96087.96088-5.4198-5.41986,5.71728-5.717,1.7569-9.21948L25.71717,6.90958l-5.717,5.7171-5.717-5.7171L5.06379,5.15269l1.75689,9.21905L12.538,20.08915l-5.42,5.4201-.96112-.96112-1.173,1.173,3.101,3.101L5.71216,31.19486a.99991.99991,0,0,0,0,1.41419l1.76789,1.76788a1,1,0,0,0,1.41418,0l2.37268-2.37262,2.13989,2.14.00013-.00012.961.961,1.173-1.173-.961-.961L20,27.55131l5.41986,5.4201-.96081.96082,1.173,1.173,3.101-3.101,2.35846,2.35846a1.00008,1.00008,0,0,0,1.41424,0l1.76788-1.76789a1.00006,1.00006,0,0,0,0-1.41424ZM8.3548,13.55973,7.15033,7.23929l6.32123,1.20447,5.35578,5.35584L17.5354,15.09153l-.17266.17267-2.18757,2.18762-.1726.17267-1.29163,1.29162ZM19.99994,25.20536,18.827,26.37827l-5.42,5.42005L8.29084,26.6821l5.41992-5.4201,1.173-1.173,1.29163-1.29156,2.5329-2.533,1.29187-1.29193L21.1731,13.7996l5.35571-5.35584L32.8501,7.23929l-1.20453,6.32044-5.3562,5.3562-1.173,1.173-1.29175,1.29181-2.533,2.5329Zm6.59284,6.59314-5.4198-5.42,1.29175-1.29174.19055-.19049,2.15185-2.15192.19055-.19049L26.28955,21.262l5.4198,5.41992Z" fill="#404448"/></svg>