<svg id="图层_1" data-name="图层 1" xmlns="http://www.w3.org/2000/svg" viewBox="0 0 40 40"><title>事件</title><polygon points="10.893 10.459 11.417 13.209 13.644 10.983 10.893 10.459"/><path d="M14.66136,27.13022,28.58213,13.20945l.52429-2.75092-2.75091.52423L12.43473,24.90354a.72921.72921,0,0,0,0,1.03119l1.1955,1.19549A.72913.72913,0,0,0,14.66136,27.13022Z"/><path d="M8.11546,33.13871a1.45953,1.45953,0,0,0,2.06213,0l2.62189-2.62189,1.40411,1.40424.00006-.00006.84485.84484,1.03119-1.03118-.84485-.84485,4.76477-4.76447L24.76414,30.89l-.84467.84467,1.03119,1.03118L27.1995,30.517l2.62171,2.62171a1.45953,1.45953,0,0,0,2.06213,0l1.6897-1.68939a1.45894,1.45894,0,0,0,0-2.06208l-2.62183-2.62188,1.40424-1.40412-.00006-.00012.84466-.84467-1.03119-1.03118-.84466.84466-4.76447-4.76452,5.02594-5.0257L33.13017,6.435,25.02549,7.97947l-5.02575,5.02582L14.974,7.97947,6.86936,6.435,8.4138,14.53934l5.026,5.02607-4.76465,4.7647-.84485-.84484L6.79911,24.51645,9.0482,26.76554l-2.62171,2.6217a1.45894,1.45894,0,0,0,0,2.06208Zm22.73681-1.03107L28.746,30.00138l1.6897-1.68939,2.107,2.10559ZM30.29313,25.361l-4.49792,4.49792-4.76447-4.76465,1.13556-1.13555,3.17151,3.1715a.72921.72921,0,0,0,1.03119,0l1.19543-1.19549a.7291.7291,0,0,0,0-1.03119L24.393,21.73209l1.13569-1.13562ZM9.76249,13.82548,8.70365,8.26926,14.26054,9.3281l4.70813,4.70831L17.833,15.17209l-4.18927-4.18933L11.417,13.20945l4.18933,4.18933L14.471,18.53422Zm4.70831,6.771,1.03125-1.03119,1.13538-1.13543,2.22662-2.22669,1.13569-1.13568,1.03106-1.03107L25.739,9.3281l5.55689-1.05884L30.237,13.82548l-4.70856,4.70861-1.03113,1.03107-1.13562,1.13562-2.22662,2.22669L19.99955,24.063l-1.03113,1.03107-4.76464,4.76465L9.70622,25.36118ZM9.56382,28.312l1.689,1.68939-2.10553,2.107-.00074-.00073-1.689-1.68933Z"/></svg>