<svg id="图层_1" data-name="图层 1" xmlns="http://www.w3.org/2000/svg" viewBox="0 0 40 40"><title>玩法</title><path d="M6,34H34V6H6ZM7.45823,7.4582H32.54179V32.54176H7.45823Z"/><path d="M29.1425,24.25068a4.85354,4.85354,0,0,1-.06086.72913h1.855V23.52156h-1.855A4.8533,4.8533,0,0,1,29.1425,24.25068Z"/><path d="M23.5214,29.08174v1.855h1.45819v-1.855a4.3941,4.3941,0,0,1-1.45819,0Z"/><path d="M24.97959,9.06337H23.5214v5.957H16.47849v-5.957H15.02024v5.957h-5.957v1.45825h5.957v7.04291h-5.957v1.45825h5.957v5.957h1.45825v-5.957h2.94092a4.39446,4.39446,0,0,1,0-1.45825H16.47849V16.47865H23.5214v2.94092a4.39339,4.39339,0,0,1,1.45819,0V16.47865h5.957V15.0204h-5.957Z"/><path d="M24.85111,20.27107a4.06733,4.06733,0,1,0,3.379,3.379A4.00366,4.00366,0,0,0,24.85111,20.27107Z"/></svg>