<svg id="图层_1" data-name="图层 1" xmlns="http://www.w3.org/2000/svg" xmlns:xlink="http://www.w3.org/1999/xlink" viewBox="0 0 40 40"><defs><linearGradient id="未命名的渐变_2" x1="18.96047" y1="19.54642" x2="30.01549" y2="29.4576" gradientUnits="userSpaceOnUse"><stop offset="0.00479" stop-color="#024ea4"/><stop offset="1" stop-color="#2682ea"/></linearGradient></defs><title>玩法_1</title><path d="M35.05487,35.05525H4.94452V4.94441H35.05487Zm-28.11035-2H33.05487V6.94441H6.94452Z" fill="#404448"/><path d="M23.55976,18.34755l.00506-.00043v-1.912H16.43506v7.1297h1.90113A6.25175,6.25175,0,0,1,23.55976,18.34755Z" fill="none"/><path d="M24.48853,30.73378a6.16648,6.16648,0,0,1-.92371-.07715v.92669h1.874v-.93219l-.02149.00507A6.186,6.186,0,0,1,24.48853,30.73378Z" fill="#404448"/><path d="M30.7204,24.5019a6.177,6.177,0,0,1-.07757.92884l-.002.00818h.94239V23.56483h-.94239l.002.00824A6.177,6.177,0,0,1,30.7204,24.5019Z" fill="#404448"/><path d="M31.58326,16.43513v-1.874H25.43885V8.4167h-1.874v6.14441H16.43506V8.4167H14.561v6.14441H8.41663v1.874H14.561v7.1297H8.41663v1.87409H14.561v6.1444h1.874v-6.1444h1.90113l-.002-.00818a5.59979,5.59979,0,0,1,0-1.85767l.002-.00824H16.43506v-7.1297h7.12976v1.912a5.58795,5.58795,0,0,1,1.85254.00043l.02149.00506V16.43513Z" fill="#404448"/><path d="M30.64283,23.57307l-.002-.00824a6.25079,6.25079,0,0,0-5.202-5.21222l-.02149-.00506a5.58795,5.58795,0,0,0-1.85254-.00043l-.00506.00043a6.25175,6.25175,0,0,0-5.22357,5.21728l-.002.00824a5.59979,5.59979,0,0,0,0,1.85767l.002.00818a6.25176,6.25176,0,0,0,5.22357,5.21728l.00506.00043a5.58367,5.58367,0,0,0,1.85254-.00043l.02149-.00507a6.25083,6.25083,0,0,0,5.202-5.21221l.002-.00818a5.59979,5.59979,0,0,0,0-1.85767Z" fill="url(#未命名的渐变_2)"/></svg>