<svg id="图层_1" data-name="图层 1" xmlns="http://www.w3.org/2000/svg" xmlns:xlink="http://www.w3.org/1999/xlink" viewBox="0 0 40 40"><defs><linearGradient id="未命名的渐变_2" x1="12.09215" y1="26.37296" x2="34.13048" y2="26.37296" gradientUnits="userSpaceOnUse"><stop offset="0.00479" stop-color="#024ea4"/><stop offset="1" stop-color="#2682ea"/></linearGradient></defs><title>八卦_1</title><path d="M13.2885,17.08394H32.93413a1.19634,1.19634,0,0,1,1.19635,1.19635V29.24812h1.5719V8.30232H4.29808v20.9458h7.79407V18.28029A1.19637,1.19637,0,0,1,13.2885,17.08394Z" fill="none"/><path d="M37.70238,6.30232H2.29808v24.9458H5.86955v2.444a.95206.95206,0,0,0,1.5874.70911l3.51917-3.15308h1.116v-2H4.29808V8.30232h31.4043v20.9458h-1.5719v2h3.5719Z" fill="#404448"/><path d="M32.93413,17.08394H13.2885a1.19637,1.19637,0,0,0-1.19635,1.19635V31.83845A1.19637,1.19637,0,0,0,13.2885,33.0348h14.9l2.37317,2.34973a.9521.9521,0,0,0,1.622-.67651V33.0348h.75049a1.19634,1.19634,0,0,0,1.19635-1.19635V18.28029A1.19634,1.19634,0,0,0,32.93413,17.08394Z" fill="url(#未命名的渐变_2)"/></svg>