<svg id="图层_1" data-name="图层 1" xmlns="http://www.w3.org/2000/svg" xmlns:xlink="http://www.w3.org/1999/xlink" viewBox="0 0 40 40"><defs><linearGradient id="未命名的渐变_2" x1="8.7281" y1="19.47309" x2="29.17361" y2="19.47309" gradientUnits="userSpaceOnUse"><stop offset="0.00479" stop-color="#024ea4"/><stop offset="1" stop-color="#2682ea"/></linearGradient></defs><title>帮会_1</title><polygon points="29.174 12.925 8.728 12.925 8.728 19.473 8.728 26.022 29.174 26.022 26.969 19.473 29.174 12.925" fill="url(#未命名的渐变_2)"/><path d="M31.87462,19.473,36.87773,8.81575c.56543-.58056.06452-1.44293-.83813-1.44293H8.93968V6.76723a1,1,0,0,0-1-1H5.67039a1,1,0,0,0-1,1V33.2328a1,1,0,0,0,1,1H7.93968a1,1,0,0,0,1-1V31.57332H36.0396c.90265,0,1.40356-.86237.83813-1.44293ZM6.67039,29.57332V9.37282H34.40678l-4.34259,9.2503-.399.84992.399.84991,4.34259,9.25037Z" fill="#404448"/></svg>