<svg id="图层_1" data-name="图层 1" xmlns="http://www.w3.org/2000/svg" viewBox="0 0 40 40"><title>其它</title><path d="M5,11.34V28.66l15,8.66034L35,28.66V11.34L20,2.6797ZM33.45011,27.76546,20,35.53053,6.54991,27.76546V12.23457L20,4.4695l13.45013,7.76507Z"/><path d="M23.54075,14.46657,23.535,15.91866a.06178.06178,0,0,1-.05993.06158l-.66028.00318c-.08716.00048-.12879.0147-.15979.11212l-.05652.17743-1.02515.02191a.408.408,0,0,0-.40173.23126,4.62815,4.62815,0,0,1-.943,1.63123l-1.54633,1.49609q.01163.11206.03314.23364a3.01833,3.01833,0,0,0,.93964,1.70416,2.26472,2.26472,0,0,0,2.7027.34858l.813-.84034a4.62757,4.62757,0,0,1,1.63122-.94293.40812.40812,0,0,0,.23132-.40179l.02192-1.02515.17736-.05646c.09742-.031.1117-.07263.11213-.15985l.00317-.66021a.062.062,0,0,1,.06158-.06l1.452-.00574c.284-.0011.42975.004.61536-.2204l.38476-.46527-1.20068-1.17181,2.9422-2.99518.73266-.18732c.28608-.07312.27637-.27533.08338-.49731l-.62372-.71741L29.0781,10.909c-.222-.193-.42419-.2027-.49737.08344l-.18732.7326-2.99518,2.94226-1.17181-1.20074-.46527.38483C23.53672,14.03688,23.54191,14.1827,23.54075,14.46657Z"/><path d="M12.62712,25.72859c-.891,1.20069-.92389,2.05115-1.02137,3.99384,2.28675-.11475,3.06-.13977,4.67285-1.58057a7.05177,7.05177,0,0,1-.73425-.27179A8.77537,8.77537,0,0,1,12.62712,25.72859Z"/><path d="M19.48515,12.45748c-.25067.226-.48419.426-.69129.61889a7.28555,7.28555,0,0,1,4.98432-.29327l.241-.19934a11.2001,11.2001,0,0,0-1.86152-.2945,5.72259,5.72259,0,0,1,1.87171-.612,6.78091,6.78091,0,0,0-4.11963-.00262A2.058,2.058,0,0,1,19.48515,12.45748Z"/><path d="M22.79032,14.431a4.87807,4.87807,0,0,0-1.0802.29425c.33387.09832.63355.1889,1.07782.3219Q22.78905,14.73915,22.79032,14.431Z"/><path d="M22.94413,22.54469a3.39307,3.39307,0,0,1-5.08343-3.02185c-.074-1.92413,2.0213-3.87744,4.05511-4.12738a3.70975,3.70975,0,0,0-2.17993-.20758,5.79805,5.79805,0,0,1,3.32275-1.42248,1.58029,1.58029,0,0,1,.42481-.45105c-2.05292-.53168-5.05286-.46222-7.65637,2.98578a11.87874,11.87874,0,0,1,3.27221-4.28858,1.94558,1.94558,0,0,0,.34522-1.73382,5.92313,5.92313,0,0,1-2.901,1.98291,6.601,6.601,0,0,0-2.65277,2.16095,3.23552,3.23552,0,0,0-.94739-1.917,10.03056,10.03056,0,0,1-.41278,3.51453c-.09686.25592-.22455.55-.64563,1.60272a6.73111,6.73111,0,0,0-.10425,3.71521,2.56774,2.56774,0,0,0-2.339-.4649c1.35675.69244,2.126,2.22827,3.02692,3.40716,2.06939,2.70807,4.61932,3.97351,7.89306,3.06238C21.97911,26.8915,24.33048,23.75276,22.94413,22.54469Z"/><path d="M25.50242,13.428l.23981-.23554a8.9896,8.9896,0,0,0-1.05841-.41852l.51172.52436Z"/><path d="M19.74217,17.64174a3.60318,3.60318,0,0,0,.59143-.92566,4.8291,4.8291,0,0,0-.7898.64838,3.7754,3.7754,0,0,0-.85956,1.30084Z"/><path d="M30.041,20.1241a7.50415,7.50415,0,0,0-1.60723-4.84161l-.62409.63525,1.15387,1.12616-.86084,1.041a1.24286,1.24286,0,0,1-1.22046.51257l-.72979.00287a.92886.92886,0,0,1-.29761.63659l-.01142.53382a1.2098,1.2098,0,0,1-.80975,1.16327l.00024.001a3.59248,3.59248,0,0,0-1.54718,1.00434,1.97969,1.97969,0,0,1,.60724.97339,3.0075,3.0075,0,0,1-.20892,1.94146,6.37291,6.37291,0,0,1-1.12811,1.75214c.24536-.101.48755-.2088.72863-.32337-.68774,1.117-2.34942,2.36237-5.35186,2.75635,3.2099.845,6.27606.36524,8.20727-1.63769-.15466.27185-.31579.56061-.49286.81787,2.36884-1.36872,5.45227-5.39264,3.24317-9.2702A3.65833,3.65833,0,0,1,30.041,20.1241Z"/></svg>