<svg id="图层_1" data-name="图层 1" xmlns="http://www.w3.org/2000/svg" xmlns:xlink="http://www.w3.org/1999/xlink" viewBox="0 0 40 40"><defs><linearGradient id="未命名的渐变_2" x1="13.49497" y1="19.85753" x2="26.50493" y2="19.85753" gradientUnits="userSpaceOnUse"><stop offset="0.00479" stop-color="#024ea4"/><stop offset="1" stop-color="#2682ea"/></linearGradient></defs><title>玩家_1</title><path d="M24.86,28.79139c.06927-.04389.14056-.07709.20953-.12268a10.68063,10.68063,0,0,0,4.45954-7.12586h.08069a2.20445,2.20445,0,0,0,.52569-4.34619c.23682-2.68561.06177-5.62628-2.33838-7.96692a9.34868,9.34868,0,0,0-3.42871-2.076V5.99683a4.36865,4.36865,0,1,0-8.7373,0V7.15314a9.35214,9.35214,0,0,0-3.42774,2.0766c-2.39978,2.33948-2.5755,5.27985-2.339,7.967a2.20444,2.20444,0,0,0,.52582,4.34613h.08038a10.68321,10.68321,0,0,0,4.46033,7.12586c.068.04492.14386.07885.213.12219-5.51245.74744-10.19928,2.76935-10.19928,5.92663,0,3.55469,14.90528,3.6543,15.05567,3.6543,5.30761,0,15.05468-1.38721,15.05468-3.6543C35.05487,31.561,30.3703,29.53925,24.86,28.79139ZM17.631,5.99683a2.36865,2.36865,0,1,1,4.7373,0v.62439a14.94325,14.94325,0,0,0-2.38086-.23083,14.806,14.806,0,0,0-2.35644.22973ZM12.08515,18.989c-.39356-2.98438-.80078-6.0708,1.51465-8.32715a9.49762,9.49762,0,0,1,6.38769-2.27148,9.51941,9.51941,0,0,1,6.41309,2.27148c2.3164,2.25781,1.9082,5.34473,1.51367,8.332-.31152,2.35449-.78125,5.91309-3.94824,8.00684a8.91578,8.91578,0,0,1-3.83789,1.45263,9.5263,9.5263,0,0,1-4.09375-1.45263C12.8664,24.906,12.39667,21.34693,12.08515,18.989Zm7.915,17.38281c-7.07227,0-12.0127-1.168-13.03028-1.87842.39161-1.75439,5.27637-4.03222,13.03028-4.03222.02826,0,.05468.0014.08288.00146l.046.00537.03388-.004c7.40783.03118,12.16241,2.14318,12.81476,3.858A36.62092,36.62092,0,0,1,20.00019,36.37183Z" fill="#404448"/><rect x="13.49497" y="12.51906" width="13.00996" height="14.67693" rx="6.50497" fill="url(#未命名的渐变_2)"/></svg>