<svg id="图层_1" data-name="图层 1" xmlns="http://www.w3.org/2000/svg" viewBox="0 0 40 40"><title>玩家</title><path d="M19.94425,36a16,16,0,1,0-16-16A16.0181,16.0181,0,0,0,19.94425,36Zm0-30.54548A14.54548,14.54548,0,1,1,5.39878,20,14.56217,14.56217,0,0,1,19.94425,5.45453Z"/><path d="M20.1854,30.55189A10.55192,10.55192,0,1,0,9.63334,20.00019,10.564,10.564,0,0,0,20.1854,30.55189Zm2.045-18.70057h2.31353v1.1568h1.15674v1.15674H24.54392V13.00812H22.23039Zm0,3.498h6.94049V16.506H28.01414v1.15674H26.8574V16.506h-4.627Zm-.02674,11.64142v1.15674h1.1568V29.3042h-1.1568V28.14747h-4.627V29.3042H16.4199V28.14747h1.15674V26.99073ZM14.09617,13.00812h1.15674v-1.1568h2.31354v1.1568H15.25291v1.15674H14.09617Zm-2.31348,2.34119h6.94049V16.506H17.56645v1.15674h-1.1568V16.506h-4.627Z"/></svg>