<svg id="图层_1" data-name="图层 1" xmlns="http://www.w3.org/2000/svg" xmlns:xlink="http://www.w3.org/1999/xlink" viewBox="0 0 40 40"><defs><linearGradient id="未命名的渐变_2" x1="9.19968" y1="20.12897" x2="30.80032" y2="20.12897" gradientUnits="userSpaceOnUse"><stop offset="0.00479" stop-color="#024ea4"/><stop offset="1" stop-color="#2682ea"/></linearGradient></defs><title>剧情_1</title><rect x="10.19945" y="11.06425" width="19.60059" height="3.22852" fill="none"/><rect x="10.19945" y="25.96519" width="19.60059" height="3.22845" fill="none"/><rect x="4.29808" y="10.32987" width="3.90137" height="19.33984" fill="none"/><rect x="31.80003" y="10.32987" width="3.90234" height="19.33984" fill="none"/><rect x="10.19945" y="14.29276" width="19.60059" height="11.67242" fill="url(#未命名的渐变_2)"/><path d="M35.4727,8.32987v-.779a1,1,0,0,0-1-1H33.02977a1,1,0,0,0-1,1v.779H29.8v.73438H10.19945V8.32987H7.97026v-.779a1,1,0,0,0-1-1H5.52733a1,1,0,0,0-1,1v.779H2.29808V31.66971H4.52733v.77948a1,1,0,0,0,1,1H6.97026a1,1,0,0,0,1-1v-.77948h2.22919v-.47607H29.8v.47607h2.22974v.77948a1,1,0,0,0,1,1H34.4727a1,1,0,0,0,1-1v-.77948h2.22968V8.32987ZM8.19945,29.66971H4.29808V10.32987H8.19945ZM29.8,14.29276V29.19364H10.19945V11.06425H29.8Zm5.90235,15.377H31.8V10.32987h3.90235Z" fill="#404448"/></svg>