<svg id="图层_1" data-name="图层 1" xmlns="http://www.w3.org/2000/svg" viewBox="0 0 40 40"><title>剧情</title><path d="M6.80117,33.46122a1,1,0,0,0,1,1h.937a1,1,0,0,0,1-1v-1.236h1.80133v-.51252H28.4609v.51252H30.262v1.236a1,1,0,0,0,1,1h.937a1,1,0,0,0,1-1v-1.236H35V7.775H33.199V6.53879a1,1,0,0,0-1-1h-.937a1,1,0,0,0-1,1V7.775H28.4609v.78949H11.53945V7.775H9.73812V6.53879a1,1,0,0,0-1-1h-.937a1,1,0,0,0-1,1V7.775H5V32.22526H6.80117Zm4.73828-3.2533V26.414H28.4609v3.79388Zm21.95575.51251H29.96572V9.27982H33.4952ZM28.4609,10.06931v3.794H11.53945v-3.794ZM6.50484,9.27982h3.52979V30.72043H6.50484Z"/></svg>