<svg xmlns="http://www.w3.org/2000/svg" xmlns:xlink="http://www.w3.org/1999/xlink" width="93.88671875" height="53" viewBox="0 0 93.88671875 53" fill="none">
<path     fill="url(#linear_0)"  d="M0 0L93.8867 0L93.8867 43C93.8867 48.5228 89.4096 53 83.8867 53L0 53L0 0Z">
</path>
<g >
<path     fill="#612424"  d="M36.8319 18.7L36.8319 20.84C36.8319 21.9 36.6719 22.98 35.3119 23.88L35.3119 21.78L33.4119 21.78L33.4119 18.1L30.5719 18.1L30.5719 21.78L28.3719 21.78L28.3719 24.46L30.5719 24.46L30.5719 27.52L28.1119 28.02L28.8319 30.8L30.5719 30.38L30.5719 33.96C30.5719 34.24 30.4719 34.34 30.1919 34.34C29.9319 34.34 29.1119 34.34 28.4119 34.32C28.7519 35.04 29.1119 36.2 29.1919 36.94C30.6319 36.94 31.6719 36.86 32.4319 36.42C33.1919 36 33.4119 35.3 33.4119 33.98L33.4119 29.66L35.0119 29.26L34.6519 26.6L33.4119 26.88L33.4119 24.46L34.1719 24.46L34.1319 24.48C34.6719 24.9 35.7119 26.04 36.0519 26.6C38.7119 25.4 39.4319 23.34 39.5119 21.38L41.5919 21.38L41.5919 22.9C41.5919 25.18 42.0519 26.18 44.3719 26.18C44.7119 26.18 45.2319 26.18 45.5319 26.18C46.0119 26.18 46.5319 26.16 46.8719 26C46.7719 25.34 46.7119 24.34 46.6719 23.62C46.3719 23.72 45.8319 23.78 45.4919 23.78C45.2719 23.78 44.8519 23.78 44.6719 23.78C44.3719 23.78 44.3319 23.52 44.3319 22.94L44.3319 18.7L36.8319 18.7ZM42.3519 29.4C41.8519 30.26 41.2119 31.02 40.4719 31.66C39.6319 31 38.9319 30.24 38.3919 29.4L42.3519 29.4ZM35.2319 26.7L35.2319 29.4L36.6519 29.4L35.5519 29.78C36.2519 31.08 37.0719 32.22 38.0319 33.2C36.8119 33.78 35.4119 34.18 33.8519 34.44C34.3719 35.08 34.9919 36.3 35.2519 37.08C37.2119 36.62 38.9519 36 40.4519 35.14C41.8719 36.02 43.5119 36.7 45.4319 37.14C45.8119 36.34 46.6319 35.08 47.2519 34.44C45.6719 34.16 44.2519 33.74 42.9919 33.18C44.4319 31.72 45.5119 29.82 46.1919 27.36L44.3119 26.6L43.8119 26.7L35.2319 26.7ZM50.9119 27.36L50.9119 29.52L64.4318 29.52L64.4318 27.36L50.9119 27.36ZM60.0118 33.76C61.5118 34.64 63.4518 35.98 64.3318 36.88L66.6518 35.28C65.6118 34.34 63.6118 33.1 62.1518 32.32L60.0118 33.76ZM48.5519 30.06L48.5519 32.32L52.2719 32.32C51.4119 33.42 49.9119 34.52 48.4519 35.2C49.0719 35.64 50.1119 36.6 50.5919 37.12C52.1119 36.22 53.8719 34.7 54.9718 33.2L52.4319 32.32L56.2119 32.32L56.2119 34.32C56.2119 34.54 56.1319 34.58 55.8718 34.58C55.6319 34.6 54.7519 34.6 54.1519 34.56C54.4919 35.26 54.8918 36.34 55.0118 37.12C56.2518 37.12 57.2518 37.1 58.0918 36.7C58.9518 36.32 59.1518 35.64 59.1518 34.42L59.1518 32.32L66.8318 32.32L66.8318 30.06L48.5519 30.06ZM50.0319 21.72L50.0319 26.82L65.3318 26.82L65.3318 21.72L60.9918 21.72L60.9918 20.94L66.4318 20.94L66.4318 18.68L48.8719 18.68L48.8719 20.94L54.1319 20.94L54.1319 21.72L50.0319 21.72ZM56.7918 20.94L58.2719 20.94L58.2719 21.72L56.7918 21.72L56.7918 20.94ZM52.7119 23.74L54.1319 23.74L54.1319 24.78L52.7119 24.78L52.7119 23.74ZM56.7918 23.74L58.2719 23.74L58.2719 24.78L56.7918 24.78L56.7918 23.74ZM60.9918 23.74L62.4518 23.74L62.4518 24.78L60.9918 24.78L60.9918 23.74Z">
</path>
</g>
<defs>
<linearGradient id="linear_0" x1="50.000009985439895%" y1="15.489%" x2="51.000009985439895%" y2="100%" gradientUnits="objectBoundingBox">
<stop offset="0" stop-color="#FFDD94"  />
<stop offset="1" stop-color="#FFF4E6"  />
</linearGradient>
</defs>
</svg>
