<?xml version="1.0" encoding="utf-8"?>
<!-- Generator: Adobe Illustrator 23.0.5, SVG Export Plug-In . SVG Version: 6.00 Build 0)  -->
<svg version="1.1" id="图层_1" xmlns="http://www.w3.org/2000/svg" xmlns:xlink="http://www.w3.org/1999/xlink" x="0px" y="0px"
	 viewBox="0 0 1080 1080" style="enable-background:new 0 0 1080 1080;" xml:space="preserve">
<style type="text/css">
	.st0{fill-rule:evenodd;clip-rule:evenodd;fill:#24292E;}
</style>
<g id="图层_x0020_1">
	<path class="st0" d="M110.7,1037.2c5-99.4,6.7-142.9,52.2-204.3c44.1,47.5,93.4,85.3,149.2,109.5c12.2,5.3,24.8,10,37.6,13.9
		C267.2,1030.1,227.6,1031.4,110.7,1037.2L110.7,1037.2z M557.1,372c-14.6,9.6-28.2,20.8-40.4,33.2c-19.7,20-35.2,42.9-44,66.5
		l54.1-52.3C538,408.6,550.3,386.7,557.1,372L557.1,372z M682.7,255.2c-21.5,3.5-39.4,8.6-55.2,15c17.1,5,32.4,9.7,55.1,16.5
		C682.6,276.2,682.7,265.7,682.7,255.2z M805.7,197.2l15.7,6.6l12.3-12c-17.1-8.1-35.2-15.2-54.1-21.4L805.7,197.2L805.7,197.2z
		 M745.6,160.7c-29.8-7.4-61.6-12.5-95.2-15.1c20.3-15.8,64.7-24.2,95.7-31.3c-50.5-20.4-138.6-23.1-210.7-0.1
		c-4,12.2-12,31.3-21.7,40c-12.8,11.6-24.8,21.8-35.4,31.7c81.7-36.2,169.2-38.8,254.9-15L745.6,160.7L745.6,160.7z M179.1,156.6
		c9.8,63.9-16.2,166.7-21.1,179.8c-5,13.1-11.5,28.1-33,82c-21.5,53.8-19.8,157.4-5.3,190C84.5,583.7,41.2,569.7,0,584.6
		c69.4,35.4,108.7,114,154.8,174.3c105.8,138.5,236.3,203.2,403.7,156.6c82.7-23,203-183.6,132.1-245.3
		c-122.7,69.3-254.8-19.4-260-154.6C426.8,417.2,534,317.3,638,304.5c-42.4-12.7-57-19.3-111.5-10.6c49.1-36,86.1-64.4,169.9-72.8
		c5.2-9.6,13.5-16.3,21.7-23.1c-105-27.2-258.4-23.6-391.6,152.7c39.6-87.5,68.3-122.8,167.4-219.3c26.1-25.5,20.9-62.8,17.7-88.7
		c-27.9,45.8-78.9,70.7-148.4,101.4c-52.7,23.3-100.5,61.8-135.7,110.5C218.7,217,210,183,179.1,156.6L179.1,156.6z M681,877.9
		c12.5-5.2,24.9-10.7,37.3-16.5c-35.2,57.1-120.2,120.8-273.7,141c164.2,43.2,321,18.7,419.8-83.8c-7.9,13.9-16.2,28.7-25.2,41.8
		c121.2-70,278.9-275.8,165.9-474.1c19.1,15.5,35.1,34.4,48.6,60.1c0.9-94.3-27.7-179.9-82.2-247.6l-31.9,32.5l59,57.6l-44,53.2
		c-21.6,26.1-35.7,26.1-62.4,26.2l-37.3,0.1c-0.7,12.5-6,24.1-15.2,32.6l-0.6,27.3c-0.6,26.1-15.5,51.7-41.4,59.5l0,0
		c-31.3,9.3-56.8,28.3-79.1,51.4c15.7,13.8,25.8,30.8,31.1,49.8c8.6,30.8,3.4,65.4-10.7,99.3C725.3,820.7,704.3,851.7,681,877.9
		L681,877.9z M472.6,522.3l79.1-76.5c16.1-15.6,39.6-54.5,48.2-83.4c1.8-6.1,9.7-11.6,20.5-11.8l52.4-1.1l2.9-9.1
		c1.6-5,3.7-5.7,8.2-5.7l33.8-0.2c1.7,0,3.1-1.5,3.1-3.1l0.3-74.3c0.1-14.5-0.2-22,11.3-31.5l23.8-19.7l59.9,61.4l153.2-150.5
		l9.6-37.5c3.7-14.6,14.1-14.1,25.4-4.3l36.7,31.9l31.9,36.7c9.9,11.4,10.4,21.7-4.3,25.4l-37.5,9.6L880.7,331.8l61.4,59.9
		l-19.7,23.8c-9.5,11.5-16.9,11.2-31.5,11.3l-74.3,0.3c-1.6,0-3.1,1.3-3.1,3.1l-0.2,33.8c0,4.5-0.8,6.6-5.7,8.2l-9.1,2.9l-1.1,52.4
		c-0.2,10.9-5.7,18.7-11.8,20.5c-28.9,8.6-67.8,32.1-83.4,48.2l-41.6,43c-47.5,23.6-95.6,20.6-138.2-17.8
		c-24.5-22.1-42-53.1-48.1-87.2C473.6,530.1,473,526.1,472.6,522.3L472.6,522.3z"/>
</g>
</svg>
