<?xml version="1.0" encoding="utf-8"?>
<!-- Generator: Adobe Illustrator 23.0.5, SVG Export Plug-In . SVG Version: 6.00 Build 0)  -->
<svg version="1.1" id="图层_1" xmlns="http://www.w3.org/2000/svg" xmlns:xlink="http://www.w3.org/1999/xlink" x="0px" y="0px"
	 viewBox="0 0 256 256" style="enable-background:new 0 0 256 256;" xml:space="preserve">
<g>
	<path d="M55.13,33.49c0,2.52,0.62,5.34,1.88,8.47h64.03c-6.28-9.42-11.62-16.95-16.01-22.6L116.34,9
		c11.92,4.4,22.91,9.42,32.96,15.07c3.77,1.88,4.38,5.65,1.88,11.3c-1.27,1.88-2.83,4.09-4.71,6.59h52.74l9.42-11.3l32.02,25.43
		l-14.13,12.24c-6.28,8.8-13.18,17.89-20.72,27.31l-15.07-3.77c0.62-1.88,1.25-4.38,1.88-7.53c1.25-3.13,2.83-9.42,4.71-18.83h-90.4
		l38.61,10.36c-1.27,3.77-3.77,9.74-7.53,17.89c-1.88,5.03-3.46,8.8-4.71,11.3h70.63l8.47-13.18l29.19,20.72l-10.36,16.01H121.05
		c-18.83,34.53-46.14,65.61-81.93,93.23l-16.01-11.3c26.98-25.73,47.08-53.04,60.27-81.93H25.94l-3.77-23.54h71.57
		c4.38-12.55,8.48-25.73,12.24-39.55H58.9c0,1.88,0.31,4.09,0.94,6.59c0,3.77,0.31,6.28,0.94,7.53c0,5.65-2.21,8.8-6.59,9.42
		c-6.92,1.27-14.13,1.88-21.66,1.88c-7.53,0-9.42-3.77-5.65-11.3c4.38-9.42,8.47-25.1,12.24-47.08L55.13,33.49z M80.56,201.11
		c9.42-2.5,17.57-7.84,24.48-16.01c10.67-14.43,20.08-32.33,28.25-53.68l35.78,15.07c-6.92,9.42-16.33,21.66-28.25,36.73
		c-5.65,6.92-9.74,11.93-12.24,15.07c3.77,0,9.42-0.31,16.95-0.94c15.07-0.62,26.37-1.25,33.9-1.88c-1.27-1.88-2.52-4.71-3.77-8.47
		c-2.52-5.65-6.59-13.18-12.24-22.6l17.89-9.42c13.18,13.18,27.31,30.46,42.38,51.79c3.13,4.38,3.44,8.47,0.94,12.24
		c-5.65,5.65-12.57,10.98-20.72,16.01c-5.03,3.77-8.47,2.19-10.36-4.71c-1.88-4.4-4.09-9.42-6.59-15.07
		c-43.95,6.9-76.6,12.86-97.94,17.89L80.56,201.11z"/>
</g>
</svg>
