<?xml version="1.0" encoding="utf-8"?>
<!-- Generator: Adobe Illustrator 23.0.5, SVG Export Plug-In . SVG Version: 6.00 Build 0)  -->
<svg version="1.1" id="图层_1" xmlns="http://www.w3.org/2000/svg" xmlns:xlink="http://www.w3.org/1999/xlink" x="0px" y="0px"
	 viewBox="0 0 256 256" style="enable-background:new 0 0 256 256;" xml:space="preserve">
<style type="text/css">
	.st0{fill:#080707;}
	.st1{fill:#D9D8D5;}
	.st2{fill:#E9EAE6;}
	.st3{fill:#8D8B80;}
	.st4{fill:#757062;}
	.st5{fill:#7D7B6F;}
	.st6{fill:#ACA8A0;}
	.st7{fill:#858377;}
	.st8{fill:#706B5E;}
	.st9{fill:#B1B0AA;}
	.st10{fill:#B8B5AE;}
	.st11{fill:#747067;}
	.st12{fill:#B6B4AE;}
	.st13{fill:#D5D4D1;}
	.st14{fill:#CDCBC7;}
	.st15{fill:#5F5B4F;}
	.st16{fill:#D4D3CF;}
	.st17{fill:#C1BFBB;}
	.st18{fill:#C7C5C3;}
	.st19{fill:#BAB8B3;}
	.st20{fill:#979689;}
	.st21{fill:#A3A29A;}
	.st22{fill:#DFDFDC;}
	.st23{fill:#9C9790;}
	.st24{fill:#A8A69F;}
	.st25{fill:#7B7669;}
	.st26{fill:#C9C8C4;}
	.st27{fill:#A19D95;}
	.st28{fill:#939088;}
</style>
<g>
	<path class="st0" d="M169.35,201.48c0,9.07,0.27,18.15-0.09,27.21c-0.26,6.58-2.46,12.45-8.57,16.2
		c-5.87,3.6-12.48,2.02-15.09-4.72c-2.19-5.67-3.28-11.81-4.41-17.82c-1.78-9.41-3.04-18.93-4.87-28.33
		c-0.35-1.81-2.15-3.45-3.54-4.92c-3.99-4.24-8.1-8.36-12.21-12.49c-0.46-0.46-1.17-0.84-1.8-0.91
		c-10.46-1.22-19.93,0.88-23.87,13.25c-4.2,13.19-8,26.52-11.78,39.84c-1.74,6.14-8.86,12.43-13.84,11.28
		c-8.2-1.89-12.8-7.73-12.49-14.66c0.8-18.06,0.74-36.17,1.74-54.21c0.29-5.3,3.15-10.43,4.47-15.72c0.76-3.06,1.54-6.41,1.06-9.42
		c-1.82-11.35-4.75-22.56-0.48-34.04c0.74-1.99,0.7-4.66,0.03-6.7c-2.7-8.23-5.53-16.44-8.9-24.41c-0.99-2.33-3.62-4.57-6.03-5.6
		c-10.25-4.41-20.69-8.14-32.25-5.35c-1.91,0.46-5.62-0.07-5.99-1.07c-0.79-2.16-0.88-5.62,0.39-7.29
		c3.64-4.77,7.42-9.99,12.38-13.07c12.3-7.63,24.59-16.28,40.49-13.54c0.18,0.03,0.38-0.02,0.57,0.01c3.19,0.54,6.37,1.1,9.55,1.65
		c0.08-3.77,0.19-7.54,0.23-11.31c0.04-3.97,0.3-7.97-0.07-11.9c-0.37-3.97,1.3-4.71,4.81-4.55c5.85,0.27,11.73,0.43,17.57,0.04
		c4.66-0.31,6.39,0.94,6.21,5.9c-0.38,9.84-0.14,19.71-0.1,29.56c0.03,6.38,4.51,9.32,10.42,6.78c2.04-0.87,4.36-1.76,5.75-3.34
		c8.93-10.16,21.43-13.51,33.47-17.34c23.85-7.59,47.53-6.45,70.61,3.44c8.5,3.64,14.27,10.47,18.8,18.18
		c3.61,6.14,0.99,11.61-6.18,13.05c-8.11,1.64-16.36,2.52-24.55,3.77c-14.9,2.28-28.47,7.87-39.09,18.6
		c-6.65,6.73-10.96,14.86-8.41,25.5c2.87,11.98-0.04,23.92-2.35,35.78c-0.47,2.41-0.1,6.17,1.45,7.57
		c5.67,5.12,6.61,11.58,6.69,18.45c0.1,8.88,0.02,17.76,0.02,26.65C169.17,201.48,169.26,201.48,169.35,201.48z M109.05,166.15
		c2.33,0.12,4.66,0.24,6.98,0.37c1.46,0.22,2.93,0.44,4.39,0.67c1.16,0.28,2.32,0.55,3.48,0.83c1.58,1.81,3.17,3.61,4.75,5.42
		c0.8,0.86,1.6,1.72,2.4,2.57c1.77,1.06,3.55,2.12,5.32,3.18c0.86,0.83,1.71,1.66,2.57,2.48c1.02,1.01,2.05,2.02,3.07,3.03
		c1.86,6.83,3.73,13.67,5.59,20.5c0.24,1.56,0.48,3.13,0.72,4.69c0.26,1.43,0.53,2.85,0.79,4.28c0.4,4.3,0.53,8.65,1.3,12.88
		c0.45,2.49,1.8,4.85,2.92,7.19c1.45,3.02,3.86,2.81,4.93,0.21c1.26-3.1,1.35-6.67,1.95-10.04c0.02-6.04,0.05-12.09,0.07-18.13
		c-0.02-1.89-0.05-3.78-0.07-5.67c0-0.76,0.01-1.52,0.01-2.27c-0.02-3.4-0.04-6.8-0.06-10.2c-0.02-1.51-0.04-3.02-0.06-4.53
		c-0.01-3.4-0.03-6.8-0.04-10.2c-0.31-1.52-0.63-3.04-0.94-4.55c-0.38-0.76-0.75-1.51-1.13-2.27c-0.72-0.78-1.43-1.55-2.15-2.33
		c-0.78-0.74-1.57-1.49-2.35-2.23c-0.7-0.6-1.4-1.2-2.1-1.8c-0.2-1.67-0.39-3.33-0.59-5c0.86-4.39,2.07-8.74,2.5-13.18
		c0.74-7.71,1-15.46,1.46-23.19c-0.35-6.36-0.7-12.72-1.06-19.09c0.39-0.72,0.79-1.44,1.18-2.16c0.97-1.97,1.95-3.93,2.92-5.9
		c3.45-4.17,6.91-8.34,10.36-12.5c0.8-0.68,1.59-1.37,2.39-2.05c7.9-4.34,15.8-8.69,23.7-13.03c3.07-0.92,6.14-1.84,9.21-2.77
		c7.25-0.93,14.54-1.65,21.73-2.91c2.84-0.5,5.47-2.21,8.2-3.37c-1.56-2.23-3.1-4.48-4.7-6.68c-0.31-0.43-0.89-0.67-1.34-1
		c-3.46-2.28-6.92-4.55-10.37-6.83c-1.69-0.64-3.39-1.28-5.08-1.93c-1-0.36-1.99-0.71-2.99-1.07c-2.24-0.42-4.47-0.84-6.71-1.27
		c-7.16-0.63-14.32-1.27-21.48-1.9c-1.89-0.05-3.77-0.09-5.66-0.14c-6.44,1.4-12.89,2.8-19.33,4.2c-4.2,1.4-8.39,2.79-12.59,4.19
		c-1.64,0.75-3.29,1.51-4.93,2.26c-0.75,0.39-1.49,0.77-2.24,1.16c-2.23,1.29-4.46,2.59-6.7,3.88c-2.9,2.51-5.81,5.01-8.71,7.52
		l-0.02,0.02c-1.51,0.84-3.02,1.69-4.53,2.53c-1.51,0.36-3.02,0.72-4.53,1.07c-1.88-0.04-3.75-0.07-5.63-0.11
		c-3.02-1.86-6.03-3.71-9.05-5.57c-1-5.26-2-10.53-3.01-15.79c-0.2-6.45-0.41-12.9-0.61-19.36c-0.03-0.75-0.06-1.5-0.08-2.26
		c-0.3-0.27-0.59-0.54-0.89-0.81c-2.26,0-4.53,0-6.79,0c-4.06-0.36-2.13,2.48-2.26,4.22c0.03,2.65,0.07,5.29,0.1,7.94
		c-0.04,1.68-0.16,3.36-0.12,5.04c0.21,10.38-4.03,13.18-13.88,10.72c-8.37-2.1-17.24-4.31-25.09,2.16
		c-0.69,0.31-1.37,0.63-2.06,0.94c-3.79,1.98-7.57,3.96-11.36,5.93l0.04-0.05c-1.8,1.71-3.6,3.42-5.4,5.13
		c2.1,0.39,4.19,0.81,6.3,1.14c1.26,0.2,2.55,0.27,3.83,0.39c2.25,0.41,4.5,0.82,6.76,1.23c3.41,1.14,6.82,2.27,10.23,3.41
		c1.84,0.97,3.68,1.95,5.52,2.92c0.98,0.33,1.96,0.67,2.94,1l0.14,0.07c0.49,1.02,0.98,2.04,1.47,3.07
		c0.86,2.63,1.65,5.28,2.58,7.88c1.78,4.95,3.64,9.87,5.47,14.8c0.35,0.8,0.7,1.59,1.05,2.39c0.21,4.94,0.43,9.88,0.64,14.82
		c-0.07,0.71-0.13,1.43-0.2,2.14c-0.17,1.1-0.34,2.2-0.5,3.3c-0.2,2.27-0.39,4.54-0.59,6.8c0.02,1.22,0.04,2.44,0.06,3.67
		c0.36,2.67,0.72,5.35,1.09,8.02c1.11,4.79,2.22,9.57,3.33,14.36c-0.97,2.31-1.92,4.63-2.92,6.93c-1.65,3.79-3.33,7.57-5,11.35
		c-0.04,1.12-0.08,2.24-0.12,3.36c-0.01,5.35-0.02,10.71-0.04,16.06c-0.03,0.79-0.07,1.58-0.1,2.37c-0.29,2.55-0.59,5.1-0.88,7.65
		c-0.05,2.25-0.11,4.51-0.16,6.76c0.01,1.56,0.02,3.12,0.03,4.68c-0.02,2.24-0.03,4.47-0.05,6.71c-0.09,3.32-0.59,6.7-0.17,9.95
		c0.54,4.2,2.9,4.93,6.86,2.64c0.77-1.55,1.54-3.11,2.32-4.66c0.69-3.42,1.39-6.85,2.08-10.27c1.05-4.14,2.11-8.28,3.16-12.42
		c1.82-6.1,3.63-12.21,5.45-18.31c-0.04-1.08-0.08-2.15-0.13-3.23l0.01-0.13c1.01-0.67,2.02-1.35,3.03-2.02
		c1.54-1.09,3.08-2.19,4.62-3.28c2.99-2.89,5.98-5.77,8.97-8.66C104.67,166.14,106.86,166.14,109.05,166.15z"/>
	<path class="st1" d="M93.81,39.6c1,5.26,2,10.53,3.01,15.79c-5.13,2.61,0.15,5.3-0.06,7.95c-1.13,1.89-2.27,3.79-3.4,5.68
		c-0.38,0.01-0.77,0.01-1.15,0.02c-0.75-0.01-1.5-0.02-2.25-0.02c-0.38-0.75-0.76-1.51-1.14-2.26c-0.91-1.37-2.3-4.04-2.64-3.91
		c-2.64,0.99-5.08,2.52-7.58,3.89c-0.76,0.02-1.52,0.04-2.28,0.06c-1.12,0.01-2.23,0.02-3.35,0.04c-1.52,0.35-3.05,0.7-4.57,1.05
		c-2.93-1.9-5.51-1.98-7.42,1.43c-0.98-0.33-1.96-0.67-2.94-1c-1.37-5.7-2.04-6.05-5.52-2.92c-3.41-1.14-6.82-2.27-10.23-3.41
		c1.33-0.65,3.1-2.19,3.91-1.79c4.27,2.13,8.25,1.11,12.45-0.01c1.4-0.37,3.14,0.75,4.75,0.97c3.75,0.51,7.85,2,11.2,1.03
		c4.15-1.21,7.79-4.38,11.46-6.97c1.36-0.95,2.19-2.65,3.26-4.01c-1.9-0.45-4-1.66-5.67-1.23c-6.48,1.67-12.81,2.01-19.25-0.08
		c-1.37-0.45-3.01,0.04-4.49-0.17c-5.25-0.76-10.49-1.64-15.73-2.47c7.85-6.47,16.73-4.26,25.09-2.16
		c9.85,2.47,14.09-0.34,13.88-10.72c-0.03-1.68,0.08-3.36,0.12-5.04c3.83-0.57,5.65,1.43,6.65,4.88c0.33,1.15,1.5,2.05,2.28,3.06
		C92.74,38.05,93.27,38.82,93.81,39.6z"/>
	<path class="st2" d="M44.18,47.25c5.24,0.83,10.48,1.71,15.73,2.47c1.48,0.21,3.12-0.28,4.49,0.17c6.44,2.1,12.76,1.75,19.25,0.08
		c1.67-0.43,3.77,0.77,5.67,1.23c-1.07,1.36-1.9,3.06-3.26,4.01c-3.67,2.59-7.31,5.76-11.46,6.97c-3.35,0.98-7.45-0.52-11.2-1.03
		c-1.61-0.22-3.36-1.34-4.75-0.97c-4.21,1.12-8.18,2.14-12.45,0.01c-0.8-0.4-2.58,1.14-3.91,1.79c-2.25-0.41-4.5-0.82-6.76-1.23
		c-1.57-2.22-3.15-4.45-4.72-6.67l-0.04,0.05c4.53-0.56,9.88,0.46,11.36-5.93C42.81,47.88,43.5,47.56,44.18,47.25z"/>
	<path class="st3" d="M170.58,77.15c-0.8,0.68-1.59,1.37-2.39,2.05c-4.84,0.18-9.8-0.25-14.47,0.72c-4.65,0.97-6.04,4.61-3.26,8.41
		c1.4,1.9,4.85,2.3,7.37,3.38c-0.97,1.97-1.95,3.93-2.92,5.9c-4.25-0.51-8.69-0.41-12.7-1.68c-4.46-1.41-5.89,0.6-6.76,4.08
		c-1.24,4.98-2.3,10.01-3.44,15.02c-0.39,0.17-0.77,0.33-1.16,0.5c-0.36-0.41-0.72-0.82-1.08-1.23c-0.07-1.07-0.14-2.14-0.22-3.21
		c0.01-0.79,0.03-1.58,0.04-2.37c0.71-1.96,1.43-3.93,2.14-5.89c0.43-2.57,0.87-5.14,1.3-7.7c0.6-0.45,1.2-0.91,1.81-1.36
		c-0.57-0.31-1.14-0.62-1.72-0.93c-0.02-0.36-0.01-0.73,0.04-1.09c0.02-0.77,0.04-1.54,0.05-2.31c-0.06-0.35-0.04-0.71,0.05-1.05
		c3.57,0.19,3.42-2.37,3.13-4.61c-0.67-5.16,2.12-8.18,6.17-10.35c3.22-1.72,6.72-2.93,9.91-4.7c1.57-0.87,3.45-2.27,3.93-3.81
		c2.99-9.71,10.16-15.27,18.61-19.71c0.74-0.02,1.49-0.04,2.23-0.06c0.77-0.36,1.54-0.71,2.31-1.07c1.12-0.03,2.24-0.06,3.36-0.09
		c0.77,0.39,1.54,0.79,2.31,1.18c-3.02,0.78-6.03,1.57-9.05,2.35c-1.14,1.13-2.28,2.25-3.42,3.38c-0.76,0.76-1.51,1.51-2.27,2.27
		c-1.89,1.14-3.78,2.27-5.67,3.41c-0.38,0.75-0.77,1.5-1.15,2.26c-0.75,0.76-1.5,1.52-2.26,2.28c0,0.75,0,1.51,0,2.26
		c1.2,7.73,1.2,7.73-6.97,7.94c-3.5,0.09-13.39,6.6-14.13,9.89c-0.38,1.66,0.77,3.67,1.24,5.53c1.67-0.68,4.53-1.03,4.81-2.08
		c2.01-7.52,8.03-8.77,14.06-8.54C163.71,76.23,167.8,72.02,170.58,77.15z"/>
	<path class="st4" d="M154.77,118.84c-0.46,7.73-0.72,15.49-1.46,23.19c-0.43,4.43-1.64,8.79-2.5,13.18
		c-3.98-0.52-7.95-1.28-11.94-1.42c-1.15-0.04-2.37,1.68-3.55,2.59c-1.11,0.02-2.23,0.05-3.34,0.07c-0.94-1.94-1.96-3.86-2.81-5.84
		c-1.29-3.04-4.23-6.23,0.47-8.98c0,0.56,0.06,1.13-0.01,1.69c-0.6,5.05,3.52,6.37,6.82,7.47c0.92,0.3,4.62-3.4,4.5-5.1
		c-0.48-7.09,1.06-14.08,0.77-21.03c-0.31-7.4,1.33-9.76,8.34-7.98C151.63,117.39,153.2,118.12,154.77,118.84z"/>
	<path class="st5" d="M170.48,53.16c0.76-0.76,1.51-1.51,2.27-2.27c1.14-1.13,2.28-2.25,3.42-3.38c3.02-0.78,6.03-1.57,9.05-2.35
		c0.74,0,1.48,0,2.21,0c1.53,0.02,3.06,0.05,4.6,0.07c1.99,1.55,3.72,2.05,4.55-1.11c1.88-0.01,3.77-0.02,5.65-0.02
		c4.78,2.7,6.08,6.39,2.26,9.1c-4.11,2.92-2.67,5.21-1.02,8.16c-3.07,0.92-6.14,1.84-9.21,2.77c0.44-2.98-0.89-4.74-3.81-5.18
		c-4.67-0.71-9.51-3.37-13.81,1.09c-6.66,6.91-6.67,6.9-15.25,3.33c0-0.75,0-1.51,0-2.26c0.75-0.76,1.5-1.52,2.26-2.28
		c0.38-0.75,0.77-1.5,1.15-2.26C166.7,55.43,168.59,54.29,170.48,53.16z"/>
	<path class="st6" d="M71.1,128.25c-0.02-1.22-0.04-2.44-0.06-3.67c8.23,0.38,16.47,0.67,24.69,1.16c3.96,0.23,6.3,2.01,6.95,6.48
		c0.76,5.25,6.07,8.2,11.07,6.97c6.23-1.53,5.96-6.36,5.69-11.2c0.75-0.01,1.5-0.02,2.24-0.03c0.38,0.77,0.76,1.54,1.14,2.31
		c0.02,1.14,0.04,2.28,0.05,3.42c-0.39,1.51-0.78,3.01-1.17,4.52c-0.76,1.51-1.51,3.02-2.27,4.53l-0.01,0
		c-0.75,0-1.5,0.01-2.25,0.01c-4.44,3.01-8.69,3.85-12.55-0.96c-0.17-0.21-0.7-0.12-1.06-0.17c-0.56-4.55-4.11-3.11-6.8-3.41
		c-3.68-4.48-6.72-4.47-9.09,0c-2.65,0.76-5.3,1.52-7.95,2.28c-1.51-1.52-3.02-3.03-4.52-4.55C74.92,132.8,76.32,128.76,71.1,128.25
		z"/>
	<path class="st7" d="M161.41,63.35c8.58,3.57,8.59,3.59,15.25-3.33c4.29-4.46,9.13-1.81,13.81-1.09c2.92,0.44,4.24,2.2,3.81,5.18
		c-7.9,4.34-15.8,8.69-23.7,13.03c-2.78-5.13-6.87-0.92-10.16-1.04c-6.03-0.23-12.05,1.02-14.06,8.54c-0.28,1.05-3.14,1.4-4.81,2.08
		c-0.46-1.85-1.61-3.86-1.24-5.53c0.74-3.29,10.63-9.8,14.13-9.89C162.6,71.09,162.6,71.09,161.41,63.35z"/>
	<path class="st8" d="M150.06,116.67c-7.01-1.78-8.65,0.58-8.34,7.98c0.29,6.94-1.24,13.93-0.77,21.03c0.11,1.7-3.58,5.4-4.5,5.1
		c-3.3-1.09-7.41-2.42-6.82-7.47c0.07-0.55,0.01-1.12,0.01-1.69c0.38-0.75,0.76-1.51,1.14-2.26c5-2.06,5.44-3.18,2.27-5.67
		c-0.37-2.27-0.73-4.54-1.1-6.81c0.38-1.75,0.76-3.49,1.15-5.24c2.99-2.47,4.22-4.74-0.71-6.31l-0.38-0.3
		c1.14-5.01,2.2-10.04,3.44-15.02c0.87-3.48,2.3-5.5,6.76-4.08c4.01,1.27,8.45,1.17,12.7,1.68c-0.39,0.72-0.79,1.44-1.18,2.16
		c-6.25,0.47-14.21-3.27-16.64,6.67c-0.49,2.01-1.78,4.76-0.95,5.92c0.9,1.27,3.85,1.5,5.88,1.44
		C145.18,113.69,148.86,111.44,150.06,116.67z"/>
	<path class="st9" d="M182.91,43.98c-1.12,0.03-2.24,0.06-3.36,0.09c-0.77,0.36-1.54,0.71-2.31,1.07c-0.74,0.02-1.49,0.04-2.23,0.06
		c-6.84-0.61-11.81,2.81-16.02,7.65c-3.46,3.98-6.62,8.24-10.18,12.13c-0.97,1.06-2.92,1.23-4.42,1.81
		c0.21-4.69,2.49-8.02,6.46-10.47c2.05-1.26,3.95-2.86,5.6-4.61c0.65-0.69,0.94-2.52,0.48-3.26c-0.54-0.86-2.07-1.48-3.18-1.51
		c-1.23-0.03-2.53,0.63-3.71,1.18c-2.52,1.19-5.3,3.86-7.36,3.37c-1.9-0.45-3-4.25-4.45-6.58c1.64-0.75,3.29-1.51,4.93-2.26
		c1.34,4.09,3.89,4.11,7.56,2.89c6.93-2.29,14.13-3.76,21.02-6.16c3.16-1.1,7.69-0.34,9.01-4.98c7.16,0.63,14.32,1.27,21.48,1.9
		c-1.83,5.43-7,2.86-10.48,4.35C188.85,41.88,185.85,42.87,182.91,43.98z"/>
	<path class="st10" d="M119.43,128c0.28,4.83,0.55,9.67-5.69,11.2c-4.99,1.22-10.31-1.73-11.07-6.97c-0.65-4.47-2.99-6.24-6.95-6.48
		c-8.22-0.49-16.46-0.79-24.69-1.16c0.2-2.27,0.39-4.54,0.59-6.8c2.7-1.12,5.41-2.23,8.11-3.35c0.75,0,1.5,0,2.25,0.01
		c0.01,0.4,0.02,0.79,0.03,1.19c-3.01,5.46-2.97,5.45,3.2,5.62c2.59,0.07,5.22,0.32,7.76,0.86
		C101.81,123.98,110.61,126.02,119.43,128z"/>
	<path class="st11" d="M102.48,166.13c-2.99,2.89-5.98,5.77-8.97,8.66c-1.65-1.83-3.01-4.14-5.02-5.39
		c-6.76-4.23-13.86-2.46-20.88-0.48c1.67-3.78,3.35-7.56,5-11.35c1-2.3,1.95-4.62,2.92-6.93c1.73,1.3,3.37,2.75,5.22,3.85
		c2.59,1.54,5.34,2.81,8.03,4.2c0.78,0.31,1.56,0.63,2.34,0.94c0.36,0.07,0.72,0.13,1.08,0.18c2.33,1.44,4.66,2.87,6.99,4.31
		c1.1,0.04,2.21,0.09,3.31,0.13C102.49,164.87,102.48,165.5,102.48,166.13z"/>
	<path class="st12" d="M70.64,95.13c-1.83-4.93-3.69-9.85-5.47-14.8c-0.94-2.6-1.73-5.25-2.58-7.88c1.77,0.73,3.97,1.02,5.22,2.27
		c2.7,2.7,4.85,2.81,7.79,0.35c1.61-1.35,4.01-2.46,6.04-2.43c1.9,0.03,3.78,1.71,5.67,2.66c-0.92,1.65-1.52,3.63-2.83,4.87
		c-2.58,2.44-5.61,4.39-8.33,6.68c-2.55,2.16-2.89,4.36,0.4,6.24c-0.85,0.67-1.7,1.33-2.55,2C72.88,95.1,71.76,95.11,70.64,95.13z"
		/>
	<path class="st13" d="M116.03,60c1.51-0.84,3.02-1.69,4.53-2.53c0.63,0.79,1.32,2.31,1.89,2.27c6.7-0.53,12.23,1.45,16.25,7.02
		c0.01,0.74,0.02,1.47,0.03,2.21c-0.75,0.34-1.49,0.69-2.24,1.03c-0.39,0.05-0.79,0.1-1.18,0.15c-1.89,0.76-3.78,1.52-5.66,2.28
		c-0.76,0-1.51,0-2.27,0c-2.23,0.01-4.5-0.25-6.69,0.08c-3.42,0.52-6.98,1.73-6.72,5.96c0.26,4.22,4.05,2.7,6.6,3.03
		c-2.89,0.76-5.81,1.44-8.67,2.29c-2.06,0.62-4.06,1.48-6.08,2.23c-0.38,0-0.76,0-1.13,0.01c-1.13-0.76-2.27-1.51-3.4-2.27
		c0,0-0.01,0-0.01,0c2.25-1.81,5.07-3.28,6.47-5.6c0.57-0.95-1.95-3.76-3.06-5.72c6.96-1.01,13.94-1.89,20.85-3.13
		c1.44-0.26,2.64-1.83,3.95-2.8c-1.49-0.68-2.94-1.78-4.49-1.94C121.34,64.2,117.26,65.03,116.03,60z"/>
	<path class="st7" d="M203.48,61.35c-1.65-2.95-3.1-5.24,1.02-8.16c3.82-2.71,2.52-6.4-2.26-9.1c2.27-0.38,4.53-0.76,6.8-1.15
		c1.67,4.17,5.29,1.53,7.94,2.27c3.46,0.72,6.93,1.45,10.39,2.17c0.45,0.33,1.03,0.57,1.34,1c1.6,2.2,3.14,4.45,4.7,6.68
		c-2.73,1.16-5.35,2.88-8.2,3.37C218.02,59.7,210.73,60.42,203.48,61.35z M216.48,47.44c-2.21,1.38-4.18,2.6-6.15,3.83
		c1.7,1.38,3.38,2.79,5.11,4.13c0.24,0.18,0.76,0.12,1.1,0.02c3.74-1.18,7.48-2.39,11.21-3.59
		C224.23,50.45,220.7,49.08,216.48,47.44z"/>
	<path class="st14" d="M160.17,188.13c0.02,3.4,0.04,6.8,0.06,10.2c-0.59,0.46-1.17,0.93-1.76,1.39c0.58,0.29,1.16,0.59,1.75,0.88
		c0.02,1.89,0.05,3.78,0.07,5.67c-3.99,1.21-7.97,2.41-11.96,3.62c-0.24-1.56-0.48-3.13-0.72-4.69c-0.05-4.04,0.53-8.23-0.32-12.09
		c-1.09-4.94,0.21-7.05,5.22-6.26C155.07,187.27,157.62,187.71,160.17,188.13z"/>
	<path class="st15" d="M150.06,116.67c-1.2-5.23-4.88-2.98-8.06-2.88c-2.03,0.06-4.99-0.17-5.88-1.44
		c-0.83-1.17,0.46-3.91,0.95-5.92c2.44-9.94,10.39-6.2,16.64-6.67c0.35,6.36,0.7,12.72,1.06,19.09
		C153.2,118.12,151.63,117.39,150.06,116.67z"/>
	<path class="st16" d="M66.28,216.52c0.02-2.24,0.03-4.47,0.05-6.71c2.87-1.58,3.05-3.14-0.03-4.68c0.05-2.25,0.11-4.51,0.16-6.76
		c5.52-2.31,9.88,0.15,14.06,3.4c-1.05,4.14-2.11,8.28-3.16,12.42c-5.41,1.46-2.44,5.98-3.32,9.1c-1.51,0.01-3.03,0.01-4.54,0.02
		C68.43,221.04,67.36,218.78,66.28,216.52z"/>
	<path class="st17" d="M76.54,93.08c-3.29-1.88-2.95-4.08-0.4-6.24c2.72-2.3,5.75-4.24,8.33-6.68c1.31-1.24,1.91-3.22,2.83-4.87
		c-1.89-0.95-3.76-2.63-5.67-2.66c-2.02-0.03-4.42,1.08-6.04,2.43c-2.94,2.46-5.09,2.35-7.79-0.35c-1.25-1.25-3.45-1.54-5.22-2.27
		c-0.49-1.02-0.98-2.04-1.47-3.07c2.43-0.12,4.85-0.24,7.28-0.35c2.93,2.19,4.4,1.36,4.57-2.2c1.12-0.01,2.23-0.02,3.35-0.04
		c2.28,0.73,4.57,1.47,6.85,2.2c0.75,0,1.5,0,2.24,0c2.23,1.31,4.43,2.66,6.69,3.92c4.28,2.39,4.66,4.53,0.61,7.31
		c-2.53,1.74-5.9,2.22-8.59,3.8c-3.4,2-8.56,3.01-6.72,9.03C77.11,93.05,76.83,93.05,76.54,93.08z"/>
	<path class="st15" d="M131.97,156.44c1.11-0.02,2.23-0.05,3.34-0.07c0.56,0,1.18-0.17,1.66,0.03c2.63,1.08,5.22,2.24,7.82,3.38
		c-1.07,1.93-2.18,3.85-3.2,5.81c-0.33,0.64-0.43,1.39-0.64,2.09c-0.74,0.01-1.49,0.02-2.23,0.04c-0.77,0.74-1.54,1.48-2.31,2.23
		c-0.37,0-0.74,0-1.11,0.02c-1.52,1.12-3.05,2.25-4.57,3.37c-0.69,0.03-1.38,0.07-2.07,0.1c-1.58-1.81-3.17-3.61-4.75-5.42
		c0.05-0.82,0.1-1.64,0.15-2.46c1.52-0.78,3.03-1.57,4.55-2.35c0.74,0,1.48,0,2.21-0.01c3.16-0.85,2.7-2.57,1.1-4.56
		c0-0.38,0-0.76,0-1.13C131.94,157.15,131.96,156.8,131.97,156.44z"/>
	<path class="st18" d="M80.53,201.76c-4.17-3.25-8.54-5.71-14.06-3.4c0.29-2.55,0.59-5.1,0.88-7.65c2.15-0.43,4.44-0.53,6.43-1.37
		c4.15-1.76,8.15-3.91,12.2-5.89C84.16,189.55,82.35,195.66,80.53,201.76z"/>
	<path class="st19" d="M138.23,44.9c1.45,2.33,2.55,6.13,4.45,6.58c2.06,0.49,4.84-2.18,7.36-3.37c1.18-0.56,2.48-1.21,3.71-1.18
		c1.12,0.03,2.65,0.65,3.18,1.51c0.46,0.74,0.17,2.57-0.48,3.26c-1.65,1.75-3.55,3.35-5.6,4.61c-3.97,2.45-6.25,5.78-6.46,10.47
		c-0.74,0.01-1.49,0.02-2.23,0.03c-0.02-1.15-0.04-2.29-0.06-3.44c0.19-1.51,0.99-3.29,0.46-4.48c-1.95-4.38-4.34-8.57-6.57-12.83
		C136.73,45.67,137.48,45.28,138.23,44.9z"/>
	<path class="st20" d="M157.82,91.7c-2.52-1.08-5.97-1.47-7.37-3.38c-2.78-3.79-1.39-7.44,3.26-8.41c4.67-0.97,9.64-0.54,14.47-0.72
		C164.73,83.36,161.28,87.53,157.82,91.7z"/>
	<path class="st21" d="M160.22,224.41c-0.6,3.37-0.69,6.94-1.95,10.04c-1.06,2.61-3.47,2.82-4.93-0.21
		c-1.12-2.33-2.47-4.69-2.92-7.19c-0.76-4.23-0.9-8.58-1.3-12.88c1.68,1.39,4.66,2.68,4.78,4.2
		C154.24,222.73,156.35,224.24,160.22,224.41z"/>
	<path class="st17" d="M160.17,188.13c-2.55-0.43-5.11-0.87-7.66-1.27c-5.01-0.79-6.31,1.31-5.22,6.26
		c0.85,3.87,0.27,8.05,0.32,12.09c-1.86-6.83-3.73-13.67-5.59-20.5c0.78,0,1.55-0.01,2.33-0.01c1.15-0.75,2.3-1.49,3.44-2.24
		c1.14-1.13,2.27-2.26,3.41-3.4c2.97,1.51,5.94,3.03,8.91,4.54C160.13,185.11,160.15,186.62,160.17,188.13z"/>
	<path class="st21" d="M180.74,34.39c-1.31,4.64-5.84,3.88-9.01,4.98c-6.88,2.4-14.09,3.87-21.02,6.16
		c-3.67,1.21-6.22,1.2-7.56-2.89c4.2-1.4,8.39-2.79,12.59-4.19c4.46-0.32,8.96-0.35,13.35-1.08c2.11-0.35,3.99-2.04,5.98-3.12
		C176.96,34.29,178.85,34.34,180.74,34.39z"/>
	<path class="st22" d="M116.03,60c1.23,5.03,5.31,4.2,8.97,4.58c1.55,0.16,3,1.27,4.49,1.94c-1.31,0.97-2.51,2.54-3.95,2.8
		c-6.92,1.24-13.9,2.12-20.85,3.13c-0.38-0.38-0.76-0.76-1.13-1.15c2.28-0.38,4.61-0.58,6.83-1.19c1.81-0.5,3.48-1.5,5.2-2.28
		c-1.25-1.24-2.48-2.51-3.77-3.71c-0.39-0.36-0.97-0.52-1.47-0.77c0.38-0.76,0.76-1.51,1.14-2.27
		C113.01,60.72,114.52,60.36,116.03,60z"/>
	<path class="st17" d="M160.22,224.41c-3.87-0.17-5.98-1.68-6.32-6.04c-0.12-1.51-3.1-2.81-4.78-4.2c-0.26-1.43-0.53-2.85-0.79-4.28
		c3.99-1.21,7.97-2.41,11.96-3.62C160.27,212.32,160.25,218.37,160.22,224.41z"/>
	<path class="st23" d="M88.88,178.07c-1.01,0.67-2.02,1.35-3.03,2.02c-3.34-5.13-8.76-5.43-13.4-3.86c-1.8,0.61-2.06,5.92-2.9,9.12
		c-0.23,0.87-0.02,1.86-0.02,2.8c-0.7,0.07-1.4,0.13-2.1,0.2c0.01-5.35,0.02-10.71,0.04-16.06c1.82-0.33,3.64-0.64,5.46-0.99
		C80.37,169.89,86.39,172.45,88.88,178.07z"/>
	<path class="st3" d="M88.88,178.07c-2.5-5.62-8.52-8.18-15.94-6.78c-1.82,0.34-3.64,0.66-5.46,0.99c0.04-1.12,0.08-2.24,0.12-3.36
		c7.02-1.98,14.12-3.74,20.88,0.48c2.01,1.26,3.36,3.57,5.02,5.39C91.96,175.88,90.42,176.97,88.88,178.07z"/>
	<path class="st3" d="M88.76,158.68c-2.68-1.39-5.43-2.66-8.03-4.2c-1.85-1.1-3.49-2.56-5.22-3.85c-1.11-4.79-2.22-9.57-3.33-14.36
		c1-0.11,2.01-0.22,3.01-0.33c1.51,1.52,3.02,3.03,4.52,4.55c-0.01,0.37-0.02,0.75-0.02,1.12c0.81,3.73-0.57,8.43,4.54,10.25
		c0.38,0.38,0.75,0.77,1.13,1.15c0.39,0.73,0.79,1.47,1.18,2.2c0.76,0.75,1.53,1.51,2.29,2.26
		C88.82,157.88,88.79,158.28,88.76,158.68z"/>
	<path class="st14" d="M142.1,63.36c0.02,1.15,0.04,2.29,0.06,3.44c-1.16,1.07-2.31,2.14-3.47,3.21c0.01-0.35,0.02-0.7,0.03-1.05
		c-0.01-0.74-0.02-1.47-0.03-2.21c0.44-3.36-1.27-5.17-3.88-7.22c-4.56-3.59-9.55-1.16-14.23-2.08c2.9-2.51,5.81-5.01,8.71-7.52
		C133.56,54.41,137.83,58.89,142.1,63.36z"/>
	<path class="st13" d="M92.2,37.27c-0.78-1.01-1.95-1.92-2.28-3.06c-1-3.45-2.81-5.45-6.65-4.88c-0.03-2.65-0.07-5.29-0.1-7.94
		c0.75-1.41,1.51-2.81,2.26-4.22c2.26,0,4.53,0,6.79,0c0.3,0.27,0.59,0.54,0.89,0.81c0.03,0.75,0.06,1.5,0.08,2.26
		c-3.43-0.18-3.48,1.99-3.08,4.44C90.81,28.89,91.51,33.08,92.2,37.27z"/>
	<path class="st7" d="M153.5,162.01c0.78,0.74,1.57,1.49,2.35,2.23c-0.79,0.79-1.57,1.57-2.36,2.36c-1.15,1.5-2.29,3-3.44,4.5
		c-4.56,2.7-9.11,5.39-13.67,8.09c-1.77-1.06-3.55-2.12-5.32-3.18C138.9,171.91,147.56,169.15,153.5,162.01z"/>
	<path class="st8" d="M140.96,167.68c0.21-0.7,0.31-1.46,0.64-2.09c1.02-1.96,2.12-3.88,3.2-5.81c-2.6-1.14-5.19-2.3-7.82-3.38
		c-0.48-0.2-1.1-0.03-1.66-0.03c1.19-0.91,2.4-2.63,3.55-2.59c3.99,0.14,7.96,0.9,11.94,1.42c0.2,1.67,0.39,3.33,0.59,5
		C147.92,162.7,144.44,165.19,140.96,167.68z"/>
	<path class="st12" d="M67.45,188.34c0.7-0.07,1.4-0.13,2.1-0.2c1.11-0.58,2.54-0.88,3.28-1.77c4.63-5.6,6.37-6.5,13.03-6.15
		c0.04,1.08,0.08,2.15,0.13,3.23c-4.06,1.99-8.05,4.14-12.2,5.89c-1.98,0.84-4.27,0.94-6.43,1.37
		C67.38,189.92,67.42,189.13,67.45,188.34z"/>
	<path class="st24" d="M85.85,180.22c-6.66-0.34-8.4,0.55-13.03,6.15c-0.73,0.89-2.17,1.19-3.28,1.77c-0.01-0.94-0.21-1.92,0.02-2.8
		c0.84-3.2,1.1-8.51,2.9-9.12c4.64-1.57,10.06-1.27,13.4,3.86L85.85,180.22z"/>
	<path class="st17" d="M142.1,63.36c-4.27-4.47-8.54-8.95-12.81-13.42c2.23-1.29,4.46-2.59,6.7-3.88c2.23,4.26,4.62,8.45,6.57,12.83
		C143.09,60.07,142.29,61.85,142.1,63.36z"/>
	<path class="st20" d="M120.43,167.19c-1.46-0.22-2.93-0.44-4.39-0.67c0-0.74,0-1.49,0-2.23c0.75-0.38,1.5-0.76,2.25-1.13
		c2.81-1.48,3.75-3.45,2.96-6.82c-1.04-4.43-1.26-9.05-1.83-13.59l0.01,0c0.76-0.75,1.52-1.5,2.28-2.25
		c0.21,4.19-0.59,8.78,0.88,12.47c1.86,4.69,2.22,8.47-0.9,12.43C121.26,165.99,120.85,166.59,120.43,167.19z"/>
	<path class="st23" d="M150.05,171.1c1.15-1.5,2.29-3,3.44-4.5c1.5-0.01,3.01-0.02,4.51-0.03c0.38,0.76,0.75,1.51,1.13,2.27
		c-6.79,2.27-10.21,7.93-13.63,13.59c-0.38,0.75-0.77,1.51-1.15,2.26c-0.78,0-1.55,0.01-2.33,0.01c-1.02-1.01-2.05-2.02-3.07-3.03
		C142.65,178.15,146.35,174.63,150.05,171.1z"/>
	<path class="st21" d="M182.91,43.98c2.95-1.1,5.94-2.1,8.83-3.34c3.48-1.49,8.65,1.08,10.48-4.35c2.24,0.42,4.47,0.84,6.71,1.27
		c-1.53,1.04-2.93,2.43-4.61,3.04c-2.86,1.05-5.91,1.6-8.87,2.37c-1.13,0.01-2.26,0.02-3.39,0.03c-1.54,0.72-3.08,1.43-4.62,2.15
		c-0.74,0-1.48,0-2.21,0C184.45,44.76,183.68,44.37,182.91,43.98z"/>
	<path class="st25" d="M140.96,167.68c3.48-2.49,6.96-4.98,10.44-7.47c0.7,0.6,1.4,1.2,2.1,1.8c-5.94,7.14-14.6,9.9-22.44,14
		c-0.8-0.86-1.6-1.72-2.4-2.57c0.69-0.03,1.38-0.07,2.07-0.1c1.52-1.12,3.05-2.25,4.57-3.37c0.37-0.01,0.74-0.02,1.11-0.02
		c0.77-0.74,1.54-1.48,2.31-2.23C139.47,167.71,140.21,167.7,140.96,167.68z"/>
	<path class="st13" d="M96.76,63.35c0.21-2.65-5.07-5.34,0.06-7.95c3.02,1.86,6.03,3.71,9.05,5.57c-0.01,0.8-0.03,1.59-0.04,2.39
		c-2.64,0.37-5.29,0.74-7.93,1.11C97.51,64.09,97.14,63.72,96.76,63.35z"/>
	<path class="st3" d="M150.05,171.1c-3.7,3.52-7.4,7.05-11.1,10.57c-0.86-0.83-1.71-1.66-2.57-2.48
		C140.94,176.5,145.49,173.8,150.05,171.1z"/>
	<path class="st10" d="M160.11,183.6c-2.97-1.51-5.94-3.03-8.91-4.54c1.92-3.51,4.01-6.74,8.86-5.66
		C160.08,176.8,160.1,180.2,160.11,183.6z"/>
	<path class="st16" d="M120.58,57.45c4.68,0.92,9.67-1.5,14.23,2.08c2.61,2.05,4.32,3.86,3.88,7.22c-4.02-5.57-9.54-7.55-16.25-7.02
		c-0.57,0.04-1.25-1.48-1.89-2.27L120.58,57.45z"/>
	<path class="st21" d="M66.28,216.52c1.08,2.26,2.15,4.52,3.23,6.78c1.15,1.94,2.31,3.88,3.46,5.82c-3.95,2.29-6.32,1.56-6.86-2.64
		C65.69,223.22,66.19,219.84,66.28,216.52z"/>
	<path class="st15" d="M72.33,112.34c-0.21-4.94-0.43-9.88-0.64-14.82c1.17-0.04,2.34-0.08,3.51-0.13l0.43,0.11l0.45-0.04
		c0.15,1,0.3,2,0.44,3c-0.84,3.94-1.67,7.88-2.51,11.81C73.45,112.29,72.89,112.32,72.33,112.34z"/>
	<path class="st6" d="M160.07,173.4c-4.85-1.08-6.95,2.15-8.86,5.66c-1.14,1.13-2.27,2.26-3.41,3.4c-0.76-0.01-1.53-0.02-2.29-0.03
		c3.42-5.65,6.84-11.31,13.63-13.59C159.44,170.36,159.75,171.88,160.07,173.4z"/>
	<path class="st3" d="M175.07,34.25c-1.99,1.08-3.87,2.77-5.98,3.12c-4.39,0.73-8.89,0.76-13.35,1.08
		C162.19,37.05,168.63,35.65,175.07,34.25z"/>
	<path class="st18" d="M92.2,37.27c-0.69-4.2-1.4-8.39-2.08-12.59c-0.4-2.45-0.35-4.62,3.08-4.44c0.2,6.45,0.41,12.9,0.61,19.36
		C93.27,38.82,92.74,38.05,92.2,37.27z"/>
	<path class="st3" d="M195.44,42.97c2.97-0.76,6.01-1.32,8.87-2.37c1.68-0.61,3.08-2,4.61-3.04c1,0.36,1.99,0.71,2.99,1.07
		c-0.96,1.44-1.92,2.87-2.88,4.31c-2.27,0.38-4.53,0.76-6.8,1.15c-1.88,0.01-3.77,0.02-5.65,0.02
		C196.2,43.73,195.82,43.35,195.44,42.97z"/>
	<path class="st11" d="M227.37,47.38c-3.46-0.72-6.93-1.45-10.39-2.17c0.01-1.55,0.01-3.1,0.02-4.65
		C220.46,42.83,223.91,45.11,227.37,47.38z"/>
	<path class="st1" d="M30.81,54.08c1.57,2.22,3.15,4.45,4.72,6.67c-1.28-0.13-2.56-0.19-3.83-0.39c-2.11-0.34-4.2-0.76-6.3-1.14
		C27.21,57.5,29.01,55.79,30.81,54.08z"/>
	<path class="st5" d="M217,40.56c-0.01,1.55-0.01,3.1-0.02,4.65c-2.65-0.75-6.27,1.89-7.94-2.27c0.96-1.44,1.92-2.87,2.88-4.31
		C213.61,39.27,215.3,39.92,217,40.56z"/>
	<path class="st1" d="M42.12,48.19c-1.48,6.39-6.83,5.38-11.36,5.93C34.55,52.15,38.34,50.17,42.12,48.19z"/>
	<path class="st24" d="M79.74,114.43c-2.7,1.12-5.41,2.23-8.11,3.35c0.17-1.1,0.34-2.2,0.5-3.3c0.66-0.24,1.31-0.49,1.97-0.73
		c1.87-0.21,3.74-0.42,5.61-0.63C79.72,113.56,79.73,113.99,79.74,114.43z"/>
	<path class="st24" d="M74.05,223.28c0.87-3.12-2.1-7.64,3.32-9.1c-0.69,3.42-1.39,6.85-2.08,10.27
		C74.87,224.06,74.46,223.67,74.05,223.28z"/>
	<path class="st21" d="M75.2,135.95c-1,0.11-2.01,0.22-3.01,0.33c-0.36-2.67-0.72-5.35-1.09-8.02
		C76.32,128.76,74.92,132.8,75.2,135.95z"/>
	<path class="st18" d="M74.05,223.28c0.41,0.39,0.82,0.78,1.24,1.17c-0.77,1.55-1.54,3.11-2.32,4.66c-1.15-1.94-2.31-3.88-3.46-5.82
		C71.02,223.29,72.53,223.29,74.05,223.28z"/>
	<path class="st13" d="M52.51,65.39c3.48-3.13,4.15-2.78,5.52,2.92C56.19,67.34,54.35,66.37,52.51,65.39z"/>
	<path class="st3" d="M116.03,164.29c0,0.74,0,1.49,0,2.23c-2.33-0.12-4.66-0.24-6.98-0.37c0.06-0.6,0.12-1.2,0.18-1.8
		C111.5,164.33,113.77,164.31,116.03,164.29z"/>
	<path class="st13" d="M68.39,69.03c-2.43,0.12-4.85,0.24-7.28,0.35l-0.14-0.07c1.91-3.41,4.49-3.33,7.42-1.43
		C68.39,68.27,68.39,68.65,68.39,69.03z"/>
	<path class="st20" d="M109.23,164.36c-0.06,0.6-0.12,1.2-0.18,1.8c-2.19-0.01-4.39-0.02-6.58-0.02c0-0.63,0.01-1.26,0.01-1.89
		C104.74,164.28,106.98,164.32,109.23,164.36z"/>
	<path class="st1" d="M105.82,63.35c0.01-0.8,0.03-1.59,0.04-2.39c1.88,0.04,3.75,0.07,5.63,0.11c-0.38,0.76-0.76,1.51-1.14,2.27
		C108.84,63.35,107.33,63.35,105.82,63.35z"/>
	<path class="st18" d="M85.43,17.17c-0.75,1.41-1.51,2.81-2.26,4.22C83.3,19.65,81.37,16.81,85.43,17.17z"/>
	<path class="st18" d="M66.31,205.13c3.07,1.54,2.89,3.11,0.03,4.68C66.32,208.25,66.32,206.69,66.31,205.13z"/>
	<path class="st24" d="M75.2,97.39c-1.17,0.04-2.34,0.08-3.51,0.13c-0.35-0.79-0.7-1.59-1.05-2.39c1.12-0.01,2.24-0.03,3.36-0.04
		C74.4,95.85,74.8,96.62,75.2,97.39z"/>
	<path class="st3" d="M158,166.57c-1.5,0.01-3.01,0.02-4.51,0.03c0.79-0.79,1.57-1.57,2.36-2.36
		C156.56,165.02,157.28,165.8,158,166.57z"/>
	<path class="st11" d="M120.43,167.19c0.42-0.6,0.84-1.2,1.26-1.8c0.79,0.06,1.58,0.11,2.37,0.17c-0.05,0.82-0.1,1.64-0.15,2.46
		C122.74,167.74,121.59,167.46,120.43,167.19z"/>
	<path class="st3" d="M74.1,113.75c-0.66,0.24-1.31,0.49-1.97,0.73c0.07-0.71,0.13-1.43,0.2-2.14c0.56-0.02,1.12-0.04,1.69-0.07
		C74.04,112.76,74.07,113.26,74.1,113.75z"/>
	<path class="st17" d="M160.22,200.61c-0.58-0.29-1.16-0.59-1.75-0.88c0.59-0.46,1.17-0.93,1.76-1.39
		C160.23,199.09,160.23,199.85,160.22,200.61z"/>
	<path class="st18" d="M93.12,17.99c-0.3-0.27-0.59-0.54-0.89-0.81C92.52,17.44,92.82,17.72,93.12,17.99z"/>
	<path class="st26" d="M77.4,93.06c-1.84-6.02,3.32-7.03,6.72-9.03c2.69-1.58,6.06-2.05,8.59-3.8c4.04-2.78,3.67-4.92-0.61-7.31
		c-2.26-1.26-4.46-2.61-6.69-3.92c0.76-0.37,1.51-0.74,2.27-1.12c0.76,0.38,1.51,0.75,2.27,1.13c0.75,0.01,1.5,0.02,2.25,0.02
		c1.66,1.11,3.26,2.31,4.99,3.3c7.14,4.08,7.15,4.06,4.09,11.42l0.01,0c-0.76,0-1.51,0.01-2.27,0.01c-1.89,0.75-3.78,1.5-5.67,2.25
		c-0.75,0-1.51,0.01-2.26,0.01c-0.76,0-1.51,0-2.27,0c-1.14,0.75-2.28,1.5-3.42,2.25c-0.75,0-1.5,0.01-2.25,0.01
		c-3.14,0.33-3.79,1.89-2.25,4.54c-0.01,0.38-0.02,0.76-0.02,1.14C79.99,93.99,79.11,94,78.24,94
		C77.96,93.69,77.68,93.38,77.4,93.06z"/>
	<path class="st16" d="M101.28,83.77c3.06-7.37,3.04-7.34-4.09-11.42c-1.73-0.99-3.33-2.19-4.99-3.3c0.38-0.01,0.77-0.01,1.15-0.02
		c1.13,0.01,2.26,0.01,3.39,0.02c2.27,0.75,4.55,1.5,6.82,2.26c0.38,0.38,0.76,0.76,1.13,1.15c1.11,1.96,3.63,4.77,3.06,5.72
		C106.35,80.49,103.53,81.96,101.28,83.77z"/>
	<path class="st13" d="M87.68,67.89c-0.76,0.37-1.51,0.74-2.27,1.12c-0.75,0-1.5,0-2.24,0c-1.52-0.75-3.05-1.51-4.57-2.26
		c2.5-1.36,4.94-2.9,7.58-3.89c0.34-0.13,1.73,2.54,2.64,3.91C88.44,67.14,88.06,67.51,87.68,67.89z"/>
	<path class="st22" d="M96.74,69.04c-1.13-0.01-2.26-0.01-3.39-0.02c1.13-1.89,2.27-3.79,3.4-5.68c0.38,0.37,0.76,0.74,1.14,1.11
		C97.51,65.98,97.12,67.51,96.74,69.04z"/>
	<path class="st26" d="M78.59,66.74c1.52,0.75,3.05,1.51,4.57,2.26c-2.28-0.73-4.57-1.47-6.85-2.2
		C77.08,66.78,77.83,66.76,78.59,66.74z"/>
	<path class="st26" d="M68.39,69.03c0-0.38,0-0.77,0-1.15c1.52-0.35,3.05-0.7,4.57-1.05C72.8,70.39,71.32,71.22,68.39,69.03z"/>
	<path class="st16" d="M87.68,67.89c0.38-0.38,0.76-0.75,1.14-1.13c0.38,0.75,0.76,1.51,1.14,2.26
		C89.19,68.64,88.44,68.27,87.68,67.89z"/>
	<path class="st21" d="M138.69,70.01c1.16-1.07,2.31-2.14,3.47-3.21c0.74-0.01,1.49-0.02,2.23-0.03c1.5-0.58,3.44-0.75,4.42-1.81
		c3.56-3.89,6.72-8.14,10.18-12.13c4.21-4.83,9.17-8.25,16.02-7.65c-8.45,4.44-15.62,10-18.61,19.71c-0.48,1.55-2.36,2.95-3.93,3.81
		c-3.19,1.77-6.69,2.98-9.91,4.7c-4.05,2.16-6.84,5.19-6.17,10.35c0.29,2.23,0.44,4.8-3.13,4.61c-0.48-0.36-0.97-0.71-1.45-1.07
		c0.04-1.19,0.09-2.38,0.13-3.57c1.11-3.4,2.22-6.8,3.34-10.2c0.77-1.11,1.55-2.22,2.32-3.32
		C137.97,70.17,138.33,70.11,138.69,70.01z"/>
	<path class="st24" d="M131.73,102.82c-0.71,1.96-1.43,3.93-2.14,5.89c-0.74,0.77-1.47,1.54-2.21,2.31c0,0.72-0.01,1.43-0.01,2.15
		c-2.26,0-4.53,0-6.79-0.01c-1.68-0.1-3.38-0.44-5.03-0.24c-2.5,0.31-4.96,0.99-7.44,1.51c-1.54-0.04-3.09-0.07-4.63-0.11
		c0.53-0.68,0.94-1.54,1.62-2.02c2.02-1.44,4.14-2.73,6.23-4.07c-1.99-2.34-3.73-5-6.08-6.89c-1.46-1.17-3.91-1.03-5.81-1.76
		c-1.03-0.4-1.84-1.39-2.75-2.11c0.49-0.14,0.97-0.28,1.46-0.42c1.42,0.05,2.84,0.09,4.26,0.14c1.51,0.07,3.03,0.15,4.54,0.22
		c0.74,0.01,1.47,0.03,2.21,0.04c4.71,2.84,9.43,5.68,14.17,8.48c0.06,0.03,0.46-0.51,0.7-0.78c2.18-0.89,4.36-1.79,6.55-2.68
		C130.96,102.59,131.34,102.7,131.73,102.82z"/>
	<path class="st16" d="M120.58,113.16c2.26,0,4.53,0,6.79,0.01c0.8,0.37,1.6,0.75,2.4,1.12c0.36,0.41,0.72,0.82,1.08,1.23
		c-0.47,0.01-0.93,0.03-1.4,0.04c-1.88-0.01-3.82-0.34-5.61,0.05c-2.21,0.48-4.28,1.56-6.42,2.37c1.43,1.45,2.85,2.89,4.28,4.34
		c-1.72,0.38-3.56,1.34-5.13,1c-1.74-0.38-4.22-1.7-4.54-3.05c-0.32-1.36,1.26-3.7,2.66-4.79
		C116.28,114.23,118.58,113.89,120.58,113.16z"/>
	<path class="st1" d="M131.73,102.82c-0.39-0.11-0.77-0.23-1.16-0.34c-0.68-4.72-1.37-9.44-2.05-14.16c1.1-0.34,2.2-0.67,3.3-1.01
		c0.48,0.36,0.97,0.71,1.45,1.07c-0.09,0.35-0.11,0.7-0.05,1.05c-0.02,0.77-0.04,1.54-0.05,2.31c-0.05,0.36-0.07,0.72-0.04,1.09
		c-0.03,0.76-0.06,1.53-0.09,2.29C132.6,97.68,132.16,100.25,131.73,102.82z"/>
	<path class="st17" d="M129.45,115.56c0.47-0.01,0.93-0.03,1.4-0.04c0.39-0.17,0.77-0.33,1.16-0.5l0.38,0.3
		c-0.03,2.02-0.07,4.04-0.1,6.06c-0.48,0.75-0.95,1.49-1.43,2.24c-1.13-0.01-2.26-0.03-3.39-0.04l-0.33-0.29
		C127.91,120.7,128.68,118.13,129.45,115.56z"/>
	<path class="st7" d="M170.48,53.16c-1.89,1.14-3.78,2.27-5.67,3.41C166.7,55.43,168.59,54.29,170.48,53.16z"/>
	<path class="st7" d="M176.17,47.51c-1.14,1.13-2.28,2.25-3.42,3.38C173.89,49.76,175.03,48.64,176.17,47.51z"/>
	<path class="st10" d="M129.77,114.29c-0.8-0.37-1.6-0.75-2.4-1.12c0-0.72,0.01-1.43,0.01-2.15c0.72,0.02,1.45,0.04,2.17,0.07
		C129.62,112.15,129.7,113.22,129.77,114.29z"/>
	<path class="st21" d="M133.03,95.11c0.03-0.76,0.06-1.53,0.09-2.29c0.57,0.31,1.14,0.62,1.72,0.93
		C134.24,94.2,133.63,94.66,133.03,95.11z"/>
	<path class="st7" d="M163.66,58.82c-0.75,0.76-1.5,1.52-2.26,2.28C162.16,60.34,162.91,59.58,163.66,58.82z"/>
	<path class="st27" d="M129.55,111.08c-0.72-0.02-1.45-0.04-2.17-0.07c0.74-0.77,1.47-1.54,2.21-2.31
		C129.58,109.5,129.56,110.29,129.55,111.08z"/>
	<path class="st21" d="M177.24,45.14c0.77-0.36,1.54-0.71,2.31-1.07C178.78,44.43,178.01,44.78,177.24,45.14z"/>
	<path class="st21" d="M133.16,91.73c0.02-0.77,0.04-1.54,0.05-2.31C133.2,90.2,133.18,90.96,133.16,91.73z"/>
	<path class="st25" d="M131.97,156.44c-0.01,0.35-0.03,0.71-0.06,1.06c-0.38,0-0.76,0-1.13,0c-2.26-3.03-4.52-6.05-6.79-9.08
		c0-1.89,0-3.77,0-5.66c0.74-0.77,1.49-1.53,2.23-2.3c0.01-0.75,0.02-1.49,0.02-2.24c6.17-1.73,2.26-6.81,3.39-10.22
		c0.39-0.38,0.77-0.76,1.16-1.14c0.38,0,0.76,0,1.15,0c0.37,2.27,0.73,4.54,1.1,6.81c-0.76,1.89-1.51,3.78-2.27,5.67
		c-0.38,0.75-0.76,1.51-1.14,2.26c-4.7,2.75-1.76,5.94-0.47,8.98C130.01,152.59,131.03,154.5,131.97,156.44z"/>
	<path class="st7" d="M195.44,42.97c0.38,0.38,0.76,0.76,1.14,1.14c-0.84,3.16-2.57,2.66-4.55,1.11c0.01-0.74,0.01-1.48,0.02-2.22
		C193.18,42.99,194.31,42.98,195.44,42.97z"/>
	<path class="st3" d="M192.05,43c-0.01,0.74-0.01,1.48-0.02,2.22c-1.53-0.02-3.06-0.05-4.6-0.07
		C188.97,44.44,190.51,43.72,192.05,43z"/>
	<path class="st17" d="M120.58,113.16c-1.99,0.73-4.29,1.08-5.88,2.32c-1.39,1.09-2.98,3.43-2.66,4.79c0.32,1.34,2.8,2.67,4.54,3.05
		c1.56,0.34,3.41-0.61,5.13-1c1.81,0.32,3.63,0.64,5.44,0.96l0.33,0.29c-0.42,0.71-0.84,1.42-1.27,2.13
		c-0.44,0.71-0.88,1.42-1.32,2.12c-0.34-0.02-0.67,0.01-1,0.08c-0.74,0.02-1.47,0.04-2.21,0.06c-0.75,0.01-1.5,0.02-2.24,0.03
		c-8.82-1.98-17.62-4.02-26.46-5.89c-2.53-0.54-5.16-0.79-7.76-0.86c-6.17-0.17-6.21-0.16-3.2-5.62c1.51-0.37,3.03-0.74,4.54-1.1
		c1.12,0,2.25-0.01,3.37-0.01c3.79,0.34,7.58,0.68,11.37,1.03c2.54,1.25,5.12,2.8,6.83-1.1c2.48-0.52,4.93-1.21,7.44-1.51
		C117.19,112.72,118.9,113.06,120.58,113.16z"/>
	<path class="st3" d="M123.88,127.91c0.33-0.07,0.66-0.09,1-0.08c0.44-0.71,0.88-1.42,1.32-2.12c0.42-0.71,0.84-1.42,1.27-2.13
		c1.13,0.01,2.26,0.03,3.39,0.04c-0.02,1.08-0.03,2.17-0.05,3.25c-0.39,0.38-0.77,0.76-1.16,1.14c-0.75,1.05-1.86,2-2.19,3.17
		c-0.63,2.28-0.83,4.69-1.2,7.05c-0.01,0.75-0.02,1.49-0.02,2.24c-0.74,0.77-1.49,1.53-2.23,2.3c0,1.89,0,3.77,0,5.66
		c1.54,4.93,3.07,9.86,4.61,14.78c-1.52,0.78-3.03,1.57-4.55,2.35c-0.79-0.06-1.58-0.11-2.37-0.17c3.12-3.96,2.76-7.74,0.9-12.43
		c-1.47-3.69-0.67-8.28-0.88-12.47c0-0.76-0.01-1.52-0.01-2.27c0.39-1.51,0.78-3.01,1.17-4.52c0.37-1.14,0.74-2.28,1.1-3.42
		C123.94,129.49,123.91,128.7,123.88,127.91z"/>
	<path class="st21" d="M103.56,141.62c0.36,0.05,0.89-0.03,1.06,0.17c3.85,4.81,8.11,3.97,12.55,0.96
		c-1.42,4.07-3.41,8.08-1.13,12.48c-4.15-0.77-8.37-1.3-12.43-2.4c-2.05-0.56-3.82-2.14-5.72-3.27
		C104.59,148.44,105.11,147.71,103.56,141.62z"/>
	<path class="st27" d="M116.03,155.23c-2.27-4.4-0.29-8.41,1.13-12.48c0.75,0,1.5-0.01,2.25-0.01c0.57,4.54,0.79,9.16,1.83,13.59
		c0.79,3.37-0.15,5.34-2.96,6.82c0-0.37,0-0.74,0-1.11c0.62-1.76,2.62-3.85-1.11-4.55C116.79,156.74,116.41,155.99,116.03,155.23z"
		/>
	<path class="st27" d="M103.56,141.62c1.55,6.09,1.03,6.82-5.68,7.95c-0.76-0.01-1.51-0.01-2.27-0.02c0.66-0.77,1.34-1.53,1.99-2.32
		c1.09-1.31,2.16-2.63,3.23-3.95c-1.5-0.93-2.94-2-4.52-2.74c-1.27-0.6-2.72-0.81-4.1-1.19c1.52-0.38,3.03-0.76,4.55-1.14
		C99.45,138.5,103,137.07,103.56,141.62z"/>
	<path class="st21" d="M96.76,138.21c-1.52,0.38-3.03,0.76-4.55,1.14c-0.76,0-1.51,0-2.27,0c-0.76-0.38-1.52-0.76-2.27-1.13
		C90.04,133.74,93.08,133.73,96.76,138.21z"/>
	<path class="st27" d="M87.67,138.21c0.76,0.38,1.52,0.76,2.27,1.13c-3.03,2.47-6.13,4.67-10.24,2.27c0-0.37,0-0.75,0.02-1.12
		C82.37,139.74,85.02,138.97,87.67,138.21z"/>
	<path class="st20" d="M123.97,130.28c-0.37,1.14-0.74,2.28-1.1,3.42c-0.02-1.14-0.04-2.28-0.05-3.42
		C123.2,130.28,123.58,130.28,123.97,130.28z"/>
	<path class="st27" d="M121.69,138.21c0,0.76,0.01,1.52,0.01,2.27c-0.76,0.75-1.52,1.5-2.28,2.25
		C120.18,141.23,120.94,139.72,121.69,138.21z"/>
	<path class="st27" d="M123.97,130.28c-0.39,0-0.77,0-1.16,0c-0.38-0.77-0.76-1.54-1.14-2.31c0.74-0.02,1.47-0.04,2.21-0.06
		C123.91,128.7,123.94,129.49,123.97,130.28z"/>
	<path class="st3" d="M132.29,121.38c0.03-2.02,0.07-4.04,0.1-6.06c4.92,1.58,3.7,3.85,0.71,6.31
		C132.85,121.47,132.58,121.39,132.29,121.38z"/>
	<path class="st4" d="M130.78,139.35c0.76-1.89,1.51-3.78,2.27-5.67C136.22,136.17,135.77,137.29,130.78,139.35z"/>
	<path class="st4" d="M132.29,121.38c0.29,0.01,0.56,0.09,0.81,0.25c-0.38,1.75-0.76,3.49-1.15,5.24c-0.38,0-0.76,0-1.15,0
		c0.02-1.08,0.03-2.17,0.05-3.25C131.33,122.87,131.81,122.12,132.29,121.38z"/>
	<path class="st28" d="M79.74,114.43c-0.01-0.44-0.02-0.87-0.02-1.31c-0.06-0.37-0.08-0.74-0.08-1.11c1.54,0.37,3.08,0.75,4.62,1.12
		c-0.76,0.43-1.51,0.86-2.27,1.3C81.23,114.43,80.49,114.43,79.74,114.43z"/>
	<path class="st24" d="M81.98,114.43c0.76-0.43,1.51-0.86,2.27-1.3c0.77,0,1.54,0,2.31,0c0,0.46-0.01,0.92-0.01,1.38
		c-1.51,0.37-3.03,0.74-4.54,1.1C82,115.23,81.99,114.83,81.98,114.43z"/>
	<path class="st6" d="M95.61,149.55c0.76,0.01,1.51,0.01,2.27,0.02c1.9,1.12,3.67,2.71,5.72,3.27c4.06,1.1,8.28,1.63,12.43,2.4
		c0.38,0.75,0.76,1.51,1.14,2.26c0.37,1.52,0.74,3.03,1.11,4.55c0,0.37,0,0.74,0,1.11c-0.75,0.38-1.5,0.76-2.25,1.13
		c-2.27,0.02-4.53,0.05-6.8,0.07c-2.25-0.04-4.49-0.08-6.74-0.11c-1.1-0.04-2.21-0.09-3.31-0.13c-2.33-1.44-4.66-2.87-6.99-4.31
		c-0.36-0.05-0.72-0.11-1.08-0.18c-0.75-0.71-1.51-1.43-2.26-2.14c-0.76-0.75-1.53-1.51-2.29-2.26c0-1.51,0-3.01-0.01-4.52
		c0.38-0.75,0.75-1.51,1.13-2.26C90.32,148.8,92.97,149.18,95.61,149.55z"/>
	<path class="st3" d="M92.19,159.8c2.33,1.44,4.66,2.87,6.99,4.31C96.85,162.68,94.52,161.24,92.19,159.8z"/>
	<path class="st27" d="M88.85,157.48c0.75,0.71,1.51,1.43,2.26,2.14c-0.78-0.31-1.56-0.63-2.34-0.94
		C88.79,158.28,88.82,157.88,88.85,157.48z"/>
	<path class="st28" d="M77.4,93.06c0.28,0.31,0.56,0.63,0.84,0.94c-0.25,0.75-0.51,1.5-0.76,2.25c-0.46,0.4-0.93,0.8-1.39,1.2
		l-0.45,0.04l-0.43-0.11c-0.4-0.77-0.8-1.54-1.2-2.3c0.85-0.67,1.7-1.33,2.55-2C76.83,93.05,77.11,93.05,77.4,93.06z"/>
	<path class="st22" d="M131.82,87.31c-1.1,0.34-2.2,0.67-3.3,1.01c-1.57-0.87-3.22-2.58-4.69-2.44c-4.53,0.43-8.97,1.85-13.5,2.35
		c-3.74,0.41-6.17,1.46-5.64,5.76c0.37,0.73,0.74,1.46,1.11,2.18c-1.13,0.34-2.26,0.68-3.39,1.03c-1.42-0.05-2.84-0.09-4.26-0.14
		c0.29-0.66,0.59-1.33,0.88-1.99c-2.98-5.32-2.96-5.25,3.07-6.84c0.98-0.26,1.72-1.43,2.58-2.18c0.38,0,0.76-0.01,1.13-0.01
		c5.32-0.64,11.43,0.11,15.74-2.32c3.92-2.21,6.07-3.39,9.19,0.07c0.4-0.02,0.8-0.03,1.2-0.05
		C131.91,84.93,131.86,86.12,131.82,87.31z"/>
	<path class="st16" d="M120.57,81.51c-2.55-0.32-6.34,1.19-6.6-3.03c-0.26-4.23,3.3-5.44,6.72-5.96c2.18-0.33,4.45-0.08,6.69-0.08
		c0,1.51,0,3.02,0,4.54c0,0,0,0.01,0,0.01c-1.13,0.38-2.27,0.75-3.4,1.13c0,0,0,0,0,0C122.84,79.24,121.7,80.37,120.57,81.51
		L120.57,81.51z"/>
	<path class="st1" d="M104.68,86.04c-0.85,0.75-1.59,1.92-2.58,2.18c-6.03,1.6-6.04,1.53-3.07,6.84c-1.52,0.02-3.04,0.04-4.56,0.06
		c-1.51-0.37-3.02-0.75-4.53-1.12c0.38-2.65,0.75-5.3,1.13-7.95c0.75,0,1.51-0.01,2.26-0.01c1.07,0.43,2.55,1.5,3.13,1.14
		c1.12-0.71,1.73-2.22,2.55-3.4c0.76,0,1.51-0.01,2.27-0.01C102.42,84.53,103.55,85.28,104.68,86.04z"/>
	<path class="st1" d="M130.75,83.79c-3.12-3.47-5.26-2.28-9.19-0.07c-4.31,2.43-10.42,1.68-15.74,2.32
		c2.02-0.75,4.02-1.61,6.08-2.23c2.86-0.86,5.78-1.54,8.67-2.29l0,0c1.13-1.13,2.27-2.27,3.4-3.4c0,0,0,0,0,0
		c1.13-0.38,2.27-0.75,3.4-1.13c0,0,0-0.01,0-0.01c0.76,0.38,1.52,0.75,2.28,1.13C130.02,79.99,130.38,81.89,130.75,83.79z"/>
	<path class="st17" d="M130.75,83.79c-0.37-1.9-0.73-3.79-1.1-5.69c0-1.89-0.01-3.78-0.01-5.66c1.89-0.76,3.78-1.52,5.66-2.28
		c-0.01,1.13-0.01,2.26-0.02,3.39c-1.11,3.4-2.22,6.8-3.34,10.2C131.55,83.75,131.15,83.77,130.75,83.79z"/>
	<path class="st14" d="M129.64,72.43c0,1.89,0.01,3.78,0.01,5.66c-0.76-0.38-1.52-0.75-2.28-1.13c0-1.51,0-3.02,0-4.54
		C128.13,72.43,128.89,72.43,129.64,72.43z"/>
	<path class="st9" d="M135.29,73.54c0.01-1.13,0.01-2.26,0.02-3.39c0.39-0.05,0.79-0.1,1.18-0.15c0.37,0.07,0.74,0.15,1.12,0.22
		C136.83,71.32,136.06,72.43,135.29,73.54z"/>
	<path class="st16" d="M137.61,70.22c-0.37-0.07-0.74-0.15-1.12-0.22c0.75-0.34,1.49-0.69,2.24-1.03c-0.02,0.35-0.03,0.7-0.03,1.05
		C138.33,70.11,137.97,70.17,137.61,70.22z"/>
	<path class="st23" d="M216.48,47.44c4.22,1.64,7.75,3.01,11.28,4.38c-3.74,1.2-7.47,2.41-11.21,3.59c-0.34,0.11-0.87,0.17-1.1-0.02
		c-1.73-1.34-3.42-2.74-5.11-4.13C212.29,50.05,214.27,48.82,216.48,47.44z"/>
	<path class="st5" d="M128.6,163.21c-1.54-4.93-3.07-9.86-4.61-14.78c2.26,3.03,4.52,6.05,6.79,9.08c0,0.38,0,0.76,0,1.13
		c0.01,0.38,0.02,0.75,0.02,1.13c0,0.38,0,0.76-0.01,1.14c0.01,0.76,0.01,1.53,0.02,2.29C130.07,163.2,129.34,163.2,128.6,163.21z"
		/>
	<path class="st8" d="M135.31,169.96c-1.52,1.12-3.05,2.25-4.57,3.37C132.26,172.21,133.78,171.09,135.31,169.96z"/>
	<path class="st8" d="M130.81,163.2c-0.01-0.76-0.01-1.53-0.02-2.29c0-0.38,0-0.76,0.01-1.14c0-0.38-0.01-0.75-0.02-1.13
		c0.38,0,0.76,0,1.14,0C133.51,160.63,133.97,162.35,130.81,163.2z"/>
	<path class="st8" d="M138.72,167.72c-0.77,0.74-1.54,1.48-2.31,2.23C137.19,169.2,137.95,168.46,138.72,167.72z"/>
	<path class="st4" d="M131.91,158.63c-0.38,0-0.76,0-1.14,0c0-0.38,0-0.76,0-1.13c0.38,0,0.76,0,1.13,0
		C131.91,157.88,131.91,158.26,131.91,158.63z"/>
	<path class="st10" d="M145.5,182.43c0.76,0.01,1.53,0.02,2.29,0.03c-1.15,0.75-2.3,1.49-3.44,2.24
		C144.73,183.94,145.12,183.19,145.5,182.43z"/>
	<path class="st2" d="M96.74,69.04c0.39-1.53,0.77-3.06,1.16-4.59c2.64-0.37,5.29-0.74,7.93-1.11c1.51,0,3.02,0,4.53,0
		c0.49,0.25,1.07,0.41,1.47,0.77c1.29,1.2,2.52,2.47,3.77,3.71c-1.73,0.78-3.4,1.78-5.2,2.28c-2.22,0.62-4.55,0.81-6.83,1.19
		C101.28,70.55,99.01,69.79,96.74,69.04z"/>
	<path class="st23" d="M95.61,149.55c-2.64-0.37-5.29-0.75-7.93-1.12c-1.14,1.14-2.29,2.29-3.43,3.43
		c-5.11-1.82-3.73-6.52-4.54-10.25c4.11,2.4,7.21,0.2,10.24-2.27c0.76,0,1.51,0,2.27,0c1.37,0.38,2.82,0.6,4.1,1.19
		c1.59,0.75,3.02,1.81,4.52,2.74c-1.08,1.32-2.15,2.64-3.23,3.95C96.95,148.02,96.27,148.78,95.61,149.55z"/>
	<path class="st27" d="M84.25,151.87c1.14-1.14,2.29-2.29,3.43-3.43c-0.38,0.75-0.75,1.51-1.13,2.26c-0.39,0.77-0.78,1.55-1.17,2.32
		C85,152.63,84.62,152.25,84.25,151.87z"/>
	<path class="st21" d="M85.37,153.02c0.39-0.77,0.78-1.55,1.17-2.32c0,1.51,0,3.01,0.01,4.52
		C86.16,154.48,85.77,153.75,85.37,153.02z"/>
	<path class="st24" d="M76.08,97.45c0.46-0.4,0.93-0.8,1.39-1.2c1.13-0.36,2.25-0.72,3.38-1.08c3.03,0.03,6.07,0.06,9.1,0.09
		c0,0.79,0.01,1.57,0.01,2.36c-0.75,0.37-1.49,0.74-2.24,1.11c-1.14-0.04-2.27-0.09-3.41-0.13c-0.77,0.33-1.55,0.66-2.32,0.98
		c-1.46,0.32-2.92,0.63-4.38,0.95c-0.36-0.04-0.73-0.07-1.09-0.07C76.38,99.46,76.23,98.45,76.08,97.45z"/>
	<path class="st8" d="M76.52,100.46c0.37,0,0.73,0.03,1.09,0.07c0.33,0.84,0.67,1.67,1,2.51c0.34,2.99,0.68,5.98,1.01,8.97
		c-0.01,0.37,0.02,0.74,0.08,1.11c-1.87,0.21-3.74,0.42-5.61,0.63c-0.03-0.49-0.06-0.99-0.09-1.48
		C74.85,108.33,75.69,104.4,76.52,100.46z"/>
	<path class="st13" d="M89.95,95.26c-3.03-0.03-6.07-0.06-9.1-0.09c0.01-0.39,0.01-0.79,0.02-1.18c0.01-0.38,0.02-0.76,0.02-1.14
		c0.75-1.51,1.5-3.03,2.25-4.54c0.75,0,1.5-0.01,2.25-0.01c1.14-0.75,2.28-1.5,3.42-2.25c0.76,0,1.51,0,2.27,0
		c-0.38,2.65-0.75,5.3-1.13,7.95C89.95,94.42,89.95,94.84,89.95,95.26z"/>
	<path class="st13" d="M99.02,83.79c-0.82,1.18-1.43,2.69-2.55,3.4c-0.57,0.36-2.05-0.72-3.13-1.14
		C95.24,85.29,97.13,84.54,99.02,83.79z"/>
	<path class="st16" d="M83.14,88.31c-0.75,1.51-1.5,3.03-2.25,4.54C79.35,90.2,80,88.64,83.14,88.31z"/>
	<path class="st12" d="M80.87,93.99c-0.01,0.39-0.01,0.79-0.02,1.18c-1.13,0.36-2.25,0.72-3.38,1.08c0.25-0.75,0.51-1.5,0.76-2.25
		C79.11,94,79.99,93.99,80.87,93.99z"/>
	<path class="st16" d="M88.81,86.05c-1.14,0.75-2.28,1.5-3.42,2.25C86.53,87.55,87.67,86.8,88.81,86.05z"/>
	<path class="st2" d="M104.69,93.98c-0.53-4.3,1.9-5.34,5.64-5.76c4.53-0.5,8.97-1.92,13.5-2.35c1.47-0.14,3.12,1.58,4.69,2.44
		c0.68,4.72,1.37,9.44,2.05,14.16c-2.18,0.89-4.36,1.79-6.55,2.68c0-0.7,0.01-1.4,0.01-2.11c0.58-3.22-0.22-4.04-3.46-3.48
		c-0.39-0.72-0.78-1.43-1.17-2.15c-1.8-3.75-3.71-3.49-5.71-0.16c-0.7-0.02-1.4-0.05-2.1-0.07
		C111.22,91.98,107.16,94.7,104.69,93.98z"/>
	<path class="st28" d="M96.69,97.48c0.91,0.72,1.71,1.71,2.75,2.11c1.9,0.73,4.35,0.58,5.81,1.76c2.35,1.89,4.08,4.56,6.08,6.89
		c-2.08,1.35-4.21,2.64-6.23,4.07c-0.68,0.48-1.09,1.34-1.62,2.02c-0.74-0.01-1.47-0.01-2.21-0.02c-1.52-0.37-3.04-0.75-4.57-1.12
		c0.53-0.69,0.99-1.45,1.61-2.04c1.3-1.26,3.95-2.67,3.78-3.6c-0.35-1.89-1.92-3.87-3.52-5.12c-1.35-1.05-3.46-1.12-5.23-1.62
		c-0.43-1.01-0.87-2.02-1.3-3.03c1.57-0.12,3.13-0.25,4.7-0.37L96.69,97.48z"/>
	<path class="st17" d="M124.04,103.05c0,0.7-0.01,1.4-0.01,2.11c-0.24,0.27-0.64,0.82-0.7,0.78c-4.74-2.8-9.45-5.64-14.17-8.48
		c0.81-0.09,1.62-0.17,2.43-0.26c0.7,0.02,1.4,0.05,2.1,0.07c1.9,0.05,3.8,0.1,5.71,0.16c0.39,0.72,0.78,1.43,1.17,2.15
		C121.73,100.73,122.89,101.89,124.04,103.05z"/>
	<path class="st1" d="M111.6,97.2c-0.81,0.09-1.62,0.17-2.43,0.26c-0.74-0.01-1.47-0.03-2.21-0.04c-0.38-0.42-0.77-0.83-1.15-1.25
		c-0.37-0.73-0.74-1.46-1.11-2.18C107.16,94.7,111.22,91.98,111.6,97.2z"/>
	<path class="st10" d="M101.28,114.31c0.74,0.01,1.47,0.01,2.21,0.02c1.54,0.04,3.09,0.07,4.63,0.11c-1.71,3.9-4.29,2.35-6.83,1.1
		C101.28,115.13,101.28,114.72,101.28,114.31z"/>
	<path class="st17" d="M105.81,96.17c0.38,0.42,0.77,0.83,1.15,1.25c-1.51-0.07-3.03-0.15-4.54-0.22
		C103.54,96.85,104.67,96.51,105.81,96.17z"/>
	<path class="st26" d="M94.48,95.12c1.52-0.02,3.04-0.04,4.56-0.06c-0.29,0.66-0.59,1.33-0.88,1.99c-0.49,0.14-0.97,0.28-1.46,0.42
		l0.05-0.08C95.99,96.64,95.24,95.88,94.48,95.12z"/>
	<path class="st22" d="M127.14,123.28c-1.81-0.32-3.63-0.64-5.44-0.96c-1.43-1.45-2.85-2.89-4.28-4.34c2.13-0.82,4.21-1.9,6.42-2.37
		c1.79-0.39,3.74-0.06,5.61-0.05C128.68,118.13,127.91,120.7,127.14,123.28z"/>
	<path class="st5" d="M126.25,138.22c0.38-2.36,0.57-4.76,1.2-7.05c0.32-1.17,1.43-2.12,2.19-3.17
		C128.51,131.41,132.43,136.49,126.25,138.22z"/>
	<path class="st5" d="M123.99,142.76c0.74-0.77,1.49-1.53,2.23-2.3C125.48,141.23,124.74,142,123.99,142.76z"/>
	<path class="st24" d="M101.28,114.31c0,0.41,0.01,0.82,0.01,1.23c-3.79-0.34-7.58-0.68-11.37-1.03c0.78-0.44,1.56-0.88,2.34-1.32
		c0.35-0.02,0.7-0.06,1.05-0.11c1.13,0.04,2.27,0.07,3.4,0.11C98.23,113.56,99.75,113.93,101.28,114.31z"/>
	<path class="st28" d="M92.26,113.19c-0.78,0.44-1.56,0.88-2.34,1.32c-1.12,0-2.25,0.01-3.37,0.01c0-0.46,0.01-0.92,0.01-1.38
		c1.5-0.37,3-0.75,4.5-1.12C91.46,112.41,91.86,112.8,92.26,113.19z"/>
	<path class="st27" d="M126.2,125.71c-0.44,0.71-0.88,1.42-1.32,2.12C125.32,127.12,125.76,126.41,126.2,125.71z"/>
	<path class="st21" d="M118.29,162.04c-0.37-1.52-0.74-3.03-1.11-4.55C120.91,158.19,118.91,160.29,118.29,162.04z"/>
	<path class="st25" d="M91.06,112.02c-1.5,0.37-3,0.75-4.5,1.12c-0.77,0-1.54,0-2.31,0c-1.54-0.37-3.08-0.75-4.62-1.12
		c-0.34-2.99-0.68-5.98-1.01-8.97c1.13,0.01,2.25,0.01,3.38,0.02c0.29,0.59,0.58,1.18,0.87,1.77c0.47-0.59,0.93-1.18,1.4-1.78
		c1.13,0,2.26-0.01,3.39-0.01C95.67,103.44,90.54,108.8,91.06,112.02z"/>
	<path class="st13" d="M123.97,78.1c-1.13,1.13-2.27,2.27-3.4,3.4C121.7,80.37,122.84,79.24,123.97,78.1z"/>
	<path class="st13" d="M127.38,76.97c-1.13,0.38-2.27,0.75-3.4,1.13C125.11,77.73,126.24,77.35,127.38,76.97z"/>
	<path class="st12" d="M94.48,95.12c0.75,0.76,1.51,1.52,2.26,2.27c-1.57,0.12-3.13,0.25-4.7,0.37c-0.69-0.05-1.39-0.1-2.08-0.15
		c0-0.79-0.01-1.57-0.01-2.36c0-0.42,0-0.84,0-1.26C91.46,94.38,92.97,94.75,94.48,95.12z"/>
	<path class="st4" d="M130.8,159.77c0,0.38,0,0.76-0.01,1.14C130.8,160.53,130.8,160.15,130.8,159.77z"/>
	<path class="st5" d="M89.96,97.62c0.69,0.05,1.39,0.1,2.08,0.15c0.43,1.01,0.87,2.02,1.3,3.03c0.08,0.36,0.04,0.86,0.27,1.07
		c3.23,3,5.29,5.94,0.1,9.08c-0.41,0.25-0.28,1.4-0.41,2.13c-0.35,0.06-0.7,0.09-1.05,0.11c-0.4-0.39-0.8-0.78-1.2-1.17
		c-0.53-3.22,4.61-8.58-3.4-8.97c0.02-1.44,0.04-2.88,0.06-4.32C88.47,98.36,89.22,97.99,89.96,97.62z"/>
	<path class="st7" d="M87.72,98.73c-0.02,1.44-0.04,2.88-0.06,4.32c-1.13,0-2.26,0.01-3.39,0.01c-0.76,0-1.52,0-2.27,0
		c-1.13-0.01-2.25-0.01-3.38-0.02c-0.33-0.84-0.67-1.67-1-2.51c1.46-0.32,2.92-0.63,4.38-0.95c0.77-0.33,1.55-0.66,2.32-0.98
		C85.45,98.64,86.59,98.68,87.72,98.73z"/>
	<path class="st28" d="M84.32,98.6c-0.77,0.33-1.55,0.66-2.32,0.98C82.77,99.25,83.54,98.93,84.32,98.6z"/>
	<path class="st1" d="M119.41,97.42c-1.9-0.05-3.8-0.1-5.71-0.16C115.7,93.93,117.61,93.67,119.41,97.42z"/>
	<path class="st1" d="M124.04,103.05c-1.15-1.16-2.3-2.32-3.46-3.48C123.81,99.01,124.62,99.82,124.04,103.05z"/>
	<path class="st7" d="M93.31,113.08c0.12-0.73-0.01-1.88,0.41-2.13c5.19-3.14,3.13-6.08-0.1-9.08c-0.23-0.21-0.19-0.7-0.27-1.07
		c1.77,0.5,3.89,0.57,5.23,1.62c1.6,1.25,3.17,3.23,3.52,5.12c0.17,0.93-2.48,2.34-3.78,3.6c-0.62,0.6-1.08,1.36-1.61,2.04
		C95.58,113.15,94.44,113.12,93.31,113.08z"/>
	<path class="st5" d="M82,103.06c0.76,0,1.52,0,2.27,0c-0.47,0.59-0.93,1.18-1.4,1.78C82.58,104.25,82.29,103.65,82,103.06z"/>
</g>
</svg>
