<?xml version="1.0" encoding="iso-8859-1"?>
<!-- Generator: Adobe Illustrator 17.1.0, SVG Export Plug-In . SVG Version: 6.00 Build 0)  -->
<!DOCTYPE svg PUBLIC "-//W3C//DTD SVG 1.1//EN" "http://www.w3.org/Graphics/SVG/1.1/DTD/svg11.dtd">
<svg version="1.1" id="Capa_1" xmlns="http://www.w3.org/2000/svg" xmlns:xlink="http://www.w3.org/1999/xlink" x="0px" y="0px"
	 viewBox="0 0 205.5 205.5" style="enable-background:new 0 0 205.5 205.5;" xml:space="preserve">
<path d="M198,143h-12.25v-24.333c0-4.142-3.357-7.5-7.5-7.5h-68V82.5h43.25c4.143,0,7.5-3.358,7.5-7.5V15.5
	c0-4.142-3.357-7.5-7.5-7.5H52c-4.143,0-7.5,3.358-7.5,7.5V75c0,4.142,3.357,7.5,7.5,7.5h43.25v28.667h-68
	c-4.143,0-7.5,3.358-7.5,7.5V143H7.5c-4.143,0-7.5,3.358-7.5,7.5V190c0,4.142,3.357,7.5,7.5,7.5H47c4.143,0,7.5-3.358,7.5-7.5v-39.5
	c0-4.142-3.357-7.5-7.5-7.5H34.75v-16.833h60.5V143H83c-4.143,0-7.5,3.358-7.5,7.5V190c0,4.142,3.357,7.5,7.5,7.5h39.5
	c4.143,0,7.5-3.358,7.5-7.5v-39.5c0-4.142-3.357-7.5-7.5-7.5h-12.25v-16.833h60.5V143H158.5c-4.143,0-7.5,3.358-7.5,7.5V190
	c0,4.142,3.357,7.5,7.5,7.5H198c4.143,0,7.5-3.358,7.5-7.5v-39.5C205.5,146.358,202.143,143,198,143z"/>
<g>
</g>
<g>
</g>
<g>
</g>
<g>
</g>
<g>
</g>
<g>
</g>
<g>
</g>
<g>
</g>
<g>
</g>
<g>
</g>
<g>
</g>
<g>
</g>
<g>
</g>
<g>
</g>
<g>
</g>
</svg>
