<svg xmlns="http://www.w3.org/2000/svg" xmlns:xlink="http://www.w3.org/1999/xlink" width="113.654296875" height="33" viewBox="0 0 113.654296875 33" fill="none">
<path     fill="url(#linear_0)"  d="M0 0L113.654 0L113.654 23C113.654 28.5228 109.176 33 103.654 33L0 33L0 0Z">
</path>
<g >
<path     fill="#703100"  d="M30.5608 15.2C30.5208 21.94 30.3408 24.3 25.6808 25.68C26.0208 25.98 26.4608 26.6 26.6208 27C31.7208 25.4 32.0808 22.44 32.1208 15.2L30.5608 15.2ZM31.2408 23.46C32.5008 24.5 34.1608 25.96 34.9608 26.88L36.1608 25.74C35.3408 24.84 33.6608 23.42 32.3808 22.46L31.2408 23.46ZM20.8008 14.34C21.5208 15.08 22.4008 16.1 22.8208 16.76L24.0608 15.88C23.6408 15.26 22.7808 14.32 22.0008 13.62L20.8008 14.34ZM27.3408 12.98L27.3408 22.4L29.0208 22.4L29.0208 14.38L33.6008 14.38L33.6008 22.34L35.3808 22.34L35.3808 12.98L31.5408 12.98L32.3008 11.04L35.8808 11.04L35.8808 9.36L26.8408 9.36L26.8408 11.04L30.5408 11.04C30.3608 11.68 30.1208 12.38 29.8808 12.98L27.3408 12.98ZM22.0408 8.28C21.1208 10.64 19.3808 13.3 17.3408 14.98C17.7408 15.26 18.3608 15.84 18.6408 16.18C20.1008 14.9 21.3608 13.24 22.3808 11.46C23.6608 12.82 25.0808 14.44 25.7608 15.52L26.9408 14.2C26.1608 13.08 24.5208 11.34 23.1408 9.98L23.6608 8.76L22.0408 8.28ZM18.8208 17.28L18.8208 18.92L23.8008 18.92C23.2008 20.14 22.3808 21.54 21.6808 22.6L20.2808 21.34L19.0408 22.28C20.4808 23.64 22.3008 25.5 23.1608 26.7L24.5008 25.6C24.1008 25.06 23.5208 24.42 22.8608 23.74C23.9408 22.14 25.3208 19.86 26.1008 17.92L24.9008 17.18L24.6008 17.28L18.8208 17.28ZM38.0808 10.08C38.8008 11.06 39.5608 12.36 39.8608 13.2L41.3808 12.34C41.0608 11.52 40.2608 10.26 39.5208 9.34L38.0808 10.08ZM45.8608 18.3C45.8008 18.78 45.7408 19.24 45.6408 19.66L37.9408 19.66L37.9408 21.34L45.1208 21.34C44.2208 23.28 42.2808 24.6 37.6208 25.28C37.9608 25.68 38.3808 26.4 38.5208 26.88C43.4208 26.06 45.6808 24.52 46.8008 22.26C48.3808 24.88 51.0008 26.22 54.9808 26.76C55.2208 26.24 55.7008 25.48 56.1208 25.08C52.2008 24.72 49.5408 23.58 48.2008 21.34L55.6408 21.34L55.6408 19.66L47.6208 19.66C47.7208 19.22 47.7808 18.78 47.8408 18.3L45.8608 18.3ZM37.6208 15.54L38.4008 17.2L42.1608 15.1L42.1608 18.32L43.9808 18.32L43.9808 8.32L42.1608 8.32L42.1608 13.3C40.4608 14.18 38.7608 15.02 37.6208 15.54ZM48.6408 8.24C47.9008 9.7 46.2208 11.3 44.5008 12.22C44.8408 12.56 45.3808 13.22 45.6408 13.6C46.5608 13.08 47.4608 12.38 48.2608 11.6L53.5208 11.6C52.8608 12.9 51.8808 13.92 50.6808 14.68C50.0608 13.96 49.1408 13.08 48.3608 12.44L46.9808 13.26C47.7208 13.9 48.5808 14.76 49.1608 15.46C47.7608 16.06 46.1408 16.46 44.3608 16.7C44.6808 17.06 45.1808 17.82 45.3608 18.28C50.3408 17.4 54.3008 15.36 55.8808 10.48L54.7608 9.94L54.4408 10L49.6608 10C49.9608 9.62 50.2208 9.22 50.4408 8.84L48.6408 8.24ZM64.4608 14.48L64.4608 16L74.3408 16L74.3408 14.48L64.4608 14.48ZM64.4608 17.34L64.4608 18.86L74.3408 18.86L74.3408 17.34L64.4608 17.34ZM64.1808 20.3L64.1808 26.86L65.8008 26.86L65.8008 26.16L72.8808 26.16L72.8808 26.8L74.5608 26.8L74.5608 20.3L64.1808 20.3ZM65.8008 24.62L65.8008 21.84L72.8808 21.84L72.8808 24.62L65.8008 24.62ZM67.6008 8.92C68.1208 9.72 68.6808 10.8 68.9808 11.54L63.0208 11.54L63.0208 13.1L75.8608 13.1L75.8608 11.54L69.2808 11.54L70.6808 10.92C70.4008 10.2 69.7808 9.12 69.2208 8.3L67.6008 8.92ZM61.7408 8.4C60.7608 11.34 59.1208 14.26 57.3608 16.18C57.6808 16.6 58.2008 17.58 58.3808 18C58.9608 17.34 59.5408 16.58 60.0808 15.74L60.0808 26.94L61.8208 26.94L61.8208 12.7C62.4408 11.46 62.9808 10.18 63.4208 8.9L61.7408 8.4ZM82.3808 14.3L91.0808 14.3L91.0808 15.62L82.3808 15.62L82.3808 14.3ZM82.3808 17L91.0808 17L91.0808 18.34L82.3808 18.34L82.3808 17ZM82.3808 11.62L91.0808 11.62L91.0808 12.9L82.3808 12.9L82.3808 11.62ZM81.9608 21.12L81.9608 24.16C81.9608 26 82.6208 26.54 85.1608 26.54C85.6808 26.54 88.8808 26.54 89.4208 26.54C91.5008 26.54 92.0808 25.9 92.3208 23.22C91.8008 23.12 91.0008 22.86 90.5808 22.54C90.4808 24.52 90.3208 24.8 89.3008 24.8C88.5408 24.8 85.8808 24.8 85.3008 24.8C84.0808 24.8 83.8608 24.72 83.8608 24.14L83.8608 21.12L81.9608 21.12ZM91.8808 21.32C92.7808 22.62 93.7008 24.38 94.0408 25.52L95.8208 24.74C95.4808 23.58 94.4808 21.88 93.5608 20.62L91.8808 21.32ZM79.5608 20.96C79.1008 22.26 78.3408 23.98 77.5808 25.1L79.3208 25.92C80.0208 24.76 80.7208 22.96 81.2208 21.66L79.5608 20.96ZM85.1408 20.42C86.1208 21.36 87.2208 22.7 87.6808 23.6L89.2408 22.66C88.7608 21.84 87.7408 20.66 86.8008 19.8L93.0008 19.8L93.0008 10.14L87.2208 10.14C87.5008 9.64 87.8408 9.04 88.1208 8.44L85.8608 8.1C85.7408 8.68 85.4608 9.48 85.2208 10.14L80.5608 10.14L80.5608 19.8L86.2208 19.8L85.1408 20.42Z">
</path>
</g>
<defs>
<linearGradient id="linear_0" x1="99.99961677822601%" y1="50%" x2="0%" y2="50%" gradientUnits="objectBoundingBox">
<stop offset="0.0185" stop-color="#FFFFFF"  />
<stop offset="1" stop-color="#FFECC4"  />
</linearGradient>
</defs>
</svg>
