<svg xmlns="http://www.w3.org/2000/svg" xmlns:xlink="http://www.w3.org/1999/xlink" width="126" height="87" viewBox="0 0 126 87" fill="none">
<rect x="0" y="8" width="7" height="70"   fill="#FFECC4" >
</rect>
<path     fill="url(#linear_0)"  d="M7 8L122 8L122 58C122 69.0457 113.046 78 102 78L7 78L7 8Z">
</path>
<g >
<path     fill="url(#linear_1)"  d="M16.16 69.6L26.36 69.6L26.36 54.78C26.36 49.38 25.46 43.26 24.98 38.28L25.28 38.28L29.66 48.06L40.7 69.6L51.62 69.6L51.62 24.9L41.42 24.9L41.42 39.72C41.42 45.06 42.32 51.48 42.86 56.22L42.56 56.22L38.18 46.32L27.08 24.9L16.16 24.9L16.16 69.6ZM80.42 70.44C92.6 70.44 100.88 61.68 100.88 47.04C100.88 32.46 92.6 24.12 80.42 24.12C68.24 24.12 59.96 32.4 59.96 47.04C59.96 61.68 68.24 70.44 80.42 70.44ZM80.42 61.2C74.54 61.2 70.94 55.68 70.94 47.04C70.94 38.4 74.54 33.3 80.42 33.3C86.3 33.3 89.96 38.4 89.96 47.04C89.96 55.68 86.3 61.2 80.42 61.2ZM114.56 70.44C118.22 70.44 120.92 67.5 120.92 63.78C120.92 60.06 118.22 57.18 114.56 57.18C110.84 57.18 108.2 60.06 108.2 63.78C108.2 67.5 110.84 70.44 114.56 70.44Z">
</path>
</g>
<defs>
<linearGradient id="linear_0" x1="100%" y1="50%" x2="0%" y2="50%" gradientUnits="objectBoundingBox">
<stop offset="0" stop-color="#31506B"  />
<stop offset="1" stop-color="#3C6CA7"  />
</linearGradient>
<linearGradient id="linear_1" x1="49.96181748759068%" y1="-52.072538860103634%" x2="50.96181748759068%" y2="112.2526554404145%" gradientUnits="objectBoundingBox">
<stop offset="0" stop-color="#FFECC4" stop-opacity="0.34" />
<stop offset="1" stop-color="#FFECC4" stop-opacity="0" />
</linearGradient>
</defs>
</svg>
