<?xml version="1.0" encoding="utf-8"?>
<!-- Generator: Adobe Illustrator 22.1.0, SVG Export Plug-In . SVG Version: 6.00 Build 0)  -->
<svg version="1.1" id="图层_1" xmlns="http://www.w3.org/2000/svg" xmlns:xlink="http://www.w3.org/1999/xlink" x="0px" y="0px"
	 viewBox="0 0 256 256" style="enable-background:new 0 0 256 256;" xml:space="preserve">
<style type="text/css">
	.st0{fill:#888888;}
</style>
<g>
	<path class="st0" d="M129,80.3l36.8,21.2l-11.4,6.6L154,108c0.4-1.1,0-2.1-0.7-2.9l-1.5-1.7l-1.7-1.5c-1.6-1.4-4-1.1-4.7,1.2
		L129,93.5l-17.2,9.9c-1.1-0.9-2.2-1.6-2.8-1.9c0.2,1.1,0.4,2.1,0.5,3.2l-6,3.4l-11.4-6.6C92.2,101.6,129,80.3,129,80.3z
		 M167.1,103.9v42.5l-36.8,21.2v-13.2l25.4-14.7v-29.3L167.1,103.9L167.1,103.9z M127.6,167.7l-36.8-21.2v-42.5l11.4,6.6v13.7
		c-1.2,0.4-2.4,0.8-3.6,1.4c1.2,0.5,2.4,1.1,3.6,1.7v12.5l4.9,2.8c-0.2,1.9-0.2,3.7-0.3,5.6c2.8,0,6.2-0.1,8.7-0.8l12.1,7V167.7
		L127.6,167.7z M109.1,146c0.2-4.4,0.3-6.3,2.3-9c1.9,2.1,4.1,3.8,6.6,4.8c0.5,0.2,1.1,0.4,1.7,0.6C116,145.7,114.3,145.7,109.1,146
		L109.1,146z M128.8,116.6c-0.6,0.4-1.2,0.9-1.8,1.5c-0.9,0.9-1.6,1.9-1.9,2.9l2.4-2.3C128,118.2,128.5,117.2,128.8,116.6z
		 M134.4,111.4c-1,0.2-1.7,0.4-2.4,0.7c0.8,0.2,1.4,0.4,2.4,0.7C134.4,112.3,134.4,111.9,134.4,111.4L134.4,111.4z M139.8,108.9
		l0.7,0.3l0.5-0.5c-0.8-0.4-1.6-0.7-2.4-0.9L139.8,108.9z M137.1,107.2c-1.3-0.3-2.7-0.6-4.2-0.7c0.9-0.7,2.9-1.1,4.2-1.4
		c-2.2-0.9-6.1-1-9.3,0c-0.2,0.5-0.5,1.4-1,1.8c-0.6,0.5-1.1,1-1.6,1.4c3.6-1.6,7.5-1.7,11.3-0.7L137.1,107.2z M112.1,107.1
		c0.4,2.8-0.7,7.4-0.9,7.9c-0.2,0.6-0.5,1.2-1.5,3.6c-1,2.4-0.9,7-0.2,8.4c-1.6-1.1-3.5-1.7-5.3-1.1c3.1,1.6,4.8,5,6.8,7.7
		c4.7,6.1,10.4,9,17.8,6.9c3.7-1,9-8.1,5.8-10.8c-5.4,3.1-11.3-0.9-11.5-6.8c-0.2-4.3,4.6-8.8,9.2-9.3c-1.9-0.6-2.5-0.9-4.9-0.5
		c2.2-1.6,3.8-2.8,7.5-3.2c0.2-0.4,0.6-0.7,1-1c-4.6-1.2-11.4-1-17.3,6.7c1.8-3.9,3-5.4,7.4-9.7c1.2-1.1,0.9-2.8,0.8-3.9
		c-1.2,2-3.5,3.1-6.6,4.5c-2.3,1-4.4,2.7-6,4.9C113.9,109.7,113.5,108.2,112.1,107.1L112.1,107.1z M134.3,138.9
		c0.6-0.2,1.1-0.5,1.6-0.7c-1.6,2.5-5.3,5.3-12.1,6.2c7.3,1.9,14.2,0.8,18.6-3.7c-0.3,0.6-0.7,1.3-1.1,1.8c5.4-3.1,12.3-12.2,7.3-21
		c0.8,0.7,1.5,1.5,2.1,2.7c0-4.2-1.2-7.9-3.6-10.9l-1.4,1.4l2.6,2.5l-1.9,2.4c-1,1.2-1.6,1.2-2.8,1.2l-1.6,0c0,0.6-0.3,1.1-0.7,1.4
		l0,1.2c0,1.2-0.7,2.3-1.8,2.6l0,0c-1.4,0.4-2.5,1.2-3.5,2.3c0.7,0.6,1.1,1.4,1.4,2.2c0.4,1.4,0.1,2.9-0.5,4.4
		C136.2,136.4,135.3,137.8,134.3,138.9z M125.1,123.2l3.5-3.4c0.7-0.7,1.8-2.4,2.1-3.7c0.1-0.3,0.4-0.5,0.9-0.5l2.3,0l0.1-0.4
		c0.1-0.2,0.2-0.3,0.4-0.3l1.5,0c0.1,0,0.1-0.1,0.1-0.1l0-3.3c0-0.6,0-1,0.5-1.4l1.1-0.9l2.6,2.7l6.8-6.7l0.4-1.7
		c0.2-0.6,0.6-0.6,1.1-0.2l1.6,1.4l1.4,1.6c0.4,0.5,0.5,1-0.2,1.1l-1.7,0.4l-6.7,6.8l2.7,2.6l-0.9,1.1c-0.4,0.5-0.7,0.5-1.4,0.5
		l-3.3,0c-0.1,0-0.1,0.1-0.1,0.1l0,1.5c0,0.2,0,0.3-0.3,0.4l-0.4,0.1l0,2.3c0,0.5-0.3,0.8-0.5,0.9c-1.3,0.4-3,1.4-3.7,2.1l-1.8,1.9
		c-2.1,1-4.2,0.9-6.1-0.8c-1.1-1-1.9-2.3-2.1-3.9C125.1,123.6,125.1,123.4,125.1,123.2L125.1,123.2z"/>
</g>
</svg>
