<svg clip-rule="evenodd" fill-rule="evenodd" stroke-linejoin="round" stroke-miterlimit="2" viewBox="0 0 32 32" xmlns="http://www.w3.org/2000/svg"><path d="m29 27.031-22-.038v.007h-1c-.075 0-.15-.009-.222-.025-.468-.084-.823-.494-.822-.986 0-.102.016-.2.044-.292v-21.697c0-.552-.448-1-1-1s-1 .448-1 1v22c0 .796.316 1.559.879 2.121.562.563 1.325.879 2.121.879h22.013c.546-.007.987-.452.987-1z"/><path d="m23 25.021 6 .01v-11.031c0-.552-.448-1-1-1h-4c-.552 0-1 .448-1 1z"/><path d="m15 25.007 6 .01v-21.017c0-.552-.448-1-1-1h-4c-.552 0-1 .448-1 1z"/><path d="m7 24.993 6 .01v-15.003c0-.552-.448-1-1-1h-4c-.552 0-1 .448-1 1z"/></svg>