<svg id="Layer_1" data-name="Layer 1" xmlns="http://www.w3.org/2000/svg" viewBox="0 0 464 464"><defs><style>.cls-1{fill-rule:evenodd;}</style></defs><title>bhjj</title><path class="cls-1" d="M373.21,291.58a7.47,7.47,0,0,1,14.91,1.05c-4,55.76-26.4,98.83-59.66,128.12-32.78,28.86-76,44.18-122.47,44.94a51.93,51.93,0,0,0,1.08-5.8,51.26,51.26,0,0,0,.31-9.16c42.31-1,81.51-15.08,111.19-41.21C349,382.73,369.52,343.09,373.21,291.58ZM192.22,458a35.35,35.35,0,0,0-69.12-13.93c0,.14-.07.27-.11.41a35.35,35.35,0,0,0,68.29,18.29A36.54,36.54,0,0,0,192.22,458ZM91.14,169.64a35.35,35.35,0,0,0-24.59-43.18l-.4-.11a35.35,35.35,0,1,0,25,43.29ZM315.08,56a35.35,35.35,0,0,0,69.11,13.93c0-.14.07-.27.11-.41A35.35,35.35,0,1,0,316,51.21a36.5,36.5,0,0,0-.93,4.77ZM454.67,318.43a35.35,35.35,0,0,0-13.93,69.11l.4.11a35.34,35.34,0,0,0,18.3-68.28,35,35,0,0,0-4.77-.94ZM189,239.68a66.94,66.94,0,1,0,82-47.34A66.94,66.94,0,0,0,189,239.68Zm30.07,136.89c-51.51-3.69-91.14-24.21-117.94-54.64C75,292.25,61,253,59.91,210.73a49.49,49.49,0,0,1-9.16-.31A51.34,51.34,0,0,1,45,209.34C45.71,255.8,61,299,89.9,331.81c29.28,33.26,72.36,55.67,128.11,59.67a7.47,7.47,0,1,0,1.05-14.91ZM64.63,110.76A276.36,276.36,0,0,1,83,74.75a296.11,296.11,0,0,1,33.34-44.86,7.47,7.47,0,1,1,11.1,10A282,282,0,0,0,95.77,82.47,262.08,262.08,0,0,0,79,115.23a49.58,49.58,0,0,0-8.39-3.18l-.57-.16A51.15,51.15,0,0,0,64.63,110.76Zm69.45,111.66a7.47,7.47,0,1,1-14.91-1c4-55.75,26.4-98.83,59.67-128.12,32.78-28.86,76-44.18,122.46-44.94a49.71,49.71,0,0,0-1.07,5.8,50.36,50.36,0,0,0-.32,9.16c-42.31,1-81.51,15.08-111.19,41.21-30.43,26.79-50.95,66.43-54.64,117.94ZM399.88,68a277,277,0,0,1,36,18.34,296.36,296.36,0,0,1,44.87,33.34,7.47,7.47,0,0,1-10,11.11,281.62,281.62,0,0,0-42.59-31.65,260.71,260.71,0,0,0-32.76-16.79A49.83,49.83,0,0,0,398.6,74l.15-.57a49.4,49.4,0,0,0,1.13-5.4ZM288.23,137.43c51.51,3.7,91.15,24.21,117.94,54.64,26.13,29.68,40.17,68.89,41.21,111.2a49.49,49.49,0,0,1,9.16.31,51.93,51.93,0,0,1,5.8,1.08c-.76-46.46-16.09-89.69-44.95-122.47-29.28-33.26-72.36-55.67-128.11-59.66a7.47,7.47,0,1,0-1,14.9ZM442.66,403.24a51.15,51.15,0,0,1-5.39-1.13l-.57-.16a49.58,49.58,0,0,1-8.39-3.18,262.08,262.08,0,0,1-16.79,32.76,281.29,281.29,0,0,1-31.64,42.58,7.47,7.47,0,1,0,11.11,10,297.46,297.46,0,0,0,33.34-44.86,277.53,277.53,0,0,0,18.33-36ZM107.41,446a277,277,0,0,1-36-18.34,295.61,295.61,0,0,1-44.86-33.34,7.47,7.47,0,0,1,10-11.11,282.12,282.12,0,0,0,42.59,31.65,261.39,261.39,0,0,0,32.76,16.79,50.71,50.71,0,0,0-3.19,8.38l-.15.57A49.4,49.4,0,0,0,107.41,446Z" transform="translate(-21.65 -25)"/></svg>