<svg id="图层_1" data-name="图层 1" xmlns="http://www.w3.org/2000/svg" viewBox="0 0 383.96 384"><defs><style>.cls-1{fill:#b4dafe;}.cls-2{fill:#fefefe;}.cls-3{fill:#5c6c76;}.cls-4{fill:#97d0fe;}.cls-5{fill:#ecf4fe;}.cls-6{fill:#d4e7fd;}.cls-7{fill:#fe435b;}.cls-8{fill:#fe455d;}.cls-9{fill:#e2374e;}.cls-10{fill:#5a6d77;}.cls-11{fill:#596c76;}</style></defs><title>calendar</title><path class="cls-1" d="M524.25,576.75h-297a5,5,0,0,0-1.27-.67c-10-2-18.46-9.79-19.63-19.8-1-8.57-.61-17.31-.83-26a12.48,12.48,0,0,1,.75,1.62c3.25,11.17,13.34,19.3,24.37,19.3q148.67,0,297.33,0l18-.7c.31,8.89-3.14,16.12-10.4,21.1C532.23,573.91,528.06,575.07,524.25,576.75Z" transform="translate(-192.75 -192.75)"/><path class="cls-2" d="M205.52,530.3c.22,8.67-.17,17.41.83,26,1.17,10,9.58,17.8,19.63,19.8a5,5,0,0,1,1.27.67h-34.5v-384h99c-7.48,3.27-10.13,9.17-9.52,17,.21,2.82-.1,5.69-.16,8.54-17,0-34-.11-50.94,0-13.8.11-25.13,10.82-25.5,24.33-.31,11.35,0,22.72,0,34.08V308c0,.87-.12,1.74-.12,2.62Q205.51,420.44,205.52,530.3Z" transform="translate(-192.75 -192.75)"/><path class="cls-2" d="M477.75,192.75h99v384h-33a10.35,10.35,0,0,1,1.57-.84c12.5-4.4,18.68-13,18.68-26.16q0-9.36,0-18.71,0-32.59,0-65.19,0-78.87,0-157.73a1.09,1.09,0,0,0-.11-.59c0-22,.32-44.11,0-66.16-.14-10.23-8.84-20.27-19.13-22.16-6.16-1.12-12.62-.6-19-.83l-38.35-.06c-.06-2.85-.38-5.72-.16-8.54C487.89,201.92,485.2,196,477.75,192.75Z" transform="translate(-192.75 -192.75)"/><path class="cls-2" d="M298.5,192.75H471c-7.5,3.23-10.18,9.13-9.58,17,.21,2.84-.08,5.71-.14,8.57H308.22c-.06-2.85-.35-5.73-.14-8.56C308.67,201.89,306,196,298.5,192.75Z" transform="translate(-192.75 -192.75)"/><path class="cls-3" d="M298.5,192.75c7.5,3.24,10.17,9.14,9.58,17-.21,2.83.08,5.71.14,8.56q0,10.09,0,20.18-.74,5.63-1.48,11.26c-5.26,9-17.35,9.57-23.24,0q-.74-5.62-1.48-11.24l0-20.18c.06-2.85.37-5.72.16-8.54-.61-7.86,2-13.76,9.52-17Z" transform="translate(-192.75 -192.75)"/><path class="cls-3" d="M461.28,218.31c.06-2.86.35-5.73.14-8.57-.6-7.86,2.08-13.76,9.58-17h6.75c7.45,3.29,10.14,9.17,9.52,17-.22,2.82.1,5.69.16,8.54q0,10.08,0,20.18L486,249.74c-6.31,9.95-18.29,8.65-23.24,0q-.75-5.62-1.48-11.26Z" transform="translate(-192.75 -192.75)"/><path class="cls-4" d="M564,531q0,9.36,0,18.71c0,13.13-6.18,21.76-18.68,26.16a10.35,10.35,0,0,0-1.57.84h-19.5c3.81-1.68,8-2.84,11.35-5.15,7.26-5,10.71-12.21,10.4-21.1,2.57-1.45,5.25-2.76,7.71-4.38C559.16,542.51,561.64,536.81,564,531Z" transform="translate(-192.75 -192.75)"/><path class="cls-5" d="M205.52,530.3q0-109.86,0-219.7c0-.88.08-1.75.12-2.62,1.75,0,3.5.06,5.25.06l330.28,0c1.61,0,3.23.14,4.85.21q0,108.45,0,216.89c0,11.32-5.43,19-15.27,24A19.39,19.39,0,0,0,528,551.2q-148.67,0-297.33,0c-11,0-21.12-8.13-24.37-19.3A12.48,12.48,0,0,0,205.52,530.3ZM377.15,429l-.92.5a2.69,2.69,0,0,1,.3-.64c.57-.66,1.18-1.28,1.77-1.93,11-12.29,15-26.54,11.72-42.69-4.92-23.9-27.48-40.12-52.09-37.68-23.56,2.35-42.46,23.05-42.81,46.9-.1,6.36,3.39,11.33,9.17,13.09,8.63,2.63,16-3.38,16.6-13.49A22.25,22.25,0,0,1,342.62,372c11.74-.18,21.89,8.78,22.72,20,.92,12.59-7,22.71-19.24,24.41a46.46,46.46,0,0,0-7,1.05,12.54,12.54,0,0,0-8.59,13.72c1,6.88,5.9,10.87,13.7,11.24,11.27.54,20.52,9.48,21.17,20.44.7,11.9-7.14,22.17-18.22,23.86-11.94,1.82-22.57-4.9-25.53-16.29-.62-2.39-.59-4.94-1-7.39-1.26-7.41-7.06-11.74-14.5-10.91-6.41.72-11.2,6.57-11,13.47a42.06,42.06,0,0,0,.53,6.35c3.59,19,14.4,32.38,32.81,38.35s35.27,1.74,48.86-12.15,17.33-30.77,10.94-49.09C385.79,442,380.93,435.69,377.15,429ZM435,390.33v4.89c0,34.36-.06,68.71.11,103.07a18.73,18.73,0,0,0,2.49,9.12c2.86,4.78,8.91,6.4,14.21,4.69a12.66,12.66,0,0,0,8.72-12.27c.06-19.12,0-38.23,0-57.34q0-41.42,0-82.83c0-5.49-2.35-9.67-7.38-12-4.71-2.22-9.6-1.91-13.32,1.63-9.41,8.95-18.64,18.11-27.56,27.55-4.5,4.75-3.72,12.43.87,17a12.67,12.67,0,0,0,17,.82C431.61,393.47,432.93,392.16,435,390.33Z" transform="translate(-192.75 -192.75)"/><path class="cls-6" d="M528,551.2a19.39,19.39,0,0,1,2.78-2.06c9.84-5,15.28-12.66,15.27-24q-.06-108.45,0-216.89a1.74,1.74,0,0,0,0-.39l17.32.15.32.12.35,0q0,78.86,0,157.73,0,32.59,0,65.19c-2.33,5.77-4.81,11.47-10.26,15.08-2.46,1.62-5.14,2.93-7.71,4.38Z" transform="translate(-192.75 -192.75)"/><path class="cls-7" d="M461.28,218.31q0,10.09,0,20.18c-3.85,0-7.7,0-11.54,0-4.73,0-6.5,1.59-6.47,5.65,0,3.38,2.44,5.53,6.45,5.59,4.35.06,8.69,0,13,0,4.95,8.64,16.93,9.94,23.24,0,4.48,0,8.95.08,13.43,0,3.85-.08,6.2-2.48,6.09-5.94-.12-3.71-1.86-5.24-6.11-5.28-4,0-8,0-11.94,0q0-10.09,0-20.18l38.35.06a25.85,25.85,0,0,0,2.69,1.22,26.14,26.14,0,0,1,17.64,26.55c-.54,8.33-.09,16.73-.11,25.1,0,6.06.64,5.49-5.34,5.49l-335,0c0-11.36-.31-22.73,0-34.08.37-13.51,11.7-24.22,25.5-24.33,17-.14,34,0,50.94,0l0,20.18c-3.85,0-7.7,0-11.55,0-4.75,0-6.52,1.58-6.49,5.65,0,3.38,2.44,5.53,6.47,5.59,4.34.06,8.7,0,13,0,5.89,9.58,18,9,23.24,0,4.47,0,8.94.08,13.41,0,3.84-.09,6.2-2.5,6.08-5.95-.12-3.7-1.86-5.24-6.09-5.28-4,0-8,0-11.92,0q0-10.1,0-20.18Z" transform="translate(-192.75 -192.75)"/><path class="cls-8" d="M546,308.27c-1.62-.07-3.24-.21-4.85-.21l-330.28,0c-1.75,0-3.5,0-5.25-.06V288H540a29.81,29.81,0,0,0,3,0c2.32-.25,3.06.76,3,3-.13,5.62-.07,11.24-.08,16.87A1.74,1.74,0,0,1,546,308.27Z" transform="translate(-192.75 -192.75)"/><path class="cls-9" d="M546,307.88c0-5.63-.05-11.25.08-16.87.05-2.26-.69-3.27-3-3a29.81,29.81,0,0,1-3,0H205.63V276.76l335,0c6,0,5.32.57,5.34-5.49,0-8.37-.43-16.77.11-25.1a26.14,26.14,0,0,0-17.64-26.55,25.85,25.85,0,0,1-2.69-1.22c6.33.23,12.79-.29,19,.83,10.29,1.89,19,11.93,19.13,22.16.3,22.05,0,44.11,0,66.16l-.56.5Z" transform="translate(-192.75 -192.75)"/><path class="cls-8" d="M563.28,308l.56-.5a1.09,1.09,0,0,1,.11.59l-.35,0Z" transform="translate(-192.75 -192.75)"/><path class="cls-9" d="M283.52,249.74c-4.35,0-8.71.06-13,0-4-.06-6.45-2.21-6.47-5.59,0-4.07,1.74-5.63,6.49-5.65,3.85,0,7.7,0,11.55,0Q282.79,244.11,283.52,249.74Z" transform="translate(-192.75 -192.75)"/><path class="cls-9" d="M308.24,238.49c4,0,7.94,0,11.92,0,4.23,0,6,1.58,6.09,5.28.12,3.45-2.24,5.86-6.08,5.95-4.47.1-8.94,0-13.41,0Q307.5,244.13,308.24,238.49Z" transform="translate(-192.75 -192.75)"/><path class="cls-9" d="M487.45,238.5c4,0,8,0,11.94,0,4.25,0,6,1.57,6.11,5.28.11,3.46-2.24,5.86-6.09,5.94-4.48.1-9,0-13.43,0Z" transform="translate(-192.75 -192.75)"/><path class="cls-9" d="M462.74,249.75c-4.35,0-8.69.05-13,0-4-.06-6.43-2.21-6.45-5.59,0-4.06,1.74-5.63,6.47-5.65,3.84,0,7.69,0,11.54,0Q462,244.12,462.74,249.75Z" transform="translate(-192.75 -192.75)"/><path class="cls-10" d="M377.15,429c3.78,6.67,8.64,13,11.13,20.07,6.39,18.32,2.65,35.2-10.94,49.09s-30.41,18.13-48.86,12.15S299.26,491,295.67,472a42.06,42.06,0,0,1-.53-6.35c-.23-6.9,4.56-12.75,11-13.47,7.44-.83,13.24,3.5,14.5,10.91.42,2.45.39,5,1,7.39,3,11.39,13.59,18.11,25.53,16.29,11.08-1.69,18.92-12,18.22-23.86-.65-11-9.9-19.9-21.17-20.44-7.8-.37-12.67-4.36-13.7-11.24a12.54,12.54,0,0,1,8.59-13.72,46.46,46.46,0,0,1,7-1.05c12.19-1.7,20.16-11.82,19.24-24.41-.83-11.25-11-20.21-22.72-20a22.25,22.25,0,0,0-21.73,21.08c-.57,10.11-8,16.12-16.6,13.49-5.78-1.76-9.27-6.73-9.17-13.09.35-23.85,19.25-44.55,42.81-46.9,24.61-2.44,47.17,13.78,52.09,37.68,3.32,16.15-.74,30.4-11.72,42.69-.59.65-1.2,1.27-1.77,1.93a2.69,2.69,0,0,0-.3.64Z" transform="translate(-192.75 -192.75)"/><path class="cls-11" d="M435,390.33c-2,1.83-3.36,3.14-4.8,4.3a12.67,12.67,0,0,1-17-.82c-4.59-4.57-5.37-12.25-.87-17,8.92-9.44,18.15-18.6,27.56-27.55,3.72-3.54,8.61-3.85,13.32-1.63,5,2.36,7.37,6.54,7.38,12q0,41.41,0,82.83c0,19.11,0,38.22,0,57.34a12.66,12.66,0,0,1-8.72,12.27c-5.3,1.71-11.35.09-14.21-4.69a18.73,18.73,0,0,1-2.49-9.12c-.17-34.36-.11-68.71-.11-103.07Z" transform="translate(-192.75 -192.75)"/></svg>