<?xml version="1.0" encoding="utf-8"?>
<!-- Generator: Adobe Illustrator 26.0.3, SVG Export Plug-In . SVG Version: 6.00 Build 0)  -->
<svg version="1.1" id="图层_1" xmlns="http://www.w3.org/2000/svg" xmlns:xlink="http://www.w3.org/1999/xlink" x="0px" y="0px"
	 viewBox="0 0 256 256" style="enable-background:new 0 0 256 256;" xml:space="preserve">
<g>
	<g>
		<path d="M127.78,223c-33.5,0-67-0.02-100.5,0.04c-2.3,0-5.52-1.42-5.37,3.38c0.17,5.51,1.51,8.19,5.43,8.54
			c1.32,0.12,2.66,0.03,4,0.03c36.5,0,73-0.01,109.5,0.02c2.37,0,5.62-0.95,6.27,2.43c0.61,3.14,0.64,6.6-0.09,9.68
			c-0.24,1.01-3.64,1.79-5.6,1.8c-18.83,0.13-37.67,0.08-56.5,0.08s-37.67,0.03-56.5-0.01c-6.86-0.01-13.53-0.99-16.89-8.02
			c-1.45-3.02-2.27-6.62-2.35-9.97c-0.28-11.37-0.14-22.75-0.09-34.13c0.02-5.25,0.98-6.03,6.76-6.02c6.02,0.01,7.15,0.98,7.22,6.21
			c0,0.17-0.01,0.34,0,0.5c0.22,3.62-0.88,8.63,1.04,10.47c1.97,1.89,6.89,0.8,10.52,0.8c64,0.03,127.99,0.03,191.99-0.01
			c6.41,0,6.3,1.48,6.3-6c0.03-35.8-0.05-71.61,0.11-107.41c0.02-3.99-1.09-5.01-4.98-4.95c-14,0.23-28,0.11-42,0.08
			c-5.31-0.01-6.24-1.28-6.05-7.77c0.16-5.22,1.68-6.54,6.57-6.41c14.13,0.35,28.27,0.51,42.4,0.85c2.99,0.07,4.14-0.96,4.06-4.06
			c-0.18-6.85-0.13-13.72-0.03-20.58c0.06-3.76-1.33-5.73-5.3-5.23c-0.33,0.04-0.67-0.01-1-0.01c-2.99,0.06-6.93-0.98-8.67,0.53
			c-1.58,1.37-0.85,5.52-1.02,8.45c-0.49,8.48-9.51,16.66-18.07,17.22c-9.15,0.6-14.73-4.53-18.75-11.44
			c-1.65-2.84-1.23-7.1-1.14-10.7c0.09-3.33-0.99-4.18-4.23-4.17c-31.17,0.11-62.33,0.11-93.5,0.01c-3.14-0.01-4.77,0.67-4.22,4.1
			c1.63,10.14-3.5,17-11.89,20.78c-3.85,1.73-9.67,1.54-13.67-0.08c-8.79-3.56-13.9-10.46-12.53-20.71c0.46-3.42-1.02-4.4-4.19-4.08
			c-2.14,0.22-4.35,0.21-6.49,0c-4-0.39-5.36,1.55-5.32,5.27c0.08,6.86,0.21,13.73-0.06,20.57c-0.13,3.45,1.17,4.15,4.3,4.14
			c22-0.11,44,0.03,66-0.09c12.14-0.07,24.27-0.61,36.4-0.71c6.07-0.05,9.04,3.1,8.45,8.38c-0.38,3.42-2.25,5.47-5.77,5.71
			c-1.49,0.1-3,0.04-4.5,0.04c-33.17,0-66.33,0-99.5,0c-5.29,0-5.3,0.01-5.3,5.45c-0.01,15.39,0.01,30.78-0.01,46.18
			c-0.01,5.4-1.16,6.44-6.96,6.49c-6.02,0.06-6.97-0.74-6.97-6.31C9.06,112.26,9.22,82.14,9,52.03
			c-0.1-13.88,9.02-19.64,19.05-19.02c3.43,0.21,7.85,0.91,10.06-0.84c1.71-1.36,0.5-6.22,0.93-9.48
			c0.96-7.31,8.42-17.52,20.42-16.49c10.77,0.92,17.46,7.95,17.62,18.82c0.12,8.04,0.12,8.04,8.26,8.04c29.5,0,59,0,88.5,0
			c5.08,0,5.13-0.02,5.09-5.17c-0.03-5.34,0.45-10.01,3.97-14.91c5.32-7.41,15.81-7.52,22.62-5.47c5.95,1.79,11.45,11,11.47,18.36
			c0.02,7.2,0.02,7.24,7.1,7.19c5.99-0.04,11.9-0.33,17.05,3.85c5,4.06,5.75,9.5,5.76,15.28c0.03,39.48,0.02,78.97,0.02,118.45
			c0,19.74,0.15,39.49-0.13,59.22c-0.06,3.97-1.24,8.14-2.82,11.83c-1.83,4.26-5.91,6.41-10.44,6.57
			c-11.65,0.43-23.31,0.52-34.97,0.73c-3.14,0.06-4.52-1.7-4.56-4.7c-0.02-1.34-0.08-2.68,0.01-4.01c0.25-3.44,1.58-5.45,5.6-5.36
			c9.33,0.22,18.67,0.13,28,0.03c5.28-0.06,8.78-6.32,6.18-10.93c-0.31-0.54-1.31-0.89-2.02-0.95c-1.65-0.14-3.33-0.06-5-0.06
			C193.78,223,160.78,223,127.78,223z M62.94,39.99c0-4.83-0.1-9.67,0.03-14.49c0.09-3.39-1.71-4.93-4.72-5.18
			c-3.14-0.26-4.7,1.88-4.71,4.6c-0.06,9.97,0.15,19.95,0.29,29.93c0.04,3,1.52,4.72,4.63,4.52c3.3-0.21,4.53-2.25,4.5-5.39
			C62.9,49.32,62.94,44.65,62.94,39.99z M193.07,39.85c0,4.68,0.06,9.36-0.02,14.04c-0.06,3.19,1.29,5.23,4.49,5.45
			c3,0.2,4.83-1.67,4.89-4.51c0.22-9.85,0.33-19.72,0.18-29.57c-0.04-2.79-1.54-5.29-5.01-4.95c-3.18,0.31-4.54,2.39-4.54,5.49
			C193.07,30.49,193.06,35.17,193.07,39.85z"/>
		<path d="M83.11,141.27c0.4-10.72,7.44-24.55,21.87-34.43c2-1.37,3.95-2.61,6.38-0.94c2.51,1.72,2.6,4,1.74,6.64
			c-6.39,19.71-0.25,36.12,14.5,49.15c10.66,9.42,23.83,11.28,37.63,7.57c3.08-0.83,6.49-3.16,8.98,0.8c2.3,3.66-0.5,6.37-2.47,8.94
			c-11.41,14.89-26.93,22.13-45.08,19.33C100.37,194.26,82.83,174.96,83.11,141.27z"/>
		<path d="M140.96,141.15c2.56-4.99-0.32-8.7-4.19-12.52c-2.64-2.61-0.93-7.08,2.9-7.58c5.13-0.68,8.54-2.69,10.55-7.73
			c1.39-3.49,6.21-3.73,8.06-0.24c2.55,4.8,5.53,7.66,11.25,8.18c3.78,0.34,5.06,5.03,2.2,7.71c-3.77,3.54-5.42,7.01-4.05,12.34
			c1.07,4.16-3.12,7.17-7.03,4.98c-4.41-2.46-8.03-2.45-12.42-0.04C144.38,148.33,140.94,145.9,140.96,141.15z"/>
		<path d="M172.92,249.14c-9.28,0.18-10.42-3.72-8.92-9.59c1-3.9,5.16-5.33,11.9-4.56c4,0.46,6.51,2.93,6.83,6.72
			c0.3,3.58-1.4,6.1-4.88,6.89C176.25,248.96,174.57,248.97,172.92,249.14z"/>
		<path d="M24.01,173.77c-1.41,2.39-2.3,5.5-4.35,7.03c-4.41,3.26-9.49,0.83-10.39-4.55c-0.33-1.94-0.3-4.01-0.05-5.98
			c0.62-4.8,2.82-6.74,7.03-6.58c4.39,0.17,6.59,2.6,6.78,7.49c0.03,0.67,0,1.33,0,2C23.37,173.38,23.69,173.58,24.01,173.77z"/>
		<path d="M153.07,90.57c-7.01,0.01-9.17-1.61-9.1-6.82c0.06-4.49,3.48-7.39,8.69-7.36c5.99,0.03,9.51,2.93,9.42,7.72
			C161.97,88.89,159.64,90.56,153.07,90.57z"/>
	</g>
</g>
</svg>
