<?xml version="1.0" encoding="utf-8"?>
<!-- Generator: Adobe Illustrator 22.1.0, SVG Export Plug-In . SVG Version: 6.00 Build 0)  -->
<svg version="1.1" id="图层_1" xmlns="http://www.w3.org/2000/svg" xmlns:xlink="http://www.w3.org/1999/xlink" x="0px" y="0px"
	 viewBox="0 0 288.6 286.4" style="enable-background:new 0 0 288.6 286.4;" xml:space="preserve">
<title>fb</title>
<path d="M77,43.5l11,14.3c5.9-3,11.5-6.2,17.4-8.8C141.7,33,186,41.2,214.6,68.8c16.1,15.4,26.2,34.1,30.2,56
	c9.7,53.8-25.7,106.3-79.2,117.2c-6.5,1.3-13.2,1.7-19.8,2.2c-5.3,0.4-9-3-9.1-7.8c-0.1-4.8,3.2-8.3,8.6-8.5
	c8.4-0.2,16.7-1.5,24.8-3.9c13.3-3.8,29.2-14,38.4-25L195,189c-4.5,3.5-8.5,7.2-12.9,10.1c-24.7,16.1-54.8,15.4-78.2-2.5
	c-21-16.1-30-38-26.1-64.2c4.2-28.6,24.5-49.8,52.9-56.2c4.7-0.9,9.5-1.4,14.2-1.4c4.2-0.1,7.8,3.2,7.9,7.4c0,0.1,0,0.1,0,0.2
	c0.2,4.5-2.8,8.2-7.4,8.4c-8.4,0.4-16.6,1.7-24,5.8c-18.4,10.1-27.9,25.7-28.2,46.7c0,0.3,0,0.5,0.1,0.8c0.1,0.2,0.2,0.4,0.4,0.6
	c6-2.5,12.1-4.9,18-7.5c0.8-0.4,1.4-1.7,1.6-2.7c2.3-9.4,8.8-17.3,17.7-21.3c21.8-10.5,47,6,46.4,30.2
	c-0.5,17.3-14.2,31.3-31.2,31.8c-5.3,0.2-9-2.8-9.3-7.3c-0.4-5,2.8-8.6,8.3-9c6.6-0.4,11.6-3.4,14.4-9.3c2.9-6.1,2.2-12.1-2.2-17.4
	c-4.4-5.2-10.3-7.1-16.9-5.2c-6.6,2-10.8,6.4-11.4,13.2c-0.5,6.1-3.3,9.4-8.9,11.4c-7.8,2.8-15.4,6.3-23.2,9.5
	c1.7,5,4.3,9.6,7.7,13.6c13.6,16,30.9,22.7,51.4,18c21.5-4.9,34.8-18.9,39.4-40.5c3.2-15-0.4-28.8-9.6-41.1
	c-0.4-0.6-0.9-1.1-1.3-1.7c-3.2-4.3-2.8-8.5,1.1-12c5.4-4.9,10.8-9.7,16.2-14.6c0.6-0.6,1.3-1.1,2.1-1.8c-8-7.8-17.5-14-27.9-18
	c-21.3-8.2-42.6-8.1-63.6,0.5c-18.8,7.7-33.5,20.6-42.7,38.8c-15.1,29.7-13.6,59,4.2,87.2c5.5,8.6,12.6,16,21,21.9
	c2.3,1.7,4.2,3.6,4.4,6.6c0.4,3.2-1.1,6.3-3.9,7.8c-3.1,1.9-6.3,1.5-9.2-0.6c-9.2-6.6-17.3-14.7-23.9-23.9c-0.9-1.2-1.8-2.4-2.6-3.7
	c-0.1-0.1-0.3-0.2-0.6-0.4l-15.7,8.1c8,12.9,18.4,24.1,30.6,33.1c16,12,34.8,19.7,54.7,22.3c32.9,4.3,62.8-3.5,89.1-23.7
	c23.4-17.9,38.3-41.5,44.3-70.3c5.7-26.3,2.2-53.7-10-77.7c-11.9-23.9-30-41.8-53.8-53.9c-9.3-4.6-19.1-8-29.2-10.1
	c-4.9-1.1-7.5-3.8-7.6-7.9c-0.3-4.4,3-8.2,7.4-8.5c0.7,0,1.4,0,2.1,0.1c38.4,7.5,71.7,31.2,91.5,65c9.5,15.9,15.4,33.7,17.5,52.2
	c4.9,45.6-9.3,84.4-42.6,116c-19.1,18.4-43.4,30.4-69.6,34.2c-47.8,7.2-88.9-6.6-122.3-41.7c-20-20.7-32.4-47.6-35.2-76.2
	c-3.9-37.4,5.1-71.5,28.8-101c20.7-25.7,47.4-41.8,79.8-48.4c4.4-1,8.7,1.7,9.7,6.1c1.1,4.2-1.5,8.5-5.7,9.6c-0.1,0-0.2,0.1-0.4,0.1
	c-9.5,2.2-18.9,4.8-27.6,9.1C88.7,36.9,83,40.2,77,43.5z M64.6,54c-17.3,14.9-34.6,41-38.6,74.2c-2.7,21.5,0.6,43.2,9.6,62.9
	l15.7-8.2c-16.2-43.6-8.1-81.7,24-115L64.6,54z M218.2,185.8c17.5-29,15.1-66.5-3.8-92.3L201.6,105c13.8,23.2,14.9,46.6,2.6,70.5
	L218.2,185.8z"/>
</svg>
