<svg id="图层_1" data-name="图层 1" xmlns="http://www.w3.org/2000/svg" viewBox="0 0 288.59 286.37"><title>fb</title><path d="M78.64,43.75,90.35,58.93c6.29-3.21,12.23-6.62,18.48-9.36,38.54-16.89,85.64-8.25,116.08,21.08C242,87.07,252.8,106.86,257,130.16c10.35,57.13-27.32,112.94-84.19,124.55-6.87,1.4-14,1.83-21,2.3-5.68.39-9.56-3.19-9.71-8.26s3.37-8.85,9.09-9a106.67,106.67,0,0,0,26.38-4.1c14.1-4,31.08-14.92,40.83-26.57l-14.36-10.66c-4.73,3.75-9,7.68-13.72,10.78-26.27,17.06-58.22,16.34-83.07-2.7-22.35-17.12-31.84-40.36-27.74-68.26,4.46-30.38,26.06-52.92,56.22-59.72A81.82,81.82,0,0,1,150.87,77a8.15,8.15,0,0,1,8.4,8.1c.18,4.81-3,8.67-7.87,8.92-8.91.47-17.6,1.84-25.52,6.19-19.58,10.74-29.67,27.29-30,49.68a3.91,3.91,0,0,0,.06.84,3.22,3.22,0,0,0,.38.66c6.38-2.62,12.82-5.19,19.16-8,.85-.38,1.45-1.84,1.74-2.92A33.81,33.81,0,0,1,136,117.81c23.15-11.13,50,6.42,49.27,32.1-.55,18.39-15.14,33.24-33.18,33.77-5.61.17-9.55-2.93-9.92-7.78-.41-5.33,2.95-9.15,8.8-9.55,7-.47,12.28-3.58,15.27-9.88,3.09-6.52,2.33-12.9-2.35-18.45s-11-7.57-18-5.49-11.48,6.83-12.08,14.06c-.53,6.47-3.54,9.94-9.44,12.1-8.27,3-16.32,6.65-24.71,10.12a44.51,44.51,0,0,0,8.22,14.44c14.46,17.05,32.86,24.14,54.68,19.18,22.84-5.19,37-20.07,41.9-43,3.39-15.92-.43-30.58-10.16-43.65-.45-.6-.92-1.19-1.36-1.8-3.36-4.59-3-9,1.17-12.79,5.69-5.2,11.46-10.33,17.2-15.48.69-.62,1.42-1.2,2.23-1.88A87.35,87.35,0,0,0,183.86,64.7c-22.59-8.69-45.27-8.59-67.64.57-20,8.2-35.62,21.93-45.43,41.21C54.74,138,56.34,169.16,75.22,199.19a84.3,84.3,0,0,0,22.3,23.31c2.44,1.77,4.44,3.78,4.7,7a8.24,8.24,0,0,1-4.14,8.34c-3.34,2-6.68,1.64-9.78-.63a108.34,108.34,0,0,1-25.39-25.44c-.91-1.31-1.86-2.59-2.81-3.88-.1-.14-.3-.21-.61-.42l-16.71,8.64a126.8,126.8,0,0,0,32.49,35.21A123.23,123.23,0,0,0,133.38,275c34.92,4.52,66.71-3.73,94.69-25.19,24.82-19,40.66-44.09,47.05-74.73a124,124,0,0,0-10.67-82.56C251.8,67.09,232.6,48.06,207.32,35.22A126.49,126.49,0,0,0,176.25,24.5c-5.22-1.12-8-4.09-8.11-8.36a8.49,8.49,0,0,1,10.09-8.93,144.55,144.55,0,0,1,97.2,69.09A137.89,137.89,0,0,1,294,131.73c5.2,48.5-9.93,89.74-45.23,123.3a134.89,134.89,0,0,1-74,36.4c-50.84,7.69-94.51-7-130-44.28a135.56,135.56,0,0,1-37.41-81C3.18,126.38,12.82,90.19,38,58.76,60,31.4,88.41,14.36,122.77,7.27a8.68,8.68,0,0,1,10.35,6.48,8.4,8.4,0,0,1-6.46,10.3c-10.1,2.32-20.06,5.06-29.38,9.65C91.07,36.76,85.06,40.26,78.64,43.75ZM65.43,55c-18.34,15.84-36.8,43.62-41,78.9a124.83,124.83,0,0,0,10.17,66.87l16.71-8.68c-17.17-46.36-8.56-86.86,25.52-122.26Zm163.26,140c18.65-30.77,16.07-70.71-4-98.08l-13.57,12.2c14.65,24.71,15.8,49.54,2.8,74.92Z" transform="translate(-6.43 -7.05)"/></svg>