<svg id="图层_1" data-name="图层 1" xmlns="http://www.w3.org/2000/svg" viewBox="0 0 383.87 383.77"><defs><style>.cls-1{fill:#fff;}</style></defs><title>manufacture</title><path class="cls-1" d="M192.77,576.59V192.82H576.64V576.59Zm153.86-92.51-10,6.42c-15.24,9.77-30.52,19.48-45.71,29.33-10.53,6.83-14.12,19.3-8.92,30.16,6.48,13.5,22.84,17.5,35.63,8.51q32.34-22.74,64.49-45.74c1.94-1.38,3.27-1.63,5.21-.08,3,2.42,6.28,4.52,9.44,6.76q27.64,19.63,55.31,39.25c10.83,7.65,24.29,6.17,32.42-3.38,9.25-10.87,6.86-27.13-5.53-35.22-17.24-11.28-34.67-22.26-52-33.38-1.29-.83-2.55-1.72-4.12-2.78,19.42-13.77,38.44-27.3,57.55-40.71a4.38,4.38,0,0,1,3.66.06c32.81,15.43,65.89-4.29,76.79-30.84,11.31-27.54-2.83-55.62-31-62.37-30.4-7.29-71,16.12-69.28,57.56.08,2.13-.1,3.62-2.2,5q-35.72,22.71-71.28,45.68a3.65,3.65,0,0,1-4.65,0q-35.58-22.92-71.29-45.65c-1.86-1.18-2.18-2.5-2.3-4.56-.35-5.83-.4-11.83-1.88-17.41-7.44-28.05-37.69-46.55-66.24-40.9a44.11,44.11,0,0,0-36,44.41c.75,35.79,41.44,67.12,79.9,49.37a5.17,5.17,0,0,1,6,.56q26.5,19,53.13,37.79C344.68,482.5,345.52,483.22,346.63,484.08ZM327.38,391H442.1C441,396.64,440,402,439,407.54l11.51,2.3c.38-1.59.74-2.89,1-4.21C456.7,379.69,462,353.76,467,327.8c.52-2.64,1.65-3.34,4.05-3.77,22.39-4,37.58-16.82,43.73-38.6s.28-41.34-17.3-56c-17.42-14.53-37.17-16.49-57.9-7.36-3.59,1.58-6.86,3.89-10.38,5.93-11.09-14.91-25.78-23.15-44.43-23.17s-33.52,8.36-44.71,23.37c-1-.71-1.83-1.29-2.65-1.84-12.75-8.6-26.71-11.63-41.75-8.41-26.23,5.63-43.71,28.27-42.9,55.17.76,25.4,20.18,46.91,46.09,50.95,2.18.34,3.1,1.13,3.54,3.41,3.61,18.62,7.38,37.21,11.12,55.8,1.76,8.78,3.54,17.55,5.38,26.65l11.66-2.34C329.46,401.8,328.45,396.55,327.38,391Zm227.35,50.7c-.77.6-1.17.9-1.55,1.22-19.68,16.67-41.89,21.71-66.72,14.37a7.81,7.81,0,0,0-7.34,1.34c-7.81,5.6-15.66,11.14-23.48,16.72-.76.54-1.41,1.23-2.19,1.91l6.8,9.49c7.34-5.21,14.49-10.2,21.53-15.34a6.68,6.68,0,0,1,6.13-1.28c26.87,6.25,50.86.17,72.11-17.24.93-.76,2-1.4,3.05-2.15ZM263.85,206.05c-28,14.53-45.39,67-30.06,90.45,2.53-.87,5.13-1.75,7.7-2.66.92-.33,1.8-.75,2.67-1.12-8.73-31.66,0-57.33,26-77.27ZM239,309.9l9.13,12.52,8.95-7.94-7.68-10.6Z" transform="translate(-192.77 -192.82)"/><path d="M346.63,484.08c-1.11-.86-1.95-1.58-2.85-2.21Q317.2,463,290.65,444.08a5.17,5.17,0,0,0-6-.56c-38.46,17.75-79.15-13.58-79.9-49.37a44.11,44.11,0,0,1,36-44.41c28.55-5.65,58.8,12.85,66.24,40.9,1.48,5.58,1.53,11.58,1.88,17.41.12,2.06.44,3.38,2.3,4.56q35.7,22.72,71.29,45.65a3.65,3.65,0,0,0,4.65,0q35.58-22.93,71.28-45.68c2.1-1.34,2.28-2.83,2.2-5-1.68-41.44,38.88-64.85,69.28-57.56,28.15,6.75,42.29,34.83,31,62.37-10.9,26.55-44,46.27-76.79,30.84a4.38,4.38,0,0,0-3.66-.06c-19.11,13.41-38.13,26.94-57.55,40.71,1.57,1.06,2.83,1.95,4.12,2.78,17.35,11.12,34.78,22.1,52,33.38,12.39,8.09,14.78,24.35,5.53,35.22-8.13,9.55-21.59,11-32.42,3.38q-27.72-19.55-55.31-39.25c-3.16-2.24-6.43-4.34-9.44-6.76-1.94-1.55-3.27-1.3-5.21.08q-32.17,23-64.49,45.74c-12.79,9-29.15,5-35.63-8.51-5.2-10.86-1.61-23.33,8.92-30.16,15.19-9.85,30.47-19.56,45.71-29.33ZM251,360.78c-20.11.05-34.88,14.32-34.23,33.65,1,28,35.07,54.21,65.71,36.51,4.25-2.45,7.34-2.19,11.21.57q74.15,52.82,148.43,105.43c5.8,4.12,11.53,8.36,17.45,12.3,7.14,4.75,16.21,1.14,18-7,1.13-5.1-1.08-9.59-6.55-13.09q-52.33-33.55-104.7-67.08-33-21.11-66-42.13c-3.43-2.18-4.79-4.82-4-8.75a36.09,36.09,0,0,0,.64-6C297.39,381,276.45,360.73,251,360.78Zm145.08,106.1c4.36,2.8,8.59,5.25,12.49,8.14,2.47,1.82,4.12,1.5,6.49-.2,20.5-14.71,41.13-29.25,61.67-43.91,2.81-2,5.51-2.87,8.61-.9,19.52,12.4,43.52,7.14,58.6-12.13,11-14,12-32.2,2-44.41s-23.28-15-37.93-11.42c-24.78,6-38.74,27.32-34.83,49.29.68,3.79-.61,6.36-3.91,8.46Q434.37,442,399.57,464.46C398.45,465.18,397.37,466,396.06,466.88Zm-38.72,24.61-20.57,13.18q-19.69,12.62-39.38,25.24c-4.31,2.77-6.32,6.75-5.52,11.8s3.93,8,8.7,9.22c4.05,1.07,7.54-.3,10.86-2.66q30.18-21.51,60.41-42.93c.75-.53,1.43-1.15,2.36-1.91Z" transform="translate(-192.77 -192.82)"/><path d="M327.38,391c1.07,5.54,2.08,10.79,3.19,16.58l-11.66,2.34c-1.84-9.1-3.62-17.87-5.38-26.65-3.74-18.59-7.51-37.18-11.12-55.8-.44-2.28-1.36-3.07-3.54-3.41-25.91-4-45.33-25.55-46.09-50.95-.81-26.9,16.67-49.54,42.9-55.17,15-3.22,29-.19,41.75,8.41.82.55,1.62,1.13,2.65,1.84,11.19-15,25.93-23.39,44.71-23.37s33.34,8.26,44.43,23.17c3.52-2,6.79-4.35,10.38-5.93,20.73-9.13,40.48-7.17,57.9,7.36,17.58,14.66,23.48,34.08,17.3,56s-21.34,34.62-43.73,38.6c-2.4.43-3.53,1.13-4.05,3.77-5.07,26-10.32,51.89-15.53,77.83-.27,1.32-.63,2.62-1,4.21L439,407.54c1-5.56,2.06-10.9,3.13-16.53Zm94.34-12.47h22.82c.23-.9.45-1.62.6-2.35q5.46-27.35,10.9-54.7c1.53-7.72,2.11-8.28,9.86-8.86,1.24-.09,2.47-.35,3.71-.54,21-3.23,36.08-22.09,35.07-43.72-1-20.94-18.49-38.52-39.41-39.53-12.53-.61-23.25,3.59-32.25,12.3-3.08,3-6.13,3.56-8.61,1.4a16.9,16.9,0,0,1-3-4.21c-8.29-13.88-20.48-21.45-36.64-21.46s-28.42,7.54-36.63,21.45c-4,6.77-6.74,7.18-12.73,1.82-11.92-10.66-25.71-14-41.05-9.45-19.19,5.75-31.81,25.08-29.42,44.38,2.63,21.13,19.25,36.72,40.11,37.63,5.35.23,6.81,1.4,7.87,6.57,2,9.66,3.9,19.32,5.85,29q3,15.17,6.09,30.3h22.92c-1.65-11.68-3.28-23.14-4.94-34.89l11.82-1.73c1.79,12.39,3.54,24.46,5.3,36.63h18.83V313H391V378.6h18.56c1.79-12.27,3.56-24.43,5.35-36.74l11.79,1.78C425,355.4,423.37,366.86,421.72,378.54Z" transform="translate(-192.77 -192.82)"/><path d="M554.73,441.71l8.34,9c-1.08.75-2.12,1.39-3.05,2.15-21.25,17.41-45.24,23.49-72.11,17.24a6.68,6.68,0,0,0-6.13,1.28c-7,5.14-14.19,10.13-21.53,15.34l-6.8-9.49c.78-.68,1.43-1.37,2.19-1.91,7.82-5.58,15.67-11.12,23.48-16.72a7.81,7.81,0,0,1,7.34-1.34c24.83,7.34,47,2.3,66.72-14.37C553.56,442.61,554,442.31,554.73,441.71Z" transform="translate(-192.77 -192.82)"/><path d="M263.85,206.05l6.26,9.4c-25.94,19.94-34.68,45.61-26,77.27-.87.37-1.75.79-2.67,1.12-2.57.91-5.17,1.79-7.7,2.66C218.46,273.08,235.87,220.58,263.85,206.05Z" transform="translate(-192.77 -192.82)"/><path d="M239,309.9l10.4-6,7.68,10.6-8.95,7.94Z" transform="translate(-192.77 -192.82)"/><path class="cls-1" d="M251,360.78c25.47,0,46.41,20.2,46,44.49a36.09,36.09,0,0,1-.64,6c-.75,3.93.61,6.57,4,8.75q33.06,20.94,66,42.13,52.36,33.52,104.7,67.08c5.47,3.5,7.68,8,6.55,13.09-1.79,8.11-10.86,11.72-18,7-5.92-3.94-11.65-8.18-17.45-12.3q-74.24-52.68-148.43-105.43c-3.87-2.76-7-3-11.21-.57-30.64,17.7-64.75-8.5-65.71-36.51C216.1,375.1,230.87,360.83,251,360.78Z" transform="translate(-192.77 -192.82)"/><path class="cls-1" d="M396.06,466.88c1.31-.9,2.39-1.7,3.51-2.42q34.85-22.35,69.72-44.66c3.3-2.1,4.59-4.67,3.91-8.46-3.91-22,10.05-43.28,34.83-49.29,14.65-3.55,28-.78,37.93,11.42s8.92,30.4-2,44.41c-15.08,19.27-39.08,24.53-58.6,12.13-3.1-2-5.8-1.11-8.61.9-20.54,14.66-41.17,29.2-61.67,43.91-2.37,1.7-4,2-6.49.2C404.65,472.13,400.42,469.68,396.06,466.88Z" transform="translate(-192.77 -192.82)"/><path class="cls-1" d="M357.34,491.49l16.86,11.94c-.93.76-1.61,1.38-2.36,1.91q-30.21,21.46-60.41,42.93c-3.32,2.36-6.81,3.73-10.86,2.66-4.77-1.25-7.92-4.3-8.7-9.22s1.21-9,5.52-11.8q19.68-12.63,39.38-25.24Z" transform="translate(-192.77 -192.82)"/><path class="cls-1" d="M421.72,378.54c1.65-11.68,3.28-23.14,4.94-34.9l-11.79-1.78c-1.79,12.31-3.56,24.47-5.35,36.74H391V313H378.79v65.55H360c-1.76-12.17-3.51-24.24-5.3-36.63l-11.82,1.73c1.66,11.75,3.29,23.21,4.94,34.89H324.86q-3-15.12-6.09-30.3c-1.95-9.67-3.87-19.33-5.85-29-1.06-5.17-2.52-6.34-7.87-6.57-20.86-.91-37.48-16.5-40.11-37.63-2.39-19.3,10.23-38.63,29.42-44.38,15.34-4.6,29.13-1.21,41.05,9.45,6,5.36,8.73,5,12.73-1.82,8.21-13.91,20.46-21.47,36.63-21.45s28.35,7.58,36.64,21.46a16.9,16.9,0,0,0,3,4.21c2.48,2.16,5.53,1.58,8.61-1.4,9-8.71,19.72-12.91,32.25-12.3,20.92,1,38.42,18.59,39.41,39.53,1,21.63-14.11,40.49-35.07,43.72-1.24.19-2.47.45-3.71.54-7.75.58-8.33,1.14-9.86,8.86q-5.4,27.36-10.9,54.7c-.15.73-.37,1.45-.6,2.35Z" transform="translate(-192.77 -192.82)"/></svg>