<svg id="图层_1" data-name="图层 1" xmlns="http://www.w3.org/2000/svg" viewBox="0 0 120 120"><defs><style>.cls-1{fill:#fff;}.cls-2{fill:#606060;}</style></defs><title>mingpai</title><rect class="cls-1" x="33.27" y="38.64" width="57.92" height="33.1" rx="4" transform="translate(-18.61 35.6) rotate(-27.95)"/><path class="cls-2" d="M78.39,32.4h0L90.15,54.57,46.06,78,34.3,55.8,78.39,32.4m0-4a3.9,3.9,0,0,0-1.87.47L32.42,52.26a4,4,0,0,0-1.66,5.41L42.52,79.84A4,4,0,0,0,46.06,82a4,4,0,0,0,1.87-.47L92,58.1a4,4,0,0,0,1.66-5.4L81.92,30.53a4,4,0,0,0-3.53-2.13Z"/><polygon class="cls-2" points="87.22 53.68 47.01 75.83 37.22 56.69 77.44 34.53 87.22 53.68"/><rect class="cls-1" x="27.22" y="49.87" width="70" height="40" rx="4"/><path class="cls-2" d="M93.22,53.87v32h-62v-32h62m0-4h-62a4,4,0,0,0-4,4v32a4,4,0,0,0,4,4h62a4,4,0,0,0,4-4v-32a4,4,0,0,0-4-4Z"/><rect class="cls-2" x="34.22" y="56.77" width="56" height="26.19"/><path class="cls-1" d="M39.78,65.18c-.05.11-.12.21-.17.32a20.46,20.46,0,0,1,2.69,2.58l-.7,1a8,8,0,0,0-.74-.88v1H37.31v-.61a11.35,11.35,0,0,1-1.12,1,7.27,7.27,0,0,0-.56-1.21,10.52,10.52,0,0,0,3.09-3.54Zm2.14,7.5,0,1.11c-1.92.36-4,.72-5.48,1L36.2,73.5c.86-.11,2-.26,3.3-.46a21.56,21.56,0,0,0,1.17-3.48l1.18.24c-.35,1-.78,2.17-1.18,3.07ZM37.3,70a16.54,16.54,0,0,1,.79,2.5L37,72.84a16.91,16.91,0,0,0-.73-2.55Zm3.46-1.9A20.32,20.32,0,0,0,39,66.43a17.84,17.84,0,0,1-1.28,1.62Zm-1.47,1.51a18,18,0,0,1,.53,2.51l-1.07.27a20.76,20.76,0,0,0-.47-2.55Zm4.25,2.66h-1.1V66.16h1.1Zm2-7.11v8.44c0,.66-.13,1-.52,1.16a4.33,4.33,0,0,1-1.9.24,4,4,0,0,0-.37-1.17c.63,0,1.23,0,1.42,0s.25-.06.25-.25V65.11Z"/><path class="cls-1" d="M56.27,73.46c0,.72-.17,1.08-.64,1.29a5.42,5.42,0,0,1-2.18.23,5.7,5.7,0,0,0-.48-1.3c.68.06,1.47,0,1.69,0s.32-.09.32-.3V66.71H48.41v1.87L49,67.9c.34.36.7.76,1,1.16.13-.59.22-1.23.3-1.88l1.15.12A22,22,0,0,1,51,70.14c.38.48.72.94,1,1.3l-.78.9a10.67,10.67,0,0,0-.62-.92,7.25,7.25,0,0,1-1.38,2.32,4.73,4.73,0,0,0-.75-.54V75h-1.3V65.49h9.16Zm-7.86-.65a7,7,0,0,0,1.33-2.46c-.45-.54-.9-1.1-1.33-1.58Zm5.7-.2a10.22,10.22,0,0,0-.62-1.13,7.75,7.75,0,0,1-1.43,2.36,7.72,7.72,0,0,0-1-.69,6.56,6.56,0,0,0,1.65-2.84,18.35,18.35,0,0,0-1.36-1.65l.78-.7c.31.31.62.66.93,1,.12-.58.21-1.17.28-1.79l1.14.11A20.93,20.93,0,0,1,54,70.14a10,10,0,0,1,1,1.66Z"/><path class="cls-1" d="M57.39,73.11l.75-1a2.51,2.51,0,0,0,1.79.82c.81,0,1.36-.4,1.36-1.11s-.47-1.28-2.21-1.28V69.38c1.47,0,2-.51,2-1.23a1,1,0,0,0-1.07-1,2.29,2.29,0,0,0-1.52.71l-.81-1a3.53,3.53,0,0,1,2.4-1c1.55,0,2.61.76,2.61,2.13a1.91,1.91,0,0,1-1.35,1.84v0a2,2,0,0,1,1.61,2c0,1.48-1.29,2.34-2.82,2.34A3.41,3.41,0,0,1,57.39,73.11Z"/><path class="cls-1" d="M64.27,73.18a1,1,0,1,1,1,1A1,1,0,0,1,64.27,73.18Z"/><path class="cls-1" d="M67.37,71.05a3,3,0,0,1,3.1-3.2,2.66,2.66,0,0,1,1.77.67l-.76,1a1.41,1.41,0,0,0-.93-.4c-.93,0-1.55.75-1.55,1.9s.62,1.87,1.5,1.87a1.85,1.85,0,0,0,1.18-.48l.63,1a3,3,0,0,1-2,.74A2.91,2.91,0,0,1,67.37,71.05Z"/><path class="cls-1" d="M72.76,71.05a2.93,2.93,0,1,1,2.92,3.18A3,3,0,0,1,72.76,71.05Zm4.21,0c0-1.15-.47-1.9-1.29-1.9s-1.29.75-1.29,1.9.46,1.87,1.29,1.87S77,72.19,77,71.05Z"/><path class="cls-1" d="M79.93,68h1.3l.11.82h0a2.55,2.55,0,0,1,1.87-1,1.66,1.66,0,0,1,1.67,1.06,2.71,2.71,0,0,1,1.93-1.06c1.29,0,1.88.91,1.88,2.44v3.78H87.14V70.49c0-.94-.27-1.27-.85-1.27a1.77,1.77,0,0,0-1.17.68v4.17H83.53V70.49c0-.94-.27-1.27-.85-1.27a1.77,1.77,0,0,0-1.17.68v4.17H79.93Z"/><path class="cls-2" d="M27.22,61.38a8.72,8.72,0,1,1,8-4H37.5a10.7,10.7,0,1,0-10.28,6Z"/></svg>