<svg id="Layer_1" data-name="Layer 1" xmlns="http://www.w3.org/2000/svg" viewBox="0 0 440.73 303"><defs><style>.cls-1{font-size:51.65px;font-family:MicrosoftYaHei-Bold, Microsoft YaHei;font-weight:700;}</style></defs><title>namespace</title><path d="M428.16,112.5H83.84a48.25,48.25,0,0,0-48.2,48.2V367.3a48.25,48.25,0,0,0,48.2,48.2H428.16a48.25,48.25,0,0,0,48.2-48.2V160.7A48.25,48.25,0,0,0,428.16,112.5ZM83.84,140.05H428.16a20.68,20.68,0,0,1,20.66,20.65v27.55H63.18V160.7A20.68,20.68,0,0,1,83.84,140.05ZM428.16,388H83.84A20.68,20.68,0,0,1,63.18,367.3V215.8H448.82V367.3A20.68,20.68,0,0,1,428.16,388Z" transform="translate(-35.64 -112.5)"/><path d="M132.05,346.64H118.27a13.78,13.78,0,0,1-13.77-13.78V319.09a13.77,13.77,0,0,1,13.77-13.77h13.78a13.77,13.77,0,0,1,13.77,13.77v13.77A13.78,13.78,0,0,1,132.05,346.64Z" transform="translate(-35.64 -112.5)"/><text class="cls-1" transform="translate(139.45 226.39)">剑网3.com</text></svg>