<?xml version="1.0" encoding="iso-8859-1"?>
<!-- Generator: Adobe Illustrator 19.0.0, SVG Export Plug-In . SVG Version: 6.00 Build 0)  -->
<svg version="1.1" id="Capa_1" xmlns="http://www.w3.org/2000/svg" xmlns:xlink="http://www.w3.org/1999/xlink" x="0px" y="0px"
	 viewBox="0 0 512 512" style="enable-background:new 0 0 512 512;" xml:space="preserve">
<g>
	<g>
		<g>
			<path d="M181.237,384.909l-67.671-19.032c-3.988-1.12-8.13,1.203-9.252,5.19c-1.122,3.989,1.202,8.13,5.19,9.252l67.671,19.032
				c0.679,0.191,1.362,0.282,2.034,0.282c3.276,0,6.286-2.163,7.217-5.472C187.549,390.173,185.225,386.03,181.237,384.909z"/>
			<path d="M175.508,421.587l-69.599,9.87c-4.103,0.581-6.955,4.378-6.374,8.481c0.531,3.745,3.742,6.449,7.417,6.449
				c0.351,0,0.706-0.024,1.063-0.075l69.599-9.87c4.103-0.582,6.955-4.379,6.374-8.481
				C183.407,423.858,179.603,421.003,175.508,421.587z"/>
			<path d="M295.057,385.976c-26.657-4.888-53.69-4.889-80.344,0c-7.829,1.435-14.167,6.744-16.951,14.202s-1.48,15.62,3.492,21.836
				l11.735,14.674c10.236,12.799,25.507,20.141,41.897,20.141c16.39,0,31.66-7.341,41.896-20.141l11.734-14.674
				c4.972-6.216,6.276-14.379,3.492-21.836S302.886,387.411,295.057,385.976z M296.798,412.643l-11.734,14.674
				c-7.373,9.22-18.373,14.508-30.179,14.508c-11.806,0-22.806-5.288-30.179-14.508l-11.735-14.675
				c-2.368-2.961-1.596-6.033-1.154-7.216s1.872-4.01,5.603-4.694c12.431-2.279,24.948-3.42,37.467-3.42s25.036,1.14,37.467,3.42
				c3.729,0.684,5.159,3.51,5.602,4.693C298.394,406.609,299.166,409.681,296.798,412.643z"/>
			<path d="M509.575,91.347c-2.99-22.349-22.916-38.152-45.355-35.973c-36.237,3.516-102.105,17.241-142.746,69.381
				c-20.884-5.648-42.831-8.68-65.476-8.68s-44.592,3.032-65.476,8.68c-22.781-29.278-55.822-49.922-98.314-61.381
				c-4.001-1.079-8.116,1.29-9.196,5.289c-1.079,4,1.289,8.117,5.289,9.196c37.016,9.983,66.137,27.328,86.735,51.617
				c-6.838,2.336-13.538,4.969-20.098,7.865c-27.962-29.076-67.068-40.622-95.559-45.158c-5.685-0.903-11.526,0.622-16.026,4.191
				c-4.498,3.569-7.315,8.909-7.728,14.652c-2.053,28.536,0.229,68.933,21.808,102.678c-4.39,5.669-8.549,11.526-12.45,17.565
				c-33.716-46.397-32.01-105.635-27.69-137.933c1.914-14.308,14.666-24.424,29.036-23.03c4.123,0.395,7.789-2.62,8.189-6.742
				c0.4-4.124-2.618-7.79-6.742-8.19C25.335,53.186,5.414,68.999,2.424,91.348c-4.782,35.755-6.457,102.442,34.243,153.772
				c-20.182,36.14-31.706,77.744-31.706,121.994c0,17.013,1.716,34.027,5.101,50.567c1.328,6.489,5.105,12.072,10.634,15.722
				c4.102,2.708,8.805,4.111,13.608,4.111c1.668,0,3.351-0.169,5.022-0.512c13.395-2.742,22.062-15.87,19.319-29.263
				c-2.716-13.274-4.094-26.943-4.094-40.624c0-111.078,90.368-201.447,201.447-201.447s201.447,90.369,201.447,201.447
				c0,13.681-1.377,27.35-4.094,40.624c-2.742,13.393,5.925,26.522,19.318,29.263c1.643,0.336,3.323,0.507,4.991,0.507
				c11.715,0,21.923-8.339,24.274-19.828c0.534-2.608,1.036-5.287,1.494-7.959c0.699-4.084-2.044-7.96-6.128-8.66
				c-4.091-0.698-7.96,2.045-8.66,6.128c-0.431,2.514-0.903,5.032-1.404,7.483c-0.929,4.539-4.956,7.832-9.576,7.832
				c-0.659,0-1.326-0.068-1.981-0.202c-5.29-1.083-8.714-6.267-7.63-11.558c2.919-14.263,4.398-28.943,4.398-43.632
				c0-119.35-97.099-216.45-216.45-216.45S39.55,247.763,39.55,367.114c0,14.689,1.479,29.369,4.398,43.633
				c1.083,5.29-2.34,10.474-7.632,11.558c-2.556,0.524-5.171,0.02-7.355-1.421c-2.185-1.442-3.677-3.647-4.201-6.209
				c-3.183-15.553-4.796-31.554-4.796-47.56c0-43.263,11.711-83.836,32.113-118.739c0.012-0.019,0.022-0.039,0.034-0.058
				c6.083-10.4,12.939-20.293,20.488-29.603c0.029-0.037,0.06-0.072,0.088-0.109c22.408-27.606,50.911-50.067,83.444-65.323
				c0.018-0.008,0.035-0.017,0.053-0.025c10.818-5.07,22.079-9.344,33.711-12.742c0.002-0.001,0.004-0.001,0.006-0.002
				c20.984-6.131,43.162-9.433,66.099-9.433c35.655,0,69.48,7.961,99.816,22.177c0.018,0.008,0.036,0.017,0.054,0.025
				c32.533,15.256,61.036,37.717,83.444,65.323c0.028,0.037,0.059,0.072,0.088,0.109c7.549,9.312,14.405,19.204,20.488,29.603
				c0.012,0.019,0.022,0.039,0.034,0.058c20.402,34.902,32.113,75.477,32.113,118.739c0,4.143,3.358,7.501,7.501,7.501
				c4.143,0,7.501-3.359,7.501-7.501c0-44.251-11.524-85.854-31.706-121.994C516.033,193.79,514.357,127.104,509.575,91.347z
				 M67.541,201.467c-17.02-29.471-18.752-64.325-16.951-89.365c0.114-1.584,0.855-2.996,2.088-3.974
				c1.233-0.978,2.779-1.376,4.344-1.128c24.976,3.976,58.727,13.688,83.57,37.226C112.808,158.669,88.054,178.157,67.541,201.467z
				 M371.408,144.226c24.842-23.537,58.593-33.25,83.569-37.226c1.566-0.248,3.112,0.15,4.345,1.128
				c1.232,0.978,1.974,2.388,2.088,3.974c1.801,25.041,0.069,59.893-16.951,89.365C423.945,178.157,399.191,158.669,371.408,144.226
				z M454.565,213.704c21.58-33.745,23.861-74.143,21.808-102.678c-0.412-5.743-3.23-11.084-7.728-14.652
				s-10.339-5.094-16.027-4.191c-28.49,4.536-67.596,16.082-95.558,45.158c-6.552-2.894-13.245-5.524-20.076-7.857
				c37.465-44.029,95.972-56.004,128.685-59.178c14.373-1.397,27.121,8.723,29.036,23.03c4.32,32.298,6.026,91.535-27.691,137.933
				C463.114,225.23,458.955,219.374,454.565,213.704z"/>
			<path d="M332.592,399.352l67.67-19.032c3.988-1.121,6.312-5.264,5.19-9.252c-1.121-3.988-5.264-6.313-9.252-5.19l-67.67,19.032
				c-3.988,1.122-6.313,5.264-5.19,9.253c0.931,3.31,3.94,5.472,7.217,5.472C331.23,399.634,331.913,399.543,332.592,399.352z"/>
			<path d="M403.859,431.455l-69.601-9.87c-4.101-0.581-7.897,2.272-8.479,6.374c-0.581,4.102,2.271,7.898,6.374,8.481l69.6,9.87
				c0.357,0.051,0.712,0.075,1.063,0.075c3.676,0,6.886-2.705,7.417-6.449C410.815,435.834,407.962,432.037,403.859,431.455z"/>
		</g>
	</g>
</g>
<g>
</g>
<g>
</g>
<g>
</g>
<g>
</g>
<g>
</g>
<g>
</g>
<g>
</g>
<g>
</g>
<g>
</g>
<g>
</g>
<g>
</g>
<g>
</g>
<g>
</g>
<g>
</g>
<g>
</g>
</svg>
