<?xml version="1.0" encoding="utf-8"?>
<!-- Generator: Adobe Illustrator 22.1.0, SVG Export Plug-In . SVG Version: 6.00 Build 0)  -->
<svg version="1.1" id="Capa_1" xmlns="http://www.w3.org/2000/svg" xmlns:xlink="http://www.w3.org/1999/xlink" x="0px" y="0px"
	 viewBox="0 0 512 512" style="enable-background:new 0 0 512 512;" xml:space="preserve">
<g>
	<path d="M254.5,127.7c7.8,0,14.2-6.4,14.2-14.2V63.3c0-7.8-6.4-14.2-14.2-14.2s-14.2,6.4-14.2,14.2v50.2
		C240.3,121.4,246.7,127.7,254.5,127.7z"/>
	<path d="M176.1,151.9c5.5,5.5,14.5,5.5,20.1,0c5.5-5.5,5.5-14.5,0-20.1l-35.5-35.5c-5.5-5.5-14.5-5.5-20.1,0
		c-5.5,5.5-5.5,14.5,0,20.1L176.1,151.9z"/>
	<path d="M322.8,156c3.6,0,7.3-1.4,10-4.2l35.5-35.5c5.5-5.5,5.5-14.5,0-20.1c-5.5-5.5-14.5-5.5-20.1,0l-35.5,35.5
		C303.8,140.7,310.3,156,322.8,156L322.8,156z"/>
	<path d="M496.3,445.5l-37.9-121.2c-1.9-5.9-7.3-10-13.6-10h-66.3l-34.8-111.3c-1.9-5.9-7.3-10-13.6-10H178.7c-6.2,0-11.7,4-13.6,10
		l-34.8,111.3H64.1c-6.2,0-11.7,4-13.6,10L12.7,445.5c-2.9,9.1,4,18.4,13.6,18.4h456.6C492.3,464,499.2,454.7,496.3,445.5z
		 M189.2,221.5h130.7l29,92.8c-22.5,0-166.2,0-188.7,0L189.2,221.5z M254.5,402.1l-18.6-59.4h37.1L254.5,402.1z M45.5,435.6l29-92.8
		h131.6l29,92.8H45.5z M273.8,435.6l29-92.8h131.6l29,92.8H273.8z"/>
</g>
</svg>
