<?xml version="1.0" encoding="UTF-8"?>
<svg xmlns="http://www.w3.org/2000/svg" xmlns:xlink="http://www.w3.org/1999/xlink" version="1.1" id="Capa_1" x="0px" y="0px" viewBox="0 0 512 512" style="enable-background:new 0 0 512 512;" xml:space="preserve" width="512" height="512">
<g>
	<path style="fill:none;stroke:#000000;stroke-width:15;stroke-linecap:round;stroke-linejoin:round;stroke-miterlimit:10;" d="&#10;&#9;&#9;M164.266,393.08l246.905-206.538c20.003-16.733,35.622-38.092,45.503-62.226L504.5,7.5L387.684,55.326&#10;&#9;&#9;c-24.134,9.881-45.494,25.5-62.226,45.503L118.92,347.734"/>
	<path style="fill:none;stroke:#000000;stroke-width:15;stroke-linecap:round;stroke-linejoin:round;stroke-miterlimit:10;" d="&#10;&#9;&#9;M164.266,438.426l-90.692-90.692c-6.261-6.261-6.261-16.412,0-22.673l0,0c6.261-6.261,16.412-6.261,22.673,0l90.692,90.692&#10;&#9;&#9;c6.261,6.261,6.261,16.412,0,22.673h0C180.678,444.687,170.527,444.687,164.266,438.426z"/>
	
		<rect x="60.862" y="378.993" transform="matrix(0.7071 0.7071 -0.7071 0.7071 326.8676 65.0508)" style="fill:none;stroke:#000000;stroke-width:15;stroke-linecap:round;stroke-linejoin:round;stroke-miterlimit:10;" width="48.097" height="96.194"/>
	<path style="fill:none;stroke:#000000;stroke-width:15;stroke-linecap:round;stroke-linejoin:round;stroke-miterlimit:10;" d="&#10;&#9;&#9;M37.413,440.577c-7.472,0.501-14.811,3.474-20.522,9.185c-12.522,12.522-12.522,32.824,0,45.346&#10;&#9;&#9;c12.522,12.522,32.824,12.522,45.346,0c5.711-5.711,8.684-13.05,9.185-20.522"/>
	
		<line style="fill:none;stroke:#000000;stroke-width:15;stroke-linecap:round;stroke-linejoin:round;stroke-miterlimit:10;" x1="396.282" y1="115.718" x2="186.939" y2="325.061"/>
	
		<line style="fill:none;stroke:#000000;stroke-width:15;stroke-linecap:round;stroke-linejoin:round;stroke-miterlimit:10;" x1="79.242" y1="398.748" x2="113.252" y2="432.758"/>
	
		<line style="fill:none;stroke:#000000;stroke-width:15;stroke-linecap:round;stroke-linejoin:round;stroke-miterlimit:10;" x1="56.569" y1="421.421" x2="90.579" y2="455.431"/>
	
		<polyline style="fill:none;stroke:#000000;stroke-width:15;stroke-linecap:round;stroke-linejoin:round;stroke-miterlimit:10;" points="&#10;&#9;&#9;142.59,319.059 186.939,325.061 192.941,369.41 &#9;"/>
	
		<line style="fill:none;stroke:#000000;stroke-width:15;stroke-linecap:round;stroke-linejoin:round;stroke-miterlimit:10;" x1="322.658" y1="263.549" x2="393.08" y2="347.734"/>
	<path style="fill:none;stroke:#000000;stroke-width:15;stroke-linecap:round;stroke-linejoin:round;stroke-miterlimit:10;" d="&#10;&#9;&#9;M189.426,260.654l-88.597-74.112c-20.003-16.733-35.622-38.092-45.503-62.226L7.5,7.5l116.816,47.826&#10;&#9;&#9;c24.134,9.881,45.494,25.5,62.226,45.503l48.221,57.646"/>
	
		<line style="fill:none;stroke:#000000;stroke-width:15;stroke-linecap:round;stroke-linejoin:round;stroke-miterlimit:10;" x1="347.734" y1="393.08" x2="257.649" y2="317.723"/>
	<path style="fill:none;stroke:#000000;stroke-width:15;stroke-linecap:round;stroke-linejoin:round;stroke-miterlimit:10;" d="&#10;&#9;&#9;M358.712,382.101l-33.651,33.651c-6.261,6.261-6.261,16.412,0,22.673h0c6.261,6.261,16.412,6.261,22.673,0l90.692-90.692&#10;&#9;&#9;c6.261-6.261,6.261-16.412,0-22.673v0c-6.261-6.261-16.412-6.261-22.673,0l-35.005,35.005"/>
	
		<rect x="403.041" y="378.993" transform="matrix(-0.7071 0.7071 -0.7071 -0.7071 1031.0851 427.0894)" style="fill:none;stroke:#000000;stroke-width:15;stroke-linecap:round;stroke-linejoin:round;stroke-miterlimit:10;" width="48.097" height="96.194"/>
	<path style="fill:none;stroke:#000000;stroke-width:15;stroke-linecap:round;stroke-linejoin:round;stroke-miterlimit:10;" d="&#10;&#9;&#9;M474.587,440.577c7.472,0.501,14.811,3.474,20.522,9.185c12.522,12.522,12.522,32.824,0,45.346&#10;&#9;&#9;c-12.522,12.522-32.824,12.522-45.346,0c-5.711-5.711-8.684-13.05-9.185-20.522"/>
	
		<line style="fill:none;stroke:#000000;stroke-width:15;stroke-linecap:round;stroke-linejoin:round;stroke-miterlimit:10;" x1="291.168" y1="291.168" x2="325.061" y2="325.061"/>
	
		<line style="fill:none;stroke:#000000;stroke-width:15;stroke-linecap:round;stroke-linejoin:round;stroke-miterlimit:10;" x1="115.718" y1="115.718" x2="221.961" y2="221.961"/>
	
		<line style="fill:none;stroke:#000000;stroke-width:15;stroke-linecap:round;stroke-linejoin:round;stroke-miterlimit:10;" x1="432.758" y1="398.748" x2="398.748" y2="432.758"/>
	
		<line style="fill:none;stroke:#000000;stroke-width:15;stroke-linecap:round;stroke-linejoin:round;stroke-miterlimit:10;" x1="455.431" y1="421.421" x2="421.421" y2="455.431"/>
	
		<polyline style="fill:none;stroke:#000000;stroke-width:15;stroke-linecap:round;stroke-linejoin:round;stroke-miterlimit:10;" points="&#10;&#9;&#9;369.41,319.059 325.061,325.061 319.059,369.41 &#9;"/>
</g>















</svg>
