<?xml version="1.0" encoding="utf-8"?>
<!-- Generator: Adobe Illustrator 22.1.0, SVG Export Plug-In . SVG Version: 6.00 Build 0)  -->
<svg version="1.1" id="Capa_1" xmlns="http://www.w3.org/2000/svg" xmlns:xlink="http://www.w3.org/1999/xlink" x="0px" y="0px"
	 viewBox="0 0 512 512" style="enable-background:new 0 0 512 512;" xml:space="preserve">
<g>
	<path d="M491.9,309.6l-47.7-74.5c-4.9-7.7-16.8-0.1-11.9,7.6l47.7,74.5c3.6,5.6,1.9,13.2-3.7,16.8l-71.1,45.4
		c-5.7,3.6-13.2,2-16.8-3.7L312,256.4c-1.6-2.4-2.2-5.3-1.8-8.2l6.4-46.7c0.7-5,4.9-9,9.3-11l19.4,30.3c4.7,7.4,16.8,0.1,11.9-7.6
		l-19.4-30.2c3.7-3.2,9.1-5.3,14-3.8l45.1,13.8c2.8,0.8,5.1,2.7,6.7,5.1l8.6,13.4c4.9,7.7,16.8,0.1,11.9-7.6l-8.6-13.4
		c-3.4-5.3-8.5-9.2-14.5-11l-45.1-13.8c-9-2.7-18.3,0-25.7,5.4l-10-15.7c-7.1-11.1-19.2-17.7-32.3-17.7h-34.1l13.5-17.6
		c5.9-7.7,5.9-18.4,0-26.1l-27.5-36.1c-5.2-6.9-13.5-8.8-21.6-8.5c3.2-16.9-11.2-33.2-28.4-32.2c-14.3,0.9-25.5,12.8-25.5,27.1
		c0,1.7,0.2,3.4,0.5,5c-8.2-0.3-16.4,1.6-21.6,8.5l-27.5,36.1c-5.9,7.7-5.8,18.4,0,26.1l13.8,18c-10.9,2-19.1,11.6-19.1,23.1
		c0,8.2,4.2,15.4,10.6,19.6l-97.1,89.7c-2.5,2.3-3,6.3-1.1,9.1l109.1,166.2c-14.5,4-25.1,17.3-25.1,33v13.3c0,3.9,3.2,7.1,7.1,7.1
		h156c3.9,0,7.1-3.2,7.1-7.1v-13.3c0-15.7-10.7-29-25.1-33L335,318.6l41.5,64.8c7.7,12,24.3,15.7,36.3,8l71.1-45.4
		C495.9,338.3,499.6,321.7,491.9,309.6L491.9,309.6z M149.8,444.5L137.5,387c-1.9-8.9-15.7-6-13.8,3l5.6,26.1L41.7,282.6h58.7
		l14.2,65.3c1.9,8.9,15.7,5.9,13.8-3l-13.6-62.3H269l-35.3,161.9H149.8z M100.8,268.5H46.7l74.2-68.6L100.8,268.5z M115.5,268.5
		l24.5-84h103.7l24.6,84H115.5z M283,268.5L263,200l35.1,32.5l-1.9,13.7c-1.1,8.2,2.2,15.6,6.8,22.2H283z M308.2,162.9l10,15.6
		c-8.1,4.4-14.4,11.6-15.7,21l-2.2,15.9l-37.7-34.9c6.3-4.2,10.4-11.4,10.4-19.5c0-3.3-0.7-6.5-1.9-9.3h16.6
		C296.1,151.7,303.8,155.9,308.2,162.9z M125.6,105.2h75c9.1,0,9.1-14.1,0-14.1h-65.1l18.8-24.8c1.4-1.8,3.6-2.9,5.9-2.9h15.1
		c5.7,0,9.1-6.7,5.6-11.3c-1.7-2.3-2.6-5-2.6-7.8c0-17.2,26.9-16.6,26.1,0.6c-0.1,2.6-1,5.1-2.6,7.3c-3.4,4.6-0.1,11.3,5.6,11.3
		h15.1c2.3,0,4.5,1.1,5.9,2.9l18.8,24.8h-17.2c-9.1,0-9.1,14.1,0,14.1h27.2c0.5,2.1,0.1,4.4-1.3,6.2l-20,26.2h-89.1l-20-26.2
		C125.5,109.6,125.1,107.3,125.6,105.2z M133.8,151.7h115.9c5.2,0,9.3,4.2,9.3,9.3c0,5.2-4.2,9.3-9.3,9.3c-38.6,0-77.2,0-115.9,0
		c-5.2,0-9.3-4.2-9.3-9.3C124.5,155.9,128.6,151.7,133.8,151.7z M262.7,478.7v6.2H120.8v-6.2c0-11.1,9-20.1,20.1-20.1
		c33.9,0,67.8,0,101.8,0C253.7,458.6,262.7,467.6,262.7,478.7z M254.4,415.8l29-133.2H312l14.7,23L254.4,415.8z"/>
	<path d="M392,249.5c-5.3,3.4-9,8.4-10.9,14.2c-21.5-2.8-37.1,21.6-25.4,40c12.1,18.9,39.1,21.8,59.2,17.6c1.7-0.4,3.3-1.4,4.3-2.8
		c1-1.4,25.1-35.6,8.7-61.1C420.4,245.3,404.2,241.8,392,249.5L392,249.5z M409.5,307.9c-8.2,1.1-32.4,2.8-41.7-11.9
		c-6.4-9.9,5.4-22.8,16-17c4.8,2.7,10.9-1.2,10.5-6.7c-0.9-12.1,15.6-17.5,22.1-7.4C425.5,279.5,413.9,300.8,409.5,307.9
		L409.5,307.9z"/>
</g>
</svg>
