<?xml version="1.0" encoding="utf-8"?>
<!-- Generator: Adobe Illustrator 22.1.0, SVG Export Plug-In . SVG Version: 6.00 Build 0)  -->
<svg version="1.1" id="Capa_1" xmlns="http://www.w3.org/2000/svg" xmlns:xlink="http://www.w3.org/1999/xlink" x="0px" y="0px"
	 viewBox="0 0 512 512" style="enable-background:new 0 0 512 512;" xml:space="preserve">
<style type="text/css">
	.st0{stroke:#000000;stroke-width:10;stroke-miterlimit:10;}
</style>
<g>
	<g>
		<path d="M234.4,112.1H130.8c-4.1,0-7.5,3.4-7.5,7.5s3.4,7.5,7.5,7.5h103.6c4.1,0,7.5-3.4,7.5-7.5
			C241.9,115.4,238.6,112.1,234.4,112.1z"/>
	</g>
</g>
<g>
	<g>
		<path d="M375.3,364.4h-55.5c-4.1,0-7.5,3.4-7.5,7.5s3.4,7.5,7.5,7.5h55.5c4.1,0,7.5-3.4,7.5-7.5
			C382.8,367.7,379.4,364.4,375.3,364.4z"/>
	</g>
</g>
<g>
	<g>
		<path class="st0" d="M459.3,146.3c3.4,1.9,7.6,0.6,9.5-2.7c13.6-24.7,21.8-49.7,23.7-72.5c0.3-4.2-3.3-7.8-7.5-7.5
			c-26.5,2.2-55.6,12.9-83.5,30.2c-3-12.2-6.8-21.8-11.5-29c-7.3-11.1-16.8-16.7-28.2-16.7H58c-14.4,0-25.2,4.6-32.3,13.7
			c-13.6,17.7-6.5,45.5-6.2,46.7c0.8,3.1,3.6,5.2,6.7,5.2h61.3c6.2,39.6,5.9,95.9,5.6,147.7c-0.1,26.3-0.3,53.5,0.3,78.3
			c0.1,3.8,3.3,6.9,7.1,6.8c3.8-0.1,6.9-3.3,6.8-7.1c-0.6-24.6-0.5-51.7-0.3-77.9c0.4-62.1,0.7-121.8-8-162.2
			c-0.8-3.8-1.8-7.7-2.9-11.4c-3.1-10.5-7-19.3-11.9-25.9h277.5c12.6,0,21.6,13.1,27.3,39.9c-7.5,5.3-14.8,11-21.9,17.2
			c-15.9,13.7-30.5,29.3-43.2,46.3H138.8c-3.8,0-7,3.1-7,7c0,3.8,3.1,7,7,7h175.5c-5.1,7.9-9.8,15.9-13.8,23.9H138.8
			c-3.8,0-7,3.1-7,7s3.1,7,7,7H294c-3.4,8-6.1,16-8.2,23.9h-147c-3.8,0-7,3.1-7,7s3.1,7,7,7h143.9c-0.6,3.3-1,6.6-1.4,9.8
			l-21.5,21.5c-2.7,2.7-2.7,7.1,0,9.8c2.6,2.6,7.1,2.7,9.8,0l21.5-21.5c12.9-1.3,25.6-4.5,37.8-8.8c12.6-4.5,24.6-10.2,36.2-16.9
			c11.1-6.4,21.7-13.7,31.8-21.7c0,11.4-0.1,22.9-0.1,34.2c-0.3,50-0.6,101.6,4.5,139.5c0,0-230.5,0-230.8,0c-4.4,0-7.8,4.2-6.8,8.5
			c0,0.1,0,0.1,0,0.2c0,0,0,0.1,0,0.1c0.4,1.6,5.1,22.3-3.5,34.1c0,0-0.1,0.1-0.1,0.1c-4.9,6.7-13.7,8.7-21.6,8.7
			c-16.9-0.1-26.8-28.1-30.2-85.7c-0.2-3.8-3.5-6.8-7.4-6.5c-3.8,0.2-6.8,3.5-6.5,7.4c2.7,46,10.2,98.7,44.2,98.7h303.7
			c14.4,0,25.2-4.6,32.3-13.7c13.6-17.7,6.5-45.5,6.2-46.7c-0.8-3.1-3.6-5.2-6.7-5.2h-58.8c-5.3-37-5-89-4.7-139.4
			c0.1-15.2,0.2-30.8,0.1-46c3.9-3.5,7.7-7.1,11.4-10.8c11.6-11.6,22.2-24.1,31.3-37c2.2-3.1,1.5-7.5-1.7-9.7
			c-3.1-2.2-7.5-1.5-9.7,1.7c-8.7,12.3-18.8,24.2-29.8,35.2c-8.7,8.7-18,16.9-27.8,24.3c-23.9,18.2-49.6,31.4-73.9,37.8
			c-0.8,0.2-1.6,0.4-2.4,0.6l123.7-123.7c2.7-2.7,2.7-7.1,0-9.8c-2.7-2.7-7.1-2.7-9.8,0L298.4,247.7c0.2-0.7,0.3-1.4,0.5-2.2
			c7.1-27.2,20.7-52,37.8-74.1c0,0,0,0,0,0c0.1-0.1,0.1-0.1,0.2-0.2c15.9-20.8,34.8-39.3,55.9-54.9c27.7-20.3,57.4-33.8,84.7-37.9
			c-2.8,18.5-10,38.5-21,58.4C454.7,140.2,455.9,144.4,459.3,146.3z M84.9,99.8H32v0c-0.3-2.2-0.6-5.1-0.7-8.2
			c-0.1-6.3,0.7-15.2,5.5-21.3c4.3-5.5,11.1-8.2,20.9-8.3l4.6,0.5c0.1,0,0.1,0,0.2,0c9.2,2.4,16.4,13.4,21.4,32.9
			C84.2,96.9,84.6,98.3,84.9,99.8z M468.4,414.9c1.1,7.4,1.8,20.9-4.8,29.5c-4.3,5.6-11.3,8.3-21.2,8.3H171.2
			c8.9-11.8,8.8-27.9,7.7-37.8H468.4z"/>
	</g>
</g>
</svg>
