<?xml version="1.0" encoding="utf-8"?>
<!-- Generator: Adobe Illustrator 27.0.1, SVG Export Plug-In . SVG Version: 6.00 Build 0)  -->
<svg version="1.1" id="图层_1" xmlns="http://www.w3.org/2000/svg" xmlns:xlink="http://www.w3.org/1999/xlink" x="0px" y="0px"
	 viewBox="0 0 256 256" style="enable-background:new 0 0 256 256;" xml:space="preserve">
<style type="text/css">
	.st0{fill:#6363A5;}
	.st1{fill:#8FD5E9;}
	.st2{fill:#709AE6;}
	.st3{fill:#719AE6;}
	.st4{fill:#729BE6;}
</style>
<g>
	<g>
		<path class="st0" d="M111.3,173.4c0.2-2.4-1.7-3.9-2.6-5.9c-0.5-1.1-1.2-2.3-1.1-3.5c0.2-10,0.6-20,0.9-30.1
			c0-1.5,0.7-2.6,1.9-3.6c1.2-1,2.5-1.8,2.9-3.7c0.6-3-0.4-5-2.8-6.5c-0.5-0.3-0.9-1.3-0.9-2c0-3.5,0.3-6.9,0.3-10.4
			c0-0.7-0.4-1.6-0.9-2.1c-3-2.7-6-5.3-9.2-7.8c-1.2-1-1.7-1.9-0.8-3.3c0,0,0,0,0,0c0.1-0.1,0.2-0.2,0.3-0.4c1.4-2,2.9-4,4.3-6.1
			c0.6-0.8,1.4-1.6,1.5-2.5c0.5-4,0.3-7.9-3.1-10.9c0-0.2,0-0.4-0.1-0.5c-3.9-4.9-4.9-10.9-6.9-16.5c-0.9-2.5-1.6-5.1-2.4-7.6
			c-0.5-1.7-0.2-2.2,1.5-2.5c1.8-0.3,3.6-0.6,5.4-0.7c0.7,0,1.6,0.4,2.1,1c1.5,1.7,2.9,3.6,4.3,5.4c1.8,2.3,6.2,2,7.7-0.4
			c0.4-0.7,0.9-1.3,1.3-2c1.2-2.7,3.3-4.1,5.9-5c1.5-0.5,2-1.4,2-3c-0.1-11,0-22.1-0.2-33.1c0-2.8-0.6-5.5-0.9-8.3
			c-0.1-0.5,0-0.9,0-1.6c4.5,0,8.9,0,13.4,0c-1.7,13.8-1.4,27.7-1.3,41.6c0,2.2,0.5,3.8,3,4.5c2.9,0.8,4.3,3.2,5.8,5.5
			c0.8,1.2,0.9,3,2.9,3.2c2.7,0.2,5.1,0.1,6.6-2.7c0.8-1.5,2-2.7,3.1-4.1c0.3-0.4,0.7-1,1-1c2.6,0.2,5.1,0.5,7.7,0.9
			c0.2,0,0.4,1.5,0.2,2.1c-0.7,2.6-1.5,5.1-2.3,7.7c-0.2,0.8-0.4,1.6-0.6,2.5c-0.3,0.8-0.8,1.5-1,2.3c-1.3,4.7-3.2,9.1-6.3,13
			c-2.1,2.5-2.8,5.4-2.5,8.7c2,3.3,3.9,6.7,6,9.9c1,1.5,1,2.4-0.5,3.6c-3,2.3-5.8,4.9-8.7,7.3c-1.1,0.9-1.6,1.9-1.5,3.4
			c0.3,3.1,0.4,6.2,0.3,9.3c-0.1,1.1-0.9,2.4-1.8,3.1c-2.5,2.1-3,6.1-0.4,8c2.7,2,3.4,4.6,3.5,7.7c0.2,8.8,0.6,17.6,0.7,26.5
			c0,1.5-0.7,3-1,4.5c0,0,0,0,0,0c-0.1,0.3-0.3,0.5-0.4,0.8c-0.8,1.3-1.8,2.6-2.2,4.1c-0.2,0.8,0.2,2.2,0.8,2.9
			c1.5,1.5,3.3,2.8,5.1,4.1c1,0.7,1.7,1.5,1.7,2.7c-0.7,1.6-1.4,3.2,1,4.1c0.3,0.1,0.6,1,0.5,1.5c-1,5.7-2,11.3-3.1,17
			c-1.2,6.3-2.4,12.6-3.6,18.9c-0.2,1-0.7,2.1-1.3,3c-5.6,9.4-11.3,18.8-17,28.1c-0.3,0.4-0.6,0.8-1.1,1.5
			c-2.2-3.6-4.2-6.9-6.3-10.3c-4-6.5-8.1-13-11.9-19.7c-0.9-1.5-1.2-3.3-1.5-5c-1.4-7.4-2.8-14.7-4.2-22.1c0-0.2-0.2-0.3-0.2-0.5
			c-0.6-3.5-1.2-7-1.7-10.6c-0.1-0.7,0.4-1.5,0.9-2.1c0.3-0.4,0.9-0.6,1.4-0.8c-0.2-0.8-0.3-1.5-0.6-2.2c-0.7-1.6-0.2-2.5,1.3-3.4
			c1.9-1.1,3.5-2.6,5.2-4C110.9,175,111.1,174.1,111.3,173.4z"/>
		<path class="st1" d="M97.8,234.5c-2.2-1.1-4.5-2.2-6.6-3.4c-19.3-11.1-38.5-22.2-57.7-33.4c-8.4-4.9-12.8-12.5-12.9-22.3
			c-0.1-30.8,0-61.6-0.1-92.4c0-11.3,4.8-19.5,14.6-25.1c22.7-13,45.4-26.2,68.1-39.3c1.5-0.9,3-1.7,5.2-2.9c0,6,0.1,11.5,0,17
			c0,0.4-1.1,1-1.7,1c-0.7,0.1-1.5-0.3-2.3-0.5c-6.2-2-12.1-0.2-17.8,1.7c-3.8,1.3-6.6,4.5-7.8,8.7c-0.6,2.2-0.7,4.5-1.2,6.8
			c-0.1,0.5-0.6,1.1-1,1.3c-8.6,5-17.2,10.1-26,15c-6.5,3.6-11.4,8.6-13.5,15.8C36.4,85,36,87.9,36,90.6c-0.1,24.8,0,49.5-0.1,74.3
			c0,11.1,4.9,19.2,14.6,24.7c13.6,7.7,27.1,15.6,40.7,23.5c0.6,0.3,1.2,1.1,1.3,1.8c1.1,4.8,1.9,9.7,3,14.4
			C96.1,231.1,97.1,232.7,97.8,234.5L97.8,234.5z"/>
		<path class="st1" d="M158.4,234.4c3.2-4.5,3.4-9.6,4.5-14.4c0.4-1.9,0.7-4,1.2-5.9c0.2-0.6,0.9-1.3,1.5-1.6
			c13.9-8,27.8-15.9,41.7-24c7.3-4.3,11.6-10.8,12.5-19.3c0.2-2,0.3-4,0.3-6c0-23.8,0-47.6,0-71.4c0-6.6-1.4-12.9-5.9-17.9
			c-2.2-2.5-4.9-4.7-7.7-6.5c-5.9-3.7-12.1-7.1-18.2-10.6c-2.7-1.6-5.5-3.1-8.2-4.6c-1.1-0.6-1.6-1.2-1.4-2.7
			c0.2-1.5-0.6-3.2-0.8-4.8c-0.7-4.2-3-7.4-6.6-9.2c-2.9-1.4-6.2-1.8-9.4-2.6c-0.9-0.2-1.8-0.1-2.7-0.4c-3.1-0.9-5.8,0.7-8.7,1.1
			c-0.6,0.1-1.1,0.3-1.9,0.4c0-6,0-11.7,0-17.8c2.4,1.3,4.5,2.5,6.5,3.7c12,7,24,14,36,20.9c10,5.8,20,11.5,30,17.2
			c7.2,4.1,12.1,9.8,13.8,18c0.4,1.8,0.6,3.6,0.6,5.4c0,30.8,0,61.6,0.1,92.4c0,11.2-4.7,19.3-14.4,24.8
			c-13.2,7.5-26.3,15.1-39.4,22.6c-7.5,4.3-14.9,8.6-22.4,13C159.2,234.3,159,234.3,158.4,234.4z"/>
		<path class="st2" d="M111.3,173.4c-0.3,0.7-0.4,1.6-0.9,2c-1.6,1.4-3.3,2.9-5.2,4c-1.5,0.9-1.9,1.8-1.3,3.4
			c0.3,0.7,0.4,1.4,0.6,2.2c-0.5,0.3-1.1,0.4-1.4,0.8c-0.4,0.6-0.9,1.4-0.9,2.1c0.5,3.5,1.1,7,1.7,10.6c-15.5-3.6-28.1-11.7-38.5-24
			c5.1-1.4,8.2-4.5,8.3-9.5c0.1-4.2-2-7.4-6-9c-4.5-1.8-8.3-0.3-11.7,3.6c-1.2-3.2-2.4-6.1-3.3-9.1c-2.3-7.6-3.4-15.5-3-23.5
			c0.8-16.2,6.5-30.5,17-42.8c5.7-6.7,13.1-10.8,21.2-13.8c0.3-0.1,0.7-0.2,1.2-0.3c-9,8.6-13.5,19.2-15.4,31
			c-1.9,12,0.3,23.4,5.6,34.3c-1.7-0.4-3.8-2.2-6.5-6c-1.7-2.4-3.3-5-4.6-7.7c-1.2-2.7-2-5.5-3.3-8.3c0,1.1,0,2.2,0,3.3
			c0.4,9.7,2.5,18.9,7.2,27.5c8.3,15,20.7,24.7,37.2,29C110.2,173.4,110.8,173.3,111.3,173.4z"/>
		<path class="st2" d="M151.3,84.2c-0.4-3.2,0.4-6.2,2.5-8.7c3.1-3.8,5.1-8.2,6.3-13c0.2-0.8,0.6-1.6,1-2.3
			c4.5,2.3,9.2,4.2,13.5,6.9c6,3.7,11.1,8.4,15.6,14.2c-5.5,1.5-8.5,4.8-8.1,10.6c0.3,3.7,2.3,6.4,5.7,7.8c4.6,1.9,8.4,0.3,11.9-3.6
			c1.2,3.6,2.6,6.8,3.5,10.2c4.7,16.9,3.5,33.3-4,49.2c-4.4,9.3-10.1,17.9-19.1,23.5c-4,2.5-8.4,4.3-12.7,6.4
			c-0.3,0.1-0.6,0.1-1.1,0.1c3.5-2.4,5.7-6,7.8-9.5c6.6-11,9.2-22.8,8-35.6c-0.7-6.8-2.5-13.1-5.5-19.2c-0.2-0.3-0.3-0.7-0.4-1
			c2.3,0.7,6.1,4.5,9,9.9c2.1,3.9,3.6,8.3,5.2,12c0.3-7.1-0.7-14.7-3.3-21.9c-6.1-16.8-17.2-28.8-33.9-35.4
			C152.6,84.5,151.9,84.4,151.3,84.2z"/>
		<path class="st3" d="M152.9,181.9c0-1.3-0.7-2-1.7-2.7c-1.8-1.2-3.5-2.5-5.1-4.1c-0.6-0.6-1-2-0.8-2.9c0.4-1.4,1.4-2.7,2.2-4.1
			c0.1-0.3,0.3-0.5,0.4-0.8c0,0,0,0,0,0c0.7-0.2,1.5-0.4,2.1-0.8c7.7-5,13.9-11.5,18.4-19.5c0.2-0.3,0.4-0.6,1-0.8
			c-0.1,1.1-0.1,2.2-0.3,3.2c-2.2,11.4-6.7,21.7-14.4,30.6C154.1,180.8,153.5,181.3,152.9,181.9z"/>
		<path class="st4" d="M102,74.8c3.4,3,3.5,6.9,3.1,10.9c-0.1,0.9-0.9,1.7-1.5,2.5c-1.4,2-2.9,4.1-4.3,6.1c-0.1,0.1-0.2,0.2-0.3,0.4
			c0,0,0,0,0,0c-0.5,0.3-1.2,0.6-1.6,1c-3.8,3.7-7.1,7.8-9.8,12.5c-0.2,0.4-0.4,0.7-1,1c0-0.8,0-1.7,0.1-2.5
			c2-11.3,6.4-21.5,13.9-30.4C100.9,75.7,101.5,75.3,102,74.8z"/>
		<path class="st1" d="M97.8,234.4c0,0.1,0.1,0.1,0.1,0.2C97.9,234.6,97.8,234.5,97.8,234.4C97.8,234.5,97.8,234.4,97.8,234.4z"/>
	</g>
</g>
</svg>
