<?xml version="1.0" encoding="utf-8"?>
<!-- Generator: Adobe Illustrator 22.1.0, SVG Export Plug-In . SVG Version: 6.00 Build 0)  -->
<svg version="1.1" id="Capa_1" xmlns="http://www.w3.org/2000/svg" xmlns:xlink="http://www.w3.org/1999/xlink" x="0px" y="0px"
	 viewBox="0 0 512 512" style="enable-background:new 0 0 512 512;" xml:space="preserve">
<g>
	<path d="M459,497H52.2c-2.2,0-4.3-1-5.6-2.8c-1.3-1.7-1.8-4-1.2-6.1l5.7-21.4c3.6-13.6,15-23.6,28.6-25.8l4.4-16.6
		c3.4-12.6,13.3-22.1,25.6-25.2c-20.5-18.2-37.6-40.3-50-64.6c-15.9-31.1-23.9-64.7-23.9-99.9c0-58.7,22.9-113.9,64.4-155.5
		c41.5-41.5,96.7-64.4,155.5-64.4c18.8,0,37.5,2.4,55.6,7.1c3.8,1,6,4.8,5.1,8.6s-4.8,6-8.6,5.1c-16.9-4.4-34.4-6.6-52-6.6
		c-55,0-106.6,21.4-145.5,60.3s-60.3,90.5-60.3,145.5c0,32.9,7.5,64.3,22.4,93.4c13.9,27.2,34,51.3,58.3,69.9h24.8
		C99.1,363.6,64,302.3,64,234.8c0-44.4,15.5-87.7,43.8-121.9c2.5-3,6.9-3.4,9.9-1c3,2.5,3.4,6.9,1,9.9
		c-9.5,11.5-17.5,24.2-23.7,37.6c16.1-15.6,37.1-25.1,60.2-25.1c42.5,0,77.1,31.4,77.1,70.1c0,12.3-3.4,23.8-9.3,33.3
		c11,3.6,19.9,11.9,24.4,22.4c11.3-10.8,27.2-17.5,44.8-17.5c17.5,0,34.1,6.8,47.2,19c5.9-13.6,19.5-23.2,35.2-23.2
		c4.1,0,8.2,0.7,12.1,2c2.1-5,4-10.1,5.5-15.3c-9.7-4.7-16.3-14.7-16.3-25.9c0-13.3,9.1-24.5,21.3-27.8
		c-2.2-26.4-10.8-50.1-18.6-64.4c-31.9-30.8-75.3-49.7-123.1-49.7c-43.1,0-84.7,15.6-117.1,44.1c-2.9,2.6-7.4,2.3-10-0.6
		c-2.6-2.9-2.3-7.4,0.6-10c34.9-30.7,79.8-47.6,126.4-47.6c51.8,0,98.9,20.7,133.4,54.2c0.1,0.1,0.3,0.3,0.4,0.4
		c35.6,34.8,57.7,83.4,57.7,137c0,30.5-7.4,60.9-21.3,87.9c-1.8,3.5-6.1,4.8-9.5,3c-3.5-1.8-4.8-6.1-3-9.5
		c13.1-25.3,19.7-52.7,19.7-81.4c0-34.1-9.7-66-26.4-93.1c2.5,10.5,4.5,22.4,5.1,35.5c0.1,1.9-0.6,3.8-2,5.2
		c-1.3,1.4-3.2,2.2-5.1,2.2c-8.1,0-14.7,6.6-14.7,14.7c0,7.1,5,13.1,12,14.4c1.9,0.4,3.6,1.5,4.6,3.1c1.1,1.6,1.4,3.6,0.9,5.5
		c-2.6,10.6-6.3,20.9-11.1,30.6c-0.9,1.8-2.4,3.1-4.3,3.6c-1.9,0.6-3.9,0.3-5.6-0.6c-3.7-2.1-7.8-3.2-12.1-3.2
		c-13.3,0-24.2,10.9-24.2,24.2c0,3.1-2,5.8-4.9,6.7c-2.9,0.9-6.1-0.1-7.9-2.5c-11.2-15.4-27.8-24.2-45.5-24.2
		c-26.4,0-47.8,19-47.8,42.3c0,18.8,13.5,34.1,30,34.1c13.1,0,23.8-9.3,23.8-20.7c0-8.9-6.2-16.1-13.8-16.1c-3.9,0-7.1-3.2-7.1-7.1
		c0-3.9,3.2-7.1,7.1-7.1c15.4,0,27.9,13.6,27.9,30.2c0,19.2-17,34.8-37.9,34.8c-24.3,0-44.1-21.6-44.1-48.2c0-8.8,2.2-17.2,6.2-24.7
		c-0.8-12.9-10.8-23.2-23.6-24.5c-9.5,8.8-21.7,14-35,14c-25.6,0-46.5-19.1-46.5-42.5c0-20.2,15.1-36.6,33.6-36.6
		c3.9,0,7.1,3.2,7.1,7.1c0,3.9-3.2,7.1-7.1,7.1c-10.8,0-19.5,10.1-19.5,22.5c0,15.7,14.5,28.4,32.3,28.4c22.2,0,40.2-20.4,40.2-45.5
		c0-30.9-28.2-56-63-56c-42.4,0-77,38.7-77,86.3c0,71.4,42.4,135.4,108,163.4h139c29.4-12.5,54.9-32.8,73.9-58.7
		c2.3-3.1,6.7-3.8,9.9-1.5c3.1,2.3,3.8,6.7,1.5,9.9c-14.8,20.3-33.4,37.4-54.6,50.4h24.9c24.3-18.6,44.4-42.8,58.3-69.9
		c14.9-29.1,22.4-60.5,22.4-93.5c0-41.4-12.2-81.3-35.4-115.4c-22.6-33.3-54.1-59.1-91.1-74.5c-3.6-1.5-5.3-5.6-3.8-9.2
		c1.5-3.6,5.6-5.3,9.2-3.8c39.5,16.5,73.2,44.1,97.3,79.6c24.7,36.5,37.8,79.1,37.8,123.3c0,35.2-8.1,68.8-23.9,99.9
		c-12.4,24.3-29.5,46.3-50,64.5c12.2,3.1,22.2,12.6,25.6,25.2l4.4,16.6c13.6,2.2,24.9,12.2,28.6,25.8l5.7,21.4
		c0.6,2.1,0.1,4.4-1.2,6.1C463.3,496,461.2,497,459,497L459,497z M61.4,482.9h388.4l-3.3-12.5c-2.5-9.3-10.9-15.7-20.5-15.7H200.9
		c-3.9,0-7.1-3.2-7.1-7.1c0-3.9,3.2-7.1,7.1-7.1h216l-3.3-12.5c-2.5-9.3-10.9-15.7-20.5-15.7H118.2c-9.6,0-18,6.5-20.5,15.7
		l-3.3,12.5h78.2c3.9,0,7.1,3.2,7.1,7.1c0,3.9-3.2,7.1-7.1,7.1H85.2c-9.6,0-18,6.5-20.5,15.7L61.4,482.9z M285.6,221.8
		c-4.2,0-7.5-3.4-7.5-7.5c0-4.2,3.4-7.5,7.5-7.5s7.5,3.4,7.5,7.5C293.2,218.4,289.8,221.8,285.6,221.8z M328.3,206
		c-7.1,0-9.3-8-10.4-11.9c-1.2-4.3-2.2-9.7-3.2-14.9c-0.9-4.4-2.1-10.7-3-13.4c-2-0.8-6-1.9-8.9-2.7c-11.6-3.2-20.7-5.7-20.7-13.7
		s9.1-10.5,20.7-13.7c2.8-0.8,6.9-1.9,8.9-2.7c0.9-2.7,2.1-9,3-13.4c1-5.2,2.1-10.6,3.2-14.9c1.1-3.9,3.3-11.9,10.4-11.9
		c7.1,0,9.3,8,10.4,11.9c1.2,4.3,2.2,9.7,3.2,14.9c0.9,4.4,2.1,10.7,3,13.4c2,0.8,6,1.9,8.9,2.7c11.6,3.2,20.7,5.7,20.7,13.7
		s-9.1,10.5-20.7,13.7c-2.8,0.8-6.9,1.9-8.9,2.7c-0.9,2.7-2.1,9-3,13.4c-1,5.2-2.1,10.6-3.2,14.9C337.6,198,335.4,206,328.3,206z
		 M306.4,149.5c0.1,0,0.1,0,0.2,0.1c8.3,2.3,12.8,3.6,15.5,6.3c2.7,2.7,3.9,7.3,6.3,19.4c2.4-12.1,3.5-16.7,6.3-19.4
		c2.7-2.7,7.2-4,15.5-6.3c0.1,0,0.1,0,0.2-0.1c-0.1,0-0.1,0-0.2-0.1c-8.3-2.3-12.8-3.6-15.5-6.3c-2.7-2.7-3.9-7.3-6.3-19.4
		c-2.4,12.1-3.5,16.7-6.3,19.4c-2.7,2.7-7.2,4-15.5,6.3C306.5,149.5,306.5,149.5,306.4,149.5L306.4,149.5z M312.6,166.3
		C312.6,166.3,312.6,166.3,312.6,166.3z M360.6,191.4c-4.2,0-7.5-3.4-7.5-7.5c0-4.2,3.4-7.5,7.5-7.5c4.2,0,7.5,3.4,7.5,7.5
		C368.1,188,364.7,191.4,360.6,191.4z M173.2,116.6c-4.2,0-7.5-3.4-7.5-7.5s3.4-7.5,7.5-7.5s7.5,3.4,7.5,7.5
		S177.3,116.6,173.2,116.6z M285.6,116.1c-11.7,0-21.2-9.5-21.2-21.2s9.5-21.2,21.2-21.2c11.7,0,21.2,9.5,21.2,21.2
		S297.3,116.1,285.6,116.1z M285.6,87.8c-3.9,0-7.1,3.2-7.1,7.1s3.2,7.1,7.1,7.1c3.9,0,7.1-3.2,7.1-7.1S289.5,87.8,285.6,87.8z
		 M237.7,92.3c-4.2,0-7.5-3.4-7.5-7.5s3.4-7.5,7.5-7.5c4.2,0,7.5,3.4,7.5,7.5S241.9,92.3,237.7,92.3z"/>
</g>
</svg>
