<svg id="图层_1" data-name="图层 1" xmlns="http://www.w3.org/2000/svg" viewBox="0 0 512 374.59"><title>talent2</title><path d="M129,451a53.39,53.39,0,0,0,4.77-4.08c32.41-34.63,68.45-64.79,109.83-88.18,14.41-8.15,29.57-15,44.94-21.81-33.88,31-53.32,68.69-53.38,114.82-.06,46.38,19.37,84.2,53.43,115.41-7.36-3.23-14.85-6.23-22.08-9.73a415.62,415.62,0,0,1-97.25-65.91c-12.48-11.25-24.12-23.44-36.17-35.17-1.26-1.22-2.72-2.24-4.09-3.35Z" transform="translate(-129 -197.4)"/><path d="M641,453a53.39,53.39,0,0,0-4.77,4.08c-32.4,34.63-68.45,64.79-109.82,88.17-14.42,8.15-29.58,15-44.95,21.81,33.88-31,53.32-68.67,53.38-114.81.06-46.37-19.36-84.19-53.42-115.4,7.36,3.23,14.84,6.22,22.08,9.72a415.77,415.77,0,0,1,97.24,65.91c12.49,11.25,24.12,23.44,36.17,35.17,1.26,1.22,2.72,2.24,4.09,3.35Z" transform="translate(-129 -197.4)"/><path d="M385.2,572c-65.92.21-119.85-53.48-120.18-119.65S318.87,332,385.05,332c66,.05,119.85,53.85,119.93,119.9S451.31,571.78,385.2,572Zm-.07-45A75,75,0,1,0,310,452,75.22,75.22,0,0,0,385.13,527Z" transform="translate(-129 -197.4)"/><path d="M212.48,314.34l-15,26-65.92-37.47,15-26Z" transform="translate(-129 -197.4)"/><path d="M623.41,276.86l15,26-65.88,37.51c-5-8.64-9.89-17.07-15-26Z" transform="translate(-129 -197.4)"/><path d="M399.66,271.77h-29.4V197.4h29.4Z" transform="translate(-129 -197.4)"/><path d="M262.77,216.17l37.5,64.94-25.95,15-37.5-65Z" transform="translate(-129 -197.4)"/><path d="M507.22,216.16l25.94,15-18.77,32.52-18.7,32.41-26-15Z" transform="translate(-129 -197.4)"/><path d="M340.05,451.28c.71-24.83,21.29-44.81,45.55-44.24,25,.6,45.27,21.63,44.34,45.93-1,25-21.6,44.79-45.79,44C359.25,496.1,339.36,475.5,340.05,451.28Zm59.6,15.5V437.4H370.26v29.38Z" transform="translate(-129 -197.4)"/></svg>