<svg xmlns="http://www.w3.org/2000/svg" xml:space="preserve" width="256px" height="256px" version="1.1" style="shape-rendering:geometricPrecision; text-rendering:geometricPrecision; image-rendering:optimizeQuality; fill-rule:evenodd; clip-rule:evenodd"
viewBox="0 0 256 256"
 xmlns:xlink="http://www.w3.org/1999/xlink">
 <g id="图层_x0020_1">
  <path class="fil0" fill="#c6cbd1" d="M127.787 8.462c64.058,0 115.987,51.929 115.987,115.987 0,64.058 -51.929,115.987 -115.987,115.987 -64.058,0 -115.987,-51.929 -115.987,-115.987 0,-64.058 51.929,-115.987 115.987,-115.987zm0 19.323l80.72 46.605 -24.993 14.429 -0.77 -0.444c0.779,-2.332 -0.022,-4.608 -1.584,-6.404l-3.323 -3.823 -3.823 -3.323c-3.615,-3.143 -8.8,-2.314 -10.263,2.584l-35.964 -20.764 -37.716 21.776c-2.359,-2.021 -4.895,-3.605 -6.046,-4.185 0.435,2.358 0.88,4.631 1.126,7.026l-13.091 7.557 -24.993 -14.429 80.72 -46.605zm83.713 51.788l0 93.208 -80.721 46.604 0 -28.861 55.727 -32.173 0 -64.348 24.994 -14.43zm-86.705 139.812l-80.721 -46.604 0 -93.208 24.994 14.43 0 30.103c-2.589,0.791 -5.203,1.807 -7.796,3.049 2.726,1.093 5.345,2.315 7.796,3.739l0 27.457 10.689 6.171c-0.352,4.075 -0.535,8.193 -0.693,12.399 6.036,-0.037 13.537,-0.234 19.107,-1.767l26.624 15.37 0 28.861zm-40.622 -47.572c0.483,-9.637 0.646,-13.856 5.066,-19.812 4.276,4.61 9.062,8.275 14.471,10.623 1.188,0.516 2.402,0.966 3.642,1.348 -8,7.147 -11.836,7.272 -23.179,7.841zm43.294 -64.518c-1.415,0.93 -2.739,2.016 -3.918,3.216 -1.908,1.942 -3.412,4.158 -4.264,6.453l5.248 -5.077c1.082,-1.048 2.276,-3.175 2.934,-4.592zm12.186 -11.335c-2.089,0.336 -3.822,0.834 -5.358,1.459 1.656,0.488 3.142,0.938 5.346,1.597 0.005,-1.019 0.008,-2.037 0.012,-3.056zm11.931 -5.619l1.523 0.643 1.189 -1.168c-1.661,-0.784 -3.412,-1.478 -5.25,-2.076l2.538 2.601zm-5.835 -3.544c-2.891,-0.72 -5.972,-1.215 -9.234,-1.462 1.967,-1.532 6.277,-2.346 9.285,-3.035 -4.894,-1.981 -13.44,-2.245 -20.436,-0.013 -0.388,1.181 -1.162,3.033 -2.106,3.883 -1.243,1.121 -2.402,2.113 -3.429,3.07 7.921,-3.512 16.408,-3.764 24.725,-1.455l1.195 -0.988zm-54.942 -0.393c0.952,6.194 -1.567,16.165 -2.047,17.434 -0.48,1.269 -1.114,2.728 -3.203,7.95 -2.088,5.221 -1.922,15.263 -0.517,18.429 -3.405,-2.396 -7.601,-3.752 -11.602,-2.306 6.73,3.435 10.546,11.053 15.015,16.901 10.265,13.433 22.914,19.711 39.153,15.191 8.023,-2.233 19.687,-17.803 12.811,-23.795 -11.906,6.72 -24.713,-1.885 -25.217,-14.99 -0.367,-9.545 10.027,-19.234 20.115,-20.474 -4.116,-1.232 -5.524,-1.872 -10.813,-1.03 4.759,-3.489 8.346,-6.248 16.482,-7.056 0.5,-0.935 1.308,-1.576 2.107,-2.237 -10.183,-2.638 -25.064,-2.293 -37.979,14.811 3.846,-8.486 6.622,-11.907 16.232,-21.274 2.536,-2.471 2.029,-6.095 1.712,-8.6 -2.704,4.441 -7.649,6.858 -14.39,9.836 -5.111,2.258 -9.746,5.997 -13.159,10.719 -0.856,-3.658 -1.706,-6.952 -4.7,-9.509zm48.681 69.951c1.217,-0.501 2.418,-1.036 3.614,-1.604 -3.412,5.541 -11.654,11.719 -26.548,13.673 15.923,4.192 31.132,1.812 40.712,-8.124 -0.767,1.348 -1.566,2.781 -2.445,4.057 11.751,-6.789 27.046,-26.75 16.088,-45.985 1.851,1.506 3.4,3.335 4.711,5.828 0.086,-9.145 -2.689,-17.444 -7.973,-24.016l-3.095 3.151 5.724 5.586 -4.271 5.164c-2.091,2.529 -3.463,2.533 -6.054,2.542l-3.62 0.015c-0.068,1.21 -0.582,2.336 -1.476,3.157l-0.057 2.648c-0.054,2.529 -1.501,5.014 -4.016,5.771l0.001 0.004c-3.031,0.902 -5.507,2.742 -7.675,4.982 1.524,1.343 2.499,2.984 3.012,4.829 0.831,2.986 0.328,6.342 -1.037,9.63 -1.304,3.144 -3.333,6.157 -5.595,8.692zm-20.212 -34.489l7.67 -7.422c1.564,-1.512 3.844,-5.289 4.678,-8.091 0.177,-0.597 0.939,-1.125 1.992,-1.147l5.086 -0.109 0.28 -0.88c0.154,-0.484 0.36,-0.554 0.793,-0.556l3.275 -0.016c0.167,-0.001 0.297,-0.147 0.298,-0.306l0.028 -7.203c0.006,-1.408 -0.02,-2.131 1.093,-3.052l2.308 -1.908 5.813 5.956 14.857 -14.595 0.929 -3.634c0.364,-1.42 1.366,-1.372 2.468,-0.414l3.558 3.094 3.094 3.558c0.957,1.102 1.006,2.104 -0.414,2.467l-3.634 0.929 -14.595 14.858 5.956 5.813 -1.908 2.308c-0.921,1.113 -1.644,1.087 -3.052,1.093l-7.203 0.028c-0.16,0.001 -0.305,0.131 -0.306,0.298l-0.016 3.275c-0.002,0.432 -0.073,0.639 -0.556,0.793l-0.88 0.28 -0.108 5.085c-0.023,1.054 -0.551,1.816 -1.148,1.993 -2.802,0.834 -6.579,3.114 -8.091,4.678l-4.033 4.168c-4.612,2.289 -9.273,1.998 -13.407,-1.729 -2.376,-2.142 -4.076,-5.146 -4.661,-8.453 -0.071,-0.402 -0.126,-0.789 -0.164,-1.159z"/>
 </g>
</svg>
