<svg id="Capa_1" enable-background="new 0 0 512 512" height="512" viewBox="0 0 512 512" width="512" xmlns="http://www.w3.org/2000/svg"><g><path d="m391 196h90v285h-90z" fill="#c3ea21"/><path d="m271 256h90v225h-90z" fill="#64e1dc"/><path d="m151 316h90v165h-90z" fill="#ffda2d"/><path d="m31 376h90v105h-90z" fill="#ff80ac"/><path d="m76 376h45v105h-45z" fill="#ff3980"/><path d="m196 316h45v165h-45z" fill="#fdbf00"/><path d="m316 256h45v225h-45z" fill="#00c8c8"/><path d="m436 196h45v285h-45z" fill="#9cdd05"/><path d="m486.395 20.395-113.354 112.353-60-30-57.041 57.041-62.959 62.959-58.623-29.311-127.412 95.566 17.988 23.994 112.588-84.434 61.377 30.689 57.041-57.041 62.959-62.959 60 30 128.646-127.647z" fill="#d5e8fe"/><path d="m378.959 169.252 128.646-127.647-21.21-21.21-113.354 112.353-60-30-57.041 57.041v42.422l62.959-62.959z" fill="#b5dbff"/><path d="m512 106h-30v-60h-60v-30h90z" fill="#b5dbff"/><path d="m256 466h-256v30h256 256v-30z" fill="#5f55af"/><path d="m256 466h256v30h-256z" fill="#453d83"/></g></svg>