<svg id="Capa_1" enable-background="new 0 0 497 497" height="512" viewBox="0 0 497 497" width="512" xmlns="http://www.w3.org/2000/svg"><g><path d="m324.565 335.25-25.98 45h60.621l25.981-22.5v-22.5z" fill="#405acc"/><path d="m261.49 7.5c-5.774-10-20.207-10-25.981 0l-63.075 109.25-25.981 22.5v22.5l-37.094 64.25 25.981 45 63.076-109.25 25.981-22.5v-22.5l24.103-41.75 37.095 64.25h51.962z" fill="#4271db"/><path d="m337.556 139.25h-51.961l30.31 52.5 25.981 15 25.981-15z" fill="#405acc"/><path d="m463.707 357.75-63.075-109.25v-45h-25.981l-6.784-11.75h-51.962l32.765 56.75v45h25.981l24.104 41.75h-13.568l-25.981 45h91.511c11.547 0 18.764-12.5 12.99-22.5z" fill="#4271db"/><path d="m135.339 271-25.98-45-30.311 52.5v45h25.981z" fill="#405acc"/><path d="m98.245 335.25 6.784-11.75-25.981-45-45.755 79.25c-5.774 10 1.443 22.5 12.99 22.5h126.151l25.981 15 25.981-15h74.189l25.981-45h-126.15l-25.981-15-25.981 15z" fill="#4271db"/><path d="m224.396 116.75-25.981 45h34.641l25.98-22.5v-22.5z" fill="#3992e3"/><path d="m98.245 161.75h48.208l25.981-45h-126.151c-11.547 0-18.764 12.5-12.99 22.5l113.161 196h51.962z" fill="#2fb3ea"/><path d="m224.396 380.25h-51.962l17.321 30 25.98 15 25.981-15z" fill="#3992e3"/><path d="m348.67 248.5-17.32 30v45h25.981l17.32-30z" fill="#3992e3"/><g fill="#2fb3ea"><path d="m248.5 422-6.784-11.75h-51.962l45.755 79.25c5.774 10 20.207 10 25.981 0l95.84-166-25.981-45z"/><path d="m450.717 116.75h-191.681l-25.98 45h165.699l-24.104 41.75 25.981 45 63.075-109.25c5.774-10-1.443-22.5-12.99-22.5z"/></g></g></svg>