<?xml version="1.0" encoding="UTF-8" ?>
<!DOCTYPE svg PUBLIC "-//W3C//DTD SVG 1.1//EN" "http://www.w3.org/Graphics/SVG/1.1/DTD/svg11.dtd">
<svg width="824pt" height="979pt" viewBox="0 0 824 979" version="1.1" xmlns="http://www.w3.org/2000/svg">
<g id="#dd2e45ff">
<path fill="#dd2e45" opacity="1.00" d=" M 388.14 2.01 C 405.04 1.99 421.94 2.00 438.84 2.00 C 437.36 24.32 435.12 46.60 434.77 68.98 C 434.17 100.65 434.44 132.32 434.58 163.99 C 434.48 167.98 435.39 172.77 439.30 174.75 C 442.79 176.36 446.68 177.03 449.98 179.09 C 459.31 184.25 465.09 193.64 470.23 202.64 C 475.88 213.08 492.49 213.95 499.77 204.85 C 505.16 198.17 510.33 191.31 515.54 184.48 C 517.27 182.11 519.80 179.92 522.92 180.04 C 528.01 180.33 532.94 181.89 538.05 182.14 C 541.57 182.66 545.64 182.03 548.61 184.39 C 550.91 186.41 550.35 189.81 549.62 192.44 C 546.66 202.73 543.75 213.04 540.21 223.15 C 539.55 225.36 538.54 227.95 539.94 230.08 C 541.54 232.30 544.32 233.10 546.70 234.20 C 586.68 250.82 622.11 277.81 649.44 311.33 C 640.22 313.94 630.97 318.26 624.98 326.01 C 617.40 335.84 616.45 349.59 620.12 361.15 C 624.87 375.61 640.26 384.43 654.97 384.58 C 666.92 384.54 677.20 377.06 684.92 368.56 C 691.85 383.13 696.57 398.66 700.74 414.22 C 712.09 457.81 712.63 504.38 700.59 547.88 C 695.02 568.39 686.92 588.18 676.93 606.92 C 669.09 621.56 660.32 635.79 649.63 648.54 C 626.43 676.68 594.78 697.60 560.02 708.50 C 582.91 685.43 600.13 656.82 609.69 625.76 C 622.21 585.55 623.79 541.77 612.55 501.08 C 608.66 486.59 603.23 472.55 596.80 459.00 C 610.57 468.48 622.24 481.12 630.07 495.92 C 637.87 510.77 643.46 526.61 649.86 542.08 C 653.12 499.81 641.45 457.19 620.25 420.74 C 594.11 375.76 552.37 338.64 502.18 323.21 C 502.68 327.24 504.36 331.05 506.50 334.47 C 512.29 343.27 518.18 352.02 524.40 360.54 C 525.93 362.72 527.70 365.15 527.38 367.98 C 526.85 370.52 524.76 372.25 522.86 373.81 C 511.81 382.75 501.17 392.19 490.18 401.20 C 486.07 404.09 483.42 408.89 483.80 413.99 C 484.65 426.00 485.44 438.06 484.88 450.12 C 484.69 455.23 481.13 459.38 477.49 462.61 C 470.89 468.53 467.69 478.89 471.91 487.06 C 474.24 491.94 479.57 494.16 482.72 498.38 C 487.99 504.62 489.66 513.01 489.81 520.98 C 490.55 554.32 492.01 587.64 492.60 620.98 C 492.71 627.87 490.74 634.54 489.62 641.30 C 522.78 621.69 550.17 592.82 568.70 559.11 C 569.14 559.26 570.02 559.56 570.46 559.71 C 564.74 606.00 545.99 650.97 515.55 686.48 C 512.56 690.17 508.79 693.35 506.82 697.78 C 505.86 700.05 504.28 702.48 505.18 705.03 C 505.52 707.12 507.91 707.51 509.39 708.57 C 512.80 710.35 514.20 714.51 513.63 718.16 C 507.90 749.56 501.40 780.82 495.21 812.13 C 492.59 825.71 490.21 839.33 487.47 852.89 C 486.78 856.53 485.09 859.87 483.19 863.02 C 463.39 895.92 443.53 928.78 423.65 961.63 C 420.42 966.85 417.54 972.33 413.50 977.00 C 391.07 939.96 367.88 903.38 345.98 866.02 C 341.34 858.39 339.59 849.51 337.84 840.87 C 332.58 814.96 327.92 788.94 322.63 763.04 C 321.88 759.50 318.48 757.19 315.09 756.60 C 266.55 743.80 221.72 717.27 187.47 680.53 C 183.43 675.87 178.66 671.71 175.57 666.33 C 184.63 663.59 193.68 659.22 199.56 651.55 C 206.25 642.99 207.63 631.33 205.60 620.91 C 203.88 612.26 198.43 604.57 191.05 599.81 C 183.42 594.84 174.04 591.49 164.87 593.42 C 154.87 595.52 146.72 602.22 139.40 608.99 C 132.11 593.49 126.95 577.05 122.73 560.48 C 115.36 530.67 113.00 499.57 116.40 469.02 C 120.40 432.54 132.45 397.15 150.10 365.05 C 165.26 337.55 185.86 312.68 211.78 294.70 C 228.20 283.11 246.66 274.71 265.73 268.53 C 242.45 290.97 225.03 319.32 215.36 350.17 C 204.30 385.15 200.91 422.83 207.90 458.98 C 211.75 479.75 218.76 499.84 227.71 518.94 C 219.18 512.74 211.30 505.60 204.68 497.38 C 190.16 479.36 183.63 456.74 174.61 435.80 C 172.23 457.06 175.77 478.50 180.95 499.09 C 186.70 521.09 195.32 542.42 207.14 561.88 C 223.78 588.74 245.79 612.42 272.00 630.14 C 295.17 645.85 321.46 656.73 348.71 662.96 C 350.59 656.34 346.84 650.09 342.45 645.47 C 335.76 638.05 334.14 627.64 334.59 618.00 C 335.97 582.98 337.17 547.96 338.28 512.94 C 338.39 507.57 340.79 502.29 344.94 498.85 C 348.85 495.54 353.45 492.54 355.48 487.61 C 358.28 480.42 358.04 471.37 352.64 465.42 C 349.42 461.30 343.18 459.45 342.59 453.57 C 341.96 439.71 343.72 425.84 343.27 411.99 C 343.37 408.26 340.95 405.03 338.20 402.77 C 332.90 398.45 327.80 393.88 322.33 389.77 C 316.37 384.05 309.90 378.88 303.76 373.36 C 302.01 371.75 299.96 369.61 300.69 367.00 C 301.42 364.07 303.03 361.48 304.30 358.77 C 284.57 375.46 268.09 395.93 255.80 418.66 C 255.40 418.41 254.60 417.92 254.20 417.67 C 255.16 406.29 257.78 395.11 260.63 384.08 C 269.60 350.22 285.83 318.23 308.53 291.50 C 309.99 289.68 311.89 287.66 311.55 285.12 C 311.52 282.04 309.00 279.93 307.59 277.42 C 297.19 260.99 293.54 241.61 287.38 223.44 C 283.66 213.10 280.51 202.56 277.22 192.07 C 276.49 189.65 275.77 186.04 278.54 184.62 C 282.71 182.72 287.44 182.76 291.88 181.82 C 298.24 180.97 305.75 179.24 311.14 183.84 C 317.96 190.76 323.05 199.16 329.43 206.46 C 336.04 212.57 347.08 212.49 354.20 207.29 C 360.56 201.82 362.35 192.98 368.13 187.02 C 372.96 181.68 379.55 178.40 386.30 176.20 C 390.66 174.92 393.00 170.30 392.61 165.96 C 392.28 123.98 392.48 82.00 391.94 40.01 C 391.83 27.25 389.49 14.67 388.14 2.01 Z" />
</g>
<g id="#000000ff">
<path fill="#000000" opacity="1.00" d=" M 320.99 69.01 C 326.02 66.13 330.98 63.11 336.19 60.56 C 338.00 69.93 337.58 79.51 337.71 89.00 C 338.37 97.64 337.62 106.32 338.32 114.95 C 338.20 119.26 338.73 123.64 337.98 127.90 C 337.38 130.76 333.87 131.67 331.46 130.52 C 320.43 126.52 308.60 124.62 296.89 125.54 C 286.04 126.26 275.38 128.65 264.94 131.59 C 259.36 133.21 253.60 134.54 248.53 137.50 C 238.30 143.24 230.85 153.15 226.84 164.05 C 223.38 173.30 223.46 183.33 221.40 192.90 C 220.90 196.09 218.15 198.07 215.55 199.57 C 182.87 218.60 150.13 237.55 117.31 256.35 C 101.48 265.05 87.04 276.93 77.42 292.39 C 66.73 309.17 62.50 329.25 62.35 348.94 C 62.31 439.31 62.34 529.67 62.33 620.04 C 62.17 635.79 62.70 651.88 67.90 666.91 C 73.75 685.24 85.74 701.33 101.09 712.83 C 110.10 719.89 120.39 725.01 130.21 730.82 C 176.75 757.58 223.17 784.55 269.75 811.23 C 273.78 813.22 277.47 816.50 278.35 821.11 C 281.30 836.52 284.15 851.95 287.71 867.23 C 288.88 872.22 289.91 877.27 291.81 882.06 C 293.90 887.34 296.54 892.39 298.68 897.66 C 262.89 877.43 227.42 856.62 191.77 836.15 C 148.64 811.30 105.58 786.32 62.44 761.50 C 48.63 753.94 35.12 745.18 24.97 732.96 C 12.55 718.76 5.19 700.58 2.91 681.94 C 1.61 673.04 2.07 664.03 2.00 655.07 C 2.00 544.05 2.00 433.03 2.00 322.02 C 2.07 314.97 1.72 307.90 2.55 300.88 C 4.41 281.23 11.82 261.89 24.83 246.91 C 33.66 236.51 44.74 228.21 56.62 221.60 C 144.74 170.73 232.86 119.86 320.99 69.01 Z" />
<path fill="#000000" opacity="1.00" d=" M 490.28 130.92 C 490.41 107.99 490.29 85.06 490.34 62.12 C 507.89 71.58 524.94 81.92 542.27 91.77 C 613.28 132.77 684.26 173.82 755.38 214.64 C 765.17 220.33 775.29 225.62 784.11 232.80 C 795.23 241.78 805.01 252.77 811.22 265.75 C 819.79 282.40 822.56 301.47 822.00 320.03 C 822.00 436.35 822.00 552.67 822.00 669.00 C 821.60 686.82 817.52 704.87 808.24 720.23 C 800.45 733.34 789.30 744.27 776.55 752.54 C 769.22 757.34 761.46 761.43 753.93 765.89 C 684.42 806.04 614.89 846.16 545.35 886.27 C 539.94 889.29 534.72 892.70 529.03 895.20 C 535.76 883.72 539.87 870.92 542.39 857.91 C 545.02 845.12 546.40 832.08 549.59 819.41 C 550.47 815.59 553.27 812.57 556.64 810.72 C 606.21 782.26 655.54 753.40 705.23 725.16 C 719.67 717.31 733.08 707.14 743.08 694.00 C 756.90 676.14 762.88 653.31 763.01 630.98 C 762.98 605.97 763.01 580.96 763.00 555.94 C 763.17 540.94 762.41 525.95 762.67 510.94 C 762.66 494.65 762.67 478.35 762.66 462.06 C 763.35 433.04 762.84 404.00 763.00 374.96 C 762.77 357.57 764.10 339.93 760.17 322.83 C 756.28 304.85 747.18 287.92 733.77 275.25 C 722.15 263.19 706.91 255.81 692.63 247.50 C 664.67 231.42 636.78 215.22 608.83 199.13 C 606.10 197.85 604.75 194.79 605.16 191.87 C 606.64 178.55 602.49 165.05 595.29 153.90 C 590.11 145.85 583.03 138.70 574.17 134.83 C 566.30 131.50 557.77 130.33 549.44 128.75 C 541.98 127.49 534.72 124.69 527.05 124.98 C 516.01 124.52 505.20 127.38 494.79 130.72 C 493.32 131.31 491.78 131.17 490.28 130.92 Z" />
</g>
</svg>
