<?xml version="1.0" encoding="UTF-8" standalone="no"?>
<!-- Created with Inkscape (http://www.inkscape.org/) -->

<svg
   version="1.1"
   id="svg1023"
   xml:space="preserve"
   width="682.66669"
   height="682.66669"
   viewBox="0 0 682.66669 682.66669"
   xmlns="http://www.w3.org/2000/svg"
   xmlns:svg="http://www.w3.org/2000/svg"><defs
     id="defs1027"><clipPath
       clipPathUnits="userSpaceOnUse"
       id="clipPath1037"><path
         d="M 0,512 H 512 V 0 H 0 Z"
         id="path1035" /></clipPath></defs><g
     id="g1029"
     transform="matrix(1.3333333,0,0,-1.3333333,0,682.66667)"><g
       id="g1031"><g
         id="g1033"
         clip-path="url(#clipPath1037)"><g
           id="g1039"
           transform="translate(66.0327,58.188)"><path
             d="M 0,0 C -32.275,0 -58.533,26.258 -58.533,58.533 V 381.77 c 0,32.275 26.258,58.533 58.533,58.533 h 323.238 c 32.275,0 58.533,-26.258 58.533,-58.533 V 58.533 C 381.771,26.258 355.513,0 323.238,0 Z"
             style="fill:#ebab84;fill-opacity:1;fill-rule:nonzero;stroke:none"
             id="path1041" /></g><g
           id="g1043"
           transform="translate(234.6504,58.188)"><path
             d="m 0,0 h 154.62 c 32.276,0 58.533,26.258 58.533,58.533 v 225.87 c -17.618,13.35 -39.559,21.281 -63.318,21.281 C 93.417,305.684 47.243,260.972 44.886,205.123 26.016,193.417 13.424,172.512 13.424,148.72 13.424,124.985 25.958,104.122 44.751,92.4 41.778,75.948 37.44,55.228 32.482,35.792 17.169,29.376 5.162,16.485 0,0"
             style="fill:#e88a6e;fill-opacity:1;fill-rule:nonzero;stroke:none"
             id="path1045" /></g><g
           id="g1047"
           transform="translate(389.27,94.9868)"><path
             d="m 0,0 h -323.237 c -12.004,0 -21.734,9.731 -21.734,21.734 v 323.238 c 0,12.003 9.73,21.734 21.734,21.734 H 0 c 12.004,0 21.734,-9.731 21.734,-21.734 V 21.734 C 21.734,9.731 12.004,0 0,0"
             style="fill:#fff1cf;fill-opacity:1;fill-rule:nonzero;stroke:none"
             id="path1049" /></g><g
           id="g1051"
           transform="translate(389.27,94.9868)"><path
             d="m 0,0 c 12.004,0 21.734,9.731 21.734,21.734 v 243.753 c -8.475,2.213 -17.36,3.398 -26.519,3.398 -56.418,0 -102.591,-44.712 -104.948,-100.561 -18.871,-11.705 -31.462,-32.611 -31.462,-56.403 0,-23.735 12.533,-44.598 31.326,-56.32 C -112.791,39.433 -117.033,19.143 -121.884,0 Z"
             style="fill:#ffe1bd;fill-opacity:1;fill-rule:nonzero;stroke:none"
             id="path1053" /></g><path
           d="M 135.975,186.663 H 44.299 v 91.677 h 91.676 z"
           style="fill:#495560;fill-opacity:1;fill-rule:nonzero;stroke:none"
           id="path1055" /><path
           d="m 319.328,186.663 h -91.677 v 91.677 h 91.677 z"
           style="fill:#495560;fill-opacity:1;fill-rule:nonzero;stroke:none"
           id="path1057" /><g
           id="g1059"
           transform="translate(319.3281,278.3398)"><path
             d="m 0,0 h -38.065 c -0.925,-4.899 -1.511,-9.917 -1.727,-15.029 -18.87,-11.705 -31.461,-32.611 -31.461,-56.403 0,-7.058 1.116,-13.859 3.167,-20.245 H 0 Z"
             style="fill:#3b4456;fill-opacity:1;fill-rule:nonzero;stroke:none"
             id="path1061" /></g><path
           d="m 227.651,94.987 h -91.676 v 91.676 h 91.676 z"
           style="fill:#495560;fill-opacity:1;fill-rule:nonzero;stroke:none"
           id="path1063" /><g
           id="g1065"
           transform="translate(389.27,94.9868)"><path
             d="M 0,0 H -69.942 V 91.676 H 21.734 V 21.734 C 21.734,9.731 12.004,0 0,0"
             style="fill:#495560;fill-opacity:1;fill-rule:nonzero;stroke:none"
             id="path1067" /></g><g
           id="g1069"
           transform="translate(135.9751,370.0161)"><path
             d="m 0,0 h -91.676 v 69.942 c 0,12.004 9.73,21.735 21.734,21.735 l 69.942,0 z"
             style="fill:#495560;fill-opacity:1;fill-rule:nonzero;stroke:none"
             id="path1071" /></g><path
           d="m 319.328,370.016 h -91.677 v 91.677 h 91.677 z"
           style="fill:#495560;fill-opacity:1;fill-rule:nonzero;stroke:none"
           id="path1073" /><path
           d="m 227.651,278.34 h -91.676 v 91.676 h 91.676 z"
           style="fill:#495560;fill-opacity:1;fill-rule:nonzero;stroke:none"
           id="path1075" /><path
           d="m 411.004,278.34 h -91.676 v 91.676 h 91.676 z"
           style="fill:#495560;fill-opacity:1;fill-rule:nonzero;stroke:none"
           id="path1077" /><g
           id="g1079"
           transform="translate(411.0044,360.4741)"><path
             d="m 0,0 c -8.475,2.213 -17.361,3.398 -26.519,3.398 -24.593,0 -47.238,-8.498 -65.157,-22.709 V -82.134 H 0 Z"
             style="fill:#3b4456;fill-opacity:1;fill-rule:nonzero;stroke:none"
             id="path1081" /></g><g
           id="g1083"
           transform="translate(473.7148,63.146)"><path
             d="M 0,0 C -11.395,38.022 -22.195,94.229 -23.464,112.747 H -154.995 C -156.264,94.229 -167.065,38.022 -178.459,0 Z"
             style="fill:#ebab84;fill-opacity:1;fill-rule:nonzero;stroke:none"
             id="path1085" /></g><g
           id="g1087"
           transform="translate(488.689,13.5088)"><path
             d="m 0,0 h -208.408 c -10.145,0 -17.663,9.423 -15.409,19.315 l 2.963,13.004 c 2.309,10.131 11.318,17.318 21.708,17.318 H -9.262 c 10.39,0 19.399,-7.187 21.708,-17.318 L 15.409,19.315 C 17.664,9.423 10.146,0 0,0"
             style="fill:#fbda8a;fill-opacity:1;fill-rule:nonzero;stroke:none"
             id="path1089" /></g><g
           id="g1091"
           transform="translate(454.2187,258.8286)"><path
             d="m 0,0 c 0,-38.513 -31.221,-69.733 -69.733,-69.733 -38.514,0 -69.734,31.22 -69.734,69.733 0,38.513 31.22,69.734 69.734,69.734 C -31.221,69.734 0,38.513 0,0"
             style="fill:#ebab84;fill-opacity:1;fill-rule:nonzero;stroke:none"
             id="path1093" /></g><g
           id="g1095"
           transform="translate(454.6748,145.6274)"><path
             d="M 0,0 C -2.379,12.775 -3.982,23.812 -4.424,30.266 H -135.955 C -136.397,23.812 -138,12.775 -140.379,0 Z"
             style="fill:#e88a6e;fill-opacity:1;fill-rule:nonzero;stroke:none"
             id="path1097" /></g><g
           id="g1099"
           transform="translate(454.5713,237.9224)"><path
             d="m 0,0 h -140.172 c -17.129,0 -31.015,-13.886 -31.015,-31.015 0,-17.129 13.886,-31.014 31.015,-31.014 H 0 c 17.129,0 31.015,13.885 31.015,31.014 C 31.015,-13.886 17.129,0 0,0"
             style="fill:#fbda8a;fill-opacity:1;fill-rule:nonzero;stroke:none"
             id="path1101" /></g><g
           id="g1103"
           transform="translate(314.3989,237.9224)"><path
             d="m 0,0 c -17.129,0 -31.015,-13.886 -31.015,-31.015 0,-17.129 13.886,-31.014 31.015,-31.014 H 51.925 C 35.435,-48.646 30.992,-18.646 39.542,0 Z"
             style="fill:#fec172;fill-opacity:1;fill-rule:nonzero;stroke:none"
             id="path1105" /></g><g
           id="g1107"
           transform="translate(435.2866,13.5088)"><path
             d="m 0,0 h -155.005 c -10.146,0 -17.664,9.423 -15.41,19.315 l 2.964,13.004 c 2.308,10.131 11.317,17.318 21.708,17.318 H 44.14 c 10.391,0 19.4,-7.187 21.708,-17.318 L 68.812,19.315 C 71.066,9.423 63.548,0 53.402,0 H 36.117"
             style="fill:none;stroke:#000000;stroke-width:15;stroke-linecap:round;stroke-linejoin:round;stroke-miterlimit:10;stroke-dasharray:none;stroke-opacity:1"
             id="path1109" /></g><g
           id="g1111"
           transform="translate(454.5713,237.9224)"><path
             d="m 0,0 h -140.172 c -17.129,0 -31.015,-13.886 -31.015,-31.015 0,-17.129 13.886,-31.014 31.015,-31.014 H 0 c 17.129,0 31.015,13.885 31.015,31.014 C 31.015,-13.886 17.129,0 0,0 Z"
             style="fill:none;stroke:#000000;stroke-width:15;stroke-linecap:round;stroke-linejoin:round;stroke-miterlimit:10;stroke-dasharray:none;stroke-opacity:1"
             id="path1113" /></g><g
           id="g1115"
           transform="translate(318.7197,175.8931)"><path
             d="M 0,0 C -1.269,-18.519 -12.07,-74.725 -23.464,-112.747"
             style="fill:none;stroke:#000000;stroke-width:15;stroke-linecap:round;stroke-linejoin:round;stroke-miterlimit:10;stroke-dasharray:none;stroke-opacity:1"
             id="path1117" /></g><g
           id="g1119"
           transform="translate(473.7148,63.146)"><path
             d="M 0,0 C -11.395,38.022 -22.195,94.229 -23.464,112.747"
             style="fill:none;stroke:#000000;stroke-width:15;stroke-linecap:round;stroke-linejoin:round;stroke-miterlimit:10;stroke-dasharray:none;stroke-opacity:1"
             id="path1121" /></g><g
           id="g1123"
           transform="translate(451.0264,237.9224)"><path
             d="m 0,0 c 2.072,6.601 3.192,13.623 3.192,20.907 0,38.512 -31.22,69.733 -69.733,69.733 -38.513,0 -69.734,-31.221 -69.734,-69.733 0,-7.284 1.121,-14.306 3.192,-20.907"
             style="fill:none;stroke:#000000;stroke-width:15;stroke-linecap:round;stroke-linejoin:round;stroke-miterlimit:10;stroke-dasharray:none;stroke-opacity:1"
             id="path1125" /></g><g
           id="g1127"
           transform="translate(411.0044,323.3286)"><path
             d="m 0,0 v 116.63 c 0,12.003 -9.73,21.734 -21.734,21.734 h -323.237 c -12.004,0 -21.735,-9.731 -21.735,-21.734 v -323.237 c 0,-12.004 9.731,-21.735 21.735,-21.735 h 237.705"
             style="fill:none;stroke:#000000;stroke-width:15;stroke-linecap:round;stroke-linejoin:round;stroke-miterlimit:10;stroke-dasharray:none;stroke-opacity:1"
             id="path1129" /></g><g
           id="g1131"
           transform="translate(86.1831,498.4917)"><path
             d="m 0,0 h -20.15 c -32.275,0 -58.533,-26.258 -58.533,-58.534 v -323.237 c 0,-32.275 26.258,-58.533 58.533,-58.533 h 209.513"
             style="fill:none;stroke:#000000;stroke-width:15;stroke-linecap:round;stroke-linejoin:round;stroke-miterlimit:10;stroke-dasharray:none;stroke-opacity:1"
             id="path1133" /></g><g
           id="g1135"
           transform="translate(447.8032,288.0415)"><path
             d="m 0,0 v 151.917 c 0,32.275 -26.257,58.533 -58.533,58.533 h -267.64"
             style="fill:none;stroke:#000000;stroke-width:15;stroke-linecap:round;stroke-linejoin:round;stroke-miterlimit:10;stroke-dasharray:none;stroke-opacity:1"
             id="path1137" /></g><g
           id="g1139"
           transform="translate(44.2988,370.0161)"><path
             d="M 0,0 H 366.706"
             style="fill:none;stroke:#000000;stroke-width:15;stroke-linecap:round;stroke-linejoin:round;stroke-miterlimit:10;stroke-dasharray:none;stroke-opacity:1"
             id="path1141" /></g><g
           id="g1143"
           transform="translate(135.9751,461.6929)"><path
             d="M 0,0 V -366.706"
             style="fill:none;stroke:#000000;stroke-width:15;stroke-linecap:round;stroke-linejoin:round;stroke-miterlimit:10;stroke-dasharray:none;stroke-opacity:1"
             id="path1145" /></g><g
           id="g1147"
           transform="translate(227.6514,461.6929)"><path
             d="M 0,0 V -366.706"
             style="fill:none;stroke:#000000;stroke-width:15;stroke-linecap:round;stroke-linejoin:round;stroke-miterlimit:10;stroke-dasharray:none;stroke-opacity:1"
             id="path1149" /></g><g
           id="g1151"
           transform="translate(319.3281,283.6807)"><path
             d="M 0,0 V 178.012"
             style="fill:none;stroke:#000000;stroke-width:15;stroke-linecap:round;stroke-linejoin:round;stroke-miterlimit:10;stroke-dasharray:none;stroke-opacity:1"
             id="path1153" /></g><g
           id="g1155"
           transform="translate(44.2988,186.6631)"><path
             d="M 0,0 H 246.614"
             style="fill:none;stroke:#000000;stroke-width:15;stroke-linecap:round;stroke-linejoin:round;stroke-miterlimit:10;stroke-dasharray:none;stroke-opacity:1"
             id="path1157" /></g><g
           id="g1159"
           transform="translate(317.5386,278.3398)"><path
             d="M 0,0 H -273.24"
             style="fill:none;stroke:#000000;stroke-width:15;stroke-linecap:round;stroke-linejoin:round;stroke-miterlimit:10;stroke-dasharray:none;stroke-opacity:1"
             id="path1161" /></g></g></g></g></svg>
