<svg height="447pt" viewBox="0 -18 447.76 447" width="447pt" xmlns="http://www.w3.org/2000/svg"><path d="m447.761719 40.378906v316.050782c-.085938 29.761718-24.191407 53.863281-53.953125 53.949218h-350.648438c23.800782-.078125 43.078125-19.355468 43.148438-43.160156v-326.839844c0-22.089844 17.910156-40 40-40h281.453125c22.089843 0 40 17.910156 40 40zm0 0" fill="#00efd1"/><g fill="#00acea"><path d="m86.308594 207.488281v159.730469c0 23.835938-19.320313 43.15625-43.152344 43.15625-23.835938 0-43.15625-19.320312-43.15625-43.15625v-119.730469c0-22.089843 17.910156-40 40-40zm0 0"/><path d="m371.839844 294.855469h-210.398438c-5.523437 0-10-4.480469-10-10 0-5.523438 4.476563-10 10-10h210.398438c5.523437 0 10 4.476562 10 10 0 5.519531-4.476563 10-10 10zm0 0"/><path d="m371.839844 214.855469h-210.398438c-5.523437 0-10-4.480469-10-10 0-5.523438 4.476563-10 10-10h210.398438c5.523437 0 10 4.476562 10 10 0 5.519531-4.476563 10-10 10zm0 0"/><path d="m271.839844 124.855469h-110.398438c-5.523437 0-10-4.480469-10-10 0-5.523438 4.476563-10 10-10h110.398438c5.523437 0 10 4.476562 10 10 0 5.519531-4.476563 10-10 10zm0 0"/></g></svg>