<svg xmlns="http://www.w3.org/2000/svg" viewBox="0 0 511.999 511.999" svg-inline="" role="presentation" focusable="false" tabindex="-1"><linearGradient id="a" gradientUnits="userSpaceOnUse" x1="35.029" y1="257.313" x2="478.029" y2="257.313" gradientTransform="matrix(.9983 0 0 -.9983 -.085 512.866)"><stop offset="0" stop-color="#00f2fe"></stop><stop offset=".021" stop-color="#03effe"></stop><stop offset=".293" stop-color="#24d2fe"></stop><stop offset=".554" stop-color="#3cbdfe"></stop><stop offset=".796" stop-color="#4ab0fe"></stop><stop offset="1" stop-color="#4facfe"></stop></linearGradient><path d="M104.967 511.999l-.313-.001c-38.47-.21-69.77-31.983-69.77-70.829V70.058c0-25.691 13.39-48.512 35.819-61.041 22.429-12.531 48.88-11.971 70.758 1.497l302.4 186.405c20.869 12.848 33.305 35.16 33.255 59.678-.05 24.52-12.576 46.781-33.507 59.55L224.997 449.999c-9.405 5.758-21.695 2.802-27.452-6.602-5.758-9.404-2.802-21.694 6.602-27.452l218.639-133.869c9.139-5.576 14.378-14.886 14.4-25.56.022-10.673-5.179-20.004-14.268-25.601L120.517 44.511c-9.374-5.771-20.718-6.011-30.339-.636-9.62 5.375-15.364 15.162-15.364 26.183V441.17c0 18.385 15.541 30.819 30.056 30.898 4.735.001 10.08-1.726 15.553-5.064 9.411-5.743 21.698-2.768 27.441 6.645 5.743 9.413 2.767 21.698-6.645 27.441-11.702 7.14-24.23 10.908-36.252 10.909z" fill="url(#a)"></path></svg>