<svg id="图层_35_复制" data-name="图层 35_复制" xmlns="http://www.w3.org/2000/svg" viewBox="0 0 240 240"><g id="图层_23_复制" data-name="图层 23_复制"><path d="M216.17,147.71A67.08,67.08,0,0,0,214,121.15a53.18,53.18,0,0,1-2.21,17.71,54,54,0,0,1-14.39,23.24A71.63,71.63,0,0,0,204,134.43c.37-12-2.52-20.9-7.75-36.53A250.79,250.79,0,0,0,183,65.81a65.46,65.46,0,0,1,32.1,44.27,97.68,97.68,0,0,0-10-35.42c-5.16-10.24-16.49-32.72-36.53-35.42a32.11,32.11,0,0,0-13.28,1.11A32.49,32.49,0,0,0,146.43,37c-10.75-2.32-19.72,1.55-23.24,3.32A31,31,0,0,1,156.4,48.1a17.82,17.82,0,0,1-1.11,11.07c-2,4.24-5.53,6.4-10,8.85-10.35,5.73-15.56,8.52-23.25,11.07-12.15,4-21.27,7-33.2,5.53a53.9,53.9,0,0,1-15.5-4.42,135,135,0,0,1,55.35-14.39c5.12-.23,9.36-.13,12.17,0a179.34,179.34,0,0,0-26.56-4.43c-14.44-1.3-22.87-2-32.1,2.21A40.92,40.92,0,0,0,67.85,74.66a69.45,69.45,0,0,0-7.75-10c-2-2.11-2.94-2.25-3.32-3.32-1.71-4.85,9.54-14,19.92-19.92,23.8-13.5,46-11.33,45.94-12.73,0-1.64-30-8.48-60.88,4.42A99.54,99.54,0,0,0,26.34,58.61a118.56,118.56,0,0,1,31-16.6c3.84-1.36,7.55-2.45,11.07-3.32A83.22,83.22,0,0,0,36.86,61.38c-15.72,18.43-18.55,38.86-19.93,49.81A110.7,110.7,0,0,0,18,145.5,77.24,77.24,0,0,1,32.43,94.58c-.34,6.64-.77,16.17-1.11,27.68-1.12,38.3.33,46.33,4.43,54.23,2.41,4.64,8.65,16.67,21,21,14.17,5,25.27-4,49.81-12.17a209,209,0,0,1,48.7-10,8,8,0,0,0,2.21,4.43c4.72,4.46,14.16-.29,16.61,3.32,1,1.42.33,3.39,0,4.43-2.83,8.85-20.35,16.7-37.64,19.92a109,109,0,0,1-44.27-1.1,117.83,117.83,0,0,0,43.17,5.53c13.47-.81,35.78-2.15,55.34-18.82C195.34,189.15,213.05,173.58,216.17,147.71ZM69.51,188.11a10.12,10.12,0,0,1-6.64,1.11A12.25,12.25,0,0,1,57.33,187V170.4a10.4,10.4,0,0,1,3.32-3.32c.59-.35,4-2.43,7.75-1.1a8.14,8.14,0,0,1,3.32,2.21l1.11,16.6A9.38,9.38,0,0,1,69.51,188.11Zm-1.11-31c-1.54-.33-9.38-2-15.49,3.32a17,17,0,0,0-5.54,12.18A375.77,375.77,0,0,1,41.84,104c.15-13,1-25.24,2.21-36.52a16.75,16.75,0,0,1,6.64-1.11,16.92,16.92,0,0,1,7.75,2.21Q61.2,81.31,64,94q6,27.68,12.17,55.34,1.11,6.65,2.21,13.28A20.16,20.16,0,0,0,68.4,157.12Zm34.31,13.28c-4.94,2.08-6.7,3.5-10,3.32-1.52-.08-2-1-8.85-4.42-.93-.48-1.7-.86-2.22-1.11q-7.74-39.3-15.49-78.59a25.52,25.52,0,0,1,11.07,2.22c4.07,1.87,4.62,3.53,7.75,4.42,2.55.73,4.67.32,8-.88,2.89,14.4,5.46,29.84,7.48,46.26,1.21,9.83,2.13,19.34,2.83,28.53Zm28.78-10c-4.74.57-3.69,1.81-14.39,5.54-6.72,2.34-8,2.17-11.24,3.23a369.41,369.41,0,0,0-4.25-42c-1.87-11.72-4.19-22.6-6.72-32.57l4.5-1.75c8.64-3.28,13-4.92,16.61-5.53a25,25,0,0,1,9.38.08,148.06,148.06,0,0,1,7.22,19.84c1.16,4.09,3.35,12.49,6.64,41,.55,4.73,1,9,1.4,12.76C136.65,160.54,134.93,160,131.49,160.44Zm24.35-21c.19,5.52.51,13.09,1.11,22.14-2.19.1-5.68.2-10,0-1.46-.07-2.71-.16-3.82-.26-.69-7.35-1.6-15-2.82-23-3.95-25.72-6-34.6-8.86-42.06-1.18-3.09-2.39-5.85-3.53-8.25a23.08,23.08,0,0,0,6.85.51c5.36-.45,13.12-3,22.14-13.29-.34,4.41-.78,10.92-1.11,18.82C155,114.19,155.52,129.87,155.84,139.41Zm25.46,33.21a8.7,8.7,0,0,1-10,1.1A8.61,8.61,0,0,1,168,170.4l1.11-15.49a7.18,7.18,0,0,1,3.32-3.32c2.19-1,4.44-.51,6.64,0a18.19,18.19,0,0,1,3.32,1.1q.56,7.76,1.1,15.5A8,8,0,0,1,181.3,172.62ZM183.51,145a15.76,15.76,0,0,0-11.06-2.22c-1.31.19-7.54,1.1-11.07,6.64a14.61,14.61,0,0,0-2.22,7.75,564.52,564.52,0,0,1-1.1-62c.43-11.55,1.19-22.63,2.21-33.21a8.75,8.75,0,0,1,3.32-6.64c.35-.26,3.86-2.78,7.75-1.11a8.12,8.12,0,0,1,4.43,5.54,452.18,452.18,0,0,1,13.28,77.48q.73,9,1.11,17.71A15.83,15.83,0,0,0,183.51,145Z"/><path d="M215.06,185.35A58.32,58.32,0,0,1,204,197.52c1.13-2.39,2.25-5,3.32-7.75,1.35-3.51,2.44-6.85,3.32-10a86.7,86.7,0,0,1-63.09,39.85c3,.33,42.34,4.11,64.2-24.35a62.37,62.37,0,0,0,12.17-31A58.55,58.55,0,0,1,215.06,185.35Z"/></g></svg>