<svg id="图层_35_复制" data-name="图层 35_复制" xmlns="http://www.w3.org/2000/svg" viewBox="0 0 240 240"><g id="图层_22_复制" data-name="图层 22_复制"><path d="M27.65,125.34a9.51,9.51,0,0,0,6,1.2c2.15-.29,9.94-2.14,20.43-33.64,4.73-14.19,4.05-26.14,7.81-36.64C64.14,50,66.8,46.64,76.31,34.63,89.54,17.91,109.39,10.71,122,7A130.75,130.75,0,0,0,31.85,91.1a26.19,26.19,0,0,0-8.41,14.42C22.34,111.07,21.71,121.69,27.65,125.34Z"/><path d="M155.6,182.41c-6.26-3.74-9.23-3.26-12-7.21a23.16,23.16,0,0,1-2.4-4.81c-1.26-3.17-2.31-5.79-1.2-7.2.77-1,1.93-.56,4.81-1.21a19.5,19.5,0,0,0,6-2.4c2.72-1.79,2-4.74,4.81-12,3.57-9.34,4.06-11.61,3.6-14.42-.12-.77-1.23-7.1-6-9.61-3.07-1.62-4.33.1-9.62-1.2-4.07-1-6.8-2.88-9.61-4.81-3.32-2.28-5.13-3.57-6-6-.38-1-.62-2.41,0-6,1.13-6.62,2.94-7.75,3.6-12,.27-1.75,1.16-7.47-2.4-12a13.05,13.05,0,0,0-12-4.81c-5.32.84-8.16,5.07-9.61,7.21-5.32,7.9-2.76,16.83-2.4,18a22.08,22.08,0,0,0,4.81,8.41l.6,4.21c-.46,1-1.24,2.22-2.41,2.4-1.48.23-2.4-1.43-3.6-1.2-.77.15-1.73,1.08-2.4,4.8-1-.08-8.26-.59-13.22,4.81a14.88,14.88,0,0,0-3.6,7.21,52,52,0,0,0-6,4.8,35.17,35.17,0,0,0-7.21,8.41C70,149.43,67.15,156.64,69.7,159c1,.92,3.07.62,7.21,0a34.31,34.31,0,0,0,9.61-2.4c4.72-2.07,6.78-4.55,8.41-3.61.6.35.7.92,1.2,2.41,1.51,4.53,2.13,4,3.6,8.41,1.27,3.79,1.9,5.69,1.2,7.2-.76,1.68-2.19,1.82-4.8,3.61-3.15,2.16-3.63,3.69-6,6-4.87,4.73-7.79,2.53-13.21,7.2-3.82,3.29-7.78,6.66-7.21,10.82.82,6.09,8.53,8.12,9.61,8.41,1.79.47,3.07.45,10.21-.6,9.57-1.41,14.46-2.14,19.22-3.61a86.15,86.15,0,0,0,9.61-3.6c1.06.25,2.75.66,4.81,1.2,19.77,5.22,25.83,10.5,32.44,7.21.83-.42,3-1.88,7.21-4.81,3.11-2.14,4.41-3.13,4.8-4.8s-.27-3.21-1.2-4.81A32.44,32.44,0,0,0,155.6,182.41Zm-35.44-37.85c-5.71-.87-8.59-2.84-9.61-3.6a17.62,17.62,0,0,1-3.61-3.61,25.54,25.54,0,0,1-7.21,4.81,28.46,28.46,0,0,1-12,2.4c-2.37-.18-4.41-.75-7.21,0a13.52,13.52,0,0,0-6,3.61,12.78,12.78,0,0,1,4.81-6c3.45-2.17,6.47-1.26,12-2.4a33.88,33.88,0,0,0,9.61-3.61,31.37,31.37,0,0,0,1.21-7.21c.21-4.72-.75-7.86,1.2-9.61a6.53,6.53,0,0,1,2.4-1.2c.68-.19,2.48-.7,3.6,0,1.39.86,1.16,3.18,1.21,6a46.1,46.1,0,0,0,1.2,9.61,27.47,27.47,0,0,0,12,6c5,1,8.5.06,13.22,2.4a18.46,18.46,0,0,1,6,4.81,36.78,36.78,0,0,0-10.81-2.41C126.82,144.22,125.55,145.39,120.16,144.56Z"/><path d="M204.86,170.39a25.33,25.33,0,0,1-6,2.41,40.9,40.9,0,0,0,6-8.41,42.24,42.24,0,0,0,4.8-21.63,34.83,34.83,0,0,1-25.23,24,35.28,35.28,0,0,0,1.81-23.43c1.82-2.27,4.36-5.54,7.2-9.61,4.29-6.15,11.6-16.61,16.82-30,5-12.87,10.09-25.9,6-40.84a47,47,0,0,0-10.81-19.23,57.37,57.37,0,0,1,2.4,15.62c.06,4.33.17,12.64-3.6,20.43-6.64,13.7-21.67,18.24-25.23,19.22,3.2-8.55,2.47-14.32,1.2-18-1.42-4.13-3.81-6.52-3.61-10.82s2.76-7.52,4.81-9.61a33.25,33.25,0,0,0-6,2.41c-3.1,1.61-4,2.69-4.8,2.4-2.2-.77-2.09-9,0-15.62,1.15-3.67,4-10.43,12-16.82a18.72,18.72,0,0,0-10.81,3.6c-5.62,4.38-4.67,10-10.81,14.42-3.41,2.46-8.63,4.28-10.82,2.4-1.69-1.44-.26-4,0-10.81.36-9.32-2-11.82,0-16.82a16.46,16.46,0,0,1,6-7.21c-4.55,3.27-8.19,6.21-10.81,8.41-6.8,5.73-10.2,8.59-12,12l-4.8,9.61c-.41.81-.52,2.31-1.2,2.4-1.19.17-1.76-3.93-4.81-6a9,9,0,0,0-6-1.2,5.28,5.28,0,0,1,3.61,2.41c1,2-.55,4.35-2.41,8.41a73.55,73.55,0,0,0-3.6,9.61,54,54,0,0,0-2.4-7.21c-2.59-6.26-4.77-11.54-9.61-14.42-5.35-3.17-11.52-2-14.42-1.2a13.32,13.32,0,0,1,4.8,6,14.48,14.48,0,0,1,0,9.61c-1.9,5.15-7,8.8-13.21,9.61a18.17,18.17,0,0,1,0-6c.25-1.49,1.16-7.12,6-10.81a14.49,14.49,0,0,1,4.8-2.4,29.44,29.44,0,0,0-10.81,2.4,31,31,0,0,0-12,9.61c-7,8.66-5.82,17.21-8.41,30C55.5,106.11,46,130.1,33.65,131.35a13.31,13.31,0,0,1-8.41-2.41,47.76,47.76,0,0,1,3.61,10.82,48.54,48.54,0,0,1,0,19.22c7.17,12.79,8,16.25,7.21,16.82-1.13.81-6.29-3.81-9.61-8.41a33.73,33.73,0,0,1-4.21-7.81,92.53,92.53,0,0,0,9.61,24,93.77,93.77,0,0,0,27.64,30c-6.6-.84-8.28-.53-8.41,0-.32,1.21,7.27,4.87,14.41,7.2,9.14,3,14.93,3,16.82,7.21,1,2.21-.06,3.39,1.2,4.81,2.4,2.7,6.94-.67,14.42,0,8.36.75,11.49,5.74,15.62,3.6,2.88-1.49,1.68-4.1,4.8-6,3.83-2.34,7.46.46,15.62,0a49.94,49.94,0,0,0,7.21-1.21c7.84-1.6,11.82-5,13.22-3.6,1.15,1.16-.9,4,0,4.81,1.92,1.79,14.07-8.32,15.62-9.62,17.35-14.54,26-21.82,31.23-30a83.19,83.19,0,0,0,10.82-26.43A25.6,25.6,0,0,1,204.86,170.39Zm-17.42,21c-8.64,18-28.42,35.1-42.05,31.24-4.73-1.34-6-4.43-12-4.81s-8.11,2.64-14.41,2.4c-5.9-.22-6.85-3-13.22-4.8-9.07-2.62-12.19,1.5-22.83,1.2-3.66-.11-15.56-.44-24-8.41-8.94-8.42-9.38-21-9.61-27.63a66.45,66.45,0,0,1,3.61-22.83c3.15-9.2,6.22-11.39,6-18-.22-6.88-3.62-7.25-4.8-15.62-1.1-7.77.87-14.21,2.4-19.22,1.87-6.13,3.28-7.21,7.21-16.82C66,82.52,67.54,77.88,68.5,74.88c1.51,2.66,3.1,6.53,2.4,10.81-.9,5.52-4.8,6.76-6,12-1.71,7.42,3.53,15.94,6,15.62,2.15-.29.31-7.31,4.8-16.82,3.34-7.05,5.88-8.35,13.22-19.23,10.48-15.51,10.25-20.2,9.61-22.82-1.26-5.18-5.47-7.64-4.8-8.41,1-1.14,11.37,2.7,14.41,10.81,2.12,5.62-.67,11.22,2.41,13.21,2,1.3,5.3.35,7.2-1.2,2.22-1.81,1.74-3.82,3.61-7.21s3-2.84,7.21-7.2c4.45-4.67,4.21-6.41,8.41-10.82a40.67,40.67,0,0,1,7.21-6,73.47,73.47,0,0,0-2.41,20.42,48.41,48.41,0,0,0,1.2,9.61,11.88,11.88,0,0,1,1.21-6,12.36,12.36,0,0,1,7.2-6,38.26,38.26,0,0,0,0,12c.57,3.48,1.23,4.34,3.61,12,2.21,7.13,3.32,10.77,3.6,14.41a35.15,35.15,0,0,1-1.2,12c.91-.32,8.58-3.13,10.81-10.82a15.45,15.45,0,0,0,0-8.41,31,31,0,0,1,7.21,24c5.58-5.24,10.19-9.35,13.22-12,12.17-10.69,16.74-13.69,19.22-20.43a26.89,26.89,0,0,0,1.2-13.21,49.9,49.9,0,0,1,2.41,19.22c-.65,8.54-3.42,14.66-7.21,22.83-1.87,4-3.5,6.94-13.22,22.83-3.93,6.41-7.23,11.77-9.61,15.61a56.25,56.25,0,0,1-2.4,30A54.22,54.22,0,0,1,171.82,189,21.09,21.09,0,0,0,191,181.81,59,59,0,0,1,187.44,191.42Z"/></g></svg>