<svg id="图层_35_复制" data-name="图层 35_复制" xmlns="http://www.w3.org/2000/svg" viewBox="0 0 240 240"><g id="图层_32_复制" data-name="图层 32_复制"><path d="M57.71,193.77a83,83,0,0,0,4.47,9.35C60.7,200.23,59.2,197.12,57.71,193.77Z"/><path d="M55.29,128.46a362.1,362.1,0,0,1,1.15-49.39,89.66,89.66,0,0,0,1.15,16.08c2.09,12.84,7,25,8.61,24.69,1.24-.27-.58-7.49,0-20.67.43-9.71,1.35-16.85,2.3-24.12,2.13-16.26,4.07-30.49,5.74-42.5a158.21,158.21,0,0,0-55.13,95.33q5.73-11,12.06-22.4,4.59-8.22,9.19-16.08c-9.25,40.07-5.8,70-1.15,89.59,4.23,17.74,11.59,35.91,12.64,35.61.89-.25-3.13-14-5.75-34.46a283.31,283.31,0,0,1-2.29-33.31,186.21,186.21,0,0,0,13.9,46.94c-.44-1.06-.86-2.15-1.27-3.29a84.66,84.66,0,0,1-4.59-20.67A189.25,189.25,0,0,0,86.3,221.49a118.44,118.44,0,0,1-20.67-32.16C57.35,170.1,56.43,153.47,55.29,128.46Z"/><path d="M223.56,92.27a94,94,0,0,0-20.67-40.2,69.12,69.12,0,0,1-1.72,23.55,69.93,69.93,0,0,1-17.23,31A55.74,55.74,0,0,0,202.31,94a79,79,0,0,1-1.14,28.71c-10.75,46.74-62.08,66.42-68.92,68.92A132.79,132.79,0,0,0,169,174.4a132.06,132.06,0,0,0,19.52-16.08A104.1,104.1,0,0,1,178.19,179c-22.26,34.35-58.92,46.1-74.08,50a120.44,120.44,0,0,0,42.5-13.78c57.59-31.78,67.54-101.69,68.91-112.57A32.36,32.36,0,0,1,224.71,129,93.29,93.29,0,0,0,223.56,92.27Z"/><path d="M131.1,90.55a7.73,7.73,0,0,0-9.19,1.15,7.58,7.58,0,0,0-2.3,5.74,7.59,7.59,0,0,0,14.94,1.15A7.52,7.52,0,0,0,131.1,90.55Z"/><path d="M163.84,86.53l4.59-9.19-9.19,5.75A51.69,51.69,0,0,0,143.16,71.6a50.94,50.94,0,0,0-13.53-4,150.49,150.49,0,0,1,17.55-33.34,75.31,75.31,0,0,0,3.45,27.57,45.39,45.39,0,0,0,5.74-11.49,50.68,50.68,0,0,0,2.3-14.93C159,29.19,159.55,20.33,161,9a166.19,166.19,0,0,0-51.68,33.31,125.28,125.28,0,0,1,32.16-12.63c-4.91,6.3-9.93,13.18-14.93,20.67-3.85,5.76-7.35,11.37-10.56,16.81a59.91,59.91,0,0,0-7.25,1l-2.29-3.44-8-16.08,1.14,21.82C91.22,73,85,79.35,82.28,81.94c-19.82,18.83-9.73,49.77-9.18,51.68a59.75,59.75,0,0,0,3.44,9.19C71.08,148.6,64,156.53,65.06,157.75s8.47-3.82,14.74-8.25A144.59,144.59,0,0,0,100.66,237a141.09,141.09,0,0,1-4.59-20.68A130.55,130.55,0,0,1,97.89,168c-4.75-2.43-10.1-8.88-15.49-16.43-.44-.59-.87-1.2-1.26-1.83q.63.94,1.26,1.83c6,8,15.94,12.06,15.94,12.06A48.58,48.58,0,0,0,111,168.08V192.2c2.27-2.81,4.59-5.87,6.89-9.18a159,159,0,0,0,9.19-14.94,73.74,73.74,0,0,0,10.34-2.29c.74-.23,1.75-.53,2.94-.92-4,1.83-8.09,6-12.13,7.81-.19,3.74-.78,6.18-2.3,11.48a60.84,60.84,0,0,1-4.59,11.49c2-3.35,4.34-6.81,6.89-10.34q1.72-2.38,3.45-4.59a104.43,104.43,0,0,1-11.49,20.67,105.08,105.08,0,0,1-19.53,20.68,92.84,92.84,0,0,0,40.19-57.36,58.19,58.19,0,0,0,16.09-8.11c13-9.77,16.61-24.79,17.23-27.57C179.19,106.5,165.76,89,163.84,86.53Zm-45.37,63.75a7.91,7.91,0,0,1-5.75-8,8.19,8.19,0,0,1,2.3-4.6,7.06,7.06,0,0,1,3.45-2.29c3.54-.92,6.62,2,6.89,2.29s3.78,3.85,2.29,8.05A7.75,7.75,0,0,1,118.47,150.28Zm45.37-10.91A41.67,41.67,0,0,1,142,158.89a40.54,40.54,0,0,1-18.38,2.3,25.89,25.89,0,0,0,11.49-4.59c6.65-4.83,13-14.56,10.34-23-2.57-8.14-13.28-12-18.38-13.78-8.6-3.07-11.3-1-16.08-4.59-7.92-5.92-8-17.18-8-18.38,0-8.65,4.65-17.76,12.63-21.82a23.08,23.08,0,0,1,11.49-2.3c3.33.13,7.56,1,13.78,4.59,6.48,3.78,16.93,9.86,23,23C165.35,103.6,173.13,121.49,163.84,139.37Z"/></g></svg>