<svg id="图层_35_复制" data-name="图层 35_复制" xmlns="http://www.w3.org/2000/svg" viewBox="0 0 240 240"><g id="图层_31_复制" data-name="图层 31_复制"><path d="M142.73,236.57A18.64,18.64,0,0,0,143,240,18.48,18.48,0,0,0,142.73,236.57Z"/><path d="M28.46,121.58c1.33-.12-2.36-14.85,2.56-35.85,6.15-26.25,20.78-41.07,19.2-42.24s-17.51,11-24.32,30.72C17.66,98.09,26.76,121.74,28.46,121.58Z"/><path d="M200,43.49C215.14,58,216.29,57.83,216.65,57.57c1.68-1.24-3-12.83-11.52-21.76-10.2-10.74-24.27-16-25.6-14.09C178.64,23,185.76,29.82,200,43.49Z"/><path d="M98.87,121.58c-.63,1.1-1.55,2.66-2.68,4.52L95,128c-7.07,11.34-7.88,10.07-11.52,16.64-3.06,5.53-4.06,9.22-7.68,10.25a7.6,7.6,0,0,1-3.84,0v6.4c0,.78-.52,1.77,0,2.56s1.38.66,2.56,1.28a6.35,6.35,0,0,1,2.56,2.56,104.8,104.8,0,0,0,10.24-5.12,75.8,75.8,0,0,0,11.52-7.68,50.78,50.78,0,0,0,12.8-16.65,28.13,28.13,0,0,0-6.4-11.52A27.42,27.42,0,0,0,98.87,121.58Z"/><path d="M182.09,156.15a18.43,18.43,0,0,1-5.12-2.56c-5.17-3.73-6.92-9.34-7.69-11.53-1.78-5.08-5.49-12.4-14.08-21.76a38.18,38.18,0,0,1-6.4,11.52,9.22,9.22,0,0,0-2.56,5.12,8.74,8.74,0,0,0,1.28,5.12,35.11,35.11,0,0,0,9,10.24c9.62,7.61,10.31,9.61,14.08,11.53a39.5,39.5,0,0,0,6.41,2.56,13.68,13.68,0,0,1,5.12-1.28c.44,0,.87,0,1.28,0a24.26,24.26,0,0,0,0-2.56A23.6,23.6,0,0,0,182.09,156.15Z"/><path d="M227.53,227.2c.69-.72-36.54-34.32-30.72-43.53,2.93-4.64,15.88-1.66,16.64-5.12.72-3.24-10.52-6.49-10.24-11.52s12.1-6.16,12.8-11.52c.63-4.78-11.43-6.58-11.52-11.53-.1-5.37,13.53-5.79,19.2-16.64,3.63-6.93,2.43-15.11,1.28-15.36-.86-.19-1.37,4.1-5.12,7.68-4.69,4.49-12.54,6-14.08,3.84-1.87-2.6,7.31-8,10.24-17.92,5.77-19.6-16.88-42.85-17.92-42.25-.53.3,4.73,6.49,5.12,16.64.41,10.66-4.07,19.45-5.12,19.21-1.63-.38,4.47-22.75-.64-25-4.26-1.84-12.92,11.71-15.36,10.24-3.18-1.91,9.72-26,6.4-28.16s-21.36,20.47-23.05,19.2c-2.09-1.58,23.51-38.38,21.77-39.68S157.13,73.7,151.36,70.37c-6-3.48,15.36-52,14.08-52.49s-16.72,39.81-21.76,38.41c-5.3-1.47,2.9-48.39,1.28-48.65-1.05-.17-3.42,19.74-8,33.44-1.15,1.54-2.38,3.31-2.93,3.05s-.07-2.26,0-2.56c1.83-8.08-1.34-34.49-3.84-34.57-2.21-.07-3.38,20.3-7.68,20.48-2.26.1-3.74-5.45-5.12-5.12-1.88.45-.45,11-.68,18.12-6.45-13.43-11.88-32.16-14.05-31.56-3.39.94,7.33,47.69,3.84,48.65-2.62.72-11.44-25.1-14.08-24.33s4.4,24.63.64,26.25c-2.8,1.2-11.52-10-32-47.37,22.61,43.75,27,55.51,25.6,56.33-1,.58-4.55-4.64-14.08-11.52-1.4-1-2.8-2-4.13-2.82,1.8-3.23,2.85-5.07,2.21-5.5s-2.74.84-5.47,3.48c-3.66-2.13-6.36-3.3-6.69-2.84s1.58,2.1,4.53,5.07a83.4,83.4,0,0,0-15.42,25c-1.5,3.86-4,10.49-4.53,17.83-3.46-.33-6-.24-6.35.74-.43,1.16,2.43,2.94,6.37,5.15a27.38,27.38,0,0,0,3.23,10.85c.49.88,3.88,7,6.4,6.4,1.88-.45,2-4.33,2.13-10.34,4.38,3,7.75,6.32,7.48,9.7-1,12.34-50.1,18.36-49.93,19.2S54.63,130.74,56,135c1.18,3.73-29,15.66-28.16,17.93.44,1.17,19.88-7.28,21.76-3.85,1.22,2.21-11.43,9-10.24,15.37,1.27,6.76,13.31.77,15.36,7.68,1.59,5.32-1.8,10.93-7.85,16A88.68,88.68,0,0,1,32.3,177.91c-8.24-7.18-12.13-13.3-12.8-12.8-.94.69,4.58,14.09,16.64,23A47.86,47.86,0,0,0,42.27,192c-2,1.64-3.18,2.79-2.93,3.19s2.4-.38,5.52-1.92c10.6,4.84,20.39,4.91,20.73,3.84.27-.88-6-2.34-14.88-6.84,3.71-2,7.93-4.19,12-6.23-.34,2.65-3.06,7.21-1.65,8.59,1.62,1.61,6.91-2.93,9-1.28,1.76,1.43-.27,6.34-1.2,9.67-10.38,13.22-22.78,27.63-20.57,30,2.56,2.75,23.24-12,39.11-23.13,1.4,1.46,2.06,3.86,4.42,6.49,8.12,9,24.18,7.21,24.32,6.4.1-.51-6.13-.38-10.24-5.12-2.72-3.14-4.6-8.52-2.56-11.53s5.84-.63,11.52-3.84,5.45-7.41,9-7.68c4.3-.33,5.28,6,11.52,7.68a8,8,0,0,0,2.41.31,103.42,103.42,0,0,1,3.12,15.1c.07,2.3.21,4.59.37,6.8-2.81,2.07-4.39,3.13-4,4s2,1.05,4.41.88c.37,3.68.77,6.88,1,9.13-.12-2.25-.3-5.45-.59-9.17,6.19-.56,17.23-3.87,27.14-9.8a101.62,101.62,0,0,0,8.85-5.85c5.34,5.12,9.54,8.88,11,7.77s-1.38-7.27-4.41-13.48a29.05,29.05,0,0,0,6.56-9.52C205.27,206.77,227,227.75,227.53,227.2ZM56.62,85.73a93.17,93.17,0,0,1,9.83-27.88A88.55,88.55,0,0,1,76.47,71c2.13,3.45,5.31,8.67,3.84,10.24C78,83.75,65.38,75.42,65,76.13S81.61,86.35,80.31,90.21c-1.16,3.43-16.35,1.07-24.45.66C56.06,89.19,56.31,87.48,56.62,85.73ZM55.17,99c.07-1.4.17-2.85.3-4.34,5,2.31,12.28,4.93,12,5.81S61.6,100.14,55.17,99Zm131.4,96.2c-4,3.32-9.44,2.77-11.53,2.56-3.24-.31-5.58-1.35-10.24-3.84-10.15-5.43-15.23-8.14-19.2-11.52-3.76-3.2-6.74-6.52-12.8-9a29.9,29.9,0,0,1-3.84-1.28s-.56-.24-1.29-.61v.61c-.26.28-.69.75-1.28,1.28a19.68,19.68,0,0,1-3.84,2.56c-7.8,5.43-9.63,8.21-14.09,11.52a38.7,38.7,0,0,1-19.2,7.68c-3,.28-6.91.59-10.51-1.13a11.44,11.44,0,0,1-2.29-1.43c-.27-.21-.52-.43-.76-.65a13.55,13.55,0,0,1-3.08-4.47,16.68,16.68,0,0,1-6.43-5.14A9.57,9.57,0,0,1,65,179.83a10.74,10.74,0,0,1-.41-2c-.17-1.28-.3-2.9-.87-5.68-.45-2.2-.94-4-1.28-5.12q-.64-7.68-1.28-15.37c-.66-1.82-1.58-4.45-2.56-7.68-.88-2.86-1.32-4.31-1.29-5.12.16-3.72,4.08-4.94,10.25-10.24,3.8-3.27,6.8-6.87,12.8-14.08,2.16-2.59,3.9-4.81,5.12-6.4L82.87,103A68.52,68.52,0,0,0,93.11,97.9c4.29-2.62,3.76-3,9-6.41,6.43-4.26,9.56-5.2,11.52-9a9,9,0,0,0,1.28-5.12c-.12-1.49-.64-2.14-1.28-3.84a22,22,0,0,1-1.28-7.68,21.07,21.07,0,0,1,1.28-7.68A22.13,22.13,0,0,1,115,55.13a17.51,17.51,0,0,1,3.72-4.6,16.86,16.86,0,0,1,2.63-1.9c.44-.26.85-.49,1.21-.66V39a5.88,5.88,0,0,1-1.28-1.28c-1.5-2.06-2-5.72,0-7.69a5.34,5.34,0,0,1,3.84-1.28,5.06,5.06,0,0,1,2.56,0,5.67,5.67,0,0,1,3.84,5.12A6.37,6.37,0,0,1,129,39v9a30.11,30.11,0,0,1,3.27,3.19c.19.21.38.42.57.65A35.74,35.74,0,0,1,135,54.74a21.56,21.56,0,0,1,2.9,6,21.09,21.09,0,0,1-1.28,14.08v9a30.18,30.18,0,0,0,7.68,5.12c4.52,2.09,5.48,1.13,12.8,3.84,4.28,1.59,8.35,3.55,9,3.85,1,.5,1.92.95,2.56,1.28l-3.84,3.84a103.06,103.06,0,0,1,12.81,14.08c2.3,3.08,4.83,6.83,10.24,14.08,4.43,5.95,5.22,6.76,6.4,7.68,1.75,1.38,3.2,2.1,3.84,3.84,1,2.86-.94,5.88-1.28,6.4a9.67,9.67,0,0,1-5.12,3.84c-.23,7-.13,12.7,0,16.65.2,6.18.52,8.49,0,12.8C191,187.15,190.37,192.05,186.57,195.19Z"/></g></svg>