<svg id="图层_35_复制" data-name="图层 35_复制" xmlns="http://www.w3.org/2000/svg" viewBox="0 0 240 240"><g id="图层_34_复制" data-name="图层 34_复制"><path d="M201,191.11c-5.72-2.86,19-11.87,19-36.78-7.12,7.11-20.17,20.17-26.1,15.42s21.35-16.61,17.79-46.28c-4.06,9.88-20.17,13.06-8.3,2.38s13.05-23.73,4.74-30.85c9.5,19-16.61,35.59-14.23,3.56S180.84,52.28,169,42.79c20.17,29.66,9.49,45.09,9.49,45.09s-7.86-35.62-17.8-42.72c-24.92-17.8-17.8-28.48-17.8-28.48-8.3,4.75-10.08,23.14-4.15,26.7s2.37,10.68,0,14.24c2.37,19-4.27,26.6-4.27,26.6s-3.21,6.25.36,9.26a48.46,48.46,0,0,0-14.39,27.85c-2.91,17.6,16.33,15.9,17.26,6.45s-12.14-16.09.1-31.59c.4-.51.8-1,1.2-1.48,14.26,2.14,26.26,12.91,38.9,38.85a65.63,65.63,0,0,1,5,14.29A51.23,51.23,0,0,1,169.65,152a27.05,27.05,0,0,1-5.52.49,47.93,47.93,0,0,0-14.53-9.29,13,13,0,0,0-5-3.94c-7.84-3.13-16.89,11-1.81,15.93a50.41,50.41,0,0,0,7.07,1.73c8.38,11.61,14.92,44.24,21.46,63.86,41.53,0,46.28-33.22,46.28-40.34C215.25,185.18,212.88,197,201,191.11Zm-14.84,7.71c-7.12-3.56-4.74-4.74-4.74-13s-7.12-13.05-9.5-22.55a33.83,33.83,0,0,0-4.33-7A45.84,45.84,0,0,0,183.1,149c3.39,16.14.54,29,7.83,34.44C200.42,190.52,193.3,202.38,186.18,198.82Z"/><path d="M108.46,152c17.8,1.19,14.24-17.8,4.75-17.8s-14.83,13.65-31.44,3a65.67,65.67,0,0,1-5.7-4.07c5.5-10,11-18.86,14-23.22,8.31-11.87,32-17.8,27.29-22.55s-4.74-13-3.56-26.1S131.6,54.06,134,45.76s-4.74-15.43-8.3-21.36c-1.19,13.05-27.29,27.29-30.85,33.22-2.38,0-1.19-9.49,2.37-15.42-13,4.74-10.68,5.93-21.36,16.61,0-11.87,9.5-22.55,23.73-30.85-21.35,2.37-43.9,19-51,36.78s0,49.84,0,60.51c-13-1.18-10.68-20.17-10.68-20.17s-5.93,8.31-2.37,17.8,10.68,48.65,3.56,57-17.8-19-19-26.11c-2.37,81.87,61.71,68.82,61.71,68.82s3.56-9.49,9.49-34.41c3.51-14.77,7.24-28.49,9.69-37.22A54,54,0,0,0,108.46,152ZM60.94,87.38h8V84.73a4.41,4.41,0,0,1,4.24-4.56h0v7.21h2.45a4.41,4.41,0,0,1,4.24,4.56H73.23v2.65A4.41,4.41,0,0,1,69,99.15h0V91.94H66.53a4.41,4.41,0,0,1-4.24-4.56Zm23.2,65.17a74,74,0,0,1-15.43,20.17S64,183.4,68.71,187s3.56,10.68-3.56,11.86-10.68-2.37-10.68-8.3,2.38-4.75,4.75-11.87c-2.14-7.13,6.43-26.25,15.42-43a48.33,48.33,0,0,0,14,10.93A19.22,19.22,0,0,0,84.14,152.55Z"/><path d="M117.92,160.3c-1,9.93,12.07,16.84-.25,33.18-8.18,10.84-15.42,14.87-19.38,16.36,8.59-2.71,32-12.76,36.86-42.85C138.15,148.49,118.89,150.37,117.92,160.3Z"/><path d="M98.29,209.84a30.66,30.66,0,0,1-3.16.86A13.16,13.16,0,0,0,98.29,209.84Z"/></g></svg>