<?xml version="1.0" encoding="utf-8"?>
<!-- Generator: Adobe Illustrator 27.0.1, SVG Export Plug-In . SVG Version: 6.00 Build 0)  -->
<svg version="1.1" id="图层_35_复制" xmlns="http://www.w3.org/2000/svg" xmlns:xlink="http://www.w3.org/1999/xlink" x="0px"
	 y="0px" viewBox="0 0 225.5 214" style="enable-background:new 0 0 225.5 214;" xml:space="preserve">
<g id="图层_12_复制">
	<path d="M217.8,64.2c3.5-2.2,6.2-3.9,7.2-7.3c1.2-4-0.2-9.3-2.9-10.3s-6.1,2.8-10.1,7.3c-2.2,2.4-10.8,12-8.7,14.7
		C205,70.9,213.5,66.8,217.8,64.2z"/>
	<path d="M200,166.4c-6.2-4.9-19.8-6.2-23.5-9.9s-17.3-18.6-21-19.8s-9.9,9.9-9.9,9.9s-2.5,8.7,1.2,30.9c1.7,10.6,5,20.9,9.9,30.5
		c1.6,0.1,5.8,4.3,9.4,4.2c0.8,0,12.9,2.1,13.6-1.2c0.3-1.4-5.2-8.1-6.2-11.1s-0.9-7.3,1.2-8.7c2.8-1.9,27,17.9,29.7,16.1
		c2.2-1.5-18-21.1-18.6-23.5c-0.9-4.1-3.2-5.6-2.5-7.4s4.1-2.3,6.2-2.5c7.3-0.7,9.6,2.5,16.1,2.5c2.4,0,8.8,0,11.1-3.7
		c0.8-1.3,0.9-2.9,0.4-4.3C211.6,172.8,205,170.4,200,166.4z"/>
	<path d="M195.8,109.5c1-1.3,0.2-3.8,1.2-8.7c1.1-5.3,28.4-17.4,28.4-18.6c0.1-4.7-22.3-2.5-26-2.5c-2.6,0-8.1-3.4-12.4-3.7
		c-7.4-0.5-6.5,2.7-9.9,1.2s-2-5.3-2.5-8.7c-0.7-4.6-1.7-3.3,2.5-8.7c4.8-6.2,6.1-11.6,8.7-13.6c8.9-7,14.2-2.3,16.1-7.4
		c1.4-3.8-0.2-13.6-2.5-14.9c-2.6-1.4-7,2.5-9.9,4.9c-5,4.3-5.4,6.7-12.4,14.8c-5.7,6.7-7.8,8-9.9,8.7c-3.8,1.3-5.1-0.1-8.7,1.2
		c-6.5,2.5-6.9,6.8-8.7,6.2s-3.5-5.4-1.2-12.4c2.5-7.7,6.6-9.7,7.4-17.3c0.1-0.6,0.7-6.8-1.2-7.4c-3.2-1.1-10.1,14.9-14.8,13.6
		c-0.8-0.2-1.4-1-2.5-2.5c-2.8-3.8-2.6-7.4-3.7-7.4s-1.1,3.4-3.7,4.9c-1.9,1.1-4.3,1.1-6.2,0c-2.3-1.5-1.9-4.6-2.5-12.4
		c-0.6-7.6-0.9-11.4-2.5-13.6c-3.9-5.5-12.7-6.5-13.6-4.9c-0.6,1.2,3.6,3.1,7.4,9.9c1.7,3.1,3,6.4,3.7,9.9
		c0.4,1.9,2.4,11.5-1.2,13.6c-0.9,0.5-2.3,0.3-4.9,0c-4.1-0.5-4.8-1.5-6.2-1.2c-3,0.5-3.8,5.8-6.2,12.4c-3.4,9.6-7.4,23.9-8.7,23.5
		c-0.6-0.2-1.2-8.2-1.2-12.4c0-4.7-0.7-12.1-2.5-12.4s-2.5,7.9-6.2,8.7c-5.9,1.2-15.2-17-19.8-26c-1.4-2.8-3.7-7.3-7.4-13.6
		c-5.1-8.5-7.7-12.7-9.9-12.3c-6.2,1.1-6.4,9.9-2.5,16.1c2,3.1,4.1,2.3,8.7,6.2c4.1,3.5,6.1,7.3,8.7,12.4c3,5.8,8.2,14.9,6.2,17.3
		c-1,1.2-5.6-2.5-9.9-2.5c-5.7,0-8-1-8.7,0c-1,1.5,0.1,6.6,5,9.9c8.8,6,12.8,26,7.4,26c-2.9,0-16-20.7-19.8-27.2
		c-3.7-6.4-4.6-9.4-7.4-9.9s-6.2,1.7-7.4,5c-0.9,2.5-0.7,5.9,1.2,7.4c2.2,1.7,4.9-0.5,7.4,1.2c1.8,1.2,2.1,3.4,2.5,6.2
		c1.1,8.1-1.2,11.7,1.2,14.8c1.7,2.2,6.7,2.8,7.4,4.9c0.8,2.3-4.4,2.4-4.9,6.2c-0.9,5.5,5.2,10.5,3.7,12.4c-0.4,0.5-4.9-1.8-9.9-2.5
		c-6.9-0.9-9.6-1.9-9.9-1.2c-0.5,1,5.5,4.9,7.4,6.2c6.5,4.3,12.5,5.9,13.6,8.7c1,2.4,15.5,9.7,13.6,11.1
		c-3.8,2.8-32.5-10.2-33.4-8.7c-0.6,1,1.7,2.9,5,7.4c4.2,5.8,9.2,12.6,7.4,16.1c-2.3,4.6-14.2-1.2-19.8,4.9
		c-3.8,4.2-2.7,11.9-1.2,16.1c2.9,8.3,9.9,10.1,8.7,13.6c-1.6,4.2-3.4-1.4-12.4,5c-6.5,4.5-11.6,12-9.9,14.7
		c1.5,2.3,8.5,1.5,13.6-1.2c7.5-4,0.5-6.2,8.7-11.1c1.8-1.1,13.3-5.1,17.3-2.5c3.4,2.2-1.8,7.8-1.9,10.5c-0.2,7.6-1.2,6.5-1.8,6.8
		c-2.5,1.2-2.5,2.5-3.7,6.2c-1.4,4.1,0.3,4.3,2.5,6.2c2.5,2.2,9.9-2.5,9.9-5c0-5-2.4-5,1.2-12.4c1.2-2.5,3.7,0,7.4-5
		c2-2.7,10.3-11,16.1-8.7c1.9,0.8-2.2,7.4-1.9,9.3c0.8,4-3,6.2-1.8,9.3c0.8,2.2,3.7,3.8,6.2,3.7c3.3-0.1,4.5-3.9,7.4-3.7
		c2.2,0.1,3.7,2.3,5.7,5.4c4.5-9.2,7.6-18.9,9.1-29c3.7-22.3,1.2-30.9,1.2-30.9s-6.2-11.1-9.9-9.9s-17.3,16.1-21,19.8
		s-17.3,4.9-23.5,9.9s-14.9,7.4-21-2.5s2.5-7.4,7.4-4.9s9.9,1.2,12.4-1.2s6.2-3.7,11.1-9.9s13.6-8.7,13.6-8.7s2.5-5,5-11.1
		s8.7-24.7,23.5-24.7c3.7,0,7.4-2.5,7.4-2.5c2.8-2.5,6.2-4.3,9.9-5c2.5-1.2,2.5-5,2.5-5v-2.2c0,0-5-3.7-5-9.9
		c-2.5-1.2-2.3-5.4-2.3-5.4c0-1.5,0.9-2.8,2.3-3.3c0-3.7,1.2-14.8,11.1-14.8h3c9.9,0,11.1,11.1,11.1,14.8c1.4,0.5,2.3,1.8,2.3,3.3
		c0,0,0.2,4.2-2.3,5.4c0,6.2-5,9.9-5,9.9V91c0,0,0,3.7,2.5,5c3.7,0.7,7.1,2.5,9.9,5c0,0,3.7,2.5,7.4,2.5c14.9,0,21,18.6,23.5,24.7
		s4.9,11.1,4.9,11.1s8.7,2.5,13.6,8.7s8.7,7.4,11.1,9.9s7.4,3.7,12.4,1.2l0.4-0.2c10.3-4.6,2.6-5.2-0.9-7.2
		c-2.4-1.3,2.7-8.4,1.2-9.9c-2.7-2.9-9.7,3.9-13.6,1.2c-3.5-2.4-1.7-5.2-1.2-8.7c0.7-4.9,9-5.4,9.9-6.2c4.7-4,16.1,2.5,16.1-2.5
		c0-2.3-12.4-16.1-23.5-13.6c-3.2,0.7-3.8,2.5-11.1,7.4c-3.9,2.6-7.3,4.8-8.7,3.7c-1-0.8-0.8-3.2,0-4.9
		C184.1,113.9,192.6,113.9,195.8,109.5z"/>
</g>
</svg>
