<svg id="图层_35_复制" data-name="图层 35_复制" xmlns="http://www.w3.org/2000/svg" viewBox="0 0 240 240"><g id="花间_复制"><path d="M95.37,139.25a13,13,0,0,0-5,3.94,47.93,47.93,0,0,0-14.53,9.29,27.05,27.05,0,0,1-5.52-.49,51.23,51.23,0,0,1-13.21-4.14,65.63,65.63,0,0,1,5-14.29C74.76,107.62,86.76,96.85,101,94.71c.4.48.8,1,1.2,1.48,12.24,15.5-.82,22.14.1,31.59s20.17,11.15,17.26-6.45a48.46,48.46,0,0,0-14.39-27.85c3.57-3,.36-9.26.36-9.26s-6.64-7.61-4.27-26.6c-2.37-3.56-5.93-10.68,0-14.24s4.15-22-4.15-26.7c0,0,7.12,10.68-17.8,28.48-9.94,7.1-17.8,42.72-17.8,42.72S50.85,72.45,71,42.79C59.16,52.28,43.73,66.52,46.1,98.56S22.37,114,31.87,95c-8.31,7.12-7.12,20.17,4.74,30.85s-4.24,7.5-8.3-2.38C24.75,153.14,52,165,46.1,169.75s-19-8.31-26.1-15.42c0,24.91,24.7,33.92,19,36.78-11.86,5.93-14.23-5.93-16.61-10.68,0,7.12,4.75,40.34,46.28,40.34,6.54-19.62,13.08-52.25,21.46-63.86a50.41,50.41,0,0,0,7.07-1.73C112.26,150.28,103.21,136.12,95.37,139.25Zm-27.31,24c-2.38,9.5-9.5,14.24-9.5,22.55s2.38,9.49-4.74,13-14.24-8.3-4.75-15.42c7.29-5.47,4.44-18.3,7.83-34.44a45.84,45.84,0,0,0,15.49,7.3A33.83,33.83,0,0,0,68.06,163.22Z"/><path d="M141.71,209.84a13.16,13.16,0,0,0,3.16.86A30.66,30.66,0,0,1,141.71,209.84Z"/><path d="M122.33,193.48c-12.32-16.34.71-23.25-.25-33.18s-20.23-11.81-17.23,6.69c4.87,30.09,28.27,40.14,36.86,42.85C137.75,208.35,130.51,204.32,122.33,193.48Z"/><path d="M219.94,153.73c-1.19,7.12-11.87,34.41-19,26.11s0-47.47,3.56-57-2.37-17.8-2.37-17.8,2.37,19-10.68,20.17c0-10.67,7.12-42.71,0-60.51s-29.67-34.41-51-36.78c14.23,8.3,23.73,19,23.73,30.85-10.68-10.68-8.31-11.87-21.36-16.61,3.56,5.93,4.75,15.42,2.37,15.42-3.56-5.93-29.66-20.17-30.85-33.22-3.56,5.93-10.68,13.05-8.3,21.36s19,2.37,20.17,15.42,1.18,21.36-3.56,26.1,19,10.68,27.29,22.55c3,4.36,8.5,13.2,14,23.22a65.67,65.67,0,0,1-5.7,4.07c-16.61,10.68-21.95-3-31.44-3s-13.05,19,4.75,17.8a54,54,0,0,0,7.51-1c2.45,8.73,6.18,22.45,9.69,37.22,5.93,24.92,9.49,34.41,9.49,34.41S222.31,235.6,219.94,153.73ZM157.06,83h14.42c2.52,0,4.57,2.72,4.57,6.07H161.62c-2.52,0-4.56-2.72-4.56-6.07Zm17.79,115.82c-7.12-1.18-8.31-8.3-3.56-11.86s0-14.24,0-14.24a74,74,0,0,1-15.43-20.17,19.22,19.22,0,0,0-4.53-5.92,48.33,48.33,0,0,0,14-10.93c9,16.7,17.56,35.82,15.42,43,2.37,7.12,4.75,5.93,4.75,11.87S182,200,174.85,198.82Z"/></g></svg>