<svg id="图层_35_复制" data-name="图层 35_复制" xmlns="http://www.w3.org/2000/svg" viewBox="0 0 240 240"><g id="图层_11_复制" data-name="图层 11_复制"><path d="M223,84.28c-2.61-.75-8.52,12.81-9.79,12.23-1.1-.5,4.63-10.27,2.45-22-1.18-6.29-4.47-12.32-7.34-12.23-1.93.06-3.09,2.87-4.89,2.44-1.54-.36-2.2-2.74-2.45-3.66-2.44-9.13-6.32-25.68-7.34-25.69-1.31,0-.94,27.6-4.89,28.13-2.8.38-8.23-12.8-11-23.24-2.39-9-2.17-13.57-6.11-15.9-4.32-2.54-7.6,1.18-14.68-1.22-6.49-2.2-7-6.42-11-6.11-5.57.43-7.13,8.78-12.23,8.56-3.58-.16-5.19-4.38-7.33-3.67s-2.32,5.77-2.45,8.56c-.62,12.66-4.17,27.71-7.34,28.13-1.29.17-3.49-2-7.34-13.45,1.81,11.93-1.41,20.77-6.11,22-4.32,1.14-9.27-4.3-9.79-4.89-5.61-6.34-3.91-14.78-3.67-15.9-2,2.54-4.07,5.39-6.11,8.56A107.83,107.83,0,0,0,76.2,68.38Q71.43,49.84,67.64,50q-2.7.14-4.89,9.78A48.23,48.23,0,0,1,50.52,19.46a148.93,148.93,0,0,0-9.79,46.48A146.32,146.32,0,0,0,42,92.84c-9-3.38-12.2-7.68-13.46-11-1.69-4.48,0-8.68-3.67-13.46-1.4-1.84-4.18-5.51-6.11-4.89C15,64.67,13,81.91,21.16,92.84c5.82,7.83,12,6,19.57,15.9,4.72,6.21,8,14.39,6.12,15.9-1.48,1.23-6.52-1.66-9.79-4.89-5.29-5.22-5.32-10.69-8.56-11-2-.19-4.25,1.65-4.89,3.67-.47,1.48-.48,4.39,8.56,13.46,6.56,6.58,8.58,7.07,11,9.78,8,8.94-1.64,17.39,2.44,39.14.58,3.09,5.75,29.39,4.9,35.47a28.56,28.56,0,0,1-.61,3.05c-1,3.52-2.15,4.38-2.45,6.12-.64,3.67,3,8.82,6.11,8.56,2.6-.22,4.46-4.25,4.9-7.34.55-3.92-1.14-6.67-2.45-9.78-5.72-13.54-1.06-26.12,1.22-30.58,1-2,2.2-3.62,3.67-3.67,3-.1,4.42,6.28,7.34,6.12,1.38-.08,1.54-1.53,3.67-3.67,5.33-5.36,13-4.93,13.45-4.89a11.19,11.19,0,0,1,4.9,1.22c4.17,2.28,5.44,7.1,6.11,9.78,1.77,7.11-.72,8.77,0,17.13.35,4.05,1.08,12.44,6.12,14.67,2.56,1.14,6.21.65,7.33-1.22,1.24-2.06-1.35-4.51-3.66-9.78-5.16-11.72-2.39-22.42-1.23-26.91a10,10,0,0,1,2.45-4.89c4.21-4.25,12.8-3.36,13.45-1.23.45,1.45-3.08,2.45-7.34,7.34-1,1.13-9,10.58-6.11,15.9,2.07,3.76,8.65,3.7,9.78,3.67,9.74-.27,17.17-9.54,18.35-11,4.44-5.54,5.68-10.69,9.78-11,2.33-.18,4.51,1.28,6.12,0,1.19-1,1.22-2.78,1.22-3.67,0-10.56-3.7-22.48,0-25.69,1.79-1.55,3.57.46,6.12-1.22,2.77-1.83,2.75-5.58,3.66-15.9,1.06-12,1.74-14.32,3.67-15.9,2.42-2,5.24-1.44,9.79-1.22,17.82.85,23.84-4.81,26.91-1.23,3.58,4.19-5.85,10.5-6.12,26.91-.12,7.2,1.52,16.34-2.45,18.35-1.23.62-2.28.19-3.67,1.22-3,2.19-2.54,7.37-2.44,8.56.69,8.72,8.89,17.93,14.06,16.51,3.51-1,4.7-6.58,4.9-7.34,1.44-5.61-1.87-9.84-3.67-14.67-4.41-11.81,1.18-24.56,4.89-33,5.26-12,9.61-11.52,13.45-23.24C225.16,95.87,225.18,84.92,223,84.28ZM87.21,167.45s-4.89,4.89-8.67,6.51S64,171.12,64,171.12c-1.22-7.34,23.24-16.37,23.24-16.37Zm0-20.79s-9.79-1.22-8.56-7.34,2.44-15.9,11-30.58a80.89,80.89,0,0,1,20.8-23.23s.61,11.62.61,16.51c-3.67,3.67-8.11,11.92-13.46,19.57-3.67,0-8.56,4.89-9.78,9.78S87.21,146.66,87.21,146.66Zm20.79,22c-6.12,3.85-18.35,4.9-18.39,0s0-18.32,0-26.88-1.22-17.13,8.57-18.35,32-.92,32-.92-8.19,8.87-10.25,10.24-5.27,2.3-10.08,3-5,.56-5,.56v29.36h7.34S114.11,164.82,108,168.67Zm36.69,4.9c-4.89,4.89-7.34,8.56-12.23,13.45s-7.34,9.78-14.59,8.95c-9.7-.83-9.87-4.06-6.81-8.43s15.29-14,17.73-18.87-22-4.86-22-4.86V153.5c15.9.73,22,4.17,27.67,6.87S150.81,166.23,144.69,173.57Zm16.69-62.85c-2.89,8.09-13,20-20.36,31.05s-11,9.78-11,9.78c-11,0-23.23-3.67-23.23-3.67V138.1a79.61,79.61,0,0,1,11-2.45c7.34-1.22,18.35-19.62,20.8-22s3.66-3.67,1.22-8.56S130,102,130,102V90.4l2.45-1.22c4.89,0,15.9,3.66,20.79,6.11S164.26,102.63,161.38,110.72Zm24.28,1.08-22,1.22s2.44-8.56,0-11c9.78,0,34.24-4.89,34.24-4.89V84.89s-52.59,2.45-62.37,2.45-7.34,8-7.34,8a37.68,37.68,0,0,0-.27,7.08c.27,3.24,8.83,2,8.83,2s3.67,3.67,1.22,6.12a48,48,0,0,0-4.89,6.11H118.54c-7.48,0-6.26-20.79-5-31.8s14.68-11,14.68-11,61.15-1.23,72.16-1.23,9.78,17.13,9.78,17.13,0-.45,0,10.78S185.66,111.8,185.66,111.8Z"/><path d="M149,184a61.56,61.56,0,0,1-1.22,19.57c-1.36,5.88-3.22,9.61-1.22,12.23s7.15,3.31,9.78,1.22c4.75-3.76.43-16.07-1.22-20.79A54.48,54.48,0,0,0,149,184Z"/></g></svg>