<svg id="图层_35_复制" data-name="图层 35_复制" xmlns="http://www.w3.org/2000/svg" viewBox="0 0 240 240"><g id="图层_21_复制" data-name="图层 21_复制"><path d="M85.63,112.72c1.55,2,4.52,4.74,10.71,6.2a18.1,18.1,0,0,0-4.51-11.28,23.49,23.49,0,0,1,13,10.71A37,37,0,0,0,73.23,82.28,53.1,53.1,0,0,1,80,92.42C84.34,101,81.32,107.1,85.63,112.72Z"/><path d="M112.12,71.57A26.43,26.43,0,0,0,104.23,84c-3.35,12.38,4.6,25,4.51,24.8a16.86,16.86,0,0,1-2.26-10.14,16.43,16.43,0,0,1,2.26-6.77A177,177,0,0,1,116.63,111c.33,1,.67,3.4,1.13,3.38.88,0,1.08-9.28,1.12-11.28.05-2.36,0-4.32,0-5.63a71.91,71.91,0,0,1,3.38,7.89c.42,1.15.79,2.28,1.13,3.38a58.33,58.33,0,0,0,2.26-5.64,50.89,50.89,0,0,0,2.25-9c.53-3.7,1.12-7.8,0-11.28C125.26,74.61,113.75,71.93,112.12,71.57Z"/><path d="M131.28,112.15A19.26,19.26,0,0,1,134.66,102a18.48,18.48,0,0,1,4.51-4.51v18a39.6,39.6,0,0,0,7.9-9,40.77,40.77,0,0,0,5.63-14.66,47,47,0,0,0,0-18,43.6,43.6,0,0,0-15.78,12.4,29.59,29.59,0,0,0-5.64,10.15A28.26,28.26,0,0,0,131.28,112.15Z"/><path d="M145.94,116.66a36.05,36.05,0,0,0,7.89-2.25,35,35,0,0,0,4.51-2.26c-2.6,2.81-5.24,5.82-7.89,9-1.57,1.9-3.08,3.78-4.51,5.64,2.23-1.58,5.73-4,10.14-6.77,7-4.43,8.61-4.91,12.4-7.89,4.07-3.18,7.73-6.13,10.15-11.27a24.65,24.65,0,0,0,2.26-9A74,74,0,0,0,155,95.24a54.49,54.49,0,0,1-9,21.42Z"/><path d="M183.14,152.74A44,44,0,0,0,194.41,146a31.91,31.91,0,0,0-15.78-14.65c-8.73-3.58-16.59-1.91-20.29-1.13a39.83,39.83,0,0,0-13.53,5.64,29.05,29.05,0,0,0,9,7.89A28.71,28.71,0,0,0,164,147.1a22.39,22.39,0,0,1-23.68,0,42,42,0,0,0,12.4,6.76C167.17,158.8,179.82,154.1,183.14,152.74Z"/><path d="M58,123.43c7.46,4,7.79,6.34,14.65,10.14a41.33,41.33,0,0,0,19.17,5.64A37.13,37.13,0,0,0,102,138.08,32.52,32.52,0,0,1,76,126.81a28.22,28.22,0,0,1,4.51,0,28.77,28.77,0,0,1,9,2.25A41,41,0,0,0,78.3,122.3,41.62,41.62,0,0,0,70.41,120a46.66,46.66,0,0,1,12.4,1.13,48.26,48.26,0,0,1,22.54,12.4,96.77,96.77,0,0,0-18-14.65c-7.13-4.48-11.65-7.33-18-7.89-10.39-.92-18.77,4.83-22.55,7.89A56.16,56.16,0,0,1,58,123.43Z"/><path d="M88.44,141.46c-6.23-.45-8.23-1.26-11.27,0-5.15,2.14-7.68,7.87-9,12.4a87.42,87.42,0,0,1,9,1.13c8.49,1.52,10.07,3.11,15.78,3.38,3.91.19,9.63.47,13.53-3.38a12.52,12.52,0,0,0,3.38-6.76c-1.78-.08-3.66-.09-5.63,0a67.61,67.61,0,0,0-14.66,2.25c1.93-.81,4.65-2,7.89-3.38,10.77-4.69,11.35-5.28,11.28-5.64C108.48,140.26,101,142.38,88.44,141.46Z"/><path d="M123.39,184.3a20.34,20.34,0,0,0,11.27-5.63c1.24-1.24,5.86-5.87,5.64-12.41-.26-7.82-7.25-12.65-10.14-14.65a27.92,27.92,0,0,0-11.28-4.51,17,17,0,0,0-9,7.89c-3,6-1,11.88,0,14.66C113.07,178.89,121.12,183.18,123.39,184.3Z"/><path d="M165.1,165.14A39,39,0,0,0,155,158.37c-5.05-2.28-8.47-2.44-13.53-5.63a33,33,0,0,1-5.64-4.51c3.17,4.11,4.8,6.51,4.51,6.76-.58.51-8.64-8.23-9-7.89s3.86,7.45,11.28,12.4C151.56,165.51,161.11,165.42,165.1,165.14Z"/><path d="M122.26,130.19c-.37-1.13-.75-2.25-1.12-3.38a10.74,10.74,0,0,0-3.38,3.38c-1.57,2.5-2.42,6.2-1.13,9,2.32,5.1,11.12,6.21,16.91,3.38,1-.47,5.51-2.7,6.76-7.89,1.49-6.19-3.07-11-3.38-11.27a13.13,13.13,0,0,0-14.66,6.76Z"/><path d="M79.43,199a91,91,0,0,1-19.17-16.91,75.06,75.06,0,0,0,64.26,7.89,60,60,0,0,1-11.27,0c-24.64-2.36-47.71-20.56-57.5-44a62.43,62.43,0,0,1-4.51-18,24,24,0,0,0-1.12,22.54A36.24,36.24,0,0,1,35.46,134.7c-6.6-14.45-2.15-33.21,11.27-47.35A41.45,41.45,0,0,0,29.82,102a40.39,40.39,0,0,0-5.63,13.52,47.18,47.18,0,0,1,0-12.4,47.72,47.72,0,0,1,5.63-16.91c-3.29,4-22.95,28.53-18,62,4.79,32.63,29.56,50.9,35.28,55,2.33,1.69,4.19,2.88,5.3,3.59C80.17,224.68,109,221.69,120,220.38a112.18,112.18,0,0,0,35-10.15,89.25,89.25,0,0,1-18,3.38C106.56,216.1,84.19,202.08,79.43,199Zm5.63,13.53a94,94,0,0,1-65.94-59.2,65,65,0,0,0,17.47,25.38,93.68,93.68,0,0,1-9-32.7c2.84,8.32,15.16,41.29,49.6,58.62a96.66,96.66,0,0,0,41.71,10.15A96.12,96.12,0,0,1,85.06,212.49ZM17.8,149.43c.25.78.52,1.6.82,2.45C18.32,151,18,150.22,17.8,149.43Z"/><path d="M226,106.52C217.83,83,194.55,66.36,167.36,64.81a44.47,44.47,0,0,1,21.42,11.27c11.81,11.33,13.26,25.61,13.52,29.31a46.41,46.41,0,0,0-10.14-15.78,46.89,46.89,0,0,0-21.42-12.4A57.76,57.76,0,0,1,191,94.12c2.74,3.65,12.08,16.12,11.27,32.69-.94,19.58-15.45,32.35-24.8,40.58a91.35,91.35,0,0,1-31.56,18,88.49,88.49,0,0,0,57.49-24.8,105.15,105.15,0,0,1-29.31,32.69c7.07-1.94,24.74-7.84,38.33-24.8C216.07,164,236.61,137.22,226,106.52Zm-6.77,40.58c-4,12.7-13.41,20.71-19.16,24.8a48,48,0,0,0,7.89-9,49.5,49.5,0,0,0,7.89-20.29,42.7,42.7,0,0,1-30.44,20.29c11.84-9.1,23.53-21.75,25.93-38.33C213.87,107,204.8,93.33,205.69,93,207,92.5,227.66,120.61,219.21,147.1Z"/><path d="M97.46,70.44a39.47,39.47,0,0,1,12.4,2.26q.65-4.38,1.13-9c1.47-14.2.71-23.65,1.13-23.68s1.2,6.12,3.38,30.44a32.06,32.06,0,0,1,16.91,0,15.59,15.59,0,0,0-13.53-3.38L111,18.58l-5.64,50.73a19.59,19.59,0,0,0-18,2.26A39.49,39.49,0,0,1,97.46,70.44Z"/><path d="M116.63,193.32l-6.77,2.26q2.27,7.32,4.51,14.65Q115.5,201.77,116.63,193.32Z"/><path d="M49,129.06c-.38-1.12-.75-2.25-1.13-3.38l-12.4,2.26Z"/><path d="M178.63,123.43v4.51l22.55-2.26Z"/></g></svg>