<svg id="图层_35_复制" data-name="图层 35_复制" xmlns="http://www.w3.org/2000/svg" viewBox="0 0 240 240"><g id="图层_33_复制" data-name="图层 33_复制"><path d="M150,54.38c-3.5-8.77-3.82-13.62-9.41-23.52C134.41,20,128.83,15.27,122.9,13.22A20.92,20.92,0,0,0,114.67,12c-1.76.13-6.39.72-12.93,5.88C88.49,28.37,84.84,43.84,84.1,47.32a55.1,55.1,0,0,0-1.18,12.94,56.88,56.88,0,0,0-8.23,10.58c-6.43,10.69-3.24,17.86-8.23,32.93-3.66,11-5.78,9.26-7.06,16.46-.62,3.5-1.34,10.8,7.06,31.75,1.27,3.18,4,9.72,12.93,27.05,8.82,17.07,13.32,25.7,17.64,30.58,1.25,1.41,20.38,22.61,31.75,17.64,4.32-1.89,3.65-5.87,12.94-20,5.27-8,6.38-8.09,9.41-12.93,6.91-11.06,5.11-17.08,9.41-32.93,5.4-20,10.58-19,14.11-36.45,1.77-8.79,3.57-17.66,1.17-28.23C171.55,77.88,159.57,78.44,150,54.38Zm-.14,108.84q-.23.54-.45,1.11c-3.82,9.9-2,13.67-5.88,18.82-3.51,4.64-5.72,2.51-11.76,8.23-6.64,6.29-5.33,10.17-10.58,12.93-6.16,3.25-13.27.72-15.29,0a23.37,23.37,0,0,1-11.76-9.4c-3.11-5-2.44-8.79-3.53-14.12-1.13-5.55-4.22-13-12.93-21.16a28,28,0,0,1,14.11,3.52c5.42,3.13,5.38,5.86,11.76,10.59,8.13,6,15.32,6.87,17.64,7,.46,0,9.55.69,10.58-2.35.6-1.76-2.05-3.21-3.52-7.05a16.36,16.36,0,0,1,0-10.59c.13.54,1.72,6.46,7.05,8.23,4.48,1.5,8.44-1,10.59-2.35a17.36,17.36,0,0,0,4-3.46,56.06,56.06,0,0,1,4.26-8.3A21.32,21.32,0,0,1,149.81,163.22ZM167,122a131.16,131.16,0,0,1-4.7,12.93,22.86,22.86,0,0,0,0-11.76c-.42-1.52-2.63-9-9.41-12.93-4.76-2.77-8.79-2-13.1-2.32a31.51,31.51,0,0,1,6.05,12.9,21.29,21.29,0,0,1-11.76-2.35,20.68,20.68,0,0,1-5.88-4.71,34.38,34.38,0,0,0,1.17,5.88c2.28,7.86,5.73,9.38,5.88,14.12.1,2.88-1.5,5.44-4.7,10.58a64.64,64.64,0,0,1-8.23,10.58c2.91-4.24,3.15-8.58,1.17-10.58a4,4,0,0,0-3.53-1.18c-3,.68-4.19,5.83-5.88,12.94-.58,2.45-1,4.5-1.17,5.88A24.19,24.19,0,0,1,107,149c-.72-6.24,1.42-11.73,2.35-14.11,1.77-4.53,3.59-6.38,4.7-11.76.35-1.67,1.34-6.43,0-7s-5.09,4.08-8.23,8.23a106.88,106.88,0,0,0-7,10.58c.63-9.06,1-16.32,1.17-21.17,0-1.09.92-7.16,1.79-13a36.74,36.74,0,0,1-6.49-1.08c-4.68-1.21-15.23-4-18.82-12.93-.15-.4-3.13-8.2,1.18-15.29,1.32-2.18,4.78-6.66,7.06-5.88,3.7,1.27-1.51,14.45,4.7,24.69,3.07,5.06,8,7.93,12.49,9.64.77-5.14,1.5-9.93,1.62-10.81.26-1.86.81-5.71,3.53-7.06a6.23,6.23,0,0,1,4.7,0,12.37,12.37,0,0,1,0-4.7c.29-1.45,1.21-6.18,4.71-7.06a5.45,5.45,0,0,1,5.88,8.23,33.65,33.65,0,0,1,5.88,7.06,22.39,22.39,0,0,1,3.52,8.23,19.54,19.54,0,0,1,0,7.06,29.86,29.86,0,0,1,3.05,2.11c5.93,1.21,11.71.07,15.77-3.29a18.2,18.2,0,0,0,5.88-11.76c.44-7-3.68-13.92-10.58-17.64A66.35,66.35,0,0,1,161.12,82c4.83,5,7.76,8,9.41,12.94C173,102.36,170.94,109.16,167,122Z"/><path d="M44.7,59.67c3.6,2.41,6.55,1,8.23,3.53,1.84,2.7-.8,5.62,0,9.41.62,2.88,3.26,6.37,11.76,9.4-.15-12.23-3.71-17.48-7-20-2.67-2-5.71-2.64-7.06-5.88-1.29-3.08.39-5.1,1.18-10.58.52-3.69,1.77-12.4-2.35-15.29C46,27.85,39,29.69,36.47,33.8c-1.9,3.07-.48,7.14,2.35,15.29C40.84,54.86,41.9,57.79,44.7,59.67Z"/><path d="M191.7,52.61c1-4.36-1.73-6.76,0-10.58,2-4.42,6.59-3.21,10.58-8.23,2.77-3.48,5-9.61,2.35-12.94-3.1-3.94-11-1.42-11.76-1.17-1,.34-7.22,2.39-7.05,5.88.1,2.2,3.47,1.91,4.7,4.7,2,4.54-5.12,9.11-3.53,16.46.42,1.93,1,1.9,1.18,3.53.63,5.05-4.1,9.74-8.23,12.94C188.32,59.68,191,55.74,191.7,52.61Z"/><path d="M203.46,43.21c-.25,4.48,2.24,6,4.7,11.76,1.55,3.62.57,3,3.53,18.81,1.31,7,1.71,8.22,1.18,10.58-1.19,5.21-5.29,8.64-8.24,10.59,7.86-4.87,10.08-9.5,10.59-12.94.63-4.32-1.54-6.15-2.35-16.46-.35-4.37-.52-6.55,0-9.41,1.18-6.56,4.11-7.87,3.52-11.76-.72-4.78-6.14-9.32-9.4-8.23C204.56,37,203.59,40.78,203.46,43.21Z"/><path d="M34.12,93.77c1,2.75-3.66,4.48-4.71,9.41-.73,3.46.61,7.07,2.36,11.76,1,2.79,2.25,5.1,1.17,7.06-.71,1.3-1.7,1.1-2.35,2.35-1,2,.35,4.57,2.35,8.23a33.42,33.42,0,0,0,4.71,7.06,30.63,30.63,0,0,0,9.4,7.05c-4.51-4-6.28-7.84-7-10.58-1.5-5.29.31-7.91-2.35-12.94-1.31-2.47-2.82-3.85-2.36-5.88.51-2.23,2.73-2.23,3.53-4.7.58-1.77-.33-2.45-1.17-7.06-.73-3.92-1.07-5.91,0-7,1.38-1.49,3.49.11,5.88-1.18,3-1.62,3.77-6.37,3.52-9.41-.29-3.64-2.15-6-5.88-10.58-3.26-4-8.27-9-9.4-8.23-.17.12-.27.38,0,2.35.54,4,1.17,4.52,1.17,5.88,0,3.8-4.81,4.56-4.7,8.23.05,1.78,1.23,3.28,2.35,4.7C32.49,92.66,33.64,92.45,34.12,93.77Z"/><path d="M52.93,190.2a13.12,13.12,0,0,0-3.52,0,14.87,14.87,0,0,0,0-5.88c-.26-1.25-.81-3-4.71-8.23a91.42,91.42,0,0,0-9.41-10.58c-2.84-2.9-3.57-3.47-4.7-3.53-3.21-.17-6.89,4-7.06,8.23,0,.41-.12,4.5,2.36,5.88s4.91-2,9.4-1.18c3.18.56,5.33,2.86,7.06,4.71,2,2.13,3.48,3.72,3.53,5.88.07,3.48-3.71,4.08-4.71,8.23-.92,3.85,1,9,4.71,10.58,1.93.8,5.19,1,7-1.17a6,6,0,0,0,1.18-4.71,10.88,10.88,0,0,1,7.06,1.18c2.52,1.46,3.62,3.65,4.7,5.88a24.63,24.63,0,0,1,2.35,11.76,23.5,23.5,0,0,0,0-10.58C66.48,199.33,60.64,191.26,52.93,190.2Z"/><path d="M212.87,147.87c-.73-.55-1.7-1-4.71-1.18-5.64-.35-8.46-.53-10.58,1.18-3.3,2.65-3.86,8-2.35,11.76a10.23,10.23,0,0,0,2.35,3.52A16.69,16.69,0,0,0,191.7,169c-2.29,4-1.47,6.91-3.53,11.76a23.3,23.3,0,0,1-4.7,7.06c6.49-1,10.44-3.5,12.93-5.88,3.11-3,4.51-6.29,5.88-5.88s1.68,4.16,1.18,7.06c-.61,3.55-2.18,4.16-3.53,8.23-.58,1.74-.78,3.91-1.18,8.23-.56,6.1-.2,7.34-1.17,10.58-.79,2.62-1.47,4.78-3.53,5.88-2.34,1.25-5,.34-5.88,0,1.56.89,4.41,2.17,7.06,1.18,3.54-1.33,4.71-6,5.88-10.58,1.92-7.64,0-9.2,2.35-14.12.69-1.44.58-.74,5.88-8.23,3.84-5.43,4.44-6.58,4.7-8.23.6-3.78-.81-8.63-3.53-9.41-2-.58-4.33,1.29-7,3.53-2.26,1.85-2.63,2.8-4.71,4.7a28.21,28.21,0,0,1-7.05,4.71c3.24-4.86,6.08-8.83,8.23-11.76,4-5.47,4.89-6.3,5.88-7.06,4.71-3.62,8.28-2.91,9.41-5.88C216.11,152.56,214.88,149.39,212.87,147.87Z"/></g></svg>