<svg id="图层_35_复制" data-name="图层 35_复制" xmlns="http://www.w3.org/2000/svg" viewBox="0 0 240 240"><g id="图层_30_复制" data-name="图层 30_复制"><path d="M123.28,20.64a1.3,1.3,0,0,0-.1.15l.09-.09Z"/><path d="M161,213.07l-2.24,1.38A5.4,5.4,0,0,0,161,213.07Z"/><path d="M169.42,218.39c-1,.51-2,1-3,1.52C167.19,219.56,168.23,219.07,169.42,218.39Z"/><path d="M214.45,142.38a11.76,11.76,0,0,1-15.29-6.55,7.83,7.83,0,0,0,2.19-1.09c1.92-1.37,2.6-3.2,4.36-7.64.4-1,1.16-2.92,2.19-5.46a12.24,12.24,0,0,1,0,3.27,12.38,12.38,0,0,1-2.19,5.46c12.08-14.07,15-32.07,7.65-44.76C209,78.11,202.19,74.3,198.07,72.5a6.22,6.22,0,0,1-2.18,6.55,20.88,20.88,0,0,0-1.1-6.55c-1.41-4.13-3.87-6.82-8.73-12-1.38-1.48-3.21-3.35-5.46-5.46a28.86,28.86,0,0,1,7.64,2.19A31,31,0,0,1,202,69.63a62.5,62.5,0,0,0-9.42-12.41c-2.67-2.72-22.09-22.49-43.68-19.66-5.44.72-10.26,2.77-15.28,0s-7.22-8.64-7.64-9.82a20.52,20.52,0,0,1-1.1-8.74c-.55.59-1.1,1.15-1.64,1.7a21.46,21.46,0,0,0,2.19,10.86c1.12,2.23,3.57,7.09,8.73,8.73a16.83,16.83,0,0,0,8.74,0c.43-.1.82-.21,1.19-.32a10.77,10.77,0,0,1,2.09-.77,21,21,0,0,1-2.09.77,8.52,8.52,0,0,0-4.47,4.69c-1.28,3.55.55,6.69,1.1,7.64,2.78,4.81,9.88,8.24,14.19,5.46,3-1.95,3.26-6.07,3.28-6.55.16-4-2.4-7.88-6.56-9.83a21.11,21.11,0,0,1,9.83,4.37c.75.61,7.31,6.08,7.64,14.2.25,5.83-2.95,7.56-2.18,13.1a15.83,15.83,0,0,0,4.37,8.73A14.79,14.79,0,0,0,179,86.15c4.73.93,6.17-1.6,10.92-1.09a15.58,15.58,0,0,1,9.83,5.46c4.91,6.37,2,16.37,1.09,16.38-.31,0,1.31-7.64-1.64-9.28-2.64-1.48-7.72,2.49-12,6.55a18,18,0,0,1,10.92,5.46,17.6,17.6,0,0,1,4.37,15.28,16.71,16.71,0,0,1-2.19,5.46,15.34,15.34,0,0,0-2.18-10.92c-.72-1.08-3.8-5.69-7.64-5.46-4.84.3-7.88,8.1-9.83,13.11a41.79,41.79,0,0,0-2.18,7.64,8.3,8.3,0,0,1,3.27-4.37,8.5,8.5,0,0,1,6.55-1.09,11.9,11.9,0,0,0-3.27,2.18,11.71,11.71,0,0,0-3.28,5.46,11.2,11.2,0,0,0,0,5.46c7.58-4.55,12.32-4.37,15.29-3.27s4,3.08,8.73,4.37c2.14.57,5.33,1.39,8.74,0a11.32,11.32,0,0,0,4.37-3.28c-4.92,7.15-9.57,9.3-13.11,9.83-6.23.92-10.17-3.05-15.28-1.1-4.16,1.59-6.39,6.06-7.65,9.83a16.52,16.52,0,0,1,12-2.18,15.87,15.87,0,0,1,9.83,6.55,14.8,14.8,0,0,1,2.18,5.46,16.12,16.12,0,0,0-6.55-5.46,16.54,16.54,0,0,0-9.82-1.09c-8,1.61-11.58,8.91-12,9.82a21.3,21.3,0,0,1,8.73,3.28c2.22,1.47,8.29,5.5,7.64,10.92-.56,4.71-5.83,7.3-6.55,7.64a8.5,8.5,0,0,0,1.09-5.46c-.92-5.7-8.34-7.55-8.73-7.64a13.6,13.6,0,0,0-16.38,12c-.82,8,5.88,13.65,6.55,14.19a10.8,10.8,0,0,1-6.55,0c-3.06-1.07-4.77-3.56-6-5.9.22-3,0-7.59,0-11,.11-6.91,1.58-16.56,7.64-28.39q-7.1,11.46-14.2,22.93c0-.35-.08-.72-.13-1.07,4-10.61,17.13-54.91,23.06-78.64C167,91.61,134.19,54.49,122.18,49c-10.92,4.36-44.76,45.86-51.31,55.68,0,4,7.71,41.3,11.77,60.6a47.21,47.21,0,0,0-.86,10.38c.14,4.78.25,8.57,2.19,13.1,2.21,5.17,5.49,8.28,4.37,9.83-.74,1-3.1,1-4.37,0-2.1-1.7-.41-5.6-2.19-6.56a2.3,2.3,0,0,0-1.72-.06c-.14-.34-.29-.68-.46-1-1-2-1.8-3.64-3.28-4.37-4-1.95-11.32,3.16-18.56,12a24.63,24.63,0,0,1,7.65-10.92s1-.83,8.73-5.46a21.15,21.15,0,0,1-8.73-6.55c-1.78-2.28-5.06-6.14-4.37-10.92a9.77,9.77,0,0,1,1.09-3.28A10.25,10.25,0,0,0,64.31,168c2,2.4,6,4.8,8.74,3.28s2.74-6.25,2.18-8.74c-1.23-5.51-6.57-8.2-7.64-8.73-5.07-2.55-6.84-.13-10.92-2.19-8-4-8.68-17.19-8.73-18.56A27.58,27.58,0,0,1,49,124.37,19.28,19.28,0,0,0,51.21,132c3.49,6.53,11.61,12.19,16.38,9.83a6,6,0,0,0,3.28-5.46c-.3-2.74-3.35-3.61-10.92-8.74-7-4.72-8.16-6.53-8.74-7.64a15.07,15.07,0,0,1-1.09-9.83A24.55,24.55,0,0,0,54.49,120c3.29,4.39,9.34,9.22,12,7.64,1.57-.93,2-4.14,1.09-6.55-1.92-4.8-8.21-3-12-8.73-.48-.72-3-4.53-2.19-8.74.43-2.18,1.46-2.89,1.1-4.37-.63-2.56-4.59-4-7.65-4.36-6.73-.72-11.53,4-12,3.27s3.53-5.82,9.83-7.64a19.22,19.22,0,0,1,9.83,0c5,1.37,6.8,4.22,9.82,3.27a4.91,4.91,0,0,0,3.28-3.27c.29-1.2,0-2.91-3.28-6.55-4.6-5.06-7.3-8-12-8.74-8.51-1.3-14.85,6-15.28,6.55a20.3,20.3,0,0,1,9.82-8.73c3.88-1.49,11.5-2.77,16.38,0a6.39,6.39,0,0,0,4.37,1.09A5.2,5.2,0,0,0,70.87,72c1.61-2.47-.26-4.89,0-8.74a14,14,0,0,1,3.27-7.64c3.56-4.66,9.31-2.13,13.1-6.55a10.61,10.61,0,0,0,2.19-4.37,15.26,15.26,0,0,1,0,6.55c-1.26,5.42-5.13,7.2-4.37,9.83.67,2.33,4.57,3.84,7.64,3.27,5.4-1,7.52-8.27,7.65-8.73,2-7.08-2.94-10.23-2.19-20.75.37-5.15,1.86-8.78,2.19-8.73s-.79,3.62,1.09,6.55a7.26,7.26,0,0,0,5.46,3.27c1.49.1,3.43-.35,7.64-4.36a52.63,52.63,0,0,0,8.64-10.77,86,86,0,0,1-9.19,8c-3.63,2.74-5.56,3.73-7.64,3.27-1.81-.39-4.16-2-4.37-4.36a4.8,4.8,0,0,1,1.1-3.28,9.39,9.39,0,0,0-4.37,2.18c-3.45,3.16-2,7.23-4.37,10.92-3.43,5.28-12.69,6.59-14.19,4.37-.49-.72-.82-2.79,5.46-9.83a33.68,33.68,0,0,0-10.92,5.46c-2.12,1.61-8.28,6.26-10.92,14.2-2.3,6.89-.38,11.54-3.28,13.1C58.35,66,56.42,64,52.85,63.77c-3.32-.17-8.09,1.27-14.2,8.73q-2.17,6-4.36,12c.62-.64,10-10,18.56-7.64a11,11,0,0,1,5.46,3.28c2,2.29,3.51,6.14,2.18,7.64-.94,1-2.62-.15-6.55,0-5.08.19-7.62.29-9.83,1.09-1.82.66-2.09,1.15-9.82,7.64-4.11,3.45-5.79,4.79-5.46,5.46.53,1.11,5.36-2.06,8.73,0,4.55,2.78,3.79,10.3,3.28,15.29-.32,3.12-1.05,10.23-4.37,10.92-2.16.44-4.45-2-5.46-3.28-.36-2.54-.73-5.09-1.09-7.64-4.37,9.25-3.66,15-2.18,18.56.51,1.26.93,1.75,7.64,9.83,6.41,7.72,9.55,11.61,8.73,14.19-.56,1.79-2.17,3.94-4.36,4.37-.82.16-3.15.36-8.74-5.46a55.57,55.57,0,0,1-8.73-12c10,18.79,16,26.27,19.65,29.48.54.48,3.27,3.23,8.74,8.74,3.51,3.54,4.72,4.8,4.36,5.46-.62,1.14-5.68,0-9.82-2.19-4.49-2.39-6.17-5.16-8.74-7.64-3.08-3-8.27-6.35-17.47-7.64a52.44,52.44,0,0,1,14.2,10.91c6.53,7.19,6.2,11.13,13.1,17.48a45.86,45.86,0,0,0,14.19,8.73A52.08,52.08,0,0,0,78,213.36c1.82.06,3.33,0,4.37,0A10,10,0,0,1,75.78,209c-.8-1.32-2.19-4.38-1.09-5.46,1.55-1.53,8.08.9,12,5.46,2,2.29,2.36,4,3.78,5.89h0a10.68,10.68,0,0,0,1.67,1.74,15.85,15.85,0,0,0,6.55,3.28,8.14,8.14,0,0,1,3.27-8.74c3.42-2.23,8.08-1.24,9.83,1.09,2.08,2.77-.55,8.57,0,8.74a18.39,18.39,0,0,0,1.94-3.4,5.86,5.86,0,0,1,2.43-2.06l.64-.21a7.64,7.64,0,0,1,3.73.21c5.22,1.21,6.72,5.05,8.73,4.37,1.46-.5,1.07-2.67,3.28-6.55a21.67,21.67,0,0,1,3.27-4.37,43.52,43.52,0,0,0,3.28,3.27c5.55,5,12.87,9.06,14.19,7.65.86-.92-2-3.12-1.09-6.55.62-2.34,2.6-5.24,5.46-5.46,1.56-.13,3.93.51,4.37,2.18a3.3,3.3,0,0,1-1,3c5.34-3.27,10.79-6.79,16.32-10.63q3.93-2.73,7.65-5.46a31.29,31.29,0,0,1-15.55,21.41,171,171,0,0,0,17.73-10.49c14.78-10,17.42-15.21,18.56-18.57a24.92,24.92,0,0,0,1.09-10.91,10.32,10.32,0,0,1-1.09,4.36,11.32,11.32,0,0,1-6.55,5.46c2.11-2.39,2.48-5.55,1.09-7.64a5.52,5.52,0,0,0-3.27-2.18,8.88,8.88,0,0,1,1.09-3.28c1.37-2.39,4.72-5.54,7.64-4.37a5.82,5.82,0,0,1,3.28,5.46,17.37,17.37,0,0,0-4.37-19.65A51.88,51.88,0,0,0,221,138,14.82,14.82,0,0,1,214.45,142.38ZM123.86,57.13S146.72,73.6,145.6,79.06c-2.21,6.54-20.83,19.56-21.92,19.64S123.86,57.13,123.86,57.13ZM122.51,117s4.33,10,17.43,9,13.15-10.86,11-15.24S143.32,102,140,104.15s3.27,1.1,5.43,5.48,5.41,12-6.6,13.07-16.33-12.08-15.23-15.35,20.26-20.66,22.74-22.83,3.57,0,3.57,0,16.31,15.36,17.39,18.64,2.1,18.57-22,34.85c0,4.36,1,24,1,24l1.19-21.83A53.2,53.2,0,0,0,164,125c-3.34,15.28-4.52,37.11-8.93,45.83-.83,1.63-3,4.62-4.19,6.69-.1-1-.2-1.92-.28-2.92a148.39,148.39,0,0,1,0-22.93A34.38,34.38,0,0,1,144,168a33.3,33.3,0,0,1-6.55,6.55c-1-2.8-1.73-5-2.18-6.55-.41-1.34-.6-2-1.1-2.18-1.45-.39-3.3,5.7-4.36,5.46s.92-6.92-2.19-13.1a15.76,15.76,0,0,0-3.27-4.37,25.2,25.2,0,0,0-1.78,2l.46-23.27s14.64,10.83,14.59,20.66c0,8-5.79,7.3-8,8.51l.21,2.74c2.36,1.07,8.17-.84,9.92-6.87,2.22-7.64-2.1-19.67-17.35-28.46A83.48,83.48,0,0,1,122.51,117Zm-3.06-58.69s1.1,41.65,0,41.57S99.8,86.7,97.62,80.15C96.52,74.69,119.45,58.31,119.45,58.31ZM87.24,151.66a55.61,55.61,0,0,0-3,7.4c-1.82-10.13-3-23-5.19-33.06a53.29,53.29,0,0,0,16.38,15.29l1.09,21.84s1.1-19.65,1.1-24c-24-16.38-22.93-31.67-21.84-34.94S93.25,85.61,93.25,85.61s1.09-2.19,3.56,0,21.55,19.65,22.64,22.92-3.27,16.38-15.28,15.29-8.74-8.73-6.55-13.1,8.73-3.28,5.46-5.46-8.74,2.18-10.92,6.55S90,126,103.08,127.1s17.47-8.91,17.47-8.91a84.77,84.77,0,0,1,0,12.18c-15.29,8.74-19.66,20.75-17.47,28.39S114,167.5,114,164.22s-8.73,0-8.73-9.83,14.68-20.59,14.68-20.59l.39,25.5a21.6,21.6,0,0,0-2.51,7.65,21.13,21.13,0,0,0,0,5.46,5.68,5.68,0,0,1-5.46-4.37,27,27,0,0,0-1.1,4.37,27.82,27.82,0,0,0,0,8.74L109.08,179c-3.77-3.84-5.68-5.79-6.55-7.64a12.8,12.8,0,0,1-1.09-6.55c-.41,3-.75,5.49-1.09,7.64a19.29,19.29,0,0,0-.22,5.17,13.47,13.47,0,0,0,.22,1.38,18.77,18.77,0,0,0,1.09,3.28c-.2.11-5.69-6.7-9.83-16.38A70.86,70.86,0,0,1,87.24,151.66Z"/></g></svg>