<svg id="图层_35_复制" data-name="图层 35_复制" xmlns="http://www.w3.org/2000/svg" viewBox="0 0 240 240"><g id="图层_29_复制" data-name="图层 29_复制"><path d="M182.28,86.5C185.81,90,167,121.75,167,121.75s36.43-44.66,42.3-69.33S208.14,36,197.56,45.37s-52.88,77.55-52.88,77.55S178.76,83,182.28,86.5Z"/><path d="M70.64,97.07c-12-13.51-23-25.22,12.5,3-3.87,4-7.85,10.32-11.32,20.47.45-.82,6.22-11,15.81-16.9,5.49,4.4,11.93,9.6,19.44,15.73,0,0-7.28-7.29-17.28-17a26.32,26.32,0,0,1,10.2-3c2.38,2.81,4.75,5.55,7.08,8.17q-2.25-4-4.88-8.23h.18c1.76,0,12.37.37,17.63,8.23,2.37,3.54,5.26,11,1.18,15.27-3.69,3.86-11.26,3.22-14.11,0-1.72-1.94-1.57-4.68-2.35-4.7-1,0-2.48,3.58-2.35,7.06a14,14,0,0,0,5.88,10.57c6.69,4.59,18,1.88,23.5-4.7,6.28-7.51,4.43-19.37-1.21-27.59,4.27-5.43,8.61-11.32,13-17.67,3.85.63,7.74,2,9.41,5.31a7.72,7.72,0,0,1,0,7c-1.77,3.23-6.15,4.47-9.4,3.52a7.43,7.43,0,0,1-2.35-1.17,8.54,8.54,0,0,0,2.35,4.7c2.94,2.85,7.81,2.8,10.58,1.17,5.18-3,5.61-13.09,2.35-18.8-1.83-3.2-5.16-5.59-9.46-7,5.92-9,11-17.75,15.34-25.92a219.71,219.71,0,0,0-19.09,25,41,41,0,0,0-19.69,2c.76-.8,5.58-6,4.7-12.92-.93-7.22-7.67-13.35-16.46-14.1a25.74,25.74,0,0,1,10.58-1.18c12.82,1.32,20,12.3,21.15,14.1a26.4,26.4,0,0,0-7.05-11.75c-11.3-10.72-28.15-6.22-29.38-5.87q2.3-4.68,4.7-9.4Q119.29,26,127.05,12.46L102.37,51.24a37.23,37.23,0,0,0-15.27,9.4,35.84,35.84,0,0,0-6.6,9.45c-3.78-4.33-7.48-8.26-11-11.8Q74,65.37,79.3,72.82A40.88,40.88,0,0,0,76.52,86.5a37.64,37.64,0,0,1,4.14-11.78q4.17,5.81,8.79,11.78c1.72,2.22,3.45,4.38,5.17,6.5-1.33.56-2.67,1.13-4,1.72a22.73,22.73,0,0,0-5.33,3.37C66,79.54,40,55.49,34.21,54.77,24.81,53.59,44.79,78.27,70.64,97.07Zm65.81-11.75c.91,0,2,.06,3.16.14-3.7,6-6.87,11.85-9.6,17.35a26.93,26.93,0,0,0-3-3.39c-6-5.72-13.34-6.79-16.45-7C121.92,85.76,131.49,85.18,136.45,85.32ZM91.8,84.15c-3.19-4.3-6.39-8.29-9.55-12a33,33,0,0,1,2.5-3.27c1.51-1.75,10.42-12.05,23.5-11.75,3.07.07,9.45.21,12.93,4.7,4.81,6.21,1.46,17.41-4.71,22.33-1.74,1.39-2.85,1.59-8.22,3.52,0,0-5,1.79-11,4.23C95.56,89.35,93.74,86.76,91.8,84.15Z"/><path d="M224,211.65S209.08,194.29,193.34,178c.63-.33,1.25-.67,1.87-1.05,3.27-2,10.07-6.28,11.75-14.1.38-1.75,1.78-9.65-3.52-14.1-3-2.48-8.87-4.62-12.93-1.18-3.39,2.88-4.14,8.52-1.18,12.93a7,7,0,0,1,3.53-7.05,6.62,6.62,0,0,1,8.22,2.35c2.12,3.84-2.37,11.17-8.22,14.1a14.68,14.68,0,0,1-6,1.51c-2-2-4-3.94-5.94-5.78a30.53,30.53,0,0,0,1.36-4c1.32-4.94,3.7-13.37-1.17-20-4.25-5.76-12.87-8.64-20-5.88-1,.4-8.42,3.41-9.4,10.58-.68,5,1.82,11.3,7.05,12.92a8.54,8.54,0,0,0,2.81.39,107.7,107.7,0,0,0,8.07,8.48,23.14,23.14,0,0,1-10.88,4.06c-5.06.71-10,1.21-14.82,1.55-1.33-1.27-2.65-2.57-4-3.9a238.14,238.14,0,0,1-22.33-25.85,120.15,120.15,0,0,0,10.58,17.62,126.42,126.42,0,0,0,10,12.46c-8.38.37-16.14.26-22.93-.08,0-1,0-2,0-3-.08-8.35-.52-16.21-1.18-23.51-.76,8.11-1.23,16.93-1.24,26.34a197.66,197.66,0,0,1-24.61-2.83l-1.79-.37c6.34-9.24,12.11-18.31,16.48-26.07-6.5,6.49-16.47,18.29-23.13,24.64-2.16-.48-4.12-.9-6-1.26,2.36-7,9.27-21.3,23.22-46.89,0,0-16.68,21.5-32.76,45.77a40.2,40.2,0,0,0-7.78.65A51.7,51.7,0,0,0,33,178.16,50.39,50.39,0,0,0,16.59,204a49.44,49.44,0,0,1,18.8-22.33C38,180,45.05,176,56.54,174.63c1-.12,2-.2,2.93-.26C48.75,191.09,39.12,208.22,36,219.87c-6.08,22.57,21.82-8.71,45.34-41.76,6.27,2.31,13.13,5.16,23.4,7.1,2.88.54,5.67.93,8.43,1.22q.33,7.31,1,14c.4-4.41.72-9,.92-13.86,10.81.9,21.44,0,35.1-1.77a78.57,78.57,0,0,0,20.39,10.93c-4.75-3.38-9.82-7.25-15.06-11.64l9.19-1.28c5.46-.77,12.35-.2,19.54-1.66,11.94,10.08,23.35,18.7,23.35,18.7s-14.6-16.34-17.33-20.46l.7-.28C193.9,181.51,203.19,190.46,224,211.65Zm-65.22-66.4c1.85-3.32,11.06-3.54,15.28,1.18,2.77,3.11,2.48,7.37,2.35,9.4a16.06,16.06,0,0,1-1,4.72c-7.12-6.31-13.06-10.54-16.06-10.36C158.46,148.42,158,146.58,158.78,145.25Z"/><path d="M51.84,147.6a32.74,32.74,0,0,1-22.33,7.05A32.13,32.13,0,0,1,16,150.54a30.09,30.09,0,0,0,29.38,11.75c11.42-2.11,21.77-11.2,23.5-23.5,1.87-13.29-6.62-28.24-20-30.55-7.5-1.31-19,.3-23.5,9.4s-.18,22,8.81,25.26c7.81,2.86,18.33-1.86,20-8.22.9-3.47-.56-8.49-3.52-9.4-2-.62-4.49.65-5.88,2.35-2.67,3.25-.15,6.78-2.35,9.4s-8.4,3-11.75,0c-4-3.59-2.42-10.45,0-14.11,4-6.08,13.2-7.55,20-4.7,5.89,2.49,10.78,8.59,10.57,15.28S55.81,144.41,51.84,147.6Z"/><path d="M131.75,142.9A331.11,331.11,0,0,0,163.48,130a331.54,331.54,0,0,0,36.43-20c-11.08,4.26-22.9,9.3-35.25,15.28C152.68,131.07,141.71,137,131.75,142.9Z"/></g></svg>