<svg id="图层_35_复制" data-name="图层 35_复制" xmlns="http://www.w3.org/2000/svg" viewBox="0 0 240 240"><g id="毒经_复制_2"><path d="M79.44,96.83a2.18,2.18,0,0,0,.63.08,2.46,2.46,0,0,0,1.26-.34L101,84.8a2.46,2.46,0,0,0-2.53-4.22L81,91.05,67.63,67.42c-1.22,1.21-2.39,2.47-3.52,3.76L77.93,95.67A2.46,2.46,0,0,0,79.44,96.83Z"/><path d="M98.25,67.94a2.46,2.46,0,0,0,.49-4.9L75.38,60.71c-1.84,1.39-3.63,2.86-5.33,4.41Z"/><path d="M78.2,148.24a2.46,2.46,0,1,0-3.64-3.3L58.8,162.36q1.43,2.05,3,4Z"/><path d="M94.81,188.37A2.48,2.48,0,0,0,97,187l13.24-27.59,17.21,17.21a2.46,2.46,0,1,0,3.47-3.48l-14.39-14.39a38.58,38.58,0,0,1-10.29-2.36L93.52,182.91l-23.31-7.54a74.42,74.42,0,0,0,12.92,9.34l10.92,3.54A2.51,2.51,0,0,0,94.81,188.37Z"/><path d="M160.56,116.45l-3.07,28.65a2.45,2.45,0,0,0,2.18,2.7l.27,0a2.46,2.46,0,0,0,2.44-2.2l3.68-34.4a2.45,2.45,0,0,0-1.24-2.41,2.48,2.48,0,0,0-2.71.2l-4.21,3.28a39,39,0,0,1,.74,5.65Z"/><path d="M131.06,60.8a2.46,2.46,0,0,0,.76,1.77l15.42,14.64a2.45,2.45,0,0,0,1.69.67H149a2.47,2.47,0,0,0,1.73-.78L165.4,61.32c-1.31-1-2.64-2-4-2.91L148.82,71.93,137.06,60.76,147.16,51c-1.7-.67-3.42-1.29-5.17-1.83L131.81,59A2.45,2.45,0,0,0,131.06,60.8Z"/><path d="M123.71,26.25l1.41.07A2.51,2.51,0,0,0,123.71,26.25Z"/><path d="M88.2,57.43a2.41,2.41,0,0,0,1.69.69,2.47,2.47,0,0,0,1.78-.76l8.44-8.82a73.48,73.48,0,0,0-10.37,3.73L88.12,54A2.45,2.45,0,0,0,88.2,57.43Z"/><path d="M187.15,185.92q-2.51,2.55-5.19,4.9h5a2.45,2.45,0,0,0,.16-4.9Z"/><path d="M182.74,160c1-1.56,1.94-3.14,2.81-4.77a2.38,2.38,0,0,0-1.42-.3l-15.82,1.48a2.46,2.46,0,0,0-2.16,1.85L160,182.8a74.23,74.23,0,0,0,6.17-4.4l4.31-17.24Z"/><path d="M109.14,152.77a2.47,2.47,0,0,1,2.15.68l5.27,5.27c1.13.1,2.28.16,3.44.16a38.71,38.71,0,0,0,38.71-38.71c0-.75,0-1.49-.07-2.23L132,138.7a2.46,2.46,0,0,1-4-1.78l-2.11-32.67L105.15,125a2.46,2.46,0,1,1-3.48-3.48l24.58-24.57a2.46,2.46,0,0,1,4.19,1.58L132.6,132l25.3-19.68a38.71,38.71,0,1,0-51.63,44.07l1.07-2.23A2.44,2.44,0,0,1,109.14,152.77Z"/><path d="M67.63,67.42c.79-.78,1.59-1.56,2.42-2.3l-4-.4Z"/><path d="M159.23,189.88a2.47,2.47,0,0,1-.45-2.11l1.24-5a74.25,74.25,0,0,1-76.89,1.91l-30.85-10a2.46,2.46,0,0,1-1.07-4l7.59-8.38a74.28,74.28,0,0,1,5.31-91.18L59.49,63a2.46,2.46,0,0,1,2.39-3.65l13.5,1.35a73.93,73.93,0,0,1,14.36-8.44l11.9-12.43a2.46,2.46,0,0,1,3.55,3.4l-5.08,5.3a74.53,74.53,0,0,1,41.88.6l3.09-3-22.19-15.5a2.45,2.45,0,0,1-.6-3.42,2.4,2.4,0,0,1,1.42-1c-1.23,0-2.47-.08-3.71-.08A93.57,93.57,0,0,0,67.6,42.12L38.29,38.46l2.05,31.83A94,94,0,0,0,73.63,201.93l12.58,31.9,26.88-19.94c2.28.17,4.58.28,6.91.28a93.55,93.55,0,0,0,62-23.35h-20.8A2.46,2.46,0,0,1,159.23,189.88Z"/><path d="M150.34,43.82a2.45,2.45,0,0,1,.3,3.77L147.16,51a74.61,74.61,0,0,1,14.23,7.44L165.51,54a2.46,2.46,0,1,1,3.6,3.34l-3.71,4a74.34,74.34,0,0,1,20.15,93.93,2.45,2.45,0,0,1-1,4.59l-1.85.18a74.76,74.76,0,0,1-16.55,18.38l-1.88,7.51h22.84a93.93,93.93,0,0,0,16.79-108l2.71-29.59h-26.1a93.6,93.6,0,0,0-55.43-22,2.31,2.31,0,0,1,.59.29Z"/><path d="M70.21,175.37a75.37,75.37,0,0,1-8.42-9l-4.39,4.84Z"/></g></svg>