<svg id="图层_35_复制" data-name="图层 35_复制" xmlns="http://www.w3.org/2000/svg" viewBox="0 0 240 240"><g id="图层_13_复制" data-name="图层 13_复制"><path d="M36.5,157.45a11.32,11.32,0,0,1,1.78-5.91,28.8,28.8,0,0,1-2.94-12.62c-10.21,6.66-15,13.44-15,22a19.39,19.39,0,0,0,.17,2.41l17.7-3.83C36.76,158.34,36.5,158.54,36.5,157.45Z"/><path d="M219.66,160.91c0-8.73-5-14.5-15.65-21.24a19.62,19.62,0,0,1-1.88,13.8c.88,1.68,1.37,2.22,1.37,4,0,9.34-14.12,16.46-34.12,21.67-.22-4.21-.48-8.62-.8-13.17,19.62-5.88,32.32-15.24,32.32-25.78,0-11.57-15.31-21.72-38.29-27.4-6.61-40.33-18.74-79.09-41-91.6C119.35,20,119.35,20,118.22,20s-1.14,0-3.4,1.17c-22.43,12.61-34.58,51.9-41.15,92.58-20.89,5.83-34.57,15.49-34.57,26.42,0,9.9,11.21,18.76,28.83,24.67-.32,4.6-.6,9-.82,13.31-8.9-2.59-16.21-5.82-21.31-9.49l-19.43,6.81c7.54,8.79,21.73,16.22,40,21.19-.48,16.59-.27,27.34-.27,27.34.8-9.4,1.71-18.28,2.7-26.69a208.57,208.57,0,0,0,49.41,6c0,.49,0,.75,0,.75s0-.26,0-.75l1.74,0a212.45,212.45,0,0,0,47.77-5.19c.95,8.17,1.83,16.77,2.6,25.85,0,0,.2-10.36-.25-26.42C199.74,190.22,219.66,176.56,219.66,160.91Zm-32.83-24.25c0,6-7.4,11.34-19.36,15.26-.92-10.25-2.12-20.95-3.69-31.65C177.89,124.25,186.83,130.11,186.83,136.66ZM116,158.3c-15.48-.29-29.54-2.3-40.42-5.44,2.52-13,5.26-24.41,8.11-34.41a173.51,173.51,0,0,1,30.52-3.4C114.76,129.66,115.4,144.77,116,158.3Zm6.2-43.32a182.66,182.66,0,0,1,30.31,2.73c3,10.41,5.87,22.35,8.5,36.06-11.22,2.84-25.29,4.54-40.59,4.57C121,144.77,121.68,129.62,122.21,115Zm28.08-4.7A189.36,189.36,0,0,0,122.46,108c.78-22.57,1.24-43,.86-53.37C130.11,63.52,140.59,79.41,150.29,110.28ZM113.12,54.59c-.39,10.33.08,30.84.85,53.44a184,184,0,0,0-28,2.9C95.7,79.63,106.28,63.58,113.12,54.59ZM53.17,136.66c0-5.95,7.38-11.34,19.33-15.26-1.43,9.9-2.55,19.78-3.42,29.29C59.17,146.91,53.17,142,53.17,136.66Zm18,42.6q1-6.63,2-12.81a172.33,172.33,0,0,0,43.52,5.93c.21,4.5.41,8.68.59,12.43C100,184.61,84.12,182.58,71.14,179.26ZM120,184.82h-.82c.19-3.74.39-7.92.6-12.41H120a178.5,178.5,0,0,0,43.45-5q1,6.15,2,12.73A206.42,206.42,0,0,1,120,184.82Z"/></g></svg>