<svg id="图层_35_复制" data-name="图层 35_复制" xmlns="http://www.w3.org/2000/svg" viewBox="0 0 240 240"><g id="图层_24_复制" data-name="图层 24_复制"><path d="M48.17,170.35a72,72,0,0,1-3.53-10.26,75.39,75.39,0,0,1-2.38-17.31A23.33,23.33,0,0,0,45,152.22a19.85,19.85,0,0,0,4.8,5.84,86,86,0,0,1-3.3-13.33c-4.25-25.78,4.15-47.6,9.06-58a58.34,58.34,0,0,0-9.9,11.88,63.47,63.47,0,0,0-5.46,10.76A37.23,37.23,0,0,1,41,96.22a33.8,33.8,0,0,1,4.7-10.72A25,25,0,0,0,35,95.68a29.41,29.41,0,0,0-3.3,8.9A68.92,68.92,0,0,1,37.9,79,58.85,58.85,0,0,1,52.29,59.43a71,71,0,0,0-26.1,47.63C21.9,144.12,46.63,168.86,48.17,170.35Z"/><path d="M212,109.37a96.61,96.61,0,0,0-17.66-39.26,67.6,67.6,0,0,1,4.57,14.37A69.63,69.63,0,0,1,200.22,99a54.15,54.15,0,0,0-4.29-6.18,51.58,51.58,0,0,0-6.75-7c2.6,8.2,7.71,28.07,1,50.09a73.58,73.58,0,0,1-7.54,16.77,36.53,36.53,0,0,0,8.64-8.62,40.76,40.76,0,0,0,5.33-10.28,44,44,0,0,1-1.24,11,42.19,42.19,0,0,1-7.57,15.86A33.46,33.46,0,0,0,201.21,150a38.45,38.45,0,0,0,6.08-12.15,97.36,97.36,0,0,1-1.86,16.5A94.9,94.9,0,0,1,193.5,185a74.75,74.75,0,0,0,14.66-22.59C217.76,139.47,213.68,117.8,212,109.37Z"/><path d="M108,118.54a18.41,18.41,0,0,1,.92-4,23.34,23.34,0,0,1,2.78-5.16l-.45-.43c-4,3.79-7.48,7.11-10.52,9.89Z"/><path d="M121,102.73l.21-3.51c-3,3-5.9,5.76-8.58,8.34l.26.22A14.55,14.55,0,0,1,121,102.73Z"/><path d="M74,119.76c-.38-.77-.74-1.53-1.09-2.26-2.69-5.66-8.42-17.75-3-29,.78-1.61,5.51-11.44,12-13,.93-.22,4.25-.84,5-3a3.3,3.3,0,0,0,0-2l35.93.6.23-3.93L84.43,66l-14-14a20.82,20.82,0,0,0,1,20C61,82.32,58.27,92.54,57.43,97a59.25,59.25,0,0,0,.72,23.34Z"/><path d="M121.21,168.13c-4.8-2.56-11.14-5.95-11.46-11.56-.21-3.6,2.21-6.52,3.37-7.85,1.95-2.2,5-5.34,9-9.28l-.17-2.94L114.42,129c-.16.49-.32,1-.49,1.47l-33,28,29-29a21.56,21.56,0,0,1-1.88-6.45l-11.62-.36c-1.76,1.55-3.27,2.83-4.5,3.81-1.38,1.1-4.41,3.38-8,3-4-.42-6.66-3.8-8.72-7.49l-16.78-.53c1.91,7.52,5.43,14.64,11,19.52,2.38,2.09,6.81,5.24,7,10,.16,3.85-2.21,6.68-5,10a32.72,32.72,0,0,1-10,8q-.49-7.5-1-15-9.49,20.5-19,41c14-5.54,27.93-11.17,41.94-16.71l-14.92-1.85A32.93,32.93,0,0,1,77,166.91c3.48-2.59,6.44-4.8,10.27-4.42,4.74.47,7.63,5.06,9.58,7.56,6.37,8.16,17.3,12.57,27.77,14.17l-.83-14.73C122.83,169,122,168.53,121.21,168.13Z"/><path d="M173.65,120.4l-3.71.13q-.56,17.92-1.12,35.86a3.28,3.28,0,0,0-2-.1c-2.19.65-3,3.94-3.23,4.85-1.86,6.41-11.91,10.67-13.56,11.37-9,3.83-18.22.77-24.44-2.15l-.48,13.93a56.32,56.32,0,0,0,15,.26c4.51-.58,14.86-2.67,25.76-12.54a20.82,20.82,0,0,0,19.91,2.14L172.6,159.37Z"/><path d="M140.86,121.6l-3.49.13-1.87-.42a13.45,13.45,0,0,1-1.57,2.19,12.79,12.79,0,0,1-4,3c-1.47.72-4.71,2.31-8,1-2.56-1-5.72-3.88-5-7a5.69,5.69,0,0,1,5-4,6.3,6.3,0,0,1,5,2c.19-.07,1.79-.7,2-2s-1.4-2.58-2-3a8,8,0,0,0-6-1,9.78,9.78,0,0,0-7,6v0a5.7,5.7,0,0,0,.31,4.57l2.4,4.8a6.07,6.07,0,0,0,2.42,2.55l7.77,4.39h0C130.85,131,135.56,126.52,140.86,121.6Z"/><path d="M95.43,93q-.33.36,15.83,15.91l1.4-1.35Q95.77,92.65,95.43,93Z"/><path d="M146.93,71.5v2C139.53,81,132.61,88,126.29,94.23l.49,8.63A15.64,15.64,0,0,1,132,105c3.42-6.86,20.52-14.21,22.47-15L135,107.72a10.85,10.85,0,0,1,2,3.78,11.25,11.25,0,0,1,.37,4.37l.63.63,8,.4c6.81-6.26,14.44-13.17,22.74-20.59l2,.1-.68,21.7,3.7.18q.33-12.47.67-24.93l8.51-7.58q.35-6,.68-11.92l12.12-10.8q.42-7.26.83-14.51c-4.84,0-9.77-.09-14.61-.09L170.43,59.94H158.49L150.43,68l-25.66-.78.22,3.92Z"/><path d="M179.43,42a106.22,106.22,0,0,0-107-3,126.52,126.52,0,0,1,77,2,72.72,72.72,0,0,0-51,18,110.92,110.92,0,0,1,78-10,28.1,28.1,0,0,0-20-14,46.5,46.5,0,0,1,23,7Z"/><path d="M63.43,198a106.22,106.22,0,0,0,107,3,126.52,126.52,0,0,1-77-2,72.72,72.72,0,0,0,51-18,110.92,110.92,0,0,1-78,10,28.1,28.1,0,0,0,20,14,46.5,46.5,0,0,1-23-7Z"/></g></svg>