<svg id="图层_35_复制" data-name="图层 35_复制" xmlns="http://www.w3.org/2000/svg" viewBox="0 0 240 240"><g id="天罗_复制"><path d="M210.15,109.23c-3.33-.93-6,4.69-9.42,3.53s-3.53-61.21-14.12-62.38c-3.46-.39-5,40-14.13,41.2C161,93.13,146.07,32.17,137.17,33.9c-6.7,1.3-3.75,36.88-9.42,37.66-6.44.9-15.49-44.36-23.54-43.55-7,.71-7.23,36-14.13,36.49-5.85.42-9.37-24.78-15.3-24.72-10.7.12-15.15,82.3-24.72,82.4-6.3.07-10-35.56-14.12-35.31-4.31.25-5.54,39-5.89,73,.47-23,2.06-43.66,6.47-44.14,4.85-.53,8.93,23.75,15.31,23.54,10.71-.35,14.59-69.44,23.54-69.45,5.61,0,8.38,27.53,14.12,27.07,8.32-.66,9-41.93,16.48-42.37,8.65-.51,17.13,53.67,23.55,53,5.44-.6,3-39.89,10.59-41.2,8.65-1.5,21.07,48.58,31.78,47.08,7.6-1.06,8.79-27.25,13-27.07,5.48.23,7.14,45.74,12.95,45.91,2.66.07,3.86-9.41,7.06-9.42,5.39,0,8.24,22.37,10,26.49C214.86,118.65,219.34,111.81,210.15,109.23Z"/><path d="M205.44,137.48c-3.6-.73-8.21,10.63-12.95,9.42-6.57-1.67-4.89-25.37-9.41-25.9-2.81-.32-3.93,8.76-8.24,9.42-8.54,1.32-16.54-32.36-27.08-31.78-7.67.42-9.63,18.62-17.65,18.83-8.4.22-12.71-19.56-20-18.83-6.79.68-7.71,18.24-14.12,18.83-7.42.69-11.5-22.39-18.84-22.36-11.61,0-17.51,57.85-28.25,57.68-5.36-.09-7.14-14.59-10.59-14.13-5.91.8.65,43.16,2.35,73,0,.63-1.29,4.66,1.18,5.89,1.71.86,4,1.85,5.19,1.32l.52,0c-.51-6.4-1.76-25.07.18-30.31,5.88-1,11.77-2.83,11.77-14.6s5.88-31.79,11.77-34.14c-3.53,7.06-3.53,17.66,2.35,17.66,8.24,0,15.31-31.79,34.14-36.5-2.35,2.36-12.95,16.48-2.35,17.66,8.24,1.18,18.83-21.19,44.73-16.48-10.6,0-18.84,11.77-14.13,14.13,5.89,2.35,20-4.71,42.38,7.06-13,0-16.81,6.19-14.88,13.69.75,5.14,29-3.1,36.07,28.69-5.89-11.77-18.84-11.77-18.84-2.36s17.66,5.89,18.84,28.25c-2.36-5.88-17.66-8.24-15.31-1.17,3,1.49,4.22,5.35,4.68,8h1.38c5.49.16,13.45-1.38,15.72-6.2a7.49,7.49,0,0,0,.59-4.12C204.59,190.56,214,139.23,205.44,137.48Z"/><circle cx="67.13" cy="192.22" r="7.65"/><circle cx="80.67" cy="170.44" r="7.06"/><circle cx="104.21" cy="152.79" r="7.06"/><circle cx="135.4" cy="154.55" r="6.47"/><circle cx="162.48" cy="171.03" r="7.65"/><circle cx="175.43" cy="195.75" r="5.3"/><path d="M121,190.46c-31.5,0-39.22,28.54-39.22,28.54h76.64S152.47,190.46,121,190.46Z"/><path d="M59.88,209.21c-8.64.08-8.79,9.79-8.79,9.79H68.67S68.52,209.14,59.88,209.21Z"/></g></svg>