<svg id="图层_35_复制" data-name="图层 35_复制" xmlns="http://www.w3.org/2000/svg" viewBox="0 0 240 240"><g id="图层_18_复制" data-name="图层 18_复制"><path d="M174.77,85l-1.25,1.24a297.13,297.13,0,0,1-50.23,40.17c-4.66,3-9.27,5.69-13.84,8.26a299.9,299.9,0,0,1-71.21,28.67,114.7,114.7,0,0,0,19.95,7.6c13.53-5.39,24.47-10.25,32.09-13.76,9.59-4.41,18.54-8.54,27.08-12.78,18.61-9.23,35.26-18.95,52.37-33.1,4.21-3.47,8-6.83,11.31-10,4.4-4.13,8.06-7.87,10.91-10.92a21.57,21.57,0,0,0-2.63-2A21.93,21.93,0,0,0,174.77,85Z"/><path d="M216.17,62.57a55.29,55.29,0,0,0-3.71-6.75,16.34,16.34,0,0,1,.36,6.75c-.54,3.11-2,5-3.87,7.12a29.52,29.52,0,0,1,5.55,9.11c3.38,9,1.48,17.67,0,22.38A27.43,27.43,0,0,0,212.66,95a18.87,18.87,0,0,1-7.47,7.35,41.23,41.23,0,0,1,.35,5.55,42.89,42.89,0,0,1-2.24,13.42,29.12,29.12,0,0,0-5.59-8.95,28.61,28.61,0,0,0-5.35-4.56,261,261,0,0,1-36.62,35.34l-1.36,1.06a32,32,0,0,0,14.23,6.21c14.85,2.45,25.46-6.59,26.86-7.83a27.24,27.24,0,0,1-7.83,12.31c-11.07,9.64-27.06,5.78-32.46,4.47a47.85,47.85,0,0,1-13.71-5.7c-6.75,4.64-13.29,8.66-19.47,12.15a29,29,0,0,1-3.74,9.22c-8.7,13.75-26.93,15.09-34.7,15.67-5.22.38-25.41,1.87-41.4-12.31A51.76,51.76,0,0,1,27.61,156a49.3,49.3,0,0,1-2.24-13.42,14.83,14.83,0,0,0,4.48,8.95,13.59,13.59,0,0,0,3.36,2.24c-3.13-6.67-2.94-11.47-2.24-14.55,1.18-5.22,4.21-7.33,7.83-14.55a55.92,55.92,0,0,0,4.48-12.31c.46,5,1,12.82,1.12,22.38.12,14.34-1,20.5,2.24,22.38,1.28.76,5.52,2.15,17.9-8.95-7.26-8.08-7.81-15.22-7.83-17.9-.06-7.78,4.15-14.31,10.07-23.5,2.16-3.36,4.16-6,5.59-7.84a21.93,21.93,0,0,0,0,9,23,23,0,0,0,9,13.42A18.65,18.65,0,0,0,88,115.73c5-6.82,2-13.61,5.6-23.5A35,35,0,0,1,100.35,81a65.21,65.21,0,0,0-2.24,14.55,68,68,0,0,0,3.36,23.5,54.79,54.79,0,0,0,6,12.7,374.39,374.39,0,0,0,48.24-33.41q7.78-6.34,14.77-12.72l-.78-.15c-5.21-1-7.24-1.74-7.83-3.35-.88-2.43,1.82-6,4.48-7.84,5.24-3.69,13.77-3.34,20.7,0A24,24,0,0,1,191,76.53l.05,0c4.6,3.33,5.89,6.88,8.83,9.57l.09.16v-.07a13.27,13.27,0,0,0,4.49,2.65,18.78,18.78,0,0,0,5.37,1.07,23.35,23.35,0,0,0-8.87-7.31,32.68,32.68,0,0,1,1.83-4.39,37.17,37.17,0,0,1,6.2-8.55A38,38,0,0,0,197.34,61l-.19.45-6.07,7.74c-5.5-3.43-14.29-7.34-24.7-6.06-16.11,2-25.67,15.15-30.22,21.26a57.63,57.63,0,0,0-7.83,14.55,36.31,36.31,0,0,1,1.12-10.07c4.08-15.91,19.37-29.45,36.93-32.45a52,52,0,0,1,31,4.58c3-7.32,7.8-11.51,11-10.74a51.46,51.46,0,0,0-5.57-5.59C185.56,30,164.23,31.89,159.1,32.36c-30.65,2.78-47.56,27.13-50.36,31.33-1.46,2.2-3.13,8.11-4.47,7.84-1.52-.31-1.45-8.12-.56-14a48.27,48.27,0,0,1,2.24-9c-12.15,9.54-15.61,19-16.79,23.51-3.7,14-2.24,23.5-2.24,23.5.54,3.48,1.48,6.84,0,7.83-1.85,1.24-7.22-1.41-9-5.6-1.94-4.71,2-8.36,0-12.31-1.42-2.81-4.94-4-7.83-4.47a8.46,8.46,0,0,1,2.23,5.59c-.15,3.93-4,6.3-6.71,9-3,3-6.57,8.21-7.83,17.9q-4.45-6.43-9-13.43-4.75-7.41-8.95-14.55a111.2,111.2,0,0,1,0,11.19c-.3,6-.45,9-1.12,11.2C36,117,28.68,117.84,24.25,129.16a34.19,34.19,0,0,0-1.11,3.35,19.85,19.85,0,0,1-5.6-5.59c-2.23-3.41-2.45-6.2-2.8-6.16-.83.11-2.08,16.23,3.36,33.58,3.42,10.9,8.31,26.51,23.5,35.81s31.3,6.73,36.93,5.59A24.13,24.13,0,0,0,88.6,205.81c13.43,6.67,31.18-3.22,40.29-13.43,8.6-9.64,10.63-20.87,11.19-26.85A50.78,50.78,0,0,0,165.82,170c13.34-1.29,30.49-8.64,36.93-23.5a31.46,31.46,0,0,0,2.23-7.83,56.12,56.12,0,0,0,17.91-24.62C232.08,88.54,218.16,65.72,216.17,62.57ZM114.9,83.28A130.73,130.73,0,0,0,116,67.61c2-4.44,9.1-18.83,25.74-26.86,6.58-3.17,23.17-9.47,40.28-2.24a44.17,44.17,0,0,1,14.55,10.07,31.5,31.5,0,0,0-15.67-3.35c-2.75.16-7.72.87-7.83,2.24s4.78,2.82,6.71,3.35a54,54,0,0,0-19,2.24c-12.94,4-21.13,12.07-31.33,22.38a154.64,154.64,0,0,0-16.79,20.15C113.53,91.84,114.31,87.73,114.9,83.28Z"/><path d="M93.08,175.6c-13.35,0-25.45-.49-35.81-1.12a39.56,39.56,0,0,0,11.19,7.83,41.1,41.1,0,0,0,22.38,3.36c4.41-.48,14.87-1.78,23.5-10.07a35.08,35.08,0,0,0,6.71-8.95,38.84,38.84,0,0,1-9,5.59C104.71,175.55,98.17,175.61,93.08,175.6Z"/></g></svg>