<?xml version="1.0" encoding="utf-8"?>
<!-- Generator: Adobe Illustrator 27.0.1, SVG Export Plug-In . SVG Version: 6.00 Build 0)  -->
<svg version="1.1" id="图层_35_复制" xmlns="http://www.w3.org/2000/svg" xmlns:xlink="http://www.w3.org/1999/xlink" x="0px"
	 y="0px" viewBox="0 0 240 240" style="enable-background:new 0 0 240 240;" xml:space="preserve">
<g id="图层_19_复制">
	<ellipse cx="122.3" cy="147.6" rx="5.1" ry="4.5"/>
	<path d="M208.6,132.8c-0.7-1.8-0.7-3.8,0-5.7c1.4-3.4,4.9-3.3,7.9-6.8c0.4-0.5,3.5-4,3.4-8c-0.2-6.4-8.7-6.5-12.5-15.9
		c-1.6-3.9-0.8-5.6-3.4-11.4c-1.1-2.5-1.7-3-3.4-6.8c-2.1-4.5-3.1-6.8-3.4-9.1c-0.7-5.2,1.6-7.4,0-9.1c-2-2.3-6.7,0.5-9.1-2.3
		c-0.5-0.6-0.8-1.3-0.9-2.1c-0.5-3.4-0.5-3.8-9.3-13.7c-6.2-7-7.6-8.4-10.2-9.1c-1.8-0.6-3.8-0.6-5.7,0c-1.8,0.7-2,1.6-4.6,3.4
		c-2.4,1.6-4.2,2.8-5.7,2.3c-1.8-0.7-1-3.4-3.4-5.7c-0.6-0.5-1-0.7-5.7-2.3c-6.2-2.1-5.6-1.8-6.8-2.3c-4.9-1.8-5.1-2.2-6.8-2.3
		c-2,0-2.6,0.6-6.8,2.3c-1.5,0.6-4.4,1.5-10.2,3.4c-4.6,1.5-6.9,2.2-8,2.3c-4.5,0.3-5.6-1.6-10.2-2.3C88.7,31,83.4,32.2,79.1,35
		c-5.6,3.8-4.9,8.1-9.1,9.1s-6-3.3-12.5-3.4c-3.5,0-8.9,1.2-10.2,4.5c-1.2,3,1,6.8,2.3,9.1c2,3.5,3.5,3.8,3.5,5.7
		c0,2.9-3.5,5.8-6.8,6.8c-4.1,1.3-6.7-0.5-8,1.1s0.9,3.5,1.1,8c0.2,4.1-1.4,4.2-2.3,10.2c-1,6.6,0.7,8-1.1,11.4
		c-1.3,2.3-2.2,1.8-5.7,5.7c-2.9,3.3-5.2,5.9-4.5,8s4,1.3,6.8,4.5c0.2,0.2,3.3,3.8,2.3,6.8c-1,2.8-4.5,2.1-9.1,5.7
		c-1.7,1.3-6.2,4.8-5.7,9.1c0.4,3.3,3.6,6.3,6.8,6.8c3.6,0.6,5.5-2.3,8-1.1c2.3,1.1,3.5,4.9,2.3,6.8c-1.5,2.2-5.2,0-9.1,2.3
		s-6.4,8.1-4.6,12.5c0.9,2,2.5,3.5,4.5,4.4c2.9,1.3,6.2,1.3,9.1,0c-2.8,12.9-2.8,15.7-2.3,15.9s2,1.2,5-2.2c-0.9-0.3-1.7-1-2.2-1.8
		c-1.3-2.6,2.5-6.9,3.4-7.9s5-8.7,12.7-23.3c-3.8,1.4-20.3,7-20.7,6.3c-0.5-1,18.7-9.2,24.2-13s10.6-7.8,9.9-9.7
		c-0.3-0.9-2-1.2-4.2-1.3c-7.4-0.1-30.8,2.1-31,1.3s17.2-2.8,26.1-7.1c3.3-1.6,5.6-3.4,5.7-5.4c-0.1-1-0.7-2-1.5-2.6
		c-5.6-4.6-22.7-9.9-22.3-12.2s19.6,0.2,30-1.4c3.4-0.5,5.8-1.4,6.4-3.1s5-1.4,2.7-3.7c-8.3-8.5-31.1-15.6-30-21.3
		c0.6-2.8,14,3.6,24.8,6.7c3,0.9,5.2,1.1,5.9,0.1s-0.5-3.5-2.8-6.5C70,67.6,61.7,59.5,62.7,58.4s17.2,14.2,26.5,17.9
		c2.3,0.9,4.1,1.1,5.3,0.3c1.5-1.1,0.8-4.4-0.4-8.1c-2.1-6.1-7-16.9-5.2-18c1-0.7,5.1,7.5,9,12.5c2.2,3,4.7,5.8,7.6,8.1
		c1.8-1,3-3.4,3.3-4.2c3-6.5-3.4-12.5-2.3-15.9c0.1,0,1.1-2.3,4.5,0c2.3,2.3-0.4,5.8,3.4,9.1c0.4,0.3,0.8,0.6,1.2,0.9
		c-2.7,1.7-4.1,4.3-5.2,7.6c-0.5,1.4-0.8,2.9-1,4.4c-0.6,3.8-0.2,7.8,1,11.5c0.8,1.4,3,4.2,3.4,6.8c0.1,0.8,1.9,4.6,0,8
		c-1.1,2-7.2,6.3-12.5,9.1c-6.6,3.4-9.9,4-13.6,5.7c-9.7,4.3-9.6,6.6-10.2,7.9c-2.3,4.5-3.3,5.6-9.1,17c-2.2,4.4-3.4,4.7-5.5,7.7
		c-0.1,0.1-0.1,0.2-0.2,0.3c-3.5,5.3-5.4,7.5-10.2,13.6c-0.5,0.7-4.2,9.9-8,15.9c-1.3,2.3-2.9,4.4-4.6,6.3c3.2,1.4,8.9,1.5,12.6,1.6
		h2.3c1.2,4.4,3.9,6.6,6.3,11.9c3.6,8,1.1,11,4.5,13.6c1.5,1.1,3.1,1.5,12.5,1.1l6.1-0.2c-0.2,0.2-0.4,0.5-0.7,0.7
		c13.2-0.7,17.1-3.7,29.2-3.3c5.4,0.2,9.8,1,17,2.3c7.9,1.4,13.3,2.9,19.8,2.6c4.5,1.5,10.3,0.8,13.7-2.1c2.6-2.1,2.3-4.2,5.7-6.8
		c2.7-1.9,5.8-3.1,9.1-3.4c8.4-1.4,13.3,1.8,15.9-1.1c0.4-0.5,0.7-1,0.9-1.6l0.4,0.3c1.1-1.9,1.2-4.6,2.8-8.4
		c1.2-3.1,3.1-5.8,5.6-8.1c-1.8-1.5-3.5-3.2-5-5c-4.7-5.2-9.1-10.7-13.1-16.5c-4.4-6.3-6.8-9.7-8.6-12.8l-0.4-0.8
		c-2.7-4.7-4.9-9.7-6.8-14.8c-3-8.2-3.2-8.2-5.7-11.4c-3.1-4-6.1-6.9-11.4-9.1c-5.4-2.3-7-1.4-11.4-3.4c-0.9-0.4-7.5-2.3-10.2-8
		c-2.3-4.8,0.5-8.6,1.1-10.2c1.3-1.2,2.1-4.6,3.4-8c1.8-4.4,1.8-9.3,0-13.6c-0.3-0.9-0.8-1.7-1.3-2.5c3.5-4.9,7-10.5,8.1-9.9
		c1.9,0.9-5.3,17.1-3.4,18.2c1.4,0.8,7.1-7,12.3-14.3l8.6-11c0.4-0.5,1-0.6,1.5-0.2c0.1,0.1,0.1,0.1,0.2,0.2
		c2.8,3.8-4.8,14.2-8.4,21.3c-5.3,10.6-10.7,15.9-7.4,18.8c2.8,2.4,9.4-5,17.7-10.6s14.7-12.7,18.7-8.7c0.5,0.5-2.2,3.9-9.3,10.8
		c-7.6,7.5-10.6,8-8.9,14.2c0.9,3.1,14.2-1.4,19.1-1.4c2.5,0-1.3,3.7-1,4.8c0.4,1.3-7.2,6.3-9.5,8c-3.5,2.5-4.6,2.8-4.1,4.5
		c0.4,1.4,3.8,1.9,8.6,2c12.6,0.2,30.6-2.6,31.1,0.3c0.8,3.9-23.4,2.5-33.3,9.4c1.8,9.6,6.3,18.6,12.9,25.8
		c9.1,10.4,23.3,20.1,20.4,28.4c-0.8,2.3-2.6,3.6-4.6,5.6c2,1.6,3.6,2.3,5.2,1.8c2.2-0.7,3.9-2.4,4.5-4.6c0.6-1.9,0-3.6-3.4-10.2
		c-3.8-7.4-5.4-9.6-4.5-12.5c0.4-1.3,1.2-2.5,2.3-3.4c3.7-3.2,8.6-0.6,10.2-3.4s0.2-6.2,0-6.8C215.6,137.6,210.3,138,208.6,132.8z
		 M126.3,40.2c0.3,0.1,0.2,1.9-0.1,4.6c-0.4,3.8-1.2,9.5-1.6,14.8c-1.1-0.3-2.3-0.4-3.4-0.3c1.7-5.2,2.9-10.9,3.7-14.6
		C125.5,41.9,125.9,40.1,126.3,40.2z M116.4,60.5L116.4,60.5L116.4,60.5z M118.4,59.8l-0.2,0.1L118.4,59.8z M117.4,60.1l-0.1,0.1
		L117.4,60.1z M72.4,183.9c-2-0.7,5-18.7,3.7-25.8c1.4-2,3-3.8,4.8-5.4c2-1.8,3.3-2.4,4.5-2.3c4.3,0.6,6.4,10.1,7.9,17
		c1,4.5,1.7,7.9,2.1,10.9c-3.4,7.4-3.2,16.6-6.1,15.8c-3.6-1-0.9-22.9-4.6-23.9S74.6,184.7,72.4,183.9L72.4,183.9z M171.2,175.9
		c-6.8-5.7-8.6-9.7-10.2-9.1c-3.9,1.5-1.2,29-3.4,29.5c-0.2,0.1-2.3-4.5-5.7-15.9c-1-3.5-2.8-5.3-3.6-6.7c0.3-0.6,0.5-1.2,0.8-1.8
		c2.1-4.8,4-9.8,5.6-14.8c0.4-1.3,0.7-2.3,1-3.2c3.9,2.4,8.8,7.3,13,11.7c1.3,2.4,2.6,4.9,4.1,7.4c1,1.7,5.5,6.8,6.6,8.4
		c-3.6-2.1-4.9-2.6-8.3-5.5L171.2,175.9z M151.3,129.9c1.5,1.2,6,5.2,5.7,9.1c-0.2,2.2-1.8,3.6-2.3,4.5c-4.3,8.1-7.3,10.7-23.9,28.4
		c-2.8,2.9-5.6,5.9-9.1,5.7c-2.6-0.2-4.5-2.1-5.7-3.4c-18.3-19.6-15.2-19.7-22.7-27.3c-1.8-1.8-4.6-4.4-4.5-7.9
		c0-3.3,2.3-5.7,3.4-6.8c5.2-5.4,13.8-14.6,25-26.1v22.8c0.3,2.8,2.8,4.9,5.7,4.6c2.4-0.3,4.3-2.2,4.6-4.6V105
		C138.4,117.8,145.8,125.4,151.3,129.9L151.3,129.9z"/>
</g>
</svg>
