<svg id="图层_35_复制" data-name="图层 35_复制" xmlns="http://www.w3.org/2000/svg" viewBox="0 0 240 240"><g id="丐帮_复制"><path d="M23.88,142.79a3.56,3.56,0,0,0-3.42-3.42A3.45,3.45,0,0,0,17,141.65a3.71,3.71,0,0,0,1.14,3.42,3.41,3.41,0,0,0,2.29,1.14A3.52,3.52,0,0,0,23.88,142.79Z"/><path d="M215.56,147.36c4.08-5.1,9.4-17.12,6.85-17.12-1.14,0-11.55,9.64-13.69,8-.23-.18-.83-.8,0-4.57,1.79-8.09,12.89-20.53,10.27-20.53-2.29,0-7,5.39-10.27,3.42-.73-.44-4.22-.73-5.71-3.42a12.55,12.55,0,0,1-1.14-8c.42-3.1,1.73-6.32,6.85-12.55,8-9.77,11.06-9.46,12.55-14.83,1.18-4.27.45-8.7,0-11.41-.59-3.56-.88-5.34-2.28-6.85-3.12-3.36-9.91-3.45-14.84-1.14-7.54,3.54-9.47,12.15-13.69,11.41-2.09-.37-2.91-2.71-4.56-2.28-1.84.47-1.45,3.53-3.42,5.7-3.41,3.74-12.22,3.11-13.7,0-1.15-2.43,3.11-4.43,4.57-11.41.46-2.2,5-18.92,2.28-22.82-2.59-3.72-9.37,9.13-13.69,4.57-2.76-2.92-1.8-3.93-4.57-6.85-4.67-4.92-9.73-9.07-10.27-9.13-.89-.09-8.57,2.76-13.69,6.85-3.29,2.63-3,4.78-5.7,5.7-3.41,1.15-4.86-6.43-10.27-6.84-5.77-.44-10.9,7-12.55,8-4.34,2.48-5.16,4.66-8,4.57-3.45-.11-6.38-13.69-9.13-13.69-2.28,0-4.08,21.17-9.12,21.68-5.39.53-12.94-16.95-14.84-16-1.08.56,3.16,10,1.14,12.55-1.33,1.69-3.21,1.32-6.84,2.28-3.06.82-8.69,2.07-10.27,5.71-1.85,4.27,2.34,8.2,0,12.55-1.69,3.14-6.8-13.68-9.13-10.27-2.85,4.17.74,25.68,1.14,27.38,2.1,8.88,9.59,12.31,8,16a4.3,4.3,0,0,1-3.42,2.28c-2.5.22-3.75-2.41-6.85-4.56C34.07,99.29,30.72,90.31,25,90.31c-2.56,0,.59,15.6,3.42,25.1.86,2.89,1.52,4.76,3.43,10.27,4.15,12,5.31,15.56,4.56,16-.91.5-9.65-9.22-14.83-11.41-5.69-2.4-1.08,1.81,2.28,6.85,2.28,3.42,1,4.62,4.56,5.7,3.93,1.19,3,3.35,4.57,8,1.14,3.42,0,3.42,1.14,5.7.93,1.88-11.41-4.56-12.55-4.56-3.08,0,1.76,10.5,4.56,14.83,3.2,4.94,5.55,4.76,8,9.13,2.91,5.22-5.6,3.26-2.28,9.13,1.52,2.7,8.25,10,10.26,11.41,4.19,3,6.71,2.94,10.27,4.56,9.74,4.43,3.66,9.39,11.41,11.41,5.88,1.54,13.61.75,17.12,3.42,2.09,1.6,1.55,3.55,5.7,11.41,1.92,3.63,2.58,4.25,3.43,4.57a3.31,3.31,0,0,0,2.57-.11c-1.5-7.69-2.76-17.59-.86-23.28-4.57-5.71-2.28-9.13-2.28-18.26s4.56-20.54,0-33.09-2.29-11.41-8-12.55-5.71,2.29-5.71,10.27v9.13s4.57-2.28,3.43,5.7a27.92,27.92,0,0,0,2.28,14.84s2.28,6.84.57,9.7c0,0-3.42,0-8-9.13s-6.84-11.41-6.84-20.54c-3.43-6.85-6.85-8-10.27-17.11s0-18.26-2.28-25.11-2.29-12.55,9.12-13.69,20.54,8,22.82,9.13,10.27,1.14,13.69,0,5.14-9.7,2.86-13.12c-2.28-2.28-4.57-5.71-12.55-9.13s-18.26-10.27-16-16,18.26-5.71,25.1-4.57,13.7,6.85,20.54,6.85,16-2.28,16-6.85,0-12.55,1.14-16c-3.43,1.14-10.27,9.13-17.12,10.27s-11.41-4.57-11.41-4.57a13.64,13.64,0,0,0,12.55,0c6.85-3.42,16-8,17.12-10.26s-3.43-2.29-8,0-13.69,0-14.83-10.27c2.28,4.56,10.27,8,19.39,5.7s8-3.42,8-3.42-1.14-4.56,3.42-5.71,6.85,3.43,5.71,6.85c2.28,1.14,11.41,2.28,11.41,10.27s-2.28,19.4-10.27,21.68c-2.28,1.14-2.28,2.28-2.28,3.42s6.84,3.42,18.25,1.14,28.53-2.28,33.09-6.84c-1.14-3.43-1.14-13.7,6.85-13.7s10.27,8,6.84,11.41-3.42,3.43-8,5.71c-9.13,5.7-12.55,13.69-25.1,16s-14.84,4.57-20.54,5.71c-5.71,3.42-16,17.11-22.82,22.82s-9.13,8-9.13,12.55,9.13,12.55,20.54,3.42c-3.42,5.71-10.27,14.83-25.1,13.69,0,0-6.85,8,12.55,8s22.82-1.14,33.09-6.85,20.53,14.84,20.53,14.84-10.27-10.27-30.8-3.43c-16,4.57-28.53,0-28.53,0s12.55,14.84,11.41,22.82a40.78,40.78,0,0,1-5.7,14.84s-2.28-14.84-3.43-25.11-13.69-17.11-13.69-17.11a187.5,187.5,0,0,1-4.56,20.54c-3.42,12.55-1.14,22.82-4.57,26.24-2,2-2.81,13.14-3.16,22.18a4.28,4.28,0,0,0,2.59.07c3.25-.91,2.57-4.34,8-8a31.12,31.12,0,0,1,6.85-3.42,29.55,29.55,0,0,1,10.27-2.28c3.56-.09,4.2.67,6.84,0,2.81-.72,3.22-1.86,5.71-2.29,2.17-.37,3.15.28,6.84,1.15,4.91,1.14,7.55,1.76,10.27,1.14,2.93-.67,2.68-2,8-5.71,6.4-4.45,8.54-3.72,10.27-6.84s.12-4.6,2.28-8c.46-.72,2.36-3.71,5.7-4.57,2.62-.66,3.36.69,8,1.15,2.81.27,6.06.6,9.13-1.15.55-.31,4.2-2.38,4.56-5.7.32-2.91,4.57-11.41-5.7-9.13-8.21,1.83-8.05-9.72-8-12.55C200.86,159.17,206.44,158.77,215.56,147.36ZM58.11,185c.63,4.32-2.72,8.76-6.85,9.13-5,.44-7.83-5.38-8-5.71-.35-.75-2.32-5,0-8,2.14-2.81,6.21-2.35,6.84-2.28C53.26,178.51,57.48,180.74,58.11,185ZM62.67,68.63a6.41,6.41,0,0,1-8,1.14C51.23,67.62,50.87,62,53.54,59.5c2.2-2,5.56-1.18,5.71-1.14a6.51,6.51,0,0,1,3.42,10.27Zm106.11,57.05a3,3,0,0,1-2.28-3.43,2.93,2.93,0,0,1,2.28-2.28,3,3,0,0,1,3.43,2.28A3.12,3.12,0,0,1,168.78,125.68Zm-37.65,85.57c-1.25.63-2.73-.29-3.42-1.14-1.15-1.4-1.13-3.8,0-4.56s4,.31,4.56,2.28A2.93,2.93,0,0,1,131.13,211.25Zm38.79,0a7.74,7.74,0,0,1-5.7-1.14c-2.58-1.52-5.66-5-4.56-8,1.16-3.14,6.23-3.39,6.84-3.42,2.73-.14,8.19.68,9.13,4.56C176.44,206.64,173.39,210.43,169.92,211.25Zm30.81-29.66c1.55-1.4,4.2-.8,5.71,0,2.44,1.29,4.55,4.53,3.42,6.84s-5.41,3.07-8,1.14S198.78,183.34,200.73,181.59ZM195,128c-1.06-.65-2.35-2-2.29-3.42.11-2.62,4.59-4.13,6.85-4.57,1.22-.23,5.36-1,6.85,1.14.92,1.36.5,3.42,0,4.57-.77,1.74-1.88,1.79-2.29,3.42s.62,2.83,0,3.42-3.19,0-3.42-1.14c-.2-.95,1.37-1.65,1.14-2.28C201.52,128.14,197.87,129.72,195,128Z"/><path d="M107.17,18.42A6,6,0,0,0,114,17.28a5.61,5.61,0,0,0,1.14-5.7,5.93,5.93,0,0,0-6.85-3.42,5.81,5.81,0,0,0-4.56,5.7C104,16.87,107,18.32,107.17,18.42Z"/></g></svg>