<svg id="图层_35_复制" data-name="图层 35_复制" xmlns="http://www.w3.org/2000/svg" viewBox="0 0 240 240"><g id="图层_27_复制" data-name="图层 27_复制"><g id="图层_28_复制" data-name="图层 28_复制"><path d="M139.25,78.89c-2.6-1.32-5.18-2.67-7.73-4.07-4.28-2.35-8.53-4.86-12.7-7.47l.07,15.26a2.18,2.18,0,0,1,.46,1.15c.05.5,1.38,12.27,21,12.27a2.21,2.21,0,0,1,2.2,2.21c0,8.83,0,19.83-9.92,19.83-7.41,0-11.11-6.09-12-9.31a2.2,2.2,0,0,1,4.23-1.22c.08.25,1.89,6.12,7.8,6.12,4.42,0,4.17-3.94,4.29-13.27-10.25-.46-14.75-4.08-17.94-7.79l.21,48.47,17.53-14.77a2.21,2.21,0,0,1,3.63,1.75l-1.11,41.87a2.18,2.18,0,0,1-.64,1.5l-19.84,19.84a2.18,2.18,0,0,1-1.55.64,2,2,0,0,1-.55-.08,2.15,2.15,0,0,1-2.11-.56L94.66,171.42a2.18,2.18,0,0,1-.64-1.5l-1.11-41.87a2.21,2.21,0,0,1,3.63-1.75l17.09,14.4-.21-48.39c-3.14,3.81-7.66,7.61-18.18,8.08.12,9.33-.13,13.27,4.29,13.27,5.91,0,7.72-5.87,7.8-6.12a2.2,2.2,0,0,1,4.23,1.22c-.92,3.22-4.62,9.31-12,9.31-9.92,0-9.92-11-9.92-19.83A2.2,2.2,0,0,1,91.81,96c19.57,0,20.9-11.77,21-12.27a2.21,2.21,0,0,1,.62-1.33l-.07-15a172.42,172.42,0,0,1-15,8.57l-2.1,1,0,0c-.38.26-.75.54-1.11.82l-.47.39-.66.56c-.17.15-.34.3-.5.46s-.4.36-.59.55-.34.33-.5.5l-.56.57-.48.53-.54.61-.46.54-.54.67-.42.52-.6.81-.32.42-.86,1.23c-.12.17-.23.35-.34.52l-.51.78-.36.58-.46.74c-.11.2-.23.4-.35.6l-.42.73c-.12.2-.23.4-.34.6s-.28.5-.41.75l-.31.58-.42.8c-.09.17-.18.35-.26.52s-.32.64-.47,1l-.18.35q-.32.64-.6,1.29l-.18.38c-.13.3-.27.6-.39.89l-.22.49c-.11.26-.22.51-.32.76l-.21.5-.3.71-.19.48c-.09.24-.19.47-.28.7s-.11.3-.17.44l-.27.71c0,.12-.09.25-.14.37-.1.28-.2.56-.3.82,0,.07,0,.13-.07.19-.12.34-.23.66-.34,1,0,.07,0,.12-.06.18-.08.24-.16.48-.24.7l-.09.29c-.06.17-.12.34-.17.5l-.09.29c0,.14-.09.28-.13.41l-.09.27c0,.12-.07.23-.1.34s0,.16-.07.23-.06.18-.08.26l-.06.21,0,.16a.84.84,0,0,1,0,.17q1.22,6.31,2.17,12.65A309.21,309.21,0,0,1,83,171c6.59,5.35,13.33,10.67,20.06,15.81,4,3,8,6.09,12.05,9.06a177.09,177.09,0,0,0,20.54-13.47c4.66-3.54,9.2-7.36,13.5-11.36.73-14.85,2.2-29.82,4.38-44.51q1.25-8.32,2.82-16.65C155,104.87,149.69,86.89,139.25,78.89Z"/><polygon points="99.78 168.61 114.03 182.86 113.94 162.13 99.17 145.25 99.78 168.61"/><polygon points="103.28 141.88 114.57 154.78 114.54 148.69 103.21 139.15 103.28 141.88"/><polygon points="130 139.15 118.4 148.92 118.42 155.03 129.93 141.88 130 139.15"/><path d="M165.09,127.44c.22-.76,1.82-6.17,3.74-13.7.56-2.17,1.15-4.57,1.77-7.24,2.34-10,4.13-19.63,5.51-28.65a35,35,0,0,1-13.22,0c-8.49-1.67-14.5-6.3-22-12.12-7.25-5.59-9.39-8.67-16.53-12.12a52.34,52.34,0,0,0-8.82-3.31,48.74,48.74,0,0,0-7.71,3.31c-7.14,3.45-9.28,6.53-16.53,12.12-7.55,5.82-13.55,10.45-22,12.12a35,35,0,0,1-13.22,0c1.37,9,3.17,18.6,5.51,28.65.62,2.67,1.21,5.07,1.77,7.24,1.92,7.53,3.52,12.94,3.74,13.7,1.57,5.41,3.53,18.3,5.51,49.58a132.95,132.95,0,0,0,43,34.16c7.3-3.65,17.28-8.93,26.45-16.52A133.34,133.34,0,0,0,159.58,177C161.56,145.74,163.51,132.85,165.09,127.44Zm-11.57,44.73a2.24,2.24,0,0,1-.69,1.5,182.65,182.65,0,0,1-14.51,12.27A181.31,181.31,0,0,1,116,200.44a2.1,2.1,0,0,1-1.06.28,2.2,2.2,0,0,1-1.3-.43c-4.42-3.25-8.88-6.59-13.26-9.94-7-5.39-14.11-11-21-16.58a2.21,2.21,0,0,1-.81-1.74,305.71,305.71,0,0,0-3.28-50.33,305.28,305.28,0,0,0-7.66-36.1,2.21,2.21,0,0,1,1.49-2.7A168.9,168.9,0,0,0,96.33,72a170.55,170.55,0,0,0,18.49-10.88,2.19,2.19,0,0,1,2.44,0c5.31,3.47,10.83,6.78,16.38,9.83a251.12,251.12,0,0,0,30.59,14.2,2.21,2.21,0,0,1,1.35,2.57c-3.13,13-5.71,26.27-7.68,39.48A451.5,451.5,0,0,0,153.52,172.17Z"/><polygon points="133.43 168.61 134.04 145.25 119.03 162.4 119.12 182.92 133.43 168.61"/><path d="M62.61,186.94c-4.75-5.77-3-11.4-6.61-17.63s-8.34-5.1-16.53-11a52.08,52.08,0,0,1-14.88-17.08,65.67,65.67,0,0,0,6.62,15.43,66.37,66.37,0,0,0,16.52,18.73,34.73,34.73,0,0,1-15.42-6.61c-5.25-4-7.87-8.51-9.92-12.12a56.71,56.71,0,0,1-7.16-24.79,66.11,66.11,0,0,0,13.22,36.36C44.78,189.58,68.84,193,73.63,193.55A20.91,20.91,0,0,1,62.61,186.94Z"/><path d="M224.59,116.42a52.79,52.79,0,0,1-14.32,29.75,51.58,51.58,0,0,1-18.73,12.12,49.81,49.81,0,0,1,13.22-24.24,83.56,83.56,0,0,0-11,9.92c-6.49,7-13.43,14.44-16.53,25.34-1.07,3.75-1.78,8.26-5.51,13.22a27.71,27.71,0,0,1-5.51,5.51c3.28-1.48,7.88-3.67,13.23-6.61,1.81-1,3.6-2,5.39-3a29.17,29.17,0,0,1-13.11,15.11,31.22,31.22,0,0,1-13.22,3.31,35.7,35.7,0,0,1-10.51-1c-4.68,3.75-10.11,6.82-16.49,10.41-9.66,5.43-14.49,8.15-20.94,7.71-7.27-.49-12.19-4.74-22-13.22-10.86-9.36-18.13-15.63-22-26.45-2.87-7.93-1.28-11-5.51-18.73-2.46-4.52-3.84-5.07-12.12-14.33-14.62-16.34-16.24-21.27-16.53-25.34a22.4,22.4,0,0,1,2.2-11,15,15,0,0,0,0,6.61c1.69,7.17,9.31,13.94,14.33,12.12s6.81-12,3.3-17.63c-.23-.37-2.34-3.69-4.41-3.31-1.9.36-3.34,3.82-3.3,8.82a56.58,56.58,0,0,1,0-33.06A56,56,0,0,1,56.55,57.47a54.56,54.56,0,0,1,8.82-7.72c-4.09,3-6.26,7.68-5.51,12.12.07.45,1.08,5.91,5.51,7.72,3.48,1.42,7.06-.26,8.81-1.11,10-4.85,9.17-15,18.73-20.93a23.38,23.38,0,0,1,9.92-3.31,22,22,0,0,0-5.51,2.21c-5.88,3.36-9.54,10.65-8.81,9.91,3.32-3.4,11.68-11,23.14-11,4.17,0,7.19,1,11,2.21,14.9,4.84,15.89,11.76,27.54,15.43,11.43,3.59,15.3-1.55,22,3.3,7.95,5.71,8.66,17.22,8.82,19.84.66,10.74-4.19,15.77-9.92,31.95a156.11,156.11,0,0,0-6.61,25.35,36.14,36.14,0,0,1,23.14-5.51,61,61,0,0,0-19.84,20.93c-6.62,11.88-3.81,17.14-11,27.55a43.1,43.1,0,0,1-6.36,7.29c7.73-2.94,12.44-7.07,15.17-11.7,3.69-6.24,2.12-10.57,5.51-18.73,3.56-8.56,8-10.35,15.43-18.73,5.49-6.22,19-21.49,19.83-40.77.5-11.67-3.79-21.43-5.51-25.35-3.52-8-7.8-13.13-14.32-27.55-1.48-3.27-2.61-6-3.31-7.71.79,4.79,1.86,10,3.31,15.43a166,166,0,0,0,6.61,19.83,55.41,55.41,0,0,0-7.71-13.22c-7-8.84-12.89-10.54-17.64-18.73a34.73,34.73,0,0,1-4.4-14.33,17.65,17.65,0,0,0-5.51,7.71A18.61,18.61,0,0,0,159,54.16a44.29,44.29,0,0,1-6.61-3.31c-7.37-4.48-10.25-9.71-15.43-15.42a72.37,72.37,0,0,0-14.32-12.12,19.32,19.32,0,0,1,3.3,4.4,19.91,19.91,0,0,1,2.21,6.62,19.73,19.73,0,0,1-5.51-1.11,20.8,20.8,0,0,1-9.92-7.71,28.38,28.38,0,0,0-1.1,4.41,29.89,29.89,0,0,0,0,9.91,7.85,7.85,0,0,1-5.51-1.1,8.46,8.46,0,0,1-3.31-5.51c-1.38-5.92,2.5-11.09,3.31-12.12A53.82,53.82,0,0,0,94,28.82c-4.08,3.43-5.07,6.71-9.92,11a44.47,44.47,0,0,1-7.72,5.51,32.66,32.66,0,0,1,3.31-12.12A33,33,0,0,1,91.81,20a101.75,101.75,0,0,0-17.63,7.71A76.15,76.15,0,0,0,61,36.53c-9.35,8-13.73,17.13-16.53,23.14a83.82,83.82,0,0,0-7.71,32,12.6,12.6,0,0,1-3.31-4.41c-1.9-4.35-.23-7.93,2.2-18.74a83.48,83.48,0,0,0,2.21-12.12,55.7,55.7,0,0,0-.55-13.77,120.58,120.58,0,0,1-6.62,23.14C23.85,82.85,18.81,84,17.43,93.28,14.89,110.45,29.16,127,36.16,135.15,47.5,148.31,55.07,149.24,59.3,161.6c2.44,7.11,1.51,11.43,5.51,18.73a41.38,41.38,0,0,0,15.43,15.43,68.85,68.85,0,0,1-14.32-1.1,71.07,71.07,0,0,1-29.76-13.23,67.76,67.76,0,0,0,9.92,12.12,70.48,70.48,0,0,0,22,14.33c2.06.85,4.72,1.83,26.45,5.51,22.79,3.86,29.31,4.38,37.46,2.2a49.83,49.83,0,0,0,11-4.41,15.51,15.51,0,0,1-7.71,8.82,58.12,58.12,0,0,0,20.93-6.61c19.24-10.47,26.49-28.93,28.55-35a102.73,102.73,0,0,0,16.63-11.32c5.44-4.64,12.57-10.72,17.63-20.94A57.15,57.15,0,0,0,224.59,116.42Z"/></g></g></svg>