<svg id="图层_35_复制" data-name="图层 35_复制" xmlns="http://www.w3.org/2000/svg" viewBox="0 0 240 240"><g id="图层_25_复制" data-name="图层 25_复制"><path d="M100.64,186.91l-1.37.33C99.69,187.15,100.16,187,100.64,186.91Z"/><path d="M211.74,68.63A28.35,28.35,0,0,1,207.65,83a27.15,27.15,0,0,1-4.09,5.11,25.8,25.8,0,0,0,2-8.18,25.32,25.32,0,0,0,0-4.09,80.73,80.73,0,0,1-5.11,14.32c-4.65,10-11.62,19.52-24.54,30.67-9.34,8.06-30.76,26.09-62.88,34.71A194.14,194.14,0,0,0,133,150.43l24.54-14.31a38.45,38.45,0,0,1-21.47,18.4,68.24,68.24,0,0,0,24.54-13.29c-5.27,7.44-12.63,16.48-21.48,23.52-2.45,1.95-6.71,5.09-11.24,8.18s-8.35,5.43-11.25,7.15a40.15,40.15,0,0,0,3.07-3.06,40.66,40.66,0,0,0,5.11-7.16,64.74,64.74,0,0,1-25.56,11.25,67.1,67.1,0,0,1-16.36,1,43.79,43.79,0,0,0,10.22-2,44.42,44.42,0,0,0,7.16-3.06A67.48,67.48,0,0,1,86,178c-8-.3-28.36-1.06-39.88-16.36-1.77-2.35-8.55-11.64-7.16-24.54.19-1.7,1.9-15.79,12.27-22.49,4.69-3,7.78-2.46,15.34-7.16a56.21,56.21,0,0,0,9.2-7.16,21.08,21.08,0,0,1-5.11,8.18c-2.44,2.38-4.48,3.09-6.14,4.09a18,18,0,0,0-6.84,8.62c3.51-3.42,9.22-3.92,16-12.71a127.59,127.59,0,0,1,9.2-11.25c2.29-2.45,4.28-4.37,5.62-5.62a65.05,65.05,0,0,0,33.74-26.58c13.51-21.55,9.17-43.56,8.18-48.06-1.75,4.45-4.32,11.16-7.15,19.43-5.44,15.83-6,20.27-9.72,26.07-3.44,5.38-9.79,12.22-22.49,17.38A45.41,45.41,0,0,0,96.2,63.52a46.69,46.69,0,0,0-5.11-26.58A43.42,43.42,0,0,1,87,60.45,24.07,24.07,0,0,0,87,41c-.15,2-.44,5.22-1,9.2-2.21,15.1-4.81,33-17.39,40.9a25.33,25.33,0,0,1-7.15,3.07A45.77,45.77,0,0,0,47.12,57.39a33.72,33.72,0,0,1,5.11,18.4,31.52,31.52,0,0,1-1,7.16A59.79,59.79,0,0,1,46.1,68.63c-.16,1.66-.45,4.16-1,7.16A76.73,76.73,0,0,1,40,92.15c-3.42,8-7.53,17.7-9.2,29.65-1.25,9-3.22,20.67,2.05,32.72,7.34,16.78,23.81,23.58,28.63,25.56,26.6,11,52-1.84,56.23-4.09a32.42,32.42,0,0,1-17,10.92,130.57,130.57,0,0,0,18-5.8c8.32-3.37,21.71-9.78,49.08-33.75,23.11-20.23,34.77-30.62,39.88-44A74.21,74.21,0,0,0,211.74,68.63ZM34.85,136.12c.21-.87.46-1.79.74-2.74A78.28,78.28,0,0,1,40,121.8c4.73-10,8.18-11.67,11.25-19.42C56,90.36,53,81,54.28,80.9c1.65-.17,8.16,15.15,2,25.57-2.78,4.74-6.08,4.89-11.24,10.22a40.26,40.26,0,0,0-9.49,16.69C35.3,134.38,35.06,135.3,34.85,136.12Z"/><path d="M62.46,154.52c8.89,8,21.36,6.31,35.79,4.09a141.44,141.44,0,0,0,14.82-3.12,176.42,176.42,0,0,1-25,3.12c-11.2.58-17.21-.22-22.49-4.09-9.6-7-10.19-19.31-10.23-20.45a31.69,31.69,0,0,1,2.36-12.85,9.82,9.82,0,0,0-2.36,3.65C51,136.14,55.5,148.23,62.46,154.52Z"/><path d="M123.3,203.09c14.23-5.57,36.92-14.78,55.21-37.83a110.49,110.49,0,0,0,16.36-28.63,110.05,110.05,0,0,1-52.15,42.94,81.38,81.38,0,0,0,16.36-19.43,146.63,146.63,0,0,1-32.72,20.45c-17.54,8-36.12,16.41-57.25,11.25-23-5.62-36.22-24.23-40.9-31.7-.73,5.47-1.29,16,4.09,26.59,10.12,20,33.15,24.3,39.87,25.56C90.84,215.79,105.23,210.16,123.3,203.09Z"/><path d="M178.51,182.64a130,130,0,0,1-36.81,30.67A84,84,0,0,0,174.42,198c6.68-5.17,18.6-14.65,24.54-31.7A62.45,62.45,0,0,0,202,139.7,130.38,130.38,0,0,1,178.51,182.64Z"/><path d="M163.17,187.75c-.54-.63-11.21,10.66-30.67,20.45-16,8.05-27.4,9.78-30.68,10.22a84.44,84.44,0,0,1-22.49,0c9.67,3.63,24.53,7.09,39.88,2.05,7.81-2.57,13.48-6.6,21.47-12.27C154.25,198.56,163.68,188.35,163.17,187.75Z"/><path d="M37.41,88.57a10,10,0,0,1-3.07-5.11C33.13,78,38.3,75,39.45,66.08c.37-2.81.69-5.65-1-8.18-2.34-3.47-6.87-4-8.18-4.09a19.34,19.34,0,0,0,1,5.11c1.92,5.45,5.1,6.19,5.12,9.2,0,3.54-4.35,3.76-6.14,9.21-.24.73-2,6,1,9.2C33.35,88.7,36.52,88.62,37.41,88.57Z"/><path d="M80.35,48.7c2.51-3.1,3.78-8.29,1-12.27-3.07-4.46-8.9-4.12-9.2-4.09a14,14,0,0,1,4.09,9.2,14.53,14.53,0,0,1-5.11,11.25C71.83,52.8,77,52.83,80.35,48.7Z"/><path d="M123.3,108A63.07,63.07,0,0,1,108,114.13a53,53,0,0,1-6.14,1,14,14,0,0,0,6.14,7.15c4.73,2.61,9.84,1,13.29,0a26.43,26.43,0,0,0,8.18-4.09c-.65,2-1,4.13,0,5.12,1.73,1.64,6-1.32,7.16,0s-2.54,4.86-4.09,10.22a21.34,21.34,0,0,0,0,11.25l5.11-10.23c2.53-5.06,3.51-6.12,4.09-8.18.89-3.17,1-8.09-3.07-15.33,1.76-1.43,4.49-3.71,7.67-6.65C166.22,86,175.13,68.32,177,64.54c5-10.14,7.54-15.58,7.16-23.51-.53-11.1-6.49-19.23-9.71-23a52.5,52.5,0,0,1,2,22.5c-2.35,18-13.64,29.29-17.38,32.72C159.08,73.24,140.59,98.14,123.3,108Zm31.31-18.15a149.57,149.57,0,0,0,16.23-25.31A149.79,149.79,0,0,0,179,45.12a29.05,29.05,0,0,1,0,9.2c-1.29,7.94-5.67,13.16-9.2,17.38-5,6-10,12-15.21,18.15-2.14,2.7-4.24,5.17-6.26,7.41C150.49,94.74,152.57,92.28,154.61,89.85Z"/><path d="M120.74,123.85,114.6,129l-12.26,12.27L86,157.59a92.8,92.8,0,0,0,12.27-1,90.26,90.26,0,0,0,13.29-3.07l18.4-17.38a12.49,12.49,0,0,0-2-7.16A12.66,12.66,0,0,0,120.74,123.85Z"/><path d="M171.35,103.91c-9,11.62-16.69,21.35-22.49,28.63,3.86-3.7,11.57-11.07,21.47-20.45,19.41-18.4,23-21.61,25.56-28.63,6.05-16.89-1.88-34.9-3.07-34.76-.84.09,1.82,9.18-1,21.47C189.56,79.86,185.17,86.05,171.35,103.91Z"/><path d="M71.15,129.47A98.92,98.92,0,0,0,64,152a18.23,18.23,0,0,0,10.74,5.63,68.27,68.27,0,0,1,2-15.34A69.26,69.26,0,0,1,87,119.76a70.78,70.78,0,0,0-3.07,35.78A122.86,122.86,0,0,1,87,138.16c2.65-10.52,7.72-29.7,23.51-47C126.48,73.6,145.42,66.74,155,64a136,136,0,0,0-51.12,25.56C95.19,96.6,80.72,108.54,71.15,129.47Z"/></g></svg>