<svg id="图层_35_复制" data-name="图层 35_复制" xmlns="http://www.w3.org/2000/svg" viewBox="0 0 240 240"><g id="图层_16_复制" data-name="图层 16_复制"><path d="M216.09,222S192.3,208.9,158,192.41a82,82,0,0,0,9.1-10.6c14.19,9.18,25,16.23,25,16.23s-9.74-8.15-22.86-19.31c1-1.45,1.82-2.82,2.58-4.08a160.23,160.23,0,0,1,11.57,14.68,178.46,178.46,0,0,0-10.12-17.12l1.41-2.48c.47-.82.92-1.66,1.37-2.5,15.2,16.74,29.16,32.72,34.56,40.61-8-12.86-19.4-28.79-32.26-45.3a99.5,99.5,0,0,0,5.69-16c12.12,15.2,22.22,27.58,22.22,27.58l-20.75-34c4.86-24.92.13-48.39-9.74-53.09-2.59-1.24-8.55-2.62-8.71-2.18s3.14,1.29,6,3.81c3.68,3.27,4.83,7.54,5.44,9.8,2.94,10.89,2.17,22.71.79,31.45L158.92,96.44c1.68-21.84.55-59.21-15.79-65-5.32-1.88-11,0-15.24,2.18,3.71-.85,8.69-1.31,13.07,1.09,10.77,5.91,12.35,26.09,9.57,48L117,27.71V67.47a101.36,101.36,0,0,1,28.86,28.76c.55.86,1.18,1.81,1.89,2.83-1.49,7.07-3.31,14-5.3,20.34-8-9-15.87-17.4-23.27-24.8C87.6,63,86.51,59.76,86.51,59.76s-.54,11.43,6,19.05C99,87.52,87.06,93,82.7,88.61s-5.44-4.35-5.44-12S74,54.86,23.36,26c0,0,35.93,45.73,31.57,91.47L77.8,132.71s-8.71-6.53-4.36-19.6c3.27-6.53,13.07,8.71,8.72,21.78,7.62,0,7.62-2.18,33.75,14.15,3.37,2.11,7.14,4.49,11.15,7-3.13,6-6.54,11.86-10.14,17.38-5.33-2.34-10.76-4.68-16.25-7-25-15.25-15.25-18.51-42.47-7.63l-9.8,3.27L109.49,184c-12.2,15.8-25.8,26.37-38.22,23.88-5.44-1.08-15.9-5.72-25-30.48.33,2.62,3.29,24,19.6,31.57,14.08,6.57,29.08-1.29,37-5.44a80.1,80.1,0,0,0,19.87-14.81l21.9,7.83a60,60,0,0,1-10.73,6.43,65.7,65.7,0,0,1-25.59,6,58.87,58.87,0,0,0,22.87-1.09,56.67,56.67,0,0,0,19.46-9.19Zm-52.34-48c-6.29-5.38-13.1-11.22-19.85-17.06,1.1-2.4,2.11-4.81,3-7.2,6.7,6,13.4,12.45,19.57,19Q165.23,171.43,163.75,174Zm4.49-8.92a205.3,205.3,0,0,0-19-21.52c.47-1.36.91-2.71,1.34-4,6.18,6.61,12.9,13.86,19.57,21.14Q169.23,162.9,168.24,165.12Zm-11.18-53.25c6.06,8,13.41,17.47,20.55,26.51-.71,2.93-1.27,4.68-1.27,4.68-1.17,3.64-2.47,7.65-4,11.84-6.29-7.88-12.83-15.8-19.42-23.5C154.89,124,156.19,117.28,157.06,111.87Zm-33.53-.94s6.53,6.83,16.06,16.94c-.58,1.59-1.19,3.19-1.82,4.82-5.52-5-11.67-10.44-18.59-16.31C92,89.16,109.38,95.69,123.53,110.93Zm-22.86,5.45c1.11-1.67,16.41,8.3,34.31,23.09q-1.5,3.48-3.14,7C114.21,131,99.8,117.68,100.67,116.38Zm39.55,48.09c7.07,4.53,14.34,9.22,21.12,13.6a74.37,74.37,0,0,1-9,11.6c-6.9-3.28-14.17-6.67-21.71-10.09A112.82,112.82,0,0,0,140.22,164.47Z"/></g></svg>