<svg id="图层_35_复制" data-name="图层 35_复制" xmlns="http://www.w3.org/2000/svg" viewBox="0 0 240 240"><g id="图层_17_复制" data-name="图层 17_复制"><path d="M84.91,129.63c-.12,2.62,5.93,4.8,7.53,5.38,1.29.46,7.4,2.67,12.9,0,2.57-1.25,2.7-2.45,5.37-3.23,4.1-1.2,7.25.62,7.52,0,.4-.86-5.19-6-12.89-7.52C95.81,122.33,85.07,126.21,84.91,129.63Z"/><path d="M211.75,110.28c-.61,4.84-2.46,13.55-9.13,21-5.68,6.29-12.6,9.17-22.58,11.82-8.92,2.37-18.47,4.9-28.72,6.17a7.12,7.12,0,0,0,1.31-4.56,7.2,7.2,0,0,0-3.22-5.37c-2.78-1.6-6.82-.84-9.68,2.15a10.2,10.2,0,0,0,1.08-6.45c-.5-2.82-2.5-6.61-6.45-7.53-4.77-1.11-8.32,2.9-8.6,3.23a8.07,8.07,0,0,0-2.15,5.37c.11,3,2.46,5.1,2.15,5.38s-2.66-3-6.45-4.3c-2.67-.89-7-1-8.6,1.07-1.21,1.57-1,4.47.15,7.56l-1.76-.57C99.64,142,88.43,138,79,127a56.89,56.89,0,0,1-12.36-26.34c.36,6.43,2.12,21,12.9,33.32,9.76,11.18,21.72,14.58,34.5,17.77,2.36,3.23,5.45,5.75,8.49,5.88,2.24.1,3.94-1.11,5.38,0,2.25,1.74-.06,6.15,2.15,8.6,1.81,2,5.59,2.53,7.52,1.08,2.33-1.75,2.68-6.9-.9-11.59a94.68,94.68,0,0,0,40.68-5.61c10.21-3.86,28.27-10.67,33.32-26.88A30.8,30.8,0,0,0,211.75,110.28ZM130.6,148.44c.23-1.27,2-1.8,3.22-2.15s2.47-.72,3.23,0,.41,2.4,0,3.23a4.53,4.53,0,0,1-.33.53c-1.92,0-3.88-.13-5.85-.29A2.07,2.07,0,0,1,130.6,148.44Z"/><path d="M142.59,174.4c.13-.23.25-.47.37-.69C142.84,173.93,142.72,174.17,142.59,174.4Z"/><path d="M155.75,204.77c2.41-.34,8.5-1.75,11.93-7.42,3.53-5.83,2.73-13.71-2.15-19.34a28.12,28.12,0,0,0,16.13-3.23c11-6,13.58-17.51,14-19.35a90.28,90.28,0,0,1-21.5,5.38c-18.06,2.2-31.21-5.88-33.32-2.15-1.23,2.17,2.87,5.22,8.06,14.51,4.85,8.66,8.65,15.47,7.52,20.42-3,13.42-43.12,16.33-68.79,15a204,204,0,0,1-28.82-3.51q5.5-4.32,11.08-8.85l3.24-2.63c11.72,2.09,23.29,1.75,30.09,1.55,15.26-.44,22.65-3.67,27.94-7.52a39.54,39.54,0,0,0,11.46-13.28c-1.74,3.14-5.18,7.07-12.39,11l-.14.08c-5.63,3.08-13.79,5.52-34.4,2.15-4.45-.73-8.57-1.46-12.4-2.21,7-5.65,11.08-9.09,15.63-13.91a151,151,0,0,0,14-17.2,119.18,119.18,0,0,1-17.2-4.3c-3.06-1-5.93-2.11-8.6-3.23-.69,2-1.65,4.56-2.93,7.51a29.43,29.43,0,0,1-5.67,0c-1.92-.18-2.7-.45-3.22-1.08-1.47-1.78,1-4.26,0-7.52-.88-3-4-4.8-6.45-5.38-1.69-.4-5.31-.75-6.45,1.08-1.47,2.34,1.86,7.12,2.15,7.52,1.14,1.61,2.46,2.7,2.15,3.23s-1.26.22-2.15,0c-2.18-3-5.77-4.3-8.6-3.23-3.48,1.32-4.15,5.53-4.3,6.45-.18,1.11-.86,5.34,2.15,7.53a6.91,6.91,0,0,0,7.52,0,22.23,22.23,0,0,0-2.15,6.45c-.46,2.81-.58,7,.35,9.57-8.53-3.49-13.75-7.83-16.47-13.87-1.75-3.88-3.51-10.49-1.08-20.43a22.93,22.93,0,0,0-6.45,11.83c-1.66,9,3.38,16.41,5.38,19.35C45,182,51,186.22,57.62,189.13a67.05,67.05,0,0,1-10.87,6.61,66.26,66.26,0,0,1-9.89,3.86l-.32-.1.25.12q-1.76.54-3.48,1l11.83,15q5.31-4,10.71-8.21A174.37,174.37,0,0,0,196.7,195.2a168.77,168.77,0,0,1-33.32,8.6C160.78,204.2,158.24,204.51,155.75,204.77ZM68.25,157a3.34,3.34,0,0,1,2.15,0,3.7,3.7,0,0,1,2.15,2.15,3.74,3.74,0,0,1-1.07,4.3,3.83,3.83,0,0,1-5.38-2.15A3.72,3.72,0,0,1,68.25,157Zm-.54,21c3.7-2.64,5.54-3.95,6.45-6.45a10,10,0,0,0,0-6.45,17.43,17.43,0,0,0,2.91,2.64,84.65,84.65,0,0,1-10.68,13.67c-.87-.27-1.71-.54-2.53-.82C64.85,180,66.09,179.16,67.71,178Z"/><path d="M79,28.05c1.43.26,14.89,2.81,16.12,9.68.77,4.27-3.55,8.31-8.6,12.9C72.59,63.31,62.32,63.34,60.73,70c-.6,2.48.18,5.19,11.28,17.74,14.63,16.54,26.21,26.44,38.7,33.32,6.17,3.4,10.78,4.41,15.05,4.3a26.48,26.48,0,0,0,11.82-3.22l-6.45-10.75-5.37,1.07a29.74,29.74,0,0,1-17.2-11.82,27.85,27.85,0,0,1-4.3-10.75,23.55,23.55,0,0,1-14-3.22c-6.18-3.77-12.43-11.76-10.75-18.28,2-7.83,13.45-5.76,23.65-17.2,4.52-5.07,10.78-15,7.52-21.5C107.16,22.6,93.93,23,86,23.21,58.45,24,39.74,39.29,39.76,39.34S58.16,24.31,79,28.05Z"/><path d="M120.92,107.6c5.78.77,11.68-4.33,12.9-5.38,3.91-3.38,5.12-6.77,7.53-6.45,1.9.26,3.65,2.72,3.22,4.3s-3,1.21-5.37,3.23c-2.78,2.32-3.8,6.55-3.23,9.67.51,2.83,2.2,3.8,6.45,8.6,7.06,8,6.86,10.34,9.68,10.75,5,.74,9.94-6.21,11.82-9.67a19.86,19.86,0,0,0,2.15-12.9c-1.22-6-5.65-10.56-5.38-10.75s1,1,1.52,1.56a47,47,0,0,0,9.23,8.11c3.66,2.58,5.75,4,7.53,3.23a4.12,4.12,0,0,0,2.15-3.23c.29-2.79-2.74-4.28-2.15-6.45a3.77,3.77,0,0,1,2.15-2.15c3.7-1.45,6.77,4.69,11.82,4.3,2.35-.18,4.07-1.91,7.53-5.37,4.12-4.14,6.58-6.6,6.45-9.68-.29-6.85-13.16-10.52-14-10.75-2.94-.8-8-2.19-12.9,0-3.24,1.45-5.33,4-6.45,3.23-.87-.58-.57-2.79,0-4.3,1.37-3.61,4.52-3.92,7.53-7.53a14.56,14.56,0,0,0,3.22-6.45c1.09-6.87-6.47-14-12.9-17.19-6-3-14.89-4.49-17.2-1.08-1.11,1.65-.15,3.69,1.08,7.53,3.06,9.54,6,24.64,2.15,26.87a1.79,1.79,0,0,1-.32.13,2.22,2.22,0,0,1,1.39.94c.88,1.3.15,2.8,1.08,3.23.33.15.84.2,3.22-1.08,2.85-1.51,3.17-2.14,4.3-2.15,1.49,0,3.13,1.06,3.23,2.15s-1.68,1.49-2.15,3.23.93,2.4,1.07,4.3c.23,3.1-3.09,6.48-6.45,7.52-1.23.38-1.63.19-5.37,0-8.6-.43-9.89.42-11.82-1.07s-2.42-3.5-3.23-6.45c-.55-2-1.43-5.18,0-6.45,1.27-1.12,3.46.22,4.3-1.08.35-.54.36-1.15,0-3.22-.24-1.41-.59-3.23-1.07-5.38a2.8,2.8,0,0,1,2.15-1.07c1.86.2,1.66,3.56,4.3,5.37a5.24,5.24,0,0,0,1.91.82,2.36,2.36,0,0,1-.84-.82c-.57-1,.33-2.24,1.07-4.3a20.69,20.69,0,0,0,1-8A15.84,15.84,0,0,0,151,57.08a14.27,14.27,0,0,0-9.67-4.3c-7.15-.08-12.17,6-14,10.74-.43,1.14-2.4,6.28,0,9.68,1.07,1.51,2,1.32,5.38,3.22s8.72,5,8.6,8.6a5.38,5.38,0,0,1-3.23,4.3c-4,1.8-10.25-1.95-11.82-6.45-1.18-3.35.62-6.05-1.08-7.52s-4.49-.31-5.37,0c-5.41,1.91-10.85,8.43-10.75,16.12S114.6,106.75,120.92,107.6Z"/><path d="M157.15,79.78c-.89-.23-2-.14-3.14-.39A3.79,3.79,0,0,0,157.15,79.78Z"/></g></svg>