<svg id="图层_35_复制" data-name="图层 35_复制" xmlns="http://www.w3.org/2000/svg" viewBox="0 0 240 240"><g id="图层_26_复制" data-name="图层 26_复制"><path d="M161.65,28.78l0,.66.49-.42A5.23,5.23,0,0,0,161.65,28.78Z"/><path d="M209.29,61.84a25.11,25.11,0,0,0-9.72-2h-.43c.48,2.39,1.07,5.21,1.62,8.77A105.26,105.26,0,0,1,209.29,61.84Z"/><path d="M198.6,55l-.31-.15,0,.28Z"/><path d="M203.46,29.75h6.8l4.87-6.8H195.68l-6.12,9.56C194,34.42,198,34,200.62,34.3Z"/><path d="M98,215a63,63,0,0,0,30.35.43,34.72,34.72,0,0,1-11.87.55,34.12,34.12,0,0,1-7.78-1.95,79.76,79.76,0,0,0,8.67-3.41c-6.48,1.26-11.92,3.27-20.38,4.09Z"/><path d="M128.31,215.4c.62-.14,1.22-.28,1.74-.43Z"/><path d="M191.79,53.09a18.44,18.44,0,0,1,6.5,1.79,15.62,15.62,0,0,1,1.28-8.6c2-4.7,5.41-8.39,3.89-10.69a3.59,3.59,0,0,0-2.84-1.29L188.87,53.09A17.75,17.75,0,0,1,191.79,53.09Z"/><path d="M168.46,36.56c1.49,6-2.66,10.43-2.92,10.69v6.81l3.89,1,.35-.23c.21-.9.41-1.79.62-2.68L172,53.34l.37-.25V37.53a14.53,14.53,0,0,1,2.92,1.95,15.84,15.84,0,0,1,4.86,7.77l9.44-14.74c-.55-.24-1.1-.5-1.66-.81-1.58-.89-2.15-2.84-3.89-2.92-2.11-.1-2.66,2.16-4.86,2.92-4.14,1.42-7.47-4.77-12.64-4.86-1.5,0-2.36.49-4.34,2.18A11.77,11.77,0,0,1,168.46,36.56Z"/><path d="M170.4,99.76h-6.81q-2.91,5.34-5.83,10.69h4.86Z"/><path d="M179.15,58A59.78,59.78,0,0,1,172,53.34l-2.19,1.46q-1.14,5-2.3,10l-1.94,1a8.36,8.36,0,0,0-1-3.89c-1.11-2-3.73-4.7-5.84-3.89a3.57,3.57,0,0,0-1.94,3.89,3.71,3.71,0,0,0,3.89,2.92L155.82,84.2l-44.73,66.12c-.32,2.91-.65,5.83-1,8.75l7.78-2.92,43.75-68.06L178.18,77.4c.23.25,2.22,2.37,4.86,1.94.12,0,2.55-.44,2.92-1.94.45-1.86-2.61-3.71-2.92-3.89a7.88,7.88,0,0,0-4.86-1l6.83-6q.45-2.73.91-5.46A58.42,58.42,0,0,1,179.15,58Zm-4.37,16-10.7,5.84L166,67.19l1.95-1V75l7.72-4.38Zm-1-7V57.46l3.31,3.64,4.47.25Z"/><path d="M185.92,61.1c.68.27,1.34.52,2,.74-.65,1.3-1.3,2.59-1.94,3.89l-1,.83,0,.14,2.92,1,4.86-6.8a25.24,25.24,0,0,1,6.38-1c-.35-1.77-.65-3.31-.82-4.74L186,60.87Z"/><path d="M211.24,127c-5,2.37-10.37-1.39-11.67-4.86-1-2.79.44-5.7,1-6.81,4.37-9.13,3.1-21,1-40.83-.23-2.14-.48-4.07-.75-5.81-1,.92-2.08,1.88-3.14,2.89A107.29,107.29,0,0,0,185,86.15a6.93,6.93,0,0,0-2.91-3.89,7.05,7.05,0,0,0-4.86-1L165.54,94.9l7.78,1,1-2.92,12.64,1a215.41,215.41,0,0,0-50.07,80.22c-9.85,7.6-35.42,25.1-71,25.28a111.5,111.5,0,0,1-36-5.84,439.15,439.15,0,0,0,65.15-56.39c25.19-26.63,35.33-44.35,40.83-55.42a192.36,192.36,0,0,0,8.75-20.42l4.38,7.3-3.89,5.83c1,2.27,1.95,4.54,2.92,6.8,1.08-.7,5.91-4,6.8-9.72a9.74,9.74,0,0,0-1-6.8A8.66,8.66,0,0,0,151,61.84a48,48,0,0,0,10.73-32.4c-1.18,1-2.71,2.38-4.89,4.2-10.61,8.86-11.08,7.45-14.59,11.67C136.7,51.93,137,56.46,133.45,57c-4.87.72-9.47-7.34-9.72-7.78a17.13,17.13,0,0,1,4.86-22.36A43,43,0,0,0,114,40.45c-2.84,4.35-4.52,9.76-7.78,20.42C101.9,75,102.82,75.24,100.4,80.31c-2.57,5.38-6.93,14.52-16.53,18.48-1.73.71-10.52,4.33-17.5,0-5.27-3.27-6.75-9.35-7.78-13.62-3.33-13.71,3.18-20.35-1-28.19C56,53.85,52.35,50,43.52,47.74c-.81,3.48-1.89,8.5-2.92,14.59-3.31,19.54-4.87,29.44,0,36,3.61,4.84,7.52,4.28,9.72,9.72,2.09,5.18.36,10.16-1,14.59-5.64,18.82-1.34,19.28-5.83,31.11-7.44,19.57-20.6,22-19.45,32.09.88,7.73,9.36,12.38,18.47,17.5A94.9,94.9,0,0,0,85.33,215,86.28,86.28,0,0,0,97,214.68a62.2,62.2,0,0,1-16.49-7.48,139.72,139.72,0,0,0,24.31,1,137.59,137.59,0,0,0,22.36-2.92,78.55,78.55,0,0,1-8.75,4.86l-1,.48a63.06,63.06,0,0,1,20.5-.48c5.87.7,11.61,1.91,20.42,1,11.51-1.23,26-5.86,26.25-11.67.15-3.31-4.44-3.65-8.75-9.73-5.11-7.2-6.87-18.3-2.92-27.22,3.59-8.1,10.83-12,17.5-15.56,4.62-2.47,7.6-1.63,12.64-4.86a27,27,0,0,0,9.24-9.23,25,25,0,0,0,3.22-10.5A8.37,8.37,0,0,1,211.24,127ZM96.51,99.76c6-5.58,12.88-11.89,15.55-21.39,2.3-8.14-.69-10.71,2-22.36a62.26,62.26,0,0,1,3.89-11.67,31.51,31.51,0,0,0,1.94,9.72c2.83,7.6,7.67,9.78,7.78,15.56a20.11,20.11,0,0,1-2.92,10.69,42.43,42.43,0,0,0-1-7.78,42.9,42.9,0,0,0-3.89-10.69,48.67,48.67,0,0,1,0,18.47c-1.21,6.18-3.47,17.74-13.61,24.31-8.47,5.49-17.8,4.48-21.39,3.89A72.17,72.17,0,0,0,96.51,99.76Zm-9.24,17A28.65,28.65,0,0,1,96,119.69a220.5,220.5,0,0,1-19.45,20.42,220.79,220.79,0,0,1-17.5,14.58,62,62,0,0,1,2-20.42c1.61-6,2.56-9.49,5.83-12.64C74.09,114.68,85.45,116.48,87.27,116.77Zm-38.89,36c2.07-7.41-1.26-10.05,0-19.45,1.64-12.24,8.11-13.83,6.8-21.39-1.41-8.18-9.24-7.69-12.64-17.5-1.49-4.31-.77-6.72,1-22.36.94-8.46,1.57-15.28,1.94-19.45a115.77,115.77,0,0,1,1.46,22.85c-.3,8.13-1.36,12.4,1,18.47a28,28,0,0,0,8.75,11.67,29.67,29.67,0,0,0,16,6.32c-13,7.38-17.08,15-18.48,20.42-2,7.73,1.55,13-1.94,20.42a30.82,30.82,0,0,1-14.59,14.58C41.44,164.49,46.41,159.76,48.38,152.75Zm87,49.1c-.71-1.08-3-4.55-2-8.75,1.35-5.55,7.27-7.61,7.78-7.78a16.61,16.61,0,0,0-1,12.64c2.1,5.9,7.82,10.09,14.58,10.69C154.28,208.72,140.86,210.23,135.4,201.85Zm45.7-60.28c-4.63,3-5,7.75-10.7,17.5q-5.22,9-9.72,17.5a48.67,48.67,0,0,1,1-8.75,50.41,50.41,0,0,1,8.26-19A89.65,89.65,0,0,0,153.39,180a55.65,55.65,0,0,1,0-21.39c2.52-12.76,9-21.3,13.61-27.22a82.91,82.91,0,0,1,14.58-14.59c-6.89,12.57-6.8,16.65-5.35,18s4.5-.46,9.73,0a22.53,22.53,0,0,1,11.66,4.86C192.52,138.54,186.21,138.22,181.1,141.57Zm13.12-9.24a49.38,49.38,0,0,1-6.8-1,39.12,39.12,0,0,0,5.83-10.7c1-2.75.38-2.14,2.92-14.58a109.28,109.28,0,0,1,3.36-13c.21-.66.4-1.2.52-1.57-1.89,2.27-4.23,3.54-5.83,2.92-2.74-1.06-2-7.13-1.94-7.78.85-6.66,6.5-10.92,6.8-10.69s-2,2.47-2.91,6.8c-.41,1.81-.74,4.58,0,4.86,1,.38,2.79-4.23,3.88-3.88,2.43.77,2.19,16.31-1,30.14-.75,3.28-1.78,7,0,10.69s5.78,5.78,8.75,6.81A48.8,48.8,0,0,1,194.22,132.33Z"/><path d="M113,129.9a479.21,479.21,0,0,1-35,47.64,108.41,108.41,0,0,0,51.53-10.69l32.09-51.54h-6.81q-14.58,22.86-29.17,45.7c-4.23,1.38-8.77,2.7-13.61,3.89a191.44,191.44,0,0,1-20.42,3.89l45.7-66.11-4.86-5.84C126.82,107.42,120.37,118.5,113,129.9Z"/><path d="M215.13,115.31a29.22,29.22,0,0,1,.3,7A9,9,0,0,0,215.13,115.31Z"/><path d="M136.37,92l3.89,5.83,5.83-9.72-6.8-4.86Z"/></g></svg>