<?xml version="1.0" encoding="utf-8"?>
<!-- Generator: Adobe Illustrator 27.0.1, SVG Export Plug-In . SVG Version: 6.00 Build 0)  -->
<svg version="1.1" id="图层_35_复制" xmlns="http://www.w3.org/2000/svg" xmlns:xlink="http://www.w3.org/1999/xlink" x="0px"
	 y="0px" viewBox="0 0 240 240" style="enable-background:new 0 0 240 240;" xml:space="preserve">
<g id="图层_20_复制">
	<path d="M155.6,103c3.5-3.7,6.2-8.2,7.6-13.1c4.7-15.9-5.1-29.7-6.6-31.6c6.4,0.5,12.6,2,18.5,4.4c-12.2-7.1-26.2-10.5-40.3-9.8
		c4.1,1.9,7.8,4.4,10.9,7.6C160.8,75.8,156.3,99.6,155.6,103z"/>
	<path d="M187.8,176.6c-6,1.9-12.4,2.3-18.5,1.1c7.4-2.9,22.4-10.2,32.7-26.2c18.7-29,6.1-62.3,3.3-69.8
		c-14.4-38.1-50.5-52.2-56.7-54.5c8.6,5.4,16.3,12,22.9,19.6c4.3,4.9,37.3,44.3,22.9,85c-1,2.9-13.9,37.7-42.5,40.4
		c-13.4,1.2-24.3-5.2-29.4-8.7c8.4,4.3,17.9,5.8,27.3,4.4c21.9-3.7,32-23.7,33.8-27.3c8.1-16.1,9-38.6-3.3-54.5
		c-4.4-5.6-10-10-16.4-13.1c6.3,6.2,10.4,14.2,12,22.9c4,24.2-16.2,41.5-17.4,42.5c6.3-11.7,7.5-25.5,3.3-38.2
		c-1.9,8.6-6,16.5-12,22.9c-3.3,3.5-12.3,13.1-25.1,14.2c-15.8,1.3-22.2-11.9-36-9.8c-9,1.3-15.5,8.3-19.6,14.2
		c-6.4,0-11.9,4.6-13.1,10.9c3-1.6,6.4-2.3,9.8-2.2c1.9,0.1,3.7,0.5,5.4,1.1c7,4,13.6,8.8,19.6,14.2c14.4,12.9,16.5,21.5,26.2,28.4
		c7.1,5.1,19.1,9.8,40.3,6.5c-8.6,3.1-26.6,8.2-48,3.3c-8.6-2-24.1-5.6-36-19.6c-6-7.2-10.2-15.8-12-25.1c-1.5,4.6-1.5,9.6,0,14.2
		c0.9,2.8,2.4,5.4,4.4,7.6c0.2,0.3-9.8-6.1-12-16.4c-1.6-7.5,1.9-11.1,1.1-24c-0.1-2.2,1.1-6.1-1.1-8.7c-1.4-1.6-3.4-2.4-5.5-2.2
		c-2.4,0.3-4.5,2-5.4,4.3c-1.2-6.5-0.9-13.3,1.1-19.6c2.8-8.7,10.5-21.9,18.5-26.2c0.9-0.5,3.5-1.8,4.4-4.4c0.8-2.3,0.6-5.5-1.1-6.6
		c-2.4-1.5-6.7,1.8-8.7,3.3c-2.4,1.8-8,6.5-13.1,18.5c-2.8,6.6-4.6,13.6-5.5,20.7c-0.4-4.7-0.7-9.5-1.1-14.2
		c1.7-13.2,7-25.6,15.3-36c2.4,1,5.2,1,7.6,0c3.7-1.6,6.8-6.2,5.4-9.8c-0.6-1.5-1.8-2.6-3.3-3.3c1.7-1.3,3.5-2.4,5.5-3.3
		c3.4-1.5,7.2-2.2,10.9-2.2c0,1.5,0.1,4.5,2.2,6.5c1.7,1.6,3.9,1.8,7.6,2.2c2.2,0.2,4.4,0.2,6.5,0c-2.5,1-4.7,2.5-6.5,4.4
		c-5.7,5.8-5.5,13.5-5.5,15.3l9.8-3.3h5.4c-14.6,12-27.3,26.2-37.6,42c8.6-8.8,16.7-12.5,22.9-14.2c11.4-3.1,19.6-0.5,24-6.5
		c2.3-3.2,3.6-8.8,1.1-13.1c-1.3-2-3.2-3.5-5.4-4.4c3.9-1.4,7.9-2.1,12-2.2c6.7-0.1,8.8,1.8,14.2,1.1c0.9-0.1,10.9-1.6,13.1-7.6
		c2.4-6.4-5.3-14.8-10.9-18.5c-12.4-8.4-27.8-3.2-30.5-2.2c1.6-2.2,7-9.8,4.4-15.3c-3.5-7.1-18.5-6.1-26.2-4.4
		c-29.5,6.7-43.1,46.1-45.8,54.5s-13.8,43.8,6.5,79.6c2,3.5,24,40.7,68.7,46.9c37.2,5.1,74.8-13.3,96-46.9
		C200.2,170.4,194.4,174.4,187.8,176.6z"/>
	<path d="M125.6,200.5c0,0-0.6-0.1-1.6-0.2C124.6,200.4,125.1,200.5,125.6,200.5z"/>
	<path d="M103.8,192.9c6.2,3.8,13.1,6.3,20.3,7.4c-4.5-1-8.8-2.8-12.6-5.2c-3.2-2.1-6.2-4.7-8.7-7.6c-17.7-18.6-20.4-21.1-22.9-22.9
		c-4.8-3.4-9.9-6.3-15.3-8.7c5.4,4,10.5,8.4,15.3,13.1C92.5,181.3,94,186.9,103.8,192.9z"/>
</g>
</svg>
