<svg id="图层_35_复制" data-name="图层 35_复制" xmlns="http://www.w3.org/2000/svg" viewBox="0 0 240 240"><g id="图层_7_复制" data-name="图层 7_复制"><path d="M67.61,100.41c3.26-10.83,4.34-27.09,9.76-39,8.46-18.61,60.68-62.85,81.27-20.59,0,0-7.58-23.84-39-21.67S46.93,59.32,50.28,96.08C53.53,131.84,65.84,106.34,67.61,100.41Z"/><path d="M212.83,124.25c-17.34-43.34-65-69.35-72.61-54.18-9.5,19,44.43,15.17,70.88,66.77,14.45,28.19,3,42.41-7.41,48.1C203.69,184.94,233.41,175.72,212.83,124.25Z"/><path d="M27.09,132c.28-.53.55-1.07.86-1.61C27.68,130.89,27.39,131.44,27.09,132Z"/><path d="M25.1,136.24c.69-1.6,1.37-3,2-4.22C26.35,133.44,25.68,134.85,25.1,136.24Z"/><path d="M28.08,130.18c.5-.89,1-1.78,1.61-2.67C29.69,127.51,29,128.47,28.08,130.18Z"/><path d="M28,130.41l.13-.23Z"/><path d="M174.9,136.17a55.27,55.27,0,0,0-55.27-55.26c-.82,0-1.63,0-2.44.06a50.39,50.39,0,1,1-52.76,52.77c0,.81-.07,1.62-.07,2.43a55.27,55.27,0,0,0,74.76,51.72,86.38,86.38,0,0,0-8.65,7.89C100.6,226.67,2.25,191,25.1,136.24c-4.72,10.93-9.81,30.42,2.42,48.7,9.05,13.52,30.94,29.3,62.85,34.68,54.67,9.21,86.69-30.35,76.94-37.93-3.09-2.41-7.92-3.43-14.19-1.56A55.19,55.19,0,0,0,174.9,136.17Z"/><path d="M66.53,129.13a46.06,46.06,0,1,0,46.06-46A46.06,46.06,0,0,0,66.53,129.13Zm36-25.94a8.47,8.47,0,0,1,8.47,8.47,8.69,8.69,0,0,1-.29,2.18L139.89,130a6.36,6.36,0,1,1,2.55,11.18l-12.69,20.24a5.82,5.82,0,1,1-10.28,3.74,5.89,5.89,0,0,1,.08-.95l-16.63-12.51a5.33,5.33,0,1,1,3.1-2.41L122.51,160a5.79,5.79,0,0,1,2.78-.7,5.66,5.66,0,0,1,1.31.15l11.75-21.29a6.15,6.15,0,0,1-.75-1.92l-29.68-18a8.47,8.47,0,1,1-5.39-15Z"/><path d="M44.86,180.61l7.29-4.94a5.38,5.38,0,0,1,6,0l7.3,4.94-4.93-7.3a5.34,5.34,0,0,1,0-6L65.45,160,58.15,165a5.38,5.38,0,0,1-6,0L44.86,160l4.93,7.29a5.34,5.34,0,0,1,0,6Z"/><path d="M96.87,79.82l3.46-2.33a2.54,2.54,0,0,1,2.84,0l3.46,2.33-2.34-3.45a2.54,2.54,0,0,1,0-2.84l2.34-3.46-3.46,2.34a2.54,2.54,0,0,1-2.84,0l-3.46-2.34,2.34,3.46a2.54,2.54,0,0,1,0,2.84Z"/><path d="M195.76,131l-5.18,3.5a3.82,3.82,0,0,1-4.27,0l-5.18-3.5,3.5,5.18a3.8,3.8,0,0,1,0,4.26l-3.5,5.19,5.18-3.51a3.82,3.82,0,0,1,4.27,0l5.18,3.51-3.51-5.19a3.8,3.8,0,0,1,0-4.26Z"/></g></svg>