<svg id="图层_35_复制" data-name="图层 35_复制" xmlns="http://www.w3.org/2000/svg" viewBox="0 0 240 240"><g id="图层_33" data-name="图层 33"><path d="M141.26,65c33.3-9.87,75.23,66.59,53,134.42,0,0,28.36-61.66-17.27-130.72,9.87,0,13,12.25,13,12.25s-3.12-30.75-41.35-35.69C122.76,41.53,114.6,72.86,141.26,65Z"/><path d="M144.39,99.13c.37.23.57.37.57.37S144.77,99.36,144.39,99.13Z"/><path d="M167.77,169.18c4.94-28.37,1.85-42.55-2.53-48.38s-9.18-20.07-10.42-29.93c-4.93,7.39-11.1,23.43-11.1,23.43s-2.46-3.7-11.1-4.94C105.49,103.2,96.86,97,96.86,97s3.7,7.4,3.7,29.6c-1.23,39.46,24.67,45.63,43.16,48.1s30.84,25.89,30.84,25.89S165.31,182.74,167.77,169.18ZM111.66,110.6c39.46,27.13,48.1,51.79,53,67.83C156.06,158.69,111.66,110.6,111.66,110.6Z"/><path d="M148.66,195.69a91,91,0,0,1-19.73,0S138.79,208,146.19,213s25.9-3.7,25.9-3.7S158.52,194.46,148.66,195.69Z"/><path d="M48.36,94.72a62.17,62.17,0,0,0-8.23,9.71c-7.4,12.33-.62,27.75,9.25,16.65l.26-.31C48.61,114.41,48,108.87,48.36,94.72Z"/><path d="M102.41,174.11c21,18.5,22.2,16,22.2,16S65.92,149.5,92.7,87.12a57.53,57.53,0,0,1,22.66,1.28c17.91,4.21,26.82,9.33,29,10.73-3.64-2.37-24.75-15.49-48.64-18.47.36-.71.72-1.41,1.11-2.13,0,0,27.13-24.66,7.4-51.79S53.7,26.74,50,53.87a197.66,197.66,0,0,0-1.64,40.85,167.31,167.31,0,0,0,3.37,23.51c7.33,33.05,27.38,70.38,77.2,96-39.47-2.47-64.13-23.43-70.3-40.7-7.4-23.43-15.32-22.91-17.27-21-4.93,4.93,3.7,33.3,24.67,46.86,35.2,22.78,62.9,24.67,134.83,25.11C148.25,218.68,134.47,222.21,102.41,174.11ZM56.16,79.77c-1.23-16,7.4-45.63,28.37-45.63S103,57.57,103,57.57s0-8.64-12.34-14.8C72.2,35.37,57.4,61.27,56.16,79.77Z"/></g></svg>