<svg id="图层_35_复制" data-name="图层 35_复制" xmlns="http://www.w3.org/2000/svg" viewBox="0 0 240 240"><g id="图层_6_复制" data-name="图层 6_复制"><path d="M128,24.08c.23-1.36.45-2.65.67-3.82A13,13,0,0,0,128,24.08Z"/><path d="M101.12,32.85a33.84,33.84,0,0,1,2.7,4.16A18,18,0,0,0,101.12,32.85Z"/><path d="M139.64,202.26s26.58,4.62,48.54-2.31c-12-1.16-11.56-5.78-11.56-5.78s30-27.73,32.36-54.31C205.51,160.66,191.64,177.19,139.64,202.26Z"/><path d="M28.71,181.46S46,221.9,101.51,210.35C73.78,211.5,40.27,202.26,28.71,181.46Z"/><path d="M117.69,135.24c10.23-4.56,17.07-13.54,17.33-23.11.46-16.49-18.85-24.64-20.8-25.43C100.3,81.07,83.3,85.29,70.31,97.1l10.4,10.4a11.06,11.06,0,0,1,7.51-4c4.57-.26,7.68,3,9.25,4.62a17.58,17.58,0,0,1,4.62,10.4A20.92,20.92,0,0,0,94,98.84a18.33,18.33,0,0,1,9.24-5.78c9.08-2.29,16.33,3.76,17.34,4.62,8.57,7.41,7.17,19,6.93,20.8A26.49,26.49,0,0,1,117.69,135.24Z"/><path d="M209,132.93a55.83,55.83,0,0,1-9.25,6.93,42.67,42.67,0,0,0,12.72-19.65c1.39-4.76,4.57-15.62-1.16-20.8-3.88-3.5-9.71-2.44-10.4-2.31-7.52,1.49-10.26,8.86-10.4,9.25,4.21-5.73,10-8.48,13.87-6.94,6.14,2.46,4.79,14.79,4.62,16.18-1.7,14-15.06,22.28-18.49,24.27a25.8,25.8,0,0,1-8.09,18.49,84.71,84.71,0,0,0,31.2-27.74,86.69,86.69,0,0,0,10.4-20.8A57.69,57.69,0,0,1,209,132.93Z"/><path d="M178.93,210.35a107.66,107.66,0,0,1-48.53,17.33,105.09,105.09,0,0,1-38.13-3.46A100.29,100.29,0,0,0,126.93,230a88.67,88.67,0,0,0,76.27-41.6A108.61,108.61,0,0,1,178.93,210.35Z"/><path d="M193.38,56.08,172,87.86s-4.62-48.53-35.24-49.11c16.75,5.2,23.68,26,23.68,36.4C152.36,64.75,135.6,60.7,135.6,60.7S127.38,36,128,24.08c-2.26,13.37-5.11,34.31-5.11,34.31s-30-1.15-49.69,8.09S46,44,57.6,31.24c15.45-17,35.54-7.9,43.52,1.61C95,24.62,78.59,8.5,51.82,25.46c-37.36,23.66-2.31,126-2.31,126s4.62,30.05,69.33,57.78c-5.77-32.35-5.77-71.64-40.44-100.53C45.73,81.44,75.51,71.1,100.93,74.57s54.31,22,52,35.82-15,20.8-16.17,30.05-5.78,27.73,0,52c22.53-15.6,52.54-34.19,52-56.63-.58-23.68-4.63-38.13-4.63-38.13Zm-94.76,93.6c4.62,8.09,9.25,32.36,11.56,47.38-8.09-3.47-35.82-24.27-39.29-31.2s-3.47-41.6-3.47-41.6S94,141.59,98.62,149.68Zm67.6-.08c-6.93,12-21.95,22.62-21.95,22.62s1.15-12.72,3.46-30.05c17.34-15,18.49-23.11,18.49-23.11A114.37,114.37,0,0,1,166.22,149.6Z"/><path d="M41.2,150.3c-7.2-1.93-17.63-7.08-25.2-20.84,12.71,32.36,38.13,69.33,102.84,79.73C105.32,205.81,54.41,181.53,41.2,150.3Z"/></g></svg>