<svg id="图层_35_复制" data-name="图层 35_复制" xmlns="http://www.w3.org/2000/svg" viewBox="0 0 240 240"><path d="M34.18,226s80.36-107.15,112-129.07c-21.92-2.44-46.27,4.87-46.27,4.87L229,33.61,165.68,152.94a375.25,375.25,0,0,0,2.44-41.4C153.51,123.72,78,199.21,34.18,226Z"/><path d="M182.73,43.35s-12.18,2.44-17,0-17-17-48.7-14.61S80.45,19,80.45,19s-2.44,29.22,39,19.48c0,0,24.35-2.43,31.66,7.31s-12.18-4.87-29.22-4.87S48.79,55.53,39.05,75C51.22,65.27,63.4,62.84,73.14,60.4,53.66,72.58,26.87,99.36,22,135.89c7.31-17,24.35-34.09,29.22-36.53-17,24.36-26.78,39-26.78,87.68,4.87-19.49,7.3-48.71,41.4-85.24-17.05,19.48-21.92,36.53-17.05,80.36C51.22,152.94,61,89.62,107.24,67.71c-9.75,7.3-17,12.17-26.79,34.09,14.61-17,19.48-26.79,51.14-39C131.59,62.84,182.73,58,182.73,43.35Z"/><path d="M197.34,101.8s2.44,41.4-12.18,51.14S153.51,167.55,134,167.55C148.64,170,146.2,170,155.94,170c-14.61,4.87-21.92,4.87-41.4,4.87s-70.62,2.43-85.23,41.4c12.17-14.61,34.09-31.66,58.44-24.35s56,2.43,56,2.43-12.17,21.92-34.09,29.22c20.78-5.1,73.06-24.35,87.67-65.75C207.08,135.89,197.34,101.8,197.34,101.8Z"/><path d="M85.32,150.51S78,126.15,87.75,101.8c-7.3,7.31-12.17,12.18-12.17,17a59.62,59.62,0,0,1,2.43-17S61,121.28,53.66,174.86c9.74-24.35,12.18-26.79,14.61-31.66,0,4.87,2.44,14.61,4.87,24.35,0-7.3,0-19.48,2.44-24.35,2.43,4.87,9.74,7.31,9.74,7.31"/></svg>