<?xml version="1.0" encoding="iso-8859-1"?>
<!-- Generator: Adobe Illustrator 18.1.1, SVG Export Plug-In . SVG Version: 6.00 Build 0)  -->
<svg version="1.1" id="Capa_1" xmlns="http://www.w3.org/2000/svg" xmlns:xlink="http://www.w3.org/1999/xlink" x="0px" y="0px"
	 viewBox="0 0 460.467 460.467" style="enable-background:new 0 0 460.467 460.467;" xml:space="preserve">
<g>
	<g>
		<path style="fill:#010002;" d="M203.133,432.017c0,15.713,12.737,28.45,28.45,28.45s28.45-12.737,28.45-28.45v-163.36h-56.9
			V432.017z"/>
		<rect x="203.133" y="121.303" style="fill:#010002;" width="56.9" height="60.688"/>
		<path style="fill:#010002;" d="M260.033,28.45c0-15.713-12.737-28.45-28.45-28.45s-28.45,12.737-28.45,28.45v6.186h56.9V28.45z"/>
		<path style="fill:#010002;" d="M120.043,113.174v4.064l0,0V113.174h83.09h56.9h24.28v33.091c0,1.024,0.065,1.91,0.179,2.674
			c0.033,0.211,0.081,0.333,0.122,0.528c0.098,0.504,0.195,0.992,0.325,1.357c0.033,0.098,0.073,0.146,0.106,0.236
			c0.154,0.382,0.317,0.723,0.488,0.927c0.008,0.016,0.016,0.016,0.024,0.033c0.114,0.13,0.228,0.276,0.317,0.317
			c0.041,0.016,0.138-0.008,0.195,0c0.098,0.016,0.203,0.024,0.358,0c0.057-0.008,0.089-0.008,0.163-0.024
			c0.293-0.065,0.65-0.179,1.081-0.398c0.024-0.008,0.057-0.041,0.081-0.049c0.439-0.228,0.935-0.52,1.496-0.943
			c0.593-0.439,1.26-1.008,2.008-1.764L351.423,89c0.756-0.756,1.414-1.569,1.975-2.422c0.106-0.163,0.171-0.341,0.268-0.504
			c0.439-0.715,0.854-1.447,1.162-2.211c0.049-0.114,0.065-0.228,0.106-0.341c0.317-0.837,0.585-1.683,0.756-2.552
			c0-0.016,0-0.033,0.008-0.049c0.179-0.959,0.284-1.935,0.284-2.926c0-0.341-0.073-0.667-0.098-1.008
			c-0.016-0.244-0.041-0.48-0.073-0.723c-0.154-1.317-0.423-2.601-0.886-3.829c-0.041-0.098-0.057-0.211-0.098-0.309
			c-0.317-0.772-0.732-1.512-1.179-2.235c-0.098-0.154-0.154-0.325-0.26-0.48c-0.569-0.853-1.227-1.674-1.983-2.422l-60.168-60.16
			c-0.756-0.756-1.422-1.325-2.016-1.764c-0.35-0.26-0.634-0.415-0.935-0.593c-0.569-0.341-1.04-0.569-1.382-0.683
			c-0.073-0.065-0.195-0.13-0.284-0.146c-0.13-0.033-0.171-0.024-0.26-0.041c-0.122-0.016-0.211-0.008-0.301,0
			c-0.057,0.008-0.163-0.016-0.195,0c-0.081,0.041-0.195,0.195-0.309,0.325c-0.008,0.008-0.016,0.016-0.024,0.033
			c-0.171,0.203-0.333,0.545-0.488,0.927c-0.033,0.089-0.073,0.13-0.106,0.236c-0.13,0.366-0.228,0.862-0.325,1.357
			c-0.033,0.187-0.089,0.317-0.122,0.528c-0.114,0.764-0.179,1.642-0.179,2.674v33.091h-24.28h-56.9h-83.09v-4.064l0,0v4.064
			c-8.584,0-15.566,6.982-15.566,15.574v39.277C104.468,106.184,111.459,113.174,120.043,113.174z"/>
		<path style="fill:#010002;" d="M107.053,233.908c0.569,0.862,1.227,1.674,1.983,2.43l60.16,60.16
			c0.756,0.756,1.431,1.333,2.024,1.772c0.203,0.154,0.358,0.219,0.545,0.35c0.894,0.593,1.609,0.919,2.04,1.024
			c0.008,0,0.016,0.008,0.016,0.008c0.13,0.033,0.163,0.024,0.244,0.033c0.13,0.016,0.236,0.008,0.325,0
			c0.057-0.008,0.154,0.016,0.187,0c0.089-0.033,0.203-0.187,0.309-0.309c0.016-0.016,0.024-0.024,0.041-0.041
			c0.163-0.203,0.317-0.536,0.471-0.894c0.041-0.098,0.081-0.146,0.122-0.26c0.122-0.35,0.219-0.837,0.309-1.317
			c0.041-0.203,0.098-0.341,0.13-0.569c0.106-0.764,0.179-1.642,0.179-2.666v-33.091h26.995h56.9h80.383l0,0
			c8.584,0,15.574-6.982,15.574-15.574v-39.269c0-8.584-6.982-15.574-15.574-15.574l0,0h-80.383h-56.9h-26.995v-33.091
			c0-1.024-0.065-1.91-0.179-2.674c-0.033-0.228-0.089-0.366-0.13-0.569c-0.098-0.48-0.187-0.959-0.309-1.309
			c-0.041-0.114-0.081-0.163-0.122-0.26c-0.146-0.366-0.309-0.699-0.471-0.894c-0.016-0.016-0.024-0.024-0.041-0.041
			c-0.106-0.13-0.219-0.276-0.309-0.309c-0.041-0.016-0.138,0.008-0.187,0c-0.098-0.016-0.195-0.016-0.341,0
			c-0.065,0.008-0.098,0.008-0.187,0.024c-0.293,0.065-0.642,0.179-1.065,0.398c-0.065,0.033-0.163,0.106-0.228,0.146
			c-0.406,0.219-0.845,0.48-1.357,0.854c-0.593,0.447-1.26,1.016-2.016,1.772l-60.16,60.16c-0.756,0.756-1.414,1.569-1.983,2.43
			c-0.081,0.122-0.13,0.26-0.203,0.382c-1.52,2.439-2.374,5.251-2.374,8.202s0.854,5.763,2.374,8.202
			C106.923,233.648,106.972,233.786,107.053,233.908z"/>
	</g>
</g>
<g>
</g>
<g>
</g>
<g>
</g>
<g>
</g>
<g>
</g>
<g>
</g>
<g>
</g>
<g>
</g>
<g>
</g>
<g>
</g>
<g>
</g>
<g>
</g>
<g>
</g>
<g>
</g>
<g>
</g>
</svg>
