<?xml version="1.0" encoding="utf-8"?>
<!-- Generator: Adobe Illustrator 27.0.1, SVG Export Plug-In . SVG Version: 6.00 Build 0)  -->
<svg version="1.1" id="图层_1" xmlns="http://www.w3.org/2000/svg" xmlns:xlink="http://www.w3.org/1999/xlink" x="0px" y="0px"
	 viewBox="0 0 256 256" style="enable-background:new 0 0 256 256;" xml:space="preserve">
<g>
	<g>
		<path d="M99.5,153.9c0.4,0.3,0.8,0.7,1.2,0.9c0.4,0.2,0.8,0.4,1.2,0.5c1.6,0.4,3.2,0.7,4.7,1.2c0.7,0.2,1.3,0.6,1.9,1
			c0.5,0.3,1.1,0.5,1.7,0.6c0.9,0.2,1.8,0.3,2.7,0.6c0.9,0.2,1.7,0,2.7-0.1c-0.7-1.1-1.2-2.1-2-2.9c-0.6-0.6-1.2-1.2-1.9-1.6
			c-0.6-0.4-1.3-0.6-1.9-0.9c-0.3-0.1-0.5,0-0.8,0.1c-0.1,0.1-0.3,0.3-0.4,0.4c-0.2-0.3-0.3-0.7-0.7-0.4c-0.2,0.2-0.5,0.3-0.7,0.4
			c-0.5,0.1-0.6,0.3-0.3,0.7c0,0.1-0.1,0.4-0.3,0.5c-0.5,0.2-1.1,0.3-1.7,0.5c-0.1,0-0.3-0.1-0.3-0.2c-0.1-0.2-0.2-0.5-0.2-0.7
			c0.1-0.9,0.1-1.9,1-2.6c0.2-0.2,0.3-0.4,0.5-0.7c0.4-0.6,0.8-1.2,1.5-1.5c0.3-0.1,0.5-0.4,0.7-0.7c0.8-1.1,1.6-2.2,2.5-3.2
			c0.3-0.4,0.5-0.8,0.5-1.3c-0.1-1.7-0.2-3.5-0.7-5.2c-0.1-0.4-0.3-0.8-0.4-1.3c0.1,0,0.2,0,0.3,0c1.2,1,2.5,1.8,2.8,3.5
			c0.6,1,0.7,2.1,0.7,3.2c-0.1,1.1-0.3,2.3-0.5,3.4c0,0.1-0.1,0.3-0.1,0.3c-0.7,0.1-0.8,1.1-1.5,1.1c-0.1,0-0.3,0.2-0.4,0.3
			c-0.1,0.1-0.1,0.5,0.1,0.5c1.2,0.2,2.3,0.8,3.4,1.4c0.8,0.4,1.6,0.3,2.4,0.7c0.2,0.1,0.5-0.1,0.5-0.4c-0.1-0.7-0.2-1.3-0.3-2
			c-0.3-1.8-0.9-3.6-1.5-5.3c-0.5-1.5-0.9-3-1.2-4.5c-0.1-0.6-0.2-1.2-0.7-1.6c-0.2-0.2-0.3-0.5,0.1-0.6c-0.1-0.3-0.1-0.5-0.2-0.8
			c-0.3-0.7-0.6-1.3-0.9-2c-0.2-0.4-0.2-0.8,0-1.3c0.2,0.2,0.4,0.3,0.5,0.4c0.3,0.5,0.7,1,1.4,1c0.4,0,0.7,0.3,1,0.6
			c0.8,0.8,1.5,1.7,2,2.7c0.6,1,1.2,2,1.8,3c0.1,0.1,0.2,0.3,0.3,0.4c1.4,1.1,2,2.7,2.6,4.2c0.1,0.2,0.1,0.4,0.2,0.5
			c0.8,1.2,1.2,2.5,1.6,3.8c0.4,1,0.7,2,1.1,3c0.4,1,0.7,2.1,1.1,3.1c0.2,0.6,0.5,1.1,0.6,1.7c0.1,0.6,0,0.9-0.4,1.3
			c-0.4,0.3-0.8,0.7-1.2,1c-0.4,0.3-0.9,0.2-1.2,0.6c-0.6-0.3-0.9,0.6-1.7,0.3c0.2,0.3,0.3,0.6,0.5,0.6c1.1,0.6,2.2,1.2,3.4,1.8
			c0.6,0.3,1.2,0.3,1.7-0.3c0.2,0.1,0.4,0.2,0.6,0.3c0.6,0.2,1.3-0.1,1.7-0.6c0.4-0.6,0.7-1.2,0.7-2c0-0.4,0.2-0.8,0.3-1.2
			c0.2-0.7,0.1-1.4-0.3-2.1c-0.3-0.5-0.4-1-0.7-1.5c-0.1-0.3-0.2-0.6-0.4-0.9c-0.9-1.1-1.4-2.5-2.1-3.7c-0.3-0.5-0.5-1-1.1-1.3
			c-0.3-0.2-0.5-0.4-0.5-0.8c0-0.1,0-0.2,0-0.2c-0.8-0.5-0.4-1.2-0.3-1.9c0.1-0.7,0.4-1.4,0.7-2c0.3-0.7,0.3-1.4-0.1-2.1
			c-0.3-0.5-0.6-1-0.8-1.6c-0.3-0.7-1-0.9-1.5-1.3c-0.2-0.1-0.4-0.2-0.8-0.4c1.2,0,2.3,0.1,3.2,0.7c1.3,0.8,2.8,1,4.2,1.5
			c0.2,0.1,0.4,0.1,0.6,0.1c1.4,0,2.7,0,4.1,0c0.2,0,0.3-0.1,0.5-0.1c0-0.2,0-0.4,0-0.6c-0.2-0.7-0.4-1.5-0.7-2.2
			c-0.5-1-0.7-2.1-0.7-3.2c-0.1-1.1-0.1-1.1-0.8-2c0.3-0.5,0.6-1,1.1-1.3c0.3-0.2,0.5-0.4,0.7-0.6c1.6-1.4,2.6-1.9,4.7-2.3
			c0.2,0,0.3-0.1,0.5-0.1c0.2-0.1,0.4-0.2,0.6-0.3c-0.5-0.5-0.5-1.1-0.5-1.9c0.1-0.7,0.1-1.3,0.6-1.9c0.4-0.5,0.5-1.2,1.2-1.6
			c0.2-0.1,0.2-0.6,0.3-0.9c0.2-0.7,0.2-1.5,0.7-2.1l0,0c0.9,0.6,1.9,0.6,2.9,0.5c1.6-0.2,3.2-0.5,4.8-0.2c0.1,0,0.3,0,0.4,0
			c0.7-0.1,1.3-0.2,2-0.5c0.6-0.2,1.2-0.1,1.7,0.1c0.2,0.1,0.3,0.1,0.5,0.1c0.6,0,0.9,0.5,1.3,0.9c0.5,0.7,0.4,1.2-0.4,1.6
			c-0.8,0.4-1.6,0.8-2.4,1.2c-0.2,0.1-0.4,0.3-0.6,0.4c1.4,0.7,2.7,0.7,4,0.3c0.5-0.2,1-0.2,1.5-0.2c1.4-0.1,2.9,0.9,3.3,2.3
			c0.2,0.7,0.4,1.5-0.1,2.2c0,0-0.1,0.1-0.1,0.1c-0.1,1.2-0.8,2-1.3,3c-0.5,1-1,2-1.6,3c-0.8,1.4-1.8,2.7-3.2,3.7
			c-0.2,0.1-0.3,0.2-0.5,0.3c-0.6,0.3-1.3,0.4-1.8,0.9c-0.5,0.4-1,0.3-1.5-0.2c-0.1-0.1-0.2-0.2-0.3-0.3c-1.6,0.2-3,1-4.4,1.7
			c-1.3,0.6-2.7,1.2-4,1.8c-0.4,0.2-0.7,0.5-1.2,0.8c-0.2-0.1-0.5-0.1-0.8-0.3c-0.2,0.3-0.3,0.6-0.6,1c1.2-0.1,2.4-0.1,3.5-0.5
			c0.7-0.2,1.4-0.3,2-0.5c1.2-0.2,2.3-0.5,3.5-0.7c0.1,0,0.4-0.1,0.4,0c0.3,0.2,0.5,0.2,0.6-0.1c0.4-0.8,1.3-0.7,1.9-0.9
			c0.6-0.1,1.3-0.2,1.9-0.4c0.6-0.2,1.3-0.3,1.9-0.5c0.7-0.2,1.5-0.5,1.8-1.2c0.5-1.1,1-2.1,1.3-3.2c0.2-0.7,0.3-1.6,0.4-2.4
			c0.1-0.6,0.3-1,0.7-1.5c0.8,0.3,1.5,0.6,2.2,0.9c0.3,0.2,0.6,0.5,0.9,0.7c0.1,0.1,0.2,0.3,0.4,0.5c1.3,0.9,2,2.2,2.9,3.4
			c0.7,0.9,1.5,1.7,2.4,2.5c0.3,0.2,0.5,0.2,0.7-0.1c0.1-0.1,0.1-0.2,0.2-0.3c0.4-0.3,0.3-0.7,0.1-1.1c-0.1-0.1-0.2-0.3-0.3-0.4
			c-0.5-0.5-0.7-1.1-0.8-1.8c-0.1-0.4-0.2-0.8-0.4-1.1l0,0c0.1,0.1,0.3,0.1,0.4,0.2c0.2,0.3,0.4,0.7,0.5,1.1c0.2,0.5,0.5,1,1,1.4
			c0.4,0.4,0.7,0.8,1.1,1.3c0.2,0.2,0.3,0.4,0.5,0.7c0.4,0.6,0.8,1.2,1.3,1.7c0.4,0.6,0.9,1.1,1.4,1.6c0.5,0.5,0.9,1.1,1,1.9
			c0,0.3,0.2,0.5,0.4,0.7c0.2,0.3,0.4,0.5,0.6,0.7c0.5,0.8,0.4,1.6-0.4,2.3c-1,0.9-2.2,1.5-3.2,2.2c-0.3,0.2-0.7-0.2-0.8,0.2
			c-0.1,0.3-0.4,0.3-0.7,0.3c0,0.4-0.6,0.3-0.7,0.6c-0.1,0.1-0.1,0.2-0.2,0.3c-0.2,0.4-0.8,0.4-0.7,1c-0.3,0.3-0.6,0.5-0.8,0.8
			c-0.1,0.2-0.1,0.4-0.3,0.4c-0.7,0.1-1,0.6-1.2,1.2c-0.1,0.2-0.1,0.4-0.2,0.5c-0.2,0.3-0.6,0.6-0.5,1.1c0,0.2-0.3,0.4-0.5,0.7
			c0.1,0.1,0.3,0.2,0.3,0.3c0,0.1,0,0.3-0.1,0.4c-0.2,0.1-0.5,0.1-0.7,0.2c0.5,0,1.1,0,1.7,0c-0.1-0.1-0.2-0.2-0.4-0.3
			c0.1-0.1,0.2-0.2,0.3-0.3c0.9-0.1,1.7-0.1,2.8-0.2c-0.4,0.3-0.6,0.4-0.9,0.6c0.5,0.1,1-0.1,1.2,0.4c0.1,0.1,0.4,0.2,0.5,0.1
			c0.8-0.1,1.5-0.1,2.3-0.2c0.4,0,0.8-0.3,1.3-0.1c0.3,0.1,0.6-0.3,0.4-0.6c-0.2-0.4-0.5-0.8-1-1c-0.6-0.2-1.1-0.4-1.7-0.5
			c-0.8-0.1-1.6-0.1-2.4-0.1c0.4-0.6,1-0.7,1.6-0.8c0.9-0.1,1.7-0.2,2.6,0.1c1,0.3,2,0.6,3,0.8c0.8,0.2,1.6,0.2,2.4,0.2
			c0.5,0,0.9,0,1.3-0.4c0.3-0.3,0.7-0.4,1.2-0.3c0.3,0.1,0.8,0.1,1,0c0.7-0.5,1.6-0.5,2.4-0.7c0.3-0.1,0.5-0.1,0.8-0.2
			c0.2,0.2-0.3,0.5,0.2,0.5c0.2,0,0.5,0,0.4-0.4c0-0.1,0.1-0.3,0.2-0.3c0.7-0.2,1.4-0.3,2.1-0.5c0.5-0.1,0.2,0.3,0.3,0.5
			c0.9,0,1.3-0.7,1.5-1.6c0.2,0.4,0.3,0.5,0.4,0.8c0.3-0.1,0.6-0.2,0.8-0.4c0.2-0.1,0.4-0.3,0.5-0.3c0.4,0.1,0.5,0,0.7-0.4
			c0-0.1,0.2-0.2,0.3-0.2c0.3,0,0.4,0.3,0.4,0.5c-0.1,0.4-0.2,0.8-0.6,1c-0.3,0.2-0.6,0.4-1,0.7c-0.1,0.1-0.3,0.3-0.3,0.4
			c0,0.6-0.3,0.9-0.8,1.2c-0.5,0.3-0.8,0.7-1.2,1.1c-0.1,0.1-0.2,0.2-0.3,0.2c-1.3,0.2-2,1.3-3,2c-0.6,0.4-1.1,0.8-1.8,1.1
			c-2,0.9-3.8,2.1-5.5,3.5c-1.5,1.2-3.1,2.2-4.7,3.1c-1.6,1-3.3,1.8-4.7,3.1c-0.7,0.6-1.5,0.8-2.4,0.5c-1-0.4-1.9-0.7-2.9-1
			c-0.8-0.3-1.5-0.6-2.3-0.8c-1.8-0.4-3.4-1.2-5.1-1.9c-0.9-0.3-1.7-0.6-2.6-0.7c-1.8-0.3-3.5-1-5.2-1.5c-1-0.4-2-0.7-3.1-0.9
			c-0.7-0.2-1.5-0.2-2.2,0.1c-0.7,0.2-1.4,0.6-2.2,0.4c-0.2-0.1-0.5,0.1-0.8,0.2c-0.8,0.2-1.6,0.5-2.4,0.7c-0.3,0.1-0.5,0.2-0.7,0.4
			c-0.3,0.2-0.5,0.4-0.9,0.2c-0.1-0.1-0.4,0.1-0.6,0.1c-1.3,0.4-2.5,1.1-3.4,2.1c-0.3,0.4-0.7,0.7-1.3,0.9c-0.6,0.3-1.1,0.7-1.7,1.1
			c-0.7,0.4-1.4,0.8-2,1.3c-1.3,0.9-2.8,1.3-4.4,1.4c-0.3,0-0.6,0-1,0.1c-0.8,0.2-1.5-0.1-2.1-0.6c-0.8-0.7-1.7-1.3-2.6-1.9
			c-0.4-0.2-0.8-0.6-1.2-0.8c-0.8-0.6-1.6-1-2.6-1.2c-1.1-0.2-2-0.8-2.9-1.3c-1-0.5-1.9-1.2-2.9-1.7c-2-1.1-4.1-1.9-6.4-1.7
			c-0.6,0-1.1,0.1-1.7,0c-0.5-0.1-1,0.4-1.5,0.1c-0.1,0-0.2,0-0.2,0c-0.6,0.3-1.1,0.3-1.7-0.1c-0.3-0.2-0.6-0.2-1-0.1
			c-1.2,0.4-2.5,0.8-3.8,1.2c-0.2,0-0.3,0.1-0.5,0.1c-0.3,0-0.6,0-0.8-0.2c-0.2-0.2,0-0.5,0.1-0.8c0.2-0.3,0.4-0.5,0.2-0.9
			c-0.6-1.3-0.3-2.6,0-3.9c0.3-1.2,0.4-2.3,0.3-3.5c0-0.4,0.2-0.8,0.4-1.1c0.8-1.1,0.8-1.3,0-2.6c-0.4,0.2-0.7,0.5-1.1,0.7
			c-0.3,0.2-0.3,0.4-0.3,0.7c0,0.3,0.3,0.3,0.6,0.1c0.1-0.1,0.2-0.1,0.3,0c0.1,0,0.1,0.2,0.1,0.3c0,0.1-0.1,0.2-0.2,0.3
			c-0.2,0.3-0.4,0.5-0.2,0.9c0.1,0.1,0,0.4-0.1,0.4c-0.6,0.3,0.4,0.7,0,1c-0.3,0.2-0.5,0.5-0.3,0.9c0.1,0.3-0.3,0.5-0.2,0.9
			c0.1,0.2-0.1,0.6-0.2,0.9c-0.2,0.3-0.4,0.5-0.6,0.7c-0.3,0.4-0.5,0.9-0.9,1.3c-0.8,1-1.5,2-2.6,2.8c-0.1,0-0.1,0.1-0.2,0.2
			c-0.4,1-1.4,1.1-2.2,1.6c-0.2,0.1-0.4,0.1-0.6,0.1c-1.3,0.1-2.6,0.2-3.9-0.2c-0.1,0-0.2-0.1-0.2,0c-0.7,0.5-1,0-1.3-0.5
			c-0.1-0.1-0.2-0.2-0.4-0.3c0,0-0.2,0.1-0.2,0.1c0.3,0.7-0.3,0.6-0.5,0.4c-0.8-0.8-1.8-0.6-2.7-0.5c-0.4,0-0.8,0.1-1.2-0.2
			c-0.2-0.1-0.5-0.2-0.7-0.1c-0.6,0.2-0.9-0.1-1.1-0.6c0-0.1-0.2-0.1-0.2-0.1c-0.2-0.6-0.3-0.7-0.7-0.7c-0.8-1.7-0.7-3.7-1.4-5.5
			c0.5,0.1,0.8,0.2,1.2,0.3c0.1-0.1,0.2-0.2,0.2-0.3c0.1-0.4-0.1-1,0.7-0.8c0-0.1,0.1-0.3,0.1-0.4c-0.2-0.2-0.4-0.4-0.6-0.5
			c-0.6-0.3-1.1-0.6-1.7-0.9c0.1-0.3,0.6,0,0.6-0.5c0,0,0.2-0.1,0.3-0.1c0.5,0.1,0.9,0.3,1.4,0.4c0.2,0.1,0.4,0.2,0.6,0.4
			c0.3,0.3,0.7,0.5,1.2,0.6c1.8,0.4,3.6,1.1,5.3,1.8c2,0.8,4,0.9,6.1,0.9c0.5,0,1-0.2,1.5-0.5c0.7-0.4,1.4-0.8,2-1.4
			c0.3-0.3,0.6-0.8,0.7-1.2c0.2-0.9,0.5-1.8,0.8-2.6c0.1-0.2,0.1-0.4,0.2-0.5c-0.3-0.3-0.6-0.5-1-0.2c-0.2,0.2-0.4,0.3-0.6,0.4
			c-0.6,0.5-1.2,1-1.9,1.4c-0.3,0.2-0.7,0.2-1,0.3c-0.1,0-0.3,0.1-0.5,0.3c0.6,0.2,1.2,0.3,1,1l0,0c-0.4,0.2-0.8,0.3-1.2,0.5
			c-0.1,0-0.2,0.2-0.2,0.3c-0.2,0.7-0.7,0.7-1.2,0.7c-0.8,0-1.6,0-2.4-0.1c-0.3,0-0.6-0.1-0.9-0.3c-0.8-0.5-1.6-0.9-2.3-1.5
			c-0.6-0.5-1.2-1.1-1.6-1.7c-0.8-1.3-1.4-2.8-1.9-4.4c-0.1-0.4-0.3-0.8-0.5-1.2c-0.6-1.1-1.2-2.3-2.2-3.2c-0.3,0.5-0.5,1.1-0.8,1.6
			c-0.1-0.1-0.2-0.3-0.4-0.6c-0.1,0.4-0.1,0.7-0.2,1.2c0.3-0.3,0.4-0.5,0.6-0.6c0,0.6-0.1,1.1-0.3,1.6c-0.3,0.7-0.5,1.5-0.6,2.5
			c0.6-1.2,0.7-1.3,1.1-1.5c0.3,0.4,0,0.7-0.1,1c-0.1,0.3-0.4,0.5-0.5,0.8c-0.1,0.2,0.1,0.5,0,0.8c-0.3,1.2-0.7,2.5-1.8,3.3
			c-0.6,0.4-0.6,1-0.7,1.6c0,0.2,0.1,0.4,0.2,0.5c0.4,0.2,0.3,0.5,0.2,0.7c-0.2,0.6-0.3,1.1,0,1.7c0.1,0.2,0,0.6-0.1,0.9
			c-0.5,0.8-0.5,0.8-0.5,1.8c-0.7,0.4-1.5,0.4-2.3,0.3c-1.4,0-2.9,0-4.3-0.2c-1.3-0.1-2.5-0.3-3.8-0.5c-1.3-0.2-2.4-0.9-3.6-1.1
			c-0.6-0.1-1.2-0.3-1.8-0.5c-0.2-0.1-0.5-0.1-0.6-0.2c-0.4-0.6-0.9-0.5-1.4-0.3c-0.4-0.1,0-0.9-0.7-0.6c-0.1,0-0.3,0-0.3-0.1
			c-0.1-0.2-0.2-0.6-0.5-0.5c-0.4,0.2-0.4-0.4-0.7-0.3c-0.3,0.1-0.5,0-0.8,0.1c-0.2-0.1-0.1-1-0.7-0.3c-0.3-0.1-0.6-0.1-0.9-0.2
			c-0.3-0.1-0.7-0.1-0.6-0.6c0-0.1-0.2-0.2-0.3-0.2c-1-0.4-1.9-0.8-2.9-1.2c-0.3-0.1-0.5-0.3-0.7-0.5c0.1-0.1,0.1-0.2,0.1-0.2
			c0.5,0,1,0.1,1.4-0.1c0.4-0.2,0.9-0.1,1.3-0.1c0.5-0.1,1-0.1,1.5,0.1c0.3,0.2,0.8,0.1,1.4-0.1c-0.4-0.1-0.6-0.1-0.8-0.2
			c0,0,0.1-0.1,0.1-0.1c0.3,0,0.6,0,0.7-0.3c0.2-0.4,0.5-0.4,0.8-0.6c1.1-0.5,2.2-1,3.3-1.5c2.4-1.1,4.2-2.9,6-4.9
			c0.9-1,1.5-2.1,1.9-3.3c0.4-1.6,0.9-3.1,1.6-4.6c0.2-0.4,0.3-0.9,0.4-1.4c0.1-0.4,0.3-0.9,0.5-1.2c0.8-1.1,1.8-2,3-3
			c-0.3,0.9-0.6,1.5-1.1,2c-1.1,1.3-1.4,2.8-1.6,4.4c0,0.3,0.1,0.6,0.2,0.9c0.1,0,0.1,0,0.2,0c1.2-0.3,1.2-0.3,1.9-1.3
			c0.7-1,1.3-2,2-2.9c0.2-0.3,0.3-0.7,0.4-1.1c0.1-0.3,0.5-0.5,0.7-0.7c0.2-0.3,0.3-0.6,0.5-1c0.9-1.7,1.5-3.6,2.5-5.2
			c0.2-0.3,0.4-0.6,0.5-0.9c0.2-0.4,0.2-0.4,0-1.1c-0.3,0.3-0.6,0.7-1,1.1c0-0.4-0.1-0.8,0-1c0.4-0.9,0.9-1.7,1.3-2.6
			c0.6,0.6,0.6,0.6-0.2,1.2c0.4,0.4,0.6,0.4,0.6,0c0.2-1.1,1.1-1.8,1.4-2.9c0-0.1,0.2-0.2,0.2-0.2c0.6,0.2,0.7-0.3,0.8-0.6
			c0.2-0.3,0.3-0.7,0.6-1.2c-0.7,0.2-1.2,0.3-1.7,0.4c-1.2,0.2-2,1.1-3.1,1.5c-0.9,0.4-1.7,0.6-2.7,0.6c-0.6,0-1.2,0-1.8,0
			c-1.2,0-2.3,0-3.4,0.3c-0.4,0.1-0.9,0.3-1.4-0.1c0.6-0.8,1.8-0.5,2.3-1.4c-0.5-0.1-0.5-0.1-1.2,0.1c0.2-0.7,0.4-1.4,1-2
			c1.1-1.1,1.7-2.4,2.1-3.9c0.1-0.4,0.3-0.8,0.7-1.1c0.7-0.5,1.2-1.2,1.7-1.8c0.3-0.3,0.6-0.7,0.8-1.1c0.4-0.7,1-1.1,1.7-1.5
			c0.4-0.2,0.8-0.5,1-0.9c0.4-0.6,1.1-1,1.9-1.2c0.3-0.1,0.7-0.1,0.9,0.1c0.7,0.5,1.3,0.4,1.9-0.2c0,0,0.2,0,0.3-0.1
			c0.1,1,0.8,1.2,1.7,1.3c1.6,0.2,3.1,0.5,4.7,0.8c0.1,0,0.2,0,0.2,0.1c0.5,0.6,1.2,0.5,1.9,0.3c0.4-0.1,0.8-0.1,1.2,0
			c1.1,0.1,2.1,0.4,3.2,0.4c0.5,0,0.8,0.3,1.2,0.4c0.1,0,0.1,0.2,0.1,0.3c0,0.3,0.2,0.3,0.4,0.2c0.2-0.1,0.4-0.3,0.7-0.5
			c0.1,0.2,0.3,0.4,0.5,0.5c0.5,0.4,1,1,1.8,0.6c0.3-0.1,0.8,0.1,1.1,0c0.4-0.1,0.7,0,1,0.3c0.2,0.1,0.5,0.1,0.7,0.1
			c0.4-0.1,0.8-0.2,1.1,0.1c0.3,0.3,0.5,0.1,0.7-0.1c0.3-0.3,0-0.5-0.1-0.7c-0.1-0.1-0.2-0.2-0.4-0.2c-0.9-0.1-1.6-0.5-2.3-1
			c-0.1,0-0.1-0.1-0.2-0.1c-1.2-0.4-2-1.3-2.9-2.1c-0.9-0.8-1.8-1.7-2.7-2.5c-1.2-1.1-2.7-1.9-4.3-2.3c-0.5-0.1-1.1-0.1-1.6,0.1
			c-1.1,0.4-2.2,0.5-3.4,0.2c-1.3-0.3-2.5,0-3.7,0.5c-0.3,0.1-0.6,0.3-0.8,0.4c-0.2-0.3,0-0.5,0.1-0.7c0.4-0.5,0.7-1,1.2-1.5
			c0.7-0.7,1-1.5,1.4-2.3c0.1-0.2,0.1-0.4,0.2-0.5c1.1-1.4,2.2-2.9,3.9-3.8c1.1-0.5,1.9-1.5,2.7-2.4c0.3-0.4,0.5-1,0.8-1.5
			c0.1-0.2,0.1-0.5,0.4-0.5c0.5,0,0.9-0.5,1.4-0.2c0.4,0.2,0.9,0.3,1.4,0.4c0.4,0,0.8,0.3,1.2,0.5c1.8,1.2,3.6,2.5,5.1,4.2
			c0.4,0.4,0.7,0.8,1.4,0.9c0.2,0,0.4,0.3,0.5,0.4c0.4,0.5,0.9,1,1.3,1.6c0.3,0.3,0.5,0.7,0.7,1.1c0.3,0.5,0.5,1,1.3,0.8
			c0.2,0,0.5,0.1,0.6,0.3c0.7,1.6,2.1,2.2,3.6,2.8c0.2,0.1,0.5,0.2,0.8,0.4c-0.2,0.4-0.5,0.5-0.8,0.5c-0.6,0.2-1,0.4-1.3,1
			c-0.1,0.2-0.4,0.4-0.6,0.6c-0.7,0.7-1.4,1.5-1.9,2.4c-0.1,0.3-0.4,0.6-0.6,0.7c-0.8,0.3-1.3,0.8-1.8,1.5c0.4,0.3,0.9,0.6,1.5,0.5
			c0.8,0.4,1.5,0.1,2.3,0.1c0.7,0,1.4-0.2,2.1-0.4c0.5-0.1,1.1-0.3,1.6-0.5c0.7-0.2,1.5-0.5,2.1-1c0.7-0.6,1.5-0.9,2.5-1.1
			c1.2-0.2,2.3-0.7,3.5-1c0.1,0,0.2,0,0.3,0c-0.1,0.2-0.1,0.5-0.2,0.6c-1,0.9-1.5,2.2-2.8,2.9c-0.3,0.2-0.5,0.7-0.7,1.1
			c0.6,0.3,0.1,0.7,0,1c-0.1,0.4-0.3,0.7-0.4,1.1c-0.3,1.3-1.2,2.2-2.1,3c0,0-0.1,0.1-0.1,0.1c-0.3,1-1.2,1.3-2,1.8
			c-0.2,0.2-0.4,0.4-0.7,0.6c0.1,0.1,0.2,0.1,0.2,0.1c0.4,0,0.9-0.5,1.2-0.1c0.3,0.4,0.4,0.9,0.5,1.4c0,0.3-0.1,0.6-0.2,0.9
			c-0.2,0.4-0.4,0.7-0.3,1.1c0.5,0.1,0.9,0,1.3-0.2c0.8-0.4,1.5-0.8,2.3-1.2c0.4-0.2,0.6-0.5,0.7-1c0.2-1.3,0.4-2.6,0.8-3.9
			c0.3-1.1,0.8-2.1,1.9-3c-0.1,0.4-0.2,0.6-0.3,0.7c-0.6,0.9-0.7,2-0.9,3.1c0,0.1,0,0.2,0,0.2c0.2,0.4,0.5,0.7,0.4,1.1
			c-0.1,0.4-0.1,0.8-0.2,1.2c0,0.4,0,0.9-0.1,1.3c0,0.1,0,0.2,0,0.2c0.2,0.8-0.2,1.6-0.6,2.2c-0.2,0.3-0.4,0.6,0,1
			c0.1,0,0.1,0.1,0.1,0.2c0,0.6-0.8,1.4-1.4,1.4c-0.6,0-1.1,0.2-1.6,0.3c-0.1,0-0.3,0-0.7,0c0.6,0.4,1.1,0.6,1.5,0.8
			c0.8,0.5,1.1,1.1,0.9,2c-0.1,0.4-0.2,0.7-0.6,0.8c-0.2,0.1-0.3,0.2-0.5,0.3c-0.7-0.2-1.1-0.9-1.4-1.5c-0.3-0.5-0.5-1.1-0.9-1.5
			c-0.1-0.1-0.1-0.3-0.2-0.5c-0.3,0-0.5,0.1-0.7,0.1c-0.3,0-0.5,0.1-0.6,0.5c0,0.2-0.2,0.3-0.4,0.4c-0.1,0.1-0.4-0.3-0.4,0.1
			c0,0.1,0.2,0.4,0.3,0.4c0.5,0.2,0.3,0.5,0.4,0.8c0.2,0.5,0.6,1,1,1.4c0.4,0.4,0.7,0.9,0.8,1.4c0.2,0.8,0.6,1.6,1.1,2.2
			c0.3,0.3,0.5,0.7,0.6,1.2c0,0.2,0.2,0.4,0.4,0.6c0.8,1.1,0.8,2.3,0.2,3.5c-0.3,0.7-1,1.1-1.6,1.3c-0.7,0.2-1.1,0.6-1.4,1.2
			c-0.5,0.9-1,1.8-1.5,2.7c-0.1,0.2-0.1,0.4-0.2,0.6c-0.1,0.3-0.1,0.6-0.3,0.7c-0.6,0.6-0.8,1.4-1.5,2c-0.1,0.1-0.2,0.3-0.4,0.5
			c-0.5,0.8-1.2,1.1-2.1,0.9c-0.3-0.1-0.5-0.1-0.8-0.1C99.6,153.7,99.5,153.9,99.5,153.9c-0.6-0.3-1.2-0.2-2,0
			c0.2,0.2,0.3,0.3,0.4,0.4c0.1,0.1,0.2,0.1,0.3,0.1c0.1,0,0.2,0,0.3-0.1C98.8,154.2,99.1,154.1,99.5,153.9z M93.4,153.1
			c0.4-0.3,0.8-0.5,1.3-0.1c0.3,0.2,0.7,0.1,1,0.2c0.3-0.5,0.3-0.9,0.3-1.3c0-0.3,0-0.6-0.3-0.7c-0.2,0-0.4,0.1-0.6,0.3
			c-0.3,0.2-0.6,0.4-0.9,0.6C93.8,152.3,93.5,152.7,93.4,153.1c-0.2,0.3-0.3,0.6-0.6,0.8c-0.4,0.3-0.4,0.7-0.2,1.3
			C93.2,154.5,93.4,153.8,93.4,153.1z M89.1,121.1c-0.4-0.1-0.8-0.2-1.3-0.3c-0.1,0-0.3,0-0.4,0c-1,0.4-1.8,1.2-2.8,1.6
			c-0.1,0.1-0.2,0.2-0.3,0.3c-0.1,0.2-0.3,0.4-0.4,0.6c-0.2,0.2-0.5,0.2-0.7,0.4c0.1,0.2,0.1,0.3,0.2,0.5c-0.2,0-0.4,0-0.5-0.1
			c-0.5-0.2-0.8-0.1-1.1,0.3c-1.1,1.1-1.6,2.1-1.9,3.9c0,0.1-0.1,0.2-0.2,0.3c-0.2,0.2-0.5,0.5-0.7,0.7c0.3,0.2,0.6,0.4,0.9,0.6
			c0.1,0.1,0.3,0.1,0.4,0.1c0.4-0.2,0.9-0.4,1.2-0.7c0.2-0.2,0.1-0.6,0.2-0.9c0-0.1,0-0.2,0.1-0.3c0.2-0.8,0-1.4-0.5-2
			c0.2-0.1,0.5-0.2,0.6-0.3c0.3-0.2,0.5-0.3,0.9-0.3c0.7-0.1,0.9,0.3,1.3,0.7c0.3,0.4,0.4,0.8,0.2,1.2c-0.1,0.4-0.3,0.8-0.2,1.2
			c1.3,0.2,2.1-0.8,2.1-1.7c0-0.6-0.1-1.3-0.3-1.9c-0.3-0.7-0.3-1.4-0.3-2.1c1.1-0.4,2.1-0.8,3.1-1.2
			C88.9,121.4,89.1,121.3,89.1,121.1c0.2,0,0.4,0.1,0.5,0.1c0.2,0,0.5-0.1,0.5-0.4c0-0.3-0.3-0.3-0.6-0.3
			C89.3,120.5,89.1,120.7,89.1,121.1z M149.4,145.6c0.1,0,0.2,0.1,0.3,0.1c0,0.1,0,0.3-0.1,0.3c-0.7,0.2-0.5,1.1-1.1,1.3
			c0,0,0,0.2,0.1,0.3c0.1,0.3,0.1,0.7,0.2,1c0.1,0.3,0.1,0.6,0,0.9c-0.2,0.6-0.3,1.1,0,1.7c0.1,0.2,0,0.4,0,0.6
			c-0.1,1-0.1,2.1-0.4,3c-0.1,0.4,0.2,1.1-0.5,1.2c0,0,0,0.2,0,0.2c0.6,0.1,0.2,0.7,0.5,0.9c-0.3,0.5,0,1,0,1.5
			c0,1.2,0.1,1.2,1.2,1.4c0.2,0,0.4,0,0.6,0c-0.2-1.1,0.6-1.6,1.2-2.3c-0.6-0.6-0.6-0.6-0.4-1.5c0.1-0.5,0.2-1.1,0.1-1.7
			c-0.1-0.5,0-1,0.1-1.5c0-0.4,0.1-0.9,0-1.3c-0.1-0.4-0.1-0.7,0.2-1c0.3-0.3,0.2-0.6,0.2-1c-0.1-0.9-0.6-1.7-0.4-2.7
			c0-0.2-0.1-0.5-0.1-0.7c-0.4-0.1-0.8-0.1-1.3-0.2c0.2-0.5,0.3-0.9,0.4-1.3c-0.2,0-0.5,0-0.7,0
			C149.4,145.2,149.5,145.4,149.4,145.6c-0.5-0.1-1,0.2-1.4,0.5c-0.2,0.1-0.2,0.4,0,0.5c0.1,0.2,0.5,0.1,0.5,0
			c-0.1-0.3,0.1-0.5,0.2-0.6C148.9,145.9,149.2,145.7,149.4,145.6z M93.7,138.3c0.2-0.1,0.4-0.1,0.6-0.2c0.7-0.5,1.3-1.1,2-1.7
			c0,0,0.1-0.1,0.1-0.1c-0.5-0.5,0.2-0.6,0.3-0.8c0.3-0.4,0.7-0.8,1-1.1c-0.3-0.5-0.5-0.9-0.7-1.3c-0.3-0.6-0.1-1.3,0-1.9
			c0.1-0.3,0.2-0.7,0.2-1c-0.1-0.3,0-0.6,0.1-0.9c0.2-1,0.4-1.9,1-2.8c0.3-0.5,0.2-0.7-0.3-1.1c-0.8-0.7-1.6-1.1-2.6-1.4
			c-0.5-0.1-0.9-0.3-0.9-0.9c0-0.4-0.3-0.6-0.6-0.6c-0.6-0.1-1-0.4-1.3-0.9c0.2-0.1,0.3-0.2,0.5-0.2c-0.6-0.4-1.2-0.1-1.9,0
			c0.3,0.2,0.5,0.5,0.7,0.5c0.8,0,0.8,0.6,0.8,1.1c0.1,0.5,0,1-0.5,1.3c-0.4,0.2-0.8,0.6-0.8,1.3c0.2,0,0.4-0.1,0.6-0.1
			c1.1-0.2,2.1-0.3,3.2-0.5c0.4-0.1,0.6,0.1,0.7,0.4c0.2,0.4,0.2,0.8-0.1,1.2c-0.2,0.2-0.3,0.6-0.4,0.9c-0.1,0.2-0.1,0.5-0.3,0.6
			c-0.5,0.4-0.3,0.8-0.3,1.3c0,0.2,0.1,0.4,0,0.5c-0.3,0.5-0.7,1.1-1.1,1.5c-0.4,0.3-1,0.4-1.5,0.7c-0.1,0-0.2,0-0.2,0.1
			c-0.4,0.2-0.5,0.4-0.5,0.8c0,0.3,0.4,0.5,0.2,0.9c-0.2,0.4-0.1,0.8,0.2,1.1c0.1,0.1,0.2,0.4,0.1,0.5c-0.4,0.5-0.1,1.1-0.3,1.6
			C92.2,137.6,93.2,137.4,93.7,138.3z M72.1,145.3c0.4,0,0.8,0.1,1.1,0c0.7-0.3,1.4-0.6,2.1-1.1c0.9-0.6,1.9-1,2.9-1.5
			c0.3-0.1,0.6-0.1,0.9-0.1c1.3,0,1.3,0.2,1.3-1.4c0-0.3,0-0.6-0.1-0.8c-0.3-0.8-0.1-1.5,0.4-2.1c0.3-0.3,0.5-0.6,0.3-1.1
			c-0.3,0.2-0.6,0.3-0.8,0.5c-0.1,0.1-0.4,0.2-0.4,0.2c-0.5-0.4-0.9,0.1-1.3,0.1c-0.3,0-0.5,0.2-0.7,0.6c-0.2,0.4-0.6,0.8-0.9,0.9
			c-0.5,0.1-0.8,0.4-1.1,0.7c-0.4,0.4-0.5,1-1.3,1c-0.2,0-1.2,1.7-1.1,1.9c0.1,0.4-0.1,0.6-0.2,0.9c-0.1,0.3-0.2,0.7-0.3,1
			c-0.2-0.2-0.3-0.4-0.5-0.5C72.3,144.7,72.2,145,72.1,145.3z M94.4,148.3c0.5-0.4,0.8-0.8,1.1-0.9c0.5-0.1,0.9-0.2,0.9-0.8
			c0.7-0.5,1.3-1.1,2-1.5c0.8-0.3,1.2-0.9,1.4-1.6c0-0.1,0.1-0.2,0.2-0.3c0.8-1.3,0.9-2.8,1.3-4.2c0.2-0.5-0.3-1.1-0.9-0.9
			c-0.3,0.1-0.5,0.1-0.8,0.2c-0.8,0.3-1.6,0.6-2.3,0.9c-0.2,0.1-0.4,0.2-0.6,0.4c-0.5,0.6-0.9,1.1-1.3,1.7c-0.2,0.3-0.2,0.5,0.1,0.8
			c0.3-0.6,1.1-0.4,1.4-1c0,0,0.2-0.1,0.3,0c0.2,0.1,0.4,0.1,0.5-0.1c0.1-0.1,0.3-0.3,0.5-0.3c0.2-0.1,0.5,0.1,0.7,0
			c0.2-0.1,0.3-0.3,0.5-0.6c0.3,1.8-0.1,2.4-1.6,3.1c-0.9,0.4-1.7,0.9-2.5,1.3c-0.2,0.1-0.5,0.4-0.5,0.6
			C94.7,146.1,94.6,147.1,94.4,148.3z M158.2,146.7c-0.1,0.4-0.1,0.7-0.2,1.1c0,0.5-0.1,1,0.1,1.5c0.2,0.5-0.5,1-0.5,1.5
			c0,0.2,0.1,0.5,0.1,0.7c-0.1,0.5,0.4,1-0.1,1.4c-0.4,1.7-0.7,3.4-1.1,5.1c-0.1,0.4-0.2,0.8,0,1.2c0.2,0.4,0.1,0.6-0.3,0.8
			c-0.2,0.1-0.2,0.4,0.1,0.5c0.3,0.1,0.6,0.1,0.8-0.1c0.2-0.2,0.4-0.5,0.5-0.8c0.2-0.4,0.4-0.9,0.6-1.3c0.5-1,0.8-2,0.9-3.1
			c0.2-1.3,0.3-2.7,0.5-4c0-0.3,0.1-0.6,0.5-0.6c0.3,0,0.2-0.3,0.2-0.4c-0.2-1.1-0.5-2.2-0.7-3.4
			C159.2,146.7,158.7,146.7,158.2,146.7z M143,130.5c0.6,0.3,1.1,0.6,1.7,0.9c0.1,0.1,0.3,0.1,0.5,0c0.3-0.1,0.6-0.2,0.9-0.3
			c1.3-0.5,2.5-1,3.8-1.5c0.5-0.2,1.2-0.2,1.5-0.8c0-0.1,0.3-0.1,0.4-0.1c0.3-0.1,0.5-0.1,0.8-0.3c0.4-0.3,0.8-0.6,1.2-0.9
			c0-0.1,0-0.2,0-0.3c-0.1-0.2-0.2-0.4-0.3-0.5c-0.2-0.4-0.4-0.4-0.8-0.3c-0.6,0.3-1.1,0.5-1.7,0.8c0.1,0.1,0.2,0.2,0.3,0.2
			c-0.1,0.1-0.2,0.2-0.3,0.3c-0.1,0-0.2,0.1-0.2,0c-0.5-0.3-1.1-0.1-1.6-0.1c-0.7,0-1.3,0.2-2,0.3c-0.8,0.1-1.4,0.3-1.9,0.8
			c-0.1,0.1-0.3,0.1-0.4,0.2c-0.4,0.1-0.7,0.4-1,0.6C143.5,129.8,143.3,130.1,143,130.5z M141.7,161.1c0.9-0.1,1.7-0.4,2.5-0.2
			c0.1,0,0.2,0,0.2-0.1c0.1-0.1,0.2-0.1,0.2-0.2c-0.1-0.1-0.2-0.2-0.2-0.2c-0.4,0-0.9,0.3-1.2-0.4c0,0-0.3,0-0.4,0
			c-0.1,0-0.3,0-0.3-0.1c-0.1-0.2-0.2-0.5-0.4-0.7c-0.1-0.2-0.5-0.1-0.6-0.4c-0.1-0.3-0.2-0.6,0.1-0.9c0.1-0.1,0.1-0.4,0.2-0.5
			c0-0.1,0.1-0.2,0.2-0.2c0.6,0.1,0.5-0.4,0.5-0.7c0-0.2-0.1-0.3-0.3-0.2c-0.1,0-0.2,0-0.3,0.1c0.1-0.1,0.1-0.2,0.2-0.3
			c0.7-0.4,0.7-0.5,0.4-1.2c-0.2,0.2-0.3,0.3-0.7,0.7c0.3-0.9,0-1.6,0.9-1.9c0.1,0,0.1-0.3,0.1-0.4c0-0.3-0.3-0.1-0.4-0.2
			c-0.2-0.7-0.2-1.3,0.2-1.9c0.1-0.2,0.1-0.5,0.1-0.7c0-0.4-0.2-0.5-0.5-0.4c-0.7,0.3-1.4,0.6-2.1,1c-0.7,0.3-0.7,0.5-0.5,1.2
			c0.2,0.7,0.5,1.4,0.7,2.2c0.1,0.3,0.2,0.6,0.2,0.9c0,0.7,0,1.3,0,2c0,0.3,0.1,0.6,0.3,0.9C141.2,159.2,141.7,160,141.7,161.1z
			 M147.7,136.7c0.1,0.1,0.2,0.1,0.2,0.2c0.3,0.4,0.5,0.4,0.7,0.1c0.3-0.3,0.6-0.6,0.6-1.1c0.1-0.5,0.3-1.1,0.4-1.6
			c0.1-0.4,0.2-0.8,0.1-1.3c-0.5,0.3-0.8,0.5-1.2,0.7c-0.7,0.5-1.4,1-2.1,1.6c-0.8,0.7-1.6,1.4-2.4,2.2c-0.3,0.3-0.5,0.7-0.3,1.2
			c0.3,0.5,0.5,1.1,0.8,1.6c0.9-0.3,1.7-0.8,2.3-1.5c0.5-0.5,0.8-1.1,0.5-1.9C147.6,137,147.6,136.9,147.7,136.7z M88.4,139.5
			c-0.3-0.6-0.7-1.1-1-1.7c-0.5-0.8-0.9-1.7-1.4-2.5c-0.2-0.4-0.6-0.5-1.2-0.3c-0.4,0.1-0.5,0.4-0.5,1c0.2-0.2,0.4-0.3,0.6-0.5
			c0.2,0.9-0.1,1.6-0.3,2.3c-0.6,1.6-0.2,3.2-0.2,4.9C86,141.8,87.3,140.6,88.4,139.5z M87.7,152.7c0.2,0,0.4,0.1,0.6,0.1
			c0.9-0.3,1.6-1,2.3-1.6c0.1-0.1,0.1-0.3,0.2-0.4c0.3-1,0.5-2,0.8-3c0-0.1,0.1-0.3,0-0.5c0-0.1-0.2-0.3-0.3-0.1
			c-0.1,0.2-0.3,0.3-0.5,0.4c-0.3,0.2-0.7,0.4-0.9,0.7c-0.8,1.1-1.8,1.9-2.8,2.7c-0.6,0.4-0.6,0.8-0.3,1.5
			C87,152.8,87.3,152.8,87.7,152.7z M115.7,159c-0.3,0.6-0.4,0.6-0.2,0.8c0.4,0.5,0.6,1,1.1,1.4c0.9,0.6,1.8,1.3,2.9,1.5
			c0.4,0.1,0.7,0.3,1.1,0.4c0.5,0.2,1.2,0,1.4-0.5c0-0.1,0-0.2-0.1-0.3c-0.1-0.1-0.2-0.1-0.3-0.2c-0.8-0.2-1.5-0.3-2-1
			c-0.1-0.2-0.4-0.2-0.7-0.3c0.2-0.1,0.3-0.2,0.4-0.3c-0.3-0.5-0.6-0.7-1.2-0.8C117.3,159.6,116.5,159.3,115.7,159z M98.9,124.7
			c0.7,0.8,1.3,1.5,1.8,2.1c0.1,0.1,0.2,0.2,0.3,0.2c0.8,0.2,1.7,0.3,2.5,0.1c0-0.5,0-0.8-0.3-1.2c-0.4-0.5-0.2-0.8,0.4-1.2
			c0.3-0.2,0.5-0.3,0.5-0.7c-1.2-0.2-1.5-0.2-2.5,0.2c-0.3,0.1-0.5,0.2-0.8,0.2C100.3,124.6,99.7,124.6,98.9,124.7z M97.5,138.4
			c1.3-0.4,2.1-0.9,2.8-1.8c0.1-0.2,0.4-0.3,0.7-0.4c0.6-0.2,1-0.5,1.4-0.9c0.2-0.2,0.3-0.9,0.2-1.1c-0.4-0.5-1-0.7-1.5-0.4
			c-0.3,0.1-0.7,0.3-0.9,0.6c-0.7,0.6-1.3,1.4-1.7,2.3c-0.1,0.1-0.1,0.2-0.1,0.3c0.1,0.2,0.2,0.3,0.3,0.5c-0.2,0.1-0.4,0.1-0.5,0.2
			C97.9,137.7,97.8,138,97.5,138.4z M92,142.6c-0.3,0.2-0.5,0.3-0.7,0.4c-0.9,0.9-2.1,1.4-2.6,2.6c-0.8,0.8-1.6,1.5-2.4,2.2
			c-0.1,0.1-0.3,0.2-0.1,0.4c0.1,0.1,0.3,0,0.4,0c0.8-0.5,1.6-1,2.4-1.6c0.3-0.2,0.7-0.4,1-0.7c0.4-0.3,0.7-0.6,1.2-0.8
			c0.6-0.2,0.8-0.6,1.1-1C92.5,143.7,92.2,143.2,92,142.6z M102.1,132.4c0.3,0.2,0.7,0.3,0.7,0.8c0,0.3,0.2,0.3,0.4,0.2
			c0.1,0,0.3-0.1,0.4-0.2c0.3-0.2,0.4-0.6,0.2-1.1c-0.2-0.4-0.5-0.3-0.8-0.2C102.8,132.1,102.4,132,102.1,132.4z M71.8,144.8
			c0.3-0.5,0.8-1,0.5-1.8c-0.3,0.2-0.7,0.3-0.8,0.7C71.4,144.2,71.6,144.4,71.8,144.8z M89.8,119.4c-0.3-0.1-0.6-0.2-0.9-0.3
			c-0.4-0.1-0.5,0.1-0.5,0.5c0,0.1,0,0.2,0.1,0.4C89,119.9,89.5,120.1,89.8,119.4z M155.2,160.4c-0.7-0.5-1.2-0.5-1.9-0.1
			c0.3,0,0.4,0.1,0.6,0.1C154.3,160.4,154.7,160.4,155.2,160.4z M73.4,125.5c-0.5,0.5-0.6,0.9-0.5,1.4c0,0,0.1,0,0.1,0
			c0.4-0.2,0.2-0.6,0.4-0.9C73.5,125.9,73.4,125.8,73.4,125.5z M76,164.4c0.3,0.1,0.5,0.1,0.8,0.2c0.1,0,0.2-0.1,0.2-0.1
			c0,0,0-0.2-0.1-0.2C76.6,164.2,76.3,163.9,76,164.4z M109.8,150.9c0.1,0.1,0.2,0.2,0.3,0.2c0.1,0,0.2,0,0.3,0c0,0,0.1-0.2,0-0.2
			c-0.1-0.1-0.2-0.1-0.3-0.1C110.1,150.8,110,150.9,109.8,150.9z"/>
		<path d="M140.5,124.8c-0.7,0.8-1.6,1.4-2.5,2c-0.3,0.2-0.5,0.4-0.4,0.9c0.1,0.6-0.4,1.3-1.1,1.3c-1,0-1.5,0.7-1.9,1.3
			c-0.1,0.2-0.2,0.4-0.3,0.6c0,0.3,0.6,0,0.4,0.4c-0.2,0.4-0.6,0.7-0.9,1c-0.1,0.1-0.2,0.1-0.3,0.1c-0.5-0.3-0.9,0.2-1.3,0.3
			c-0.3,0.1-0.3,0.4-0.1,0.7c0.4,0.6,0.4,0.6,0,0.9c-0.4,0.4-0.7,0.9-1.4,0.8c-0.1,0-0.4,0.2-0.5,0.3c-0.3,0.5-0.7,0.8-1.3,0.9
			c0.4,0.9-0.5,1-0.8,1.6c-0.9,0.1-1.8,0.6-2.8,0.1c-0.1-0.1-0.3-0.1-0.4-0.2c-0.7-0.6-1.5-1.1-2.2-1.7c-0.3-0.3-0.7-0.5-1-0.9
			c-0.2-0.3-0.5-0.4-0.9-0.5c-0.5-0.1-0.9-0.6-1.4-0.7c-0.5-0.2-0.9-0.5-1.2-0.9c-0.2-0.3-0.5-0.5-0.8-0.6c-0.5-0.2-1-0.5-1.5-0.8
			c-0.5-0.3-1.1-0.3-1.7-0.5c-0.5-0.1-0.9,0-1.3-0.4c1.1-0.6,2.3-0.7,3.5-1.2c1.8-0.8,3.5-1.6,5-2.7c0.4-0.3,0.8-0.6,1.1-1
			c0.9-1.2,2-2.2,3.1-3.2c1-0.8,1.9-1.8,2.6-2.9c0.4-0.6,0.8-1.2,1.2-1.8c0.4-0.6,0.7-1.3,1-1.9c0.3-0.5,0.5-1.1,0.7-1.6
			c0.7-1.5,1.8-2.5,3.2-3.3c0.1,0,0.1,0,0.3,0c-0.1,0.3-0.3,0.6-0.4,0.8c-0.3,0.4-0.5,0.8-0.8,1.2c-0.2,0.4-0.4,0.8-0.3,1.3
			c0,0.4,0.1,0.8,0.5,1c0.4,0.2,0.8,0.3,1.2-0.1c0.4-0.3,0.8-0.5,0.9-1.1c0.1-0.3,0.4-0.5,0.6-0.7c0.8-0.6,1.5-1.3,2.1-2.1
			c0.2-0.4,0.7-0.2,0.9-0.4c0.5-0.6,1.2-0.7,1.7-1.3c0.9-0.9,1.8-1.8,2.7-2.7c0.6-0.6,1.2-1.3,2.1-1.5c0.2-0.1,0.5-0.3,0.7-0.5
			c0.7-0.7,1.3-1.5,2-2.2c0.2-0.3,0.5-0.5,0.8-0.7c0.9-0.7,1.9-0.5,2.8-0.4c0.5,0.1,0.9,0.2,1.4,0.4c0.4,0.2,0.8,0.3,1,0.8
			c0.1,0.3,0.4,0.5,0.7,0.7c1.8,1.3,3.2,3,4.5,4.7c0.3,0.4,0.3,0.9,0.5,1.3c0.1,0.3,0.1,0.6,0.3,0.8c0.6,0.6,0.9,1.3,1.4,1.9
			c0.1,0.1,0.1,0.1,0.1,0.2c0.2,0.3,0.3,0.7,0.5,1c0.2,0.3,0.5,0.6,0.9,0.8c0.6,0.4,1.1,0.9,1.6,1.4c1.6,1.4,3.3,2.8,5,4.2
			c0.9,0.8,1.9,1.5,2.8,2.2c0.1,0,0.1,0.1,0.2,0.1c0.2,0.1,0.4,0.1,0.5-0.1c0.1-0.1,0.1-0.4,0-0.5c-0.5-0.5-1-1.1-1.7-1.4
			c-0.1,0-0.2-0.1-0.3-0.1c-0.8-0.3-1.3-0.8-1.4-1.7c0.3,0.2,0.5,0.4,0.7,0.5c0.5,0.3,1,0.5,1.4,0.8c0.6,0.3,1.3,0.6,1.9,1.1
			c1.3,1,2.6,2.2,3.8,3.3c0.3,0.3,0.6,0.5,0.8,0.9c0.8,1.4,2.1,2.3,3.1,3.5c0.5,0.5,1.1,0.7,1.7,0.9c0.7,0.3,1.4,0.8,1.9,1.3
			c0.7,0.8,1.7,1.2,2.6,1.7c0.1,0,0.2,0.1,0.2,0.1c0.9-0.1,1.5,0.5,2.2,0.8c1.9,1.1,3.8,1.8,5.9,2.3c0.2,0,0.3,0.1,0.6,0.2
			c-0.3,0.1-0.4,0.2-0.5,0.3c-2.3,0.6-4.4,1.4-6.6,2.3c-0.4,0.2-0.9,0.3-1.3,0.5c-0.2,0.1,0.5,0.2,0.1,0.4c-0.3,0.1-0.7,0.1-1.1,0.2
			c-0.2,0-0.4-0.1-0.6,0c-0.6,0.3-1.1,0.3-1.7,0c-0.1,0.4-0.1,0.8,0.2,1c0.1,0,0.1,0.1,0.1,0.2c-0.5,0.1-0.6,0.5-0.6,0.9
			c-0.1,0.4-0.3,0.5-0.6,0.6c-0.7,0.4-1.4,0.4-2.1,0.9c-0.4,0.3-0.9,0.1-1.4-0.2c-1-0.6-2-1.2-3-1.8c-1-0.7-1.9-1.6-2.8-2.4
			c-0.5-0.4-0.9-0.9-1.4-1.3c-0.1-0.1-0.4-0.3-0.4-0.4c0.1-0.6-0.4-0.7-0.7-1c-0.6-0.7-1.3-1.3-1.9-2c-0.9-0.9-1.7-1.9-2.7-2.7
			c-1.3-1.1-2.6-2.4-3.8-3.6c-0.3-0.3-0.7-0.5-1-0.8c-0.4-0.4-0.9-0.7-1.2-1.1c-0.7-0.7-1.4-1.3-2-2.2c-0.4-0.5-1.1-0.8-1.3-1.5
			c-0.1-0.1-0.3-0.2-0.5-0.2c-0.5-0.1-1-0.4-1.3-0.8c-0.3-0.4-0.6-0.6-1-0.8c-0.5-0.2-0.9-0.5-1.3-0.8c-1.3-0.7-2.6-1.4-4-1.9
			c-0.3-0.1-0.6,0-0.9,0.1c-1,0.6-2,1.1-3,1.7c-1,0.6-2,1.3-3,1.9c-0.1,0.1-0.2,0.3-0.3,0.5c0,0,0,0,0,0c-0.5,0.2-1,0.4-1.5,0.7
			c-0.6,0.3-1,0.9-1,1.6C140.8,124.4,140.6,124.6,140.5,124.8z M143.9,108.1c0.1,0.1,0.1,0.1,0.2,0.2c0.4-0.4,0.9-0.7,1.1-1.3
			C144.8,107.3,144.3,107.7,143.9,108.1z M128.3,123.7c-0.1-0.1-0.1-0.1-0.2-0.2c-0.3,0.2-0.6,0.3-0.7,0.9
			C127.9,124.1,128.1,123.9,128.3,123.7z"/>
		<path d="M113.2,120.4c1.1-1,1.9-0.9,2.7,0c0.2,0.2,0.2,0.4,0.1,0.7c-0.3,1.2-0.6,2.3-0.8,3.5c-0.1,0.5,0,0.9,0,1.5
			c1-0.6,1.3-1.6,2-2.3c0.7-0.7,1.3-1.4,2.1-2.1c-0.2-0.2-0.3-0.3-0.5-0.5c-0.5-0.5-0.9-1.1-1.4-1.6c-0.6-0.8-1-1.8-1.9-2.4
			c0.3-0.2,0.6-0.1,0.8,0.1c0.5,0.5,1.1,1.1,1.5,1.7c0.6,0.9,1.3,1.7,2.3,2.2c0.5,0.3,0.5,0.4,0.2,1c-0.3,0.6-0.8,1-1.3,1.4
			c-1,0.9-2.1,1.5-2.6,2.8c-0.4,0.3-0.8,0.6-1.3,0.9c-0.2,0.1-0.5-0.1-0.8-0.2c-0.1-1.4-0.1-2.7,0.4-3.9c0.1-0.2,0.1-0.5,0.1-0.7
			C115,120.8,114.9,120.7,113.2,120.4z"/>
		<path d="M86.4,158.5c0.2,0,0.5,0,0.7,0c0.3,0.1,0.6,0.1,0.9,0.3c0.1,0,0.1,0.3,0.1,0.4c-0.1,0-0.2,0.1-0.3,0.1
			C87.3,159.1,86.8,158.9,86.4,158.5L86.4,158.5z"/>
		<path d="M198.1,154.4c-0.3,0.2-0.6,0.3-1.1,0.6C197.2,154.3,197.8,154.6,198.1,154.4z"/>
		<path d="M140.5,124.8c0.1-0.2,0.3-0.4,0.4-0.6c0.2-0.2,0.4-0.3,0.6-0.5C141.3,124.3,141.1,124.7,140.5,124.8z"/>
		<path d="M169.5,137.7c-0.2-0.4-0.4-0.7-0.6-1.1C169.3,136.8,169.6,137.2,169.5,137.7L169.5,137.7z"/>
		<path d="M68.2,134.6c-0.1,0.1-0.2,0.2-0.2,0.3c-0.1-0.1-0.2-0.2-0.2-0.2c0-0.1,0.1-0.2,0.2-0.2C68.1,134.4,68.1,134.5,68.2,134.6z
			"/>
		<path d="M95.2,130.8c0.1,0.2,0.1,0.3,0.1,0.3c-0.1,1,0.1,1.7,0.9,2.4c0.6,0.5,0,1.1-0.2,1.6c-0.1,0.5-0.6,0.6-1.1,0.5
			c-0.3-0.1-0.5-0.2-0.7-0.4c-0.8-0.7-0.9-1.7-1.2-2.7c-0.1-0.3,0.1-0.6,0.4-0.6C94.3,131.9,94.8,131.5,95.2,130.8z"/>
	</g>
</g>
</svg>
