<svg width="658" height="293" xmlns="http://www.w3.org/2000/svg" xmlns:xlink="http://www.w3.org/1999/xlink" overflow="hidden"><defs><clipPath id="clip0"><rect x="170" y="181" width="658" height="293"/></clipPath></defs><g clip-path="url(#clip0)" transform="translate(-170 -181)"><path d="M511.898 214C512.625 214.158 513.313 214.312 513.962 214.462L515.298 214.785 514.771 214.768C515.63 214.935 516.391 215.484 517.054 216.415 518.153 217.833 518.896 218.833 519.282 219.414 519.39 219.468 519.526 219.599 519.691 219.806 519.856 220.013 520.015 220.155 520.168 220.231 520.726 220.792 521.006 221.269 521.006 221.66 521.006 222.052 521.002 222.277 520.996 222.335L521.097 223.75C521.202 224.516 521.074 225.122 520.713 225.568 520.44 225.787 520.075 226.099 519.617 226.501 519.159 226.904 518.805 227.19 518.555 227.358 517.973 228.015 517.463 228.603 517.026 229.12L517.002 229.15 517.459 229.255C518.168 229.624 518.558 229.844 518.628 229.916 519.439 230.286 520.389 230.807 521.476 231.478 522.426 231.955 523.1 232.259 523.497 232.388 524.843 232.863 526.154 233.213 527.429 233.438 527.722 233.438 528.034 233.521 528.362 233.688 528.406 233.688 528.57 233.688 528.852 233.687 529.134 233.687 529.3 233.714 529.35 233.77 529.915 233.617 530.413 233.631 530.843 233.813L531.4 234.186 532.649 234.186C533.206 234.186 533.692 234.312 534.109 234.563 534.526 234.815 534.826 235.101 535.008 235.421 535.19 235.741 535.279 235.9 535.277 235.897 535.382 236.003 535.375 236.056 535.255 236.056 536.843 236.056 537.637 236.727 537.637 238.07 537.637 238.517 537.536 238.944 537.333 239.352 537.122 239.669 537.016 239.865 537.016 239.939 537.016 239.958 537.099 240.436 537.265 241.374 536.376 241.849 535.8 242.153 535.537 242.286 535.274 242.419 534.921 242.558 534.478 242.704L534.227 242.704 534.759 242.783 535.656 242.783C536.826 243.595 537.608 244.041 538.001 244.121 538.683 244.548 539.351 244.86 540.003 245.057 540.894 245.207 541.447 245.496 541.661 245.925 541.875 246.353 541.982 246.85 541.982 247.415L541.982 247.889C541.857 246.339 542.461 244.387 543.795 242.033 545.106 242.586 545.815 243.031 545.92 243.368 546.025 243.704 546.027 244.178 545.924 244.788 545.735 245.946 545.372 246.933 544.833 247.746 544.805 247.791 544.751 248.237 544.671 249.083 544.59 249.929 544.447 250.611 544.242 251.13 543.788 252.495 543.514 253.654 543.419 254.607 543.227 254.897 543.077 255.274 542.97 255.738 542.864 256.202 542.782 256.52 542.725 256.691 542.725 256.955 542.663 257.191 542.54 257.397 542.416 257.603 542.354 257.723 542.354 257.756 542.354 258.009 542.352 258.132 542.35 258.125 542.683 258.652 542.774 259.251 542.622 259.923 542.469 260.595 542.38 260.971 542.354 261.05 542.354 261.839 541.927 262.723 541.075 263.702 541.009 263.747 540.947 263.929 540.889 264.248 540.831 264.568 540.699 265.036 540.494 265.653L539.58 266.109C538.287 266.454 537.307 266.361 536.639 265.829 536.316 265.395 536.088 265.047 535.957 264.783 535.825 264.52 535.677 264.263 535.512 264.013 535.553 264.094 535.573 264.134 535.571 264.134 535.342 263.904 535.062 263.707 534.733 263.543 534.404 263.379 534.239 263.22 534.239 263.067 534.171 263.022 534.085 262.866 533.982 262.598L533.791 262.002 533.184 261.912C532.981 261.842 532.81 261.737 532.67 261.597 532.391 261.317 532.252 260.909 532.252 260.372 532.252 259.913 532.335 259.351 532.5 258.688 532.666 258.024 532.748 257.57 532.748 257.324L532.626 255.343C532.626 253.951 532.669 252.95 532.754 252.34L532.873 249.497C532.873 247.876 532.914 246.648 532.997 245.814 532.997 246.103 532.935 246.207 532.811 246.124 532.688 246.041 532.626 245.909 532.626 245.728 532.626 245.728 532.664 245.767 532.741 245.844 532.818 245.922 532.857 245.96 532.857 245.96 532.508 245.61 532.145 244.88 531.767 243.77L531.425 242.665 530.467 242.626C530.024 242.6 529.613 242.567 529.235 242.529L528.69 242.457 527.391 242.484C526.142 242.54 525.208 242.681 524.592 242.906L522.36 243.579C522.194 243.743 521.915 243.825 521.524 243.825L520.365 244.084 521.261 244.593 521.523 245.116 521.417 245.063C521.311 245.044 521.165 245.038 520.976 245.043 521.758 245.197 522.272 245.396 522.518 245.641 522.764 245.886 522.964 246.388 523.117 247.149L523.117 247.54C523.117 248.318 522.85 249.082 522.316 249.832 521.574 250.7 520.491 251.387 519.066 251.892 519.066 251.892 519.071 251.888 519.079 251.879 519.088 251.871 519.092 251.866 519.092 251.866 516.259 253.822 514.721 254.84 514.48 254.92 514.289 255.047 513.735 255.364 512.819 255.871 511.902 256.378 511.021 256.673 510.177 256.758L509.621 257.038C509.218 257.201 508.85 257.386 508.518 257.594 508.186 257.803 507.808 257.991 507.385 258.159L505.909 258.901C505.971 258.901 505.971 258.932 505.909 258.995 505.296 259.198 504.737 259.427 504.232 259.681 503.654 259.909 503.132 259.881 502.667 259.597 502.201 259.313 501.969 259.098 501.969 258.951L501.348 257.558C502.518 256.134 503.387 255.368 503.953 255.258 503.25 255.192 502.753 254.509 502.465 253.21 502.471 252.929 502.494 252.738 502.532 252.635 502.57 252.533 502.564 252.474 502.514 252.46L502.198 251.191C502.045 250.858 502.063 250.412 502.25 249.852 502.438 249.292 502.848 249.012 503.481 249.012L504.086 249.012C504.541 249.196 504.91 249.397 505.192 249.617L505.533 250.031 505.571 250.018C505.787 249.942 506.111 249.827 506.543 249.675 507.331 249.043 507.981 248.58 508.492 248.286 509.014 247.937 509.657 247.549 510.422 247.123 511.186 246.697 512.041 246.14 512.988 245.45 513.218 245.334 513.459 245.233 513.711 245.149 513.963 245.064 514.117 245.007 514.174 244.978L514.791 244.482 515.941 243.904 516.72 243.973 516.475 243.709C516.236 243.133 516.22 242.538 516.425 241.924 516.932 241.416 517.336 241.086 517.639 240.934L519.83 239.505C519.988 239.346 520.282 239.145 520.714 238.902L520.768 238.874 520.476 238.659C519.838 238.159 519.054 237.489 518.124 236.649L516.755 235.151C516.093 234.151 515.295 233.013 514.362 231.739L512.727 234.676 510.698 236.844C510.249 237.566 509.74 238.165 509.172 238.64L507.229 240.848C507.198 240.881 507.081 241.05 506.879 241.353 506.678 241.657 506.494 241.85 506.33 241.932 505.729 242.837 505.122 243.542 504.511 244.047 504.225 244.271 503.772 244.818 503.152 245.689 502.532 246.561 501.984 247.188 501.508 247.572L499.948 249.528 497.274 252.213 495.989 253.763 494.629 255.242C494.41 255.534 494.192 255.855 493.974 256.204 493.757 256.554 493.59 256.816 493.474 256.992L490.562 260.711C490.316 260.876 490.076 261.109 489.844 261.41 489.611 261.71 489.391 262.016 489.184 262.328 488.817 262.698 488.508 262.987 488.258 263.196 488.009 263.405 487.813 263.58 487.672 263.722L486.322 264.882 486.341 264.879 486.123 264.999C485.958 265.102 485.836 265.192 485.758 265.27 485.603 265.427 485.305 265.506 484.865 265.506 484.737 265.506 484.59 265.632 484.422 265.885L483.337 266.702C481.526 267.316 480.621 266.981 480.621 265.696 480.455 264.701 480.372 263.837 480.372 263.102 480.124 262.355 480 261.86 480 261.618 480 260.988 480.163 260.513 480.49 260.191 480.329 260.357 480.249 260.217 480.249 259.772 480.249 259.328 480.503 259.106 481.01 259.106L481.496 258.548C481.496 258.548 482.068 257.974 483.21 256.827 483.644 256.392 484.177 255.778 484.81 254.984L486.579 253.491C487.364 252.252 488.017 251.404 488.538 250.947L488.58 250.775C488.93 249.9 489.437 249.38 490.1 249.213L489.892 249.318C490.207 248.809 491.428 247.322 493.555 244.859 493.657 244.655 494.7 243.474 496.685 241.315 496.886 240.91 497.297 240.485 497.918 240.041L498.855 238.632C499.297 238.188 499.759 237.704 500.241 237.179 500.723 236.654 501.277 236.034 501.904 235.319L504.284 232.688 506.177 230.517 506.436 230.362C506.436 230.219 506.597 229.987 506.917 229.666 507.863 228.716 508.741 227.712 509.552 226.653 510.293 225.992 510.956 225.2 511.541 224.278L514.178 221.366 514.402 221.206 513.956 220.324C513.641 219.765 513.338 219.298 513.047 218.922 512.595 217.924 512.265 217.111 512.057 216.483 511.868 216.113 511.795 215.796 511.836 215.53 511.878 215.264 511.898 214.754 511.898 214ZM514.774 221.941 514.776 221.959C514.823 222.167 514.878 222.271 514.941 222.271L514.774 221.941ZM515.917 228.953C515.36 228.953 515.067 228.974 515.038 229.015 515.009 229.056 514.885 229.131 514.666 229.239L515.918 229.027 515.917 228.953ZM531.508 234.305 531.928 234.859C531.928 234.635 531.854 234.467 531.705 234.354L531.508 234.305ZM533.618 261.463C533.618 261.648 533.641 261.786 533.686 261.878L533.769 261.934 533.618 261.463Z" fill-rule="evenodd"/><path d="M552.363 214C553.693 214 554.424 214.394 554.556 215.183 554.497 215.153 554.544 215.234 554.697 215.423 554.85 215.613 554.853 215.684 554.706 215.636L555.721 215.636C555.981 216.148 556.221 216.443 556.442 216.523 556.663 216.602 556.783 216.642 556.802 216.642L557.789 216.642C559.093 216.859 559.745 217.496 559.745 218.553 559.745 219.002 559.54 219.639 559.131 220.465L559.493 220.465C559.661 219.661 559.745 219.61 559.745 220.315 559.745 220.716 559.703 221.087 559.619 221.427 559.535 221.768 559.522 222.03 559.579 222.211 559.69 222.794 559.703 223.405 559.619 224.043 559.535 224.682 559.493 225.202 559.493 225.601 559.493 226.589 559.535 227.379 559.62 227.971L559.62 232.989 559.472 237.367 559.365 239.61C559.365 241.83 559.323 243.484 559.238 244.572 559.238 247.807 559.276 250.1 559.351 251.45 559.266 252.459 559.247 253.359 559.294 254.15 559.342 254.941 559.365 255.513 559.365 255.866 559.45 256.959 559.493 258.59 559.493 260.758 559.661 264.623 559.745 267.252 559.745 268.646L559.745 271.793C559.745 273.157 559.779 274.105 559.846 274.64L560 278.569C560 278.918 559.958 279.428 559.873 280.1 559.788 280.771 559.745 281.401 559.745 281.987 559.745 282.264 559.682 282.654 559.555 283.156 559.429 283.659 559.365 284.15 559.365 284.632L559.365 286.141C559.365 286.586 559.238 286.935 558.983 287.187 558.728 287.44 558.644 287.524 558.73 287.438L558.638 287.803 557.368 289.689 557.221 289.689C556.927 290.271 556.195 290.91 555.025 291.608 554.62 291.723 554.251 291.789 553.919 291.805L553.152 291.718 552.788 291.904C552.44 291.991 552.027 292.019 551.549 291.988 550.595 291.926 550.001 291.664 549.768 291.203 549.826 291.26 549.809 291.274 549.717 291.245 549.625 291.216 549.495 291.201 549.327 291.201 548.64 290.808 548.029 290.48 547.496 290.217 546.963 289.953 546.538 289.741 546.22 289.579 545.396 289.214 544.601 288.757 543.834 288.207 543.066 287.657 542.496 287.271 542.125 287.049 541.789 286.883 541.305 286.644 540.672 286.329 540.039 286.015 539.53 285.716 539.145 285.431 538.544 285.008 537.807 284.569 536.933 284.115 536.06 283.662 535.292 283.162 534.629 282.617 534.415 282.331 534.129 282.07 533.772 281.834 533.415 281.598 533.082 281.327 532.773 281.021 532.573 280.822 532.096 280.474 531.344 279.978 530.592 279.481 530.144 278.339 530 276.553 531.918 276.553 533.278 276.686 534.081 276.952 534.618 277.306 535.551 277.731 536.883 278.227 537.368 278.467 538.036 278.756 538.888 279.095 539.74 279.433 540.707 279.891 541.789 280.47 543.692 281.073 544.964 281.445 545.605 281.588L547.766 281.588 547.766 279.794 548.274 276.917 548.148 276.037 548.274 273.718 548.148 272.144C548.148 271.445 548.233 270.761 548.401 270.091L548.401 269.891C548.316 269.458 548.295 269.095 548.337 268.801 548.38 268.508 548.359 268.059 548.274 267.453L548.401 267.327C548.316 267.36 548.274 267.045 548.274 266.381 548.274 266.069 548.284 265.803 548.306 265.584L548.355 265.317 548.021 264.306C547.936 263.873 547.894 263.39 547.894 262.857 547.894 262.47 547.936 262.235 548.021 262.152 548.106 262.068 548.148 262.093 548.148 262.227L548.148 260.842C548.148 260.581 548.106 260.283 548.021 259.949 547.936 259.614 547.894 259.157 547.894 258.576 547.894 258.129 547.936 257.758 548.021 257.466 548.106 257.173 548.148 256.956 548.148 256.814L548.148 255.052 548.148 253.166 548.148 251.696 548.274 249.984 548.148 246.336C548.317 245.817 548.401 245.45 548.401 245.235L548.401 244.858C548.401 243.622 548.359 242.603 548.274 241.801 548.443 240.974 548.528 239.853 548.528 238.439L548.528 236.174 548.528 233.403C548.698 231.893 548.783 230.843 548.783 230.252L548.716 229.464C548.506 229.245 548.486 228.641 548.656 227.652 548.656 227.673 548.571 226.978 548.401 225.565 548.571 225.161 548.656 224.96 548.656 224.96 548.571 224.512 548.571 223.994 548.656 223.407 548.741 222.82 548.783 222.356 548.783 222.017 548.867 221.731 548.887 221.375 548.846 220.948 548.804 220.522 548.783 220.143 548.783 219.812 548.783 219.542 548.707 219.359 548.555 219.264 547.708 219.096 546.346 218.429 544.467 217.264 544.467 216.061 544.746 215.183 545.304 214.63 546.175 214.63 546.838 214.609 547.293 214.567 547.749 214.526 548.272 214.547 548.862 214.63 549.448 214.63 549.813 214.615 549.957 214.585 550.515 214.31 551.317 214.115 552.363 214Z" fill-rule="evenodd"/><path d="M653.726 217 655.437 217.158 656.246 217.261C656.386 217.255 656.746 217.324 657.327 217.47 657.907 217.616 658.293 217.882 658.485 218.268 658.392 218.175 658.458 218.184 658.682 218.297 658.794 218.353 658.913 218.59 659.038 219.009L659.1 219.251 659.277 219.284C659.686 219.392 660.236 219.593 660.928 219.887L662.897 221.069C664.319 221.864 665.414 222.594 666.183 223.259 666.216 223.285 666.584 223.552 667.289 224.059 667.994 224.566 668.58 225.055 669.046 225.524 669.961 226.653 670.488 227.49 670.625 228.036 670.795 228.554 670.881 228.893 670.881 229.054 670.881 229.509 670.818 229.925 670.693 230.301 670.568 230.677 670.506 230.972 670.506 231.186L670.506 233.067 670.506 236.397 670.605 240.036C670.698 240.871 670.723 241.641 670.681 242.348 670.64 243.055 670.655 243.702 670.728 244.288L671.003 247.079 671.003 251.933C671.083 252.41 671.101 252.966 671.059 253.599 671.017 254.232 671.04 254.857 671.128 255.474 671.128 255.711 671.191 256.122 671.315 256.708 671.44 257.294 671.503 257.705 671.503 257.942L671.368 260.807C671.375 260.882 671.419 261.004 671.502 261.171 671.584 261.338 671.626 261.674 671.626 262.178 671.544 262.515 671.503 262.838 671.503 263.148 671.503 263.722 671.544 264.219 671.626 264.639 671.709 265.059 671.75 265.273 671.75 265.282L671.61 269.225 671.75 270.643 671.75 272.657C671.917 273.49 672 274.081 672 274.428 672 274.958 671.958 275.264 671.875 275.347 671.792 275.43 671.75 275.333 671.75 275.055L671.75 277.718 671.61 279.972 671.736 282.128 671.606 283.573 671.503 284.721C671.503 285.248 671.432 285.749 671.291 286.223 671.149 286.698 671.03 287.134 670.932 287.53L670.427 288.548C670.398 288.701 670.383 289.217 670.383 290.096 670.383 290.881 670.108 291.412 669.557 291.689 669.077 292.064 668.294 292.006 667.207 291.515 667.28 291.588 667.263 291.625 667.157 291.625L666.84 291.527 666.622 291.599C665.588 291.908 664.898 292 664.55 291.874L664.205 292 663.074 291.874C662.769 291.874 662.103 291.667 661.077 291.253L660.197 290.81 658.33 289.684 657.468 289.249C655.504 288.259 654.05 287.605 653.107 287.289 651.578 286.615 650.473 285.935 649.792 285.248 649.947 285.404 649.864 285.482 649.543 285.482 649.222 285.482 649.061 285.354 649.061 285.099 648.706 285.008 648.213 284.434 647.583 283.376 647.583 283.376 646.873 282.245 645.453 279.984 646.248 279.357 646.917 279.044 647.459 279.044 648.002 279.044 648.472 279.245 648.869 279.648 649.468 280.118 650.567 280.676 652.168 281.321 652.69 281.584 653.292 281.817 653.976 282.023L656.182 282.533 657.352 282.242C657.79 282.286 658.25 282.479 658.732 282.819 658.644 282.642 658.456 282.553 658.168 282.553L660.021 282.412 660.133 278.924 660.258 271.401 660.363 266.598 659.54 266.493C659.126 266.368 658.751 266.305 658.415 266.305 657.717 266.305 657.347 266.263 657.305 266.18 657.263 266.097 657.323 266.055 657.484 266.055 654.733 263.952 652.504 262.081 650.797 260.441L650.313 260.122 649.929 260.446C648.795 261.397 648.149 261.919 647.989 262.01 647.989 261.958 647.765 262.159 647.316 262.611L645.364 263.887C644.398 264.58 643.441 264.927 642.493 264.927 642.621 264.927 642.515 265.012 642.176 265.183 641.953 265.297 641.371 265.625 640.43 266.165 640.171 266.426 639.78 266.556 639.257 266.556 638.145 266.556 637.441 266.111 637.145 265.221 637.095 265.171 636.837 264.406 636.372 262.925L636.846 262.616 635.22 262.032 632.958 261.547 631.63 263.529C631.061 264.279 630.422 265.037 629.711 265.802 629.416 266.104 629.104 266.38 628.773 266.63 628.442 266.88 628.109 267.174 627.775 267.51 627.456 267.753 627.065 268.022 626.604 268.317 626.143 268.612 625.688 268.986 625.239 269.439 625.074 269.439 625.027 269.403 625.098 269.331 624.302 270.132 622.993 270.711 621.173 271.068L620.46 268.447 620.45 267.896C620.533 267.729 620.575 267.567 620.575 267.409 620.575 267.037 620.512 266.621 620.387 266.16 620.263 265.699 620.2 265.238 620.2 264.777L620.2 264.232C620.45 263.813 620.575 263.535 620.575 263.398L620.575 259.863 620.541 259.914 620.034 259.287 620 259.609 620 263.524 620 267.786C620 267.952 620 268.162 620 268.414 620 268.666 620.042 268.957 620.125 269.287L619.931 270.231C619.894 270.305 619.875 270.28 619.875 270.158L619.727 275.212 619.618 277.351C619.624 277.835 619.402 278.419 618.95 279.101 618.916 279.171 618.831 279.452 618.697 279.945 618.563 280.438 618.276 280.957 617.836 281.503 617.251 282.234 616.549 282.599 615.731 282.599 615.322 282.599 614.967 282.478 614.666 282.235L614.015 281.276 612.938 280.665C612.588 280.358 612.347 280.006 612.215 279.608L611.878 278.932C611.539 277.996 611.39 277.03 611.431 276.032 611.471 275.034 611.492 274.327 611.492 273.909L611.866 258.511C611.866 257.519 611.954 256.133 612.13 254.352 612.369 252.52 612.489 250.814 612.489 249.236 612.489 246.442 612.532 244.328 612.619 242.895L612.865 239.827C612.946 239.505 613.027 239.021 613.11 238.376L613.213 236.402 611.238 233.243C611.056 233.059 610.881 232.799 610.713 232.464 610.671 232.421 610.582 232.298 610.447 232.093 610.311 231.888 610.162 231.076 610 229.659L612.015 229.659C612.862 229.659 613.611 229.878 614.263 230.317 614.915 230.755 615.411 231.147 615.753 231.491 616.094 231.835 616.398 232.143 616.665 232.414 618.084 233.693 619.024 234.472 619.485 234.75 620.16 235.508 620.443 236.265 620.333 237.02 620.028 238.251 619.875 239.147 619.875 239.709L619.875 241.839 619.875 244.722 619.875 245.349 619.875 248.17 620 249.791 620 254.458 620.032 255.261 620.276 254.849C620.635 254.671 621.019 254.523 621.428 254.404 621.836 254.286 622.043 254.226 622.047 254.226 622.197 254.125 622.73 253.982 623.646 253.797 624.616 253.448 625.966 253.23 627.697 253.142L629.544 253.099 629.679 252.809C629.941 252.217 630.568 250.67 631.562 248.17 631.617 247.927 631.689 247.459 631.777 246.766 631.864 246.073 632.038 245.398 632.299 244.744 632.419 244.623 632.513 244.434 632.58 244.177L632.723 243.697 631.272 241.31C631.589 240.853 631.819 240.51 631.965 240.281L631.968 240.275 631.938 239.709C632.016 239.307 632.192 238.861 632.465 238.371 633.745 237.993 634.75 238.053 635.479 238.551L636.182 239.541 636.7 240.482 637.335 240.749C637.969 241.124 638.286 241.566 638.286 242.075 638.3 242.146 638.382 242.258 638.532 242.41 639.198 243.131 639.49 243.817 639.407 244.468 639.324 245.119 639.283 245.516 639.283 245.66 639.069 246.735 638.724 248.07 638.249 249.665L638.042 250.567 638.112 250.51C638.924 249.98 639.763 249.715 640.627 249.715L642.493 249.715 642.897 249.715C643.638 249.379 644.551 249.361 645.635 249.659L647.872 250.334 649.134 247.85C649.53 246.836 649.849 245.742 650.09 244.566 650.234 244.133 650.306 243.851 650.306 243.72 650.306 243.592 650.098 243.319 649.683 242.901L649.683 242.6 649.161 242.584C648.93 242.564 648.814 242.532 648.814 242.491 648.814 242.408 648.772 242.366 648.689 242.366 649.065 240.58 649.612 239.687 650.329 239.687 651.917 239.687 652.916 240.237 653.325 241.336 653.453 241.597 653.682 241.788 654.011 241.909 655.231 242.397 656.026 243.197 656.394 244.309 656.597 245.502 656.615 246.327 656.45 246.782L656.521 246.902C656.639 247.276 656.615 247.754 656.45 248.337L656.45 249.457C656.122 250.004 655.817 250.624 655.533 251.317L654.875 252.939 658.736 255.051C659.166 255.34 659.564 255.633 659.931 255.931L660.302 256.265 660.383 252.815 660.635 247.585C660.715 246.833 660.735 246.162 660.693 245.572 660.651 244.983 660.631 244.407 660.631 243.845 660.714 243.177 660.755 242.341 660.755 241.338L660.755 238.653 660.88 236.002C661.045 233.654 661.128 231.923 661.128 230.809 661.128 230.349 661.17 229.951 661.253 229.616L661.334 229.092 660.612 228.436C660.25 228.133 659.841 227.815 659.384 227.481 658.472 226.813 657.83 226.292 657.458 225.918 657.054 225.646 656.727 225.401 656.477 225.184L656.022 224.686 654.777 225.062C654.215 225.244 653.596 225.455 652.921 225.694L650.763 226.389 647.232 227.199 645.309 227.772 640.704 229.138C640.741 229.119 640.682 229.189 640.526 229.346 640.371 229.503 640.167 229.581 639.913 229.581L635.78 231.54C634.978 231.834 634.217 232.193 633.495 232.618 633.4 232.809 633.161 233.001 632.776 233.193 632.24 233.625 631.581 233.841 630.799 233.841 630.392 233.841 629.88 233.738 629.263 233.532 628.698 233.342 628.229 233.142 627.857 232.934 627.486 232.726 627.208 232.591 627.024 232.53 626.835 232.466 626.121 232.3 624.88 232.031 624.497 231.84 624.036 231.474 623.497 230.931L623.061 228.407C624.187 228.407 624.854 228.372 625.063 228.302 625.263 228.166 625.551 228.014 625.925 227.846 626.3 227.679 626.548 227.554 626.669 227.473 627.588 226.895 628.514 226.332 629.449 225.782 630.385 225.232 631.373 224.695 632.416 224.169 635.228 222.802 639.159 221.27 644.209 219.573 647.634 218.587 649.796 217.928 650.696 217.597 651.434 217.385 652.444 217.186 653.726 217ZM637.378 252.925 637.046 253.876 636.997 253.963 637.234 253.977C637.637 253.977 638.004 254.04 638.334 254.165 638.664 254.29 638.897 254.352 639.031 254.352 640.632 254.644 641.587 255.726 641.895 257.6L641.614 257.755 641.744 258.358 642.829 257.139 643.836 256.009 642.799 255.26C642.476 255.052 642.193 254.895 641.948 254.789 641.846 254.742 640.924 254.509 639.182 254.091L638.158 253.472C637.956 253.238 637.777 253.072 637.623 252.976L637.378 252.925ZM660.258 257.86 660.258 258.115 660.264 257.861 660.258 257.86ZM651.225 259.351 650.558 259.914 650.715 259.914C651.055 259.914 651.225 259.727 651.225 259.351ZM623.695 260.19 623.953 261.284C624.006 261.409 624.094 261.533 624.216 261.657L624.255 261.687 624.727 261.146C624.947 260.924 625.119 260.734 625.242 260.577L625.361 260.376 624.718 260.343 623.695 260.19ZM626.296 260.411 626.297 260.415 626.446 260.415 626.296 260.411ZM667.77 291.217 666.923 291.499 667.198 291.499C667.579 291.499 667.77 291.405 667.77 291.217Z" fill-rule="evenodd"/><path d="M748.335 228C749.672 228.013 750.69 228.359 751.389 229.036L751.815 229.255 753.055 230.269 753.126 230.083C754.15 230.836 754.715 231.48 754.82 232.017 755.112 232.615 755.258 232.943 755.258 232.999 755.476 233.372 755.628 233.86 755.713 234.463L756 237.266 756 238.301 755.227 242.906 754.574 245.177C754.391 246.021 754.081 246.78 753.642 247.453 753.203 248.126 752.941 248.549 752.854 248.724 752.854 248.724 752.29 249.589 751.162 251.32L749.526 252.232 748.058 252.985C747.951 253.072 747.808 253.211 747.631 253.402L747.567 253.475 748.532 253.718C748.901 253.718 749.193 253.791 749.411 253.939 749.628 254.087 749.694 254.139 749.61 254.096L749.925 254.096 750.403 254.096C751.111 254.384 751.682 254.707 752.117 255.062 752.551 255.418 752.928 255.705 753.248 255.924 754.088 256.784 754.707 257.52 755.105 258.132 755.254 258.434 755.379 258.791 755.48 259.203 755.58 259.615 755.63 259.941 755.63 260.183L755.63 260.607C755.547 260.603 755.527 260.599 755.568 260.594 755.609 260.59 755.63 260.748 755.63 261.068 755.63 261.201 755.671 261.362 755.754 261.55 755.671 262.068 755.651 262.474 755.692 262.77 755.733 263.066 755.713 263.352 755.63 263.629L755.876 266.133 755.63 266.505 755.754 266.632C755.754 267.147 755.713 267.468 755.63 267.593 755.547 267.719 755.506 267.777 755.506 267.767L755.239 269.949C755.088 270.725 755.012 271.406 755.012 271.992 754.89 272.372 754.798 272.695 754.735 272.961 754.672 273.228 754.641 273.392 754.641 273.453 754.641 273.741 754.478 274.385 754.153 275.388 753.97 275.762 753.715 276.222 753.386 276.767 753.058 277.311 752.795 277.837 752.599 278.345 752.467 278.478 752.375 278.586 752.321 278.669 752.267 278.752 752.213 278.851 752.158 278.965 751.551 279.603 750.755 279.717 749.769 279.307 750.055 279.465 750.3 279.541 750.502 279.535 750.705 279.529 750.806 279.526 750.806 279.526L748.388 281.314C748.244 281.25 748.137 281.195 748.068 281.147L748.053 281.128 747.631 281.314C747.305 281.551 746.834 281.859 746.219 282.238 745.896 282.331 745.703 282.445 745.638 282.578 745.638 282.578 745.424 282.794 744.995 283.226 744.873 283.343 744.224 283.868 743.047 284.802L741.113 285.792 739.961 286.147C739.78 286.27 739.553 286.401 739.281 286.539 739.009 286.677 738.777 286.743 738.585 286.736 737.972 286.912 737.305 287 736.585 287L735.967 287C735.416 287 734.99 286.923 734.69 286.771 734.563 286.728 734.266 286.659 733.798 286.563 733.33 286.468 733.009 286.361 732.835 286.241L732.628 286.241 730.935 285.573 729.453 285.07C729.411 285.027 729.287 284.984 729.08 284.941 728.874 284.898 728.645 284.748 728.393 284.49 728.263 284.357 727.918 284.108 727.359 283.744 726.8 283.38 726.456 282.797 726.327 281.996 725.902 280.984 725.511 280.158 725.153 279.516 724.935 278.39 724.95 277.65 725.198 277.296L725.198 276.082 725.746 276.186 725.692 275.199C727.447 275.847 728.474 276.401 728.775 276.861 729.03 277.059 729.341 277.365 729.708 277.782 730.075 278.199 730.386 278.494 730.643 278.669 731.022 279.058 731.469 279.314 731.984 279.438 732.499 279.561 732.819 279.623 732.943 279.623L735.408 280.003C735.812 280.003 736.067 279.985 736.172 279.949 736.438 279.858 736.747 279.776 737.1 279.703 737.453 279.631 737.7 279.548 737.842 279.454L739.117 278.542C740.039 278.035 740.627 277.609 740.881 277.264 741.259 277.068 741.545 276.921 741.738 276.822 741.931 276.723 742.017 276.682 741.995 276.698 741.995 276.677 742.151 276.506 742.464 276.186 742.777 275.866 742.974 275.706 743.055 275.706 743.055 275.706 743.15 275.657 743.34 275.56 743.531 275.463 743.638 275.389 743.661 275.34 743.661 275.34 743.81 275.191 744.108 274.895L745.036 274.059C745.355 273.733 745.638 273.319 745.884 272.815 746 272.696 746.282 271.89 746.73 270.398 746.702 270.398 746.689 270.554 746.689 270.865 746.689 270.865 746.723 270.831 746.791 270.762 746.859 270.694 746.893 270.66 746.893 270.66 747.182 269.176 747.364 268.229 747.44 267.82 747.515 267.326 747.552 266.592 747.552 265.618 747.552 265.022 747.522 264.588 747.46 264.317 747.275 263.648 747.183 263.084 747.183 262.626 747.183 262.169 747.141 261.815 747.059 261.564L747.054 261.546 746.065 261.051C745.639 260.858 745.148 260.652 744.59 260.432 744.457 260.342 744.206 260.277 743.835 260.235 743.465 260.194 743.138 260.076 742.856 259.883L742.587 259.812C741.501 259.655 740.735 259.577 740.289 259.577L739.164 259.577C737.478 259.733 736.181 259.98 735.273 260.318 734.795 260.4 734.391 260.515 734.061 260.665 733.73 260.814 733.427 260.937 733.15 261.032L732.778 261.159C731.182 261.367 730.508 260.7 730.756 259.158 730.756 258.71 730.797 258.508 730.88 258.552 730.632 258.179 730.59 257.731 730.755 257.207 730.919 256.683 731.001 256.484 731.001 256.61 730.941 255.542 731.24 254.875 731.9 254.608L732.23 254.551 732.366 254.337C732.616 253.909 732.907 253.638 733.24 253.524 733.569 253.335 733.912 253.254 734.267 253.28L734.921 253.518 735.825 253.055 737.541 251.995 741.493 249.583C741.838 249.442 742.175 249.225 742.504 248.93 742.833 248.635 743.216 248.398 743.653 248.218L744.228 247.717 745.144 246.642 746.189 245.708C746.028 245.873 745.947 245.872 745.947 245.703 745.947 245.535 746.067 245.328 746.307 245.082 746.381 244.971 746.472 244.746 746.582 244.407 746.693 244.068 746.789 243.772 746.872 243.518L747.094 242.832 747.43 241.008C747.43 240.873 747.451 240.607 747.491 240.209 747.532 239.812 747.512 239.474 747.43 239.195L747.43 239.253C747.314 239.073 747.223 238.816 747.157 238.48 747.091 238.145 747.059 237.821 747.059 237.508 747.141 237.625 747.135 237.697 747.039 237.723 746.853 236.959 746.708 236.498 746.606 236.343 746.196 235.562 745.71 235.114 745.15 235L744.834 234.886 744.599 235.033C744.328 235.134 743.921 235.185 743.378 235.185 743.098 235.185 742.382 235.354 741.227 235.692 741.155 235.692 741.016 235.756 740.81 235.882 740.605 236.008 740.154 236.071 739.459 236.071 739.379 235.902 739.191 235.938 738.894 236.18 738.598 236.421 738.341 236.598 738.123 236.709 737.682 236.933 737.146 237.261 736.514 237.693L735.788 238.529 735.662 238.786 735.046 239.672 734.509 240.767C734.509 240.767 734.335 240.827 733.988 240.946 733.64 241.065 733.23 241.125 732.756 241.125 732.208 241.125 731.822 241.04 731.6 240.87 731.377 240.699 731.229 240.603 731.157 240.58L730.685 240.467C729.764 240.091 729.211 239.43 729.026 238.482 729.026 238.666 729.006 238.737 728.964 238.695 728.923 238.652 728.902 238.401 728.902 237.941L728.902 237.236C729.133 237 729.47 236.566 729.912 235.934 730.094 235.654 730.462 235.324 731.017 234.946 731.356 234.6 731.669 234.342 731.959 234.173 732.248 234.004 732.541 233.767 732.839 233.462 733.251 233.293 733.687 232.973 734.147 232.502L737.073 230.87 738.884 230.127C739.169 229.934 739.538 229.774 739.992 229.647 740.446 229.52 740.787 229.378 741.017 229.221 742.167 228.829 743.311 228.527 744.448 228.315 745.019 228.315 745.468 228.273 745.797 228.189 746.293 228.189 746.658 228.158 746.891 228.098 747.408 228.029 747.889 227.996 748.335 228ZM732.087 254.778 731.991 254.827C731.991 254.878 732.022 254.862 732.085 254.781L732.087 254.778ZM725.758 277.014 725.737 277.221C725.727 277.354 725.732 277.368 725.753 277.263L725.758 277.014ZM748.496 280.883 748.41 280.938 748.479 280.933C748.53 280.881 748.536 280.864 748.496 280.883Z" fill-rule="evenodd"/><path d="M311.74 229C315.151 229 318.563 229 321.974 229 343.577 229 357.48 229.155 363.681 229.467 367.609 229.674 370.245 230.452 371.589 231.8 371.899 232.111 372.054 232.267 372.054 232.267 373.191 233.511 373.966 234.963 374.38 236.622 374.793 238.074 375 240.511 375 243.933L375 250 310.5 250 246 249.844 246 243.311C246 240.407 246.103 238.489 246.31 237.555 246.413 236.622 246.775 235.585 247.395 234.444 248.946 231.644 251.22 229.933 254.218 229.311 255.251 229.104 274.426 229 311.74 229Z" fill-rule="evenodd"/><path d="M259 253 309.422 253 360 253 360 254.784C360 255.865 359.844 256.405 359.532 256.405 359.011 256.405 342.62 258.838 310.359 263.703 278.097 268.568 261.446 271 260.405 271L259 271 259 262.081 259 253Z" fill-rule="evenodd"/><path d="M519.807 253.058C520.222 252.963 520.67 252.985 521.15 253.121 521.411 253.186 521.871 253.218 522.532 253.218 523.422 253.218 524.191 253.539 524.839 254.18 526.013 255.533 526.76 256.567 527.08 257.28 527.281 257.479 527.59 258.146 528.008 259.282 528.122 259.91 527.994 260.635 527.623 261.457 527.292 261.868 526.977 262.284 526.679 262.706 526.38 263.128 525.934 263.706 525.34 264.441L524.695 265.135 525.257 264.974 525.173 265.057 525.266 264.971 525.726 264.84 525.41 264.84 525.418 264.832C525.777 264.512 526.48 263.903 527.525 263.007L531.756 260.669C531.756 261.452 531.82 262.031 531.947 262.405 532.075 262.779 531.971 263.229 531.636 263.755 531.536 263.955 531.379 264.266 531.166 264.687 530.953 265.108 530.762 265.526 530.594 265.94L529.359 267.84C529.02 268.259 528.64 268.793 528.219 269.439 527.799 270.086 527.421 270.575 527.086 270.906 526.882 271.241 526.475 271.804 525.864 272.593 525.253 273.383 524.746 273.977 524.343 274.377 524.038 274.752 523.615 275.188 523.076 275.683 522.537 276.178 522.056 276.636 521.632 277.057L520.377 278.025C517.556 280.119 514.88 281.684 512.347 282.721 511.267 283.21 510.022 283.056 508.613 282.258L507.685 281.341 506.727 280.864C506.536 280.486 506.393 280.153 506.298 279.866L506.203 279.385 505.502 278.809C505.255 278.395 505.131 277.873 505.131 277.242 505.131 276.781 505.343 276.344 505.766 275.932 505.689 275.971 505.689 275.815 505.768 275.465 505.807 275.29 505.909 275.111 506.074 274.928L506.317 274.728 504.602 273.88C503.967 273.669 503.447 273.342 503.042 272.898 502.637 272.454 502.289 272.088 501.997 271.801L500.878 270.192C499.626 268.457 499 266.555 499 264.484 499 263.519 499.096 262.464 499.289 261.319L500.597 260.037C501.779 260.779 502.37 261.089 502.37 260.966 502.453 260.999 502.885 261.401 503.666 262.174L503.87 262.97C504.055 263.398 504.201 263.722 504.308 263.945L504.5 264.283 504.661 263.787C504.72 263.561 504.812 263.253 504.94 262.864 505.067 262.475 505.131 262.064 505.131 261.63 505.217 261.546 505.259 261.344 505.259 261.024 505.259 260.704 505.488 260.544 505.945 260.544 505.906 260.602 506.577 260.096 507.958 259.027 507.958 259.027 508.41 259.327 509.315 259.926 509.54 260.425 509.631 260.817 509.589 261.102 509.546 261.387 509.547 261.567 509.592 261.64 509.718 262.114 509.781 262.893 509.781 263.978 509.781 264.358 509.823 264.801 509.908 265.306 509.993 265.812 510.035 266.296 510.035 266.757L510.035 267.395C510.121 267.646 510.164 268.023 510.164 268.526L510.164 268.808 511.311 269.697 511.343 269.813 511.553 269.548 512.742 267.733 512.156 266.729C511.975 266.4 511.846 266.139 511.769 265.948 511.671 265.759 511.563 265.487 511.444 265.131 511.324 264.776 511.264 264.349 511.264 263.852 511.264 263.42 511.307 263.12 511.393 262.952L511.393 262.419C511.733 261.53 511.484 260.576 510.644 259.558 510.572 259.416 510.449 259.215 510.275 258.956 510.102 258.697 509.921 258.296 509.732 257.751 510.221 256.411 511.06 255.869 512.251 256.126 512.847 256.255 513.309 256.403 513.637 256.57L513.961 256.79 514.4 256.311C514.684 256.128 515.04 255.993 515.467 255.906 515.604 255.867 515.717 255.812 515.808 255.74 515.899 255.668 516.016 255.561 516.158 255.419L518.657 253.689C519.008 253.363 519.391 253.153 519.807 253.058ZM519.722 257.18C519.321 257.18 518.992 257.307 518.735 257.562 518.046 258.175 517.701 259.008 517.701 260.061 517.701 260.261 517.77 260.457 517.908 260.648 518.18 260.737 518.275 260.997 518.193 261.427 518.184 260.879 518.346 260.439 518.68 260.109 518.937 259.769 519.15 259.469 519.318 259.21 519.485 258.951 519.739 258.51 520.08 257.888 520.08 257.751 520.165 257.623 520.335 257.504L520.366 257.5 520.214 257.33C520.065 257.23 519.901 257.18 519.722 257.18ZM519.495 270.835 519.274 271.205C519.294 271.287 519.409 271.329 519.618 271.329L519.495 270.835ZM506.244 279.418 506.27 279.501C506.346 279.599 506.461 279.673 506.615 279.723L506.244 279.418Z" fill-rule="evenodd"/><path d="M359.484 275 359.64 284.513 359.796 294.025 375.82 295.897C386.296 297.144 392.804 297.976 395.345 298.392 397.886 298.808 399.623 299.432 400.557 300.263 402.009 301.511 402.813 303.096 402.968 305.02 403.124 306.943 402.709 308.684 401.724 310.244 400.738 311.803 399.364 312.791 397.601 313.207 396.564 313.311 390.237 312.739 378.62 311.491 367.315 310.14 361.3 309.464 360.573 309.464 360.366 309.464 360.236 309.984 360.185 311.023 360.133 312.063 360.055 314.61 359.951 318.665 359.848 322.719 359.796 327.969 359.796 334.415 359.796 340.861 359.796 350.27 359.796 362.641L359.796 415.975 364.152 415.975C366.745 415.975 368.715 416.313 370.064 416.988 371.412 417.664 372.605 418.886 373.642 420.653 374.161 421.693 374.498 422.68 374.653 423.616 374.809 424.552 374.887 426.371 374.887 429.074L374.887 435 310.167 434.844 245.447 434.688 245.291 430.478C244.98 424.76 245.913 420.913 248.092 418.938 249.44 417.69 250.581 416.884 251.514 416.52 252.448 416.157 253.848 415.975 255.715 415.975L259.137 415.975 259.137 407.242C259.137 401.42 258.878 398.509 258.36 398.509 257.841 398.509 248.818 400.016 231.289 403.031 213.657 406.046 204.426 407.554 203.596 407.554 201.626 407.554 199.629 406.904 197.607 405.604 195.584 404.305 194.106 402.667 193.173 400.692 192.447 399.444 192.058 397.781 192.006 395.702 191.954 393.622 192.239 391.907 192.862 390.556 193.38 389.308 194.288 388.086 195.584 386.891 196.881 385.695 198.203 384.838 199.552 384.318 200.381 384.006 210.208 382.187 229.033 378.86 247.858 375.533 257.789 373.869 258.826 373.869 259.034 373.869 259.137 359.782 259.137 331.608L259.137 289.347 264.116 288.723C264.842 288.619 267.409 288.255 271.817 287.632 276.225 287.008 282.837 286.046 291.653 284.747 300.469 283.447 307.989 282.381 314.212 281.55L359.484 275ZM313.589 287.632C308.196 287.632 303.399 288.515 299.198 290.283 294.998 292.05 290.927 294.909 286.986 298.86 280.037 305.825 276.251 314.142 275.629 323.811 275.317 328.177 275.732 332.466 276.873 336.676 278.014 340.887 279.751 344.63 282.085 347.904 284.419 351.179 287.219 354.116 290.486 356.715 293.753 359.315 297.332 361.238 301.221 362.485 305.11 363.733 309.181 364.461 313.434 364.669 317.686 364.877 321.99 364.201 326.347 362.641 331.325 360.978 335.785 358.353 339.726 354.766 343.667 351.179 346.649 347.073 348.672 342.446 350.694 337.82 351.913 332.882 352.328 327.632 352.743 322.381 351.913 317.261 349.839 312.271 347.557 306.449 343.979 301.381 339.104 297.066 334.229 292.752 328.836 289.867 322.924 288.411 320.435 287.892 317.323 287.632 313.589 287.632Z" fill-rule="evenodd"/><path d="M227.325 309.023C228.764 309.238 233.697 309.829 242.125 310.795 250.553 311.762 254.972 312.245 255.383 312.245 255.794 312.245 256 315.038 256 320.623L256 329 254.767 329C253.533 329 248.42 328.302 239.427 326.906 230.434 325.509 225.424 324.65 224.396 324.328 222.751 323.791 221.441 322.851 220.465 321.509 219.488 320.166 219 318.689 219 317.078 219 313.641 220.388 311.225 223.163 309.829 224.601 309.184 225.989 308.916 227.325 309.023Z" fill-rule="evenodd"/><path d="M337.653 314.013C338.084 314.038 338.527 314.102 338.983 314.203 340.807 314.609 342.226 315.473 343.24 316.793 343.747 317.606 344 318.875 344 320.602 344 321.82 343.899 322.684 343.696 323.191 343.493 323.699 342.986 324.359 342.176 325.172 341.466 325.984 340.833 326.492 340.275 326.695 339.718 326.898 338.983 327 338.071 327 336.551 327 335.284 326.746 334.27 326.238 332.142 325.121 331.053 323.217 331.002 320.525 330.951 317.834 331.99 315.93 334.118 314.813 335.183 314.203 336.361 313.937 337.653 314.013Z" fill-rule="evenodd"/><path d="M293.5 315C294.004 315 294.81 315.199 295.919 315.598 298.64 316.694 300 318.736 300 321.724 300 322.621 299.899 323.368 299.698 323.966 299.496 324.563 298.992 325.261 298.186 326.057 297.38 326.954 296.725 327.502 296.221 327.701 295.717 327.9 294.835 328 293.576 328 292.316 328 291.434 327.9 290.93 327.701 290.426 327.502 289.721 326.954 288.814 326.057 288.109 325.261 287.63 324.563 287.378 323.966 287.126 323.368 287 322.621 287 321.724 287 318.835 288.361 316.793 291.081 315.598 292.19 315.199 292.996 315 293.5 315Z" fill-rule="evenodd"/><path d="M326.64 328C326.744 328 326.848 328.199 326.952 328.598 326.952 328.698 326.952 328.747 326.952 328.747 327.16 329.844 326.692 331.139 325.549 332.634 324.406 334.129 323.159 335.176 321.808 335.774 317.235 337.966 313.233 337.219 309.804 333.531 307.933 331.538 307.517 330.541 308.557 330.541 308.972 330.541 309.18 330.691 309.18 330.99 309.18 331.289 309.96 331.837 311.519 332.634 313.909 333.93 316.533 334.254 319.391 333.606 322.249 332.958 324.302 331.588 325.549 329.495 326.173 328.598 326.536 328.1 326.64 328Z" fill-rule="evenodd"/><path d="M340.859 330.04C342.187 330.193 343.349 330.727 344.345 331.641 346.227 333.369 346.504 335.402 345.176 337.74 344.179 339.468 342.491 340.205 340.112 339.951 337.732 339.697 336.099 338.604 335.214 336.673 334.882 335.758 334.937 334.691 335.38 333.471 335.822 332.251 336.487 331.387 337.372 330.879 338.368 330.167 339.53 329.888 340.859 330.04Z" fill-rule="evenodd"/><path d="M293.896 333.002C294.302 332.989 294.718 333.034 295.143 333.137 296.842 333.548 298.042 334.678 298.741 336.527 299.241 338.274 299.016 339.789 298.067 341.074 297.117 342.358 295.793 343 294.093 343 292.793 343 291.869 342.846 291.319 342.538 290.769 342.229 290.244 341.613 289.745 340.688 288.545 338.428 288.795 336.425 290.494 334.678 291.544 333.599 292.678 333.041 293.896 333.002Z" fill-rule="evenodd"/><path d="M365.394 353.032C367.562 353.458 375.77 355.055 390.018 357.823 402.51 360.272 409.97 361.869 412.396 362.614 414.822 363.359 416.603 364.637 417.739 366.446 418.462 367.511 418.875 369.081 418.978 371.157 419.081 373.234 418.823 374.91 418.204 376.188 417.584 377.359 416.681 378.397 415.493 379.302 414.306 380.207 413.145 380.766 412.009 380.979 410.563 381.192 402.252 379.808 387.075 376.827L364.155 372.355 364 363.253C364 357.184 364.052 353.937 364.155 353.511 364.361 353.085 364.774 352.926 365.394 353.032Z" fill-rule="evenodd"/><path d="M626.17 361.027C626.449 360.942 626.802 361.06 627.228 361.38 628.639 362.004 629.792 362.563 630.688 363.058 630.471 362.877 630.33 362.787 630.267 362.788 630.204 362.789 630.334 362.795 630.656 362.807L631.855 363.086C632.195 363.651 632.633 364.118 633.169 364.487 633.705 364.857 634.124 365.154 634.425 365.378 635.117 365.789 635.463 366.443 635.463 367.34 635.463 367.95 635.24 368.479 634.794 368.925 634.565 369.241 634.451 369.887 634.451 370.862L634.451 373.806 634.578 376.84 634.578 381.405C634.62 381.821 634.652 382.326 634.673 382.917L634.7 384.652 634.775 384.448C634.945 384.113 635.14 383.727 635.36 383.289 635.58 382.852 635.826 382.316 636.097 381.681 636.621 381.164 636.93 380.906 637.022 380.906 637.305 380.532 637.637 380.154 638.02 379.774L637.984 379.797 638.167 379.625C638.828 379.345 639.573 378.966 640.402 378.488 641.231 378.01 641.932 377.678 642.504 377.489L647.67 375.484 647.565 372.768C647.394 370.042 647.309 368.022 647.309 366.711 647.309 366.74 646.844 366.692 645.916 366.566 646.467 364.552 647.192 363.544 648.091 363.544 648.296 363.544 648.653 363.628 649.161 363.795L649.263 363.795C650.266 363.458 651.197 363.639 652.059 364.336 652.142 364.365 652.505 364.503 653.148 364.75 653.791 364.996 654.317 365.272 654.727 365.576 655.803 366.288 656.341 367.128 656.341 368.095 656.341 368.3 656.23 368.733 656.007 369.396 655.891 369.739 655.833 370.009 655.833 370.205L655.863 370.494 657.834 370.568C658.794 370.637 659.785 370.742 660.809 370.881 660.977 370.852 661.311 370.818 661.81 370.776 662.309 370.735 662.798 370.714 663.276 370.714 663.588 370.714 663.996 370.672 664.5 370.587 665.005 370.502 665.657 370.659 666.458 371.057 666.398 370.997 666.379 370.967 666.403 370.967 666.426 370.967 666.48 370.967 666.565 370.967 667.284 370.967 667.664 371.008 667.706 371.092 667.747 371.175 667.966 371.217 668.361 371.217L668.361 372.624C668.347 372.619 668.365 372.936 668.414 373.576 668.463 374.216 668.28 374.535 667.865 374.535 667.857 374.55 667.371 374.718 666.408 375.038 666.781 375.038 667.053 375.206 667.222 375.541L666.708 375.541 666.716 375.545C665.124 376.821 663.535 377.678 661.948 378.116 660.361 378.555 659.355 378.844 658.929 378.984 658.473 379.167 657.951 379.342 657.362 379.509L656.166 379.911 656.051 381.399C655.931 382.852 655.816 383.902 655.708 384.551L655.543 385.22 657.841 384.196 659.402 383.421C659.402 383.421 659.478 383.421 659.63 383.421 659.782 383.421 659.858 383.421 659.858 383.421 660.198 383.421 660.747 383.274 661.506 382.981 662.266 382.687 662.897 382.541 663.401 382.541 663.265 382.541 663.906 382.414 665.323 382.16 665.323 382.748 665.237 382.916 665.064 382.665 666.016 382.916 666.635 383.203 666.921 383.527 667.206 383.85 667.307 384.337 667.222 384.987 667.222 384.678 667.243 384.544 667.285 384.586 667.328 384.628 667.349 384.692 667.349 384.777 667.601 385.028 667.728 385.548 667.728 386.336L667.728 387.813 666.484 389.252C664.943 390.153 663.047 391.336 660.795 392.798L659.445 393.167C659.143 393.392 658.78 393.588 658.359 393.755 657.937 393.923 657.558 394.132 657.222 394.383 656.768 394.564 656.039 394.945 655.035 395.528 654.114 395.87 653.313 396.125 652.632 396.295 651.952 396.465 651.329 396.642 650.765 396.828 650.397 397.012 650.065 397.188 649.77 397.356 649.475 397.524 649.188 397.677 648.909 397.816L647.542 398.359 645.783 398.942C645.281 398.942 644.803 398.879 644.349 398.752L644.269 398.717 644.32 398.918 644.32 399.595C644.235 399.702 644.214 399.837 644.256 399.998 644.299 400.16 644.32 400.345 644.32 400.553 644.32 400.987 644.237 401.354 644.072 401.654L643.968 401.752 644.542 401.521C646.409 400.722 647.602 400.286 648.121 400.213 648.001 400.283 647.941 400.293 647.941 400.243L648.228 398.519C648.675 398.519 649.012 398.435 649.237 398.266 649.463 398.097 649.806 398.054 650.265 398.139L650.982 398.012 650.344 398.894C650.344 399.442 650.436 399.579 650.622 399.305 650.807 399.031 651.126 398.768 651.577 398.516 652.028 398.265 652.381 398.223 652.635 398.391 652.999 398.054 653.603 398.024 654.447 398.299L656.099 398.573C655.813 398.535 655.616 398.517 655.507 398.519 656.485 398.519 657.248 398.701 657.796 399.063 658.344 399.426 658.619 399.965 658.619 400.68L658.619 400.581 658.746 400.83 658.746 401.822 657.611 404.234 656.373 405.465C655.824 405.855 655.233 406.259 654.601 406.679 653.969 407.098 653.316 407.546 652.643 408.022L649.11 410.652 645.257 413.163 642.077 415.39C640.048 416.986 638.265 418.27 636.728 419.243L636.721 419.253 637.139 419.78 637.383 420.501 638.06 421.846C638.269 422.057 638.373 422.482 638.373 423.122 638.202 423.463 638.054 423.774 637.928 424.054 637.803 424.335 637.74 424.553 637.74 424.709 637.74 424.942 637.715 425.488 637.665 426.348 637.616 427.207 637.514 428.051 637.361 428.879 637.361 429.351 637.319 429.776 637.234 430.154 637.149 430.532 637.107 430.951 637.107 431.412 637.005 431.82 636.916 432.247 636.841 432.694 636.766 433.141 636.728 433.719 636.728 434.43L636.517 435.447 637.524 434.631C639.678 432.872 641.329 431.478 642.478 430.45L642.877 430.064 642.868 430.036 642.28 430.142C641.945 430.277 641.518 430.391 641.001 430.485 640.483 430.58 639.507 430.675 638.07 430.771L638.07 429.855 637.438 428.539 639.062 427.495 637.819 427.375C639.181 425.445 640.322 424.423 641.243 424.309 641.436 424.309 641.687 424.361 641.994 424.466L642.555 424.708 646.273 420.78C646.875 420.083 647.673 419.239 648.668 418.25 649.663 417.261 650.512 416.33 651.214 415.458 651.404 415.332 651.774 414.799 652.325 413.859 652.27 413.913 652.242 413.923 652.242 413.889L652.242 413.638 652.242 411.474C653.682 411.728 654.871 411.855 655.809 411.855L656.478 411.855C657.435 412.52 658.073 412.961 658.393 413.177 659.47 413.849 660.009 414.799 660.009 416.027 660.009 416.748 659.804 417.45 659.392 418.133 657.916 419.968 656.705 421.262 655.761 422.014 654.185 423.334 652.587 424.544 650.968 425.645 650.389 426.044 649.84 426.393 649.322 426.691L649.286 426.71 649.38 426.801 649.266 427.085 649.295 427.088C649.526 427.176 649.847 427.334 650.259 427.561 652.159 428.054 654.767 429.019 658.084 430.456 659.315 430.981 660.414 431.424 661.382 431.785 662.349 432.146 663.072 432.379 663.55 432.484 667.716 433.852 671.982 434.919 676.347 435.684 676.74 435.734 677.726 435.759 679.308 435.759L680.122 436.243 682.024 436.746 683.576 437.52C684.046 437.52 684.391 437.789 684.609 438.327 684.827 438.866 684.937 439.089 684.937 438.997 685.021 439.241 685.021 439.566 684.937 439.971 685.021 440.406 684.766 441.037 684.171 441.862 683.922 442.109 683.798 442.233 683.798 442.233 683.798 443.247 683.037 443.905 681.515 444.207 680.182 444.559 678.699 444.736 677.067 444.736 675.303 444.736 673.725 444.563 672.335 444.217 671.174 444.054 670.311 443.878 669.745 443.69L667.21 443.187C662.984 441.785 660.872 441.085 660.872 441.085 660.422 440.974 659.202 440.468 657.212 439.568 655.159 438.378 653.822 437.628 653.201 437.32 652.438 436.94 651.544 436.444 650.518 435.833 649.492 435.221 648.554 434.673 647.704 434.19L645.727 432.156 644.511 434.073C644.209 434.474 643.84 434.999 643.405 435.648 642.97 436.298 642.519 436.808 642.053 437.179 640.874 438.71 639.161 440.753 636.912 443.309 636.619 443.6 636.104 444.112 635.367 444.846 634.63 445.579 633.522 446.297 632.043 447 631.301 446.625 630.764 446.299 630.43 446.023 630.097 445.747 629.855 445.531 629.703 445.373 629.871 445.536 629.865 445.617 629.687 445.617 629.075 445.01 628.77 444.706 628.77 444.706 628.699 444.201 628.492 443.827 628.149 443.585 627.762 443.077 627.59 442.667 627.632 442.356L627.647 442.202 627.23 441.899C627.034 441.628 626.936 441.301 626.936 440.917 626.936 440.15 627.23 439.546 627.819 439.107 628.074 438.853 628.201 438.493 628.201 438.027L629.235 429.945C629.547 428.084 630.126 425.689 630.974 422.76L631.148 422.186 628.552 424.784C628.322 424.937 626.62 426.259 623.445 428.749L619.775 431.643C616.641 434.067 613.411 436.52 610.086 439.001 608.393 440.516 606.886 441.623 605.566 442.323 605.097 442.696 604.497 442.996 603.767 443.223 603.037 443.45 602.593 443.583 602.436 443.622 602.084 443.778 601.766 443.835 601.484 443.793 601.201 443.751 600.771 443.73 600.195 443.73 599.964 442.242 599.938 441.153 600.118 440.463L600.31 440.033 600.199 439.827C600.129 439.435 600.172 438.993 600.328 438.502L600.926 437.161C601.563 436.528 602.093 436.085 602.516 435.833 603.141 435.211 604.027 434.528 605.174 433.781L608.753 431.723 608.728 431.708C608.744 431.467 608.998 430.865 609.491 429.903 609.671 429.734 610.463 429.07 611.865 427.912 613.89 426.072 616.197 424.251 618.786 422.449 619.295 422.016 621.654 420.245 625.862 417.135L627.919 415.513 623.316 417.165C622.901 417.305 622.372 417.49 621.728 417.72 621.085 417.95 620.425 418.065 619.749 418.065 619.185 418.065 618.586 417.908 617.952 417.594 617.93 417.572 617.987 417.562 618.123 417.562 617.172 417.646 615.784 417.396 613.959 416.812 613.637 416.599 613.391 416.44 613.221 416.337 613.051 416.235 612.646 415.951 612.006 415.488 612.048 415.261 612.085 415.072 612.117 414.921L612.145 414.799 610.741 413.356 611.545 411.474C613.004 411.979 614.262 412.232 615.32 412.232 616.026 412.232 616.554 412.175 616.902 412.061 617.682 411.771 618.582 411.471 619.601 411.16 620.62 410.848 621.734 410.445 622.944 409.949 624.827 409.253 626.267 408.717 627.266 408.34L627.341 408.311 627.379 408.208C627.505 407.866 627.819 407.013 628.32 405.647L628.5 405.55 628.125 404.938C627.988 404.801 627.919 404.733 627.917 404.731 627.916 404.73 627.896 404.729 627.859 404.729L626.831 403.451C626.491 402.776 626.297 402.033 626.25 401.222 626.202 400.41 626.178 399.827 626.178 399.471 626.009 396.821 625.924 394.833 625.924 393.508L625.924 387.867 625.761 388.096C625.359 388.497 625.126 388.794 625.062 388.989 624.319 389.936 623.252 391.015 621.861 392.225 621.618 392.467 621.277 392.762 620.839 393.111 620.4 393.46 620.021 393.825 619.701 394.207 619.063 395.051 618.223 395.797 617.183 396.444 616.142 397.092 615.375 397.579 614.882 397.906 614.61 398.177 614.081 398.313 613.296 398.313L611.559 398.313 611.027 398.036C609.984 397.411 609.372 396.977 609.189 396.734 608.966 396.661 608.75 396.499 608.54 396.249 608.331 395.999 608.114 395.837 607.891 395.762 607.76 395.633 607.523 395.524 607.182 395.438 606.264 394.525 605.805 393.57 605.805 392.572 606.004 392.079 606.305 391.746 606.709 391.572L607.174 391.475 607.071 391.47 607.071 390.845 609.05 390.845C609.303 391.096 609.452 391.221 609.499 391.221 609.786 391.221 610.112 391.131 610.479 390.949L616.039 388.687 621.771 385.522C621.926 385.429 622.253 385.156 622.75 384.703 623.247 384.25 623.627 383.893 623.891 383.631 624.201 383.397 624.492 383.126 624.764 382.818 625.036 382.51 625.375 382.155 625.781 381.751 625.876 381.656 625.924 381.465 625.924 381.178L625.924 377.78 625.69 378.07 625.042 378.862 622.188 381.206C621.633 381.759 620.9 382.307 619.989 382.85 619.078 383.393 617.767 383.851 616.055 384.222L616.055 382.483C617.295 380.634 618.387 379.252 619.334 378.336L620.018 377.756 619.722 377.482C619.676 377.451 619.476 377.376 619.122 377.259L617.551 375.437C617.045 375.185 616.706 374.802 616.533 374.289 616.506 374.237 616.357 374.022 616.084 373.644 615.812 373.266 615.676 372.926 615.676 372.624 615.422 371.754 615.422 370.995 615.676 370.346L615.676 369.227C615.676 368.586 616.246 367.949 617.385 367.316 618.967 368.376 620.183 369.33 621.035 370.177 620.89 370.033 620.873 369.964 620.985 369.971L623.925 369.851 626.229 369.977 626.312 369.097C626.355 368.59 626.399 368.041 626.442 367.448L626.535 366.071 625.445 365.381C625.124 365.165 624.915 365.01 624.82 364.915 624.54 364.5 624.321 364.192 624.161 363.993 624.001 363.794 623.83 363.244 623.647 362.342L625.618 361.154C625.706 361.154 625.891 361.112 626.17 361.027ZM634.911 396.309 634.831 396.834C634.747 397.425 634.705 398.096 634.705 398.848L634.521 401.211 635.378 400.281C635.86 399.728 636.277 399.189 636.627 398.664L636.726 398.622 634.911 396.309ZM656.411 372.49C656.461 372.464 656.421 372.468 656.291 372.5L656.291 372.537 656.411 372.49ZM647.688 382.06 647.688 382.461C647.588 382.946 647.213 383.27 646.563 383.432 645.257 383.837 644.313 384.185 643.731 384.474 642.783 384.474 642.224 384.432 642.055 384.348 641.966 384.348 641.726 384.293 641.336 384.181 640.946 384.069 640.641 383.959 640.422 383.851 640.351 383.763 640.121 383.789 639.731 383.927 639.508 384.024 639.272 384.301 639.023 384.76 638.773 385.219 638.619 385.478 638.56 385.539 638.426 385.873 638.256 386.243 638.051 386.65 637.846 387.056 637.667 387.49 637.514 387.949 636.515 389.093 635.769 389.944 635.277 390.502L634.934 390.889 635.001 393.319 635.566 393.002C636.169 392.784 636.733 392.824 637.258 393.123L638.542 393.875 638.591 393.548C638.87 392.752 639.569 392.354 640.686 392.354 640.81 392.352 640.992 392.322 641.233 392.263 641.475 392.205 641.683 392.146 641.859 392.087L647.107 389.414C647.553 389.229 647.9 389.082 648.146 388.974L648.415 388.847 648.131 387.056C648.005 386.305 647.941 385.627 647.941 385.024 647.772 383.852 647.688 382.864 647.688 382.06Z" fill-rule="evenodd"/><path d="M512.516 369C513.798 369 514.97 369.531 516.032 370.594 516.159 370.783 516.379 370.991 516.692 371.216 517.006 371.441 517.221 371.669 517.337 371.898 517.266 371.838 517.563 372.064 518.227 372.576 518.891 373.088 519.285 373.838 519.411 374.824 519.588 375.808 519.551 376.658 519.301 377.374 519.301 377.704 519.132 378.093 518.796 378.542 518.46 378.992 518.053 379.217 517.576 379.217 517.325 379.253 516.988 379.541 516.567 380.083 516.129 380.521 515.542 381.11 514.804 381.848 514.067 382.586 513.28 383.217 512.444 383.741L511.789 384.172 513.395 384.779 513.998 385.229 515.059 387.089C515.324 387.488 515.491 387.86 515.559 388.205 515.628 388.55 515.662 388.769 515.662 388.861 515.662 389.207 515.683 389.634 515.725 390.142L515.81 390.933 516.062 390.849C516.819 390.849 517.411 391.063 517.838 391.489L519.303 392.279C519.905 392.538 520.458 392.815 520.962 393.109 521.466 393.404 521.926 393.655 522.342 393.861 522.343 393.863 522.47 393.863 522.723 393.863 522.979 394.373 523.291 394.812 523.66 395.181 524.266 395.384 524.569 395.957 524.569 396.9 524.569 396.866 524.575 396.857 524.585 396.873 524.596 396.888 524.641 396.936 524.721 397.018 525.122 397.79 525.239 398.522 525.071 399.214 525.064 399.378 525.041 399.696 525.003 400.169 524.964 400.641 524.945 400.878 524.945 400.88 525.279 401.108 525.426 401.427 525.384 401.839 525.343 402.25 525.322 402.445 525.322 402.424 525.322 403.915 525.364 405.076 525.446 405.908 525.446 406.312 525.481 406.669 525.55 406.98 525.619 407.291 525.711 407.615 525.824 407.952L525.824 408.576C525.824 408.85 525.845 409.168 525.887 409.531 525.929 409.895 525.901 410.287 525.802 410.708 525.733 410.852 525.74 411.089 525.824 411.419 525.908 411.749 525.95 412.016 525.95 412.218L525.95 412.898C525.866 412.97 525.866 413.111 525.949 413.319 526.032 413.528 526.074 413.747 526.074 413.976L526.074 415.539 526.253 417.595 529.085 416.465 529.085 418.003 529.162 417.731 529.162 417.587C529.278 417.219 529.396 416.833 529.514 416.431L529.905 415.342 529.632 415.061C529.569 414.931 529.538 414.767 529.538 414.569 529.288 414.066 529.162 413.689 529.162 413.438L529.037 412.328C529.12 412.314 529.037 412.194 528.785 411.97 528.785 411.921 528.803 411.915 528.84 411.952 528.876 411.99 528.807 411.92 528.631 411.744L528.505 411.492 528.251 411.238C527.938 410.612 527.782 409.85 527.782 408.954L527.782 408.452C527.782 407.917 527.824 407.629 527.908 407.587 527.992 407.545 528.034 407.647 528.034 407.894 528.416 406.745 529.192 406.17 530.361 406.17 530.921 406.058 531.339 405.932 531.616 405.792 531.704 405.792 531.74 405.8 531.724 405.816 532.284 405.488 532.922 405.081 533.638 404.596L535.391 403.35 535.308 403.59 535.441 403.314 536.019 402.904 535.57 403.048 535.75 402.678C535.894 402.444 536.034 402.282 536.171 402.19L536.431 401.668C536.727 401.078 537.022 400.636 537.316 400.342 537.316 400.09 537.469 399.811 537.774 399.506L538.028 399.076 537.204 398.806C537.237 399.142 537.032 399.31 536.587 399.31L536.609 399.31 536.231 399.56C536.231 399.56 536.357 399.56 536.61 399.56L536.708 399.56 536.57 399.629C536.291 399.815 536.09 399.969 535.968 400.092 534.441 400.324 533.678 400.23 533.678 399.812 534.016 399.895 534.162 399.896 534.117 399.815L533.432 399.341 533.051 399.434 530.917 398.064C530.461 397.722 530.144 397.552 529.966 397.552 529.322 397.366 528.839 397.079 528.517 396.69L528.388 396.295 528.629 396.295 528.355 396.195 528.034 395.215 528.126 396.023 527.984 395.894C527.917 395.834 527.886 395.805 527.89 395.809 527.639 395.559 527.514 395.433 527.514 395.433 527.514 395.433 527.301 395.219 526.875 394.791 526.723 394.49 526.601 394.247 526.509 394.062 526.417 393.878 526.235 393.649 525.962 393.375 525.67 392.391 525.874 391.298 526.573 390.095L526.373 390.229 526.527 389.489C526.527 389.114 526.548 388.906 526.59 388.865 526.632 388.824 526.653 388.48 526.653 387.833L529.744 389.613C529.824 389.694 529.922 389.831 530.038 390.024L530.071 390.095 530.189 390.095C530.078 390.095 530.036 390.085 530.066 390.065 530.095 390.045 530.256 389.966 530.549 389.827L534.604 388.308 534.893 387.952C535.177 387.79 535.549 387.709 536.009 387.709L538.005 386.651C538.663 386.487 539.471 386.166 540.427 385.687L542.671 384.893C543.331 384.761 543.743 384.613 543.905 384.451 544.659 384.283 544.93 384.306 544.716 384.519 544.716 383.967 545.185 383.691 546.121 383.691 546.258 383.691 546.527 383.557 546.928 383.289 547.517 383.141 547.777 383.099 547.709 383.165 547.709 383.165 547.73 383.142 547.772 383.097 547.814 383.051 547.835 383.029 547.835 383.029 548.09 382.774 548.403 382.62 548.775 382.566 549.148 382.512 549.451 382.427 549.685 382.311L549.695 382.311C549.9 382.141 550.066 382.078 550.193 382.12 550.319 382.162 550.321 382.225 550.197 382.311 551.089 382.057 551.793 382.075 552.309 382.365L552.732 382.435 553.647 382.435C553.876 382.435 554.125 382.514 554.397 382.671L554.899 383.078 554.231 383.135 554.973 383.137 555.274 383.381 555.137 383.138 555.352 383.139C555.719 383.249 556.078 383.469 556.43 383.799L556.43 385.641C556.264 385.725 556.181 385.76 556.181 385.745 556.181 385.73 556.181 385.937 556.181 386.365 556.013 386.518 556.013 386.774 556.181 387.133L556.181 387.513C556.162 387.476 556.262 387.62 556.479 387.947 556.697 388.274 556.806 388.704 556.806 389.239L556.806 388.697C556.974 388.806 557.037 389.133 556.995 389.678 556.953 390.223 556.932 390.519 556.932 390.567 557.266 391.734 557.006 392.708 556.151 393.489 555.864 394.065 555.575 394.425 555.284 394.569 555.18 394.672 555.023 394.891 554.814 395.226 554.605 395.562 554.349 395.882 554.045 396.185 553.845 396.385 553.662 396.61 553.496 396.859 553.331 397.107 553.122 397.358 552.87 397.612 552.415 398.342 552.026 398.815 551.705 399.03 551.684 399.051 551.562 399.286 551.34 399.734 550.758 400.51 550.305 401.059 549.983 401.382 549.482 402.134 548.974 402.768 548.459 403.284 547.958 404.121 547.772 404.475 547.901 404.346 547.901 405.006 547.572 405.336 546.912 405.336L547.124 405.484 546.842 405.856C546.555 406.336 546.366 406.709 546.277 406.974L546.271 406.99C546.271 407.813 545.909 408.224 545.184 408.224 545.49 408.071 545.644 408.033 545.644 408.112 545.476 408.28 545.392 408.351 545.392 408.326L545.392 409.842C544.906 409.965 544.603 410.263 544.485 410.736L544.389 410.736C544.389 410.4 544.232 410.35 543.918 410.585 543.605 410.821 543.472 410.914 543.52 410.866 543.436 411.033 543.266 411.244 543.011 411.499L542.039 412.477 542.257 412.234C542.257 412.408 542.178 412.494 542.021 412.494L542.039 412.477 541.46 413.12C541.376 413.289 541.474 413.332 541.753 413.248L541.753 413.372C541.587 413.372 541.504 413.456 541.504 413.624L541.01 413.624C540.926 413.875 540.612 414 540.067 414L539.604 414.582C539.272 415.081 539.071 415.437 539 415.649 538.863 415.923 538.732 416.144 538.608 416.31 538.483 416.476 538.445 416.51 538.493 416.413 538.493 416.823 538.298 417.223 537.909 417.613 537.483 417.898 537.174 418.2 536.982 418.519 536.867 418.693 536.743 418.932 536.613 419.235 536.482 419.537 536.29 419.859 536.035 420.201L535.118 422.037 534.792 422.022 534.301 423.173C534.336 423.012 534.374 422.969 534.416 423.045 534.458 423.121 534.479 423.28 534.479 423.521 534.479 423.79 534.604 424.176 534.855 424.677 534.855 424.602 534.893 424.588 534.971 424.634 535.048 424.68 535.134 424.75 535.228 424.845 535.804 425.249 536.526 425.518 537.394 425.651 537.896 425.723 538.746 425.759 539.943 425.759 542.383 425.946 544.238 426.119 545.508 426.279 546.051 426.266 546.736 426.217 547.562 426.134 548.387 426.051 549.036 426.009 549.508 426.009 549.879 426.009 550.607 425.932 551.691 425.777 552.75 425.625 553.528 425.443 554.025 425.231 554.363 425.116 554.682 425.021 554.98 424.945 555.278 424.869 555.567 424.761 555.847 424.621 557.408 423.917 558.412 423.406 558.858 423.087 559.239 422.83 559.58 422.593 559.882 422.376 560.184 422.159 560.591 421.948 561.104 421.741 561.166 421.704 561.247 421.536 561.347 421.237 561.382 421.22 561.399 421.126 561.399 420.955 561.483 420.703 561.525 420.388 561.525 420.012 561.525 419.635 561.567 419.321 561.651 419.071 561.651 418.525 561.693 418.045 561.777 417.629 561.777 416.911 561.818 416.466 561.901 416.293 561.818 416.163 561.777 415.81 561.777 415.233L561.777 412.344C561.777 410.918 561.651 409.786 561.399 408.95 561.399 408.594 561.357 407.835 561.273 406.672 563.142 406.672 564.204 407.187 564.458 408.218 564.458 408.281 564.521 408.417 564.647 408.627 564.773 408.837 564.836 409.081 564.836 409.358L565.002 409.944C565.124 410.188 565.13 410.228 565.02 410.062L564.992 410.062C565.467 410.538 565.788 411.069 565.955 411.654 566.041 411.903 566.101 412.115 566.134 412.29L566.148 412.635 566.648 413.604 567.143 414.759C567.361 415.415 567.469 415.991 567.469 416.489L567.469 416.285C567.803 416.706 567.97 417.402 567.97 418.373 567.97 418.169 568.055 418.151 568.222 418.319 568.222 418.791 568.347 419.278 568.598 419.781L568.598 420.7 568.756 420.737 569.381 420.737C569.695 421.776 569.832 422.383 569.79 422.559L569.746 422.678 569.989 423.399C570.023 423.72 569.978 424.024 569.853 424.311 569.853 424.358 569.811 424.476 569.727 424.666L569.37 425.408 569.385 425.596C569.366 425.986 569.234 426.181 568.987 426.181L568.85 426.364 568.85 427.843 568.702 427.652 568.42 428.759C568.42 428.759 568.387 428.793 568.32 428.861L568.222 428.961 568.222 428.669 568.207 428.977 568.021 429.166C567.889 429.302 567.839 429.393 567.872 429.44L568.184 429.447 568.183 429.461C568.105 430.14 567.909 430.482 567.595 430.487 567.679 430.219 567.427 430.463 566.84 431.219L565.461 431.973C565.461 431.973 565.401 432.034 565.28 432.154 565.16 432.275 565.1 432.335 565.1 432.335 565.1 432.335 565.079 432.377 565.038 432.461 564.996 432.544 564.804 432.585 564.46 432.585L563.329 433.34 563.094 433.34C562.927 433.508 562.717 433.592 562.464 433.592 562.2 433.856 561.78 434.06 561.203 434.204 560.627 434.348 560.289 434.444 560.191 434.494 559.236 434.812 558.692 434.972 558.56 434.972L557.433 435.474C556.981 435.474 556.586 435.516 556.251 435.6 555.915 435.684 555.549 435.726 555.152 435.726L555.096 435.726 554.904 435.822 553.22 436.102C553.22 436.102 553.165 436.102 553.057 436.102 552.948 436.102 552.894 436.102 552.894 436.102L552.267 436.102C552.869 436.102 553.17 436.105 553.17 436.112L550.756 436.354 548.477 436.354C548.028 436.438 547.663 436.459 547.384 436.417 547.104 436.375 546.789 436.354 546.439 436.354 546.425 436.27 546.354 436.249 546.224 436.291 546.094 436.333 545.794 436.292 545.324 436.168 544.943 436.04 544.509 435.976 544.023 435.976 543.018 435.809 542.34 435.726 541.991 435.726 541.617 435.628 541.19 435.526 540.71 435.418 540.229 435.31 539.919 435.238 539.78 435.204 539.308 435.085 538.842 434.984 538.38 434.9 537.918 434.816 537.552 434.683 537.28 434.502 536.502 434.268 535.246 433.669 533.51 432.703 533.51 432.703 533.246 432.44 532.719 431.911 531.969 430.909 531.594 430.407 531.594 430.407 530.939 429.657 530.42 428.839 530.04 427.953 530.04 427.967 529.904 427.837 529.632 427.565 529.319 426.937 529.162 426.425 529.162 426.029 528.911 425.36 528.785 424.733 528.785 424.149 528.785 423.892 528.795 423.679 528.816 423.509L528.855 423.354 528.572 422.933C528.463 422.596 528.409 422.164 528.409 421.637L528.409 420.381C528.409 419.746 528.534 419.303 528.785 419.053L529 418.298 528.483 419.119C528.258 419.4 528.009 419.642 527.736 419.847 527.3 420.04 527.081 420.148 527.079 420.169 527.079 420.666 526.986 421.039 526.8 421.288L526.451 421.443 526.451 421.691C526.367 421.894 526.346 422.079 526.388 422.246 526.43 422.413 526.451 422.587 526.451 422.767L526.451 427.665 526.451 429.547 526.451 430.213C526.283 430.324 526.221 430.419 526.262 430.498 526.304 430.578 526.325 430.721 526.325 430.929 526.325 431.621 526.274 432.173 526.172 432.583 525.981 433.733 525.779 434.466 525.566 434.782L524.699 437.266C524.074 438.336 523.617 439.163 523.326 439.744L522.631 439.744C522.487 439.793 522.423 439.808 522.437 439.788 522.437 440.428 522.202 440.727 521.73 440.685L521.558 440.668 521.558 441 518.865 440.748C518.704 440.748 518.382 440.652 517.898 440.459 517.415 440.266 517.096 439.861 516.941 439.244 517.005 439.34 516.866 439.319 516.523 439.182 516.242 438.9 515.73 438.619 514.987 438.336 515.155 437.605 515.155 437.202 514.988 437.126 514.821 437.05 514.737 436.99 514.737 436.946 514.542 436.783 514.079 436.397 513.349 435.789 512.619 435.18 512.035 434.75 511.597 434.498 511.408 434.435 511.203 434.324 510.982 434.166L510.568 433.806 506.614 436.412C504.178 437.964 501.876 438.74 499.709 438.74 497.518 438.74 496.422 437.769 496.422 435.828 496.422 435.949 496.38 435.968 496.296 435.884 496.296 435.796 496.302 435.759 496.314 435.774 496.016 435.356 495.792 434.953 495.643 434.565L495.543 434.065 494.304 433.235C494.26 433.058 494.14 432.941 493.943 432.884 493.029 432.425 492.45 431.709 492.206 430.737 492.159 430.64 492.086 430.446 491.988 430.154 491.89 429.863 491.799 429.591 491.715 429.339 491.591 428.969 491.529 428.452 491.529 427.789L491.529 427.287 491.529 423.981C491.628 423.294 491.715 422.588 491.792 421.863 491.869 421.137 491.907 420.211 491.907 419.083 492.169 417.245 492.466 414.586 492.796 411.106L493.285 406.828 493.174 405.934C492.831 404.39 492.66 403.136 492.66 402.172 492.66 401.469 492.715 400.946 492.824 400.604 492.881 400.35 492.91 400.016 492.91 399.602 492.91 399.187 493.562 398.487 494.868 397.502 495.401 398.772 495.903 399.742 496.374 400.41 496.846 401.078 497.173 401.594 497.355 401.958 497.5 402.326 497.925 402.932 498.63 403.778L499.973 405.586 500.033 405.3 499.872 403.732 499.999 402.503 499.515 402.124C499.149 401.74 498.788 401.164 498.43 400.396 498.681 400.022 498.806 399.903 498.806 400.038 498.806 399.336 499.007 398.885 499.408 398.684 499.81 398.482 500.074 398.318 500.2 398.192 500.531 398.082 500.717 398.013 500.761 397.985 500.804 397.956 500.91 397.858 501.077 397.69 501.236 397.638 501.315 397.625 501.315 397.652 501.315 397.377 501.336 396.949 501.377 396.366 501.418 395.784 501.398 395.303 501.315 394.921 501.315 394.557 501.269 394.239 501.177 393.967 500.732 393.197 500.378 392.588 500.113 392.139L499.908 391.794 498.053 392.779 498.053 391.015 498.934 389.78 498.896 389.648C498.864 389.54 498.816 389.377 498.752 389.16L498.672 388.886 497.252 389.824C496.773 390.093 496.315 390.301 495.879 390.447 495.049 390.817 494.316 391.047 493.679 391.137 493.365 391.227 492.933 391.251 492.383 391.209 491.834 391.168 491.381 391.147 491.024 391.147L490.003 390.737 489.092 389.977C488.99 389.873 488.472 389.466 487.535 388.755 487.146 388.627 486.678 388.151 486.131 387.327 485.834 386.434 485.284 385.659 484.48 385.003 483.817 384.337 483.485 384.005 483.485 384.005 483.162 383.681 483 382.738 483 381.177 484.4 381.377 485.215 381.49 485.445 381.516 485.676 381.542 485.966 381.639 486.315 381.807 486.522 381.807 486.78 381.875 487.087 382.01L487.904 382.476 490.396 381.169 493.469 379.117 498.506 375.712 504.702 372.118 507.541 370.566C508.554 369.857 509.455 369.502 510.242 369.502 510.588 369.362 511.346 369.195 512.516 369ZM509.844 385.72 509.513 386.015C509.513 386.015 509.443 386.084 509.305 386.223 509.166 386.362 509.097 386.431 509.097 386.431 508.628 386.51 508.298 386.659 508.105 386.88 507.913 387.101 507.755 387.272 507.633 387.395 507.349 387.679 506.999 387.904 506.582 388.071 506.267 388.386 505.977 388.609 505.711 388.741L505.237 389.07 506.162 389.721C507.212 391.815 507.845 393.1 508.06 393.577L508.126 393.757 508.59 393.141C508.676 392.284 508.865 391.303 509.156 390.2 509.447 389.097 509.677 388.142 509.844 387.337L509.844 385.72ZM501.305 387.271 500.998 387.446 501.146 387.459 501.305 387.271ZM508.174 393.799 509.083 394.175C509.035 394.029 508.928 393.923 508.764 393.859L508.174 393.799ZM516.073 399.127 515.894 399.234 515.481 401.998C515.351 403.035 515.287 403.879 515.287 404.53 515.192 405.746 515.169 406.799 515.216 407.69 515.239 408.135 515.257 408.505 515.269 408.8L515.28 409.211 516.048 409.466 516.494 409.786 516.368 406.502 516.244 400.834 516.073 399.127ZM507.166 410.058 507.133 410.342 505.792 413.566 504.581 416.871 505.025 416.502C505.77 415.772 506.511 414.935 507.249 413.99L507.569 413.669C507.747 413.49 507.836 413.341 507.836 413.222 507.836 413.198 507.824 413.16 507.799 413.106 507.519 412.314 507.309 411.311 507.169 410.095L507.166 410.058ZM516.581 412.06 516.492 412.068C516.492 412.547 516.513 412.766 516.554 412.724 516.596 412.683 516.617 412.776 516.617 413.002L516.581 412.06ZM500.267 417.859 500.214 418.607 500.083 420.25 500.21 420.233 500.226 420.233C500.226 420.233 500.511 420.043 501.08 419.663L501.538 419.314 500.267 417.859ZM500.195 421.371C500.169 421.364 500.095 421.415 499.973 421.525L500.332 421.372 500.195 421.371ZM499.334 428.237 499.327 428.35C499.264 429.335 499.136 429.966 498.943 430.245L498.867 430.301 499.859 430.151 499.849 430.296 502.103 429.145 501.295 429.065C500.937 428.988 500.572 428.868 500.201 428.706L499.334 428.237ZM516.382 429.789 516.116 430.096 515.08 430.742 515.96 430.953 516.368 431.001 516.368 429.919 516.382 429.789ZM495.419 433.442C495.419 433.701 495.449 433.895 495.508 434.025L495.54 434.048 495.419 433.442ZM569.647 422.383 569.739 422.657 569.727 422.547 569.647 422.383ZM569.343 425.066 569.351 425.17 569.351 425.109 569.343 425.066ZM536.689 397.402 536.689 398.304 536.883 398.271 536.689 397.402Z" fill-rule="evenodd"/><path d="M768.5 369C769.763 369.251 770.508 369.491 770.737 369.72L771.257 369.915 773.028 370.358C773.484 370.448 773.834 370.585 774.078 370.769L774.133 370.769C775.377 370.769 776.089 371.306 776.269 372.38 776.267 372.375 776.375 372.427 776.596 372.537 777.418 372.948 777.985 373.543 778.297 374.322 778.3 374.331 778.523 374.447 778.966 374.67L778.891 374.764 779.179 374.912C779.386 375.148 779.568 375.503 779.726 375.976 779.726 376.51 779.609 377.011 779.375 377.479 779.375 377.479 779.391 377.463 779.423 377.43 779.456 377.398 779.472 377.382 779.472 377.382 779.472 377.483 779.276 377.925 778.885 378.71 778.748 378.779 778.638 378.919 778.554 379.131 778.47 379.343 778.326 379.498 778.123 379.597 777.934 379.976 777.65 380.353 777.273 380.73 777.11 380.973 776.939 381.237 776.758 381.522L776.456 382.012 776.791 382.012C777.383 382.012 777.881 382.147 778.286 382.418L778.676 382.787 778.943 382.8C779.098 382.821 779.196 382.853 779.238 382.895 779.901 382.895 780.232 383.287 780.232 384.07 780.186 383.888 780.244 383.82 780.405 383.866 780.566 383.912 780.729 384.016 780.895 384.177 780.975 384.23 781.049 384.265 781.114 384.28 781.18 384.296 781.403 384.298 781.782 384.285 782.066 384.621 782.254 384.989 782.345 385.387L782.345 385.39 782.464 385.426C782.831 385.687 783.015 386.34 783.015 387.384L781.95 387.917 781.957 388.126C781.913 388.495 781.812 388.862 781.653 389.227 781.717 389.163 781.749 389.169 781.749 389.247 781.069 390.096 780.349 390.479 779.589 390.394L779.137 390.394 778.692 390.617 777.44 390.774 777.12 390.774 776.259 390.901 776.031 390.901 775.904 390.901C775.965 390.901 775.889 390.964 775.678 391.09 775.466 391.216 775.339 391.279 775.298 391.279 775.045 391.448 774.607 391.533 773.982 391.533L773.103 391.861 771.861 392.197 770.451 392.71 770.134 392.869C769.894 392.929 769.656 393.057 769.423 393.251L769.203 393.38 769.578 393.38C769.898 393.38 770.173 393.414 770.403 393.482L770.855 393.733 770.856 393.712C770.994 393.05 771.432 392.614 772.172 392.404L773.139 392.243C773.841 392.243 774.527 392.411 775.199 392.746L776.088 393.042C777.156 393.423 777.897 393.737 778.311 393.983 779.465 394.338 780.42 394.766 781.175 395.269 781.176 395.273 781.126 395.275 781.024 395.275L781.276 395.402 781.78 395.402C782.242 395.861 782.642 396.196 782.98 396.407 783.318 396.618 783.613 396.85 783.866 397.102 784.165 397.302 784.378 397.486 784.504 397.654 784.631 397.823 784.643 397.872 784.541 397.802 784.898 397.802 785.167 397.981 785.347 398.338 785.527 398.694 785.72 399.542 785.925 400.881 785.842 400.881 785.8 400.923 785.8 401.007 785.8 401.09 785.758 401.132 785.673 401.132L785.673 400.098C785.673 400.797 785.289 401.527 784.521 402.287L784.338 402.439 784.033 403.125C783.784 403.312 783.409 403.406 782.91 403.406 782.471 403.504 782.263 403.541 782.285 403.519 781.475 403.98 780.775 404.295 780.183 404.464 779.741 404.686 779.285 404.796 778.815 404.796 777.849 404.796 777.118 404.549 776.622 404.054 776.4 403.832 776.191 403.564 775.994 403.25 775.797 402.935 775.509 402.635 775.13 402.35 774.925 401.94 774.789 401.622 774.723 401.393 774.658 401.164 774.518 400.943 774.304 400.73 774.293 400.661 774.291 400.627 774.296 400.627 773.728 400.344 773.302 399.979 773.017 399.532L773.013 399.523 772.58 399.809C772.321 399.891 772.023 399.911 771.686 399.869 771.779 399.869 771.699 399.911 771.446 399.995 771.36 399.995 771.266 400.013 771.162 400.048 771.059 400.083 771.017 400.091 771.037 400.072L770.614 400.434 770.614 400.099 770.43 400.775C770.222 401.35 769.946 401.637 769.602 401.637 768.844 402.143 768.465 402.396 768.465 402.396L768.35 402.396C768.266 402.48 768.062 402.523 767.74 402.523 767.648 402.659 767.4 402.786 766.994 402.902 766.588 403.018 766.344 403.097 766.26 403.138L764.872 403.895 763.562 404.549 762.263 405.067 762.421 405.128 762.113 405.128C762.954 405.128 763.726 405.278 764.43 405.579L765.75 405.842 766.435 406.183 766.551 405.668C766.656 405.163 766.729 404.765 766.77 404.476 766.77 403.647 766.962 403.233 767.345 403.233L767.472 402.981C769.061 402.981 769.856 403.376 769.856 404.166 769.941 404.335 769.983 404.748 769.983 405.404 769.983 405.537 770.002 405.622 770.039 405.659L770.483 406.694C770.585 406.892 770.696 407.17 770.815 407.526 770.935 407.883 770.995 408.195 770.995 408.462 770.98 408.433 771.014 408.479 771.097 408.602 771.179 408.725 771.279 408.903 771.396 409.138 771.42 409.207 771.53 409.3 771.726 409.418 771.726 409.418 771.921 409.573 772.31 409.884 772.699 410.194 772.893 410.596 772.893 411.088 772.893 410.884 772.91 410.799 772.944 410.832L774.048 412.07C774.375 412.39 774.538 412.779 774.538 413.235L774.538 414.066 774.788 414.325C775.126 414.674 775.296 415.092 775.296 415.58 775.296 416.067 775.038 416.441 774.522 416.699 774.701 416.521 774.79 416.515 774.79 416.681 774.041 417.432 773.443 417.808 772.994 417.808L771.926 417.808C771.757 417.47 771.86 417.301 772.236 417.301 771.692 417.301 771.317 417.197 771.111 416.989L771.102 416.981 770.528 417.117 769.814 417.026 769.786 417.052C769.487 417.218 769.038 417.301 768.439 417.301 767.061 416.774 765.779 416.055 764.596 415.146L762.864 413.786 760.794 412.522C760.542 412.439 760.307 412.332 760.089 412.201 759.871 412.069 759.592 411.948 759.251 411.836 759.171 411.757 759.082 411.701 758.983 411.667 758.883 411.634 758.758 411.617 758.606 411.617 757.851 411.24 757.262 411.009 756.84 410.925 756.676 410.843 756.471 410.745 756.225 410.632L755.636 410.366 755.208 411.18C754.647 412.02 754.345 412.462 754.301 412.506L753.922 413.259C753.672 413.259 753.541 413.265 753.529 413.277 753.467 413.339 752.976 413.965 752.057 415.156 752.197 415.086 752.267 415.05 752.267 415.047 752.267 415.043 752.11 415.198 751.797 415.51L750.427 417.013 749.76 417.414 748.764 418.534 747.404 419.76 746.16 420.876C745.854 421.189 745.542 421.345 745.225 421.345 745.183 421.365 745.004 421.534 744.687 421.85 744.509 421.85 744.25 421.964 743.907 422.192 743.353 422.469 743.06 422.607 743.028 422.607 742.766 422.781 742.635 422.868 742.635 422.868L742.062 423.233 742.724 423.375C742.868 423.422 743.149 423.446 743.568 423.446L744.834 424.078 746.206 424.764 746.841 425.269C747.271 425.485 747.486 425.593 747.486 425.593 747.657 425.593 747.957 425.807 748.387 426.237 748.578 426.615 748.797 427.009 749.044 427.42L749.343 428.013 749.609 428.556 749.609 429.198 749.406 429.606 749.447 429.57C749.906 429.263 750.32 428.992 750.692 428.757 751.063 428.521 751.36 428.292 751.582 428.069 752.004 427.754 752.422 427.411 752.835 427.039L754.244 426.045 754.286 424.258C754.314 423.69 754.358 423.176 754.416 422.715 755.024 422.108 755.565 421.804 756.038 421.804L755.57 421.804 755.859 421.422 757.757 421.929C758.253 421.929 758.627 422.055 758.88 422.309 759.03 422.309 759.268 422.465 759.593 422.778 760.043 423.222 760.397 423.508 760.653 423.637L761.923 424.478C761.906 424.461 762.005 424.473 762.22 424.515 762.436 424.557 762.66 424.695 762.893 424.927 762.747 424.782 762.76 424.709 762.93 424.709 763.015 424.709 763.115 424.782 763.231 424.928L763.376 425.168 763.456 425.11C763.674 425.011 763.9 424.961 764.136 424.961L764.416 425.009 764.112 424.553C764.112 424.082 764.112 423.715 764.112 423.454L764.276 423.126 764.193 422.961 763.946 422.865C763.804 422.698 763.733 422.449 763.733 422.117 763.733 421.452 764.011 420.842 764.567 420.287L765.224 420.287 766.744 419.909 767.214 419.909 767.843 419.404C767.955 419.404 768.173 419.34 768.497 419.212 768.658 419.149 768.823 419.122 768.992 419.133L769.47 419.266 770.388 419.174C771.312 418.99 771.884 418.899 772.103 418.899 772.416 418.774 772.888 418.643 773.518 418.507 774.148 418.371 774.622 418.264 774.939 418.186L776.523 417.76C776.264 417.76 776.13 417.769 776.122 417.788 776.351 417.442 776.606 417.182 776.886 417.009L777.497 416.836 777.784 416.305C777.931 416.108 778.119 415.909 778.348 415.708 778.807 415.307 779.319 415.191 779.883 415.361 780.136 415.361 780.387 415.422 780.634 415.542L781.214 415.971 781.783 415.898C782.108 415.877 782.51 415.866 782.991 415.866 783.935 415.866 784.408 415.909 784.408 415.993 784.26 415.993 784.271 416.035 784.44 416.118 784.777 416.118 785.172 416.231 785.623 416.456 785.772 416.567 786.076 416.623 786.534 416.623 787.616 416.623 788.504 417.028 789.199 417.838 790.048 418.686 790.472 419.11 790.472 419.11L790.734 420.019C790.904 420.186 790.988 420.334 790.988 420.464L790.933 420.502 791.075 420.595C791.252 420.772 791.451 421.006 791.671 421.299 791.89 421.591 792 421.935 792 422.331L792 422.999C791.711 423.288 791.576 423.404 791.594 423.347 791.612 423.291 791.621 423.247 791.621 423.214 791.621 423.747 791.366 424.266 790.857 424.772 790.813 424.816 790.781 424.851 790.763 424.876 790.744 424.902 790.734 425.029 790.734 425.259L789.723 426.015 789.723 425.488C789.723 426.093 789.563 426.514 789.243 426.751 788.923 426.987 788.744 427.128 788.707 427.172 788.539 427.34 788.361 427.797 788.175 428.544 787.978 428.544 787.852 428.523 787.795 428.482L787.799 428.46 787.441 428.814 786.951 429.303 786.735 429.264 785.925 429.959C785.65 430.506 785.319 430.829 784.932 430.927L784.698 431.314 785.432 431.436 787.3 432.009 788.612 432.663C789.015 433.229 789.113 433.8 788.906 434.376L788.876 434.418 788.95 434.818C789.029 435.857 788.669 436.377 787.868 436.377 787.532 436.545 787.481 436.629 787.715 436.629 787.687 436.688 787.549 436.748 787.303 436.81 787.056 436.871 787.003 436.832 787.143 436.693L786.514 437.194 785.808 437.892C785.643 437.892 785.477 437.975 785.311 438.142L783.632 439.538 781.695 440.868C781.268 441.295 780.463 441.861 779.282 442.566L779.611 442.566C779.616 442.557 779.403 442.639 778.97 442.812 778.537 442.985 778.373 443.071 778.476 443.071 778.139 443.409 777.884 443.578 777.712 443.578 777.734 443.535 777.458 443.657 776.884 443.944L775.59 444.427C775.241 444.528 775.039 444.606 774.983 444.661L773.593 445.546C773.085 445.918 772.51 446.061 771.867 445.976L771.603 445.976 770.06 445.976C770.06 445.035 770.06 444.35 770.06 443.921 770.06 443.493 770.422 443.278 771.146 443.278L771.364 443.17C771.583 443.081 771.874 442.746 772.238 442.164L772.692 441.826C772.924 441.363 773.125 441.132 773.295 441.132 773.465 441.132 773.438 441.244 773.212 441.47 773.212 441.47 773.64 441.128 774.495 440.444L774.738 440.25 774.637 440.264 773.52 440.824C773.066 440.975 772.587 441.051 772.083 441.051L770.699 441.178C769.976 441.178 769.297 441.02 768.663 440.703 768.342 440.378 768.043 439.988 767.766 439.532 767.524 439.107 767.445 438.721 767.529 438.375 767.613 438.029 767.655 437.814 767.655 437.729 767.824 437.555 767.833 437.38 767.681 437.206 767.628 436.99 767.408 436.594 767.022 436.019 767.022 436.026 766.938 435.941 766.77 435.765 766.854 435.317 766.885 435.143 766.865 435.242 766.633 434.423 766.601 433.841 766.77 433.498L766.77 431.78C767.56 431.864 767.852 432.04 767.645 432.309 767.84 431.822 767.97 431.546 768.034 431.482 768.034 430.587 768.717 430.14 770.084 430.14 770.3 430.14 770.389 430.147 770.352 430.16 770.711 429.979 771.101 429.888 771.523 429.888 771.313 429.93 771.233 429.876 771.283 429.725L771.642 429.015C771.853 428.805 771.958 428.61 771.958 428.432 772.224 427.765 772.505 427.263 772.801 426.926L772.806 426.917 772.65 426.99C772.366 427.058 772.063 427.071 771.741 427.029 771.449 427.029 771.169 426.94 770.902 426.761 770.635 426.582 770.479 426.471 770.436 426.428 770.099 426.26 769.835 426.081 769.644 425.89 769.454 425.7 769.291 425.582 769.157 425.536 768.821 425.37 768.547 425.251 768.334 425.18 768.122 425.109 767.789 424.997 767.335 424.844 767.305 424.815 767.24 424.792 767.141 424.778L766.861 424.762 766.192 425.261 765.529 425.261 764.895 425.155 765.253 425.387C765.538 425.672 765.68 426 765.68 426.373L765.426 427.524 765.76 428.365C765.815 428.727 765.77 429.061 765.626 429.369 765.662 429.261 765.68 429.441 765.68 429.91L765.68 431.864 765.426 433.333C765.595 433.545 765.68 433.996 765.68 434.687L765.807 435.641 765.68 436.009C765.614 435.895 765.702 436.021 765.944 436.387L766.565 438.777 765.806 438.76 765.807 439.029C765.89 439.118 765.46 439.329 764.516 439.664L763.935 439.811 764.017 439.822 763.316 440.166C763.711 440.166 763.908 440.293 763.908 440.546L761.363 440.293C760.895 440.293 760.457 440.088 760.047 439.679 759.95 439.582 759.775 439.534 759.523 439.534 759.154 439.166 758.878 438.88 758.694 438.676L758.464 438.367 757.612 437.623 756.997 437.214 757.558 437.26C756.846 437.26 756.368 436.93 756.125 436.269 755.881 435.609 755.802 435.195 755.887 435.027L755.869 435.508C755.748 435.269 755.679 435.014 755.661 434.742L755.721 434.214 755.629 434.03C755.544 433.862 755.429 433.635 755.284 433.349 755.143 432.489 755.03 432.016 754.944 431.931L754.666 430.41 754.248 430.876 752.721 432.273 751.503 433.488 750.618 434.373C750.618 434.373 750.393 434.598 749.941 435.047L748.897 435.88 749.23 435.659C749.23 436.138 748.939 436.377 748.357 436.377 748.346 436.388 748.214 436.52 747.961 436.773 747.708 437.025 747.455 437.278 747.202 437.53 745.896 438.834 745.243 439.486 745.243 439.486L744.267 440.339 744.198 440.831C744.007 441.469 743.53 441.95 742.766 442.276L741.049 443.135C740.562 443.514 739.809 443.498 738.788 443.089 738.609 442.911 738.487 442.756 738.421 442.625 738.355 442.493 738.25 442.379 738.106 442.282 738.106 442.282 737.801 441.977 737.189 441.367 736.53 441.103 736.122 440.661 735.966 440.041L735.387 439.174C735.387 438.847 735.424 438.72 735.498 438.794 735.373 438.669 735.197 438.368 734.97 437.89 734.743 437.413 734.776 436.898 735.069 436.345 735.029 436.507 734.989 436.529 734.95 436.409 734.911 436.29 734.888 435.998 734.882 435.534 735.105 435.315 735.383 434.983 735.718 434.536L735.768 434.502 735.768 434.285C736.237 434.05 736.497 433.907 736.548 433.856L737.286 432.071C737.286 431.839 737.347 431.632 737.469 431.45 737.592 431.267 737.691 431.059 737.768 430.826 737.817 430.727 737.863 430.572 737.906 430.363 737.948 430.154 738.053 429.883 738.219 429.55 738.309 429.15 738.415 428.79 738.54 428.47L738.961 427.641 737.354 426.844 736.272 426.303C735.998 426.029 735.796 425.892 735.666 425.892 735.345 425.892 735.067 425.855 734.832 425.78L734.371 425.51 734.205 425.509C733.865 425.465 733.506 425.377 733.13 425.247L732.098 424.092C732.736 422.986 733.293 422.434 733.767 422.434 733.548 422.434 733.524 422.349 733.694 422.178 734.198 421.929 734.566 421.804 734.799 421.804L735.21 421.569C735.48 421.304 735.758 421.172 736.042 421.172 736.131 421.119 736.202 421.065 736.256 421.011 736.099 421.168 736.02 421.167 736.02 421.006 736.02 420.846 736.257 420.648 736.73 420.412 736.73 420.412 736.773 420.369 736.859 420.283L738.306 419.233 738.971 418.681C738.971 418.681 739.168 418.484 739.561 418.09 739.854 417.87 740.276 417.394 740.827 416.663 740.744 416.705 740.702 416.721 740.702 416.712 740.702 416.704 740.825 416.577 741.071 416.331L741.577 415.573C741.577 415.573 741.914 415.236 742.589 414.563L743.349 413.426C743.6 413.175 743.788 412.987 743.914 412.861L743.993 412.782 743.993 412.363 744.369 411.871 744.108 411.871 743.351 411.72 742.053 411.365C740.873 411.365 739.821 411.16 738.896 410.748 738.878 410.738 738.771 410.734 738.576 410.734 737.105 410.734 736.245 410.361 735.998 409.617 735.939 409.587 735.801 409.363 735.585 408.943 735.477 408.733 735.422 408.49 735.42 408.215L735.452 408.024 734.868 407.548C734.667 407.224 734.587 406.84 734.63 406.396 734.545 406.232 734.503 405.93 734.503 405.488 734.503 405.047 734.587 404.796 734.755 404.736L734.376 404.003 734.376 403.635C734.376 403.207 734.488 402.885 734.714 402.671L735.345 402.471 735.414 402.256C735.6 402.065 735.879 401.969 736.251 401.969 736.995 401.969 737.564 402.166 737.959 402.561 738.103 402.675 738.374 402.788 738.771 402.901 739.017 402.961 739.3 403.071 739.62 403.231L740.434 403.713 744.55 402.263C744.992 402.189 745.804 401.879 746.986 401.331 747.333 401.16 747.739 400.989 748.205 400.82 748.67 400.651 749.175 400.431 749.719 400.158L749.869 400.129 750.193 397.346 750.582 395.44 750.572 395.424 750.572 394.631 749.774 393.967 749.103 393.382C748.823 393.103 748.602 392.87 748.438 392.682L748.385 392.612 748.23 392.921C748.104 393.047 747.959 393.233 747.795 393.478L746.702 394.45C745.779 395.368 745.318 395.827 745.318 395.827 745.234 395.827 745.145 395.874 745.05 395.969L744.405 396.613 744.155 396.738C744.247 396.645 744.294 396.77 744.294 397.112 744.041 397.197 743.915 397.281 743.915 397.366L742.377 398.134 742.532 397.979C742.376 398.289 742.113 398.524 741.743 398.683 741.373 398.842 741.162 398.947 741.109 398.998L740.241 399.577C739.573 399.771 738.977 399.731 738.452 399.456 738.19 399.319 737.993 399.174 737.862 399.022L737.766 398.791 737.675 398.859C737.675 398.859 737.333 398.7 736.649 398.384L736.335 398.227 735.909 398.227 734.124 397.191C734.124 397.191 733.738 396.934 732.967 396.42L732.92 396.396C732.28 396.268 731.706 395.827 731.201 395.072 730.907 394.68 730.672 394.309 730.497 393.959 730.321 393.609 730.219 393.412 730.19 393.368 728.971 391.341 728.169 389.944 727.785 389.177L726.529 385.974C726.529 385.595 726.431 385.21 726.235 384.819L725.629 382.517C725.238 381.251 724.999 380.449 724.913 380.112L724.407 378.728C724.136 377.64 724 377.096 724 377.096 724 377.096 724 376.982 724 376.753 724 376.525 724 376.41 724 376.41 724.083 376.308 724.157 376.38 724.22 376.626 723.989 376.21 724.065 375.437 724.449 374.306L726.265 374.306C726.265 374.306 727.002 374.745 728.474 375.624L729.533 376.341 730.044 376.452C730.323 376.621 730.561 376.706 730.76 376.706 731.085 377.019 731.334 377.26 731.508 377.429 731.681 377.599 731.768 377.795 731.768 378.018 731.699 377.881 731.751 377.882 731.925 378.021L732.379 378.444 731.743 378.348 732.425 378.487 732.779 378.817 732.556 378.514 732.852 378.574C733.149 378.724 733.373 378.95 733.525 379.251L733.58 379.36C733.792 379.43 734.144 379.872 734.636 380.688L734.747 381.921C734.815 381.99 734.956 382.237 735.17 382.664 735.784 383.891 736.168 384.736 736.323 385.197 736.323 385.238 736.38 385.375 736.495 385.606L736.569 385.746 737.195 383.513 737.413 382.863C737.413 382.772 737.539 382.304 737.792 381.459 737.707 380.395 737.862 379.863 738.255 379.863L738.749 378.477C738.87 378.183 739.027 377.772 739.219 377.245 739.411 376.718 739.617 376.183 739.836 375.64 739.823 375.88 739.722 376.029 739.531 376.086L738.497 374.927 738.27 374.628 737.675 374.181C737.563 373.958 737.484 373.847 737.437 373.847 736.787 373.847 736.377 373.805 736.208 373.72L735.135 373.72 735.135 371.726 736.524 370.606 737.797 370.186 738.19 370.239 738.338 370.124C738.635 369.963 738.921 369.883 739.197 369.883 739.748 369.883 740.223 370.082 740.622 370.481 740.622 370.482 740.655 370.488 740.722 370.499 740.79 370.51 741.011 370.515 741.388 370.515 742.344 371.152 742.823 371.471 742.823 371.471 742.984 371.551 743.079 371.602 743.109 371.622 743.138 371.642 743.239 371.652 743.411 371.652 744.42 372.325 744.925 372.662 744.925 372.662L746.243 373.829 746.924 374.624 747.678 375.125C748.122 375.569 748.345 375.791 748.345 375.791L748.796 376.422C749.034 376.502 749.264 376.688 749.486 376.981 749.707 377.274 749.883 377.553 750.012 377.819 750.088 378.268 750.084 378.659 749.998 378.992L749.723 379.444 749.721 379.469C749.712 379.441 749.774 379.493 749.907 379.626 750.13 380.176 750.158 380.782 749.992 381.444 749.785 381.86 749.59 382.204 749.408 382.476 749.226 382.747 749.023 383.051 748.798 383.386 748.833 383.351 748.851 383.422 748.851 383.597L748.216 384.863C748.028 384.926 747.93 384.973 747.922 385.004 747.834 385.09 747.778 385.172 747.751 385.252 747.738 385.292 747.728 385.425 747.722 385.65L747.713 386.505 748.081 386.276C748.426 386.059 748.957 385.719 749.675 385.255 749.675 385.255 750.041 384.89 750.773 384.159L753.027 384.159 753.027 385.875 752.519 386.883C752.519 387.129 752.383 387.387 752.11 387.66L751.754 388.897 751.618 389.032 751.708 389.06 751.687 389.132 751.724 389.065 751.793 389.086 752.745 389.561 753.416 389.961 754.252 390.453 754.647 390.348 755.197 390.471 755.089 390.255 755.697 390.394C754.896 389.997 754.496 389.358 754.496 388.477L754.496 388.35C754.496 387.988 754.528 387.695 754.591 387.472L754.805 387.123 754.4 386.088C754.295 385.7 754.242 385.328 754.242 384.974L753.51 383.273 753.23 382.149C753.23 381.812 753.146 381.306 752.976 380.632 752.976 379.989 752.954 379.558 752.91 379.338 752.566 378.651 752.335 378.071 752.217 377.597 752.217 377.644 752.111 377.563 751.901 377.352 751.691 377.141 751.586 376.921 751.586 376.692L751.459 376.312 751.596 375.356 751.586 374.05 754.361 374.306C755.01 374.306 755.578 374.426 756.066 374.668L757.88 375.424 758.841 375.785C759.074 376.017 759.487 376.331 760.081 376.726L760.421 377.075 760.452 377.024C760.604 376.571 761.001 375.943 761.645 375.141L763.739 372.352C764.406 371.593 765.061 371.029 765.706 370.66 766.1 370.31 766.452 370.177 766.762 370.262L767.009 370.331 767.009 370.313C767.138 369.438 767.635 369 768.5 369ZM768.384 372.886 768.336 373.125C768.336 373.288 768.274 373.536 768.15 373.867L767.929 374.361 767.914 374.441 767.922 374.376 767.593 375.111 767.836 374.881 767.786 375.159C767.671 375.448 767.499 375.707 767.27 375.936 767.22 376.084 767.083 376.338 766.858 376.697 766.633 377.056 766.483 377.313 766.408 377.469L766.029 378.481 765.726 379.084C765.639 379.518 765.328 380.231 764.793 381.225L764.793 381.082 764.374 383.179 764.317 383.672 764.382 383.712 764.956 383.139C765.119 382.976 765.2 382.895 765.2 382.895 764.981 382.895 764.872 382.972 764.872 383.125 765.264 382.927 765.589 382.623 765.847 382.211 765.945 381.92 766.301 381.38 766.915 380.591 766.989 380.442 767.111 380.241 767.281 379.988 767.451 379.734 767.616 379.449 767.774 379.131L769.169 377.105 769.384 376.672C769.503 376.318 769.773 375.93 770.195 375.509L770.389 374.934 768.514 372.96 768.384 372.886ZM770.671 375.23 770.683 375.322C770.762 375.518 770.88 375.616 771.037 375.616L770.671 375.23ZM778.827 382.933 779.22 383.638C779.22 383.348 779.144 383.131 778.992 382.986L778.827 382.933ZM760.849 378.293 760.871 378.674 760.871 378.294 760.849 378.293ZM773.767 385.318 773.343 385.847C773.53 385.847 773.671 385.675 773.764 385.33L773.767 385.318ZM738.512 370.264 738.452 370.274 738.608 370.295 739.612 370.628C739.264 370.482 738.94 370.373 738.637 370.299L738.608 370.295 738.512 370.264ZM738.055 370.344 737.688 370.409C737.505 370.506 737.413 370.651 737.413 370.845L738.055 370.344ZM747.585 385.992 746.948 386.621C746.917 386.652 746.91 386.655 746.927 386.629 746.944 386.604 746.952 386.607 746.952 386.637L746.695 387.153 747.181 386.802C747.42 386.64 747.563 386.559 747.609 386.559L747.665 386.53 747.617 386.452C747.596 386.35 747.585 386.196 747.585 385.992ZM737.657 388.999 737.967 389.643C737.967 389.373 737.9 389.171 737.765 389.035L737.657 388.999ZM755.447 391.314 755.81 391.565C755.81 391.454 755.696 391.371 755.468 391.316L755.447 391.314ZM747.786 391.824C747.788 391.844 747.82 391.915 747.881 392.038L747.954 392.038 747.865 391.92C747.809 391.837 747.783 391.805 747.786 391.824ZM736.49 395.81 736.494 395.829 736.497 395.83 736.49 395.81ZM756.014 392.875C755.896 393.639 756.123 393.908 756.695 393.68L756.695 392.896 756.014 392.875ZM759.121 396.307 758.842 396.496 758.987 396.437 759.068 396.409 759.121 396.307ZM734.011 425.012 734.033 425.156 734.135 425.231 734.011 425.012ZM734.519 425.51 734.522 425.512C734.956 425.512 735.174 425.512 735.174 425.512L734.519 425.51ZM765.297 437.307 765.648 438.15 765.68 438.164C765.511 438.005 765.383 437.72 765.297 437.307ZM784.408 431.768 783.945 432.044 784.228 432.003C784.348 431.951 784.408 431.872 784.408 431.768ZM788.225 435.085 787.673 435.24C787.896 435.24 788.08 435.19 788.222 435.09L788.225 435.085ZM754.242 427.969 754.242 429.049 754.385 429.175 754.381 429.16 754.242 427.969Z" fill-rule="evenodd"/><path d="M725.386 425.016C726.202 425.114 726.609 425.648 726.609 426.618 726.609 427.028 726.849 427.409 727.329 427.763 727.561 427.842 728.026 428.102 728.726 428.544 729.303 428.837 729.664 429.129 729.809 429.419 729.809 429.419 729.864 429.475 729.975 429.588 730.087 429.7 730.142 429.757 730.142 429.757 730.142 430.185 730.237 430.543 730.426 430.831 730.635 431.148 730.825 431.502 730.997 431.894 731.169 432.286 731.434 432.707 731.79 433.157 731.9 433.492 732.039 433.851 732.207 434.234 732.375 434.617 732.493 434.912 732.56 435.118 732.656 435.311 732.761 435.607 732.874 436.007 732.931 436.207 732.973 436.367 733.002 436.488L733.014 436.56 733.475 437.12C733.608 437.471 733.675 437.929 733.675 438.494L733.675 438.716 734.101 439.904C734.405 440.419 734.557 440.824 734.557 441.118 734.642 441.286 734.684 441.496 734.684 441.748L734.59 442.405 734.958 443.049C735.04 443.462 735.003 443.937 734.847 444.474 734.652 444.681 734.474 444.868 734.311 445.036 734.148 445.204 734.108 445.288 734.19 445.288 734.105 445.457 733.817 445.542 733.325 445.542L732.867 445.607C732.867 445.607 732.919 445.554 733.024 445.449 733.128 445.343 733.181 445.29 733.181 445.29 732.727 445.969 731.836 446.161 730.508 445.866L730.441 445.799 729.429 445.799C729.089 445.799 728.898 445.756 728.856 445.67 728.815 445.585 728.838 445.542 728.926 445.542 728.76 445.373 728.549 445.288 728.293 445.288 726.989 443.967 726.213 443.12 725.966 442.746 725.881 442.572 725.747 442.348 725.565 442.072 725.384 441.797 725.286 441.642 725.273 441.607 725.166 441.551 725.016 441.33 724.824 440.942 724.632 440.555 724.493 440.276 724.409 440.105 724.314 439.912 724.227 439.696 724.149 439.459 724.07 439.221 723.974 439.017 723.86 438.844 723.638 438.507 723.409 437.983 723.175 437.274L722.409 435.197 721.973 433.875 721.387 432.393C721.387 432.328 721.399 432.307 721.423 432.332 721.131 431.446 720.948 430.93 720.876 430.784 720.668 430.363 720.516 429.934 720.418 429.496 720.32 429.058 720.223 428.649 720.127 428.27 720.127 428.081 720.084 427.799 720 427.424L720.573 425.957C720.934 425.957 721.179 425.915 721.305 425.83 721.432 425.745 721.677 425.703 722.042 425.703 721.438 425.703 721.135 425.617 721.135 425.447 721.859 425.447 722.389 425.362 722.727 425.192 723.396 425.192 723.857 425.15 724.112 425.064L724.435 425.064C724.797 425 725.115 424.984 725.386 425.016ZM734.354 441.993 734.557 442.348 734.557 442.129C734.422 442.038 734.354 441.993 734.354 441.993Z" fill-rule="evenodd"/></g></svg>