<?xml version="1.0" encoding="utf-8"?>
<!-- Generator: Adobe Illustrator 26.0.3, SVG Export Plug-In . SVG Version: 6.00 Build 0)  -->
<svg version="1.1" id="图层_1" xmlns="http://www.w3.org/2000/svg" xmlns:xlink="http://www.w3.org/1999/xlink" x="0px" y="0px"
	 viewBox="0 0 720 720" style="enable-background:new 0 0 720 720;" xml:space="preserve">
<g>
	<g>
		<path class="st0" d="M361.32,711c-6.55-10.7-12.64-20.62-18.71-30.55c-10.18-16.67-20.59-33.21-30.35-50.12
			c-2.72-4.72-4.01-10.45-5.12-15.88c-3.91-19.19-7.38-38.47-11.27-57.67c-0.32-1.58-2.28-3.61-3.85-4.03
			c-40.57-10.69-74.36-32.02-101.37-64.1c-0.2-0.24-0.25-0.61-0.54-1.36c14.15-4.1,22.91-12.92,22.07-28.36
			c-0.6-11.02-6.95-18.62-17.15-22.7c-10.4-4.16-19.46-1.3-31.08,9.77c-0.94-2.07-1.88-3.92-2.64-5.83
			c-20.41-51.35-20.32-102.58,2.12-153.17c17.18-38.74,43.46-68.85,84.58-83.67c1.99-0.72,3.99-1.4,6.77-2.38
			c-24.79,24.11-37.51,53.16-42.45,85.87c-4.97,32.9,0.87,64.21,15.13,94.28c-10.25-7.42-18.75-16.53-24.42-27.61
			c-5.58-10.89-9.68-22.54-13.76-32.29c-2.95,20.83,4.67,64.72,28.26,98.41c23.98,34.26,56.24,55.84,97.03,65.35
			c1.6-5.54-1.59-9.41-4.31-12.55c-5.71-6.59-6.02-13.99-5.69-21.97c1-24.36,1.81-48.73,2.57-73.1c0.15-4.66,1.74-8.11,5.48-11.14
			c3.29-2.66,6.77-4.97,7.77-10.32c1.52-8.08-1.16-12.97-7.49-17.19c-1.54-1.03-2.75-3.75-2.74-5.68
			c0.03-9.18,0.38-18.37,0.96-27.53c0.2-3.18-0.62-5.2-3.1-7.22c-7.89-6.45-15.57-13.16-23.32-19.78c-5.91-5.05-5.9-5.06-1.79-12.91
			c-15,12.8-26.28,27-35.11,43.27c-0.41-0.15-0.83-0.3-1.24-0.45c0.35-2.68,0.59-5.38,1.07-8.04c5.67-31.44,18.19-59.68,39.09-84.07
			c1.02-1.19,1.88-4.04,1.23-4.89c-10.3-13.38-12.71-29.88-18.18-45.15c-2.3-6.42-4.19-12.99-6.29-19.48
			c-1.66-5.14-0.81-6.57,4.58-7.37c4.46-0.66,8.93-1.63,13.4-1.67c2.27-0.02,5.21,1.11,6.7,2.76c4.25,4.7,7.85,9.98,11.83,14.93
			c4.81,5.98,16.86,5.33,20.9-1.04c1.16-1.83,2.49-3.6,3.4-5.55c3.38-7.31,9.19-11.68,16.66-14.09c3.82-1.23,5.39-3.5,5.35-7.75
			c-0.27-30.42-0.09-60.84-0.5-91.26c-0.12-8.74-1.73-17.47-2.72-26.71c12.38,0,24.32,0,36.43,0c-1,15.27-2.53,30.53-2.87,45.83
			c-0.52,23.41-0.27,46.83-0.21,70.25c0.01,3.86,0.45,7.74,5.33,9.04c10.5,2.8,15.7,11.15,20.69,19.82
			c4.01,6.97,15.86,7.55,20.97,1.15c3.86-4.83,7.64-9.73,11.33-14.69c2-2.69,4.24-3.82,7.72-3.03c3.88,0.88,7.9,1.36,11.88,1.58
			c4.73,0.26,6.21,2.64,5,6.86c-2.15,7.52-4.28,15.05-6.85,22.43c-1.36,3.92-0.89,5.6,3.32,7.35
			c29.57,12.24,54.52,30.82,75.33,56.11c-14.77,4.06-23.33,12.95-22.5,28.4c0.58,10.82,6.5,18.57,16.63,22.46
			c12.41,4.76,22.46,0.25,31.45-9.6c0.97,2.11,1.85,3.81,2.54,5.57c24.23,61.95,19.51,121.32-15.34,178.28
			c-17.19,28.09-41.01,47.7-71.77,59.09c-1.8,0.67-3.65,1.21-5.24,1.73c23.48-23.84,36.72-52.57,41.5-85.25
			c4.81-32.83-0.63-64.22-15.06-94.24c10.51,7.27,18.8,16.57,24.47,27.67c5.55,10.88,9.64,22.5,13.68,32.16
			c5.29-65.97-40.84-137.84-106.84-157.94c1.18,2.99,1.76,5.56,3.11,7.63c4.46,6.86,9.07,13.64,13.89,20.26
			c2.52,3.45,2.12,5.7-1.2,8.38c-8.32,6.72-16.33,13.82-24.6,20.61c-3.14,2.57-4.26,5.39-3.94,9.53c0.67,8.48,1.1,17.03,0.73,25.51
			c-0.12,2.81-2.44,6.17-4.74,8.12c-7.07,6-8.39,16.85-1.02,22.37c7.35,5.51,9.14,12.3,9.33,20.68c0.54,23.89,1.56,47.77,2.04,71.66
			c0.09,4.76-1.39,9.55-2.19,14.58c23.95-14.24,43.07-34.15,57.05-59.24c0.39,0.16,0.77,0.32,1.16,0.49
			c-0.42,3.04-0.72,6.11-1.29,9.13c-6.16,32.61-19.53,61.7-42.04,86.38c-1.73,1.89-2.86,4.46-3.77,6.91c-0.37,1.01,0.27,3.39,1,3.66
			c7.73,2.91,4.88,9.2,4.01,14.02c-3.59,19.94-7.8,39.76-11.71,59.64c-2.08,10.6-3.9,21.25-6.07,31.83
			c-0.49,2.37-1.72,4.68-2.99,6.8c-15.67,26.05-31.4,52.05-47.14,78.06C363.59,708.16,362.71,709.14,361.32,711z"/>
		<path class="st0" d="M278.35,653.71c-34.3-19.79-68.31-39.41-102.32-59.04c-24.31-14.03-48.59-28.12-72.94-42.09
			c-25.47-14.62-38.07-36.55-38.05-65.9c0.05-84.3,0.05-168.6,0-252.89c-0.01-29.14,12.44-51.03,37.69-65.6
			C168.73,130.09,234.71,92,300.7,53.92c1.42-0.82,2.89-1.56,4.86-2.61c0.32,2.58,0.8,4.79,0.85,7c0.28,12.87,0.43,25.75,0.68,38.62
			c0.08,4.17-1.82,5.61-5.65,4.19c-18.02-6.68-35.68-2.52-52.92,2.68c-10.45,3.16-17.85,11.42-21.68,21.53
			c-2.53,6.68-2.54,14.3-4.07,21.41c-0.33,1.55-2.08,3.17-3.59,4.05c-24.26,14.12-48.54,28.19-72.91,42.12
			c-25.38,14.51-37.84,36.4-37.86,65.49c-0.03,67.91-0.02,135.81,0,203.72c0.01,29.1,12.51,50.95,37.85,65.5
			c37.53,21.55,74.95,43.28,112.48,64.82c3.19,1.83,4.71,3.93,5.38,7.65c2.28,12.64,4.79,25.25,7.83,37.73
			C273.23,643.16,276.05,648.13,278.35,653.71z"/>
		<path class="st0" d="M416.75,101.6c0-16.31,0-32.28,0-49.05c2.22,1.16,3.81,1.92,5.32,2.79c64.7,37.32,129.33,74.76,194.13,111.93
			c26.36,15.12,39.27,37.39,39.2,67.82c-0.2,83.97-0.08,167.95-0.06,251.92c0.01,28.94-12.4,50.74-37.46,65.23
			c-56.14,32.44-112.3,64.83-168.46,97.23c-1.25,0.72-2.56,1.35-4.66,2.45c10.12-17,10.31-35.75,14.43-53.45
			c0.83-3.58,2.46-5.39,5.38-7.07c36.51-20.98,72.87-42.22,109.47-63.04c26.29-14.95,39.08-37.25,39.02-67.41
			c-0.14-67.25-0.1-134.49-0.02-201.74c0.04-29.73-12.55-51.93-38.5-66.68c-23.97-13.62-47.76-27.57-71.68-41.28
			c-2.56-1.47-3.76-2.65-3.37-6.11c1.74-15.3-8.44-34.67-22.37-40.65c-7.53-3.23-16.21-3.65-24.25-5.8
			c-11.88-3.17-23.07-0.46-34.24,3.18C418.2,102.01,417.66,101.74,416.75,101.6z"/>
	</g>
</g>
</svg>
