<?xml version="1.0" encoding="UTF-8"?>
<!DOCTYPE svg PUBLIC "-//W3C//DTD SVG 1.1//EN" "http://www.w3.org/Graphics/SVG/1.1/DTD/svg11.dtd">
<!-- Creator: CorelDRAW 2021 (64-Bit) -->
<svg xmlns="http://www.w3.org/2000/svg" xml:space="preserve" width="162.56mm" height="91.44mm" version="1.1" style="shape-rendering:geometricPrecision; text-rendering:geometricPrecision; image-rendering:optimizeQuality; fill-rule:evenodd; clip-rule:evenodd"
viewBox="0 0 16256 9144"
 xmlns:xlink="http://www.w3.org/1999/xlink"
 xmlns:xodm="http://www.corel.com/coreldraw/odm/2003">
 <defs>
  <style type="text/css">
   <![CDATA[
    .fil0 {fill:black}
   ]]>
  </style>
 </defs>
 <g id="图层_x0020_1">
  <metadata id="CorelCorpID_0Corel-Layer"/>
  <path class="fil0" d="M14741.09 4436.52l-203.22 203.22 867.23 0 0 287.87 -1212.62 1212.62 0 -526.84 685.78 -685.78 -628.26 0 -452.91 452.91 0 -526.84 417.16 -417.16 -282.91 0 287.86 -287.85 0.01 0 0 -0.02 282.91 0 81.7 0 -135.45 -135.45 526.84 0 135.45 135.45 294.44 0 135.45 -135.45 0.03 0 0 423.32 -0.01 0 -423.32 0 -8.46 0 -237.1 0 -130.6 0zm-511.9 -550.32l-619.03 619.03 0 -526.84 141.51 -141.51 238.22 -238.55 0.33 0 526.84 0 1023.51 0 0 287.87 -1311.38 0zm-8622.33 -1092.2l254 254 349.43 0 2079.28 0 2323.39 0 0 8.47 0 279.4 0 423.33 0 287.87 -372.52 0 -194.74 0 0 279.4 50.8 0 143.93 0 372.53 0 0.01 812.8 -1210.73 1210.73 0 -526.84 838.2 -838.2 -0.01 -370.62 -194.72 0 -237.06 0 -135.45 135.45 -0.02 0 0 -135.45 -0.01 0 0 -287.87 0 -279.4 0 -287.87 372.53 0 194.74 0 -0.01 -423.33 -1711.89 0 -423.33 423.33 797.49 0 237.07 0 135.44 -135.44 0.03 0 0 423.31 -0.01 0 0 1159.93 0 287.87 -372.52 0 -1490.13 0 -237.05 0 -135.45 135.45 -0.02 0 0 -135.45 -0.01 0 0 -287.87 -0.01 -1447.8 8.46 0 364.07 0 165.8 0 423.33 -423.33 -1791.4 0 0 152.4 -372.53 0 0 -152.4 -215.88 0 -224.39 0 0 152.4 -372.53 0 0 -152.4 -414.87 0 0 -287.87 414.86 0 309.06 0 -254 -254 526.84 0zm9029.69 0l254 254 353.68 0 304.81 0 0 287.87 -304.8 0 0 152.4 -372.53 0 0 -152.4 -220.13 0 -220.14 0 0 152.4 -372.53 0 0 -152.4 -304.81 0 0 -287.87 304.8 0 304.81 0 -254 -254 526.84 0zm-1602.1 2286.94l-566.33 566.33 -526.84 0 -1395.33 0 285.5 -287.87 615.5 0 -0.01 -431.79 -512.22 0 -135.45 135.45 -0.02 0 0 -135.45 -0.01 0 0 -287.86 0 -0.01 0.01 0 -0.01 -338.67 0 -245.53 0 -42.34 647.7 0 0 -127 -182.02 0 -372.53 0 -0.01 0 0 -287.87 0 -262.46 0 -287.87 372.53 0 736.6 0 237.07 0 135.44 -135.44 0.03 0 0 423.31 -0.01 0 0.01 550.33 -0.01 0 -372.52 0 -182.05 0 0 127 647.7 0 0 42.34 0.01 846.67 -0.01 0 0 25.4 -647.7 0 0.01 431.79 409.67 0 805.29 -805.29 0 -794.91 -135.45 0 -135.45 135.45 -0.02 0 0 -135.45 -0.01 0 0 -287.86 0 -0.01 270.93 0 0 -558.77 372.53 0 0 558.77 270.94 0 0 287.87 -270.94 0 0 779.88 0 169.34 0.01 1059.28 -372.53 372.53 0 -1059.29zm-11590.87 -274.1l-0.01 0.01 0.01 960.85 -372.53 372.53 0 -960.86 -364.08 364.08 0 -526.84 364.07 -364.07 0 -715.53 -228.59 0 -135.46 135.46 -0.02 0 0 -135.46 0 -287.86 0 -0.01 364.07 0 0 -264.4 -262.47 18.35 0 -288.57 826.38 -57.79 144.89 -144.89 0.02 0 0 423.32 0 0.01 -336.29 23.52 0 290.45 397.93 0 0 287.87 -397.93 0 0 343 0.01 -0.01 0 526.84zm7278.05 -480.37l-601.14 601.14 -526.84 0 601.14 -601.14 526.84 0zm-1884.79 1024.47l-296.33 296.33 -526.84 0 -65.83 0 -372.53 0 -0.01 0 0 -287.87 0.01 0 -0.01 -304.8 -143.93 0 -1295.4 1295.4 0 -526.84 768.56 -768.56 -116.62 0 -84.65 84.65 -0.01 0 0 -84.65 -0.01 0 0 -287.87 0 -0.01 0.01 0 0 -88.89 -0.01 0 0 -287.87 0 -88.89 0 -287.87 372.53 0 1092.2 0 287.87 0 84.66 -84.66 0.02 0 0 372.53 -0.01 0 0 88.89 0 287.87 0 88.9 0 245.54 0 42.33 -592.68 0 0.01 304.8 353.7 0 535.3 -535.3 0 526.84zm-2302.94 -373.02l-669.22 669.22 0 0.13 -0.13 0 -526.84 0 -810.41 0 -372.53 0 0 -590.77 -541.87 541.87 0 -526.84 541.86 -541.86 0 -905.94 0.01 0 575.73 -575.73 0 526.84 -203.21 203.21 0 379.09 558.81 -558.81 889 0 0 -685.77 372.53 0 0 685.77 2285.05 0 135.45 -135.45 0.02 0 0 135.45 0 287.87 -423.33 0 -1997.19 0 0.01 751.14 186.26 -186.26 0 526.84zm-908.32 381.48l349.53 -349.53 -0.01 -1123.67 -650.03 0 -797.77 797.77 0 675.43 1098.28 0zm-141.54 -796.01l-584.22 584.22 0 -526.84 584.22 -584.22 0 526.84zm7687.74 76.35l50.79 0 224.37 0 0 -338.67 -275.17 0 0.01 338.67zm647.69 0l275.18 0 -0.01 -338.67 -275.17 0 0 338.67zm-554.56 -1041.41l182.03 0 372.53 0 182.04 0 0 -262.46 -50.79 0 -685.81 0 0 262.46zm-2362.21 448.74l-50.79 0 -1034.57 0 -404.77 0 0.01 1159.93 50.8 0 1439.33 0 -0.01 -1159.93zm1710.26 0l0.01 0 -0.01 0zm-5537.19 342.89l1092.2 0 0 -88.89 -1092.2 0 0 88.89zm1092.21 287.87l-1092.2 0 0 88.9 116.62 0 975.58 0 0 -88.9zm3107.25 817.04l0.01 0 -0.01 0zm-7289.8 -1549.4l0.01 526.85 -0.01 -0.01 -372.52 372.52 -0.01 -526.83 372.53 -372.53z"/>
 </g>
</svg>
