<?xml version="1.0" encoding="UTF-8"?>
<!DOCTYPE svg PUBLIC "-//W3C//DTD SVG 1.1//EN" "http://www.w3.org/Graphics/SVG/1.1/DTD/svg11.dtd">
<!-- Creator: CorelDRAW 2021 (64-Bit) -->
<svg xmlns="http://www.w3.org/2000/svg" xml:space="preserve" width="1080px" height="1080px" version="1.1" style="shape-rendering:geometricPrecision; text-rendering:geometricPrecision; image-rendering:optimizeQuality; fill-rule:evenodd; clip-rule:evenodd"
viewBox="0 0 1080 1080"
 xmlns:xlink="http://www.w3.org/1999/xlink"
 xmlns:xodm="http://www.corel.com/coreldraw/odm/2003">
 <defs>
  <style type="text/css">
   <![CDATA[
    .fil0 {fill:black}
   ]]>
  </style>
 </defs>
 <g id="图层_x0020_1">
  <metadata id="CorelCorpID_0Corel-Layer"/>
  <g id="_2425739286480">
   <path class="fil0" d="M540 78.5l380.69 219.79 -109.48 63.21c0.1,-3.15 -0.26,-6.3 -1.06,-9.43 -1.52,-5.94 -4.72,-11.67 -9.26,-16.9l-16.49 -18.97 -18.97 -16.49c-5.22,-4.54 -10.95,-7.73 -16.9,-9.25 -5.6,-1.44 -11.28,-1.46 -16.91,0.06 -6.23,1.69 -11.7,5.05 -16.22,10.26 -1.3,1.49 -2.48,3.1 -3.53,4.83l-27.41 -15.83 -144.46 -83.4 -144.46 83.4 -48 27.72 -33.36 -28.5 6.74 43.87 -50.86 29.36 -110.74 -63.94 380.68 -219.79zm399.67 252.67l0 439.58 -380.68 219.79 0 -127.88 125.47 -72.44 144.47 -83.41 0 -166.81 0 -144.89 110.74 -63.94zm-418.65 659.37l-380.69 -219.79 0 -439.58 110.75 63.94 0 144.35 -53.31 19.26 53.31 27.2 0 120.89 46.15 26.65c-1.39,11.94 -2.06,25.41 -2.88,41.74l-1.64 32.69 32.69 -1.64c35.17,-1.76 57.23,-2.87 78.41,-11.26l117.21 67.67 0 127.88z"/>
   <path class="fil0" d="M577.41 352.75c9.8,-7.33 28.01,-9.72 42.56,-13.05 -47.95,-17.49 -77.57,-12.16 -81.97,-11.38 -0.45,3.4 -1.91,15.45 -7.3,24.43 19.76,-3.59 31.31,-3.34 46.71,0zm-223.77 7.05c4.66,30.34 -7.67,79.18 -10.03,85.4 -2.35,6.22 -6.57,11.79 -15.68,38.94 -9.12,27.16 -9.42,74.77 -2.54,90.28 -16.68,-11.74 -37.23,-18.38 -56.83,-11.3 33.02,16.85 57.08,61.41 71.91,80.59 14.82,19.17 8.1,10.5 12.49,15.63 29.89,31.81 50.56,50.26 91.88,62.86 26.35,8.04 53.78,10.75 89.06,-1.88 38.12,-13.65 93.82,-85.51 62.91,-116.41 -8.64,4.84 -17.98,8.48 -27.63,10.72 -4.53,1.06 -9.8,1.33 -14.47,1.29 -43.65,-0.32 -80.01,-44.7 -81.58,-85.58 -1.57,-40.89 31.03,-72.4 61.38,-88.29 2.78,-4.14 6.6,-7.72 11.27,-10.41 4.32,-2.49 9.51,-4.24 15.22,-4.8 -12.98,-3.79 -21.53,-5.15 -42.31,-1.84 21.01,-15.4 37.36,-27.89 69.54,-33.11 1.18,-5.17 3.73,-9.81 9.26,-15.17 -49.1,-9.38 -116.63,-6.62 -174.88,70.53 20.52,-39.34 26.03,-52.07 70.39,-90.79 8.15,-7.11 22.9,-26.37 18.61,-50.77 -13.24,21.76 -37.47,33.6 -70.49,48.18 -25.04,11.06 -47.74,29.38 -64.46,52.51 -2.19,-9.39 -6.41,-31.63 -21.05,-44.9l-1.97 -1.68zm-31.2 418.37c2.22,-44.38 3.06,-65.3 21.14,-91.88 24.39,25.94 50.58,47.33 87.26,57.96 -35.8,30.58 -55.33,31.25 -108.4,33.92zm176.36 -248.93l33.16 -32.08c7.66,-7.41 18.83,-25.91 22.91,-39.64 0.87,-2.92 4.6,-5.51 9.76,-5.62l24.91 -0.53 1.38 -4.31c0.75,-2.37 1.76,-2.72 3.88,-2.73l16.04 -0.07c0.82,-0.01 1.46,-0.72 1.46,-1.5l0.14 -35.28c0.03,-6.9 -0.1,-10.45 5.35,-14.95l11.31 -9.35 28.47 29.17 72.78 -71.49 4.55 -17.8c1.78,-6.95 6.69,-6.72 12.09,-2.03l17.43 15.16 15.15 17.43c4.69,5.39 4.93,10.3 -2.02,12.08l-17.8 4.55 -71.5 72.78 29.18 28.47 -9.35 11.31c-4.51,5.45 -8.05,5.33 -14.95,5.35l-35.29 0.14c-0.77,0.01 -1.49,0.65 -1.49,1.46l-0.08 16.04c-0.01,2.12 -0.36,3.13 -2.72,3.89l-4.31 1.37 -0.54 24.91c-0.11,5.16 -2.69,8.89 -5.62,9.76 -13.72,4.09 -32.22,15.26 -39.63,22.91l-5.43 5.61 -13.33 7.53c-3.83,2.16 -7.52,3.91 -11.07,5.27 -3.14,1.21 -6.56,2.17 -10.22,2.9l0 0c-2.3,0.39 -4.26,0.61 -5.91,0.67 -13.58,0.53 -26.42,-5 -36.6,-14.17 -10.74,-9.68 -18.42,-23.26 -21.07,-38.22 -0.57,-3.24 -0.92,-6.19 -1.02,-8.79 0,-0.07 0,-0.13 0,-0.2zm-21.99 227.74c77.25,28.74 152.7,10.78 199.33,-35.21 -3.51,6.46 -7.68,13.63 -11.98,19.88 57.56,-33.26 128.01,-127.64 78.81,-225.25 9.06,7.37 16.65,16.33 23.07,28.55 0.4,-41.63 -11.31,-79.68 -33.74,-110.68l-8.24 8.38 27.72 27.05 -24.19 29.25c-11.9,14.39 -19.54,14.42 -33.96,14.47l-12.89 0.05c-1.04,4.42 -3.52,8.88 -6.55,12.27l-0.23 10.73c-0.15,6.94 -2.06,13.25 -5,18.36 -4.32,7.49 -11.02,12.84 -18.65,15.14l0 0.02c-7.93,2.37 -23.03,10.38 -28.74,16.28l-3.03 3.13c5.73,6.38 9.59,13.74 11.84,21.82 4.44,15.92 1.44,33.44 -5.29,50.8 -24.32,62.62 -80.02,96.76 -148.28,94.96z"/>
  </g>
 </g>
</svg>
