<svg height="512pt" viewBox="0 -70 512 512" width="512pt" xmlns="http://www.w3.org/2000/svg"><path d="m0 82.582031s82.582031 82.582031 256 82.582031 256-74.324218 256-74.324218l-90.65625 260.371094c-5.109375 12.351562-17.15625 20.402343-30.519531 20.402343h-269.363281c-13.507813 0-25.652344-8.222656-30.671876-20.761719zm0 0" fill="#ffd422"/><path d="m0 80.285156c0-28.539062 26.355469-49.78125 54.242188-43.71875l71.136718 15.464844c42.914063 9.328125 86.703125 14.035156 130.621094 14.035156s87.707031-4.707031 130.621094-14.035156l66.550781-14.46875c30.242187-6.574219 58.828125 16.464844 58.828125 47.414062 0 18.714844-10.761719 35.761719-27.660156 43.808594l-74.375 35.417969c-46.996094 22.378906-98.394532 33.992187-150.445313 33.992187-56.554687 0-112.269531-13.707031-162.367187-39.953124l-73.171875-38.324219c-14.742188-7.726563-23.980469-22.992188-23.980469-39.632813zm0 0" fill="#fcee21"/><path d="m371.613281 115.613281c0 63.851563-231.226562 63.851563-231.226562 0 0-63.851562 51.761719-115.613281 115.613281-115.613281s115.613281 51.761719 115.613281 115.613281zm0 0" fill="#ffd422"/><path d="m305.550781 280.773438c0 27.367187-22.1875 49.550781-49.550781 49.550781s-49.550781-22.183594-49.550781-49.550781c0-27.363282 22.1875-49.546876 49.550781-49.546876s49.550781 22.183594 49.550781 49.546876zm0 0" fill="#ee8700"/><path d="m256 53.679688c0 15.960937-12.941406 28.902343-28.902344 28.902343-15.964844 0-28.90625-12.941406-28.90625-28.902343 0-15.964844 12.941406-28.90625 28.90625-28.90625 15.960938 0 28.902344 12.941406 28.902344 28.90625zm0 0" fill="#fff"/><path d="m256 214.710938c-36.425781 0-66.0625 29.636718-66.0625 66.0625 0 36.429687 29.636719 66.066406 66.0625 66.066406s66.0625-29.636719 66.0625-66.066406c0-36.425782-29.636719-66.0625-66.0625-66.0625zm42.84375 41.289062h-34.585938v-24.027344c14.773438 2.492188 27.324219 11.519532 34.585938 24.027344zm6.703125 24.773438c0 2.820312-.289063 5.566406-.746094 8.257812h-40.542969v-16.515625h40.542969c.457031 2.691406.746094 5.4375.746094 8.257813zm-99.097656 0c0-2.816407.292969-5.566407.75-8.257813h40.542969v16.519531h-40.542969c-.457031-2.695312-.75-5.441406-.75-8.261718zm41.292969-48.800782v24.027344h-34.585938c7.257812-12.507812 19.8125-21.535156 34.585938-24.027344zm-34.585938 73.574219h34.585938v24.027344c-14.773438-2.492188-27.328126-11.519531-34.585938-24.027344zm51.101562 24.027344v-24.027344h34.585938c-7.261719 12.507813-19.8125 21.535156-34.585938 24.027344zm0 0" fill="#fcee21"/></svg>