<?xml version="1.0" encoding="iso-8859-1"?>
<!-- Generator: Adobe Illustrator 19.0.0, SVG Export Plug-In . SVG Version: 6.00 Build 0)  -->
<svg version="1.1" id="Capa_1" xmlns="http://www.w3.org/2000/svg" xmlns:xlink="http://www.w3.org/1999/xlink" x="0px" y="0px"
	 viewBox="0 0 392.41 392.41" style="enable-background:new 0 0 392.41 392.41;" xml:space="preserve">
<g>
	<g>
		<path d="M94.16,232.66c-1.477,1.476-3.479,2.305-5.567,2.303c-2.113,0.002-4.139-0.842-5.626-2.343l-68.352-68.414
			c-3-3.041-6.209-6.222-8.209-9.515v197.87c-0.076,5.483,3.623,10.301,8.94,11.644l112.06,27.955V199.833L94.16,232.66z"/>
	</g>
</g>
<g>
	<g>
		<circle cx="89.536" cy="88.67" r="32.07"/>
	</g>
</g>
<g>
	<g>
		<path d="M152.748,27.305c-0.149-0.15-0.298-0.299-0.447-0.447c-0.015-0.015-0.029-0.2-0.043-0.21
			C135.826,9.8,113.299,0.284,89.766,0.25h-0.3C65.723,0.281,42.978,9.801,26.293,26.692
			c-34.887,34.441-35.075,91.063-0.452,126.136l62.765,62.857l63.735-62.841C187.12,118.29,187.302,62.084,152.748,27.305z
			 M89.545,136.74c-26.549,0.001-48.072-21.522-48.073-48.071c0,0,0-0.001,0-0.001c0.03-26.535,21.532-48.039,48.067-48.072h0.004
			c26.549-0.001,48.072,21.522,48.073,48.071S116.094,136.739,89.545,136.74z"/>
	</g>
</g>
<g>
	<g>
		<path d="M383.478,82.705L383.478,82.705l-103.072-27.15V362.05l97.024,25.9c3.631,0.976,7.508,0.209,10.494-2.076
			c2.915-2.288,4.577-5.819,4.482-9.524V94.309C392.41,88.862,388.743,84.097,383.478,82.705z"/>
	</g>
</g>
<g>
	<g>
		<path d="M192.85,72.193c1.055,5.841,1.615,11.761,1.674,17.696c0.023,27.911-11.121,54.672-30.948,74.317l-20.17,19.852v208.1
			l121-30.222V55.281L192.85,72.193z"/>
	</g>
</g>
<g>
</g>
<g>
</g>
<g>
</g>
<g>
</g>
<g>
</g>
<g>
</g>
<g>
</g>
<g>
</g>
<g>
</g>
<g>
</g>
<g>
</g>
<g>
</g>
<g>
</g>
<g>
</g>
<g>
</g>
</svg>
