<?xml version="1.0" encoding="iso-8859-1"?>
<!-- Generator: Adobe Illustrator 16.0.0, SVG Export Plug-In . SVG Version: 6.00 Build 0)  -->
<!DOCTYPE svg PUBLIC "-//W3C//DTD SVG 1.1//EN" "http://www.w3.org/Graphics/SVG/1.1/DTD/svg11.dtd">
<svg version="1.1" id="Capa_1" xmlns="http://www.w3.org/2000/svg" xmlns:xlink="http://www.w3.org/1999/xlink" x="0px" y="0px"
	 width="279.882px" height="279.883px" viewBox="0 0 279.882 279.883" style="enable-background:new 0 0 279.882 279.883;"
	 xml:space="preserve">
<g>
	<g>
		<path d="M209.801,68.59c-9.7-16.4-29.601-28.1-51.5-33.6c6.6-7.7,13.8-16.5,15.6-26c0.601-3.5-0.899-6-4.1-7.3
			c-13.2-5.3-24.3,2.6-30.8,13.5c-5-10.1-13.3-18.1-25-12c-6.1,3.1-8.3,9.4-6.6,15.9c1.5,5.7,6.1,10,11.4,13.2
			c-21.4,2.7-39.8,12.8-46.9,32.1c-25.7,18.7-38.8,54.1-34.5,84.9c0.3,2.5,2.3,3.6,4.4,3.8c13.7,16.4,38.5,18.8,58.5,17.8
			c11.8-0.6,30.5-4.2,41.9-13.1c13.301,10.2,42.801,14.899,50.5,15.6c12,1.101,58.2-2.2,61-21.1c2.601-0.9,4.7-3,4.5-6.2
			C256.901,120.49,241.001,72.29,209.801,68.59z M160.401,12.19c-3.2,7.3-9.2,14.1-15,20.4c-0.2,0-0.5-0.1-0.7-0.1
			C146.701,23.99,151.801,13.09,160.401,12.19z M119.401,13.69c7.5-3.1,11.2,7.6,12.7,14.9
			C127.601,25.49,114.101,15.89,119.401,13.69z M141.601,134.29c-12.5-25.6-32.5-52-55.5-68.2c11.2-12.6,29.2-19.5,47.8-20.6
			c-5.3,6.2-13.4,16.8-4.8,20.9c2.8,1.3,5.2-0.1,5.8-2.4c0.1-0.1,0.2-0.1,0.3-0.2c0.6-0.6,1.1-1.3,1.6-2c1.3-2.3,2.8-4.4,4.5-6.5
			c1-1.3,2.1-2.6,3.2-3.9c0.699,1.3,1.5,2.6,2.199,3.9c2.2,4,4,8.9,8.101,11.3c3.5,2,7.3-1.3,6.5-5c-1-4.6-5.3-8.3-7.9-12.1
			c-0.8-1.2-1.6-2.3-2.5-3.4c17.8,2.4,34.4,10.2,44.2,23.7C170.201,77.39,151.401,109.59,141.601,134.29z"/>
		<path d="M264.801,200.189c5.2-4.399,8.8-10.6,9.1-19.1c0.101-3.4-2.8-5.6-5.899-5.9c-13.301-1.199-29.801,7.2-36.801,19.2
			c-1-0.899-2.199-1.5-3.899-1.399c-61.8,4.1-121.701,0.8-183.4-0.801c-0.6-0.899-1.4-1.699-2.5-2.1c-5.7-9-14-15.5-22.4-22.5
			c-3-2.5-7-2.1-9.2,1.2c-9.9,14.5,1.1,24.2,14,29.3c-10.1,9-15.4,22.4-11.3,36.3c1.2,4.101,5.6,5.601,9.3,3.8
			c8.4-4.3,14.2-11.399,19.2-19.3c1.9-3,5-7.6,6.4-12c13.2,5.9,24.5,10,37.5,21c17.2,14.7,29.8,34.4,47.2,48.4
			c8,6.5,16.701,3.1,24.401-1.7c25.5-16,46.6-43,70.899-62c4.8,8.5,12.4,16.5,22.4,18.2c7.899,1.399,16.1-1.5,20.7-8.2
			c4.399-6.2,3.699-13.9-1.4-19.4C267.701,202.09,266.301,201.09,264.801,200.189z M33.001,207.689c-2.4,4.601-5.2,9-8.8,12.801
			c1.2-5.601,4.7-10.5,9.4-14.2C33.401,206.689,33.201,207.189,33.001,207.689z M260.201,187.59c-3,5.3-9.1,7.9-15.6,9
			c-0.8,0-1.7,0.1-2.5,0.2c1.4-1.2,2.9-2.2,4.5-3.3C250.601,190.689,255.301,188.59,260.201,187.59z M260.101,215.89
			c-6.4,8-15,0.4-20.4-6.7c1.601-0.1,3.101-0.199,4.7-0.5c5.3-0.199,10.8,0.2,15.101,2.9
			C261.701,212.89,261.101,214.59,260.101,215.89z"/>
	</g>
</g>
<g>
</g>
<g>
</g>
<g>
</g>
<g>
</g>
<g>
</g>
<g>
</g>
<g>
</g>
<g>
</g>
<g>
</g>
<g>
</g>
<g>
</g>
<g>
</g>
<g>
</g>
<g>
</g>
<g>
</g>
</svg>
